<?xml version="1.0" standalone="no"?>
<!DOCTYPE svg PUBLIC "-//W3C//DTD SVG 20010904//EN"
 "http://www.w3.org/TR/2001/REC-SVG-20010904/DTD/svg10.dtd">
<svg version="1.0" xmlns="http://www.w3.org/2000/svg"
 width="70.000000pt" height="70.000000pt" viewBox="0 0 70.000000 70.000000"
 preserveAspectRatio="xMidYMid meet">
<metadata>
Created by potrace 1.14, written by Peter Selinger 2001-2017
</metadata>
<g transform="translate(0.000000,70.000000) scale(0.100000,-0.100000)"
fill="#000000" stroke="none">
<path d="M357 662 c-23 -25 -21 -59 2 -72 25 -13 27 -13 45 6 22 21 20 61 -3
74 -25 13 -25 13 -44 -8z"/>
<path d="M573 648 c-32 -41 -14 -85 29 -75 47 12 45 87 -2 87 -10 0 -22 -6
-27 -12z"/>
<path d="M301 554 c-37 -16 -85 -65 -102 -106 l-11 -28 -28 20 c-28 20 -118
45 -128 35 -3 -3 4 -15 15 -28 11 -12 23 -42 26 -66 4 -31 13 -50 29 -62 20
-16 24 -16 31 -2 21 37 4 113 -26 113 -5 0 -3 -8 6 -18 18 -20 23 -77 8 -87
-13 -8 -29 24 -34 67 -2 19 -7 40 -11 46 -10 16 9 15 44 -3 34 -17 33 -14 30
-111 -1 -62 2 -75 22 -99 36 -42 100 -37 160 13 55 46 100 173 88 245 -5 29
-4 40 7 44 10 4 5 10 -17 19 -50 22 -73 23 -109 8z m67 -46 c17 -17 15 -96 -3
-149 -19 -55 -70 -119 -95 -119 -45 0 -50 110 -10 192 40 78 78 106 108 76z"/>
<path d="M520 554 c-14 -7 -35 -13 -48 -14 -23 0 -23 -1 6 -25 l30 -25 -30
-113 c-16 -61 -36 -119 -44 -128 -20 -22 -120 -66 -168 -73 -63 -10 -110 9
-180 74 -35 33 -67 60 -71 60 -12 0 4 -99 22 -133 102 -199 340 -221 463 -43
17 26 42 58 55 72 14 15 25 37 25 50 0 12 7 30 16 38 8 9 11 16 5 16 -14 0
-29 -18 -49 -59 -27 -56 -44 -49 -20 8 15 34 31 55 54 67 18 10 36 16 39 13
11 -12 -17 -115 -37 -131 -11 -10 -16 -18 -11 -18 17 0 39 34 52 80 7 25 22
55 33 66 11 12 16 24 11 27 -15 9 -106 -12 -125 -30 -10 -9 -18 -14 -18 -12 0
2 13 52 29 111 29 107 29 112 -4 131 -6 3 -21 -1 -35 -9z"/>
</g>
</svg>
