<svg xmlns="http://www.w3.org/2000/svg" xmlns:xlink="http://www.w3.org/1999/xlink" viewBox="0 0 516.29 415.28"><defs><style>.cls-1{fill:#fff;}.cls-2{fill:#ce9b72;}.cls-3{fill:#5ce0de;}.cls-4{fill:#231815;}.cls-5{fill:#ffdacc;}.cls-6{clip-path:url(#clip-path);}</style><clipPath id="clip-path"><path d="M498.36,301c-4.5-.52-9-1-13.5-1.58-30.06-4-60.12-7.93-90.15-12.09a99.91,99.91,0,0,1-14.55-3.65c-3.7-1.11-3.84-1.17-3.24,2.53-13.53,8.33-27.07,16.7-40.65,25a14.69,14.69,0,0,1-3.36,1.09l-.53-.91a12.63,12.63,0,0,1,2.27-2.29c12.17-7.15,24.35-14.29,36.61-21.28,2.06-1.16,2.81-2,2.68-4.68a53.3,53.3,0,0,1,1.44-12.95c4.11-20.52,8.4-41,12.61-61.52a26,26,0,0,1,.41-2.69c.16-.49.75-.84,1.14-1.26a8.81,8.81,0,0,1,.95,1.34,16.41,16.41,0,0,1,.76,2c.45-.58,1.17-1.09,1.3-1.73.37-1.79,1.38-2.1,3-1.85q50.19,7.85,100.39,15.67c3.05.47,6.06,1.23,9.1,1.73,2.17.36,3.43,1.13,2.61,3.61-.12.39.28,1,.44,1.45l.84.1c.37-1.85.65-3.73,1.12-5.55a8.08,8.08,0,0,1,1.2-2,6,6,0,0,1,.58,2c-.53,5-1.15,10.07-1.61,15.13,2.25-5.86,2.17-12.51,6.08-18.24l-13.43,80,6.58,1.79,0,1c-.84.2-1.78.74-2.51.54-3.84-1.09-5.93,1-8,3.78a41.6,41.6,0,0,1-5.38,5.73q-15.82,14.69-31.75,29.27c-3.49,3.2-7.05,6.32-10.59,9.48-.13.12-.37.19-.42.33-1.49,4.42-4.43,2.91-7.6,2.19-16.78-3.81-33.61-7.39-50.42-11.07-6.94-1.52-13.87-4.37-20.79-4.34-9.63.05-18.55-3.26-28-3.85-8.24-.52-16.38-2.4-24.58-3.61-1.34-.19-2.74,0-4.12-.35,3.75-2.18,7.77-.8,11.68-.7,0-.23,0-.45.07-.68-2.5-.39-5-.82-7.51-1.16-3.21-.44-3.9-1.34-2.5-4.27a14.46,14.46,0,0,1,3.56-4.22,42.9,42.9,0,0,1,5.11-3.63,6.68,6.68,0,0,1,3.05-1c-2.21,1.89-3.37,5-6.89,5.24-2.37.15-3,2.08-2.92,3.89,0,.7,1.68,1.8,2.68,1.92,13.65,1.64,27.44,2.43,40.95,4.82,26.88,4.77,53.62,10.39,80.41,15.69a16.23,16.23,0,0,1,4.44,1.29c2.61,1.36,4.29.44,6.21-1.44,6.19-6.06,12.55-11.92,18.84-17.87a20.89,20.89,0,0,0,3.22-3.71,202.77,202.77,0,0,0-24.78,21c-.91-2.39-.18-3.78,1.28-5.17,13.27-12.58,28.11-23.18,42.73-34.05,1.34-1,2.53-2.18,3.79-3.28ZM386.12,275.48c1.62.11,3.25.13,4.85.35q29.5,4.1,59,8.26c11.26,1.57,22.53,3.1,33.77,4.77a36,36,0,0,1,8.44,2.09c2.22.9,2.9.05,3.25-1.7.54-2.76.94-5.56,1.36-8.35q3.56-24.06,7-48.12c.13-.94-.12-2.61-.66-2.84a22.72,22.72,0,0,0-5.71-1.46c-1.85-.28-3.78,0-5.62-.37-17.64-3.21-35.24-6.7-52.93-9.68-11.3-1.9-22.73-3.07-34.1-4.61-1.49-.2-2.94-.69-4.41-1,0-.2.09-.41.14-.61l3.79-.6c-6.57-2.19-7.56-1.33-8.63,4.6a4.69,4.69,0,0,0-.06.54c-.82,6-1.49,12.11-2.49,18.13C390.92,248.27,388.51,261.68,386.12,275.48Zm44.68,14.29c0-.22.07-.43.1-.65-9.45-1.65-18.89-3.37-28.35-4.95-7.08-1.18-14.18-2.19-21.28-3.28-2.32-.35-2.85-1.46-2.3-3.81,1.12-4.75,1.83-9.59,2.71-14.39-.77.18-1.15.49-1.26.88-1,3.82-2.19,7.62-2.94,11.5-1.08,5.63-1,6,4.41,7,12,2.22,24,4.14,36,6.08C422.17,288.82,426.5,289.23,430.8,289.77ZM448,350.29c0-.47.07-.93.11-1.4l-60.84-12.45-.15.65c.85.24,1.7.52,2.56.72q27.54,6.24,55.07,12.45A15.31,15.31,0,0,0,448,350.29Zm14.22-131.87c.06-.32.11-.65.17-1l-25-3.88c0,.26-.09.53-.13.79Z"/></clipPath></defs><g id="Capa_2" data-name="Capa 2"><g id="レイヤー_2" data-name="レイヤー 2"><path class="cls-1" d="M306.56,273.24s22.43-51.49,12-58.4C310.27,219,295.36,245,294,261.68c-4,2.63-11.9,5.33-12.28-.31S266,231.09,267.32,251s-1.57,26.14-1.57,26.14a55.72,55.72,0,0,0-6.24,38.46c4.54,21.62,8.74,85.68,24.9,90.5s20-3.09,22-26.66C297.42,360.2,284,322,284,322s33.18-19.12,28.59-35.62C308.45,275.93,306.56,273.24,306.56,273.24Z"/><path class="cls-1" d="M250.59,259.69l-26.27-7.12s-17.94,19.85-61.78,24.05a145.21,145.21,0,0,1,4,29.92l25-.63L100,315.14l24.39-12.09,3.63-30.49s-40.6-13.8-58-40.42L55.71,224.3l1.66,24L30.62,235.86,51.51,223a5.59,5.59,0,0,1-.74-8.16l-10.16-5s-10.73-3.44-11.24-18.76,13.87-51,13.87-51l88-87.85L259.51,173.81,240.68,193.4s9.69,22.92,3.31,34.36C245.64,233.48,250.59,259.69,250.59,259.69Z"/><path class="cls-2" d="M16.89,178.52c5.09,3.16,8.46,5,10.61,6.13a3.89,3.89,0,0,0,.13.54c.19.47.09,1,.22,1.3.29.81,0,1,.65.85s.45-.34,1-.74.79,0,1.32-.44a2.73,2.73,0,0,0,.37-.32l.82-.72c.38-.19.59-.06,1-.39s.28-.72.8-1.11.79-.05,1.31-.44.19-.86.71-1.25.6-.29,1.13-.69,1.75-.38,1.38-.92c-.21-.29-.45-.24-.73-.11l.95-.84a6.86,6.86,0,0,0-.06,1.18c.57-.23.48-.46,1-.75a9.68,9.68,0,0,0,1.32,0c.44-.1.64-1.09,1.07-1.24s1,.09,1.42-.11,1-.17,1.37-.41.47-.92.83-1.21.74-.14,1.06-.46c.62,0,.58-.1,1.16.11s.64,0,1.22.25.55.28,1.13.49.57.24,1.14.45.7-.12,1.27.09.39.73,1,.94c.4.15.41,0,.82-.11s.13-.33.44-.62,1.21,0,1.53-.3.25-1,.56-1.32.47-.78.79-1.08,1.16-.06,1.47-.37.57-.67.89-1,.43-.82.75-1.12.56-.69.87-1,1-.18,1.35-.48.28-1,.6-1.28.41-.86.73-1.16.7-.53,1-.82,1-.15,1.37-.44l1-.86c.33-.28.24-1.05.57-1.34s1.15,0,1.49-.28.65-.59,1-.87.39-.89.73-1.18.73-.49,1.06-.77.82-.39,1.16-.67.25-1.06.59-1.34,1.19.07,1.53-.21.19-1.16.53-1.43,1.2.1,1.54-.17.2-1.17.54-1.44.71-.52,1-.79.53-.76.87-1,.89-.31,1.25-.58.92-.28,1.26-.55.77-.48,1.12-.76.28-1.06.62-1.35,1.06-.12,1.4-.42.21-1.1.54-1.4.83-.41,1.16-.71.61-.65.94-1,.79-.46,1.11-.77.61-.65.92-1,.73-.54,1-.86.54-.72.84-1.05.46-.78.76-1.11.71-.5,1-.82.29-.85.55-1.18,1.06-.24,1.32-.57.67-.56.92-.9-.21-1.18,0-1.53.69-.55.91-.91.44-.71.65-1.08.35-.75.55-1.11.56-.64.75-1l.56-1.11c.19-.36.59-.62.77-1s0-.9.24-1.27.83-.5,1-.86.47-.7.66-1.07.09-.94.28-1.33,0-1,.14-1.4.63-.67.82-1.06.73-.61.93-1,.52-.72.72-1.11.16-.9.37-1.28,0-1,.19-1.39,1.15-.37,1.36-.76.39-.78.6-1.16.16-.92.37-1.3.7-.61.91-1,.26-.86.47-1.24,0-1,.2-1.4.65-.64.87-1,.23-.88.45-1.26.32-.83.54-1.2.78-.56,1-.93.23-.89.46-1.26.73-.58,1-1,.21-.91.45-1.28.28-.86.52-1.23,1.3-.2,1.54-.57.31-.84.55-1.21.06-1,.3-1.38.54-.69.78-1.06.77-.54,1-.9.23-.91.46-1.29.33-.83.57-1.21.88-.5,1.11-.87.22-.91.45-1.29l.69-1.14c.23-.38.93-.48,1.15-.86s.16-.94.39-1.33.56-.7.78-1.08.12-1,.34-1.35.37-.8.58-1.19.85-.55,1.06-.94.47-.76.68-1.16.39-.8.59-1.2c.07-.15-.19-.24-.21-.37a.44.44,0,0,0,.4,0c.18-.37.41-1,.59-1.42s.47-.7.64-1.08.06-.89.22-1.28.36-.69.49-1-.43-.9-.35-1.3.21-.26.28-.56c0-.13.55,0,.71-.09a2.07,2.07,0,0,1,.27.74c0,.44-.49.93-.45,1.37s0,.91.06,1.35.44.8.51,1.23.53.76.62,1.18-.42,1-.31,1.39.66.71.78,1.12.52.72.66,1.13-.33,1.26-.13,1.76.4,1,.62,1.51,1,.33,1.15.63-.07.91.13,1.22.19.75.4,1.07.35.79.6,1.13.77.47,1,.8,1,.3,1.24.64.43.72.69,1,.41.74.67,1.06.74.48,1,.8-.25,1.3,0,1.62,1.05.21,1.32.53.08,1,.35,1.35,1,.24,1.28.56.5.66.77,1,.84.36,1.11.67.53.64.81.95-.11,1.21.17,1.52,1.13.09,1.41.4.4.76.68,1.06.71.48,1,.78.1,1,.38,1.34,1,.21,1.27.51.26.9.54,1.2c0,0,.31-.25.33-.23s-.41.51-.38.53c.45.39.43.41.88.8s.67.12,1.12.51.49.33.94.71,1.19.38,1.5.54c.5.42.09.89.55,1.34s.73.18,1.19.63.11.82.57,1.27.57.35,1,.8.57.34,1,.78.25.66.71,1.11.74.17,1.2.62.21.7.67,1.15.6.31,1,.77c.25.29.28.8.56,1.09s1.08-.06,1.4.21c.06,0-.59.64-.52.69a4.59,4.59,0,0,0,.5,1c.19.33.36.69.54,1s.9.43,1.15.76.3.87.55,1.21.92.37,1.18.7-.1,1.18.17,1.52.75.5,1,.83.82.44,1.09.78.81.41,1.07.73.22.9.48,1.22.57.6.84.92.67.51,1,.82.43.73.72,1,.35.83.65,1.12.5.8.84,1.11.84.43,1.22.71a9.77,9.77,0,0,0,1.15.84,2.07,2.07,0,0,0,1.25.19c.21,0,.53.29.74.25.5-.09,1-1,1.16-1.44a1.55,1.55,0,0,0,.2-.63c.42,0,1.08-.4,1.61-.21s.69,1.06,1.14,1.27a16.32,16.32,0,0,1,1.53.64c.24.15.75-.13,1,0s.53.36.82.55.3.86.66,1,.54-.26,1-.22c.24,0,.43.21.86.11a1.17,1.17,0,0,0,.83-.57s.05.14.05.13a3.46,3.46,0,0,0,1.2.7,3.17,3.17,0,0,0,1.47,0c.59-.24.67-1,.93-1.37A3.25,3.25,0,0,0,197,141c.1-.4,1-.62,1-1a1.37,1.37,0,0,1,0-.2c.38-.14.83-.37,1.17-.22s.4,1.22.81,1.46,1.16-.13,1.55.13.67.67,1,.95,1,.28,1.33.57.21,1.22.56,1.51,1.08.1,1.41.4.19,1.13.52,1.43.64.61,1,.9.72.53,1,.83.6.66.93,1,1.09.11,1.43.41.39.9.73,1.19,1,.17,1.37.46.42.88.76,1.17.91.3,1.25.58.77.46,1.12.74.68.47,1,.73.28,1,.62,1.27.75.41,1.1.64.55.42.85.59.49.57.83.73.53-.08.82,0,.43-.08.64-.08c.47-.08.66-.48.89-1,.12-.19.56.07.58-.12a4.87,4.87,0,0,1,.68.44c.31.2.67.32,1,.55s.55.54.85.78.85.17,1.14.42.53.49.79.74.58.48.81.74a6.45,6.45,0,0,1,.66.87c0,.08.44,0,.43,0,.07.23-.49.81-.42.94.19.35.49.57.67.85.35.54.47,1.25.84,1.76.25.33,1.22.1,1.47.43s0,1.07.21,1.39.73.47,1,.79.12,1,.38,1.28.66.52.92.83.81.39,1.08.69c.37.47.58.31.94.78s.13.65.49,1.12.1.67.46,1.14.33.49.69,1,1-.06,1.39.4.18.94.33,1.32a10.17,10.17,0,0,1,.14,1.25c.11.4.14.83.27,1.23s.68.58.9.95.05,1.06.38,1.35.47.5.75.87a5.24,5.24,0,0,1,.75,1A11.4,11.4,0,0,1,244,183c.14.39.62.69.74,1.12s.09.86.19,1.29-.15.91-.05,1.34.36.79.45,1.22.22.83.31,1.25-.14.91-.05,1.33.22.84.31,1.25.59.76.69,1.17-.19,1-.07,1.35,1.06.58,1.2.95-.51,1.21-.32,1.55a4.09,4.09,0,0,0,.93,1.06,2,2,0,0,0,1.36.28l.06,4.57,5.63-1.3s49.38-53.07,25.38-109.68a149.5,149.5,0,0,0-21.13-34.54s0,0,0-.05,0,0-.05,0c-.5-.61-1-1.23-1.51-1.84A.53.53,0,0,0,258,55a2,2,0,0,0-.44-.42l-.65-.76c-.08-.38,0-.9-.18-1.19s-.7-.24-1.1-.32l-.52-.6c0-.41.18-.95,0-1.21s-1.16-.22-1.44-.57-.51-.71-.8-1.05-.47-.77-.76-1.1-.59-.67-.89-1-.63-.62-.93-.94-.66-.6-1-.92-.63-.61-.94-.93-.48-.77-.79-1.08-.67-.58-1-.89-.76-.49-1.07-.8-.25-1-.57-1.32-.77-.47-1.09-.77-.9-.34-1.22-.64-.32-.94-.64-1.23-.82-.39-1.14-.68-.3-1-.63-1.27-1.24.1-1.57-.18-.4-.87-.73-1.16-.63-.6-1-.88-.45-.82-.78-1.1-1-.16-1.34-.44-.19-1.14-.53-1.41-.85-.34-1.19-.61-.78-.43-1.12-.69-1-.1-1.37-.37-.61-.63-1-.89-.36-1-.71-1.23-.65-.59-1-.85-1-.16-1.31-.41l-1.06-.74c-.1,0-.06-.14-.17-.16s0,.09,0,.05a4.76,4.76,0,0,0-1-.32l-.39-.27c-.23-.27-.38-.65-.66-.84s-.53-.73-.89-1-.85-.24-1.21-.47-.74-.41-1.1-.63-.74-.41-1.1-.63-.66-.53-1-.75l-1.1-.62c-.37-.21-.69-.49-1.06-.7a1.63,1.63,0,0,0-.74-.13c-.79-.47-1.57-.92-2.36-1.37a1.09,1.09,0,0,0-.29-.24,1.4,1.4,0,0,0-.36-.13q-2.37-1.32-4.77-2.53a1,1,0,0,0-.39-.51,2,2,0,0,0-.81-.1c-26.88-13.24-56.29-15.6-81.42,3.09-.24.14-.48.28-.74.4-.42.2-.74.62-1.18.8s-1-.06-1.35.15-.45.88-.8,1.12-1,.1-1.29.35-.34.94-.67,1.2-1,0-1.34.29-.33,1-.67,1.19l-.13.08-5.91,1.8S78.45,10.24,45.08,44.47-9.62,137.66,16.89,178.52Zm218.52-22.33c.41-.06.71-.26,1.12-.32a2.32,2.32,0,0,0,.51-.16l1,.71c-.39.18-.69.52-1.07.71-.11.05-.66.13-.78.19-.28-.27-.5-.79-.78-1C235.3,156.21,235.5,156.27,235.41,156.19Zm-52.08-16.45a2,2,0,0,1,.64.38ZM131.2,77.58c.11-.25,0-.41.25-.46a1.26,1.26,0,0,0,.12.42C131.42,77.56,131.18,77.7,131.2,77.58ZM104.55,96.33s0-.14,0-.24l.64-.81c.07.22.28.85.28.88C105.26,96.27,104.75,96.22,104.55,96.33ZM73.91,157.89c.12-.19,0-.07.1-.27s.3-.68.5-1,.46-.78.66-1.09c.5-.16.78-.43,1.28-.26-.2.39-.08,1.41-.26,1.81s-.73.82-.9,1.22C74.56,158.55,74.59,158.36,73.91,157.89ZM62.37,159c.11-.18.65-1,.77-1.18,0,.18.07,1.05,0,1.23S62.45,159.22,62.37,159Z"/><path class="cls-3" d="M95.48,414.26a.71.71,0,0,1-.22.06.79.79,0,0,1-.25-.05Z"/><path class="cls-3" d="M118.72,413.72a1.45,1.45,0,0,1-.42,0,2,2,0,0,1-.47,0Z"/><path class="cls-3" d="M76.77,414.2a.62.62,0,0,1,.24-.08c.6,0,.62.69,1.23.67s.6-.24,1.21-.26.61.23,1.22.22.6-.4,1.21-.42.6-.34,1.21-.36.62.33,1.23.31.6-.31,1.21-.32.62.45,1.22.44.61-.31,1.21-.32.62.24,1.23.22.6,0,1.21,0,.6-.35,1.21-.36.62.62,1.23.61.59-.69,1.2-.71.59.29.91.42m4-.24c.51,0,.56-.06,1.13-.07s.6-.35,1.2-.36.61,0,1.22,0,.6.11,1.21.1.62.42,1.22.4.6-.54,1.2-.55.62.55,1.23.53.59-.63,1.2-.65.62.72,1.23.71.59-.58,1.2-.59l1.21,0c.55,0,.63.24,1.08.28m7.67-.71a4.37,4.37,0,0,0,1,.14c.6,0,.61.35,1.22.33s.6-.47,1.2-.49l1.22,0c.61,0,.61.06,1.22,0s.61.13,1.22.11.62.25,1.22.24.61-.33,1.22-.34.62.58,1.23.57.59-.73,1.2-.74.62.21,1.23.2l1.21,0c.61,0,.61-.05,1.22-.06s.61.12,1.22.11.6-.46,1.21-.47.62.5,1.23.49.6-.21,1.21-.22.6-.2,1.21-.22.62.37,1.22.35.6-.28,1.21-.29.61-.18,1.21-.19.62.39,1.23.38.61.29,1.22.28.59-.72,1.2-.73.62.44,1.23.43.59-.43,1.2-.44.62.24,1.22.22.6-.4,1.21-.41.61.09,1.22.08.6-.15,1.21-.17.61.05,1.22,0,.62.33,1.23.32.62.41,1.22.39.61-.26,1.22-.27.6-.52,1.21-.53.61,0,1.22,0,.62.56,1.23.54.61-.09,1.22-.11.61.06,1.22,0,.59-.55,1.2-.57.62.1,1.22.08.61-.22,1.22-.24.62.42,1.22.41.6-.39,1.21-.4.62.44,1.23.43.61,0,1.22,0,.6-.44,1.21-.45.62.46,1.22.45.61-.31,1.22-.32.6-.12,1.21-.13.62.31,1.23.3.61.21,1.22.2.61-.12,1.22-.13.61-.12,1.22-.14.61.2,1.22.18.61-.34,1.22-.36.59-.49,1.2-.5.62.22,1.23.2l1.22,0c.61,0,.6-.25,1.21-.26l1.22,0c.61,0,.61,0,1.22,0s.61.22,1.22.2.62.52,1.23.5.61-.18,1.22-.2.6-.24,1.21-.25.62.4,1.24.39.6-.14,1.21-.15.61-.16,1.22-.17.61-.13,1.22-.15.6-.2,1.21-.21.6-.07,1.21-.09.62.32,1.22.3.61-.05,1.22-.06.6-.07,1.21-.08.6-.29,1.21-.3.61.14,1.21.13l1.22,0c.61,0,.6-.31,1.21-.32s.61.35,1.22.33l1.22,0c.61,0,.61,0,1.22,0s.6-.26,1.21-.27.61,0,1.22,0,.62.23,1.23.21.61,0,1.23,0,.61.31,1.22.3.6-.54,1.21-.55.61,0,1.22,0,.6-.22,1.21-.24.61.05,1.22,0,.62.46,1.23.45.61-.1,1.22-.12.6-.51,1.21-.53.62.43,1.24.41.6-.28,1.21-.3.62.37,1.23.36.6-.66,1.21-.68.62.37,1.23.36.61.15,1.23.13l1.22,0c.61,0,.61-.23,1.22-.25s.61-.22,1.22-.23.62.63,1.24.62.6-.33,1.21-.34.62.12,1.23.11.62.12,1.23.1.6-.57,1.21-.59.63.66,1.24.64.61-.19,1.22-.21.6-.48,1.21-.49.62.41,1.23.4.61-.07,1.22-.08.62.18,1.23.17.61-.26,1.22-.27.6-.54,1.21-.55.62.22,1.24.2.61-.09,1.22-.11.62.41,1.24.4.6-.29,1.21-.3.63.45,1.25.43.6-.36,1.22-.37.61-.44,1.22-.45.64.57,1.25.56c.44,0,.82-.43,1.22-.51a5.74,5.74,0,0,0,1.14-.44c.39-.18,1.1.14,1.43-.12s.47-.82.72-1.15.06-.91.23-1.3.66-.63.74-1.06a5.85,5.85,0,0,0,.09-1.27,7.08,7.08,0,0,0-.15-1.27c-.14-.59.2-.48,0-1.24-.08-.33-.48-.65-.59-1.1s0-.79-.13-1.22-.51-.68-.61-1.09-.16-.77-.26-1.18-.08-.8-.18-1.2-.58-.68-.68-1.08-.22-.77-.32-1.17-.24-.76-.34-1.16.33-.91.23-1.31.09-.84,0-1.24-.66-.66-.76-1.05.28-.9.18-1.29-.36-.73-.46-1.13-.6-.67-.7-1.06-.13-.8-.23-1.19-.18-.78-.28-1.18-.45-.71-.55-1.1,0-.83-.13-1.22-.21-.78-.31-1.17-.34-.74-.44-1.14.42-.94.32-1.33-.9-.6-1-1-.05-.82-.16-1.21.37-.93.26-1.32-.23-.77-.34-1.16-.38-.73-.48-1.12-.32-.75-.42-1.14-.29-.76-.4-1.15-.32-.75-.43-1.14-.39-.73-.49-1.13.46-1,.35-1.36-.2-.78-.31-1.17-.2-.79-.31-1.18-1-.57-1.1-1,.47-1,.36-1.36a1,1,0,0,0-.25-.39l-1.25.62h-3.91l.06-2.18,2.45-2.95h1.57c-.22-.29-.71-.5-.81-.83s-.21-.79-.32-1.18.23-.92.11-1.3-.79-.62-.9-1-.42-.72-.53-1.11.19-.91.07-1.29-.11-.82-.23-1.2-.13-.82-.25-1.2-.6-.67-.72-1.05-.15-.81-.28-1.19-.21-.79-.33-1.17-.09-.82-.22-1.2-.35-.75-.47-1.12-.7-.63-.83-1,.4-1,.27-1.39-.69-.62-.82-1-.55-.66-.69-1-.09-.84-.24-1.21.05-.91-.1-1.27-.26-.79-.42-1.15-.64-.62-.81-1,0-.91-.22-1.25-.49-.78-.68-1.1a3.44,3.44,0,0,0-1-.76c-.29-.18-1,.15-1.37-.1s-.4-.84-.78-1.07-.61-.51-1-.73-.89-.05-1.26-.27-.74-.31-1.11-.52-.57-.62-.93-.83-.82-.17-1.19-.37-.55-.66-.91-.86-.82-.19-1.18-.39-.47-.81-.83-1-.75-.31-1.11-.51-.78-.26-1.14-.46-.91,0-1.28-.19-.74-.32-1.1-.51-.64-.53-1-.72-.65-.53-1-.71-.8-.22-1.16-.4-.67-.48-1-.66-.87-.08-1.24-.26-.64-.5-1-.68-.84-.11-1.21-.28-.42-1-.79-1.17-.94.1-1.31-.07-.56-.74-.93-.91a2.53,2.53,0,0,1-.23-.12c0,.11,0,.22,0,.33H226c.24-.28.47-.56.71-.83l-.08,0c-.37-.16-.6-.66-1-.82s-.91.05-1.28-.11-.61-.64-1-.8-.67-.5-1-.66l-1.13-.47c-.38-.15-.93.11-1.31,0s-.8-.19-1.18-.34-.65-.59-1-.73-.75-.34-1.13-.48-.85-.06-1.23-.2-.85,0-1.24-.17-.64-.65-1-.78-.85-.06-1.23-.18-.75-.38-1.14-.5-.84,0-1.23-.15-.71-.48-1.11-.6-.77-.28-1.16-.38-.89.14-1.28,0-.82-.09-1.21-.19-.65-.81-1.05-.9-.93.44-1.33.35-.8-.13-1.2-.21-.75-.43-1.15-.5-.76-.39-1.16-.45-.86.19-1.26.14-.78-.41-1.18-.46-.82,0-1.23,0-.84.3-1.24.28-.81.06-1.21,0-.81-.24-1.21-.24-.81-.49-1.23-.48-.81,0-1.23.05-.8.4-1.22.41-.81.17-1.22.18-.84-.57-1.25-.55-.81.13-1.22.15-.82-.05-1.24,0-.81.08-1.22.1-.8.35-1.21.37-.83-.16-1.24-.14-.77.6-1.18.63-.8.13-1.21.15-.85-.51-1.26-.48-.82-.08-1.23-.05-.79.33-1.19.36-.81.17-1.21.2-.78.49-1.19.52-.85-.38-1.26-.35-.82,0-1.23,0-.78.43-1.19.47-.79.24-1.2.28-.86-.45-1.27-.41-.81,0-1.22.07-.78.43-1.18.47-.86-.33-1.26-.29-.76.68-1.16.73-.87-.46-1.28-.41-.77.48-1.18.52-.86-.27-1.26-.23-.76.66-1.17.7-.84-.15-1.25-.1-.78.38-1.19.42-.88-.48-1.29-.44-.77.55-1.17.6-.83,0-1.24.08-.83,0-1.24,0l-1.23.15c-.41.05-.78.43-1.18.48s-.89-.42-1.29-.37-.76.6-1.17.65-.82.13-1.22.18-.91-.65-1.32-.59-.75.56-1.16.61-.82,0-1.22.1-.83,0-1.23.08-.81.17-1.21.22-.86-.23-1.26-.17-.74.68-1.15.73-.84-.15-1.25-.09-.86-.27-1.26-.21-.73.79-1.13.84-.85-.08-1.25,0-.85-.08-1.25,0-.84,0-1.24,0-.77.44-1.18.49-.78.33-1.18.39-.88-.3-1.28-.25l-1.21.17c-.42.06-.87-.23-1.26-.17s-.76.58-1.15.63-.9-.4-1.29-.34-.81.26-1.19.32-.82.18-1.21.23-.85-.05-1.23,0-.8.46-1.16.51-.93-.24-1.27-.19c-.78.12-.53.55-1.13.64-.38.06-.88-.3-1.3-.21s-.64.88-1,1-.84,0-1.24.13-.78.25-1.18.38-.85.07-1.24.21-.77.32-1.16.47-.83.17-1.21.33-.63.65-1,.82-.95-.05-1.31.13-.48.9-.83,1.09-1-.07-1.36.13c-.52.33-.13.55-.77,1-.26.21-.37.7-.74,1s-.69.35-1,.65-.93.15-1.24.45-.13,1-.43,1.3-.64.47-.93.78-.44.67-.72,1-.78.38-1,.7-.49.64-.76,1-.76.42-1,.74-.13.93-.39,1.26-.86.35-1.11.69-.24.82-.49,1.16-.56.59-.8.93-.23.82-.46,1.17-.54.61-.77.95-.46.66-.69,1-.18.84-.4,1.19-.81.45-1,.81-.07.9-.28,1.25-.56.61-.77,1-.6.59-.8.95-.33.74-.53,1.1-.33.75-.53,1.11-.14.84-.33,1.21-.37.71-.56,1.08-.91.45-1.09.82,0,.91-.17,1.27-.29.76-.46,1.13-.33.74-.5,1.11-.76.54-.93.92,0,.88-.18,1.25-.2.8-.36,1.17-.58.64-.73,1-.57.64-.73,1-.26.77-.41,1.16.33,1,.18,1.38-.64.62-.79,1-.57.65-.71,1,0,.87-.14,1.25-.18.8-.31,1.19-.12.82-.26,1.21-.63.65-.76,1-.62.66-.75,1,.56,1,.44,1.43-1,.51-1.17.9,0,.84-.16,1.24,0,.86-.08,1.25.06.87,0,1.26-.46.72-.58,1.11-.47.71-.58,1.11-.21.79-.32,1.19.19.89.08,1.29-.35.75-.46,1.14,0,.83-.13,1.23-.41.74-.52,1.14-.21.78-.31,1.18,0,.84-.13,1.24-.29.77-.38,1.17-.78.66-.88,1.06.3.91.21,1.31-.67.69-.76,1.1c-.15.58.07.64-.08,1.22s.3.71.14,1.29-.81.4-1,1,.48.76.32,1.34-.56.47-.72,1.05,0,.62-.18,1.2.06.64-.1,1.22-.58.46-.74,1-.32.54-.48,1.12.06.64-.1,1.22-.26.56-.42,1.14,0,.62-.18,1.2-.36.53-.52,1.11.17.67,0,1.26-.08.6-.24,1.18-.74.42-.9,1,0,.63-.15,1.22.42.74.26,1.33-.76.42-.92,1,.18.68,0,1.26a6.28,6.28,0,0,0,0,1.22,5.86,5.86,0,0,0-.19,1.2c.06.42.47.69.62,1.06s.06.85.31,1.17a4.69,4.69,0,0,0,.76,1,5.2,5.2,0,0,0,1.07.7,6.15,6.15,0,0,0,1.23.42,6.6,6.6,0,0,0,1.29.16l1.21,0c.6,0,.6-.25,1.2-.26s.61,0,1.22,0,.6-.22,1.2-.23.61-.16,1.21-.18.61.18,1.22.17.6-.3,1.21-.32.62.62,1.22.61.6-.46,1.21-.48.6-.05,1.21-.06.62.39,1.23.37c.4,0,.53-.31.75-.53M64.19,415c.56-.78,1.11-1.58,1.67-2.36,0,.77,0,1.55,0,2.33Z"/><path class="cls-2" d="M.2,328.82c.13-.46.55-.82.67-1.26s.57-.83.69-1.26-.06-1,.06-1.43-.05-1.06.06-1.45c.24-.83.37-1.23.37-1.23a9.75,9.75,0,0,1,.35-1.39c.11-.35.3-.76.45-1.23s.91-.6,1-1.05.1-.86.24-1.3.17-.86.31-1.29.4-.79.54-1.22c.2-.64-.11-.47.21-1.35.12-.34.48-.69.66-1.19s.06-.89.23-1.36.72-.65.9-1.11.31-.82.49-1.27-.37-1.14-.16-1.6.48-.8.71-1.24.65-.69.9-1.12.26-.92.51-1.33,1-.48,1.24-.89.64-.67.91-1.07.11-1.05.38-1.44.39-.86.67-1.25.72-.62,1-1l.82-1.14c.28-.36.72-.62,1-1s.77-.59,1.06-1,.47-.82.76-1.19.18-1,.48-1.41,1-.37,1.33-.74.71-.62,1-1,.38-.91.68-1.27.17-1.07.47-1.43.75-.59,1-.95.87-.49,1.17-.85.56-.75.87-1.11.78-.56,1.09-.92.35-.94.66-1.29.49-.82.8-1.18l.93-1.06c.31-.35.65-.68,1-1l.95-1.05c.32-.35.85-.5,1.16-.85s.85-.5,1.17-.85.63-.7,1-1,.75-.59,1.07-.93.48-.84.81-1.18.31-1,.63-1.35.83-.51,1.16-.85.75-.58,1.08-.91.85-.49,1.18-.82.39-.94.71-1.27.69-.65,1-1,.89-.44,1.22-.77.59-.75.91-1.08.48-.86.82-1.18.84-.5,1.17-.82.6-.75.93-1.07.38-1,.71-1.3,1-.38,1.29-.69.54-.84.87-1.13.74-.63,1.08-.92,1-.3,1.35-.57.85-.48,1.18-.72.52-.86.89-1.11.79-.47,1.17-.72,1-.17,1.36-.42.43-1,.81-1.27,1.09,0,1.47-.21.63-.74,1-1,.67-.69,1-.91.73-.6,1.11-.82,1-.15,1.37-.36.91-.26,1.3-.46,1-.16,1.35-.35.67-.75,1-.94.81-.58,1.16-.75c.78-.38.62-.26,1.24-.54.41-.19,1,0,1.41-.17s.85-.33,1.31-.43.81-.83,1.28-.89,1,.5,1.47.48.93-.55,1.4-.55.94.24,1.41.28,1,0,1.42,0,.92.29,1.37.39a14.12,14.12,0,0,1,1.33.52,13.39,13.39,0,0,1,1.23.69,10.27,10.27,0,0,1,1.14.76c.54.32.94-.35,1.47,0l1.08.64c.54.32.24.83.78,1.15a8.1,8.1,0,0,1,1.19.83c.39.34,1,.44,1.31.83s.23,1,.42,1.48a5.15,5.15,0,0,1,.3,1.4c.07.49.73,1,.67,1.5a6.57,6.57,0,0,1-.49,1.5,6.85,6.85,0,0,1-.82,1.32c-.27.39-1,.43-1.35.79s0,.67-.68,1.3c-.28.28-1,.2-1.4.57s-.37.9-.72,1.25-.42.87-.77,1.22-.6.68-1,1-1,.28-1.35.63-.3,1-.64,1.33-.67.63-1,1-1.07.23-1.41.56-.52.79-.85,1.12-.54.77-.87,1.11-.45.85-.78,1.19-1.06.26-1.39.59-.14,1.16-.47,1.5-.67.63-1,1l-1,1c-.32.33-.73.58-1.05.92s-1.07.26-1.39.6-.29,1-.61,1.34-.73.59-1,.93-.61.7-.93,1-.74.58-1.06.92-.76.57-1.08.91-.29,1-.61,1.35-.53.78-.85,1.12-.9.45-1.22.79-.41.89-.72,1.24-1.15.22-1.46.57-.16,1.11-.47,1.46-.76.58-1.07.93-.64.69-.95,1-.72.62-1,1-.25,1-.56,1.37-1.2.21-1.5.56-.51.8-.81,1.16-.38.91-.67,1.26-.66.67-1,1-.26,1-.55,1.35-1,.38-1.33.75-.19,1.05-.47,1.41-.8.57-1.07.94-.53.78-.8,1.15-.83.58-1.08,1-.57.77-.82,1.15-.06,1.09-.29,1.47-.51.8-.72,1.19-.86.65-1,1-.53.8-.71,1.21-.23.94-.41,1.35-.09,1-.27,1.41-.3.91-.48,1.32-.85.67-1,1.07.3,1.18.13,1.58-1.13.56-1.3,1-.13,1-.29,1.39-.08,1-.23,1.42-.65.83-.78,1.18c-.4,1,.16.77,0,1.43-.14.49-.45.92-.61,1.36a14.55,14.55,0,0,1-.81,1.23,12.81,12.81,0,0,1-.61,1.33,7.15,7.15,0,0,1-.92,1.12,3.08,3.08,0,0,1-1.26.62c-.49.18-.7,0-1.13-.24A4,4,0,0,0,32,328.1c-.57-.05-.95.45-1.38.72s-.94.42-1.12,1a2,2,0,0,1-.59,1c-.32.25-.95.5-1.32.19s-.15-.85-.37-1.28a7.09,7.09,0,0,0-.62-1.36c-.34-.38-1-.4-1.38-.61a1.49,1.49,0,0,0-1.27-.22,5.18,5.18,0,0,0-1.73.78c-.08.13,0-.17-.07-.26a3.12,3.12,0,0,0-1.67,0c-.34.11-.43.11-.81-.22s-1.09-.2-1.28-.61-.33-1.07-.81-1.07a2.18,2.18,0,0,0-1.34.69,3.88,3.88,0,0,1-1.29.62,6.19,6.19,0,0,1-1.39.55A5.26,5.26,0,0,1,12,328c-.37-.07-.77.4-1.37.55-.43.11-1.11-.38-1.61-.18s-.61,1-1.08,1.23-1.13-.06-1.57.2-.75.69-1.17,1-.69.73-1.09,1-1.16.11-1.54.29c-.55.27-.91.95-1.3.91s-.57-.72-.74-1.26c-.12-.37-.63-.79-.56-1.38A8,8,0,0,1,.2,328.82Z"/><path class="cls-4" d="M30.16,290.51A14.68,14.68,0,0,0,26.9,294c-.95,1.26-1.88,2.55-2.79,3.84-1.81,2.6-3.58,5.24-5.19,8s-3.13,5.51-4.51,8.37A38.74,38.74,0,0,0,11,323.14a.82.82,0,0,0,.62,1,.84.84,0,0,0,.87-.36v0c1.7-2.68,3-5.49,4.38-8.26s2.92-5.48,4.49-8.17,3.17-5.35,4.9-7.94c.86-1.3,1.73-2.59,2.63-3.86a19,19,0,0,0,2.46-4v0a.84.84,0,0,0-1.25-1Z"/><path class="cls-4" d="M240.68,193.4a59.94,59.94,0,0,1,2,14.06,50.81,50.81,0,0,1-1.38,14.08c-2.18,9.22-7.33,17.55-14,24.33a70.77,70.77,0,0,1-11.06,9.18c-1,.7-2,1.38-3,2l-3.09,1.9c-2.14,1.14-4.21,2.4-6.43,3.41a114.84,114.84,0,0,1-27.34,9.6,94.4,94.4,0,0,1-28.8,1.34,92,92,0,0,1-14.24-2.64A98.73,98.73,0,0,1,119.58,266a109.66,109.66,0,0,1-13-6.45,143.88,143.88,0,0,1-12.28-7.89,140,140,0,0,1-21.91-19.37l0,0a1.61,1.61,0,0,0-2.49,2,108.41,108.41,0,0,0,21.3,21.54,117.72,117.72,0,0,0,26.27,15.31,105.08,105.08,0,0,0,14.47,5,97.12,97.12,0,0,0,15.05,2.82,99.76,99.76,0,0,0,30.55-1.34,112.69,112.69,0,0,0,28.73-10.21c2.3-1.08,4.48-2.42,6.71-3.65l3.25-2c1.09-.67,2.14-1.39,3.18-2.14a77.34,77.34,0,0,0,11.76-10c7.16-7.4,12.79-16.66,15.1-26.88s2-21-2.56-30.57a1.61,1.61,0,0,0-3,1.11Z"/><path class="cls-4" d="M244,227.76a4.93,4.93,0,0,0,.32,2.07c.18.62.5,1.17.72,1.78l.61,1.87.52,1.93c.63,2.6,1.18,5.26,1.56,8s.72,5.4.91,8.13.27,5.47.22,8.19l1.12-.84c-4.19-1.33-8.34-2.8-12.52-4.16-2.09-.69-4.19-1.33-6.3-1.94a14.36,14.36,0,0,0-6.62-.87.4.4,0,0,0-.21.7,14.31,14.31,0,0,0,6,2.85c2.11.64,4.22,1.25,6.35,1.8,4.25,1.13,8.53,2.15,12.77,3.3h.05a.87.87,0,0,0,1-.6.67.67,0,0,0,0-.24c-.06-2.78-.16-5.53-.27-8.29s-.27-5.53-.51-8.29a65.15,65.15,0,0,0-1.24-8.28l-.53-2.06-.7-2a15.54,15.54,0,0,0-.94-2,4,4,0,0,0-1.84-1.44.42.42,0,0,0-.54.25.27.27,0,0,0,0,.12Z"/><polygon class="cls-5" points="196.81 231.61 196.83 232.65 197.12 233.65 197.41 234.64 197.69 235.64 198.09 236.6 198.65 237.47 199.15 238.39 199.8 239.2 200.46 240 201.2 240.74 202.02 241.38 202.84 242.02 203.79 242.46 204.69 242.97 205.63 243.41 206.61 243.75 207.63 243.97 208.65 244.18 209.68 244.27 210.72 244.32 211.76 244.3 212.79 244.12 213.8 243.88 214.83 243.68 215.77 243.22 216.69 242.76 217.67 242.38 218.51 241.78 219.32 241.12 220.13 240.47 220.85 239.73 221.52 238.93 222.12 238.08 222.64 237.18 223.18 236.29 223.51 235.31 223.93 234.35 224.09 233.32 224.25 232.3 224.48 231.28 224.34 230.23 224.37 229.2 224.3 228.16 224 227.16 223.75 226.15 223.47 225.15 222.94 224.25 222.46 223.33 221.97 222.41 221.31 221.6 220.6 220.84 219.89 220.08 219.1 219.41 218.19 218.88 217.3 218.36 216.4 217.86 215.47 217.4 214.47 217.1 213.47 216.84 212.45 216.62 211.41 216.62 210.38 216.58 209.34 216.52 208.31 216.75 207.29 216.9 206.29 217.2 205.31 217.54 204.37 217.98 203.42 218.41 202.62 219.09 201.75 219.65 201.04 220.41 200.26 221.09 199.66 221.94 199.03 222.77 198.45 223.62 197.95 224.53 197.52 225.48 197.17 226.46 197 227.49 196.74 228.5 196.76 229.54 196.63 230.58 196.81 231.61"/><polygon class="cls-5" points="87.07 222.89 87.25 223.92 87.41 224.94 87.74 225.93 88 226.94 88.46 227.87 88.99 228.77 89.5 229.67 90.11 230.52 90.82 231.28 91.62 231.95 92.42 232.61 93.27 233.19 94.12 233.78 95.06 234.23 95.97 234.74 96.98 234.98 97.98 235.26 99 235.47 100.04 235.51 101.08 235.52 102.12 235.53 103.15 235.39 104.17 235.2 105.16 234.88 106.15 234.57 107.12 234.18 107.96 233.56 108.91 233.11 109.71 232.44 110.51 231.78 111.19 230.99 111.84 230.18 112.47 229.35 112.94 228.43 113.49 227.55 113.94 226.61 114.27 225.62 114.43 224.59 114.63 223.58 114.76 222.55 114.86 221.51 114.72 220.47 114.66 219.43 114.44 218.41 114.09 217.43 113.71 216.47 113.37 215.49 112.81 214.61 112.27 213.72 111.64 212.9 111.01 212.07 110.2 211.41 109.45 210.69 108.53 210.18 107.72 209.52 106.74 209.16 105.8 208.73 104.84 208.33 103.82 208.12 102.8 207.99 101.77 207.91 100.73 207.87 99.69 207.85 98.67 208.04 97.64 208.14 96.64 208.43 95.66 208.79 94.75 209.31 93.78 209.7 92.97 210.35 92.15 210.99 91.31 211.6 90.68 212.43 89.9 213.13 89.28 213.97 88.82 214.91 88.35 215.83 87.95 216.79 87.53 217.74 87.3 218.75 87.09 219.78 87 220.81 87.05 221.85 87.07 222.89"/><path class="cls-4" d="M147.16,61.14a5.51,5.51,0,0,0-1.62,4.63,32.52,32.52,0,0,0,.24,4.73c.45,3.12,1.16,6.18,1.87,9.2,1.43,6,2.74,12.16,5.47,17.8.63,1.42,1.45,2.76,2.18,4.13l1.15,2c.41.66.87,1.29,1.3,1.94l2.59,3.87q1.42,1.83,2.8,3.71c.46.62.91,1.26,1.34,1.92s.92,1.24,1.36,1.9c.89,1.28,1.74,2.62,2.7,3.88a17.36,17.36,0,0,0,3.39,3.24,11.61,11.61,0,0,0,4.37,2.1.63.63,0,0,0,.74-.47.61.61,0,0,0,0-.33l0,0c-1.1-3.38-3.37-5.26-5.62-7.27-1.11-1-2.32-1.93-3.5-2.91-.59-.49-1.17-1-1.71-1.52s-1-1.14-1.46-1.74c-1-1.18-1.89-2.37-2.81-3.58l-2.38-3.87c-.39-.65-.79-1.29-1.16-1.94l-1-2c-.66-1.35-1.45-2.65-2-4-2.52-5.46-4.91-11.11-5.82-17.12a51.5,51.5,0,0,1-.42-9c.07-1.49.07-3,.12-4.46a14.94,14.94,0,0,0,0-2.22,5.52,5.52,0,0,0-.94-2.32l-.05-.07a.69.69,0,0,0-1-.17Z"/><path class="cls-4" d="M192.23,67.56c-1.26,1.86-1.11,3.68-.92,5.46s.39,3.58.71,5.35c.62,3.55,1.5,7,2.16,10.56,1.39,7,2.31,14.15,4.22,21.08a197.13,197.13,0,0,0,7.31,20.25c1.6,3.22,2.4,6.84,4,10.11a17.6,17.6,0,0,0,7.1,8.31.6.6,0,0,0,.81-.22.54.54,0,0,0,.07-.39V148c-.63-3.95-2.71-6.61-4.54-9.62a55.94,55.94,0,0,1-5.65-8.94c-3-6.43-4.87-13.28-6.79-20.08-1.77-6.85-3.82-13.68-4.71-20.74-.47-3.52-.58-7.08-.73-10.62-.1-1.77-.18-3.54-.35-5.29s-.22-3.51-1.64-5.2l0,0a.66.66,0,0,0-.95-.08A.57.57,0,0,0,192.23,67.56Z"/><path class="cls-4" d="M208,74.69c-.78,2.29-.22,4.22.37,6.13s1.18,3.83,1.86,5.72c1.37,3.77,2.92,7.48,4.24,11.26,2.7,7.53,4.76,15.28,7.69,22.75s6.36,14.72,9.81,22c1.83,3.57,3.17,7.43,5.17,11a25.57,25.57,0,0,0,3.63,5,13.18,13.18,0,0,0,5.32,3.49.6.6,0,0,0,.75-.38.63.63,0,0,0,0-.43v0a55.45,55.45,0,0,0-6.34-9.84,60.54,60.54,0,0,1-6.7-9.77c-3.75-7-6.44-14.53-9.32-21.94s-6-14.79-8.17-22.45c-1.13-3.83-1.94-7.75-2.86-11.63-.47-1.94-1-3.87-1.51-5.78s-1-3.83-2.84-5.4h0a.65.65,0,0,0-.93.07A.61.61,0,0,0,208,74.69Z"/><path class="cls-4" d="M249.76,202.69a9.88,9.88,0,0,0,5.63-1.3,23.59,23.59,0,0,0,4.57-3,46.82,46.82,0,0,0,7.28-7.83,83.26,83.26,0,0,0,6-8.75,94.16,94.16,0,0,0,4.94-9.31A114.11,114.11,0,0,0,288.5,132a98.4,98.4,0,0,0,.23-10.45,101,101,0,0,0-.77-10.42,106.8,106.8,0,0,0-4.74-20.33,112.59,112.59,0,0,0-20.79-36c-2.21-2.68-4.62-5.21-7-7.68l-3.63-3.72L248,39.81A177.09,177.09,0,0,0,232.09,26.4C221,18.12,208.84,11,195.69,6.35A117.92,117.92,0,0,0,175.4,1.17,79.16,79.16,0,0,0,154.25.39a61.42,61.42,0,0,0-20.54,5.83,49,49,0,0,0-9,5.83,32.18,32.18,0,0,0-7.06,8.07.75.75,0,0,0,1.11,1h0a72.33,72.33,0,0,1,17.21-10,84.63,84.63,0,0,1,9.32-3.33A90.55,90.55,0,0,1,155,5.51a80.81,80.81,0,0,1,20-1A79,79,0,0,1,194.8,8.87a109.65,109.65,0,0,1,18.57,8.43,149.71,149.71,0,0,1,17,11.39c1.38,1,2.66,2.14,4,3.21S237,34,238.26,35.19c2.53,2.3,5.13,4.51,7.55,6.92l3.69,3.56,3.56,3.69q3.6,3.68,6.89,7.55a121.42,121.42,0,0,1,12,16.48,102.8,102.8,0,0,1,8.86,18.32q1.71,4.8,3,9.74a100.43,100.43,0,0,1,1.83,10,91.11,91.11,0,0,1,.35,20.35,107.26,107.26,0,0,1-11.79,38.66,116.19,116.19,0,0,1-10.76,17c-2,2.65-4.27,5.12-6.49,7.53-1.12,1.2-2.26,2.37-3.43,3.47a14.69,14.69,0,0,1-3.76,2.7l-.13.05a.75.75,0,0,0-.39,1A.78.78,0,0,0,249.76,202.69Z"/><path class="cls-4" d="M103.44,21.36c-8.76-3.76-18.36-3.61-27.38-1.62A63.64,63.64,0,0,0,51.27,31.56a86.92,86.92,0,0,0-10.18,9.17,108.67,108.67,0,0,0-8.67,10.53C31,53.07,29.89,55,28.61,56.84S26.05,60.53,25,62.5l-3.41,5.82c-1.16,1.93-2.09,4-3.15,6-2.15,4-3.83,8.14-5.69,12.25C11.14,90.78,9.39,95,8.18,99.3c-1.44,4.29-2.39,8.72-3.44,13.12l-1.14,6.7a31.69,31.69,0,0,0-.44,3.37l-.34,3.38a93.66,93.66,0,0,0,1.27,27.19,66.69,66.69,0,0,0,10.55,25.08,1.62,1.62,0,0,0,2.74-1.7c-8.26-15.29-10.49-32.93-9-50.06l.33-3.23a32.09,32.09,0,0,1,.43-3.21l1.11-6.39c1-4.21,1.94-8.45,3.33-12.57,1.18-4.18,2.88-8.19,4.39-12.26,1.81-4,3.43-8,5.53-11.82A192.93,192.93,0,0,1,37,54.53a99.54,99.54,0,0,1,8.1-10.06,80.67,80.67,0,0,1,9.43-8.69A58.55,58.55,0,0,1,77.19,24.65a54.2,54.2,0,0,1,12.56-1.43c2.12,0,4.23.07,6.35.25s4.26.5,6.2.9l.18,0a1.61,1.61,0,0,0,1-3.05Z"/><path class="cls-4" d="M125.69,71.41a4.56,4.56,0,0,0-2,3.43c-.29,1.22-.52,2.46-.75,3.71A57.39,57.39,0,0,1,121.28,86c-1.5,4.88-4.16,9.27-6.74,13.55S109,108,105,111a19.42,19.42,0,0,1-6.74,3c-2.31.74-4.43,1.3-6.65,3.36l0,0a.65.65,0,0,0,0,.91.51.51,0,0,0,.21.15c2.85,1.29,5.7.46,8.1-.82s4.3-3.42,6.38-5a55.41,55.41,0,0,0,5.68-5.47,41.78,41.78,0,0,0,4.74-6.27c2.81-4.44,4.43-9.43,6.43-14.19,1-2.4,2.13-4.76,3-7.21a31.22,31.22,0,0,0,1.16-3.75,4.38,4.38,0,0,0-.48-4.1.79.79,0,0,0-1-.2Z"/><path class="cls-4" d="M101,71.35a2.56,2.56,0,0,0-1.36,2.49c-.06.83-.07,1.66-.08,2.51a23.82,23.82,0,0,1-.36,5.12c-.7,3.4-2.7,6.3-4.56,9.07a42.28,42.28,0,0,1-3.07,4l-1.84,1.75a12.19,12.19,0,0,1-2.08,1.47,6.59,6.59,0,0,1-2.32,1c-.86.19-1.72.33-2.51.57-1.59.53-3.14.88-4.27,3.12l0,.06a.74.74,0,0,0,.33,1,4.86,4.86,0,0,0,3,.46,6,6,0,0,0,2.59-1c1.55-1.12,2.86-2.49,4.32-3.56S91.59,97.2,93,96a25.32,25.32,0,0,0,3.62-4.11c2.14-3,3.12-6.57,4.35-9.93.57-1.71,1.35-3.4,1.82-5.19a13.28,13.28,0,0,0,.49-2.72,2.54,2.54,0,0,0-1.23-2.79.93.93,0,0,0-1,0Z"/><path class="cls-4" d="M57.26,190.52a17.78,17.78,0,0,0-3.68-6.74,16.15,16.15,0,0,0-6.22-4.95l-1-.36a9.69,9.69,0,0,0-1-.23,8.52,8.52,0,0,0-2.14-.16,13.14,13.14,0,0,0-2.09.29c-.67.18-1.31.42-2,.64a16.48,16.48,0,0,0-9.77,12.1,17.63,17.63,0,0,0,.74,8,25.86,25.86,0,0,0,9.42,12,.8.8,0,0,0,1.08-1.18v0c-3.22-3.64-6.28-7.36-7.84-11.66a14.72,14.72,0,0,1-.6-6.6,13.42,13.42,0,0,1,2.81-6c2.78-3.37,7.46-6,11.4-4.33a13.51,13.51,0,0,1,5.27,4.08c1.52,1.77,2.71,3.86,4.14,5.77l0,.05a.81.81,0,0,0,1.44-.69Z"/><path class="cls-4" d="M99,127.19a4.12,4.12,0,0,0-2.85,2.54c-.59,1-1.13,2.1-1.67,3.18a58.44,58.44,0,0,1-3.39,6.4c-2.6,4.08-6.11,7.46-9.42,10.88s-6.8,6.82-11,9.12a21.89,21.89,0,0,1-6.72,2.19c-2.26.58-4.32,1.06-6.45,3.07l0,0a.66.66,0,0,0,0,.93.49.49,0,0,0,.18.14c2.7,1.35,5.37.64,7.69-.44s4.23-3,6.37-4.19a68.53,68.53,0,0,0,11.7-9.11c3.54-3.48,6.17-7.69,9.23-11.52,1.5-1.94,3.17-3.77,4.67-5.75a32,32,0,0,0,2-3.1,4,4,0,0,0,.62-3.88.79.79,0,0,0-.94-.49Z"/><path class="cls-4" d="M165.75,211.64c-.51-.07-.51.1-.61.23l-.27.39a6,6,0,0,0-.48.81,6.5,6.5,0,0,0-.36.86,1,1,0,0,0,.16,1.1,1.6,1.6,0,0,0,1.46.68,1,1,0,0,0,.94-.6,5.39,5.39,0,0,0,.42-.83,7.22,7.22,0,0,0,.31-.89l.12-.46c0-.16.16-.27-.22-.62A2.61,2.61,0,0,0,165.75,211.64Z"/><path class="cls-4" d="M49.1,226.81c-1.91,1.29-3.8,2.58-5.7,3.8s-3.81,2.39-5.75,3.57-3.91,2.33-5.91,3.49l-.16-1.9q6.56,2.86,13.19,5.54c4.44,1.74,8.86,3.51,13.34,5.16l-1.36,1c-.46-4.14-.86-8.19-1.15-12.25-.14-2-.26-4.08-.35-6.17a37.43,37.43,0,0,1,.08-7.05A75.45,75.45,0,0,1,49.1,226.81Zm7.75.35c.29,2.2.54,4.44.78,6.69.46,4.51.81,9,1.1,13.46v.05a1,1,0,0,1-.07.45,1,1,0,0,1-1.29.51c-4.38-1.9-8.8-3.67-13.22-5.48s-8.88-3.45-13.37-5.09a1,1,0,0,1-.51-.4,1.06,1.06,0,0,1,.29-1.46l.06,0q3.07-2,6.25-4.05c2.11-1.34,4.24-2.71,6.4-4s4.32-2.52,6.46-3.74a31.43,31.43,0,0,1,5.93-2.74C56.39,222.52,56.57,225,56.85,227.16Z"/><path class="cls-4" d="M48.89,213.29a7.73,7.73,0,0,1,5.59-3.12,8.49,8.49,0,0,1,6.2,1.93,8.6,8.6,0,0,1,3,5.76,8.38,8.38,0,0,1-13.8,7.1,7.31,7.31,0,0,1-2-2.56,13.18,13.18,0,0,1-.54-3.11A8.77,8.77,0,0,1,48.89,213.29Zm1.12,8a7.79,7.79,0,0,0,1.5,1.73,5.68,5.68,0,0,0,7.3-8.71A5.57,5.57,0,0,0,54.73,213a6.78,6.78,0,0,0-4,1.89A5.39,5.39,0,0,0,49,219.14,4.06,4.06,0,0,0,50,221.3Z"/><path class="cls-4" d="M78.74,241.41c-2.76-.3-4.94.77-7.06,1.89a67.73,67.73,0,0,0-6.25,3.58c-4,2.58-7.87,5.46-11.72,8.27s-7.66,5.68-11.38,8.68a107.15,107.15,0,0,0-19.81,20.62q-4.26,5.78-8,11.93c-.61,1-1.27,2-1.85,3.08s-1.24,2.05-1.91,3.06L9,305.64c-.3.53-.62,1.05-.9,1.58l-.8,1.63c-2.1,4.34-3.61,9-3.24,14.08a.58.58,0,0,0,1,.31l0,0a32.38,32.38,0,0,0,3.4-6.32c.46-1.07.86-2.16,1.23-3.26s.82-2.17,1.21-3.26c.69-2.23,1.55-4.41,2.32-6.63a47.45,47.45,0,0,1,3-6.35c4.56-8.24,10.71-15.46,17.2-22.23s13.44-13.22,21.29-18.46a119.85,119.85,0,0,1,12.29-6.94l6.26-3.18c2.11-1,4.19-2,5.81-4.15l0,0a.64.64,0,0,0-.12-.88A.63.63,0,0,0,78.74,241.41Z"/><path class="cls-4" d="M87.44,256.58c-3.16,1.74-5.63,4.2-8.16,6.6-1.27,1.2-2.51,2.42-3.74,3.66s-2.45,2.48-3.65,3.75-2.4,2.53-3.56,3.84S66,277,64.86,278.36l-3.37,4-3.2,4.17a125.3,125.3,0,0,0-11.21,17.84c-3.14,6.3-5.7,13.08-6.28,20.21a1.21,1.21,0,0,0,2.36.48V325a136.31,136.31,0,0,1,7.67-18.71l2.46-4.45c.83-1.47,1.8-2.88,2.69-4.32l1.36-2.16,1.46-2.09c1-1.38,1.9-2.82,3-4.16a198.69,198.69,0,0,1,13-15.82c1.15-1.27,2.31-2.53,3.51-3.75s2.37-2.47,3.6-3.67A75.83,75.83,0,0,0,89,258.42l0,0a1.23,1.23,0,0,0-1.58-1.81Z"/><path class="cls-4" d="M44,286.57a14.39,14.39,0,0,0-2.94,3.78c-.84,1.35-1.65,2.71-2.45,4.08-1.58,2.74-3.11,5.52-4.47,8.39s-2.64,5.77-3.77,8.74a38.77,38.77,0,0,0-2.57,9.18.81.81,0,0,0,1.53.48v0c1.46-2.81,2.47-5.73,3.65-8.6s2.43-5.72,3.76-8.53,2.69-5.61,4.18-8.34q1.11-2.06,2.29-4.08a18.74,18.74,0,0,0,2.1-4.17v0a.84.84,0,0,0-.57-1A.85.85,0,0,0,44,286.57Z"/><path class="cls-4" d="M71.68,340.55c-2.27,1.71-3.35,4-4.58,6.27s-2.33,4.53-3.39,6.84a139.82,139.82,0,0,0-5.51,14.2,143.81,143.81,0,0,0-3.87,14.7A75.85,75.85,0,0,0,53,390a45.11,45.11,0,0,0-.23,7.63,1.64,1.64,0,0,0,3.16.52l0-.07A52.68,52.68,0,0,0,58.14,391c.34-1.19.59-2.39.87-3.59s.51-2.4.81-3.59l.87-3.57,1-3.55c.61-2.37,1.36-4.7,2.05-7.05,1.52-4.66,3.09-9.3,4.95-13.81.92-2.27,1.89-4.51,3-6.7s2.32-4.28,2.74-6.76l0-.16a1.7,1.7,0,0,0-2.7-1.64Z"/><path class="cls-4" d="M117.57,192.4a14.75,14.75,0,0,0,1.15-3.72,10.86,10.86,0,0,1,1.56-3.29,8.55,8.55,0,0,1,2.47-2.33,9.32,9.32,0,0,1,3.11-1.11,6.94,6.94,0,0,1,3.1.51,12.52,12.52,0,0,1,3,1.93c1.89,1.69,3.61,3.79,5.6,5.71l.08.08a1.25,1.25,0,0,0,1.76,0,1.28,1.28,0,0,0,.31-1.17,15.82,15.82,0,0,0-5-7.76,16.65,16.65,0,0,0-4.12-2.75,10.9,10.9,0,0,0-5.3-.82,12,12,0,0,0-4.89,1.84,12.3,12.3,0,0,0-3.58,3.68,14.65,14.65,0,0,0-1.85,4.56,7.14,7.14,0,0,0,.11,4.78,1.28,1.28,0,0,0,1.7.64,1.35,1.35,0,0,0,.57-.51Z"/><polygon class="cls-4" points="190.13 188.44 190.26 189.44 190.31 190.46 190.51 191.46 190.55 192.48 190.79 193.47 191.06 194.45 191.24 195.45 191.5 196.44 191.87 197.39 192.33 198.3 192.74 199.22 193.23 200.11 193.66 201.03 194.25 201.86 194.76 202.75 195.54 203.41 196.29 204.09 197.14 204.65 198.12 204.93 199.11 205.06 200.12 205.05 201.08 204.69 201.94 204.12 202.62 203.36 203.29 202.59 203.87 201.75 204.16 200.75 204.72 199.88 205.03 198.9 205.37 197.93 205.56 196.93 205.76 195.93 205.98 194.93 206.04 193.9 206.28 192.9 206.46 191.89 206.52 190.87 206.45 189.84 206.5 188.81 206.54 187.78 206.6 186.75 206.43 185.71 206.43 184.66 206.32 183.62 206.13 182.59 205.95 181.56 205.91 180.51 205.63 179.5 205.44 178.47 205.18 177.46 204.97 176.43 204.49 175.49 204.15 174.49 203.5 173.66 203.05 172.7 202.24 172.03 201.47 171.33 200.62 170.72 199.63 170.4 198.61 170.25 197.57 170.21 196.54 170.26 195.5 170.4 194.6 170.92 193.69 171.45 192.98 172.22 192.37 173.08 191.98 174.05 191.41 174.94 191.18 175.97 190.9 176.98 190.54 177.97 190.5 179.03 190.18 180.04 190.04 181.08 190.09 182.14 190.05 183.19 190.03 184.23 189.91 185.28 189.97 186.33 189.99 187.39 190.13 188.44"/><path class="cls-4" d="M161.46,276.79a27.7,27.7,0,0,0-.09,7.27c.26,2.37.71,4.72,1.06,7.08.76,4.72,1.64,9.41,2.54,14.11l0,.09a1.47,1.47,0,0,0,1.5,1.2l12.5-.4q6.25-.19,12.5-.23l-.11-1.8-11.3,1.4-11.31,1.27q-11.33,1.23-22.62,2.6c-3.76.49-7.55.73-11.33,1.11l-11.33,1.1c-7.55.72-15.1,1.46-22.67,2.07l.58,1.84c3.78-2.19,7.55-4.38,11.4-6.43s7.76-4,11.63-6a1.62,1.62,0,0,0,.86-1.15l0-.17c.45-2.4.87-4.81,1.24-7.22s.71-4.83,1-7.25.48-4.86.57-7.31a60.81,60.81,0,0,0-.06-7.39.56.56,0,0,0-.6-.52.58.58,0,0,0-.49.37,63,63,0,0,0-2.06,7.1c-.57,2.38-1,4.78-1.42,7.19s-.7,4.83-1,7.25-.54,4.85-.76,7.28l.89-1.32c-3.67,2.37-7.29,4.81-11,7.14s-7.46,4.53-11.22,6.74h0a1,1,0,0,0,.59,1.84c7.56-.72,15.14-1.3,22.71-1.9s15.16-1.13,22.71-1.91q11.31-1.41,22.59-3l11.3-1.53,11.3-1.4a.9.9,0,0,0,.79-1,.91.91,0,0,0-.89-.79h0q-6.26,0-12.5-.22l-12.5-.41,1.51,1.29c-.59-4.74-1.21-9.47-1.94-14.19-.4-2.36-.7-4.73-1.18-7.07a28.12,28.12,0,0,0-2.34-6.88.57.57,0,0,0-1.08.17Z"/><path class="cls-4" d="M308.76,266c2.63-1.37,3.54-3.56,4.42-5.73s1.73-4.37,2.45-6.61c1.43-4.49,2.53-9.08,3.79-13.6.61-2.27,1.23-4.53,1.8-6.82s1.13-4.58,1.49-7a32.43,32.43,0,0,0,.49-7.28,15.41,15.41,0,0,0-.73-3.82,11.1,11.1,0,0,0-.94-1.95,3.82,3.82,0,0,0-2.46-1.65,4.3,4.3,0,0,0-2.7.53,8.64,8.64,0,0,0-1.73,1.25,21.15,21.15,0,0,0-2.51,2.82,57.41,57.41,0,0,0-3.84,6.05c-2.32,4.12-4.32,8.36-6.4,12.56-1.92,4.26-4.59,8.22-6.65,12.49s-3.58,8.82-2.65,14a.82.82,0,0,0,1.41.39h0c3.4-3.81,4.81-8.07,6.17-12.48s2.18-9.06,4.14-13.25a94.18,94.18,0,0,1,6.38-12.25,53.29,53.29,0,0,1,3.89-5.55,18.88,18.88,0,0,1,2.19-2.33,6.65,6.65,0,0,1,1.1-.78,1.47,1.47,0,0,1,.65-.2.93.93,0,0,1,.31.31,8.67,8.67,0,0,1,.58,1.18,14.62,14.62,0,0,1,.66,3,32.08,32.08,0,0,1,0,6.64,61.22,61.22,0,0,1-3,13.38,123.14,123.14,0,0,1-5.49,12.72c-1,2.09-2,4.18-2.84,6.31s-1.91,4.17-1.25,7v0a.92.92,0,0,0,1.1.69Z"/><path class="cls-4" d="M281.73,261.37a35.82,35.82,0,0,0-1.19-9.64,25.29,25.29,0,0,0-1.7-4.75,14.68,14.68,0,0,0-1.37-2.36,8.91,8.91,0,0,0-2.24-2.22,6.53,6.53,0,0,0-1.72-.82,6.82,6.82,0,0,0-1-.2c-.28,0-.47,0-.7,0a14.63,14.63,0,0,0-2.85.11,8.32,8.32,0,0,0-3.16,1.19,6.58,6.58,0,0,0-2.35,2.75,12.82,12.82,0,0,0-1,5.69,44.86,44.86,0,0,0,.41,4.94c.8,6.27,1.74,12.33,1.17,18.21a30.15,30.15,0,0,1-2.29,8.53c-1.12,2.89-2.32,5.81-3.39,8.83a48.19,48.19,0,0,0-2.45,9.43,23.86,23.86,0,0,0-.21,5,21.87,21.87,0,0,0,.32,2.53l.31,1.25.16.61.15.52c1.44,5.92,2.46,12.21,3.58,18.36,2.17,12.36,4.38,24.73,6.94,37.05,1.28,6.16,2.68,12.3,4.32,18.4s3.45,12.18,6.42,18a22.65,22.65,0,0,0,2.79,4.22,9.92,9.92,0,0,0,2.13,1.84,11.44,11.44,0,0,0,2.58,1,14.29,14.29,0,0,0,10.29-1,18.36,18.36,0,0,0,7.38-7,27.63,27.63,0,0,0,3.4-9.36,43.62,43.62,0,0,0-1.38-19.33c-.92-3.13-2-6-3-9s-2.14-5.91-3.24-8.86c-4.45-11.77-9.16-23.42-14.23-34.94L284,322a83.19,83.19,0,0,0,10.76-6.92,65.57,65.57,0,0,0,9.48-8.63,36.43,36.43,0,0,0,6.91-11,21.87,21.87,0,0,0,.79-13.3,1.09,1.09,0,0,0-.09-.23l0,0a50.36,50.36,0,0,0-5.23-8.6,29.44,29.44,0,0,0-3.51-3.86,14.3,14.3,0,0,0-4.83-3,9.07,9.07,0,0,0-3.16-.5,9.18,9.18,0,0,0-1.65.2l-.8.23a6.06,6.06,0,0,0-.65.23,16.25,16.25,0,0,0-5,2.66A8.45,8.45,0,0,0,284.8,272a8.33,8.33,0,0,0-.68,3.49,35.57,35.57,0,0,0,.84,5.2l3.86-3a9.45,9.45,0,0,0-3.23-.85,7.6,7.6,0,0,0-3.5.52,7.3,7.3,0,0,0-2.88,2.18,9.93,9.93,0,0,0-1.58,2.72,13.52,13.52,0,0,0-.9,5.68,15.75,15.75,0,0,0,.43,2.75,13.1,13.1,0,0,0,.38,1.32,10.59,10.59,0,0,0,.55,1.41v0a2.7,2.7,0,0,0,5.14-1.3,3.88,3.88,0,0,0-.09-.66,3.82,3.82,0,0,0-.17-.59,4,4,0,0,0-.79-1.35,3.59,3.59,0,0,0-1.82-1.05,5,5,0,0,0-.94-.08,6,6,0,0,0-.72.11,5.1,5.1,0,0,0-1,.37c-.24.13-.51.28-.72.42a7.72,7.72,0,0,0-1,.83,11.93,11.93,0,0,0-2.93,4,17.08,17.08,0,0,0-.94,8.93,19.57,19.57,0,0,0,1.07,4.21,12.48,12.48,0,0,0,1,2.07l.32.52c.14.18.3.36.45.54a4.27,4.27,0,0,0,1.24,1,5.73,5.73,0,0,0,.74.29,3,3,0,0,0,.39.09h.24a1.27,1.27,0,0,0,.34,0,.63.63,0,0,0,.2,0,1.73,1.73,0,0,0,.33-.17,1.63,1.63,0,0,0,.51-.54,1.59,1.59,0,0,0,0-1.41,1.55,1.55,0,0,0-.2-.32l-.13-.14-.05,0-.23-.18-.31-.15a3.06,3.06,0,0,0-1.72-.19,4.49,4.49,0,0,0-2.39,1.2,9.63,9.63,0,0,0-2.3,3.69.74.74,0,0,0,.41,1,.76.76,0,0,0,.87-.25l0,0a8.91,8.91,0,0,1,2.47-2.47,2,2,0,0,1,1.16-.32c.13,0,.29.09.2.09l-.09,0a.94.94,0,0,1-.14-.1l0,0-.11-.12a1.2,1.2,0,0,1-.16-.27,1.46,1.46,0,0,1,0-1.35,1.5,1.5,0,0,1,.48-.53,1.91,1.91,0,0,1,.32-.16l.18-.05a1.33,1.33,0,0,1,.28,0h.19a1.16,1.16,0,0,1,.15,0c.05,0-.06-.06-.14-.13s-.08-.12-.11-.15l0,0-.06-.13-.14-.25-.14-.35a9,9,0,0,1-.47-1.56,21,21,0,0,1-.4-3.47,14.11,14.11,0,0,1,1.21-6.43,6.76,6.76,0,0,1,1.83-2.13,6.2,6.2,0,0,1,.5-.37l.14-.07a.26.26,0,0,1-.11,0,1,1,0,0,1-.25,0,1.45,1.45,0,0,1-.45,0,1.91,1.91,0,0,1-1-.56,1.38,1.38,0,0,1-.32-.5l0-.12a.55.55,0,0,1,0-.18l5.15-1.27a10.25,10.25,0,0,1-.48-1.64,11.18,11.18,0,0,1-.22-1.81,8,8,0,0,1,.5-3.34,3.07,3.07,0,0,1,1.44-1.83,2.38,2.38,0,0,1,1-.16,4,4,0,0,1,.66.09,5.56,5.56,0,0,1,.55.16l1.26.07a2.51,2.51,0,0,0,2.65-2.37,2.15,2.15,0,0,0,0-.67,36.84,36.84,0,0,1-.87-4.32,2.47,2.47,0,0,1,.87-2.29,11.77,11.77,0,0,1,3.41-2c.16-.06.36-.16.48-.2l.36-.12a3,3,0,0,1,.73-.14,4.35,4.35,0,0,1,1.61.16c2.31.64,4.69,2.74,6.66,5a45.54,45.54,0,0,1,5.3,7.6l-.11-.27a18.55,18.55,0,0,1,.8,5.69,18.28,18.28,0,0,1-1.08,5.73,31.14,31.14,0,0,1-6.26,10.23,62.68,62.68,0,0,1-9.05,8.31,80.48,80.48,0,0,1-10.36,6.73h0a1.32,1.32,0,0,0-.57,1.66c4.93,11.49,9.57,23.15,13.83,34.92,2.1,5.86,4.23,11.84,6,17.7a40.51,40.51,0,0,1,1.23,17.91,24.3,24.3,0,0,1-3,8.23,15.61,15.61,0,0,1-6,5.83,11,11,0,0,1-8,.82,8.82,8.82,0,0,1-1.79-.66A6.86,6.86,0,0,1,283,404.9a20,20,0,0,1-2.4-3.6c-2.84-5.33-4.72-11.34-6.47-17.3s-3.19-12.07-4.55-18.18-2.56-12.25-3.7-18.42-2.24-12.33-3.23-18.52l-1.53-9.3c-.52-3.11-1-6.18-1.7-9.37l-.16-.62-.11-.52-.23-1.05a19.11,19.11,0,0,1-.19-2.14,20.83,20.83,0,0,1,.37-4.36,43.91,43.91,0,0,1,2.65-8.65c1.13-2.86,2.44-5.69,3.69-8.61.61-1.5,1.24-2.88,1.76-4.56a28.82,28.82,0,0,0,1.11-4.94c.91-6.64.05-13.14-.66-19.3-.16-1.53-.3-3-.32-4.43a8.68,8.68,0,0,1,.52-3.52,1.81,1.81,0,0,1,.65-.79,3.57,3.57,0,0,1,1.22-.43,10,10,0,0,1,1.85-.06l.47,0s.08,0,.13,0a1.57,1.57,0,0,1,.39.18,8.79,8.79,0,0,1,2.25,2.67,40.55,40.55,0,0,1,2,3.9c1.23,2.75,2.32,5.67,3.52,8.57v0a.74.74,0,0,0,1,.4A.72.72,0,0,0,281.73,261.37Z"/><polygon class="cls-2" points="210.55 141.4 208.52 150.56 186.41 127.43 210.55 141.4"/><path class="cls-4" d="M174.44,230.05c-1.82-.42-2.08,0-2.4.47a9.58,9.58,0,0,0-.88,1.46,9.6,9.6,0,0,1-1.95,3,6.44,6.44,0,0,1-3.13,1.42,17.6,17.6,0,0,1-3.31.13,11.6,11.6,0,0,1-1.65-.14,10.08,10.08,0,0,1-1.73-.29,10.65,10.65,0,0,1-3.38-1.3c-1.08-.52-1.56-2-1.84-2.86-.21-.42-.32-.72-.67-.87s-.89-.17-2.06-.52l-1.06-.33a.46.46,0,0,0-.38.06,2.94,2.94,0,0,0-1.22,3.17,3.71,3.71,0,0,0,1.61,2.19c1.51.94,3.22.87,4.4,1.54l3.73,1.57a13,13,0,0,0,2,.7,8.47,8.47,0,0,0,2.14.35,3.62,3.62,0,0,0,1.09,0c.37,0,.73-.08,1.09-.13a13.2,13.2,0,0,0,2.07-.68c1.32-.59,2.52-1.27,3.74-1.94a43.21,43.21,0,0,0,3.81-2.06,7.35,7.35,0,0,0,1.56-1.49c.44-.56.92-1.18-.27-2.72a1.73,1.73,0,0,0-1-.64Z"/><polygon class="cls-1" points="345.84 188.65 386.51 115.11 348.23 94.85 304.25 166.11 345.84 188.65"/><path class="cls-1" d="M515.35,218.87,392.46,201.08,373,283.59v4.9L319.67,318.7s-11,10.55,6.44,9.66S447.19,353.8,447.19,353.8l54.73-54.94Z"/><path d="M385.67,116.58c-4.8,7.92-9.72,15.77-14.35,23.79-6.58,11.4-13,22.92-19.37,34.43-.8,1.44-1.6,1.89-3,1.09-4.07-2.32-8.15-4.62-12.19-7-7.31-4.3-14.58-8.66-21.9-12.93a5.3,5.3,0,0,0-2-.24c.29.69.38,1.69.9,2,3.7,2.36,7.48,4.59,11.23,6.85.75.46,1.52.89,2.05,1.2a21,21,0,0,0-3.05,3.77c-.3.6.36,1.88.89,2.63,1.25,1.78,2.48,1.87,4.05.53a9.85,9.85,0,0,1-2.29-1.6c-.4-.5-.28-1.42-.39-2.15a6.53,6.53,0,0,1,2.33.54c.53.37.7,1.27,1,1.93l.59,0c-.05-1.15-.11-2.3-.18-3.69.64.27,1.31.51,1.94.83,5.12,2.62,10.22,5.26,15.34,7.89,2.35,1.21,2.44,1.61,1.26,3.94a6.25,6.25,0,0,0-.27,2c.69-.29,1.67-.39,2-.91,2.3-3.46,4.61-6.94,6.65-10.56C364.2,158,371.37,145,378.6,132.06c2.4-4.29,4.91-8.53,7.27-12.84a7.63,7.63,0,0,0,.41-2.58Z"/><path d="M304.24,164.41c2.29-4,4.33-7.62,6.36-11.22q10.53-18.69,21.06-37.38c3.74-6.58,7.58-13.09,11.33-19.66.23-.4,0-1.06,0-1.59-.46.22-1.13.31-1.35.67C338,101.14,334.3,107,330.76,113c-5.75,9.7-11.48,19.42-17.06,29.21-3.33,5.85-6.39,11.85-9.55,17.79C303.49,161.26,302.78,162.54,304.24,164.41Z"/><path d="M303.8,164.89c-1.44,1.17-.88,2,.68,2.83,6.35,3.24,12.72,6.42,19,9.81,4.72,2.56,9.28,5.43,13.93,8.12a17.81,17.81,0,0,0,4.06,2,8.13,8.13,0,0,0,3.93-.22c-6.08-1.43-10.23-6-15.39-8.8-6.34-3.4-12.66-6.84-19-10.21C308.71,167.22,306.37,166.15,303.8,164.89Z"/><path d="M386.05,113.89a13.79,13.79,0,0,0-2.36-2.61,128.66,128.66,0,0,0-11.14-7c-6.95-3.67-14-7.07-21.14-10.44-1-.49-2.42-.19-3.64-.25a15.07,15.07,0,0,0,2.64,2.26c10.91,5.55,21.87,11,32.79,16.54a14,14,0,0,1,2.36,1.9Z"/><path d="M380.43,119.46q-14.87-8.68-29.72-17.38c-1.11-.65-2.14-1.44-3.27-2-.38-.21-.95-.05-1.44-.05.07.54-.07,1.29.23,1.58a15.72,15.72,0,0,0,3.22,2.48q13.14,7.17,26.35,14.2a38.23,38.23,0,0,0,4.51,1.74Z"/><path d="M498.36,301c-4.5-.52-9-1-13.5-1.58-30.06-4-60.12-7.93-90.15-12.09a99.91,99.91,0,0,1-14.55-3.65c-3.7-1.11-3.84-1.17-3.24,2.53-13.53,8.33-27.07,16.7-40.65,25a14.69,14.69,0,0,1-3.36,1.09l-.53-.91a12.63,12.63,0,0,1,2.27-2.29c12.17-7.15,24.35-14.29,36.61-21.28,2.06-1.16,2.81-2,2.68-4.68a53.3,53.3,0,0,1,1.44-12.95c4.11-20.52,8.4-41,12.61-61.52a26,26,0,0,1,.41-2.69c.16-.49.75-.84,1.14-1.26a8.81,8.81,0,0,1,.95,1.34,16.41,16.41,0,0,1,.76,2c.45-.58,1.17-1.09,1.3-1.73.37-1.79,1.38-2.1,3-1.85q50.19,7.85,100.39,15.67c3.05.47,6.06,1.23,9.1,1.73,2.17.36,3.43,1.13,2.61,3.61-.12.39.28,1,.44,1.45l.84.1c.37-1.85.65-3.73,1.12-5.55a8.08,8.08,0,0,1,1.2-2,6,6,0,0,1,.58,2c-.53,5-1.15,10.07-1.61,15.13,2.25-5.86,2.17-12.51,6.08-18.24l-13.43,80,6.58,1.79,0,1c-.84.2-1.78.74-2.51.54-3.84-1.09-5.93,1-8,3.78a41.6,41.6,0,0,1-5.38,5.73q-15.82,14.69-31.75,29.27c-3.49,3.2-7.05,6.32-10.59,9.48-.13.12-.37.19-.42.33-1.49,4.42-4.43,2.91-7.6,2.19-16.78-3.81-33.61-7.39-50.42-11.07-6.94-1.52-13.87-4.37-20.79-4.34-9.63.05-18.55-3.26-28-3.85-8.24-.52-16.38-2.4-24.58-3.61-1.34-.19-2.74,0-4.12-.35,3.75-2.18,7.77-.8,11.68-.7,0-.23,0-.45.07-.68-2.5-.39-5-.82-7.51-1.16-3.21-.44-3.9-1.34-2.5-4.27a14.46,14.46,0,0,1,3.56-4.22,42.9,42.9,0,0,1,5.11-3.63,6.68,6.68,0,0,1,3.05-1c-2.21,1.89-3.37,5-6.89,5.24-2.37.15-3,2.08-2.92,3.89,0,.7,1.68,1.8,2.68,1.92,13.65,1.64,27.44,2.43,40.95,4.82,26.88,4.77,53.62,10.39,80.41,15.69a16.23,16.23,0,0,1,4.44,1.29c2.61,1.36,4.29.44,6.21-1.44,6.19-6.06,12.55-11.92,18.84-17.87a20.89,20.89,0,0,0,3.22-3.71,202.77,202.77,0,0,0-24.78,21c-.91-2.39-.18-3.78,1.28-5.17,13.27-12.58,28.11-23.18,42.73-34.05,1.34-1,2.53-2.18,3.79-3.28ZM386.12,275.48c1.62.11,3.25.13,4.85.35q29.5,4.1,59,8.26c11.26,1.57,22.53,3.1,33.77,4.77a36,36,0,0,1,8.44,2.09c2.22.9,2.9.05,3.25-1.7.54-2.76.94-5.56,1.36-8.35q3.56-24.06,7-48.12c.13-.94-.12-2.61-.66-2.84a22.72,22.72,0,0,0-5.71-1.46c-1.85-.28-3.78,0-5.62-.37-17.64-3.21-35.24-6.7-52.93-9.68-11.3-1.9-22.73-3.07-34.1-4.61-1.49-.2-2.94-.69-4.41-1,0-.2.09-.41.14-.61l3.79-.6c-6.57-2.19-7.56-1.33-8.63,4.6a4.69,4.69,0,0,0-.06.54c-.82,6-1.49,12.11-2.49,18.13C390.92,248.27,388.51,261.68,386.12,275.48Zm44.68,14.29c0-.22.07-.43.1-.65-9.45-1.65-18.89-3.37-28.35-4.95-7.08-1.18-14.18-2.19-21.28-3.28-2.32-.35-2.85-1.46-2.3-3.81,1.12-4.75,1.83-9.59,2.71-14.39-.77.18-1.15.49-1.26.88-1,3.82-2.19,7.62-2.94,11.5-1.08,5.63-1,6,4.41,7,12,2.22,24,4.14,36,6.08C422.17,288.82,426.5,289.23,430.8,289.77ZM448,350.29c0-.47.07-.93.11-1.4l-60.84-12.45-.15.65c.85.24,1.7.52,2.56.72q27.54,6.24,55.07,12.45A15.31,15.31,0,0,0,448,350.29Zm14.22-131.87c.06-.32.11-.65.17-1l-25-3.88c0,.26-.09.53-.13.79Z"/><g class="cls-6"><path d="M498.36,301l.36.9c-1.26,1.1-2.45,2.29-3.79,3.28C480.31,316,465.47,326.6,452.2,339.18c-1.46,1.39-2.19,2.78-1.28,5.17a202.77,202.77,0,0,1,24.78-21,20.89,20.89,0,0,1-3.22,3.71c-6.29,5.95-12.65,11.81-18.84,17.87-1.92,1.88-3.6,2.8-6.21,1.44A16.23,16.23,0,0,0,443,345.1c-26.79-5.3-53.53-10.92-80.41-15.69-13.51-2.39-27.3-3.18-40.95-4.82-1-.12-2.64-1.22-2.68-1.92-.09-1.81.55-3.74,2.92-3.89,3.52-.23,4.68-3.35,6.89-5.24a6.68,6.68,0,0,0-3.05,1,42.9,42.9,0,0,0-5.11,3.63,14.46,14.46,0,0,0-3.56,4.22c-1.4,2.93-.71,3.83,2.5,4.27,2.51.34,5,.77,7.51,1.16,0,.23-.05.45-.07.68-3.91-.1-7.93-1.48-11.68.7,1.38.33,2.78.16,4.12.35,8.2,1.21,16.34,3.09,24.58,3.61,9.44.59,18.36,3.9,28,3.85,6.92,0,13.85,2.82,20.79,4.34,16.81,3.68,33.64,7.26,50.42,11.07,3.17.72,6.11,2.23,7.6-2.19.05-.14.29-.21.42-.33,3.54-3.16,7.1-6.28,10.59-9.48q15.92-14.61,31.75-29.27a41.6,41.6,0,0,0,5.38-5.73c2-2.8,4.12-4.87,8-3.78.73.2,1.67-.34,2.51-.54l0-1-6.58-1.79,13.43-80c-3.91,5.73-3.83,12.38-6.08,18.24.46-5.06,1.08-10.09,1.61-15.13a6,6,0,0,0-.58-2,8.08,8.08,0,0,0-1.2,2c-.47,1.82-.75,3.7-1.12,5.55l-.84-.1c-.16-.49-.56-1.06-.44-1.45.82-2.48-.44-3.25-2.61-3.61-3-.5-6-1.26-9.1-1.73q-50.19-7.86-100.39-15.67c-1.61-.25-2.62.06-3,1.85-.13.64-.85,1.15-1.3,1.73a16.41,16.41,0,0,0-.76-2,8.81,8.81,0,0,0-.95-1.34c-.39.42-1,.77-1.14,1.26a26,26,0,0,0-.41,2.69c-4.21,20.51-8.5,41-12.61,61.52a53.3,53.3,0,0,0-1.44,12.95c.13,2.7-.62,3.52-2.68,4.68-12.26,7-24.44,14.13-36.61,21.28a12.63,12.63,0,0,0-2.27,2.29l.53.91a14.69,14.69,0,0,0,3.36-1.09c13.58-8.3,27.12-16.67,40.65-25-.6-3.7-.46-3.64,3.24-2.53a99.91,99.91,0,0,0,14.55,3.65c30,4.16,60.09,8.1,90.15,12.09C489.35,300,493.86,300.43,498.36,301Zm-140.87,6c2.07,2.43,4.67,2,7.11,2.45,24.39,4.25,48.75,8.62,73.12,12.94a14.19,14.19,0,0,0,2.44,0l.3-1.13a34.36,34.36,0,0,0-5.46-2.36c-3.53-.86-7.14-1.37-10.73-2-20.14-3.66-40.19-7.94-60.7-9.19a13.75,13.75,0,0,1-2.76-.94c4.42-2.37,8.12-4.29,11.76-6.31,2.93-1.63,6.09-3.05,8.61-5.2,1.87-1.59,3.44-2.08,5.64-1.44a24.72,24.72,0,0,0,3.22.61q35.61,5.52,71.23,11c2.43.37,4.85.78,7.3,1,.63,0,1.32-.56,2-.86a8,8,0,0,0-1.69-1.47,10.18,10.18,0,0,0-2.64-.63c-15.18-2.5-30.32-5.28-45.55-7.38-12.52-1.72-25.15-2.64-37.73-3.87a3.66,3.66,0,0,0-2.08.43q-10.11,6-20.16,12C359.59,305.33,358.57,306.19,357.49,307Zm35.9-106.4c0,.33-.09.65-.13,1a14.22,14.22,0,0,0,2,.52c11.12,1.27,22.24,2.61,33.37,3.75a559.75,559.75,0,0,1,60.7,9.17c5,1.07,9.9,2.39,14.87,3.5.65.15,1.43-.31,2.15-.48-.48-.58-.85-1.42-1.45-1.67a40.62,40.62,0,0,0-5.94-2c-33.13-7.92-66.84-11.59-100.76-13.76C396.6,200.49,395,200.58,393.39,200.58Zm60.22,122.23c3.67-.8,16.93-11,17.28-13.56A56.94,56.94,0,0,0,453.61,322.81Z"/></g><path d="M357.49,307c1.08-.79,2.1-1.65,3.22-2.33q10.05-6.06,20.16-12a3.66,3.66,0,0,1,2.08-.43c12.58,1.23,25.21,2.15,37.73,3.87,15.23,2.1,30.37,4.88,45.55,7.38a10.18,10.18,0,0,1,2.64.63,8,8,0,0,1,1.69,1.47c-.67.3-1.36.91-2,.86-2.45-.22-4.87-.63-7.3-1q-35.62-5.49-71.23-11a24.72,24.72,0,0,1-3.22-.61c-2.2-.64-3.77-.15-5.64,1.44-2.52,2.15-5.68,3.57-8.61,5.2-3.64,2-7.34,3.94-11.76,6.31a13.75,13.75,0,0,0,2.76.94c20.51,1.25,40.56,5.53,60.7,9.19,3.59.65,7.2,1.16,10.73,2a34.36,34.36,0,0,1,5.46,2.36l-.3,1.13a14.19,14.19,0,0,1-2.44,0c-24.37-4.32-48.73-8.69-73.12-12.94C362.16,309,359.56,309.41,357.49,307Z"/><path d="M393.39,200.58c1.6,0,3.21-.09,4.8,0,33.92,2.17,67.63,5.84,100.76,13.76a40.62,40.62,0,0,1,5.94,2c.6.25,1,1.09,1.45,1.67-.72.17-1.5.63-2.15.48-5-1.11-9.89-2.43-14.87-3.5a559.75,559.75,0,0,0-60.7-9.17c-11.13-1.14-22.25-2.48-33.37-3.75a14.22,14.22,0,0,1-2-.52C393.3,201.23,393.35,200.91,393.39,200.58Z"/><path d="M453.61,322.81a56.94,56.94,0,0,1,17.28-13.56C470.54,311.85,457.28,322,453.61,322.81Z"/><path d="M433,261.08c1-.76,1.92-1.61,3-2.29,9.1-5.83,18.2-11.66,27.36-17.4.58-.37,1.59-.08,2.4-.1-.35.74-.49,1.75-1.07,2.17-1.84,1.32-3.83,2.42-5.77,3.6L436,260.85c-.74.44-1.51.81-2.26,1.22Z"/><path d="M457,254.52c2.44-3.32,5.22-6.24,9.36-7.37C464.47,251.13,459.94,251.8,457,254.52Z"/></g></g></svg>