<svg xmlns="http://www.w3.org/2000/svg" viewBox="0 0 112.8 118.5"><defs><style>.cls-1{fill:#48a336;}</style></defs><g id="Capa_2" data-name="Capa 2"><g id="レイヤー_4" data-name="レイヤー 4"><path class="cls-1" d="M90.25,32a23.54,23.54,0,0,0-4.53.17c-2.69.38-5.21.44-7.72,2.51a11.52,11.52,0,0,0-3.9,5.9c.08-.39.17-.77.25-1.09q3.25-12.2,6.5-24.4c.53-2-3.94-4.45-5.51-3.33-.87.62-1.78,1.18-2.71,1.72a14.48,14.48,0,0,1-5.89,1.16c-2.92.09-6.86-2.69-9.16-3h0a7.58,7.58,0,0,0-1.94-.25c-6.17,0-13.11,6.77-16.52,15.67-1.71-3.19-5.13-4.94-8.76-5.47-2.9-.5-4.85-1.12-6.1-1.26s-2.65.45-.29,2.1c4.34,3.05,3.33,5.26,4,9.48.75,4.51,3.79,5.19,5.25,6.29a.47.47,0,0,0,.73-.12c.11-.39.31-1.27.49-1.7,1.9-4.65.58-10.71-3.52-11.7a.27.27,0,0,0-.25.46,10.13,10.13,0,0,1,3.2,7c.18,2.16-.43,3-.8,5.13a18.17,18.17,0,0,1-1.83-1.92,8.3,8.3,0,0,1-1.64-3.9c-.9-5.06.33-4.94-3-8.47-.36-.38-.5-.47-.45-.45,1.22.57,11.36.65,10.38,8.9C36,36,34.4,41.55,37.72,46.07A8.22,8.22,0,0,0,45,49.29l.51,0c6.91,0,14.79-8.49,17.6-19C64.48,25.16,64.36,20.46,63,17h0c-.59-2,2.35-2,3.7-2.06,1.13,0,2.72,1.36,3.52,2.17a4.14,4.14,0,0,0,.35.38h0A6.5,6.5,0,0,0,73.07,19Q70,30.1,67,41.19c-.88,3.15-5,5.4-8.27,6.86L56.54,49l-.8.33c-5.74,2.35-12.25,4.3-19.27.34C26.41,44,22.51,34,21.77,38.38c-.93,5.45,1.14,14.22,8.84,21.91C43.34,73,64.29,70.3,73.24,53.77a.39.39,0,0,0,.08-.1c1.31-2.53,2.48-3.83,3.46-4.2a1,1,0,0,0,.37-.23c2.8-1.81,3.23-6.24,3.6-7.77a6.42,6.42,0,0,1,.86-2.15,2.3,2.3,0,0,1,1.62-1.2c.18-.06.32-.14.24-.28-.32-.53-2.16-.58-3.4.89-2.47,2.94-1.37,7.4-5.6,9.33a2.52,2.52,0,0,1-.75.16c0-.34,0-.46-.07,0a3.07,3.07,0,0,1-1.16-.13,6,6,0,0,0,1.89-2.4c1.41-3.37,2.41-8.77,8.17-10.82a14.13,14.13,0,0,1,4.08-.65A8.15,8.15,0,0,0,85.17,37C83.55,41.55,84.58,48.75,79,49.6a.23.23,0,0,0,0,.46c3.45-.12,5.35-3.72,5.72-6.66,1.93-9.5,5.41-9.33,6.23-10.18C91.61,32.62,90.84,32,90.25,32ZM59,30.35c-2.15,8-7,14.53-10.81,14.53s-5.17-6.5-3-14.53,7-14.53,10.81-14.53S61.12,22.32,59,30.35Z"/><ellipse class="cls-1" cx="59.69" cy="4.77" rx="4.83" ry="4.2" transform="translate(37.13 60.24) rotate(-72.44)"/><ellipse class="cls-1" cx="82.06" cy="6.23" rx="4.83" ry="4.2" transform="translate(51.36 82.58) rotate(-72.44)"/><path class="cls-1" d="M16.79,91.66c-.41,1.08-1.39,3.76-1.91,4.89H.18L0,96.13c4.9-5.64,9.83-11.27,14.68-17H10c-3.06,0-3.56.25-4.17,1a10,10,0,0,0-1.44,2.54l-.84,0c.44-1.88,1-4,1.26-5.3h.68c.25.69.56.71,1.41.71H18.27l.13.4C13.56,84.06,8.8,89.55,4,95.33a41.1,41.1,0,0,0,4.37.17c3.31,0,4.56-.2,5.51-1a11,11,0,0,0,2.11-3Z"/><path class="cls-1" d="M32.08,92c-.32,1-1.38,3.64-1.76,4.52H16.5l.14-.82c2.59-.2,2.88-.43,3.29-2.76l2-11.24c.45-2.54.21-2.65-1.9-2.85l.14-.83H32.89c-.12.69-.32,2.62-.47,4.13l-.9.14A6,6,0,0,0,31,79.9c-.32-.62-1.05-.82-3-.82H26c-.91,0-1,.08-1.16.94l-1.12,6.4h2.54c2.53,0,2.76-.23,3.44-2.13h.85l-1,5.49h-.84c0-2-.21-2.19-2.68-2.19H23.51l-.92,5.26c-.24,1.34-.18,2,.27,2.34a5.89,5.89,0,0,0,2.83.34c2,0,2.9-.23,3.65-.94a12.26,12.26,0,0,0,1.92-2.7Z"/><path class="cls-1" d="M48.58,96.78c-.31,0-.62,0-.95,0-2.39-.11-3.41-.76-4.36-2.61-.7-1.34-1.39-3.08-2-4.47-.36-.83-.78-1.17-2.14-1.17h-.82L37.55,93c-.42,2.39-.2,2.59,2,2.76l-.14.82H31.77l.14-.82c2.33-.17,2.62-.37,3-2.76l2-11.36c.42-2.39.19-2.53-2-2.73l.15-.83h7.19c2.16,0,3.5.26,4.45,1A3.53,3.53,0,0,1,48,82.78c-.43,2.45-2.22,3.93-4.45,4.84.32.91,1.15,2.82,1.78,4.1a18.53,18.53,0,0,0,1.74,3A3.2,3.2,0,0,0,48.83,96Zm-8.83-9.25a5.26,5.26,0,0,0,3.17-.79A5.13,5.13,0,0,0,45,83.23c.54-3.07-1.22-4.21-3.26-4.21a2.94,2.94,0,0,0-1.55.29c-.23.17-.37.48-.5,1.22l-1.22,7Z"/><path class="cls-1" d="M67.94,87.08A11.57,11.57,0,0,1,56.68,97c-5.22,0-8.59-4-7.63-9.5.89-5.07,5.3-9.85,11.34-9.85C65.29,77.63,68.93,81.38,67.94,87.08Zm-15.58-.34c-.92,5.23,1.16,9.19,5.1,9.19,3.06,0,6.21-2.65,7.17-8.08,1-5.95-1.34-9.17-5-9.17C56.55,78.68,53.28,81.47,52.36,86.74Z"/><path class="cls-1" d="M77.28,87.08A11.55,11.55,0,0,1,66,97c-5.22,0-8.59-4-7.63-9.5.89-5.07,5.3-9.85,11.33-9.85C74.64,77.63,78.28,81.38,77.28,87.08ZM61.7,86.74c-.91,5.23,1.17,9.19,5.11,9.19,3.06,0,6.21-2.65,7.17-8.08,1-5.95-1.34-9.17-5-9.17C65.89,78.68,62.63,81.47,61.7,86.74Z"/><path class="cls-1" d="M98.64,78.88c-1.6.09-2.32.46-2.68,1.71-.24.88-.55,2.16-1,4.78l-2,11.44H92L82.56,82H82.5l-1.23,7c-.45,2.59-.61,4-.67,4.78-.1,1.4.45,1.8,2.39,1.91l-.15.82H76.1l.14-.82c1.64-.11,2.41-.48,2.79-1.85a48.5,48.5,0,0,0,1-4.84l1.09-6.2c.36-2,.33-2.22-.08-2.91s-1-.94-2.31-1.05l.14-.83h4.39l9.2,14h.08l1.17-6.63a45.33,45.33,0,0,0,.63-4.73c.08-1.25-.5-1.65-2.5-1.76l.15-.83h6.74Z"/><path class="cls-1" d="M112,92c-.32,1-1.38,3.64-1.76,4.52H96.41l.15-.82c2.58-.2,2.88-.43,3.29-2.76l2-11.24c.44-2.54.21-2.65-1.91-2.85l.14-.83H112.8c-.12.69-.31,2.62-.47,4.13l-.9.14a6,6,0,0,0-.51-2.42c-.31-.62-1-.82-3-.82h-2c-.91,0-1,.08-1.16.94l-1.12,6.4h2.55c2.52,0,2.76-.23,3.43-2.13h.85l-1,5.49h-.85c0-2-.21-2.19-2.68-2.19h-2.55l-.92,5.26c-.23,1.34-.18,2,.27,2.34a5.92,5.92,0,0,0,2.83.34c2,0,2.9-.23,3.65-.94a11.64,11.64,0,0,0,1.92-2.7Z"/><path class="cls-1" d="M33,110.61c2.22-.41,4.44-.87,5-1a4.69,4.69,0,0,0,.85-.28l1,.81a6.42,6.42,0,0,0-.41.64,20.54,20.54,0,0,1-2.85,4.06l-1.21-.73a13.13,13.13,0,0,0,2.37-3.1L33,112v3.93c0,.92.31,1.22,1.9,1.22a21.81,21.81,0,0,0,4.37-.43l0,1.51a33.48,33.48,0,0,1-4.34.29c-2.84,0-3.31-.71-3.31-2.2v-4c-1.34.26-2.52.51-3.09.64l-.26-1.45c.64-.08,1.91-.31,3.35-.57v-2.21a9.59,9.59,0,0,0-.1-1.42h1.64a9.6,9.6,0,0,0-.11,1.42ZM38.55,109a16.07,16.07,0,0,0-1.1-1.92l.89-.38a20.38,20.38,0,0,1,1.13,1.91Zm1.36-2.89A16.34,16.34,0,0,1,41.07,108l-.91.4A13.68,13.68,0,0,0,39,106.44Z"/><path class="cls-1" d="M54.47,116.22c0,.48,0,1.68,0,1.79H53c0-.07,0-.39,0-.78h-7.2c0,.38,0,.71,0,.78h-1.5c0-.12,0-1.24,0-1.79v-6.83c0-.36,0-.84,0-1.21.54,0,1,0,1.34,0h7.55c.32,0,.82,0,1.28,0,0,.38,0,.81,0,1.2Zm-8.68-6.62v6.26H53V109.6Z"/><path class="cls-1" d="M69.49,108.57a6.24,6.24,0,0,0-.21.76,13.6,13.6,0,0,1-1.59,5.19,9.94,9.94,0,0,1-5.27,3.94l-1.21-1.23a8.82,8.82,0,0,0,5.15-3.45,10.38,10.38,0,0,0,1.29-4.45H60.42v2.59c0,.19,0,.61,0,1h-1.6c0-.37.06-.69.06-1v-3c0-.34,0-.7-.06-1,.39,0,1,0,1.57,0h6.93a5.17,5.17,0,0,0,1.07-.08Z"/><path class="cls-1" d="M78.88,114.85a13.21,13.21,0,0,0,4.83-5.24l.85,1.52a14.29,14.29,0,0,1-4.88,5,15.42,15.42,0,0,1-5.33,2.07l-.93-1.43A14.45,14.45,0,0,0,78.88,114.85Zm-.47-4.45-1.1,1.13a30.92,30.92,0,0,0-3.47-3l1-1.08A28.28,28.28,0,0,1,78.41,110.4Z"/></g></g></svg>