<svg xmlns="http://www.w3.org/2000/svg" xmlns:xlink="http://www.w3.org/1999/xlink" viewBox="0 0 87.38 83.26"><defs><style>.cls-1{fill:none;}.cls-2{clip-path:url(#clip-path);}.cls-3{fill:#fff;}.cls-4{fill:#00b900;}</style><clipPath id="clip-path" transform="translate(0 0)"><rect class="cls-1" width="87.38" height="83.26"/></clipPath></defs><title>Asset 1</title><g id="Layer_2" data-name="Layer 2"><g id="Layer_1-2" data-name="Layer 1"><g class="cls-2"><path class="cls-3" d="M87.38,35.46C87.38,15.91,67.78,0,43.69,0S0,15.91,0,35.46c0,17.52,15.54,32.2,36.54,35,1.42.3,3.36.93,3.85,2.15a8.94,8.94,0,0,1,.14,4l-.62,3.74c-.19,1.11-.88,4.32,3.78,2.36S68.85,67.82,78,57.27h0c6.33-6.94,9.36-14,9.36-21.81" transform="translate(0 0)"/><path class="cls-4" d="M34.81,26H31.75a.85.85,0,0,0-.85.85v19a.85.85,0,0,0,.85.84h3.06a.85.85,0,0,0,.85-.84v-19a.85.85,0,0,0-.85-.85" transform="translate(0 0)"/><path class="cls-4" d="M55.91,26H52.84a.85.85,0,0,0-.85.85V38.17L43.27,26.39l-.07-.09h0l-.06-.05h0l-.05,0s0,0,0,0l0,0h0l0,0h0l-.05,0h0l-.05,0H39.5a.86.86,0,0,0-.86.85v19a.86.86,0,0,0,.86.84h3.06a.85.85,0,0,0,.85-.84V34.59l8.74,11.8a1,1,0,0,0,.21.21h0l.05,0,0,0,0,0h.06l.06,0h0l.21,0h3.07a.85.85,0,0,0,.85-.84v-19a.85.85,0,0,0-.85-.85" transform="translate(0 0)"/><path class="cls-4" d="M27.43,42H19.1V26.86a.85.85,0,0,0-.85-.85H15.18a.85.85,0,0,0-.85.85v19h0a.83.83,0,0,0,.24.59s0,0,0,0h0a.84.84,0,0,0,.58.23H27.43a.85.85,0,0,0,.85-.85V42.83a.85.85,0,0,0-.85-.85" transform="translate(0 0)"/><path class="cls-4" d="M72.83,30.78a.86.86,0,0,0,.85-.86V26.86a.85.85,0,0,0-.85-.85H60.59a.83.83,0,0,0-.59.24h0a.87.87,0,0,0-.23.59h0v19h0a.83.83,0,0,0,.24.58v0h0a.87.87,0,0,0,.59.23H72.83a.85.85,0,0,0,.85-.85V42.83a.85.85,0,0,0-.85-.85H64.51V38.76h8.32a.85.85,0,0,0,.85-.85V34.84a.85.85,0,0,0-.85-.85H64.51V30.78Z" transform="translate(0 0)"/></g></g></g></svg>