<?xml version="1.0" encoding="utf-8"?>
<!-- Generator: Adobe Illustrator 25.2.3, SVG Export Plug-In . SVG Version: 6.00 Build 0)  -->
<svg version="1.1" id="レイヤー_1" xmlns="http://www.w3.org/2000/svg" xmlns:xlink="http://www.w3.org/1999/xlink" x="0px"
	 y="0px" viewBox="0 0 24 24" style="enable-background:new 0 0 24 24;" xml:space="preserve">
<style type="text/css">
	.st0{fill:#FFFFFF;}
</style>
<path class="st0" d="M20.9,23.7C13.5,27,2.1,4.8,9.3,1l2.1-1l3.5,6.8l-2.1,1c-2.2,1.2,2.4,10.1,4.6,9c0.1,0,2.1-1,2.1-1l3.5,6.8
	C23,22.6,21,23.6,20.9,23.7z M11.5,21.4c-1.5,1.1-3.5,1.2-4.1,0.1c-0.5-0.8-0.3-1.7-0.1-2.8c0.2-1.2,0.4-2.5-0.3-3.7
	C5.7,12.9,3,13,1,14.3l1,1.5c0.8-0.5,1.8-0.8,2.5-0.6c1.7,0.4,1.2,2.5,1,3.2c-0.2,1.2-0.4,2.6,0.3,4c1.2,2.1,4.6,2.1,6.8,0.3
	C12.2,22.3,11.8,21.8,11.5,21.4z"/>
</svg>
