<?xml version="1.0" encoding="utf-8"?>
<!-- Generator: Adobe Illustrator 25.2.1, SVG Export Plug-In . SVG Version: 6.00 Build 0)  -->
<svg version="1.1" id="_x32_" xmlns="http://www.w3.org/2000/svg" xmlns:xlink="http://www.w3.org/1999/xlink" x="0px" y="0px"
	 viewBox="0 0 512 512" style="enable-background:new 0 0 512 512;" xml:space="preserve">
<style type="text/css">
	.st0{fill:#222222;}
</style>
<g>
	<path class="st0" d="M0,88v52.4c40.3,0.1,77.8,7.8,110.1,20.6c6.1,2.4,11.9,5,17.6,7.7c13-6.2,26.9-11.6,41.7-16
		c26.5-7.8,55.7-12.3,86.6-12.3c40.5,0,78.1,7.8,110.6,20.6c6.1,2.4,11.9,5,17.6,7.7c13-6.2,26.9-11.6,41.7-16
		c26.4-7.8,55.4-12.3,86.1-12.3V88H0z"/>
	<path class="st0" d="M320.6,286.7c0,13.2,4,25.4,10.9,35.6c6.9,10.2,16.6,18.3,28,23.1c7.6,3.2,15.9,5,24.8,5
		c13.2,0,25.4-4,35.6-10.9c10.2-6.9,18.3-16.6,23.1-28c3.2-7.6,5-15.9,5-24.8c0-6.3-1.3-13-4.1-20c-2.8-7-7-14.3-12.7-21.6
		c-10.8-13.9-26.8-27.6-46.9-39.1c-15.4,8.8-28.4,18.9-38.5,29.4c-10.8,11.2-18.1,22.8-21.9,33.6C321.6,275.1,320.6,281,320.6,286.7
		z"/>
	<path class="st0" d="M446.5,212.5c13.3,13.9,23.5,29.2,29.3,45.5c3.3,9.3,5.1,18.9,5.1,28.7c0,20-6.1,38.6-16.5,54
		c-10.4,15.4-25.1,27.7-42.5,35c-11.6,4.9-24.3,7.6-37.6,7.6c-20,0-38.6-6.1-54.1-16.5c-15.4-10.4-27.6-25.1-35-42.5
		c-4.9-11.6-7.6-24.3-7.6-37.6c0-14.6,4.1-29,11.1-42.4c7-13.4,17-26.1,29.2-37.6c6.4-6,13.4-11.7,20.9-17.1
		c-5.1-1.9-10.2-3.6-15.6-5.2c-23.5-6.9-49.6-11-77.2-11c-33.9,0-65.5,6.1-92.8,16.1c10,7.1,19,14.8,26.9,23
		c13.3,13.9,23.5,29.2,29.2,45.5c3.3,9.3,5.1,18.9,5.1,28.7c0,20-6.1,38.6-16.5,54c-10.4,15.4-25.1,27.7-42.5,35
		c-11.6,4.9-24.3,7.6-37.6,7.6c-20,0-38.6-6.1-54.1-16.5c-15.4-10.4-27.6-25.1-35-42.5c-4.9-11.6-7.6-24.3-7.6-37.6
		c0-14.6,4.1-29,11.1-42.4c7-13.4,17-26.1,29.2-37.6c6.4-6,13.4-11.7,20.9-17.1c-5.1-1.9-10.2-3.6-15.6-5.2
		c-23.4-6.9-49.3-10.9-76.7-11V424h512V173.4c-33.7,0-65.1,6.1-92.3,16.1C429.7,196.7,438.7,204.4,446.5,212.5z"/>
	<path class="st0" d="M64.1,286.7c0,13.2,4,25.4,10.9,35.6c6.9,10.2,16.6,18.3,28,23.1c7.6,3.2,15.9,5,24.8,5
		c13.2,0,25.4-4,35.6-10.9c10.2-6.9,18.3-16.6,23.1-28c3.2-7.6,5-15.9,5-24.8c0-6.3-1.3-13-4.1-20c-2.8-7-7-14.3-12.7-21.6
		c-10.8-13.9-26.9-27.6-46.9-39.1c-15.4,8.8-28.4,18.9-38.5,29.4c-10.8,11.2-18.1,22.8-21.9,33.6C65.2,275.1,64.1,281,64.1,286.7z"
		/>
</g>
</svg>
