<svg xmlns="http://www.w3.org/2000/svg" xmlns:xlink="http://www.w3.org/1999/xlink" viewBox="0 0 24 18"><defs><style>.cls-1{fill:none;}.cls-2{clip-path:url(#clip-path);}.cls-3{fill:#159f9d;fill-rule:evenodd;}</style><clipPath id="clip-path"><rect class="cls-1" width="24" height="18"/></clipPath></defs><title>kvicon2Asset 1</title><g id="Layer_2" data-name="Layer 2"><g id="Layer_1-2" data-name="Layer 1"><g class="cls-2"><path class="cls-3" d="M3,15H1a1,1,0,0,1-1-1V12H15V3h4.67A2.08,2.08,0,0,1,21.6,4.11c.6.94,1.54,2.43,2.11,3.38a2,2,0,0,1,.29,1V13a1.89,1.89,0,0,1-2,2H21a3,3,0,0,1-6,0H9a3,3,0,0,1-6,0m3-1.2A1.2,1.2,0,1,1,4.8,15,1.2,1.2,0,0,1,6,13.8m12,0A1.2,1.2,0,1,1,16.8,15,1.2,1.2,0,0,1,18,13.8M14,11H0V1A1,1,0,0,1,1,0H13a1,1,0,0,1,1,1Zm3-6V8h4.72L20.29,5.5a1,1,0,0,0-.87-.5Z"/></g></g></g></svg>