<svg xmlns="http://www.w3.org/2000/svg" viewBox="0 0 104.05 90.38"><defs><style>.cls-1{fill:#159f9d;}</style></defs><g id="Capa_2" data-name="Capa 2"><g id="icons"><path class="cls-1" d="M102,37.27a6.85,6.85,0,0,0-1.89-1.42,7.29,7.29,0,0,0-7.42-11.91,7.23,7.23,0,0,0-1.66-2.77A7.31,7.31,0,0,0,80.72,21L78.79,22.8a7.15,7.15,0,0,0-1.32-1.92,7.31,7.31,0,0,0-10.33-.23l-8,7.64,3.46,3.61,8-7.64a2.31,2.31,0,0,1,3.26.07,2.31,2.31,0,0,1-.07,3.26L60.69,40.12l1.73,1.81,1.73,1.8h0L77.24,31.2h0l6.94-6.64a2.31,2.31,0,0,1,3.26.07,2.29,2.29,0,0,1-.07,3.25l-7.62,7.3-10.1,9.66h0l-2.31,2.22,3.46,3.61L87.08,35.08l6.06-5.8a2.3,2.3,0,0,1,3.18,3.33L83.93,44.47,74,54l3.46,3.61,2.31-2.22h0L90.37,45.23l4.78-4.58A2.3,2.3,0,0,1,96.8,40a2.33,2.33,0,0,1,1.61.71A2.31,2.31,0,0,1,98.34,44l-20,19.17h0l-4.16,4a2.5,2.5,0,0,0,1.94,4.3L87,70.5a2.42,2.42,0,0,1,1.77.54,2.52,2.52,0,0,1,1,1.63A2.29,2.29,0,0,1,87.47,75L64,77.53a2.51,2.51,0,0,0-1.46.68l-3.42,3.27,3.46,3.61,2.8-2.68L88,80a7.2,7.2,0,0,0,6.61-7.87,7.54,7.54,0,0,0-2.81-5,7.4,7.4,0,0,0-5.39-1.61l-3.72.32,10-9.59h0l9-8.66A7.3,7.3,0,0,0,102,37.27Z"/><path class="cls-1" d="M56.52,18.68a5.19,5.19,0,0,0-4.61-5.23,5.28,5.28,0,0,0-.56,0,4.14,4.14,0,0,0-3.91,4.2V35.72h-2V7.41a4,4,0,1,0-8.07,0v28.3h-2V4.21a4.15,4.15,0,0,0-4-4.21h-.1a4.15,4.15,0,0,0-4,4.21V35.72h-2V11a4.19,4.19,0,0,0-4.36-4.24h-.1A5.17,5.17,0,0,0,16.22,12V46.88L9.09,38a5.33,5.33,0,0,0-7.3-1,5,5,0,0,0-.64,7l15.06,23.2v23.1H56.52V24.89h0Z"/></g></g></svg>