<?xml version="1.0" encoding="utf-8"?>
<!-- Generator: Adobe Illustrator 25.2.1, SVG Export Plug-In . SVG Version: 6.00 Build 0)  -->
<svg version="1.1" id="レイヤー_1" xmlns="http://www.w3.org/2000/svg" xmlns:xlink="http://www.w3.org/1999/xlink" x="0px"
	 y="0px" viewBox="0 0 99.5 118.6" style="enable-background:new 0 0 99.5 118.6;" xml:space="preserve">
<style type="text/css">
	.st0{fill:#159F9D;}
</style>
<g>
	<path class="st0" d="M82.2,109.4c0,1.1-0.9,2.1-2.1,2.1H20.2c-1.1,0-2.1-0.9-2.1-2.1v-8.9c0-1.1,0.9-2.1,2.1-2.1h59.9
		c1.1,0,2.1,0.9,2.1,2.1V109.4z"/>
</g>
<g>
	<path class="st0" d="M81.1,94.2c0.6,1,0.2,1.8-1,1.8H20.2c-1.1,0-1.6-0.8-1-1.8l2.7-4.3c0.6-1,2-1.8,3.2-1.8h50.2
		c1.1,0,2.6,0.8,3.2,1.8L81.1,94.2z"/>
</g>
<g>
	<path class="st0" d="M77.1,20.2c-0.4,1.1-1.6,2-2.7,2H25.9c-1.1,0-2.4-0.9-2.7-2L19.6,9.4c-0.4-1.1,0.3-2,1.4-2h58.2
		c1.1,0,1.8,0.9,1.4,2L77.1,20.2z"/>
</g>
<g>
	<rect x="10.9" y="19.9" class="st0" width="3.7" height="62"/>
	<path class="st0" d="M87.3,19.9L87.3,19.9l-14.8,4.8v0H29.4v0l-14.7-4.9v62L29.4,77v4.6c0,1.1,0.9,2.1,2.1,2.1h39.1
		c1.1,0,2.1-0.9,2.1-2.1V77l14.7,4.9H91v-62H87.3z M55.6,61.9h-9.2V39c0-1.2,1-2.2,2.2-2.2h4.8c1.2,0,2.2,1,2.2,2.2V61.9z
		 M67.8,70.3c0,1.2-0.6,2.3-1.6,3h-3.4c0.3-0.6,0.4-1.2,0.4-1.9v-4.8c0-2.6-2.1-4.7-4.7-4.7H58V39c0-2.6-2.1-4.7-4.7-4.7h-4.8
		c-2.6,0-4.7,2.1-4.7,4.7v22.9h-0.5c-2.6,0-4.7,2.1-4.7,4.7v4.8c0,0.7,0.2,1.3,0.4,1.9h-3.4c-1-0.6-1.6-1.7-1.6-3V32.7
		c0-1.9,1.6-3.5,3.5-3.5h26.5c1.9,0,3.5,1.6,3.5,3.5V70.3z"/>
</g>
</svg>
