<?xml version="1.0" encoding="utf-8"?>
<!-- Generator: Adobe Illustrator 25.2.3, SVG Export Plug-In . SVG Version: 6.00 Build 0)  -->
<svg version="1.1" id="Capa_1" xmlns="http://www.w3.org/2000/svg" xmlns:xlink="http://www.w3.org/1999/xlink" x="0px" y="0px"
	 viewBox="0 0 481.9 389" style="enable-background:new 0 0 481.9 389;" xml:space="preserve">
<style type="text/css">
	.st0{fill:#FFFFFF;}
</style>
<path class="st0" d="M227.9,0c7.4,1,14.8,1.8,22.1,3.1c30.8,5.4,57,19.5,78.9,41.7c23.8,24,37.3,53.1,41.6,86.5
	c2,15.4,1.3,31-2.1,46.1c-1.2,5.6-0.1,8.4,4.9,10.2c1.1,0.5,2.1,1.2,3,1.9L335.8,260c-0.7-0.1-1.1-0.1-1.3-0.3
	c-6.4-6.1-11.1-2.5-16.5,2.1c-21.2,18.2-47.3,29.7-75.1,33c-39.1,5-74.9-3.9-106.6-27.2c-34-25-53.9-58.7-59.3-100.6
	C67,89.9,118.2,19.3,194.3,3.5c8.4-1.8,17.1-2.4,25.6-3.5H227.9z M303.5,147.5c4.9-30.5-13.1-74.2-56.1-90.6
	c-42.1-16-89.6,2-110.4,42c-20.7,39.3-8.3,88.4,28.2,114c32.1,22.6,75.9,17.5,93.5,3.4l-74.2-42.8l40.9-71
	C251.6,117.6,277.4,132.5,303.5,147.5z M355.4,176c-6.9-3.9-13.3-7.6-20.3-11.7l-42.1,73l20.3,11.7
	C327.5,224.4,341.3,200.4,355.4,176z"/>
<path class="st0" d="M371.8,281.5l-13-7.6c13.6-23.6,27.1-47.1,40.9-71l13.1,7.5L371.8,281.5z"/>
<path class="st0" d="M443.6,228.1l3.7,2.3l-28.8,50.2c-3.4,5.9-6.7,11.9-10.3,17.6c-0.6,1-2.4,1.4-3.7,2c0-1.4-0.6-3.1,0-4.1
	C417.3,273.6,430.3,251.2,443.6,228.1z"/>
<path class="st0" d="M70.1,353.5l-14.8,23.1l6.5,3.4l0.1,1.1c-1.9,0.2-4,1-5.6,0.4c-14-4.4-28.4-2.1-42.6-2.9
	c-4.1-0.2-8.2-1.9-12.2-2.9c1.6-3.3,3.2-6.6,4.9-9.9c0.3-0.6,0.9-1,1.1-1.6c4.2-10.8,13-13.9,23.4-13.9c10.8,0,21.6,0.4,32.3,0.9
	C65.3,351.4,67.2,352.5,70.1,353.5z M29.3,369.3c2,0,3.1-0.3,3.8,0c11.3,6.5,16.6-0.2,21-9.3c0.2-0.3,0.4-0.5,0.5-0.8
	c2.6-4.1,2-5.3-2.7-5.4c-6.8-0.1-13.6-0.1-20.5,0c-3.6-0.2-6.9,1.8-8.6,5c-1.5,2.6-3.3,5-4.9,7.5s-3.1,5.1-5.3,8.9h23L29.3,369.3z"
	/>
<path class="st0" d="M111.9,351.3l-14.3,22.4l0.4,1.7c7.3,0.1,14.7,0.3,22,0.4c6.2,0.1,10.6-2.3,13.5-8.1c2.2-4.4,5.3-8.4,8-12.5
	c3.4-5.2,7.6-6.3,14-3.4c-5.4,8.4-10.5,17-16.5,24.8c-1.5,2-6.2,1.7-9.5,1.9c-3.7,0.2-7.4-0.2-11.2-0.2c-8.6,0.1-17.3,0.4-25.9,0.3
	c-2.5,0-4.9-1.5-8.2-2.6c5.6-8.5,10.2-16.5,15.8-23.8C102.7,348.8,107.4,349.9,111.9,351.3z"/>
<path class="st0" d="M167.3,377.6c5.3-8.3,10.4-16.9,16.2-24.9c2.9-3.9,7.6-2.8,12.7-1.4c-5.8,9.1-10.9,18-17.1,25.9
	c-1.8,2.2-7.2,1.5-10.9,2.2L167.3,377.6z"/>
<path class="st0" d="M265.7,352.7c-2.1,0.5-4.3,0.9-6.5,1.1c-6.3,0.2-12.7,0-19,0.1c-3.9,0-7,1.3-9.1,4.9c-2.9,5-6.2,9.7-10,15.6
	c12.1,3.1,23.6,0,36.5,0.4c-2.3,1.5-3.5,2.9-4.8,3c-12,0.5-23.9,0.7-35.9,0.9c-1.7-0.1-3.3-0.5-4.9-1.1c-2.4-0.9-3.6-2.2-1.9-4.9
	c3.7-5.5,7-11.3,10.9-16.6c1.5-2,3.7-3.3,6.1-3.7c12.2-0.9,24.5-1.4,36.8-1.9c0.6,0,1.1,0.5,1.7,0.8L265.7,352.7z"/>
<path class="st0" d="M274.2,378.1c5.9-9,11.2-17.8,17.2-26c1.1-1.5,5.4-2.3,7.3-1.4c5.7,2.7,11,0.3,16.5,0.1c6-0.2,11.9,0,17.8,0.7
	c5.5,0.7,5.4,1.9,3,6.7c-4,8.2-11.3,9.1-18.8,9.6c-6.6,0.4-13.3,0.5-20,0.1c-3.6-0.1-6.2,0.9-7.5,4.2
	C287.1,379.1,281.7,379.9,274.2,378.1z M295.8,364.3c7,0,13.6,0.3,20.2-0.1c5.5-0.3,8-3.4,9.1-10.4c-5,0-9.9,0-14.8,0
	C301.3,353.9,299.3,355.2,295.8,364.3z"/>
<path class="st0" d="M401.7,359.5c-4.1,6.3-7.4,12.4-11.8,17.4c-1.6,1.8-6,1.5-9.2,1.7s-6.5-0.5-9.7-0.5c-6.6,0.1-13.3,0.5-19.9,0.6
	c-1.8,0-3.6-0.5-5.3-1.2c-2.3-0.9-3.1-2.2-1.7-5c4.5-8.9,11-14,21.2-13.4c6,0.3,11.9,0.9,17.9,0.9c4.9,0,9.9-0.6,14.8-0.9
	C399.3,359.1,400.5,359.2,401.7,359.5z M386.1,363.7c-13.2-5.9-26.9-1-29.9,10.4C369,378,382.8,377.6,386.1,363.7L386.1,363.7z"/>
<path class="st0" d="M400.4,384.9c2.4-0.1,4.8-0.7,7.1-0.3c9,1.6,17.1-0.5,24.9-6.1l-12.2-18c7.6-3,10.2-2.3,14.2,3.6
	c2,3,4.1,6,6.2,9c0.2,0.3,0.5,0.4,1.3,1c6-3.1,12.3-6.5,18.6-9.6s12.2-7.8,20.9-4.3c-2,1.2-3.4,2-4.8,2.7
	c-13.4,6.8-26.9,13.2-40.1,20.4c-11.7,6.4-23.7,5-35.9,3.7L400.4,384.9z"/>
</svg>
