<?xml version="1.0" encoding="utf-8"?>
<!-- Generator: Adobe Illustrator 25.2.1, SVG Export Plug-In . SVG Version: 6.00 Build 0)  -->
<svg version="1.1" id="レイヤー_1" xmlns="http://www.w3.org/2000/svg" xmlns:xlink="http://www.w3.org/1999/xlink" x="0px"
	 y="0px" viewBox="0 0 24 24" style="enable-background:new 0 0 24 24;" xml:space="preserve">
<style type="text/css">
	.st0{fill:#FFFFFF;}
</style>
<path class="st0" d="M22,4H2C0.9,4,0,4.9,0,6v12c0,1.1,0.9,2,2,2h20c1.1,0,2-0.9,2-2V6C24,4.9,23.1,4,22,4z M9.4,15.3
	c0,0.9-0.8,1.7-1.7,1.7H5.3v-3.5c0,0,0.8,0.2,1.7,0.2c1.6,0,2.1-0.6,2.1-1.4v-1.9H7.7v1.9c0,0.5-0.3,0.8-0.9,0.8
	c-0.5,0-1-0.1-1.4-0.4V8.7C5.3,7.7,6.1,7,7,7h2.4C9.4,7,9.4,15.3,9.4,15.3z M14.1,15.3c0,0.9-0.8,1.7-1.7,1.7H10v-3.8
	c0.4,0.4,1.2,0.6,2.3,0.5c0.6,0,1.3-0.2,1.3-0.2v-0.7c-0.3,0.2-0.7,0.3-1.3,0.4c-0.9,0.1-1.4-0.4-1.4-1.1c0-0.8,0.5-1.2,1.4-1.1
	c0.5,0,0.9,0.2,1.3,0.4v-0.7c0,0-0.7-0.2-1.3-0.2c-1.2-0.1-1.9,0.2-2.3,0.5V8.7C10,7.7,10.7,7,11.6,7h2.4
	C14.1,7,14.1,15.3,14.1,15.3z M18.7,15.3c0,0.9-0.8,1.7-1.7,1.7h-2.4v-3.4h2.6c0.6,0,1.1-0.3,1.1-0.8c0-0.5-0.4-0.8-1-0.8v0
	c0.5-0.1,0.8-0.4,0.8-0.8c0-0.5-0.4-0.8-0.9-0.8l-0.2,0h-2.4V8.7c0-0.9,0.8-1.7,1.7-1.7h2.4C18.7,7,18.7,15.3,18.7,15.3z M16.3,12.2
	l0.1,0c0.2,0,0.3,0.2,0.3,0.4c0,0.2-0.2,0.4-0.3,0.4l-0.1,0h-1v-0.9L16.3,12.2L16.3,12.2z M15.4,11.7v-0.8h0.9l0.1,0
	c0.2,0,0.3,0.2,0.3,0.4s-0.2,0.4-0.3,0.4l-0.1,0C16.2,11.7,15.4,11.7,15.4,11.7z"/>
</svg>
