<?xml version="1.0" encoding="utf-8"?>
<!-- Generator: Adobe Illustrator 25.2.1, SVG Export Plug-In . SVG Version: 6.00 Build 0)  -->
<svg version="1.1" id="レイヤー_1" xmlns="http://www.w3.org/2000/svg" xmlns:xlink="http://www.w3.org/1999/xlink" x="0px"
	 y="0px" viewBox="0 0 24 24" style="enable-background:new 0 0 24 24;" xml:space="preserve">
<style type="text/css">
	.st0{fill:#FFFFFF;}
</style>
<path class="st0" d="M18.5,10.3l-1,1.1l-1-1.1h-3.2v3.3h3.1l1-1.1l1,1.1h1L18,12l1.5-1.7C19.5,10.3,18.5,10.3,18.5,10.3z M16.1,13
	h-2v-0.7h1.7v-0.7h-1.7V11h2l0.9,1L16.1,13z M7.4,10.2L7.4,10.2L7.4,10.2L7.4,10.2z M10.4,12.6l-1-2.3H8v3.1l-1.3-3.1H5.5l-1.4,3.3
	h0.9l0.3-0.7h1.7l0.3,0.7h1.6v-2.6l1.2,2.6h0.7l1.1-2.6l0,2.6h0.8v-3.3h-1.3C11.3,10.3,10.4,12.6,10.4,12.6z M5.5,12.2l0.5-1.3
	l0.5,1.3C6.6,12.2,5.5,12.2,5.5,12.2z M22,4H2C0.9,4,0,4.9,0,6v12c0,1.1,0.9,2,2,2h20c1.1,0,2-0.9,2-2V6C24,4.9,23.1,4,22,4z
	 M21,14.3h-2.9l-0.6-0.7l-0.7,0.7H6.7l-0.3-0.7H5.7l-0.3,0.7H3l2-4.6h4.8l0.5,1.2l0.5-1.2h6.1l0.6,0.7l0.7-0.7H21L19,12
	C19,12,21,14.3,21,14.3z"/>
</svg>
