<?xml version="1.0" encoding="utf-8"?>
<!-- Generator: Adobe Illustrator 25.2.1, SVG Export Plug-In . SVG Version: 6.00 Build 0)  -->
<svg version="1.1" id="レイヤー_1" xmlns="http://www.w3.org/2000/svg" xmlns:xlink="http://www.w3.org/1999/xlink" x="0px"
	 y="0px" viewBox="0 0 24 24" style="enable-background:new 0 0 24 24;" xml:space="preserve">
<style type="text/css">
	.st0{fill:#FFFFFF;}
</style>
<path class="st0" d="M22,3H2C0.9,3,0,3.9,0,5v14c0,1.1,0.9,2,2,2h20c1.1,0,2-0.9,2-2V5C24,3.9,23.1,3,22,3z M10.7,15.1H9.4
	c-0.1,0-0.2-0.1-0.2-0.2c0-0.4,0.2-1.6,1-6.6c0-0.2,0.2-0.3,0.3-0.3H13c1.3,0,2.3,0.8,2,2.1c-0.3,1.4-1.1,2.1-2.7,2.1l-0.8,0
	c-0.3,0-0.4,0.1-0.5,0.4L10.7,15.1z M15.8,11.8c-0.3,1.5-1.2,2-2.5,2h-0.2c-0.2,0-0.3,0.1-0.3,0.3l-0.3,1.7c0,0.2-0.2,0.3-0.3,0.3
	h-0.9c-0.1,0-0.2-0.1-0.2-0.2l0.5-3l0,0h0.7c1.7,0,2.8-0.9,3.2-2.5c0.3,0.3,0.4,0.6,0.4,1C15.8,11.4,15.8,11.6,15.8,11.8z"/>
</svg>
