<?xml version="1.0" encoding="utf-8"?>
<!-- Generator: Adobe Illustrator 25.2.1, SVG Export Plug-In . SVG Version: 6.00 Build 0)  -->
<svg version="1.1" id="レイヤー_1" xmlns="http://www.w3.org/2000/svg" xmlns:xlink="http://www.w3.org/1999/xlink" x="0px"
	 y="0px" viewBox="0 0 24 24" style="enable-background:new 0 0 24 24;" xml:space="preserve">
<style type="text/css">
	.st0{fill:#FFFFFF;}
</style>
<path class="st0" d="M15.5,16.4c0,0.2-0.1,0.3-0.3,0.3c-0.2,0-0.3-0.2-0.3-0.3s0.1-0.3,0.3-0.3C15.3,16.1,15.5,16.3,15.5,16.4z
	 M8.7,16.1c-0.2,0-0.3,0.2-0.3,0.3s0.1,0.3,0.3,0.3c0.2,0,0.3-0.1,0.3-0.3S8.8,16.1,8.7,16.1z M12,16.1c-0.2,0-0.3,0.1-0.3,0.3h0.5
	C12.3,16.2,12.2,16.1,12,16.1z M17.3,16.1c-0.2,0-0.3,0.2-0.3,0.3s0.1,0.3,0.3,0.3c0.2,0,0.3-0.1,0.3-0.3S17.5,16.1,17.3,16.1z
	 M24,6v12c0,1.1-0.9,2-2,2H2c-1.1,0-2-0.9-2-2V6c0-1.1,0.9-2,2-2h20C23.1,4,24,4.9,24,6z M5.5,11c0,2.2,1.8,4,4,4
	c0.8,0,1.5-0.2,2.1-0.6c-1-0.8-1.6-2-1.6-3.4s0.6-2.6,1.6-3.4C11,7.2,10.3,7,9.5,7C7.3,7,5.5,8.8,5.5,11z M7.9,16.3
	c0-0.2-0.2-0.4-0.4-0.4c-0.1,0-0.3,0-0.4,0.2C7,16,6.9,15.9,6.8,15.9c-0.1,0-0.2,0-0.3,0.2v-0.1H6.2V17h0.2v-0.6
	c0-0.2,0.1-0.3,0.3-0.3c0.2,0,0.2,0.1,0.2,0.3V17h0.2v-0.6c0-0.2,0.1-0.3,0.3-0.3c0.2,0,0.2,0.1,0.2,0.3V17h0.2
	C7.9,17,7.9,16.3,7.9,16.3z M9.2,15.9H9V16c-0.1-0.1-0.2-0.2-0.3-0.2c-0.3,0-0.5,0.2-0.5,0.6c0,0.3,0.2,0.6,0.5,0.6
	c0.2,0,0.3-0.1,0.3-0.2V17h0.2V15.9z M10.4,16.7c0-0.2-0.1-0.3-0.4-0.3l-0.1,0c-0.1,0-0.2,0-0.2-0.1c0-0.1,0.1-0.1,0.2-0.1
	c0.1,0,0.3,0.1,0.3,0.1l0.1-0.2c-0.1-0.1-0.3-0.1-0.4-0.1c-0.3,0-0.4,0.1-0.4,0.3c0,0.2,0.1,0.3,0.4,0.3l0.1,0
	c0.1,0,0.2,0.1,0.2,0.1c0,0.1-0.1,0.1-0.2,0.1c-0.2,0-0.3-0.1-0.4-0.1l-0.1,0.2C9.5,17,9.7,17,9.9,17C10.2,17,10.4,16.9,10.4,16.7z
	 M11.4,16.9l-0.1-0.2c-0.1,0-0.1,0.1-0.2,0.1c-0.1,0-0.2-0.1-0.2-0.2v-0.5h0.4v-0.2H11v-0.3h-0.2v0.3h-0.2v0.2h0.2v0.5
	c0,0.2,0.1,0.4,0.4,0.4C11.2,17,11.3,17,11.4,16.9z M12.5,16.4c0-0.3-0.2-0.6-0.5-0.6c-0.3,0-0.5,0.2-0.5,0.6c0,0.3,0.2,0.6,0.5,0.6
	c0.2,0,0.3,0,0.4-0.1l-0.1-0.2c-0.1,0.1-0.2,0.1-0.3,0.1c-0.1,0-0.3-0.1-0.3-0.3L12.5,16.4C12.5,16.5,12.5,16.4,12.5,16.4z
	 M13.5,15.9l-0.2,0c-0.1,0-0.2,0.1-0.3,0.2v-0.1h-0.2V17H13v-0.6c0-0.2,0.1-0.3,0.2-0.3l0.1,0C13.4,16.1,13.5,15.9,13.5,15.9z
	 M13.8,16.4c0-0.2,0.1-0.3,0.3-0.3c0.1,0,0.2,0,0.3,0.1l0.1-0.2c-0.1-0.1-0.2-0.1-0.4-0.1c-0.3,0-0.6,0.2-0.6,0.6s0.2,0.6,0.6,0.6
	c0.2,0,0.3,0,0.4-0.1l-0.1-0.2c-0.1,0.1-0.2,0.1-0.3,0.1C13.9,16.8,13.8,16.6,13.8,16.4z M15.7,15.9h-0.2V16
	c-0.1-0.1-0.2-0.2-0.3-0.2c-0.3,0-0.5,0.2-0.5,0.6c0,0.3,0.2,0.6,0.5,0.6c0.2,0,0.3-0.1,0.3-0.2V17h0.2V15.9z M16.7,15.9l-0.2,0
	c-0.1,0-0.2,0.1-0.3,0.2v-0.1H16V17h0.2v-0.6c0-0.2,0.1-0.3,0.2-0.3l0.1,0C16.6,16.1,16.7,15.9,16.7,15.9z M17.8,15.5h-0.2V16
	c-0.1-0.1-0.2-0.2-0.3-0.2c-0.3,0-0.5,0.2-0.5,0.6c0,0.3,0.2,0.6,0.5,0.6c0.2,0,0.3-0.1,0.3-0.2V17h0.2V15.5z M18.5,11
	c0-2.2-1.8-4-4-4s-4,1.8-4,4s1.8,4,4,4S18.5,13.2,18.5,11z"/>
</svg>
