<?xml version="1.0" encoding="utf-8"?>
<!-- Generator: Adobe Illustrator 25.2.3, SVG Export Plug-In . SVG Version: 6.00 Build 0)  -->
<svg version="1.1" id="Capa_1" xmlns="http://www.w3.org/2000/svg" xmlns:xlink="http://www.w3.org/1999/xlink" x="0px" y="0px"
	 viewBox="0 0 370.2 370.2" style="enable-background:new 0 0 370.2 370.2;" xml:space="preserve">
<style type="text/css">
	.st0{fill:#FFFFFF;}
</style>
<path class="st0" d="M0,51.3v-3.6c0.3-1,0.6-2,0.8-3.1c2.9-18,12.5-31.3,28.9-39.2C35,2.8,41.2,1.8,47,0h276.2
	c0.6,0.3,1.3,0.6,2,0.7c18.9,3,32.5,13.2,40.3,30.5c2.2,4.9,3.2,10.5,4.7,15.7v276.2c-0.3,0.6-0.6,1.3-0.7,2
	c-3,18.9-13.2,32.5-30.5,40.3c-4.9,2.2-10.5,3.2-15.7,4.7H94c5.4-22.4,10.9-44.9,16.3-67.3c0.5-1.9,0.7-3.3,3.4-3.6
	c15.1-1.5,30.2-2.9,45.2-5c29.8-4.1,58.8-11.2,86.3-23.8c19.6-9,37.4-20.7,49.9-38.7c14.3-20.6,18.8-43.2,12.5-67.7
	c-5.1-19.8-17.5-34.9-32.8-47.7C252.3,97.7,226.4,85,199,75.3c-41.3-14.6-84.3-20.2-127.8-22.5C47.5,51.6,23.7,51.8,0,51.3z"/>
<path class="st0" d="M0,115c31.5-2.6,63-4.3,94.6-3.4c12.1,0.3,24.2,1.8,36.3,2.8c1.3,0.2,2.6,0.5,3.9,0.9
	c-21.1,85.1-42.2,170-63.3,254.9H47c-0.8-0.3-1.5-0.6-2.3-0.8c-20.2-3.5-33.9-14.7-41.3-33.8c-1.5-4-2.2-8.3-3.3-12.4L0,115z"/>
<path class="st0" d="M122.4,253.4c3.6-14.8,7.2-29.6,10.7-44.4c7.2-29.5,14.4-59.1,21.4-88.7c0.7-2.9,2-3.4,4.5-3
	c33.1,4.7,65.4,12.3,95.8,26.8c12.1,5.8,23.5,12.9,32,23.6c12.4,15.6,11.3,31.9-2.3,46.5c-9.7,10.4-22.1,16.4-35.1,21.5
	c-37.7,14.8-76.9,20-117.1,18.6c-3-0.1-6-0.4-9-0.6C123,253.6,122.7,253.5,122.4,253.4z"/>
</svg>
