<?xml version="1.0" encoding="utf-8"?>
<!-- Generator: Adobe Illustrator 25.2.1, SVG Export Plug-In . SVG Version: 6.00 Build 0)  -->
<svg version="1.1" id="レイヤー_1" xmlns="http://www.w3.org/2000/svg" xmlns:xlink="http://www.w3.org/1999/xlink" x="0px"
	 y="0px" viewBox="0 0 24 24" style="enable-background:new 0 0 24 24;" xml:space="preserve">
<style type="text/css">
	.st0{fill:#FFFFFF;}
</style>
<path class="st0" d="M19.7,11.2l0.4,1.7h-1.3l0.6-1.7l0.2-0.6C19.6,10.6,19.7,11.2,19.7,11.2z M24,5v14c0,1.1-0.9,2-2,2H2
	c-1.1,0-2-0.9-2-2V5c0-1.1,0.9-2,2-2h20C23.1,3,24,3.9,24,5z M6.9,15L9.4,9H7.7l-1.6,4.1l-0.2-0.8L5.4,9.5C5.3,9.2,5,9.1,4.6,9H2
	l0,0.1c0.6,0.2,1.2,0.4,1.7,0.7L5.1,15C5.1,15,6.9,15,6.9,15z M11.7,9h-1.6L9,15h1.6C10.7,15,11.7,9,11.7,9z M16.3,13
	c0-0.7-0.4-1.2-1.4-1.6C14.4,11.1,14,11,14,10.7c0-0.2,0.3-0.5,0.9-0.5c0.5,0,0.9,0.1,1.2,0.2l0.1,0.1l0.2-1.3
	c-0.3-0.1-0.8-0.2-1.5-0.2c-1.6,0-2.7,0.8-2.7,2c0,0.9,0.8,1.3,1.4,1.6c0.6,0.3,0.8,0.5,0.8,0.7c0,0.4-0.5,0.6-1,0.6
	c-0.6,0-1-0.1-1.5-0.3l-0.2-0.1l-0.2,1.3c0.4,0.2,1.1,0.3,1.8,0.3C15.2,15.1,16.3,14.3,16.3,13z M22,15L20.7,9h-1.3
	c-0.4,0-0.7,0.1-0.8,0.5L16.2,15h1.7l0.3-0.9l2.1,0l0.2,0.9C20.5,15,22,15,22,15z"/>
</svg>
