<?xml version="1.0" encoding="utf-8"?>
<!-- Generator: Adobe Illustrator 25.2.3, SVG Export Plug-In . SVG Version: 6.00 Build 0)  -->
<svg version="1.1" id="Capa_1" xmlns="http://www.w3.org/2000/svg" xmlns:xlink="http://www.w3.org/1999/xlink" x="0px" y="0px"
	 viewBox="0 0 402.6 151.3" style="enable-background:new 0 0 402.6 151.3;" xml:space="preserve">
<style type="text/css">
	.st0{fill:#FFFFFF;}
</style>
<path class="st0" d="M116.8,121.4h-1.7c-8.5,0-17.1,0-25.6,0c-0.9,0-1.8-0.4-2.3-1.2c-8.8-11.8-17.6-23.5-26.5-35.3
	c-0.5-0.8-1.3-1.2-2.2-1.2c-4.5,0.1-8.9,0.1-13.4,0c-1.4,0-1.6,0.5-1.6,1.7c0,11.3,0,22.5,0,33.8v2.1h-23V0.4c0.5,0,0.9-0.1,1.3-0.1
	c12.6,0,25.1-0.1,37.6,0c20.5,0.3,37.7,15.5,40.5,35.8c2,15.8-3.4,28.8-15.8,38.9c-0.4,0.3-0.8,0.7-1.3,1.1l16.9,22.5L116.8,121.4z
	 M43.6,60.7c2.1,0,4.1,0,6.1,0c4-0.1,8.1,0.2,12.1-0.3c9.5-1.3,16.1-9.8,15.6-19.8c-0.4-8.9-8.2-16.8-17.3-17.3
	c-5.2-0.3-10.5-0.1-15.7-0.1c-0.2,0-0.5,0.1-0.7,0.2V60.7z"/>
<path class="st0" d="M301.8,37.5l1.8-8.2h11.7v92h-11.6c-0.7-3.2-1.4-6.4-2.1-9.9c-0.5,0.5-0.9,0.9-1.3,1.3
	c-6.4,7.4-15.8,11.4-25.5,11c-17.4-0.3-30.9-11-36.4-27.1c-5.6-16.4-5.4-32.7,2.6-48.3c7.2-14,19.1-21,34.9-21.2
	c9.7-0.1,18.1,3,24.9,10c0.1,0.2,0.3,0.3,0.5,0.4C301.4,37.4,301.5,37.4,301.8,37.5z M302.6,74.8c-0.1-1.4-0.2-3.4-0.4-5.4
	c-0.8-7.3-3-14.2-7.5-20.2c-6.7-8.9-17.6-12.3-27.3-8.4c-7.5,3-12.1,8.8-15.1,16c-3.3,8-4.4,16.7-3.2,25.2c0.7,6.7,3,13.1,6.8,18.7
	c10.2,14.4,29.2,14.5,39.4,0.1C300.7,93.2,302.4,84.5,302.6,74.8z"/>
<path class="st0" d="M155.8,6.3c0.4,0,0.7-0.1,0.9-0.1c13.4,0,26.8-0.4,40.1,0.2c17.9,0.8,30.4,13.3,32.1,29.9
	c1,10.2-1.1,19.6-8,27.5c-5.2,6-12.4,9.9-20.2,10.9c-2.9,0.4-5.8,0.6-8.8,0.6c-7.1,0.1-14.2,0-21.2,0h-1.9v45.9h-13.1V6.3z
	 M169,18.5v44.6c0.2,0.1,0.4,0.1,0.6,0.1c8.3,0,16.7,0.1,25-0.1c5.4-0.1,10.6-2.3,14.3-6.2c4.9-5,6.5-11.2,6.2-18.1
	c-0.4-10.3-8.2-18.7-18.4-19.9c-4.4-0.5-8.8-0.3-13.2-0.3C178.8,18.5,174,18.5,169,18.5z"/>
<path class="st0" d="M331.6,139.4l6-9.3c0.8,0.6,1.4,1.1,2.1,1.5c2.9,2,6.5,2.7,9.9,1.9c2.1-0.3,4-1.6,5-3.6c1.7-3.4,3-7,4.5-10.5
	c0.1-0.6,0-1.1-0.3-1.7c-10.1-28.5-20.3-56.9-30.4-85.4c-0.4-1-0.7-2-1.1-3.3h7.2c1.6,0,3.1,0.1,4.7,0c1.3-0.1,1.8,0.4,2.2,1.6
	c4,11.8,8,23.6,12,35.3l11.4,33.2c0.1,0.3,0.3,0.7,0.5,1.4c0.3-0.8,0.5-1.4,0.7-1.9c7.3-22.7,14.7-45.3,22-68c0.4-1.1,0.8-1.6,2-1.5
	c4,0.1,8,0,12.1,0l-2.5,7.7c-10.2,30.8-20.3,61.6-30.5,92.4c-1.9,5.8-5,10.7-10.4,13.9C350.6,148.2,338.1,146.5,331.6,139.4z"/>
<path class="st0" d="M0.5,134.3h139.1v0.2l-9.6,1.4c-9.5,1.3-18.9,2.7-28.4,4L71.5,144l-33.1,4.6c-5.4,0.8-10.9,1.5-16.3,2.3
	c-1,0.2-2.1-0.1-2.8-0.9C13.1,144.9,7,139.8,0.5,134.3z"/>
</svg>
