<?xml version="1.0" encoding="utf-8"?>
<!-- Generator: Adobe Illustrator 25.2.1, SVG Export Plug-In . SVG Version: 6.00 Build 0)  -->
<svg version="1.1" id="レイヤー_1" xmlns="http://www.w3.org/2000/svg" xmlns:xlink="http://www.w3.org/1999/xlink" x="0px"
	 y="0px" viewBox="0 0 24 24" style="enable-background:new 0 0 24 24;" xml:space="preserve">
<style type="text/css">
	.st0{fill:#FFFFFF;}
</style>
<path class="st0" d="M11.3,7.4c-2.5,0-4.6,2-4.6,4.6c0,2.5,2,4.6,4.6,4.6c2.5,0,4.6-2,4.6-4.6C15.8,9.5,13.8,7.4,11.3,7.4z
	 M10.2,14.7c-1.1-0.4-1.9-1.5-1.9-2.7c0-1.2,0.8-2.3,1.9-2.7V14.7z M12.3,14.7V9.3c1.1,0.4,1.9,1.5,1.9,2.7
	C14.2,13.2,13.4,14.3,12.3,14.7z M22,4H2C0.9,4,0,4.9,0,6v12c0,1.1,0.9,2,2,2h20c1.1,0,2-0.9,2-2V6C24,4.9,23.1,4,22,4z M12.6,17
	h-1.3c-2.8,0-5-2.2-5-5c0-3,2.3-5,5-5h1.3c2.7,0,5.2,2.1,5.2,5C17.8,14.8,15.3,17,12.6,17z"/>
</svg>
