<?xml version="1.0" encoding="utf-8"?>
<!-- Generator: Adobe Illustrator 25.2.3, SVG Export Plug-In . SVG Version: 6.00 Build 0)  -->
<svg version="1.1" id="レイヤー_1" xmlns="http://www.w3.org/2000/svg" xmlns:xlink="http://www.w3.org/1999/xlink" x="0px"
	 y="0px" viewBox="0 0 339.3 292" style="enable-background:new 0 0 339.3 292;" xml:space="preserve">
<style type="text/css">
	.st0{fill:#459FD2;}
	.st1{fill:#FFFFFF;}
	.st2{fill:#2675A4;}
	.st3{fill:#231815;}
	.st4{fill:#C99870;}
	.st5{fill:#F4C6A9;}
	.st6{fill:none;stroke:#231815;stroke-width:3.9846;stroke-linecap:round;stroke-linejoin:round;stroke-miterlimit:10;}
	.st7{fill:none;stroke:#040000;stroke-linecap:round;stroke-linejoin:round;stroke-miterlimit:10;}
	.st8{fill:#1F6C94;stroke:#231815;stroke-miterlimit:10;}
	.st9{fill:#2675A4;stroke:#231815;stroke-miterlimit:10;}
	.st10{fill:none;stroke:#231815;stroke-linecap:round;stroke-linejoin:round;stroke-miterlimit:10;}
	.st11{fill:#FFFFFF;stroke:#0D0C0C;stroke-linecap:round;stroke-linejoin:round;}
	.st12{fill:none;stroke:#0D0C0C;stroke-linecap:round;stroke-linejoin:round;}
	.st13{font-family:'ArialMT';}
	.st14{font-size:12px;}
	.st15{font-family:'EuphemiaUCAS';}
	.st16{font-size:11px;}
	.st17{letter-spacing:99;}
	.st18{fill:#FFFFFF;stroke:#FFFFFF;stroke-width:3;stroke-linecap:round;stroke-linejoin:round;stroke-miterlimit:10.0002;}
	.st19{fill:#FFFFFF;stroke:#FFFFFF;stroke-width:3;stroke-linecap:round;stroke-linejoin:round;stroke-miterlimit:10;}
	.st20{fill:#E8F5FC;}
	.st21{fill:#CDEAFA;}
</style>
<g>
	<path class="st0" d="M130.5,113.4l-1.6-4.3c0,0,6.1-0.8,7.2-3.2s2.3-13,1.9-15.2c-0.4-2.2,1-8-5.4-7.4c-1-2.1-4.5-2-4.5-2
		s-4.7-3.5-8.3,0.7c-3.5-0.7-6.2,0.7-5.8,5.9c-1.8,1.4-4.6,8.4-1.4,14c0.4,3.4,2.5,5.6,6.9,5.5c-0.1,3.2,1.5,10.3,1.5,10.3h9.2
		L130.5,113.4z"/>
	<path class="st1" d="M63.5,145.1l-10.7-11.8l1.6-2.7l0.1-5.7c0,0-13.5-5-19.3-13.6c-6-4.4-9.6-7.6-10.3-8.5c-0.7-0.9-2.7-7.5,0-9
		c2.6-1.5,3.6-1.7,5.4-0.8c1.2-6.5,2.7-19.4,5.2-22.4C37.9,67.5,53.3,60,53.3,60l31.8,9.6l17,19.8l-0.7,4.5c0,0,7.5,2,0,8.9
		c-3.1-0.4-3.1,0.6-3.1,0.6s-3.9,20.6-25.6,23.5c-1.8,2-1.3,0-1.3,0l-0.5,2l-0.9,5.4l3.7,1.3L63.5,145.1z"/>
	<path class="st2" d="M133,113.6c0,0-15.1,0.2-15.1,1.4c0,1.2,0.4,6.2,0.3,8.9s0,6.9,0,6.9s-5.8-0.6-8.1,0.1
		c-2.3,0.7-7.9-0.6-9.5-0.5s-18,0.3-18.1,1.1c-0.4,1.9-10,2.7-10,2.7l-1.7,0.9l-7.6,3.2l-13.4-5c0,0-5.5,4.1-8.5,4.7
		c-2.9,0.7-16.7,5.7-19.4,8.7s-5.1,10.5-9.8,31c0.2,4.4-2.3,13.7-2.3,13.7l19.7,0.7l72.9-0.4l0.6-40.3c0,0,15.3-0.7,20.2-0.4
		c4.9,0.3,11.6-4.7,12.1-6.2s1.5-13,1.2-15.7C136.3,126.4,134.2,113.5,133,113.6z"/>
	<path class="st3" d="M18.2,43.4c-4.5-0.4-7.9-4.8-7.9-10.1c0-0.2-0.2-0.4-0.5-0.4c-0.2,0-0.5,0.2-0.5,0.4c0.5,6.8-3.4,9.5-7.8,10
		c-0.2,0-0.4,0.2-0.4,0.4s0.2,0.4,0.4,0.4c4,0.3,7.2,3.7,7.9,8.2c0,0.2,0.2,0.4,0.4,0.4s0.4-0.2,0.4-0.4c0.7-4.5,3.8-8.7,7.8-8.2
		c0.2,0,0.4-0.2,0.4-0.4C18.6,43.7,18.4,43.5,18.2,43.4z"/>
	<path class="st3" d="M106.5,28.6c-4.5-0.4-7.9-4.8-7.9-10.1c0-0.2-0.2-0.4-0.5-0.4c-0.2,0-0.5,0.2-0.5,0.4c0.5,6.8-3.4,9.5-7.8,10
		c-0.2,0-0.4,0.2-0.4,0.4c0,0.2,0.2,0.4,0.4,0.4c4,0.3,7.2,3.7,7.9,8.2c0,0.2,0.2,0.4,0.4,0.4s0.4-0.2,0.4-0.4
		c0.7-4.5,3.8-8.7,7.8-8.2c0.2,0,0.4-0.2,0.4-0.4C106.9,28.8,106.8,28.6,106.5,28.6z"/>
	<path class="st3" d="M106.1,9.6c-2.1-0.2-3.8-2.3-3.8-4.8c0-0.1-0.1-0.2-0.2-0.2s-0.2,0.1-0.2,0.2c0.2,3.2-1.6,4.5-3.7,4.7
		c-0.1,0-0.2,0.1-0.2,0.2c0,0.1,0.1,0.2,0.2,0.2c1.9,0.1,3.4,1.7,3.8,3.9c0,0.1,0.1,0.2,0.2,0.2s0.2-0.1,0.2-0.2
		c0.3-2.1,1.8-4.1,3.7-3.9c0.1,0,0.2-0.1,0.2-0.2C106.3,9.7,106.2,9.6,106.1,9.6z"/>
	<g>
		<g>
			<path class="st3" d="M77.6,107.7c0,0.1,0,0.1,0.1,0.2v0.1c0.1,0.2,0.1,0.4,0.1,0.6s0,0.4,0,0.6s0,0.4,0,0.6
				c-0.1,0.8-0.3,1.5-0.6,2.2c-0.6,1.4-1.6,2.5-2.8,3.5c-1.2,0.9-2.4,1.7-3.8,2.2s-2.8,0.8-4.3,0.8c-1.4,0-2.9-0.1-4.3-0.5
				c-1.4-0.4-2.7-1.2-3.8-2.2c-1.1-1.1-1.8-2.4-2.2-3.8s-0.6-2.9-0.5-4.3c0-0.1,0.1-0.3,0.3-0.2l0,0c1.8,0,3.6,0,5.4,0
				c1.8,0,3.6-0.1,5.5-0.1c1.8,0,3.7-0.1,5.5-0.1s3.8-0.1,5.2,0.3C77.5,107.5,77.6,107.6,77.6,107.7z M71.7,108
				c-1.8,0-3.5,0-5.3-0.1c-1.8,0-3.5-0.1-5.3-0.1s-3.6,0-5.3,0l0.3-0.2c0,1.4,0.2,2.8,0.6,4.1c0.4,1.3,1.1,2.5,2.1,3.5
				c0.9,1,2.2,1.7,3.5,2.1s2.7,0.6,4.1,0.6c0.7,0,1.4,0,2.1-0.2c0.7-0.1,1.4-0.3,2-0.6c1.3-0.5,2.5-1.3,3.4-2.3s1.7-2.1,2.3-3.3
				c0.3-0.6,0.5-1.2,0.7-1.9c0.1-0.3,0.2-0.6,0.2-1c0-0.2,0.1-0.3,0.1-0.5V108v-0.1c0-0.1,0-0.1,0.1-0.2
				C75.2,108.1,73.5,108,71.7,108z"/>
		</g>
	</g>
	<path class="st4" d="M23.1,94.5c-0.1,0.1-0.2,0-0.3,0c-0.1,0-0.1,0-0.3,0c-0.1,0-0.1,0-0.3,0c-0.1,0-0.1,0.1-0.3,0.1
		c-0.1,0-0.1,0.1-0.2,0.2c0,0.1-0.1,0.1-0.1,0.2s0.2,0.1,0.2,0.2s0.2,0.1,0.2,0.2s0.1,0.2,0.1,0.3c0.1,0.1,0.1,0.2,0.1,0.3
		c0.1,0.2-0.1,0.2,0,0.4c0.1,0.1,0.1,0.1,0.2,0.3c0.1,0.2,0.3,0.1,0.3,0.2c0.1,0.2-0.1,0.3,0,0.4s0-0.2,0-0.4c0-0.1,0.1-0.2,0.1-0.3
		c0-0.1,0.2-0.1,0.2-0.2s0.2-0.1,0.3-0.2c0-0.1,0.1-0.2,0.1-0.3c0-0.1,0.1-0.2,0.1-0.3c0-0.1,0.1-0.2,0.1-0.3c0-0.1,0-0.2,0.1-0.3
		c0-0.1,0.1-0.1,0.2-0.2c0-0.1-0.1-0.3-0.1-0.4c0.1-0.1,0.3,0,0.3-0.1c0.1-0.1-0.1-0.3,0-0.4s0.1-0.1,0.2-0.2s0.3,0.1,0.4,0
		s0.1-0.2,0.1-0.3c0.1-0.1,0.1-0.2,0.2-0.2c0.1-0.1,0.2-0.1,0.3-0.1c0.1,0,0.2,0,0.3,0c0.1,0,0.1-0.3,0.2-0.3s0.2,0,0.3,0
		c0.1,0,0.2,0.1,0.3,0c0.1,0,0.2,0,0.3-0.1c0.1,0,0.2-0.1,0.3-0.1c0.1,0,0.2,0.1,0.3,0.1c0.1,0,0.2-0.3,0.3-0.3
		c0.1,0,0.2,0.1,0.3,0.1c0.1,0,0.2,0.2,0.3,0.2c0.1,0,0.2-0.3,0.3-0.3c0.1,0,0.2,0,0.3,0c0.1,0,0.2,0.1,0.3,0.1
		c0.1,0,0.1,0.2,0.2,0.3c0.1,0,0.2-0.1,0.3,0c0.1,0.1,0.1,0.2,0.2,0.2c0.1,0.1,0.2,0,0.3,0.1c0.2,0.1,0.2,0.4,0.3,0.3
		c0.1-0.1-0.1-0.2-0.1-0.3c0-0.1,0-0.1,0-0.3c0-0.1,0.1-0.1,0.2-0.3c0-0.1,0.1-0.1,0.1-0.3c0-0.1-0.1-0.2-0.1-0.3
		c0-0.1,0.1-0.1,0.1-0.3c0-0.1-0.2-0.2-0.2-0.3c0-0.1,0.4-0.1,0.4-0.2s-0.3-0.2-0.3-0.3c0-0.1,0.2-0.1,0.2-0.3
		c0-0.1,0.1-0.1,0.1-0.3c0-0.1-0.2-0.2-0.2-0.3c0-0.1,0.3-0.1,0.3-0.2s-0.2-0.2-0.2-0.3c0-0.1,0.2-0.1,0.2-0.3c0-0.1-0.1-0.1,0-0.3
		c0-0.1,0.1-0.1,0.1-0.3c0-0.1-0.1-0.1,0-0.3c0-0.1-0.1-0.2-0.1-0.3s0.2-0.1,0.2-0.3c0-0.1-0.1-0.1-0.1-0.3c0-0.1,0.1-0.2,0.1-0.3
		c0-0.1-0.1-0.2-0.1-0.3c0-0.1,0-0.2,0-0.3c0-0.1,0.3-0.2,0.3-0.3c0-0.1,0-0.2,0-0.3c0-0.1,0.1-0.2,0.1-0.3c0-0.1,0-0.2,0-0.3
		c0-0.1,0-0.2,0-0.3c0-0.1,0.1-0.2,0.1-0.3c0-0.1-0.1-0.2-0.1-0.3c0-0.1,0.1-0.2,0.1-0.3c0-0.1,0-0.2,0-0.3c0-0.1,0.1-0.2,0.1-0.3
		c0-0.1,0-0.2,0-0.3c0-0.1,0.1-0.2,0.1-0.3c0-0.1-0.1-0.2-0.1-0.3c0-0.1,0-0.2,0-0.3c0-0.1,0.4-0.1,0.4-0.2s-0.1-0.2-0.1-0.3
		c0-0.1-0.1-0.2-0.1-0.3c0-0.1,0.1-0.2,0.1-0.3c0-0.1,0-0.2,0-0.3c0-0.1,0.3-0.1,0.3-0.2s-0.2-0.2-0.1-0.3c0-0.1,0-0.2,0-0.3
		c0-0.1,0-0.2,0-0.3c0-0.1,0.2-0.2,0.2-0.2c0-0.1,0-0.2,0-0.3c0-0.1,0.2-0.2,0.2-0.2c0-0.1-0.2-0.2-0.1-0.3c0-0.1,0.2-0.2,0.2-0.3
		c0-0.1,0-0.2,0-0.3c0-0.1,0.1-0.2,0.1-0.3c0-0.2-0.1-0.2-0.1-0.3c0-0.1,0.1-0.1,0.1-0.3c0-0.1-0.1-0.2-0.1-0.3
		c0-0.1,0.1-0.1,0.2-0.2c0-0.1,0.2-0.1,0.3-0.2c0-0.1,0-0.2,0.1-0.3c0-0.1,0.1-0.2,0.1-0.3c0-0.1-0.2-0.3-0.2-0.4s0.3-0.1,0.4-0.2
		c0-0.1,0.1-0.2,0.1-0.3c0-0.1-0.2-0.3-0.2-0.4s0.4-0.1,0.4-0.2s-0.3-0.3-0.2-0.4c0-0.1,0.4-0.1,0.4-0.2s0-0.2,0-0.3
		c0-0.1,0.1-0.2,0.1-0.3c0-0.1-0.1-0.2,0-0.3c0-0.1,0-0.2,0-0.3c0-0.1,0.1-0.2,0.1-0.3c0-0.1,0-0.2,0.1-0.3c0-0.1,0.1-0.2,0.1-0.3
		c0-0.1,0.3-0.1,0.3-0.2s0.1-0.2,0.2-0.2c0-0.1,0-0.2,0-0.3c0-0.1-0.2-0.3-0.1-0.4c0-0.1,0.2-0.1,0.2-0.2s0-0.2,0.1-0.3
		c0-0.1,0.1-0.2,0.1-0.3c0-0.1,0-0.2,0-0.3c0-0.1,0.3-0.1,0.3-0.2s-0.1-0.3-0.1-0.4s0-0.2,0.1-0.3c0-0.1,0.3-0.1,0.4-0.1
		c0-0.1,0-0.2,0-0.3c0-0.1,0.1-0.2,0.2-0.2c0-0.1,0-0.2,0.1-0.3c0-0.1,0.2-0.1,0.2-0.2s0.1-0.2,0.2-0.2c0-0.1,0.2-0.1,0.2-0.2
		s0.1-0.2,0.1-0.3c0-0.1-0.1-0.3,0-0.3c0-0.1,0.2-0.1,0.2-0.2s0.2-0.1,0.2-0.2s-0.1-0.3,0-0.4c0-0.1,0.1-0.2,0.1-0.3
		c0-0.1,0.2-0.1,0.2-0.2s0-0.2,0.1-0.3c0-0.1,0.1-0.2,0.1-0.2c0-0.1,0.1-0.2,0.1-0.3c0-0.1,0.2-0.1,0.3-0.2c0-0.1,0.1-0.1,0.2-0.2
		c0-0.1-0.1-0.3-0.1-0.4c0-0.1,0.4,0,0.4-0.1s0.1-0.2,0.1-0.3s0-0.2,0.1-0.3c0-0.1,0.1-0.1,0.2-0.2c0-0.1,0-0.2,0.1-0.3
		c0-0.1,0.1-0.2,0.1-0.2c0.1-0.1-0.1-0.3,0-0.3c0.1-0.1,0.1-0.2,0.2-0.2c0.1-0.2,0.1-0.1,0.2-0.2c0.1-0.1,0.2,0,0.3-0.1
		s0.1-0.1,0.2-0.2c0.1-0.1,0-0.2,0.1-0.3s0-0.2,0.1-0.3s0.1-0.1,0.2-0.2c0.1-0.1,0.1-0.1,0.2-0.2c0.1-0.1,0.1-0.1,0.2-0.2
		c0.1-0.1,0.1-0.1,0.2-0.2c0.1-0.1,0-0.2,0.1-0.3s0.2,0,0.3-0.1s0.1-0.1,0.2-0.3c0.1-0.1,0.2,0,0.3-0.1s-0.2-0.3-0.1-0.4
		c0.1-0.1,0.3,0.1,0.4,0c0.1-0.1,0-0.2,0.1-0.3s0-0.2,0.1-0.3s0.3,0.1,0.4,0c0.1-0.1,0-0.2,0.1-0.3s0.2,0,0.3-0.1s-0.1-0.3,0-0.4
		c0.1-0.1,0.2,0,0.3-0.1s0-0.2,0.1-0.3s0.1-0.1,0.2-0.2c0.1-0.1,0.2,0,0.3-0.1s0.1-0.1,0.2-0.2c0.1-0.1-0.1-0.3,0-0.4
		c0.1-0.1,0.3,0.1,0.4,0c0.1-0.1,0-0.2,0.1-0.3s0.1,0,0.3-0.1c0.1-0.1,0.2,0,0.3-0.1s0.1,0,0.3-0.1c0.1-0.1,0.1-0.1,0.2-0.2
		c0.1-0.1,0.1-0.2,0.2-0.2c0.1-0.1,0.1-0.1,0.2-0.2c0.1-0.1,0.1-0.2,0.2-0.3c0.1-0.1,0.2,0.1,0.3,0s0.1-0.1,0.2-0.2
		c0.1-0.1,0.1-0.1,0.2-0.2c0.1-0.1,0.2,0,0.3,0c0.1-0.1,0.1,0,0.2-0.1c0.1-0.1,0.1-0.2,0.2-0.2c0.2,0,0.2,0,0.3,0
		c0.2,0,0.2,0,0.3-0.1c0.2,0,0.2,0,0.3,0c0.2,0,0.2-0.2,0.3-0.2s0.1,0.2,0.2,0.4c0,0.1-0.1,0.3-0.1,0.4c0,0.1,0,0.2,0.1,0.3
		c0,0.1,0.2,0.1,0.3,0.2c0,0.1,0.1,0.2,0.1,0.3s0,0.2,0.1,0.3c0,0.1,0.2,0.1,0.3,0.2c0,0.1-0.2,0.3-0.1,0.4c0,0.1,0.3,0.1,0.4,0.1
		c0,0.1,0,0.2,0.1,0.3c0,0.1,0.2,0.1,0.2,0.2c0,0.1,0.1,0.1,0.2,0.2c0,0.1,0,0.2,0,0.3s0,0.2,0.1,0.3s0.1,0.1,0.2,0.2
		c0.1,0.1,0.2,0.1,0.3,0.2c0.1,0.1-0.2,0.3-0.1,0.4c0.1,0.1,0.3,0.1,0.3,0.1c0.1,0.1,0.2,0.1,0.2,0.2c0.1,0.1,0.1,0.2,0.2,0.2
		c0.1,0.1,0.1,0.1,0.2,0.2c0.1,0.1,0,0.3,0,0.3c0.1,0.1,0.1,0.1,0.2,0.2c0.1,0.1,0.2,0.1,0.2,0.2c0.1,0.1,0.1,0.1,0.2,0.2
		c0.1,0.1,0.1,0.2,0.1,0.3c0.1,0.1,0,0.2,0.1,0.3s0.2,0.1,0.3,0.1c0.1,0.1,0.1,0.1,0.2,0.2c0.1,0.1,0.2,0.1,0.3,0.2
		c0.1,0.1,0,0.3,0.1,0.3c0.1,0.1,0.2,0.1,0.3,0.1c0.1,0.1,0.2,0.1,0.2,0.2c0.1,0.1,0.2,0.1,0.2,0.2c0.1,0.1,0.1,0.2,0.2,0.2
		c0.1,0.1,0.2,0.1,0.2,0.2c0.1,0.1,0,0.3,0.1,0.3c0.1,0.1,0.2,0,0.3,0.1s0.1,0.2,0.2,0.2c0.1,0.1,0.2,0.1,0.2,0.2
		c0.1,0.1,0.3,0,0.3,0c0.1,0.1,0.1,0.2,0.2,0.2c0.1,0.1,0.1,0.2,0.2,0.3c0.1,0.1,0.3,0,0.3,0c0.1,0.1,0,0.3,0.1,0.4
		c0.1,0.1,0.3-0.1,0.4,0c0.1,0.1,0,0.3,0.1,0.3c0.1,0.1,0.1,0.2,0.2,0.3c0.1,0.1,0.2,0.1,0.2,0.2c0.1,0.1,0.3-0.1,0.4,0
		c0.1,0.1,0.2,0.1,0.2,0.2c0.1,0.1,0.2,0.1,0.2,0.2c0.1,0.1,0.2,0,0.3,0.1s0.2,0.1,0.2,0.2c0.1,0.1,0,0.3,0.1,0.3
		c0.1,0.1,0.3,0,0.3,0c0.1,0.1,0.2,0.1,0.2,0.1c0.1,0.1,0,0.3,0.1,0.3c0.1,0.1,0.2,0.1,0.2,0.2c0.1,0.1,0.1,0.1,0.2,0.2
		c0.1,0.1,0.2,0.1,0.3,0.1c0.1,0.1,0.2,0.1,0.2,0.2c0.1,0.1,0.2,0,0.3,0.1s0.3-0.1,0.4,0c0.1,0.1,0,0.3,0.1,0.4s0.3-0.1,0.3,0
		c0.1,0,0.1,0.2,0.2,0.3c0.1,0,0.2,0.1,0.3,0.1s0.3-0.1,0.4,0c0.1,0,0,0.4,0.1,0.4s0.2,0.1,0.2,0.1c0.1,0,0.2-0.1,0.3,0
		c0.1,0,0.1,0.2,0.2,0.2c0.1,0,0.1,0.1,0.2,0.2c0.1,0,0.2,0.1,0.2,0.2c0.1,0,0.3-0.1,0.4-0.1s0.1,0.3,0.1,0.3c0.1,0,0.2-0.1,0.3,0
		c0.1,0,0.1,0.2,0.2,0.2s0.2,0,0.3,0.1c0.1,0,0.2,0.1,0.3,0.1c0.1,0,0.2,0.1,0.3,0.1c0.1,0,0.1,0.2,0.2,0.3c0.1,0,0.3-0.2,0.4-0.2
		s0.2,0,0.3,0.1c0.1,0,0.1,0.1,0.2,0.2c0.1,0,0.1,0.3,0.2,0.3s0.2,0,0.3,0c0.1,0,0.1,0.2,0.2,0.2s0.2,0,0.3,0.1
		c0.1,0,0.1,0.1,0.2,0.2s0.3-0.1,0.4,0s0,0.3,0.1,0.3c0.1,0.1,0.1,0.1,0.2,0.2s0.1,0.2,0.2,0.2c0.1,0.1,0.3-0.1,0.4-0.1
		c0.1,0.1,0,0.3,0.1,0.4s0.3,0,0.3,0c0.1,0.1,0.1,0.2,0.2,0.3c0.1,0.1,0.3,0,0.3,0c0.1,0.1,0.1,0.1,0.2,0.2s0.2,0,0.3,0.1
		c0.1,0.1,0,0.3,0.1,0.4c0.1,0,0.2,0.1,0.2,0.1c0.1,0,0.3-0.2,0.4-0.1c0.1,0,0.1,0.1,0.2,0.1s0.1,0.3,0.2,0.4c0.1,0,0.2-0.1,0.3,0
		c0.1,0,0.2,0,0.3,0c0.1,0,0.1,0.1,0.2,0.2c0.1,0,0.2,0.1,0.3,0.1c0.1,0,0.2,0.1,0.3,0.1c0.1,0,0.2,0.1,0.3,0.1
		c0.1,0,0.1,0.1,0.2,0.2c0.1,0,0.2,0,0.3,0c0.1,0,0.2,0.1,0.3,0.1c0.1,0,0.2,0.1,0.3,0.1c0.1,0,0.2,0.1,0.3,0.1c0.1,0,0.2,0,0.3,0.1
		c0.1,0,0.1,0.2,0.2,0.2s0.2,0,0.3,0c0.1,0,0.2,0,0.3,0c0.1,0,0.2,0,0.3,0c0.1,0,0.1,0.2,0.2,0.2s0.2-0.1,0.3-0.1
		c0.1,0,0.2,0.1,0.2,0.2c0.1,0,0.1,0.2,0.2,0.2s0.2,0,0.3,0c0.1,0,0.2,0,0.3,0c0.1,0,0.2,0,0.3,0.1c0.1,0,0.1,0.2,0.2,0.2
		s0.1,0.2,0.2,0.2s0.2-0.1,0.3-0.1c0.1,0,0.2,0.1,0.3,0.1c0.1,0,0.1,0.2,0.2,0.2s0.2-0.1,0.3,0c0.1,0,0.2,0.1,0.3,0.1
		c0.1,0,0.2,0,0.3,0c0.1,0,0.1,0.2,0.2,0.2S80.9,76,81,76s0.3-0.2,0.4-0.2s0.1,0.3,0.2,0.3s0.2,0,0.3,0.1c0.1,0,0.1,0.2,0.2,0.2
		s0.2-0.1,0.3,0c0.1,0,0.2,0,0.3,0.1c0.1,0,0.2-0.1,0.3,0c0.1,0,0.1,0.3,0.2,0.4c0.1,0,0.3-0.2,0.3-0.1c0.1,0,0.2,0.1,0.3,0.1
		c0.1,0,0.1,0.2,0.2,0.2s0.2,0.1,0.3,0.1c0.1,0,0.2,0.1,0.2,0.1c0.1,0,0.2,0.1,0.3,0.1c0.1,0,0.2,0.1,0.3,0.1c0.1,0,0.3-0.2,0.4-0.2
		s0.2,0.1,0.3,0.1c0.1,0,0.1,0.3,0.2,0.3s0.2,0.1,0.3,0.1c0.1,0,0.2-0.1,0.3,0c0.1,0,0.2,0,0.3,0c0.1,0,0.1,0.2,0.2,0.2
		s0.2,0,0.3,0.1c0.1,0,0.2-0.1,0.3-0.1c0.1,0,0.2,0.1,0.3,0.1c0.1,0,0.1,0.2,0.2,0.2s0.1,0.2,0.2,0.2s0.2-0.1,0.3,0
		c0.1,0,0.2,0.1,0.3,0.1c0.1,0,0.2,0.1,0.2,0.2c0.1,0,0.2,0.1,0.2,0.2c0.1,0,0.3-0.2,0.4-0.2S90,78.9,90,79c0.1,0,0.1,0.3,0.2,0.4
		c0.1,0,0.2,0,0.3,0.1c0.1,0,0.3-0.2,0.4-0.2s0.1,0.2,0.2,0.3c0.1,0,0.2,0,0.3,0.1c0.1,0,0.1,0.2,0.2,0.2s0.3-0.1,0.3-0.1
		c0.1,0,0.2,0.1,0.2,0.2c0.1,0,0.2,0,0.3,0c0.1,0,0.2,0.1,0.2,0.2c0.1,0,0.1,0.2,0.2,0.3c0.1,0,0.2-0.1,0.3-0.1
		c0.1,0,0.1-0.2,0.2-0.2s0.1-0.1,0.2-0.2c0.1,0,0.2,0.1,0.3,0c0.1,0,0.2-0.1,0.3-0.1c0.1,0,0.1-0.3,0.1-0.3c0.1,0,0.1,0.1,0.2,0.1
		c-0.1,0.1-0.1,0-0.1,0.1c-0.1,0.1,0,0.3,0,0.4c-0.1,0.1-0.1,0.3-0.1,0.4c-0.1,0-0.3,0-0.4,0s-0.2,0-0.3,0c-0.1,0-0.2,0-0.3,0
		c-0.1,0-0.3-0.1-0.4-0.1c0.1,0,0.2,0.2,0.3,0.2c0.1,0,0.2,0.1,0.3,0.1c0.1,0,0.2,0,0.3,0.1c0.1,0,0.2,0,0.3,0.1
		c0.1,0.1,0.1,0.1,0.2,0.2s0.1,0.2,0.2,0.2c0.1,0.1,0.2,0,0.3,0c0.1,0.1,0.2,0.1,0.3,0.1c0.1,0.1-0.1,0.3,0,0.4s0.2,0.1,0.2,0.2
		c0.1,0.1,0.2,0.1,0.2,0.2c0,0.2,0.2,0.1,0.2,0.3c0,0.1-0.2,0.2-0.2,0.3c0,0.1,0,0.2,0,0.3c0,0.1,0.2,0.1,0.2,0.3
		c0,0.1,0.1,0.1,0.1,0.3c0,0.1-0.1,0.2-0.1,0.3c0,0.1-0.1,0.2,0,0.3c0,0.1,0,0.1,0,0.3c0,0.1,0,0.1,0.1,0.3c0,0.1,0.2,0.1,0.2,0.3
		c0,0.1,0,0.2,0,0.3c0,0.1,0,0.1,0.1,0.3c0,0.1-0.1,0.2-0.1,0.3c0.1,0,0.2-0.2,0.3-0.2c0.1,0,0.3,0,0.4-0.1
		c-0.1,0.1-0.3,0.2-0.3,0.2c-0.1,0.1,0.1,0.3,0.1,0.4c-0.1,0.1-0.4,0.1-0.5,0.1c0,0.1,0.1,0.2,0.1,0.3c0,0.1,0,0.1,0,0.3
		c0,0.1-0.1,0.2,0,0.3c0,0.1,0,0.1,0,0.3c0,0.1,0.2,0.1,0.2,0.3c0,0.1,0.2,0.1,0.3,0.3c0,0.1-0.1,0.2,0,0.3c0,0.1-0.1,0.2,0,0.3
		c0,0.1,0,0.1,0,0.3c0,0.1-0.1,0.2-0.1,0.3c0,0.1,0.2,0.1,0.3,0.3c0,0.1-0.1,0.2,0,0.3c0,0.1-0.1,0.2-0.1,0.3c0,0.1,0.4,0.1,0.4,0.2
		s-0.2,0.2-0.2,0.3c0,0.1,0.3,0.1,0.3,0.3c0,0.1-0.2,0.2-0.2,0.3c0,0.1,0.2,0.1,0.3,0.3c0,0.1-0.2,0.2-0.2,0.3c0,0.1,0,0.1,0.1,0.3
		c0,0.1,0.2,0.1,0.2,0.3c0,0.1-0.1,0.2-0.1,0.3c0,0.1,0.2,0.1,0.2,0.3c0,0.1,0,0.1,0.1,0.3c0,0.1-0.2,0.2-0.2,0.3
		c0,0.1,0.3,0.1,0.3,0.3s-0.2,0.2-0.1,0.3c0.1,0.1,0.1,0,0.2-0.1c0.1,0,0.2-0.1,0.3-0.1c0.1,0,0.2,0.1,0.3,0.1
		c0.1,0,0.1-0.2,0.2-0.2s0.2,0,0.3,0c0.1,0,0.2-0.1,0.3-0.1c0.1,0,0.2,0,0.3,0c0.1,0,0.2,0.1,0.3,0.1c0.1,0,0.1-0.3,0.2-0.3
		s0.2,0.1,0.3,0.1c0.1,0,0.2,0,0.3-0.1c0.1,0,0.2-0.1,0.3-0.1c0.1,0,0.2,0,0.3,0c0.1,0,0.2,0.1,0.3,0.1c0.1,0,0.1,0.2,0.2,0.2
		s0.2-0.1,0.3-0.1c0.1,0,0.2,0,0.3,0c0.1,0,0.2,0,0.3,0c0.1,0,0.1,0.2,0.2,0.2s0.1,0.2,0.2,0.2s0.2,0,0.3,0.1c0.1,0,0.2,0,0.3,0.1
		c0.1,0.1,0,0.3,0.1,0.3c0.1,0.1,0.3-0.1,0.4-0.1c0.1,0.1,0.2,0.1,0.2,0.2c0.1,0.1,0,0.3,0,0.3s0.2-0.1,0.3-0.2c0-0.1,0.3,0,0.3-0.1
		s-0.1-0.3,0-0.4c0-0.1,0-0.2,0-0.3c0-0.1,0.4,0,0.4-0.1s-0.2-0.3-0.1-0.4c0-0.1,0.1-0.1,0.2-0.2c0-0.1,0.3-0.1,0.3-0.2
		s-0.1-0.3-0.1-0.4s0.1-0.2,0.1-0.3c0-0.1,0.1-0.2,0.1-0.3c0-0.1,0.2-0.1,0.3-0.2c0-0.1,0.1-0.2,0.2-0.2c0-0.1,0.1-0.2,0.1-0.3
		c0-0.1,0.1-0.2,0.1-0.3c0-0.1,0-0.2,0.1-0.3c0-0.1,0.2-0.1,0.2-0.2s-0.1-0.2,0-0.3c0-0.1-0.1-0.2-0.1-0.3c0-0.1,0.4-0.1,0.4-0.2
		s-0.2-0.3-0.2-0.4s0.3-0.1,0.3-0.2s0-0.2,0.1-0.3c0-0.1,0.1-0.2,0.1-0.3c0-0.1,0-0.2,0-0.3c0-0.1,0-0.2,0.1-0.3c0-0.1,0-0.2,0-0.3
		c0-0.1,0.1-0.2,0.1-0.3c0-0.1,0-0.2,0.1-0.3c0-0.1,0-0.2,0-0.3c0-0.1,0.1-0.2,0.1-0.3c0-0.1-0.1-0.2,0-0.3c0-0.1,0.2-0.1,0.2-0.2
		s-0.2-0.2-0.2-0.3c0-0.1,0.2-0.2,0.2-0.2c0-0.1,0.1-0.2,0.1-0.3c0-0.1-0.1-0.2,0-0.3c0-0.1,0.1-0.2,0.2-0.3c0-0.1-0.2-0.2-0.2-0.3
		c0-0.1,0.3-0.1,0.3-0.2s0-0.2,0-0.3c0-0.1-0.1-0.2-0.1-0.3c0-0.1-0.1-0.2,0-0.3c0-0.1,0.3-0.2,0.3-0.3c0-0.1,0.1-0.2,0.1-0.3
		c0-0.1,0-0.2,0-0.3c0-0.1-0.2-0.2-0.2-0.3c0-0.1,0.3-0.2,0.3-0.3c0-0.1-0.2-0.2-0.2-0.3c0-0.1,0-0.2,0.1-0.3c0-0.1,0-0.2,0-0.3
		c0-0.1,0.2-0.2,0.2-0.3c0-0.1,0-0.2,0-0.3c0-0.1-0.2-0.2-0.2-0.3c0-0.1,0-0.2,0-0.3c0-0.1,0-0.2,0-0.3c0-0.1,0.1-0.2,0.1-0.3
		c0-0.1-0.2-0.2-0.2-0.3c0-0.1,0.2-0.2,0.2-0.3c0-0.1,0.1-0.2,0.1-0.3c0-0.1,0-0.2,0-0.3c0-0.1,0.1-0.2,0.1-0.3
		c0-0.1-0.3-0.2-0.3-0.3c0-0.1,0.3-0.2,0.3-0.3c0-0.1-0.2-0.2-0.2-0.3c0-0.1,0-0.2,0-0.3c0-0.1,0-0.2,0-0.3c0-0.1,0-0.2,0-0.3
		c0-0.1,0.1-0.2,0.1-0.3c0-0.1,0.1-0.2,0.1-0.3c0-0.1,0.1-0.2,0.1-0.3c0-0.1-0.2-0.2-0.2-0.3c0-0.1,0.2-0.2,0.2-0.3
		c0-0.1,0.1-0.2,0.1-0.3c0-0.1-0.3-0.2-0.3-0.3c0-0.1,0.2-0.2,0.2-0.3c0-0.1,0-0.2,0-0.3c0-0.1,0.1-0.2,0.1-0.3
		c0-0.1-0.1-0.2-0.1-0.3c0-0.1-0.2-0.2-0.2-0.3c0-0.1,0.3-0.2,0.3-0.3c0-0.1,0-0.2,0-0.3c0-0.1-0.1-0.2-0.1-0.3
		c0-0.1-0.2-0.2-0.2-0.3c0-0.1,0.2-0.2,0.2-0.3c0-0.1,0-0.2,0-0.3c0-0.1,0-0.2,0-0.3c0-0.1-0.3-0.2-0.3-0.3c0-0.1,0.2-0.2,0.2-0.3
		c0-0.1,0-0.2,0-0.3c0-0.1,0.1-0.2,0.1-0.3c0-0.1-0.2-0.2-0.2-0.3c0-0.1,0.1-0.2,0.1-0.3c0-0.1,0.1-0.2,0.1-0.3
		c0-0.2-0.2-0.1-0.2-0.2c-0.1-0.1,0.1-0.2,0-0.3c-0.1-0.1,0-0.1-0.1-0.3c-0.1-0.1-0.3,0-0.4-0.1s0-0.2,0-0.3c-0.1-0.1,0.1-0.2,0-0.3
		c-0.1-0.1,0-0.1-0.1-0.3c-0.1-0.1-0.1-0.1-0.1-0.3c-0.1-0.1-0.3,0-0.3-0.1c-0.1-0.1-0.1-0.1-0.2-0.2s0-0.2-0.1-0.3
		c-0.1-0.1-0.1-0.1-0.1-0.3c0.1-0.1,0.1-0.2,0.3-0.2c0.1,0,0.2,0.3,0.3,0.2c0.1,0,0.1-0.3,0.3-0.3c0.1,0,0.2,0.2,0.3,0.2
		c0.1,0,0.1,0,0.3,0c0.1,0,0.1,0,0.3,0c0.1,0,0.1-0.2,0.3-0.2c0.1,0,0.2,0.2,0.3,0.1c0.1,0,0.1,0,0.3,0c0.1,0,0.1-0.2,0.3-0.2
		c0.1,0,0.1,0,0.3,0c0.1,0,0.1-0.1,0.2-0.1c0.1-0.1,0,0-0.1-0.1c0-0.1-0.1-0.1-0.2-0.2c0-0.1,0-0.2,0-0.3c0-0.1-0.3,0-0.4-0.1
		c0-0.1-0.1-0.2-0.1-0.2c0-0.1-0.1-0.2-0.1-0.3s-0.1-0.1-0.2-0.2c0-0.1-0.1-0.1-0.2-0.2c0-0.1,0.1-0.3,0-0.3c0-0.1-0.2-0.1-0.2-0.2
		c0-0.1,0-0.2,0-0.3s0-0.2-0.1-0.3c0-0.1-0.4,0-0.4-0.1s-0.1-0.2-0.1-0.3s0.1-0.3,0.1-0.4c0-0.1-0.4,0-0.4-0.1s0.1-0.3,0-0.4
		c0-0.1-0.2-0.1-0.3-0.2c0-0.1-0.1-0.1-0.2-0.2c0-0.1,0-0.2-0.1-0.3c0-0.1,0-0.2-0.1-0.3c0-0.1-0.1-0.2-0.1-0.2
		c0-0.1-0.3-0.1-0.3-0.1c0-0.1,0.1-0.3,0.1-0.4c0-0.1-0.1-0.2-0.1-0.3s-0.1-0.1-0.2-0.2c0-0.1-0.3,0-0.4-0.1c0-0.1-0.1-0.2-0.1-0.2
		c0-0.1,0-0.2-0.1-0.3c0-0.1,0.1-0.3,0-0.3c0-0.1-0.2-0.1-0.2-0.2c0-0.1-0.2-0.1-0.2-0.2c0-0.1-0.2-0.1-0.2-0.2
		c0-0.1-0.1-0.2-0.1-0.3s0-0.2,0-0.3s0-0.2-0.1-0.3c0-0.1-0.1-0.2-0.1-0.2c0-0.1,0-0.2-0.1-0.3c0-0.1-0.3,0-0.3-0.1s0.1-0.3,0-0.3
		c0-0.1-0.3-0.2-0.3-0.1c-0.2,0.5-0.7,0.7-0.7,0.6c0-0.1-2.8,0.2-2.9,0.1c0-0.1-1.9-1.5-1.9-1.6c-0.1-0.1-0.2-0.1-0.2-0.2
		c-0.1-0.1,0.5,0.2,0.4,0.2c-0.1-0.1-0.3-0.1-0.3-0.1C98.3,55,98,54.6,98,54.5c-0.1-0.1-0.3,0-0.3-0.1c-0.1-0.1-0.1-0.2-0.1-0.3
		c-0.1-0.1-0.1-0.1-0.2-0.2c-0.1-0.1-0.4,0-0.5,0c-0.1-0.1-0.3,0-0.3-0.1c-0.1-0.1,0.2-0.4,0.1-0.4c-0.1-0.1-0.4,0-0.4,0
		c-0.1-0.1-2.6,0.2-2.6,0.1c-0.1-0.1-0.1-0.2-0.1-0.3c-0.1-0.1-4.9-0.3-4.9-0.4c-0.1-0.2-0.3-0.1-0.2-0.2c0.1-0.1,0-0.2,0.2-0.3
		c0.1-0.1,0.1,0,0.3-0.1c0.1-0.1,0.2,0.1,0.3,0c0.1-0.1,0.2,0,0.3,0c0.1-0.1,0.1-0.1,0.3-0.1C90,52,90,52,90.2,52
		c0.1-0.1-17.5,3-17.4,2.9s0.2,0.2,0.4,0.1c0.1-0.1,0-0.3,0.1-0.4c0.1-0.1,0.3,0.2,0.4,0.2c0.1-0.1,0.1-0.1,0.2-0.2
		c0.1-0.1,0.1-0.2,0.2-0.2c0.1-0.1,0.2,0.1,0.3,0.1c0.1-0.1,0.1-0.2,0.2-0.2c0.1-0.1,0.2,0,0.3,0c0.1-0.1,0.1-0.1,0.3-0.1
		c0.1-0.1,0-0.3,0.2-0.3c0.1-0.1,0.2,0,0.3,0c0.1-0.1,0.1-0.2,0.2-0.2c0.1-0.1,0.2,0.1,0.3,0c0.1-0.1,0.2,0,0.3-0.1
		c0.1-0.1,0-0.2,0.2-0.3c0.1-0.1,0.2,0.1,0.3,0c0.1-0.1,0.2,0.1,0.3,0c0.1-0.1,0-0.3,0.2-0.4c0.1-0.1,0.2,0,0.3-0.1
		c0.1-0.1,0.1-0.1,0.2-0.2c0.1-0.1,0.2,0.1,0.3,0c0.1-0.1-0.1-0.1-0.3,0c-0.1,0-0.2,0.2-0.3,0.2c-0.1,0-0.2-0.1-0.3-0.1
		c-0.1,0-0.2,0.1-0.3,0.1c-0.1,0-0.2,0-0.3,0c-0.1,0-0.2,0.1-0.3,0.1c-0.1,0-0.2,0.1-0.3,0.1c-0.2-0.1-0.2,0-0.3,0s-0.2-0.1-0.3-0.1
		c-0.1,0-0.2-0.2-0.3-0.2c-0.1,0-0.2,0.2-0.3,0.2c-0.1,0-0.2,0-0.3,0.1c-0.1,0-0.2,0.1-0.3,0.1c-0.1,0-0.2-0.1-0.3-0.1
		c-0.1,0-0.2,0.1-0.3,0.1c-0.1,0-0.2,0.1-0.3,0.1c-0.1,0-0.2-0.2-0.3-0.2c-0.1,0-0.2,0-0.3,0c-0.1,0-0.2,0.3-0.3,0.3
		c-0.1,0,16.2-4.1,16.1-4.1c-0.1,0-0.2-0.2-0.3-0.2c-0.1,0-0.2,0.1-0.3,0.1c-0.1,0-0.2,0.1-0.3,0.1c-0.1,0-0.1,0-0.3,0
		c-0.1,0-0.2,0-0.3,0c-0.1,0-0.1-0.4-0.2-0.4s-0.2,0.1-0.3,0c-0.1,0-0.1-0.2-0.2-0.2s5.6,0.9,5.5,0.9s-0.2-0.1-0.3-0.1
		c-0.1,0-0.2-0.1-0.3-0.1c-0.1,0,1.5-0.1,1.4-0.1S92.6,49,92.6,49c-0.1,0,2.7-0.2,2.6-0.2s-0.1-0.3-0.2-0.3s0,0-0.1,0s3.1-0.1,3-0.1
		s-0.1-0.3-0.2-0.4c-0.1,0-0.2,0.2-0.3,0.2c-0.1,0-0.2,0-0.3,0c-0.1,0-0.1-0.3-0.2-0.3S96.7,48,96.6,48c-0.1,0-0.2-0.1-0.3-0.1
		c-0.1,0-0.2-0.1-0.3-0.1c-0.1,0-0.1-0.2-0.2-0.2s-0.2-0.1-0.3-0.1c-0.1,0-0.2,0-0.3,0c-0.1,0-0.2,0.1-0.3,0.1
		c-0.1,0-0.1-0.2-0.2-0.2s-0.2,0.1-0.3,0.1c-0.1,0-0.1-0.2-0.2-0.3c-0.1,0-0.2-0.1-0.3-0.1c-0.1,0-0.2,0.1-0.3,0.1
		c-0.1,0-0.2-0.1-0.2-0.2c-0.1,0-0.2,0.1-0.3,0c-0.1,0-0.1-0.3-0.2-0.3s-0.2-0.1-0.3-0.1c-0.1,0-0.3,0.2-0.4,0.1
		c-0.1,0-0.1-0.4-0.2-0.4s-0.2,0-0.3,0c-0.1,0-0.2,0.1-0.3,0.1c-0.1,0-0.1-0.3-0.2-0.3S91,46,91,45.9c-0.1,0-0.3,0.2-0.4,0.2
		s-0.1-0.2-0.2-0.3c-0.1,0-0.1-0.2-0.2-0.2s-0.2,0.1-0.3,0c-0.1,0-0.1-0.3-0.2-0.3s-0.2-0.1-0.3-0.1c-0.1,0-0.2-0.1-0.3-0.1
		c-0.1,0-0.3,0.2-0.4,0.1c-0.1,0-0.1-0.2-0.2-0.2s-0.1-0.2-0.2-0.3c-0.1,0-0.2,0-0.3-0.1c-0.1,0-0.1-0.2-0.2-0.2s-0.3,0.1-0.4,0.1
		s-0.1-0.1-0.2-0.2c-0.1,0-0.2,0-0.3-0.1c-0.1,0,0-0.3-0.1-0.3s-0.2,0-0.3-0.1c-0.1,0-0.3,0.1-0.3,0c-0.1-0.1-0.2-0.1-0.3-0.1
		c-0.1-0.1-0.1-0.1-0.2-0.2c-0.1-0.1-0.1-0.1-0.2-0.2c-0.1-0.1-0.1-0.2-0.2-0.2c-0.1-0.1-0.1-0.2-0.1-0.3c-0.1-0.1-0.3,0.1-0.4,0.1
		c-0.1-0.1-0.1-0.3-0.1-0.3c-0.1-0.1-0.2,0-0.3,0c-0.1-0.1-0.1-0.3-0.1-0.3c-0.1-0.1-0.2-0.1-0.3-0.1c-0.1-0.1-0.2-0.1-0.2-0.2
		c-0.1,0-0.2,0-0.3,0c-0.1,0,0-0.3-0.1-0.4c-0.1,0-0.2,0-0.3-0.1c-0.1,0-0.2-0.1-0.3-0.1c-0.1,0-0.2,0-0.3-0.1c-0.1,0-0.2,0-0.3-0.1
		c-0.1,0,0-0.3-0.1-0.4c-0.1,0-0.3,0.1-0.4,0.1s-0.1-0.2-0.2-0.3c-0.1,0-0.2,0-0.3,0c-0.1,0-0.2,0-0.3-0.1c-0.1,0-0.1-0.3-0.1-0.3
		c-0.1,0-0.1-0.1-0.2-0.2c-0.1,0-0.1-0.1-0.2-0.2c-0.1,0-0.3,0.1-0.4,0.1s-0.1-0.2-0.2-0.3c-0.1,0-0.1-0.2-0.2-0.2s-0.3,0.1-0.4,0
		c-0.1,0-0.1-0.3-0.1-0.4c-0.1,0-0.2-0.1-0.3-0.1c-0.1,0-0.2,0-0.3,0c-0.1,0-0.2,0-0.3-0.1c-0.1,0-0.2-0.1-0.3-0.1
		c-0.1,0-0.2-0.1-0.3-0.1c-0.1,0-0.2,0-0.3,0c-0.1,0-0.1-0.2-0.2-0.2s-0.1-0.2-0.2-0.3c-0.1,0-0.2-0.1-0.2-0.2c-0.1,0-0.2,0-0.3-0.1
		c-0.1,0-0.2,0-0.3,0c-0.1,0-0.1-0.2-0.2-0.2s-0.2-0.1-0.2-0.2c-0.1,0-0.2,0-0.3,0c-0.1,0-0.1-0.2-0.2-0.3c-0.1,0-0.2,0-0.3-0.1
		c-0.1,0-0.2-0.1-0.2-0.1c-0.1,0-0.2-0.1-0.3-0.1c-0.1,0-0.2,0.1-0.3,0.1c-0.1,0-0.1-0.2-0.2-0.3c-0.1,0-0.2,0.1-0.3,0
		c-0.1,0-0.2-0.1-0.3-0.1c-0.1,0-0.1-0.2-0.2-0.3c-0.1,0-0.3,0.2-0.4,0.1c-0.1,0-0.2-0.1-0.3-0.1c-0.1,0-0.2-0.1-0.2-0.2
		c-0.1,0-0.1-0.2-0.2-0.2s-0.2,0.1-0.3,0c-0.1,0-0.1-0.2-0.2-0.2s-0.2,0.1-0.3,0c-0.1,0-0.2,0.1-0.3,0.1c-0.1,0-0.1-0.2-0.2-0.2
		s-0.2,0.1-0.3,0.1c-0.1,0-0.1-0.3-0.2-0.3s-0.2,0.1-0.3,0c-0.1,0-0.2,0-0.3-0.1c-0.1,0-0.2-0.1-0.3-0.1c-0.1,0-0.2-0.1-0.3-0.1
		c-0.1,0-0.2,0-0.3-0.1c-0.1,0-0.2,0.1-0.3,0.1c-0.1,0-0.2-0.1-0.3-0.1c-0.1,0-0.2-0.1-0.3-0.1c-0.1,0-0.2,0.1-0.3,0.1
		c-0.1,0-0.2-0.3-0.3-0.3c-0.1,0-0.2,0.2-0.3,0.2c-0.1,0-0.2-0.3-0.3-0.3c-0.1,0-0.2,0-0.3,0c-0.1,0-0.2,0.2-0.3,0.2
		c-0.1,0-0.2-0.2-0.3-0.2c-0.1,0-0.2,0-0.3,0c-0.1,0-0.2,0.1-0.3,0.1c-0.1,0-0.2-0.1-0.3-0.1c-0.1,0-0.2-0.1-0.3-0.1
		c-0.1,0-0.2,0.2-0.3,0.2c-0.1,0-0.2-0.1-0.3-0.1s-0.2,0.1-0.3,0.1s-0.2,0.1-0.3,0.1s-0.2,0-0.3,0.1c-0.1,0-0.2,0.1-0.3,0.1
		s-0.2,0-0.3,0s-0.2-0.2-0.3-0.2s-0.2,0-0.3,0s-0.2,0-0.3,0s-0.2,0-0.3,0s-0.2,0-0.3,0s-0.2,0.2-0.3,0.2s-0.2-0.1-0.3,0
		c-0.1,0-0.2,0-0.3,0s-0.2-0.2-0.3-0.2s-0.2,0.4-0.3,0.4S59.2,35,59.1,35s-0.2-0.1-0.3-0.1s-0.2,0-0.3,0s-0.2,0.2-0.3,0.2
		s-0.2,0-0.3,0s-0.2-0.2-0.3-0.2s-0.2,0-0.3,0s-0.2,0.2-0.3,0.2s-0.2,0.1-0.3,0.1s-0.2,0-0.3,0S56.2,35,56.1,35s-0.2,0.2-0.3,0.2
		s-0.2-0.1-0.3-0.1s-0.2,0-0.3,0S55,35.4,55,35.4c-0.1,0-0.2,0-0.3,0.1c-0.1,0-0.2-0.2-0.3-0.2s-0.2,0-0.3,0s-0.2,0.3-0.2,0.3
		c-0.1,0-0.2-0.1-0.3-0.1s-0.2-0.1-0.3,0c-0.1,0-0.2,0.2-0.2,0.3c-0.1,0-0.2,0-0.3,0.1c-0.1,0-0.2-0.1-0.3-0.1s-0.2,0-0.3,0
		S52,36,52,36c-0.1,0-0.2-0.1-0.3-0.1s-0.2-0.1-0.3-0.1s-0.1,0.3-0.2,0.3c-0.1,0-0.2-0.1-0.3-0.1s-0.2,0.1-0.3,0.1S50.4,36,50.3,36
		s-0.1,0.2-0.2,0.3c-0.1,0-0.2,0.1-0.3,0.1s-0.2,0-0.3,0s-0.2,0-0.3,0s-0.1,0.2-0.2,0.2c-0.1,0-0.2,0-0.3,0s-0.2-0.2-0.3-0.2
		s-0.2,0.1-0.3,0.1s-0.1,0.2-0.2,0.2c-0.1,0-0.2,0-0.3,0s-0.2,0-0.3,0s-0.2,0-0.3,0.1c-0.1,0-0.1,0.2-0.2,0.2
		c-0.1,0-0.2,0.1-0.3,0.1S46.3,37,46.2,37s-0.1,0.2-0.2,0.2c-0.1,0-0.2-0.1-0.3-0.1s-0.2,0.1-0.3,0.1s-0.2,0-0.3,0s-0.1,0.3-0.2,0.3
		c-0.1,0-0.2-0.1-0.3-0.1s-0.1,0.2-0.2,0.2c-0.1,0-0.1,0.2-0.2,0.2c-0.1,0-0.2,0-0.3,0s-0.2,0-0.3,0s-0.2,0.1-0.3,0.1S43.1,38,43,38
		s-0.2,0.1-0.3,0.1s-0.1,0.3-0.2,0.3c-0.1,0-0.3-0.2-0.4-0.2c-0.1,0-0.1,0.2-0.2,0.2c-0.1,0-0.1,0.2-0.2,0.2c-0.1,0-0.3-0.2-0.4-0.1
		c-0.1,0-0.1,0.3-0.2,0.3c-0.1,0-0.2-0.1-0.3-0.1s-0.2,0.1-0.3,0.1s-0.2,0.1-0.2,0.2c-0.1,0-0.2,0.1-0.2,0.2c-0.1,0-0.2,0-0.3,0.1
		c-0.1,0-0.2,0-0.3,0.1c-0.1,0-0.2,0.1-0.3,0.1s-0.1,0.2-0.2,0.3c-0.1,0-0.1,0.1-0.2,0.2c-0.1,0-0.3-0.2-0.4-0.2
		c-0.1,0-0.1,0.3-0.2,0.4c-0.1,0-0.2,0.1-0.3,0.1s-0.3-0.1-0.3-0.1c-0.1,0-0.1,0.3-0.1,0.4c-0.1,0-0.2-0.1-0.3,0
		c-0.1,0-0.2,0.1-0.3,0.1s-0.1,0.1-0.2,0.2c-0.1,0-0.2,0.1-0.3,0.1s-0.2,0-0.3,0S36,41.3,36,41.4c-0.1,0-0.2,0-0.3,0.1
		c-0.1,0-0.2,0.1-0.3,0.1s-0.3-0.1-0.3,0c-0.1,0-0.1,0.3-0.2,0.3c-0.1,0-0.3-0.2-0.4-0.1c-0.1,0-0.1,0.2-0.2,0.2
		c-0.1,0-0.2,0-0.3,0.1c-0.1,0-0.1,0.2-0.2,0.3c-0.1,0-0.2,0.1-0.3,0.1s-0.2,0-0.3,0.1c-0.1,0-0.2,0.1-0.2,0.2c-0.1,0-0.2,0-0.3,0.1
		s0,0.3-0.1,0.4c-0.1,0.1-0.3-0.1-0.4-0.1c-0.1,0.1-0.2,0.1-0.2,0.1c-0.1,0.1-0.1,0.2-0.2,0.3s-0.2,0-0.3,0
		c-0.1,0.1-0.1,0.2-0.2,0.3c0.7,0.1,0.7,0.3,0.6,0.3c-0.1,0.1-0.2,0-0.3,0.1c-0.1,0.1-0.2,0-0.3,0.1c-0.1,0.1,0,0.3-0.1,0.4
		c-0.1,0.1-0.1,0.1-0.2,0.2c-0.1,0.1-0.4-0.1-0.4-0.1c-0.1,0.1,0.1,0.4,0,0.4c-0.1,0.1-0.2,0.1-0.2,0.2c-0.1,0.1-0.2,0-0.3,0.1
		c-0.1,0.1-0.1,0.2-0.2,0.2c-0.1,0.1,0,0.3,0,0.4c-0.1,0.1-0.1,0.1-0.2,0.2c-0.1,0.1-0.2,0.1-0.3,0.1c-0.1,0.1-0.1,0.2-0.1,0.2
		c-0.1,0.1-0.2,0.1-0.3,0.2c0,0.1-0.1,0.1-0.2,0.2c0,0.1,0.1,0.3,0.1,0.4c0,0.1-0.2,0.1-0.3,0.2c0,0.1-0.2,0.2-0.2,0.2
		c0,0.1,0.1,0.2,0.1,0.3s0,0.2,0,0.3c0,0.2,0,0.1,0,0.3c0,0.1,0,0.1-0.1,0.3c-0.1,0.1-0.2,0-0.3,0.1c-0.1,0.1,0.1,0.3,0,0.4
		c-0.1,0.1-0.1,0.1-0.2,0.2c-0.1,0.1-0.2,0-0.3,0.1c-0.1,0.1-0.1,0.1-0.2,0.2c-0.1,0.1,0,0.2-0.1,0.3s-0.2,0-0.3,0.1
		c-0.1,0.1,0,0.3,0,0.3c-0.1,0.1-0.1,0.1-0.2,0.2c-0.1,0.1-0.2,0.1-0.3,0.1c-0.1,0.1,0,0.2-0.1,0.3s-0.2,0.1-0.3,0.2
		c-0.1,0.1,0,0.2-0.1,0.3c0,0.1-0.1,0.1-0.2,0.1c-0.1,0.1-0.2,0.1-0.3,0.1c-0.1,0.1-0.1,0.2-0.1,0.3c-0.1,0.1,0,0.2,0,0.3
		c-0.1,0.1-0.2,0.1-0.2,0.2c-0.1,0.1-0.1,0.2-0.2,0.2c-0.1,0.1-0.1,0.2-0.2,0.2c-0.1,0.1-0.1,0.2-0.1,0.2c-0.1,0.1-0.3,0-0.4,0.1
		s-0.1,0.2-0.1,0.3c-0.1,0.1,0,0.2-0.1,0.3s0,0.2,0,0.3c-0.1,0.1-0.2,0.1-0.3,0.1c-0.1,0.1,0,0.2-0.1,0.3s0,0.2-0.1,0.3
		s-0.3,0-0.4,0.1s0.1,0.3,0.1,0.4C23.1,55.9,23,55.9,23,56c-0.1,0.1-0.2,0.1-0.3,0.2c0,0.1,0,0.2,0,0.3s-0.3,0.1-0.3,0.1
		c0,0.1-0.1,0.2-0.1,0.3s0,0.2-0.1,0.3c0,0.1,0,0.2,0,0.3s-0.2,0.1-0.3,0.2c0,0.1-0.1,0.2-0.2,0.2c0,0.1-0.1,0.2-0.1,0.3
		s-0.1,0.2-0.2,0.2c0,0.1,0,0.2-0.1,0.3c0,0.1,0.1,0.2,0,0.3c0,0.1,0,0.2-0.1,0.3c0,0.1-0.3,0.1-0.4,0.1c0,0.1,0,0.2,0,0.3
		s0,0.2-0.1,0.3c0,0.1,0.1,0.2,0.1,0.3s-0.3,0.1-0.3,0.2c0,0.1-0.1,0.2-0.1,0.3s0.1,0.2,0.1,0.3s0,0.2,0,0.3s-0.1,0.2-0.2,0.2
		c0,0.1-0.1,0.2-0.1,0.3S20,62,20,62.1c0,0.1,0,0.2,0,0.3s0,0.2,0,0.3s0,0.2,0,0.3s0,0.2,0,0.3s-0.2,0.2-0.2,0.2
		c0,0.1-0.1,0.2-0.1,0.3s0,0.2-0.1,0.3c0,0.1,0,0.2,0,0.3c0,0.1,0.2,0.2,0.1,0.3c0,0.1-0.3,0.1-0.3,0.2s0.2,0.2,0.1,0.3
		c0,0.1-0.2,0.1-0.3,0.2c0,0.1,0,0.2,0,0.3c0,0.1,0,0.2,0,0.3c0,0.1,0,0.2,0,0.3c0,0.1-0.2,0.2-0.2,0.3c0,0.1,0.1,0.2,0.1,0.3
		c0,0.1-0.1,0.2-0.1,0.3c0,0.1,0.1,0.2,0.1,0.3c0,0.1-0.1,0.2-0.1,0.3c0,0.1-0.3,0.1-0.3,0.2s0.1,0.2,0.1,0.3c0,0.1,0.1,0.2,0,0.3
		c0,0.1,0,0.2,0,0.3c0,0.1,0,0.2,0,0.3c0,0.1-0.2,0.2-0.2,0.3c0,0.1,0.1,0.2,0.1,0.3c0,0.1-0.3,0.1-0.3,0.2s0.2,0.2,0.2,0.3
		c0,0.1-0.2,0.2-0.2,0.3c0,0.1,0.2,0.2,0.2,0.3c0,0.1-0.3,0.1-0.3,0.2s0.1,0.2,0.1,0.3c0,0.1,0.1,0.2,0.1,0.3c0,0.1-0.1,0.2-0.1,0.3
		c0,0.1,0,0.2-0.1,0.3c0,0.1,0.1,0.2,0.1,0.3c0,0.1-0.3,0.2-0.3,0.2c0,0.1,0.2,0.2,0.2,0.3c0,0.1-0.1,0.2-0.1,0.3
		c0,0.1-0.2,0.2-0.2,0.3c0,0.1,0.1,0.2,0.1,0.3c0,0.1,0,0.3,0,0.4c0.2,0,0.2-0.3,0.4-0.2c0.1,0.1,0.1,0.4,0.2,0.5c0.1,0,0.2,0,0.3,0
		c0.1,0,0.2-0.3,0.4-0.3c-0.1,0.1-0.3,0.3-0.3,0.4c-0.1,0.1,0,0.2-0.1,0.3c-0.1,0-0.1,0.1-0.3,0.1c-0.1,0-0.1,0-0.3,0
		c-0.1,0-0.2,0-0.3,0c0,0.1,0.1,0.2,0.1,0.3c0,0.1,0,0.2,0,0.3c0,0.1-0.1,0.2-0.1,0.3s0.1,0.2,0.1,0.3c0,0.1,0,0.2,0,0.3
		c0,0.1-0.3,0.2-0.3,0.3c0,0.1,0,0.2,0,0.3c0,0.1,0.1,0.2,0.1,0.3c0,0.1,0.1,0.2,0,0.3c0,0.1-0.2,0.2-0.2,0.3c0,0.1,0.1,0.2,0.1,0.3
		c0,0.1,0,0.2,0,0.3c0,0.1,0.1,0.2,0.1,0.3c0,0.1,0.1,0.2,0.1,0.3c0,0.1,0,0.2,0,0.3c0,0.1-0.2,0.2-0.2,0.3c0,0.1-0.1,0.2-0.1,0.3
		c0,0.1,0.3,0.2,0.3,0.3c0,0.1,0,0.2,0,0.3c0,0.1,0,0.2,0,0.3c0,0.1-0.2,0.2-0.2,0.3c0,0.1-0.1,0.2-0.1,0.3c0,0.1,0,0.2,0,0.3
		c0,0.1,0.1,0.4,0.1,0.5c0.1,0,0.2-0.1,0.3-0.1c0.1,0,0.1-0.3,0.3-0.3c0.1,0,0.1,0.3,0.3,0.3c0,0.1-0.1,0-0.2,0
		c0,0.1-0.1,0.1-0.1,0.2s-0.2,0.1-0.2,0.2s0,0.2,0,0.3c0,0.1-0.1,0.1-0.1,0.2c-0.1,0-0.1-0.1-0.2,0c0,0.1-0.1,0.2-0.1,0.3
		c0,0.1,0.1,0.2,0.1,0.3c0,0.1,0.2,0.2,0.2,0.3c0,0.1-0.1,0.2-0.1,0.3c0,0.1,0.2,0.2,0.2,0.3c0,0.1-0.1,0.2,0,0.3
		c0,0.1-0.1,0.2,0,0.3c0,0.1,0.2,0.2,0.2,0.2c0,0.1,0.1,0.2,0.1,0.3c0,0.1,0,0.2,0,0.3c0.1,0,0.1,0.2,0.2,0.2s0.1,0,0.3-0.1
		c0.1,0,0.1,0.1,0.3,0.1c0.1,0,0.1,0,0.3,0c0.1,0,0.1-0.1,0.3-0.1c0.1,0,0.1,0,0.3,0c0.1,0,0.1,0,0.3,0c0.1,0,0.1-0.1,0.3,0
		c-0.1,0.1-0.3,0-0.3,0.1s-0.1,0.2-0.1,0.3c-0.1,0.1,0.1,0.3,0,0.4s-0.2,0-0.3,0.1c-0.2,0-0.1,0.1-0.3,0.1c-0.2,0-0.1,0.2-0.3,0.2
		c-0.2,0-0.2-0.2-0.3-0.2c-0.2,0-0.2,0-0.3,0.1c0,0.1,0.1,0.3,0.1,0.4s-0.1,0.2,0,0.3c0,0.1,0.1,0.2,0.2,0.3c0,0.1,0,0.2,0,0.3
		c0,0.1,0.2,0.1,0.2,0.2s0.2,0.1,0.2,0.2s-0.1,0.2,0,0.3c0,0.1,0.1,0.2,0.1,0.3c0,0.1-0.1,0.2-0.1,0.3c0,0.1,0.3,0.1,0.4,0.2
		c0,0.1,0,0.1,0,0.2c0-0.1,0,0,0.1,0s0.1,0,0.3,0c0.1,0,0.1,0.1,0.3,0.1c0.1,0,0.1-0.2,0.3-0.2c0.1,0,0.2,0.1,0.3,0.1
		c0.1,0,0.1-0.1,0.3-0.1c0.1,0,0.1,0.1,0.3,0.1c0.1,0,0.1-0.2,0.3-0.2c0.1,0,0.2,0.1,0.3,0.1c0.1,0,0.1,0,0.3,0.1
		c-0.1,0.1-0.2,0.1-0.2,0.1c-0.1,0.1,0,0.2-0.1,0.3c-0.1,0.1,0,0.2-0.1,0.3c-0.1,0.1-0.2,0.1-0.3,0.2c-0.1,0-0.1,0.2-0.3,0.2
		c-0.1,0-0.2-0.1-0.3-0.1c-0.1,0-0.2-0.1-0.3-0.1c-0.1,0-0.1,0-0.3,0c-0.1,0-0.1,0.2-0.3,0.2c-0.1,0-0.2-0.1-0.3,0
		c0,0.1,0,0.2,0,0.3c0,0.1,0.1,0.2,0.2,0.2c0,0.1,0.1,0.2,0.1,0.3c0,0.1,0,0.2,0,0.3c0,0.1,0.1,0.2,0.1,0.3c0,0.1,0.3,0.1,0.3,0.2
		s0,0.2,0,0.3c0,0.1,0.2,0.1,0.3,0.2c0,0.1-0.2,0.3-0.1,0.4c0,0.1,0.3,0.1,0.4,0.1c0,0.1,0,0.2,0.1,0.3c0,0.1,0,0.1,0,0.2
		c0.1-0.1,0.2,0,0.3-0.1c0.1,0,0.1,0,0.2,0s0.1,0,0.3,0c0.1,0,0.1,0,0.3-0.1C23,94.5,23,94.5,23.1,94.5c0.2,0,0.2,0,0.4,0
		c0.1,0,0.1-0.3,0.3-0.3c0.1,0,0.1-0.1,0.3-0.1c0.1,0,0.1,0.1,0.3,0c0.1,0,0.1,0,0.3,0.1c-0.1,0.1-0.1,0.2-0.1,0.3
		c-0.1,0.1-0.3,0-0.4,0.1s-0.1,0.2-0.2,0.3c-0.1,0.1,0,0.1-0.1,0.2C23.2,94.3,23.3,94.4,23.1,94.5z M96.6,68.1
		c-0.1,0.1-0.3,0-0.3,0.1c0-0.1,0.2,0.1,0.2,0.1c0.1,0,0,0,0.1,0C96.6,68.2,96.6,68.1,96.6,68.1z M94,50.4
		C93.9,50.4,94,50.5,94,50.4c-0.1,0,0,0,0-0.1c0-0.1-7-0.6-7-0.7c0.1,0,0.2-0.2,0.2-0.2c0.1,0,0.2,0,0.3,0c0.1,0,0.2,0,0.3,0
		c0,0.1,0.1,0.2,0.1,0.2c0,0.1-0.3,0.2-0.3,0.2c0,0.1,6.7,0.5,6.7,0.6c-0.1,0,0-0.1,0-0.1C94.1,50.4,94.1,50.4,94,50.4z M101.4,61.2
		L101.4,61.2h0.2c0,0,0,0.1,0,0C101.5,61.2,101.4,61.2,101.4,61.2z M101.3,67.5c0,0.1,0,0.2,0,0.3c0,0.1,0.3,0.2,0.3,0.2
		c0,0.1,0,0.2,0.1,0.3c-0.1,0-0.3,0-0.4,0.1c0-0.1,0.1-0.2,0.1-0.3c0-0.1-0.1-0.2-0.1-0.3c0-0.1,0.3-0.2,0.3-0.3
		c0-0.1-0.1-0.1-0.1-0.2c0,0-0.2,0-0.1,0C101.3,67.4,101.3,67.4,101.3,67.5z M107.8,74.8c-0.1,0-0.3-0.1-0.4,0
		c0.1-0.1,0.2-0.2,0.3-0.3c0-0.1,0-0.2,0.1-0.2s0.1,0.1,0.1,0c0.1,0.1,0.1,0.2,0.1,0.3c0,0.1,0.1-0.1,0.1,0
		C107.9,74.5,107.9,74.8,107.8,74.8z M91.2,55.2c0-0.1,0.1-0.2,0.1-0.2c0.1,0,0.2-0.1,0.3-0.1c0,0.1-0.2,0.2-0.2,0.3s0.1,0.1,0,0.1
		s0.1,0,0,0C91.4,55.3,91.2,55.3,91.2,55.2z M91.3,50.2L91,50.1c0,0,0.1-0.2,0.1-0.1C91.1,50,91.3,50.3,91.3,50.2z M76.7,61.9
		c0-0.1-0.3-0.2-0.3-0.3s0-0.3-0.1-0.4h0.2c0,0.1-0.1,0.2-0.1,0.3C76.6,61.6,76.6,61.7,76.7,61.9c-0.1,0.1-0.3,0.2-0.3,0.3
		c0,0,0-0.1,0,0l0.3,0.1C76.7,62.1,76.7,62,76.7,61.9z M76.4,50.1c0-0.1-0.1-0.2-0.1-0.3c0.1,0,0.2-0.1,0.3-0.2c0.1,0,0.3,0,0.4,0
		c0,0.1-0.1,0.3-0.1,0.4c0,0.1,0.1,0.3,0.1,0.4c0,0-0.1-0.2-0.2-0.2s-0.1,0-0.3,0c-0.1,0-0.1,0-0.2,0C76.3,50.1,76.4,50.2,76.4,50.1
		z M72.4,38C72.4,37.9,72.5,38.1,72.4,38C72.5,38.1,72.3,38,72.4,38v-0.2C72.3,37.8,72.4,37.9,72.4,38z M70.9,42.6
		c0.2,0,0.2-0.1,0.4-0.1s0.2,0.1,0.3,0.1c0.2,0,0.2,0.1,0.3,0.1c0,0.1-0.1,0.2-0.1,0.2c-0.1,0-0.2-0.2-0.3-0.2c-0.1,0-0.1,0-0.3,0
		c-0.1,0-0.1,0-0.2,0C71,42.7,70.9,42.7,70.9,42.6z M66.5,55.2c0,0,0.2,0.1,0.3,0.1L66.7,55C66.7,55,66.5,55.1,66.5,55.2z
		 M66.3,50.2c0.1,0,0.2,0.2,0.3,0.2v-0.3C66.4,50.1,66.4,50.1,66.3,50.2C66.3,50.1,66.3,50.2,66.3,50.2z M56.6,55
		c0.1,0,0.2,0.2,0.3,0.2l-0.1-0.3C56.6,55,56.7,55,56.6,55C56.6,55,56.6,55.1,56.6,55z M56.5,44c-0.1,0.1,0,0-0.2,0
		C56.4,43.9,56.4,44,56.5,44c0-0.1,0-0.2,0.1-0.2c0.1-0.1,0.2-0.1,0.3-0.1c0.1-0.1,0.2,0,0.3-0.1c0,0.1,0.1,0.2,0.1,0.2
		c0,0.1-0.2,0.1-0.2,0.2l0,0c-0.1,0-0.1,0-0.3,0C56.7,44,56.7,44,56.5,44z M46.3,48.9c0,0,0.1-0.2,0.2-0.2c0.2,0,0.2,0.1,0.3,0.1
		c0.2,0,0.2,0.1,0.3,0.1v0.2c-0.1,0-0.2-0.2-0.3-0.2s-0.1,0-0.2,0C46.5,48.8,46.5,48.8,46.3,48.9C46.4,48.8,46.3,48.9,46.3,48.9z
		 M46.2,44.1c0.2,0,0.2,0.1,0.3,0.1s0.2-0.1,0.3-0.1c0,0,0-0.1,0,0c-0.2,0-0.1,0-0.3,0C46.3,44,46.3,44,46.2,44.1
		C46.2,44,46.2,44.1,46.2,44.1z M41.6,49.1c0-0.1-0.1-0.1-0.1-0.2c0.1,0,0.1-0.2,0.2-0.2s0.1-0.1,0.2-0.1c0.1,0,0.2,0,0.3,0.1
		c0,0.1,0,0.2,0,0.3s0.1,0.2,0.1,0.3c-0.1,0-0.3-0.2-0.4-0.1c-0.1,0-0.2,0.1-0.2,0.1c-0.1,0,0,0.1,0,0
		C41.5,49.2,41.6,49.2,41.6,49.1z M36.6,49.1C36.7,49.1,36.5,49,36.6,49.1C36.6,49.2,36.5,49,36.6,49.1C36.5,49,36.6,49.2,36.6,49.1
		z M32,73.5c0,0.1-0.1,0.1-0.1,0.2s-0.1,0.3-0.1,0.4c-0.2,0.1-0.2,0-0.4,0c-0.2,0-0.2,0-0.3-0.1c0.1-0.1,0-0.2,0.1-0.3
		c0.1-0.1,0.3,0,0.4-0.1s0.1-0.1,0.1-0.2v0.1C31.7,73.5,31.8,73.6,32,73.5z M31.2,80.9c-0.1,0-0.2,0.1-0.3,0.1
		c-0.1,0-0.2,0.1-0.3,0.1c-0.1,0-0.1,0-0.2,0.1c0-0.1,0,0,0-0.1s0.1-0.2,0.2-0.3c0.2,0,0.2,0.1,0.3,0C31.1,80.9,31.1,81,31.2,80.9
		c0.2,0.1,0.2,0,0.4,0c0.2,0,0.2,0.2,0.3,0.2c0,0.1,0-0.2,0-0.2c-0.2,0-0.2,0-0.3,0C31.5,80.9,31.3,80.9,31.2,80.9z M22.4,82.7
		c-0.1,0.1-0.1-0.1-0.3-0.1c-0.1,0-0.1,0-0.3,0c-0.1,0-0.1,0.2-0.3,0.3c-0.1,0-0.1-0.1-0.3-0.1c-0.1,0-0.1,0.2-0.3,0.2
		c-0.1,0-0.2-0.3-0.3-0.2c-0.1,0-0.2,0.3-0.3,0.3c0.1-0.1,0.1-0.4,0.1-0.5c0.1-0.1,0.2-0.1,0.2-0.2c0.1-0.1,0.3,0,0.4-0.1
		s0-0.1,0.1-0.2c0.1,0,0.1,0,0.2,0s0.1,0,0.3-0.1c0.1,0,0.1,0,0.3,0c0.1,0,0.1,0,0.3,0c0.1,0,0.1-0.3,0.2-0.3s0.1-0.1,0.3-0.1
		c0.1,0,0.1,0.1,0.3,0c0.1,0,0.1,0,0.3,0.1c-0.1,0.1,0,0.2-0.1,0.3c-0.1,0.1-0.3,0-0.4,0.1s-0.1,0.2-0.2,0.3c-0.1,0.1,0,0.1-0.1,0.2
		C22.5,82.5,22.5,82.6,22.4,82.7z M19.8,78.2c0.1-0.1,0.1-0.2,0.2-0.2s0.2,0.1,0.3,0.1c0.1,0,0.1-0.2,0.3-0.2c0.1,0,0.2,0.3,0.3,0.2
		c0.1,0,0.1-0.3,0.3-0.3c0.1,0,0.2,0,0.3,0c-0.1,0.1-0.1,0.3-0.1,0.4s-0.3,0-0.4,0.1s-0.1,0.2-0.2,0.3c-0.1,0.1,0,0.1-0.1,0.2
		c-0.1,0-0.1,0-0.3,0.1c-0.2,0-0.2,0-0.3,0c-0.2,0-0.2,0-0.3,0c-0.2,0-0.1,0.3-0.3,0.3c-0.2,0-0.1,0.1-0.3,0.1c-0.2,0-0.2-0.1-0.3,0
		c-0.2,0-0.2,0-0.3-0.1c0.1-0.1,0.1-0.2,0.1-0.3c0.1-0.1,0.3,0,0.4-0.1s0.1-0.2,0.2-0.3c0.1-0.1,0-0.1,0.1-0.2
		C19.6,78.2,19.6,78.2,19.8,78.2z M22.2,70.2c0,0.1,0,0.1,0,0.2c-0.1,0.1-0.1,0.1-0.2,0.2s0.1,0.3,0,0.4c-0.1,0-0.1,0.1-0.3,0.1
		c-0.1,0-0.2,0-0.3-0.1c0-0.1,0.1-0.3,0.1-0.4s0-0.2,0-0.3c0-0.1,0.2,0,0.2-0.1c0.1-0.1,0.1,0,0.2,0S22,70.2,22.2,70.2
		C22.2,70.2,22.1,70.1,22.2,70.2z M23.7,74.4c0,0,0,0.1,0,0.2c-0.1,0-0.1,0.3-0.3,0.3c-0.1,0-0.1-0.1-0.3,0c-0.1,0-0.1,0-0.3,0
		c-0.1,0-0.2-0.2-0.3-0.2c-0.1,0-0.1,0-0.3,0c-0.1,0-0.1,0-0.3,0c-0.1,0-0.1,0.1-0.2,0.1c0.1-0.1,0.2,0,0.3,0
		c0.1-0.1,0.1-0.1,0.2-0.2s-0.1-0.3,0-0.4s0.1-0.3,0.2-0.3c0.2,0,0.2,0.1,0.4,0c0.2,0,0.2,0.1,0.3,0.1c0.2,0,0.2-0.1,0.3-0.1
		c0,0.1-0.1,0.3,0,0.4c0,0.1,0.1,0.2,0.2,0.3c0,0.1,0.1,0.2,0.2,0.3C23.7,74.7,23.6,74.5,23.7,74.4z M24.5,77.7
		c0.1-0.1,0.1-0.2,0.2-0.2s0.2,0.1,0.3,0.1c0.1,0,0.1-0.2,0.3-0.2c0.1,0,0.2,0.3,0.3,0.2c0.1,0,0.1-0.3,0.3-0.3c0.1,0,0.2,0,0.3,0
		c-0.1,0.1-0.1,0.3-0.1,0.4c-0.1,0.1-0.3,0-0.4,0.1s-0.1,0.2-0.2,0.3c-0.1,0.1,0,0.1-0.1,0.2c-0.1,0-0.1,0-0.2,0.1
		c-0.1,0-0.1,0-0.3,0c-0.1,0-0.1,0-0.3,0c-0.1,0-0.1,0.3-0.3,0.3c-0.1,0-0.1,0.1-0.3,0.1c-0.1,0-0.1-0.1-0.3,0c-0.1,0-0.1,0-0.3-0.1
		c0.1-0.1,0.1-0.2,0.1-0.3c0.1-0.1,0.3,0,0.4-0.1s0.1-0.2,0.2-0.3c0.1-0.1,0-0.1,0.1-0.2C24.4,77.8,24.4,77.8,24.5,77.7z M25.5,82.3
		c0.1-0.1-0.1-0.3,0-0.4s0.2-0.1,0.3-0.2c0.1-0.1,0.1-0.3,0.1-0.4c0.1,0,0.2,0.2,0.3,0.2c0.1,0,0.1-0.3,0.3-0.3c0.1,0,0.2,0.1,0.3,0
		c0.1,0,0.1,0,0.3,0c0.1,0,0.2,0.2,0.3,0.2c0.1,0,0.1,0,0.3,0c0.1,0,0.1-0.1,0.2,0c-0.1,0.1-0.2-0.1-0.2,0c-0.1,0.1-0.1,0.2-0.2,0.2
		c-0.1,0.1-0.1,0.1-0.2,0.2s0.1,0.3,0,0.4c-0.1,0-0.2,0.1-0.3,0.1c-0.1,0-0.2-0.1-0.3,0c-0.1,0-0.2-0.1-0.3-0.1
		c-0.1,0-0.1,0.1-0.3,0.1c-0.1,0-0.2-0.2-0.3-0.2C25.6,82.2,25.6,82.2,25.5,82.3c-0.2,0-0.1,0-0.2,0C25.3,82.2,25.4,82.4,25.5,82.3z
		 M27,61.6c0,0.1-0.3,0.1-0.3,0.2H27C27.1,61.8,27.1,61.8,27,61.6C27.1,61.7,27,61.7,27,61.6z M27,69.8c0,0.1,0,0.1,0,0.2
		c-0.1,0.1,0.1,0.3,0,0.4s-0.2,0.3-0.2,0.3c-0.1,0-0.2,0-0.4,0c0-0.1,0.1-0.3,0.1-0.4s-0.1-0.2,0-0.3c0-0.1,0.2,0,0.2-0.1
		C26.8,69.8,26.7,69.9,27,69.8C27,69.7,27,69.6,27,69.8C27.1,69.7,27,69.7,27,69.8z M28.5,74.2l0.1,0.2c-0.1,0-0.2-0.1-0.3,0
		c-0.2,0-0.2,0-0.3,0c-0.1,0-0.2-0.2-0.3-0.2c-0.1,0-0.1,0-0.3,0c-0.1,0-0.1,0-0.3,0c-0.1,0-0.1,0-0.3,0.1c-0.1,0-0.1,0.1-0.3,0
		c0.1-0.1,0.2,0.1,0.3,0c0.1-0.1-0.1-0.3,0-0.4s0.1-0.2,0.1-0.3c0-0.1,0.2-0.1,0.2-0.2c0.2,0,0.2,0,0.4,0.1c0.2,0,0.2,0,0.3,0.1
		s0,0.3,0.1,0.4c0.1,0,0.1,0,0.3,0.1c0.1,0,0.1-0.1,0.1-0.1C28.3,74.1,28.4,74.1,28.5,74.2z M29.1,77.5c0,0.1,0.1,0.2,0.1,0.3
		c0,0.1,0.1,0,0.2,0.1c-0.1,0.1-0.1,0-0.3,0c-0.2,0-0.1,0.3-0.3,0.3c-0.2,0-0.2,0.1-0.3,0.1c-0.2,0-0.2,0-0.3,0
		c0.1-0.1,0.2-0.2,0.2-0.3c0.1-0.1,0-0.2,0.1-0.3c0.1-0.1,0.3,0,0.4-0.1c0-0.1,0-0.1,0-0.1c0.2,0,0.1-0.1,0.3,0
		C29.2,77.5,29.1,77.4,29.1,77.5z"/>
	<path class="st5" d="M40.8,106.1c0,0.2,0,0.2,0,0.4c0,0.2,0.1,0.2,0.1,0.4c0,0.2,0.1,0.2,0.1,0.4c0.1,0.2,0,0.2,0.1,0.4
		c0.1,0.2,0.1,0.2,0.2,0.4c0.1,0.2,0.1,0.2,0.2,0.4c0.1,0.2,0.1,0.2,0.2,0.3c0.1,0.2,0.1,0.2,0.2,0.3c0.1,0.2,0.1,0.2,0.2,0.3
		c0.1,0.1,0.2,0.1,0.3,0.3c0.1,0.1,0.1,0.1,0.3,0.3c0.1,0.1,0.1,0.1,0.3,0.2s0.2,0.1,0.3,0.2c0.2,0.1,0.1,0.1,0.3,0.2
		s0.2,0.1,0.4,0.2s0.2,0,0.4,0.1s0.2,0.1,0.4,0.2c0.2,0,0.2,0,0.4,0s0.2,0,0.4,0s0.2,0,0.4,0s0.2,0,0.4,0s0.2,0,0.4-0.1
		c0.2,0,0.2,0,0.4-0.1c0.2,0,0.2,0,0.4-0.1s0.2-0.1,0.4-0.1c0.2-0.1,0.2-0.1,0.4-0.2s0.2-0.1,0.3-0.2c0.2-0.1,0.2-0.1,0.3-0.2
		c0.2-0.1,0.2-0.1,0.3-0.2s0.1-0.2,0.3-0.3c0.1-0.1,0.2-0.1,0.3-0.3c0.1-0.1,0.1-0.2,0.2-0.3c0.1-0.2,0.2-0.1,0.3-0.3
		c0.1-0.2,0.1-0.2,0.2-0.4c0.1-0.2,0.1-0.2,0.2-0.3c0.1-0.2,0.1-0.2,0.1-0.4c0.1-0.2,0.1-0.2,0.1-0.4c0.1-0.2,0.1-0.2,0.1-0.4
		c0-0.2,0-0.2,0-0.4c0-0.2,0.1-0.2,0.1-0.4c0-0.2,0-0.2,0-0.4c0-0.2,0-0.2,0-0.4c0-0.2,0-0.2,0-0.4c0-0.2-0.1-0.2-0.1-0.4
		c0-0.2,0-0.2,0-0.4c0-0.2-0.1-0.2-0.1-0.4c-0.1-0.2-0.1-0.2-0.1-0.4c-0.1-0.2-0.1-0.2-0.2-0.3c-0.1-0.2-0.1-0.2-0.2-0.3
		c-0.1-0.2,0-0.2-0.2-0.4s-0.2-0.1-0.3-0.2s-0.1-0.2-0.2-0.3c-0.1-0.1-0.1-0.1-0.3-0.3c-0.2-0.1-0.2-0.1-0.3-0.2
		c-0.2-0.1-0.1-0.2-0.3-0.3c-0.2-0.1-0.2,0-0.4-0.1s-0.2-0.1-0.3-0.2c-0.2-0.1-0.2-0.1-0.4-0.1c-0.2-0.1-0.2,0-0.4-0.1
		c-0.2,0-0.2-0.1-0.4-0.1s-0.2,0-0.4-0.1c-0.2,0-0.2,0-0.4,0s-0.2,0-0.4,0s-0.2,0-0.4,0s-0.2,0-0.4,0.1c-0.2,0-0.2,0.1-0.4,0.1
		c-0.2,0.1-0.2,0.1-0.4,0.1c-0.2,0.1-0.2,0-0.4,0.1s-0.2,0.1-0.3,0.2c-0.2,0.1-0.2,0.1-0.3,0.2c-0.2,0.1-0.2,0.1-0.3,0.2
		c-0.2,0.1-0.2,0.1-0.3,0.2s-0.2,0.1-0.3,0.3c-0.1,0.1-0.1,0.2-0.2,0.3c-0.1,0.2-0.1,0.2-0.2,0.3c-0.1,0.2-0.1,0.2-0.2,0.3
		c-0.1,0.2-0.1,0.2-0.2,0.3c-0.1,0.2-0.1,0.2-0.1,0.4c-0.1,0.2-0.1,0.2-0.1,0.4c-0.1,0.2-0.1,0.2-0.1,0.4c-0.1,0.2-0.1,0.2-0.1,0.4
		c0,0.2,0,0.2,0,0.4c0,0.2,0,0.2-0.1,0.4C40.7,105.9,40.8,105.9,40.8,106.1z"/>
	<path class="st5" d="M82.1,106.9c0,0.2,0,0.2,0,0.4c0,0.2,0.1,0.2,0.1,0.4c0,0.2,0.1,0.2,0.1,0.4c0.1,0.2,0,0.2,0.1,0.4
		c0.1,0.2,0.1,0.2,0.2,0.4c0.1,0.2,0.1,0.2,0.2,0.4c0.1,0.2,0.1,0.2,0.2,0.3c0.1,0.2,0.1,0.2,0.2,0.3c0.1,0.2,0.1,0.2,0.2,0.3
		c0.1,0.1,0.2,0.1,0.3,0.3c0.1,0.1,0.1,0.1,0.3,0.3s0.1,0.1,0.3,0.2c0.2,0.1,0.2,0.1,0.3,0.2c0.2,0.1,0.1,0.1,0.3,0.2
		c0.2,0.1,0.2,0.1,0.4,0.2c0.2,0.1,0.2,0,0.4,0.1c0.2,0.1,0.2,0.1,0.4,0.2c0.2,0,0.2,0,0.4,0c0.2,0,0.2,0,0.4,0c0.2,0,0.2,0,0.4,0
		c0.2,0,0.2,0,0.4,0c0.2,0,0.2,0,0.4-0.1c0.2,0,0.2,0,0.4-0.1c0.2,0,0.2,0,0.4-0.1c0.2-0.1,0.2-0.1,0.4-0.1c0.2-0.1,0.2-0.1,0.4-0.2
		c0.2-0.1,0.2-0.1,0.3-0.2c0.2-0.1,0.2-0.1,0.3-0.2c0.2-0.1,0.2-0.1,0.3-0.2c0.1-0.1,0.1-0.2,0.3-0.3c0.1-0.1,0.2-0.1,0.3-0.3
		c0.1-0.1,0.1-0.2,0.2-0.3c0.1-0.2,0.2-0.1,0.3-0.3c0.1-0.2,0.1-0.2,0.2-0.4c0.1-0.2,0.1-0.2,0.2-0.3c0.1-0.2,0.1-0.2,0.1-0.4
		c0.1-0.2,0.1-0.2,0.1-0.4c0.1-0.2,0.1-0.2,0.1-0.4c0-0.2,0-0.2,0-0.4c0-0.2,0.1-0.2,0.1-0.4c0-0.2,0-0.2,0-0.4c0-0.2,0-0.2,0-0.4
		c0-0.2,0-0.2,0-0.4c0-0.2-0.1-0.2-0.1-0.4c0-0.2,0-0.2,0-0.4c0-0.2-0.1-0.2-0.1-0.4c-0.1-0.2-0.1-0.2-0.1-0.4
		c-0.1-0.2-0.1-0.2-0.2-0.3c-0.1-0.2-0.1-0.2-0.2-0.3c-0.1-0.2,0-0.2-0.2-0.4c-0.1-0.2-0.2-0.1-0.3-0.2c-0.1-0.1-0.1-0.2-0.2-0.3
		c-0.1-0.1-0.1-0.1-0.3-0.3c-0.2-0.1-0.2-0.1-0.3-0.2c-0.2-0.1-0.1-0.2-0.3-0.3c-0.2-0.1-0.2,0-0.4-0.1c-0.2-0.1-0.2-0.1-0.3-0.2
		c-0.2-0.1-0.2-0.1-0.4-0.1c-0.2-0.1-0.2,0-0.4-0.1c-0.2,0-0.2-0.1-0.4-0.1c-0.2,0-0.2,0-0.4-0.1c-0.2,0-0.2,0-0.4,0
		c-0.2,0-0.2,0-0.4,0c-0.2,0-0.2,0-0.4,0c-0.2,0-0.2,0-0.4,0.1c-0.2,0-0.2,0.1-0.4,0.1c-0.2,0.1-0.2,0.1-0.4,0.1
		c-0.2,0.1-0.2,0-0.4,0.1c-0.2,0.1-0.2,0.1-0.3,0.2c-0.2,0.1-0.2,0.1-0.3,0.2c-0.2,0.1-0.2,0.1-0.3,0.2c-0.2,0.1-0.2,0.1-0.3,0.2
		c-0.1,0.1-0.2,0.1-0.3,0.3c-0.1,0.1-0.1,0.2-0.2,0.3c-0.1,0.2-0.1,0.2-0.2,0.3c-0.1,0.2-0.1,0.2-0.2,0.3c-0.1,0.2-0.1,0.2-0.2,0.3
		c-0.1,0.2-0.1,0.2-0.1,0.4c-0.1,0.2-0.1,0.2-0.1,0.4c-0.1,0.2-0.1,0.2-0.1,0.4c-0.1,0.2-0.1,0.2-0.1,0.4c0,0.2,0,0.2,0,0.4
		c0,0.2,0,0.2-0.1,0.4C82,106.8,82,106.8,82.1,106.9z"/>
	<g>
		<g>
			<path class="st3" d="M35,112.1c2,3,4.7,5.5,7.6,7.7c2.9,2.2,6,4.1,9.3,5.5c3.3,1.5,6.9,2.5,10.5,2.9c3.6,0.4,7.3,0.3,10.9-0.4
				c3.6-0.7,7-2,10.2-3.7s6.3-3.8,8.8-6.5c1.3-1.3,2.4-2.8,3.3-4.5c0.9-1.6,1.6-3.4,2-5.2c0.4-1.8,0.6-3.7,0.5-5.5
				c0-0.9-0.1-1.8-0.3-2.7c-0.2-0.9-0.4-1.8-0.7-2.7c-0.1-0.3-0.4-0.4-0.7-0.3c-0.3,0.1-0.4,0.4-0.4,0.7l0,0
				c0.2,0.8,0.3,1.7,0.4,2.5c0.1,0.9,0.1,1.7,0.1,2.6c0,1.7-0.3,3.4-0.7,5c-0.9,3.3-2.6,6.3-5,8.7c-2.3,2.5-5.2,4.4-8.3,6
				c-3.1,1.6-6.3,2.8-9.7,3.5c-3.4,0.7-6.8,0.8-10.3,0.5c-3.4-0.4-6.8-1.3-10-2.7c-3.2-1.4-6.2-3.1-9-5.2c-1.4-1-2.7-2.2-4-3.3
				c-1.3-1.2-2.5-2.4-3.8-3.6l0,0c-0.2-0.2-0.6-0.2-0.8,0C34.9,111.6,34.9,111.9,35,112.1z"/>
		</g>
	</g>
	<g>
		<g>
			<path class="st3" d="M49.3,53.5c-0.3,0.7-0.1,1.3,0.2,1.9c0.1,0.3,0.3,0.5,0.4,0.8c0.1,0.3,0.3,0.5,0.5,0.8
				c0.7,1,1.4,1.9,2.2,2.8c0.4,0.5,0.7,0.9,1.1,1.4c0.4,0.4,0.7,0.9,1.2,1.3c0.4,0.4,0.8,0.9,1.2,1.3s0.9,0.8,1.3,1.2
				c0.4,0.4,1,0.7,1.4,1l0.7,0.5c0.3,0.2,0.5,0.3,0.8,0.4l1.5,0.9c0.5,0.3,1.1,0.5,1.6,0.8c0.3,0.1,0.5,0.3,0.8,0.4s0.5,0.3,0.8,0.4
				c0.5,0.3,1,0.6,1.6,0.9c0.3,0.1,0.5,0.2,0.8,0.3c0.3,0.1,0.6,0.2,0.9,0.2c0.6,0.1,1.2,0.1,1.8,0c0.1,0,0.2-0.2,0.2-0.3
				c0,0,0-0.1-0.1-0.1l0,0c-0.9-1-2-1.2-3.1-1.5c-0.5-0.2-1.1-0.3-1.7-0.4c-0.3-0.1-0.6-0.1-0.8-0.2c-0.3-0.1-0.5-0.2-0.8-0.4
				c-0.5-0.2-1-0.5-1.6-0.8l-1.5-0.9c-0.2-0.2-0.5-0.3-0.7-0.5l-0.7-0.5l-0.7-0.5c-0.2-0.2-0.5-0.3-0.7-0.5c-1.8-1.4-3.5-3-4.8-4.9
				c-0.7-0.9-1.2-2-1.6-3c-0.2-0.5-0.5-1-0.7-1.5c-0.1-0.3-0.2-0.5-0.4-0.8c-0.2-0.2-0.4-0.5-0.7-0.6l0,0
				C49.5,53.3,49.4,53.4,49.3,53.5L49.3,53.5z"/>
		</g>
	</g>
	<g>
		<g>
			<path class="st3" d="M53.6,51.4c-0.1,0.8,0.2,1.4,0.6,2c0.3,0.6,0.7,1.2,1.1,1.7c0.8,1.1,1.7,2.2,2.5,3.2
				c1.6,2.2,3.1,4.4,4.9,6.5c1.8,2,3.9,3.9,5.9,5.7c1.1,0.8,2,1.9,3.1,2.8s2.3,1.6,3.8,1.7c0.1,0,0.2-0.1,0.2-0.2s0-0.1,0-0.1l0,0
				c-0.9-1.2-2-1.8-3.1-2.5c-1.2-0.6-2.4-1.3-3.4-2.1c-2.1-1.7-3.9-3.7-5.7-5.7c-1.7-2-3.6-4-5.1-6.3c-0.7-1.1-1.4-2.3-2-3.5
				c-0.2-0.3-0.3-0.6-0.5-0.9c-0.2-0.3-0.3-0.6-0.5-0.9c-0.3-0.6-0.7-1.2-1.4-1.5l0,0C53.8,51.1,53.6,51.2,53.6,51.4
				C53.6,51.3,53.6,51.4,53.6,51.4z"/>
		</g>
	</g>
	<g>
		<g>
			<path class="st3" d="M33.2,96.7c-0.2-1-0.8-1.8-1.4-2.6c-0.6-0.8-1.4-1.5-2.4-1.9L29,92.1c-0.1,0-0.3-0.1-0.4-0.1
				c-0.3-0.1-0.5-0.1-0.8-0.1c-0.5,0-1.1,0.2-1.5,0.4c-1,0.4-1.8,1-2.4,1.8c-0.7,0.8-1.1,1.8-1.3,2.8c-0.2,1,0,2.1,0.3,3
				c0.7,1.9,2,3.4,3.6,4.5c0.1,0.1,0.3,0.1,0.4-0.1c0.1-0.1,0.1-0.3,0-0.4l0,0c-1.2-1.4-2.4-2.8-3-4.4c-0.3-0.8-0.4-1.7-0.2-2.5
				c0.1-0.8,0.5-1.6,1.1-2.3c1.1-1.3,2.8-2.3,4.3-1.6c0.8,0.3,1.4,0.9,2,1.6s1,1.5,1.6,2.2l0,0c0.1,0.1,0.3,0.2,0.4,0.1
				C33.2,96.9,33.3,96.8,33.2,96.7z"/>
		</g>
	</g>
	<path class="st6" d="M73.6,135.4"/>
	<path class="st6" d="M66.3,128.4"/>
	<g>
		<g>
			<path class="st3" d="M69.8,100.4c-0.2,0-0.2,0-0.2,0.1l-0.1,0.1c-0.1,0.1-0.1,0.2-0.2,0.3c0,0.1-0.1,0.2-0.1,0.3
				c0,0.1-0.1,0.2,0.1,0.4c0.1,0.2,0.3,0.2,0.5,0.2s0.3-0.1,0.3-0.2c0.1-0.1,0.1-0.2,0.1-0.3c0-0.1,0.1-0.2,0.1-0.3v-0.2
				c0-0.1,0.1-0.1-0.1-0.2C70.1,100.5,69.9,100.4,69.8,100.4z"/>
		</g>
	</g>
	<path class="st3" d="M77.6,93.9c0,0.1,0,0.1,0.1,0.3c0,0.1,0,0.1,0,0.3c0,0.1,0,0.1,0,0.3c0,0.1,0,0.1,0,0.3c0,0.1,0,0.1,0.1,0.3
		c0,0.1,0,0.1,0.1,0.3c0,0.1,0,0.1,0,0.3c0,0.1,0,0.1,0.1,0.3c0,0.1,0,0.1,0.1,0.3c0.1,0.1,0.1,0.1,0.1,0.3c0.1,0.1,0,0.1,0.1,0.3
		c0.1,0.1,0.1,0.1,0.1,0.3c0.1,0.1,0.1,0.1,0.1,0.3c0.1,0.1,0.1,0.1,0.2,0.2s0.1,0.1,0.2,0.2s0.1,0.1,0.2,0.2s0.1,0.1,0.2,0.2
		s0.1,0.1,0.2,0.2s0.1,0,0.3,0.1c0.1,0,0.1,0,0.3,0c0.1,0,0.2,0,0.3,0c0.1,0,0.2,0,0.3-0.1c0.1-0.1,0.1-0.1,0.3-0.2
		c0.1-0.1,0.1-0.1,0.2-0.2s0.1-0.1,0.2-0.2s0.1-0.1,0.2-0.2s0-0.2,0.1-0.3c0.1-0.1,0.1-0.1,0.2-0.3C82,97.1,82,97.1,82,97
		s0.1-0.1,0.1-0.3c0-0.1,0-0.1,0-0.3c0-0.1,0-0.1,0.1-0.3c0-0.1,0-0.1,0.1-0.3c0-0.1,0-0.2,0-0.3c0-0.1,0-0.1,0.1-0.3
		c0-0.1,0-0.1,0-0.3c0-0.1,0-0.1,0-0.3c0-0.2,0-0.2,0-0.3c0-0.1,0-0.1,0-0.3c0-0.2,0-0.2,0-0.3c0-0.2,0-0.1,0-0.3c0-0.2,0-0.2,0-0.3
		c0-0.2,0-0.2,0-0.3c0-0.2,0-0.2,0-0.3c0-0.2,0-0.2,0-0.3c0-0.2-0.1-0.1-0.1-0.3c0-0.2,0-0.2,0-0.3c0-0.2,0-0.2-0.1-0.3
		c0-0.1,0-0.1-0.1-0.3c0-0.1,0-0.1-0.1-0.3c0-0.1,0-0.2,0-0.3c-0.1-0.1-0.1-0.1-0.2-0.3c-0.1-0.1,0-0.2-0.1-0.3
		c-0.1-0.1-0.1-0.1-0.2-0.3c-0.1-0.1,0-0.2-0.1-0.3c-0.1-0.1-0.1-0.1-0.3-0.2c-0.1-0.1-0.1-0.1-0.2-0.2s-0.1-0.1-0.2-0.2
		s-0.1-0.1-0.3-0.1c-0.1,0-0.1,0-0.3,0c-0.2,0-0.2,0-0.3,0c-0.2,0-0.2,0-0.3,0c-0.2,0-0.2,0-0.3,0.1c-0.1,0-0.1,0.1-0.3,0.2
		c-0.1,0.1-0.2,0-0.3,0.1c-0.1,0.1-0.1,0.1-0.2,0.2s-0.1,0.1-0.2,0.2s0,0.1-0.1,0.3c-0.1,0.1-0.1,0.1-0.2,0.3
		c-0.1,0.1,0,0.2-0.1,0.3c0,0.1-0.1,0.1-0.1,0.3c0,0.1,0,0.1-0.1,0.3c0,0.2,0,0.2,0,0.3c0,0.2,0,0.1-0.1,0.3c0,0.1-0.1,0.1-0.1,0.3
		c0,0.2,0,0.2,0,0.3c0,0.2,0,0.2,0,0.3c0,0.2,0,0.2,0,0.3c0,0.2,0,0.2,0,0.3c0,0.2,0,0.2,0,0.3c0,0.2,0,0.2,0,0.3
		C77.6,93.8,77.6,93.8,77.6,93.9z"/>
	<path class="st3" d="M59.9,92.9c0,0.1,0,0.1,0,0.3c0,0.1,0,0.1,0,0.3c0,0.1,0,0.1,0,0.3c0,0.1,0,0.1-0.1,0.3c0,0.1,0,0.1,0,0.3
		c0,0.1,0,0.1-0.1,0.3c0,0.1-0.1,0.1-0.1,0.3c0,0.1,0,0.1-0.1,0.3c0,0.1-0.1,0.1-0.1,0.3c0,0.1,0,0.1-0.1,0.3c0,0.1-0.1,0.1-0.1,0.3
		c-0.1,0.1-0.1,0.1-0.1,0.3c-0.1,0.1-0.1,0.1-0.2,0.3c-0.1,0.1-0.1,0.1-0.2,0.2c-0.1,0.1-0.1,0.1-0.2,0.2c-0.1,0.1-0.1,0.1-0.2,0.2
		c-0.1,0.1-0.1,0.1-0.2,0.2c-0.1,0.1-0.1,0.1-0.3,0.1c-0.1,0.1-0.1,0.1-0.3,0.1c-0.1,0-0.1,0-0.3,0c-0.1,0-0.1,0-0.3,0
		c-0.1,0-0.1,0-0.3-0.1c-0.1-0.1-0.1-0.1-0.2-0.2c-0.1-0.1-0.1-0.1-0.2-0.2c-0.1-0.1-0.1-0.1-0.2-0.2c-0.1-0.1,0-0.1-0.1-0.3
		c-0.1-0.1-0.1-0.1-0.2-0.2c-0.1-0.1,0-0.1-0.1-0.3c0-0.1,0-0.1-0.1-0.3c0-0.1,0-0.1-0.1-0.3c0-0.1-0.1-0.1-0.1-0.3
		c0-0.1,0-0.1-0.1-0.3c0-0.1,0-0.1,0-0.3c0-0.1-0.1-0.1-0.1-0.3c0-0.1,0-0.1,0-0.3c0-0.1,0-0.1,0-0.3c0-0.1,0-0.2,0-0.3
		c0-0.1-0.1-0.1-0.1-0.3c0-0.1,0-0.2,0-0.3c0-0.2,0-0.2,0-0.3c0-0.2,0-0.1,0-0.3c0-0.2,0-0.2,0-0.3c0-0.2,0-0.2,0-0.3
		c0-0.2,0-0.1,0-0.3c0-0.2,0-0.2,0-0.3c0-0.2,0-0.2,0-0.3c0-0.2,0.1-0.1,0.1-0.3c0-0.2,0-0.2,0-0.3c0-0.2,0-0.2,0-0.3
		c0-0.1,0-0.2,0.1-0.3c0-0.1,0.1-0.1,0.1-0.3c0-0.1,0-0.2,0.1-0.3c0.1-0.1,0.1-0.1,0.1-0.3c0.1-0.1,0-0.2,0.1-0.3
		c0.1-0.1,0.1-0.1,0.2-0.2c0.1-0.1,0-0.2,0.1-0.3c0.1-0.1,0.1-0.1,0.2-0.2c0.1-0.1,0.1-0.1,0.3-0.1c0.1-0.1,0.1-0.1,0.3-0.1
		c0.1-0.1,0.1-0.1,0.3-0.1s0.2,0,0.3,0c0.2,0,0.2,0,0.3,0c0.2,0,0.2,0,0.3,0.1s0.2,0,0.3,0.1s0.1,0.1,0.2,0.2C59,88,59,88,59.1,88.1
		s0.1,0.1,0.2,0.3c0.1,0.1,0.1,0.1,0.2,0.2c0.1,0.1,0,0.2,0.1,0.3c0.1,0.1,0.1,0.1,0.1,0.3c0.1,0.1,0,0.1,0.1,0.3
		c0,0.2,0,0.1,0.1,0.3c0,0.2,0.1,0.1,0.1,0.3c0,0.2,0,0.2,0,0.3c0,0.2,0,0.2,0,0.3c0,0.2,0.1,0.1,0.1,0.3c0,0.2,0,0.2,0,0.3
		c0,0.2,0,0.2,0,0.3c0,0.2,0,0.2,0,0.3c0,0.2,0,0.2,0,0.3c0,0.2,0,0.2,0,0.3C59.9,92.7,59.9,92.7,59.9,92.9z"/>
	<g>
		<g>
			<path class="st3" d="M51.7,135c0.2,0.2,0.3,0.1,0.4,0.1l0.3-0.1c0.2-0.1,0.4-0.1,0.5-0.2c0.2-0.1,0.3-0.2,0.5-0.3
				s0.3-0.2,0.5-0.3l0.2-0.1c0.1-0.1,0.2-0.3,0.2-0.5c0.1-1.4,0.1-2.9,0.2-4.3c0-1.4,0.1-2.9,0.1-4.3c0-0.2-0.2-0.4-0.4-0.4
				s-0.4,0.2-0.4,0.4c-0.2,1.4-0.3,2.8-0.4,4.3c-0.1,1.4-0.2,2.8-0.3,4.3l0.4-0.6c-0.2,0-0.3,0.1-0.5,0.2c-0.2,0.1-0.3,0.2-0.5,0.3
				s-0.3,0.2-0.5,0.3l-0.2,0.2c-0.1,0.1-0.2,0.1-0.1,0.3C51.3,134.5,51.4,134.8,51.7,135z"/>
		</g>
	</g>
	<g>
		<g>
			<path class="st3" d="M120.2,114.2c0.3-0.6,0.3-1.1,0.3-1.7c0-0.5-0.1-1.1-0.2-1.6s-0.2-1.1-0.3-1.6c-0.1-0.5-0.2-1-0.3-1.6v-0.1
				c0-0.2-0.1-0.3-0.2-0.4c-0.3-0.3-0.6-0.5-0.9-0.6s-0.6-0.2-0.9-0.3c-0.6-0.1-1.1-0.2-1.5-0.3c-0.9-0.2-1.7-0.7-2.3-1.5
				c-0.1-0.2-0.3-0.4-0.4-0.6s-0.2-0.5-0.3-0.7c-0.2-0.5-0.4-1-0.6-1.5c-0.3-1-0.6-2-0.8-3c-0.2-1-0.2-2-0.1-3.1
				c0-1,0.1-2.1,0.4-3.1c0.2-1,0.6-1.9,1.2-2.7c0.6-0.8,1.3-1.4,2.2-1.9c0,0,0,0,0.1,0l0,0c1.3-0.9,2.7-1.7,4.2-2.2
				c0.7-0.2,1.5-0.4,2.2-0.3s1.5,0.3,2,0.8c0.5,0.4,0.5,1,0.1,1.5c-0.2,0.3-0.5,0.5-0.8,0.7s-0.7,0.4-1,0.6
				c-1.4,0.8-2.9,1.5-4.4,2.1c-0.2,0.1-0.3,0.3-0.3,0.5v0.1c0,0.4,0,0.8-0.1,1.1l-0.1,1.1c0,0.4,0.3,0.7,0.6,0.7h0.1h0.2
				c0.4,0,0.9-0.1,1.3,0c0.5,0,0.9,0.1,1.3,0.2s0.8,0.3,1.2,0.4c0.4,0.2,0.7,0.4,1.1,0.7c0.7,0.5,1.3,1.2,1.8,1.9
				c0.5,0.7,0.9,1.6,1.2,2.5l0,0c0.1,0.1,0.2,0.2,0.4,0.2c0.1,0,0.2-0.1,0.2-0.2c0.2-0.6,0.2-1.1,0.2-1.7s-0.2-1.1-0.4-1.7
				c-0.4-1.1-1.2-2-2.1-2.8c-0.9-0.7-2.1-1.2-3.2-1.3c-0.6-0.1-1.1-0.1-1.7,0c-0.6,0-1.1,0.1-1.7,0.3l0.9,0.7l-0.1-1.1
				c0-0.4,0-0.8-0.1-1.1l-0.3,0.5c1.5-0.8,3-1.5,4.4-2.3c0.4-0.2,0.7-0.4,1.1-0.6s0.8-0.5,1.1-0.9c0.3-0.4,0.5-0.9,0.5-1.5
				s-0.3-1.1-0.7-1.4c-0.4-0.3-0.8-0.6-1.2-0.8c-0.4-0.2-0.8-0.3-1.3-0.4c-0.9-0.1-1.8,0-2.7,0.3c-0.8,0.2-1.6,0.6-2.4,1
				s-1.5,0.8-2.2,1.3h0.1c-1,0.5-1.9,1.3-2.6,2.3s-1.1,2.1-1.3,3.1c-0.2,1.1-0.3,2.2-0.3,3.3c0,0.5,0,1.1,0,1.6s0.1,1.1,0.2,1.6
				c0.2,1.1,0.5,2.1,0.8,3.2c0.2,0.5,0.4,1,0.6,1.5l0.3,0.8c0.1,0.3,0.2,0.5,0.4,0.8c0.3,0.5,0.7,1,1.2,1.4s1,0.7,1.6,0.9
				c0.5,0.2,1.1,0.3,1.6,0.5c0.5,0.1,0.9,0.3,1,0.5l-0.2-0.4c0.1,0.5,0.1,1.1,0.2,1.6s0.1,1.1,0.2,1.6s0.1,1.1,0.3,1.6
				c0.2,0.5,0.4,1,0.8,1.5C119.9,114.3,120.1,114.3,120.2,114.2C120.2,114.2,120.2,114.2,120.2,114.2z"/>
		</g>
	</g>
	<g>
		<g>
			<path class="st3" d="M41.3,138.1c-1.5-0.1-2.9,0.2-4.3,0.6c-1.4,0.4-2.7,0.9-4.1,1.4c-2.7,1-5.4,2.2-7.9,3.6
				c-0.6,0.4-1.3,0.8-1.9,1.2s-1.2,0.9-1.7,1.6c-0.9,1.2-1.5,2.5-2.1,3.9c-1.1,2.7-2.1,5.4-2.9,8.1c-1.7,5.5-2.7,11.2-3.8,16.8
				c-0.3,1.4-0.5,2.8-0.9,4.2c-0.3,1.4-0.7,2.8-1.1,4.2c-0.4,1.4-0.6,2.8-0.8,4.2c-0.1,1.4-0.2,2.9,0.1,4.4c0,0.2,0.2,0.3,0.3,0.2
				c0.1,0,0.2-0.1,0.2-0.2l0,0c0.7-1.3,1.1-2.7,1.4-4.1c0.3-1.4,0.5-2.8,0.6-4.2s0.2-2.9,0.4-4.3c0.2-1.4,0.4-2.8,0.7-4.2
				s0.6-2.8,0.9-4.2c0.3-1.4,0.6-2.8,1-4.2c0.7-2.8,1.4-5.5,2.1-8.3c0.4-1.4,0.7-2.7,1.2-4.1c0.4-1.4,0.9-2.7,1.5-4s1.2-2.6,2.1-3.6
				c0.4-0.5,1-0.9,1.5-1.2c0.6-0.4,1.2-0.7,1.8-1c1.3-0.6,2.6-1.1,3.9-1.6s2.7-1,4-1.4c1.3-0.5,2.7-0.9,4-1.4s2.7-1,3.9-1.9l0,0
				c0.1-0.1,0.2-0.3,0.1-0.4C41.5,138.1,41.4,138.1,41.3,138.1z"/>
		</g>
	</g>
	<g>
		<g>
			<path class="st3" d="M80.2,133c0.4,0.3,0.9,0.5,1.3,0.5c0.2,0,0.4,0,0.6,0s0.4,0,0.6-0.1c0.8-0.1,1.6-0.2,2.4-0.4l2.3-0.5
				c0.8-0.1,1.6-0.3,2.4-0.4c1.6-0.2,3.2-0.3,4.8-0.4c1.5-0.1,3.1-0.1,4.7-0.1c3.2,0,6.4-0.1,9.5,0.1c3.2,0.3,6.3,1.5,9.6,0.2
				c0.2-0.1,0.2-0.2,0.2-0.4c0-0.1-0.1-0.1-0.1-0.2c-3.1-1.7-6.4-0.7-9.5-0.7c-3.2,0-6.4-0.2-9.6-0.3c-1.6,0-3.2,0-4.8,0.2
				c-1.6,0.2-3.2,0.5-4.7,0.6c-0.8,0.1-1.6,0.1-2.4,0.2h-2.4c-0.8,0-1.6,0-2.4,0.1c-0.2,0-0.4,0-0.6,0.1c-0.2,0-0.4,0-0.6,0.1
				c-0.4,0.1-0.8,0.3-1.1,0.7C80,132.6,80.1,132.8,80.2,133L80.2,133z"/>
		</g>
	</g>
	<g>
		<g>
			<path class="st3" d="M118.3,132.9c0.3-1.8,0.5-3.6,0.5-5.3c0.1-1.8,0-3.5,0.1-5.3s0.1-3.5,0.3-5.2c0.1-0.4,0.1-0.8,0.2-1.2
				l0.1-0.3c0-0.1,0.1-0.1,0.1-0.2l0,0l0,0l0,0l0,0l0.1-0.1c0.3-0.2,0.7-0.3,1.1-0.4s0.8-0.2,1.2-0.3c1.7-0.4,3.4-0.6,5.2-0.6
				c0.9,0,1.7,0,2.6,0.1c0.8,0.1,1.7,0.3,2.3,0.7c0.1,0,0.1,0.1,0.2,0.2c0.1,0.1,0.1,0.1,0.1,0.2c0.1,0.1,0.2,0.3,0.3,0.5
				c0.2,0.4,0.3,0.8,0.5,1.2c0.3,0.8,0.6,1.7,0.8,2.5c0.5,1.7,0.9,3.4,1.2,5.2c0.3,1.7,0.6,3.5,0.8,5.3s0.3,3.5,0.3,5.3
				s-0.1,3.5-0.3,5.3c-0.2,1.7-0.6,3.4-1.3,5c-0.7,1.5-1.8,2.9-3.3,3.5c-0.2,0.1-0.4,0.1-0.6,0.2l-0.6,0.2c-0.4,0.1-0.8,0.3-1.3,0.4
				l-1.3,0.3l-1.3,0.3c-1.7,0.4-3.4,0.6-5.2,0.8c-0.9,0.1-1.7,0.1-2.6,0.1s-1.8-0.1-2.6-0.2l0,0h-0.1l-6.1,0.2l-3.1,0.1
				c-1,0-2,0-3.1,0.1c-0.3,0-0.5,0.2-0.5,0.5l0,0c0,3.4,0,6.9-0.1,10.3c0,1.7-0.1,3.4-0.2,5.2l-0.2,5.2c-0.1,3.4-0.2,6.9-0.1,10.3
				c0.1,3.4,0.2,6.9,0.8,10.3c0,0.2,0.2,0.3,0.3,0.2c0.1,0,0.2-0.1,0.2-0.2c0.5-3.4,0.7-6.9,0.8-10.3c0-3.4,0-6.9-0.1-10.3l-0.2-5.2
				c-0.1-1.7-0.1-3.4-0.2-5.2c-0.1-3.4-0.1-6.9-0.1-10.3l-0.5,0.5c1,0,2-0.1,3.1-0.1h3.1l6.1-0.1h-0.1c1,0.2,1.8,0.2,2.8,0.2
				c0.9,0,1.8,0,2.7-0.1c1.8-0.1,3.6-0.4,5.4-0.8l1.3-0.3l1.3-0.4c0.4-0.1,0.9-0.3,1.3-0.4l0.6-0.2c0.2-0.1,0.5-0.2,0.7-0.3
				c0.9-0.4,1.7-1,2.3-1.8c0.6-0.7,1.1-1.6,1.5-2.4c0.8-1.7,1.1-3.5,1.3-5.3s0.3-3.6,0.2-5.4c-0.1-3.6-0.5-7.2-1.2-10.7
				c-0.3-1.8-0.7-3.5-1.2-5.3c-0.2-0.9-0.5-1.7-0.8-2.6c-0.1-0.4-0.3-0.9-0.5-1.3c-0.1-0.2-0.2-0.4-0.3-0.7
				c-0.1-0.1-0.2-0.2-0.3-0.4c-0.1-0.1-0.2-0.2-0.3-0.3c-0.4-0.3-0.9-0.5-1.4-0.7c-0.5-0.1-0.9-0.2-1.4-0.3
				c-0.9-0.1-1.8-0.2-2.8-0.2c-1.8,0-3.6,0.1-5.5,0.4c-0.5,0.1-0.9,0.2-1.4,0.3c-0.5,0.1-0.9,0.3-1.4,0.5c-0.1,0.1-0.3,0.2-0.4,0.3
				c-0.1,0.1-0.1,0.1-0.2,0.2c0,0-0.1,0.1-0.1,0.2l-0.1,0.1v0.1c-0.1,0.1-0.1,0.3-0.2,0.4l-0.1,0.4c-0.1,0.5-0.2,0.9-0.3,1.4
				c-0.3,1.8-0.4,3.6-0.4,5.4s-0.1,3.6,0,5.4s0.3,3.6,0.7,5.3c0,0.2,0.2,0.2,0.3,0.2C118.2,133.1,118.3,133,118.3,132.9L118.3,132.9
				z"/>
		</g>
	</g>
	<g>
		<path class="st3" d="M45.9,55.1c-1,0.1-1.7,0.8-2.3,1.4c-0.3,0.3-0.6,0.6-0.9,1c-0.3,0.3-0.6,0.7-0.8,1c-1.1,1.4-2,2.9-2.9,4.4
			c-1.8,3-3.5,6-4.7,9.3l-0.9,2.5c-0.3,0.8-0.5,1.7-0.7,2.5l-0.3,1.3c-0.1,0.4-0.2,0.9-0.3,1.3c-0.2,0.9-0.4,1.7-0.6,2.5
			c0,0.2-0.1,0.4-0.2,0.6l-0.1,0.6c-0.1,0.4-0.2,0.9-0.3,1.3c-0.2,0.8-0.4,1.7-0.6,2.6c-0.3,1.7-0.4,3.5,0,5.3
			c0,0.1,0.2,0.2,0.3,0.2c0.1,0,0.1-0.1,0.1-0.1l0,0c0.8-1.7,0.9-3.4,1-5.1c0.1-0.9,0.1-1.7,0.2-2.6s0.1-1.7,0.3-2.6
			c0.4-1.7,0.7-3.4,1.2-5c0.3-0.8,0.5-1.6,0.8-2.5l0.9-2.4c1.2-3.2,2.5-6.4,4.5-9.3c0.2-0.4,0.5-0.7,0.8-1c0.1-0.2,0.3-0.3,0.4-0.5
			l0.4-0.5l0.8-1c0.3-0.3,0.6-0.6,0.9-0.9c0.6-0.6,1.2-1.2,1.8-1.8s1.2-1.1,1.6-2l0,0c0-0.1,0-0.3-0.1-0.3
			C46,55.1,46,55.1,45.9,55.1z"/>
	</g>
	<g>
		<path class="st3" d="M72.6,53.6c0.1,0.9,0.6,1.3,1.1,1.8s1,1,1.5,1.4c1.1,0.9,2.2,1.7,3.2,2.6c2.1,1.8,4.1,3.8,6.3,5.5
			c2.2,1.7,4.5,3.2,6.9,4.7c0.6,0.4,1.2,0.8,1.7,1.2c0.6,0.4,1.1,0.9,1.8,1.2c0.6,0.3,1.3,0.7,1.9,0.9c0.7,0.2,1.4,0.3,2.2,0.2
			c0.1,0,0.2-0.1,0.2-0.3c0-0.1,0-0.1-0.1-0.1l0,0c-0.6-0.5-1.1-0.9-1.7-1.2c-0.6-0.3-1.2-0.6-1.9-0.8c-0.6-0.2-1.3-0.5-1.9-0.7
			c-0.3-0.1-0.6-0.3-1-0.4c-0.3-0.1-0.6-0.3-0.9-0.5c-2.4-1.3-4.5-3.1-6.7-4.8C83,62.6,80.8,61,78.8,59c-0.5-0.5-1-1-1.4-1.5L76,56
			c-0.5-0.5-0.9-1-1.4-1.5s-0.9-1-1.8-1.1l0,0C72.7,53.3,72.6,53.4,72.6,53.6C72.6,53.5,72.6,53.6,72.6,53.6z"/>
	</g>
	<g>
		<path class="st3" d="M31.8,44.2c1.6-0.6,3.2-1.3,4.7-2s3.1-1.4,4.6-2.1c3.1-1.3,6.3-2.4,9.6-3.3c1.6-0.4,3.3-0.8,4.9-1.1
			c1.7-0.3,3.3-0.5,5-0.7c3.4-0.2,6.8-0.1,10.1,0.6c0.8,0.1,1.7,0.4,2.5,0.6c0.8,0.2,1.7,0.4,2.5,0.7l2.4,0.7l2.4,0.9
			c3.2,1.2,6.2,2.6,9.3,4.2c3,1.6-0.8,3.1,2.5,4.3c3.2,1.2-22.5,3.3-19,3.2l5.4,2l15.7,1.2c-0.2,0.1-1.8-1-1.7-0.9
			c0,0,1.9,1.8,2,1.8l0.6,2c0.9,1.1,6.1,1,6.9,2.2s3.2-0.5,4,0.7c0.7,1.2,1.4,2.5,2.1,3.8s1.3,2.6,1.9,3.9l0.6-0.7l-3.7-0.9
			c-0.3-0.1-0.7,0.1-0.7,0.5c0,0.2,0,0.4,0.1,0.5l0.1,0.1c0.1,0.1,0.2,0.3,0.3,0.4c0.1,0.2,0.2,0.3,0.3,0.5l0.1,0.3l0.1,0.3
			c0.1,0.2,0.1,0.4,0.2,0.6l0.2,0.6l0.1,0.6c0.1,0.4,0.1,0.8,0.2,1.3c0.2,1.7,0.2,3.4,0.2,5.2c0,0.9-0.1,1.7-0.2,2.6
			s-0.1,1.8-0.2,2.6c-0.1,0.9-0.2,1.8-0.3,2.6c-0.1,0.9-0.2,1.8-0.3,2.7l0,0c0,0.1,0.1,0.2,0.2,0.2s0.2-0.1,0.2-0.1
			c0.3-0.8,0.5-1.7,0.8-2.6c0.2-0.9,0.4-1.7,0.6-2.6s0.3-1.8,0.4-2.7c0.1-0.4,0.1-0.9,0.1-1.3c0-0.5,0.1-0.9,0.1-1.4
			c0.1-1.8,0-3.6-0.2-5.5c-0.1-0.5-0.1-0.9-0.3-1.4l-0.2-0.7l-0.2-0.7c-0.1-0.2-0.2-0.4-0.3-0.7l-0.1-0.3l-0.2-0.3
			c-0.1-0.2-0.2-0.4-0.4-0.6c-0.2-0.2-0.3-0.4-0.5-0.6l-0.5,1.1l3.7,0.7l0,0c0.3,0,0.5-0.1,0.6-0.4c0-0.1,0-0.2,0-0.3l-1-1.9l-1-1.9
			c-0.7-1.3-1.4-2.5-2.2-3.8c-0.8-1.2-6.2,1.8-7,0.6s-23-1.4-16.3-5.6l13.2,4.7l-19.6-8.2c0.2-0.1-3.3-3.1-3.4-3.3
			c-0.1-0.1,5.5,5.1,5.3,5.1l0,0c-0.8,0-1.7-0.1-2.5-0.1l-1.2-0.2c-0.4-0.1-0.8-0.1-1.2-0.2c-0.8-0.2,17.6-4,16.8-4.3l-7.2,0.3
			l5.1-2.1c-3.1-1.2,4.8-2.3,1.8-3.8c-0.8-0.4-1.5-0.8-2.3-1.1c-0.8-0.4-1.5-0.7-2.3-1.1c-1.6-0.7-3.2-1.3-4.8-1.9
			c-3.2-1.2-6.6-2-9.9-2.8c-1.7-0.3-3.4-0.5-5.1-0.6s-3.4-0.1-5.2,0c-1.7,0.1-3.4,0.3-5.1,0.5c-1.7,0.3-3.4,0.6-5.1,1
			c-3.3,0.8-6.6,1.8-9.8,3.1s-6.4,2.7-9,5c-0.1,0.1-0.1,0.2,0,0.3C31.6,44.2,31.7,44.2,31.8,44.2L31.8,44.2z"/>
	</g>
	<g>
		<path class="st3" d="M78.6,65.1c-0.2,0.1-0.4,0.2-0.5,0.4C78,65.6,78,65.8,78,66s0,0.3,0,0.5v0.2l0.1,0.2l0.1,0.4
			c0,0.1,0.1,0.3,0.2,0.4c0.1,0.3,0.3,0.5,0.4,0.8c0.2,0.2,0.3,0.5,0.5,0.7l0.5,0.6c0.4,0.4,0.7,0.8,1.1,1.2
			c0.2,0.2,0.4,0.4,0.5,0.6c0.2,0.2,0.4,0.4,0.6,0.6c0.4,0.4,0.7,0.8,1.1,1.2l1.1,1.1c0.4,0.4,0.8,0.7,1.2,1.1
			c0.4,0.3,0.8,0.7,1.2,1l1.3,0.9l1.3,0.9c0.4,0.3,0.9,0.6,1.3,0.9c1.7,1.2,2.9,3.3,5.3,3.5c0.1,0,0.2-0.1,0.3-0.2v-0.1l0,0
			c-0.5-1.1-1.4-1.7-2.3-2.2s-2-0.9-2.8-1.5c-0.4-0.3-0.9-0.6-1.3-0.9s-0.8-0.7-1.2-1l-1.2-1l-1.2-1c-1.6-1.4-3.3-2.6-4.6-4.3
			c-0.3-0.4-0.6-0.8-0.9-1.3l-0.4-0.7c-0.1-0.2-0.2-0.5-0.3-0.7c-0.1-0.2-0.2-0.5-0.3-0.7c-0.1-0.2-0.2-0.4-0.2-0.7v-0.2v-0.2
			c0-0.1-0.1-0.2-0.1-0.3c-0.1-0.2-0.2-0.4-0.3-0.6L78.9,65C78.8,65.1,78.7,65,78.6,65.1z"/>
	</g>
	<g>
		<path class="st3" d="M100.5,93.8c0.4,0.3,0.6,0.2,0.9,0.2s0.5,0,0.8,0.1c0.5,0.1,1,0.4,1.4,0.9c0.2,0.2,0.3,0.5,0.4,0.8
			c0,0.1,0.1,0.3,0.1,0.4s0.1,0.3,0.1,0.4c0,0.3,0.1,0.6,0.1,0.9v0.4c0,0.1,0,0.3,0,0.4c0,0.6-0.2,1.1-0.5,1.6s-0.7,0.9-1.2,1.3
			s-1.1,0.5-1.6,0.7c-0.6,0.2-1.1,0.4-1.6,0.9l0,0c-0.1,0.1-0.1,0.2,0,0.2l0,0c0.7,0.3,1.4,0.1,1.9-0.3c0.6-0.3,1-0.8,1.6-1.2
			c0.2-0.2,0.5-0.4,0.7-0.7c0.1-0.1,0.2-0.2,0.3-0.4l0.3-0.4c0.1-0.1,0.2-0.3,0.2-0.4c0.1-0.1,0.2-0.3,0.2-0.5l0.1-0.5
			c0.1-0.2,0-0.3,0.1-0.5c0-0.2,0-0.3,0-0.5v-0.5c0-0.3-0.1-0.6-0.2-0.9s-0.2-0.6-0.3-0.9c-0.1-0.3-0.3-0.6-0.4-0.9
			c-0.3-0.6-0.8-1.1-1.5-1.4c-0.3-0.1-0.7-0.2-1-0.2s-0.7,0-1,0.4C100.3,93.7,100.4,93.8,100.5,93.8L100.5,93.8z"/>
	</g>
	<g>
		<path class="st3" d="M27.9,47.6c-1.2,0.2-2,1-2.7,1.7c-0.7,0.8-1.4,1.6-2,2.4c-0.6,0.9-1.2,1.8-1.7,2.7s-1,1.9-1.4,2.8
			c-1.7,3.8-3,7.8-3.4,12c-0.1,1-0.2,2.1-0.2,3.1v1.6c0,0.5,0,1,0.1,1.6c0,0.5,0.1,1,0.1,1.6c0,0.5,0.1,1,0.1,1.6
			c0.1,1,0.2,2.1,0.4,3.1c0.3,2,0.4,4.1,0.7,6.2c0.2,1,0.4,2.1,0.8,3c0.1,0.2,0.2,0.5,0.3,0.7c0.1,0.2,0.2,0.5,0.4,0.7
			c0.3,0.5,0.6,0.9,1,1.3c0.1,0.1,0.2,0.1,0.3,0c0.1,0,0.1-0.1,0.1-0.2l0,0c-0.1-1.1-0.4-2-0.6-3s-0.5-1.9-0.8-2.9
			c-0.6-1.9-1.2-3.9-1.5-6c-0.7-4.1-0.7-8.2-0.3-12.2c0.2-2,0.5-4,1-6s1.2-3.9,2.1-5.7s2.1-3.5,3.4-5c0.6-0.8,1.3-1.5,2-2.2
			s1.4-1.4,1.9-2.3l0,0c0.1-0.1,0-0.3-0.1-0.3C28,47.6,28,47.6,27.9,47.6z"/>
	</g>
	<g>
		<path class="st3" d="M28.8,155.7c-0.7,0.7-0.6,1.5-0.6,2.2s0.1,1.5,0.1,2.2c0.2,1.5,0.4,2.9,0.5,4.4c0.2,2.9,0,5.9,0,8.8
			c0.1,2.9,0.3,5.8,0.3,8.8c0,1.5-0.3,2.9-0.4,4.4s-0.1,2.9,0.8,4.4c0.1,0.2,0.3,0.2,0.4,0.1l0.1-0.1c0.8-1.5,0.8-2.9,0.6-4.4
			c-0.2-1.5-0.6-2.9-0.6-4.4c-0.2-2.9,0-5.8-0.1-8.8c0-2.9-0.4-5.8-0.3-8.8c0-1.5,0.2-2.9,0.3-4.4c0-0.7,0.1-1.5,0-2.2
			c0-0.7,0-1.5-0.7-2.2C29.2,155.6,28.9,155.6,28.8,155.7L28.8,155.7z"/>
	</g>
	<g>
		<g>
			<path class="st3" d="M70,127.1c-0.5,0.6-0.5,1.2-0.6,1.9c0,0.6,0,1.3,0,1.9c0,1.3,0.1,2.6,0,3.8l0,0c0,0.2,0.1,0.3,0.3,0.3
				c1.3,0.2,2.5,0.4,3.8,0.7V135c-0.9,0.3-1.8,0.5-2.6,0.8c-0.9,0.3-1.7,0.5-2.6,0.8s-1.7,0.6-2.6,0.9c-0.9,0.3-1.7,0.6-2.6,0.8h0.2
				c-1.1-0.4-2.2-0.8-3.3-1.3s-2.1-1-3.2-1.4c-1.1-0.5-2.2-0.9-3.3-1.3c-1.1-0.3-2.3-0.6-3.5-0.7c-0.1,0-0.2,0.1-0.2,0.2
				c0,0.1,0,0.1,0.1,0.2c1,0.7,2,1.3,3.1,1.7s2.2,0.8,3.3,1.1s2.3,0.6,3.4,1c1.1,0.3,2.2,0.7,3.3,1.1l0,0c0.1,0,0.1,0,0.2,0
				c0.9-0.3,1.7-0.5,2.6-0.8s1.8-0.5,2.6-0.8c0.9-0.3,1.7-0.5,2.6-0.8s1.7-0.6,2.6-0.9l0,0c0.2-0.1,0.3-0.3,0.2-0.4
				c0-0.1-0.2-0.2-0.3-0.2c-1.3-0.2-2.5-0.4-3.8-0.6l0.3,0.3c0.1-1.3,0.3-2.5,0.5-3.8c0.1-0.6,0.1-1.3,0.2-1.9
				c0-0.6,0.1-1.3-0.4-1.9C70.3,127,70.2,127,70,127.1C70.1,127.1,70,127.1,70,127.1z"/>
		</g>
	</g>
	<g>
		<g>
			<path class="st3" d="M130.6,113.3c0.2-0.5,0.3-1,0.3-1.4s-0.1-0.9-0.2-1.3c-0.2-0.9-0.4-1.7-0.7-2.6l-1,1c0.5,0,0.9,0,1.4,0
				s0.9-0.1,1.4-0.2c0.9-0.2,1.8-0.5,2.6-1c0.4-0.3,0.8-0.6,1.1-0.9s0.6-0.7,0.8-1.1c0.5-0.8,0.8-1.6,1.1-2.4c0.6-1.6,0.9-3.3,1.1-5
				c0.2-1.7,0.3-3.4,0.2-5.1v0.1c0.2-1.4,0.3-2.7,0.3-4.1c0-0.7-0.1-1.4-0.2-2.1c-0.1-0.7-0.3-1.4-0.6-2.1c-0.1-0.2-0.2-0.3-0.3-0.5
				s-0.3-0.3-0.4-0.4c-0.3-0.3-0.6-0.5-1-0.6c-0.7-0.3-1.5-0.4-2.2-0.3s-1.5,0.4-2.1,0.8c-0.3,0.2-0.6,0.5-0.8,0.8
				c-0.2,0.4-0.4,0.7-0.5,1c-0.4,1.4-0.6,2.7-0.9,4c-0.1,0.7-0.2,1.4-0.2,2.1c0,0.4,0,0.7,0,1.1s0.1,0.8,0.2,1.2
				c0.1,0.2,0.2,0.5,0.4,0.8c0.1,0.1,0.1,0.1,0.2,0.2c0.1,0.1,0.2,0.1,0.2,0.2c0.1,0.1,0.2,0.1,0.3,0.2c0.4,0.2,0.9,0.3,1.4,0.3
				c1,0,1.9-0.5,2.5-1.2s0.9-1.5,1-2.2c0.1-0.8,0-1.5-0.1-2.2c0-0.2-0.2-0.2-0.4-0.2c-0.1,0-0.2,0.1-0.2,0.2l0,0
				c-0.3,0.6-0.5,1.2-0.7,1.8c-0.3,0.5-0.6,1-0.9,1.3c-0.3,0.3-0.7,0.4-1.1,0.4c-0.2,0-0.4,0-0.6-0.1c0,0-0.1,0-0.1-0.1l0,0l0,0
				c0,0,0,0-0.1-0.1c-0.1-0.2-0.2-0.4-0.2-0.7c-0.1-0.3-0.1-0.6-0.2-0.9c-0.1-0.6-0.1-1.3-0.1-1.9c0-1.3,0.1-2.6,0.5-3.9
				c0.1-0.3,0.2-0.6,0.3-0.8c0.1-0.2,0.3-0.4,0.6-0.6c0.5-0.3,1-0.6,1.6-0.6c0.6-0.1,1.2,0,1.7,0.3c0.3,0.1,0.5,0.3,0.7,0.5
				c0.1,0.1,0.2,0.2,0.3,0.3c0.1,0.1,0.1,0.2,0.2,0.4c0.2,0.5,0.4,1.1,0.4,1.8c0.1,0.6,0.1,1.3,0.1,1.9c0,1.3-0.1,2.6-0.3,3.9l0,0
				v0.1c0.1,1.6,0.1,3.3,0,5c-0.1,1.6-0.4,3.3-1,4.8c-0.3,0.8-0.6,1.5-1.1,2.1c-0.1,0.2-0.2,0.3-0.4,0.5c-0.1,0.1-0.3,0.3-0.4,0.4
				c-0.3,0.3-0.6,0.5-0.9,0.7c-1.3,0.7-3,0.7-4.5,0.5c-0.5-0.1-0.9,0.2-1,0.7c0,0.1,0,0.2,0,0.3v0.1c0.1,0.9,0.3,1.7,0.5,2.6
				c0.1,0.4,0.2,0.9,0.4,1.3s0.4,0.8,0.9,1.2C130.2,113.6,130.4,113.5,130.6,113.3C130.5,113.4,130.6,113.3,130.6,113.3z"/>
		</g>
	</g>
	<g>
		<path class="st3" d="M114.6,87.7c0.3-0.2,0.4-0.3,0.5-0.5c0.1-0.1,0-0.2,0-0.4c0-0.2-0.1-0.5-0.2-0.7c-0.1-0.5-0.3-1-0.3-1.5
			s0.2-1,0.4-1.3c0.3-0.4,0.6-0.6,0.9-0.8c0.2-0.1,0.4-0.1,0.6-0.2s0.5-0.2,0.7-0.2c0.5-0.1,1-0.2,1.3,0c0.2,0.1,0.2,0.2,0.2,0.4
			c0,0.2,0,0.4,0,0.6c0,0.4,0.1,0.9,1.1,1.2l0,0c0.2,0.1,0.4,0,0.5-0.1c0.7-0.7,0.5-1.3,0.2-1.8c-0.4-0.5-1.1-1-1.7-1.3
			c-0.7-0.2-1.3-0.1-1.8-0.1c-0.3,0-0.6,0.1-0.8,0.1c-0.2,0-0.6,0.1-0.9,0.3c-0.3,0.1-0.6,0.4-0.8,0.6c-0.2,0.3-0.4,0.5-0.5,0.8
			c-0.2,0.6-0.3,1.1-0.5,1.7c-0.1,0.5-0.3,1.1-0.4,1.7c0,0.3-0.1,0.6,0,0.9c0,0.1,0,0.3,0.1,0.4s0.3,0.2,0.7,0.3
			C114.3,87.9,114.4,87.8,114.6,87.7L114.6,87.7z"/>
	</g>
	<g>
		<g>
			<path class="st3" d="M122.2,91.1c0,0.3,0,0.5,0.1,0.6c0,0.1,0.1,0.1,0.1,0.1c0.1,0,0.2,0,0.2-0.1c0.2-0.1,0.3-0.3,0.5-0.4
				c0.3-0.2,0.7,0.1,1,0s0.6-0.4,0.9-0.6c0.1-0.1,0.5,0,0.8-0.1c0.1-0.1,0.2-0.2,0.2-0.3c0-0.2-0.1-0.4-0.5-0.6
				c0-0.1-0.1-0.3-0.2-0.3s-0.3,0.1-0.3,0.2c-0.4-0.1-0.6-0.2-0.7-0.2s-0.1,0,0,0c0.1,0.1,0.3,0.4,0.2,0.5c-0.1,0.2-0.4,0.1-0.6,0.2
				c-0.1,0-0.2,0.1-0.3,0.2c-0.1,0.1-0.2,0.1-0.4,0.1c-0.1,0-0.3-0.2-0.4-0.4c-0.1-0.1-0.1-0.1-0.2-0.1c0,0-0.1,0-0.1,0.1
				s-0.1,0.3-0.1,0.6l0,0C122.2,90.7,122.2,90.9,122.2,91.1z"/>
		</g>
	</g>
	<g>
		<g>
			<path class="st3" d="M127.4,81.5c0.2-0.3,0.2-0.5,0.2-0.7s-0.1-0.2-0.2-0.3c-0.2-0.2-0.4-0.3-0.7-0.4c-0.5-0.2-1-0.3-1.5-0.5
				c-0.5-0.1-1-0.3-1.6-0.3c-0.6-0.1-1.1,0.1-1.6,0.3c-0.4,0.2-0.9,0.5-1.2,0.9c-0.4,0.4-0.7,0.9-0.9,1.4c-0.1,0.3-0.2,0.5-0.3,0.8
				c-0.1,0.3-0.3,0.5-0.3,0.8c-0.1,0.5-0.1,1.1,0.9,1.4c0.2,0.1,0.4,0,0.5-0.1l0,0c0.8-0.6,0.7-1,0.6-1.4c-0.1-0.2-0.2-0.4-0.3-0.6
				c0-0.1-0.1-0.2-0.1-0.3c0-0.1,0-0.2,0-0.3c0.1-0.4,0.3-0.7,0.6-0.9c0.3-0.2,0.7-0.4,1.1-0.6c0.2-0.1,0.3-0.2,0.5-0.2
				c0.1,0,0.2-0.1,0.3-0.1l0.3-0.1c0.4-0.1,0.8,0,1.2,0.2c0.4,0.2,0.6,0.6,0.9,0.9c0.1,0.2,0.3,0.3,0.4,0.5c0.1,0.1,0.1,0.2,0.3,0.2
				c0.1,0,0.3,0,0.6-0.2h0.1C127.2,81.7,127.4,81.6,127.4,81.5z"/>
		</g>
	</g>
	<g>
		<path class="st3" d="M133,82.9c0.1-0.6-0.1-0.9-0.4-1.2c-0.3-0.2-0.6-0.4-0.9-0.6c-0.7-0.3-1.5-0.5-2.3-0.3l-0.3,0.1
			c-0.1,0-0.2,0.1-0.3,0.1c-0.2,0.1-0.4,0.2-0.5,0.3c-0.2,0.1-0.3,0.2-0.5,0.4c-0.2,0.1-0.3,0.3-0.4,0.4c-0.5,0.6-0.8,1.2-1.1,1.8
			c-0.3,0.6-0.5,1.3-0.7,1.9c-0.2,0.7-0.3,1.3-0.3,2c-0.1,0.7,0,1.4,0,2c0,0.7,0.1,1.4,0.3,2.1l0,0l0,0c0.2,0.5,0.4,1,0.7,1.5
			c0.3,0.5,0.6,1.1,1.2,1.5c0.3,0.2,0.7,0.3,1.1,0.3c0.4,0,0.8-0.1,1.1-0.3c0.6-0.4,1-0.9,0.9-1.6c0-0.2-0.2-0.4-0.4-0.4l0,0l0,0
			c-0.7,0-1.1,0.1-1.4,0.1c-0.3,0-0.4,0.1-0.6,0.1c-0.3,0-0.7-0.1-1-0.4s-0.6-0.7-0.7-1.1v0.1c-0.2-0.6-0.2-1.2-0.2-1.8
			c0-0.6,0.1-1.3,0.2-1.9s0.2-1.2,0.3-1.9c0.1-0.6,0.3-1.2,0.4-1.8c0.2-0.6,0.5-1.1,0.9-1.6c0.4-0.4,0.9-0.6,1.4-0.5
			s0.9,0.4,1.4,0.7c0.2,0.1,0.5,0.3,0.7,0.5s0.5,0.2,1.1,0.1h0.1C132.8,83.2,132.9,83.1,133,82.9z"/>
	</g>
	<path class="st2" d="M102.9,56.8c0,0-6-15.4-17.9-22.8c-12.6-7.8-47.9,1.7-58.6,10c-5.5,4.3-11.2,14.8-12,21.3c-1,8,3,22,3,22
		S79,47.1,102.9,56.8z"/>
	<path class="st7" d="M104.1,60.4c0,0-6.1-17.1-17.7-24.9C74.1,27.2,36.9,33.2,25,45.6c-4.8,5-8.7,13.3-9.7,19.7
		c-1.3,8,2,22.1,2,22.1S80.6,49.7,104.1,60.4z"/>
	<path class="st8" d="M109.1,80.4c0,0,15.5-5.1,6-17.9c-7.1-9.5-25.3-7-35.7-4C69,61.5,37.5,77,33.2,78.9c0,0,47.3-14.7,59.8-10.2
		C105.5,73.1,109.1,80.4,109.1,80.4z"/>
	<path class="st9" d="M31.4,79.5c0,0,0.8,3.6,13.3,2.4c11.2-1,16.5-2.5,30.5-14.2C84.3,60.2,96,56.1,96,56.1S81.6,51.6,31.4,79.5z"
		/>
	<path class="st10" d="M26.7,50.9c0,0,0.1,15.6,4,23.5"/>
	<path class="st11" d="M66.8,99.4l24.7,1.3l-3.7,19.7c0,0-5.2,7.6-21,7.6s-21-7.6-21-7.6L42,100.7L66.8,99.4z"/>
	<line class="st12" x1="90.2" y1="107.4" x2="67.1" y2="107.9"/>
	<line class="st12" x1="89" y1="113.4" x2="74.2" y2="117.4"/>
	<line class="st12" x1="43.4" y1="107.4" x2="66.4" y2="107.9"/>
	<line class="st12" x1="44.6" y1="113.4" x2="59.3" y2="117.4"/>
	<line class="st12" x1="97.1" y1="94.5" x2="91.5" y2="100.7"/>
	<line class="st12" x1="30.4" y1="93.4" x2="42" y2="100.7"/>
</g>
<text transform="matrix(0.9822 0.1878 -0.1878 0.9822 253.6053 42.5603)" class="st13 st14"> </text>
<text transform="matrix(0.9747 0.2235 -0.2235 0.9747 256.884 43.1664)" class="st2 st15 st16 st17"> </text>
<text transform="matrix(0.4613 0.8872 -0.8872 0.4613 339.1666 103.9673)" class="st2 st15 st16 st17"> </text>
<text class="st13 st14"> </text>
<rect x="128.1" y="110.8" transform="matrix(0.408 -0.913 0.913 0.408 -27.8537 185.6129)" class="st18" width="2.2" height="6.9"/>
<rect x="124.3" y="119.5" class="st19" width="2.7" height="2.2"/>
<rect x="129.7" y="119.5" class="st19" width="2.7" height="2.2"/>
<path class="st19" d="M335.1,191.4h-8.2v-1.3h5.8c0.3,0,0.5-0.2,0.5-0.5s-0.2-0.5-0.5-0.5h-5.8v-1.4h7c1.2,0,2.2-1,2.2-2.2
	c0-1.1-0.7-1.9-1.7-2.1c-0.1,0-0.3,0-0.4,0c-0.3,0-0.5,0.2-0.5,0.5s0.2,0.5,0.5,0.5c0.7,0,1.2,0.6,1.2,1.3s-0.5,1.2-1.2,1.2h-7v-1.1
	l0,0c0.3,0,0.5-0.2,0.5-0.5V183c1.4-6.6,2.2-13.5,2.2-20.6c0-9.5-1.4-18.7-3.9-27.5c-2.2-7.5-5.3-14.6-9.1-21.2
	c-1.9-3.3-4-6.5-6.3-9.5c-1.6-2.2-3.3-4.3-5.1-6.3s-3.6-4-5.6-5.8c-1.9-1.9-4-3.6-6.1-5.3c-1-0.8-2.1-1.7-3.2-2.5s-2.2-1.6-3.3-2.4
	c-5-3.4-10.4-6.4-16-8.9c-2.8-1.2-5.7-2.3-8.7-3.3c-2.9-1-6-1.8-9-2.5c-0.1-0.1-0.3-0.2-0.4-0.3c-0.3-0.2-0.5-0.3-0.8-0.4
	c-0.1,0-0.1-0.1-0.2-0.1c-0.3-0.1-0.6-0.2-0.9-0.2l0,0c-0.2,0-0.4,0-0.6,0c-0.1,0-0.2,0-0.2,0c-0.1,0-0.2,0-0.2,0
	c-0.3,0-0.6,0.1-0.9,0.2c-2.7-0.5-5.4-0.8-8.2-1.1c-1.1-0.5-2.3-1.1-3.3-1.9c-1.8-1.2-3.4-2.2-6.1-2.2h-0.1c-2.7,0-4.3,1-6.1,2.2
	c-1.3,0.8-2.6,1.5-3.9,2.1c-2.4,0.3-4.8,0.6-7.1,1.1c-0.3-0.1-0.6-0.2-0.9-0.3h-0.1c-0.3-0.1-0.6-0.1-0.8-0.1c0,0,0,0-0.1,0h-0.1
	c-0.1,0-0.3,0-0.4,0c-0.1,0-0.2,0-0.2,0c-0.1,0-0.3,0.1-0.4,0.1c-0.1,0-0.2,0-0.2,0.1c-0.1,0-0.3,0.1-0.4,0.2c-0.1,0-0.1,0-0.2,0.1
	c-0.2,0.1-0.4,0.2-0.6,0.3c-0.4,0.2-0.7,0.5-1,0.8c-26.2,6.5-48.3,23.6-61.3,46.6h-10.1c-0.6,0-1.1,0.5-1.1,1.1v1h-1.8v2.2h1.8v1.1
	c0,0.5,0.4,1,0.9,1.1l4.5,0.8c0.3,0,0.6,0.2,0.8,0.4s0.4,0.5,0.5,0.7c0,0.1,0.1,0.3,0.1,0.4c-0.2,0.4-0.4,0.9-0.6,1.3
	c-0.1,0.1-0.3,0.2-0.4,0.2c-0.3,0.1-0.6,0.2-0.9,0.2c-0.1,0-0.2,0-0.3,0c-0.3,0-0.6,0-0.9,0l-0.1,2.2c0.2,0,0.3,0,0.5,0h0.1
	c0.3,0,0.5,0,0.8,0l0.1,0.1c-1.3,3.3-2.4,6.8-3.3,10.3l-0.1,0.1c-3.5,4.4-5.5,9.9-5.5,15.3v5.5h2.5c0,1.2-0.1,2.5-0.1,3.7
	c0,26.8,10.8,51,28.3,68.6v7.1c0,1.7,1.1,3.2,2.6,3.9l2.1-0.1v2.3v0.5v0.9c0,0.3-0.2,0.4-0.3,0.5h-0.1l0,0h-0.1l0,0
	c-0.1,0-0.1,0-0.2-0.1l0,0c-0.4-0.4-0.8-0.8-1.1-1.3l-0.8-1.1c-0.3-0.5-0.8-0.9-1.3-1.2l-0.3-0.1c-0.2-0.1-0.4-0.2-0.7-0.3
	c-0.1,0-0.1,0-0.2,0c-0.2,0-0.4-0.1-0.6-0.1c0,0,0,0-0.1,0l0,0c-0.2,0-0.4,0-0.6,0.1c-0.1,0-0.1,0-0.2,0c-0.1,0-0.3,0.1-0.4,0.1
	c-0.1,0-0.1,0.1-0.2,0.1c-0.1,0.1-0.3,0.1-0.4,0.2c-0.1,0-0.1,0.1-0.2,0.1c-0.2,0.1-0.3,0.3-0.5,0.4c-0.3,0.3-0.4,0.8-0.1,1.2
	l2.8,5.1l1.8,3.1l0.1,0.1c0.4,0.5,0.9,1.1,1.3,1.5l0.7,0.6c0.7,0.6,1.5,1.1,2.3,1.4v2.7h1.1h1.1l0,0h8.2l0,0h1v-2.2
	c1.8-0.5,3.2-2.1,3.2-4.1v-3.5l0.9-0.2v0.1c0.3,0.1,0.7,0.2,1,0.2c0.6,0,1.1-0.2,1.6-0.5c0.1-0.1,0.1-0.1,0.2-0.2
	c13.6,7.2,29,11.3,45.5,11.3c10.3,0,20.3-1.6,29.6-4.6c0.2,0.1,0.4,0.1,0.6,0.1h1.2c0,2.2,1.8,3.9,3.9,3.9c2.2,0,3.9-1.7,3.9-3.9
	h7.9c0,2.2,1.8,3.9,3.9,3.9c1.3,0,2.5-0.7,3.2-1.7c0.3-0.4,0.5-0.9,0.6-1.4c0.1-0.3,0.1-0.5,0.1-0.8h1c1.1,0,1.9-0.8,1.7-1.9v-5.9
	c0-1.1-0.8-1.9-1.9-1.9H287l-0.6-2.3c15.3-10.3,27.5-24.7,34.9-41.7h7.7c0.3,0,0.5-0.2,0.5-0.5c0-0.5-0.2-0.7-0.5-0.7h-1.7v-4.4
	c0-0.3-0.2-0.5-0.5-0.5l0,0v-1.1h2.7c0.3,0,0.5-0.2,0.5-0.5c0.1-0.3-0.2-0.5-0.5-0.5h-2.7v-1.4h8.2c0.2,0,0.4,0,0.6,0.1
	c0.5,0.2,0.9,0.7,0.9,1.3c0,0.4-0.1,0.7-0.3,1c-0.2,0.3-0.5,0.4-0.8,0.5c-0.1,0-0.2,0-0.3,0H335c-0.3,0-0.5,0.2-0.5,0.5
	c0,0.2,0.1,0.4,0.3,0.4c0.1,0,0.1,0,0.2,0c0.8,0,1.5-0.4,1.9-0.9c0.2-0.2,0.3-0.4,0.4-0.6c0.1-0.3,0.2-0.6,0.2-1
	C337.6,192.6,336.5,191.4,335.1,191.4z"/>
<g>
	<circle class="st20" cx="232.2" cy="162.5" r="97.3"/>
	<circle class="st21" cx="232.2" cy="162.5" r="71.1"/>
	<polygon class="st1" points="214.3,170.8 219.2,166.3 223,161.5 225.8,166.3 230.3,169.8 228.1,173.5 225.8,175.9 222.3,179.9 
		219.2,175.9 	"/>
	<polygon class="st1" points="233.1,156.1 236.3,153.2 238.7,150.1 240.6,153.2 243.5,155.5 242.1,157.9 240.6,159.5 238.3,162.1 
		236.3,159.5 	"/>
	<path class="st1" d="M231.8,90c1.7,0.2,14.5-5,15.3-11.7s0.3-10.1,0.3-10.1s-5.9-0.4-7.3-1.5c-1.4-1.1-5.7-4.3-8.3-4.2
		s-7.1,3.1-8.6,3.7c-1.5,0.7-8.2,2.1-8.2,2.1s0,9.1,0.6,10.1C216.2,79.2,219.8,88.7,231.8,90z"/>
	<path class="st1" d="M142.5,129.8l-1.6-3.2c0,0,3.7-1.5,3.2-3.5s-4.3-2-5.1-2.4c-0.9-0.4-1.7-2.5-1.7-2.5s-2.6-2.3,2.4-2.4
		s9.7,0,9.7,0s1.9,1.8,1.7,3.8s-2.8,3.6-2.8,3.6l0.6,6.1l0.9,25l-14.3,1.9c0,0-0.7-7.3,0-7.8s5.9-13,5.9-13L142.5,129.8z"/>
	<polygon class="st1" points="169.6,259 178.9,259 178.9,255.8 181.6,254.5 182.1,249.3 184.9,248.8 187,246.8 186.4,225.3 
		183.7,222 180.9,221.6 179.8,221.6 175.5,223.3 169.6,221.6 165.7,222.7 164.4,226.2 164.4,238.8 165.9,242.1 169.1,242 
		168.6,246.9 166.9,247.1 165.1,245.8 163.2,243.4 160.5,243.4 161.7,246.2 166.1,253.9 167.3,254.2 169.3,255.6 	"/>
	<path class="st1" d="M264.7,255.4c0,0,1.5,3,2.8,3s2.9-2.7,2.9-3.5s9.7-0.5,9.7-0.5s1,4,2.7,4s3.2-3.6,3.2-3.6l2.6-0.5v-7.5
		L286,246l-2.6-9.6h-6.9l-0.5-5.5h-4l-0.1,13.7l-0.3,1.7l-10.1,0.5v7.1h2.2L264.7,255.4z"/>
	<polygon class="st1" points="309,175.9 316,180.6 326.9,180.6 326.9,200.8 316,201.1 309,205.9 	"/>
	<polygon class="st1" points="290.9,111.8 290.9,102.5 293.7,100.7 296.3,102.5 296.3,111.5 299,115.7 298.6,119.3 296.2,122.5 
		293,122.5 290.9,121.8 289.2,120.8 288.4,117.8 288.4,115.3 	"/>
	<g>
		<g>
			<path class="st2" d="M303.3,162.2L303.3,162.2L303.3,162.2c0-21.3-17.3-38.6-38.6-38.6s-38.6,17.3-38.6,38.6h0.5
				c0-21,17.1-38.1,38.1-38.1s38.1,17.1,38.1,38.1c0,39.4-32.1,71.5-71.5,71.5s-71.5-32.1-71.5-71.5s32.1-71.5,71.5-71.5v-0.5
				c-39.7,0-72,32.3-72,72s32.3,72,72,72C271.1,234.1,303.3,201.8,303.3,162.2L303.3,162.2L303.3,162.2z"/>
			<path class="st2" d="M231.4,235.1c-40.2,0-73-32.7-73-73s32.7-73,73-73c0.6,0,1,0.4,1,1v0.5c0,0.6-0.4,1-1,1
				c-38.9,0-70.5,31.6-70.5,70.5s31.6,70.5,70.5,70.5c38.8,0,70.5-31.6,70.5-70.5c0-20.5-16.6-37.1-37.1-37.1s-37.1,16.6-37.1,37.1
				c0,0.6-0.4,1-1,1h-0.5c-0.6,0-1-0.4-1-1c0-21.8,17.8-39.6,39.6-39.6s39.6,17.8,39.6,39.6l0,0
				C304.3,202.4,271.6,235.1,231.4,235.1z"/>
		</g>
		<g>
			<path class="st2" d="M231.4,90.2c-39.7,0-72,32.3-72,72s32.3,72,72,72s72-32.3,72-72l0,0l0,0l0,0l0,0c0-21.3-17.3-38.6-38.6-38.6
				s-38.6,17.3-38.6,38.6h0.5c0-21,17.1-38.1,38.1-38.1s38.1,17.1,38.1,38.1c0,39.4-32.1,71.5-71.5,71.5s-71.5-32.1-71.5-71.5
				s32.1-71.5,71.5-71.5V90.2L231.4,90.2z M303.3,162.2L303.3,162.2L303.3,162.2z"/>
			<path class="st2" d="M231.4,235.1c-40.2,0-73-32.7-73-73s32.7-73,73-73c0.6,0,1,0.4,1,1v0.5c0,0.6-0.4,1-1,1
				c-38.9,0-70.5,31.6-70.5,70.5s31.6,70.5,70.5,70.5c38.8,0,70.5-31.6,70.5-70.5c0-20.5-16.6-37.1-37.1-37.1s-37.1,16.6-37.1,37.1
				c0,0.6-0.4,1-1,1h-0.5c-0.6,0-1-0.4-1-1c0-21.8,17.8-39.6,39.6-39.6s39.6,17.7,39.6,39.5v0.1v0.1
				C304.3,202.5,271.6,235.1,231.4,235.1z"/>
		</g>
	</g>
	<g>
		<g>
			<polygon class="st2" points="211.4,152 209.9,154.6 207.3,156.1 209.9,157.5 211.4,160.2 212.8,157.5 215.5,156.1 212.8,154.6 
							"/>
			<polygon class="st2" points="224,146.8 223,145 222,146.8 220.1,147.8 222,148.8 223,150.6 224,148.8 225.8,147.8 			"/>
		</g>
		<g>
			<path class="st2" d="M238.3,164.7l-3-5.6l-5.6-3l5.6-3l3-5.6l3,5.6l5.6,3l-5.6,3L238.3,164.7z M235.2,156.1l2,1.1l1.1,2l1.1-2
				l2-1.1l-2-1.1l-1.1-2l-1.1,2L235.2,156.1z"/>
		</g>
		<g>
			<path class="st2" d="M228.2,165.5L223,156l-5.2,9.5l-9.5,5.2l9.5,5.2l5.2,9.5l5.2-9.5l9.5-5.2L228.2,165.5z M224.6,172.3
				l-1.6,2.9l-1.6-2.9l-2.9-1.6l2.9-1.6l1.6-2.9l1.6,2.9l2.9,1.6L224.6,172.3z"/>
		</g>
		<g>
			
				<rect x="244.5" y="161.8" transform="matrix(0.6786 -0.7345 0.7345 0.6786 -41.2615 233.1631)" class="st2" width="2.6" height="3.8"/>
		</g>
		<g>
			
				<rect x="211.1" y="178.6" transform="matrix(0.802 -0.5973 0.5973 0.802 -65.2878 162.8233)" class="st2" width="3.8" height="2.6"/>
		</g>
		<g>
			
				<rect x="243.9" y="147.3" transform="matrix(0.7754 -0.6315 0.6315 0.7754 -38.6031 188.636)" class="st2" width="3.9" height="2.6"/>
		</g>
		<g>
			
				<rect x="231.4" y="178.1" transform="matrix(0.5974 -0.802 0.802 0.5974 -50.6728 259.069)" class="st2" width="2.6" height="3.8"/>
		</g>
	</g>
	<g>
		<path id="パス_6403_1_" class="st2" d="M253,67.2c-1.5-1-3.5-1-5-0.1l-0.6,0.3c-3.5-0.4-6.9-1.7-9.8-3.7
			c-1.8-1.2-3.4-2.2-6.1-2.2h-0.1c-2.7,0-4.3,1-6.1,2.2c-3,2-6.3,3.2-9.9,3.7l-0.6-0.3c-1.6-0.9-3.5-0.9-5,0.1
			c-1.7,1.1-2.6,2.9-2.6,4.9c0,1.2,0.5,2.3,1.4,3.1c0.4,0.4,0.9,0.7,1.4,1l5.3,2.8c0.8,2,2.1,3.9,3.7,5.4c0.7,0.7,1.4,1.3,2.1,1.9
			c3.4,2.6,7.6,4.4,10.3,4.4s7-1.8,10.3-4.4c2.5-1.9,4.5-4.4,5.8-7.3l5.3-2.8c1.6-0.8,2.7-2.4,2.8-4.1
			C255.7,70.1,254.7,68.3,253,67.2z M248.3,74.7v-5.9l0.4-0.2c1-0.6,2.3-0.6,3.4,0c1.2,0.8,1.9,2.1,1.8,3.5
			c-0.1,1.2-0.8,2.3-1.9,2.7l-3.9,2C248.3,76.1,248.3,75.4,248.3,74.7L248.3,74.7z M246.7,69v5.7c0,1.2-0.2,2.5-0.7,3.6l-0.6,1.4
			c-0.8,1.4-1.8,2.7-3,3.8l-1.3,1.2c-0.1,0.1-0.3,0.2-0.4,0.3c-3.5,2.7-7.3,4.1-9.3,4.1s-5.9-1.4-9.3-4.1c-0.1-0.1-0.3-0.2-0.4-0.4
			l-1.3-1.2c-1.2-1.1-2.2-2.4-3-3.8l-0.6-1.3c-0.5-1.1-0.7-2.4-0.7-3.6V69c3.6-0.5,7-1.8,10.1-3.8c1.8-1.1,3-1.9,5.3-1.9h0.1
			c2.2,0,3.5,0.8,5.3,1.9C239.7,67.2,243.1,68.5,246.7,69L246.7,69z M211.2,68.3c0.1,0,0.2,0,0.3-0.1c0.2-0.1,0.4-0.1,0.6-0.1
			c0.2,0,0.4,0,0.5,0s0.2,0,0.3,0c0.3,0.1,0.7,0.2,1,0.4l0.4,0.2v6c0,0.7,0.1,1.4,0.2,2.1l-3.9-2c-1.1-0.5-1.8-1.6-1.9-2.7
			c0-1.4,0.7-2.7,1.8-3.5C210.8,68.5,211,68.4,211.2,68.3z"/>
		<path id="パス_6404_1_" class="st2" d="M228.6,73.7l-8.3-2.9c-0.4-0.2-0.9,0-1.1,0.5c-0.2,0.4,0,0.9,0.5,1.1c0,0,0,0,0.1,0
			l8.3,2.9c1.1,0.4,2.2,0.6,3.3,0.6s2.3-0.2,3.3-0.6l8.3-2.9c0.4-0.1,0.7-0.6,0.5-1c-0.1-0.4-0.6-0.7-1-0.5c0,0,0,0-0.1,0l-8.3,2.9
			C232.3,74.3,230.4,74.3,228.6,73.7z"/>
		<path id="パス_6405_1_" class="st2" d="M240,76.1l-5.8,2.1c-1.8,0.6-3.8,0.6-5.6,0l-5.8-2.1c-0.4-0.2-0.9,0-1.1,0.5
			s0,0.9,0.5,1.1c0,0,0,0,0.1,0l5.8,2.1c1.1,0.4,2.2,0.6,3.3,0.6s2.3-0.2,3.3-0.6l5.8-2.1c0.4-0.1,0.7-0.6,0.5-1
			C240.9,76.2,240.5,75.9,240,76.1L240,76.1L240,76.1z"/>
		<path id="パス_6406_1_" class="st2" d="M237.4,81.4l-3.2,1.1c-1.8,0.6-3.8,0.6-5.6,0l-3.3-1.2c-0.4-0.2-0.9,0-1.1,0.5
			s0,0.9,0.5,1.1c0,0,0,0,0.1,0l3.3,1.1c2.2,0.8,4.5,0.8,6.7,0l3.2-1.1c0.4-0.1,0.6-0.6,0.5-1C238.3,81.5,237.8,81.2,237.4,81.4
			L237.4,81.4L237.4,81.4z"/>
	</g>
	<g>
		
			<rect x="128.1" y="110.8" transform="matrix(0.408 -0.913 0.913 0.408 -27.8536 185.6127)" class="st2" width="2.2" height="6.9"/>
		<rect x="124.3" y="119.5" class="st2" width="2.7" height="2.2"/>
		<rect x="129.7" y="119.5" class="st2" width="2.7" height="2.2"/>
		<path class="st2" d="M152.5,119.5v-0.9c0-2.2-1.8-4-4-4h-11.1c-0.6,0-1.1,0.5-1.1,1.1v1h-1.8v2.2h1.8v1.1c0,0.5,0.4,1,0.9,1.1
			l4.5,0.8c0.6,0.1,1.1,0.5,1.3,1.1c0.2,0.8-0.2,1.6-0.9,1.9c-0.6,0.2-1.3,0.3-2.1,0.3l-0.1,2.2c1.1,0.1,2.1-0.1,3-0.4
			c1.8-0.7,2.9-2.7,2.3-4.6c-0.4-1.4-1.6-2.5-3.1-2.7l-3.6-0.6v-2.3h10c1,0,1.7,0.8,1.7,1.7v0.9c0,1-0.8,1.7-1.7,1.7
			c-0.6,0-1.1,0.5-1.1,1.1v6.3h-6.1v1.1c0,2.7-1.1,5.4-3.3,8.2c-3.5,4.4-5.5,9.9-5.5,15.3v5.5h19.9v-30.2h-2.8v-5.3
			C151.3,122.8,152.5,121.3,152.5,119.5z M148.3,152.5h-11l0.1-1.2c0.4-3.8,1.9-7.5,4.4-10.6c0.1-0.1,0.2-0.3,0.3-0.4l0.4-0.6h5.7
			v12.8H148.3z"/>
		<polygon class="st2" points="140.9,147.3 143.5,147.3 143.5,149.9 144.7,149.9 144.7,147.3 147.3,147.3 147.3,146.1 144.7,146.1 
			144.7,143.5 143.5,143.5 143.5,146.1 140.9,146.1 		"/>
	</g>
	<g>
		<g>
			<g>
				<g>
					<g>
						<path class="st2" d="M179.8,243.4h-2.2v-10.1c0-0.3-0.2-0.5-0.5-0.5s-0.5,0.2-0.5,0.5v10.1h-2.2v-10.1c0-1.5,1.2-2.7,2.7-2.7
							s2.7,1.2,2.7,2.7V243.4z"/>
					</g>
					<g>
						<path class="st2" d="M176.6,243.4h-2.2v-12.6c0-0.3-0.2-0.5-0.5-0.5s-0.5,0.2-0.5,0.5v11.5h-2.2v-11.5c0-1.5,1.2-2.7,2.7-2.7
							s2.7,1.2,2.7,2.7V243.4z"/>
					</g>
					<g>
						<path class="st2" d="M170.1,244.8H168v-11.4c0-1.5,1.2-2.7,2.7-2.7s2.7,1.2,2.7,2.7v9h-2.2v-9c0-0.3-0.2-0.5-0.5-0.5
							s-0.5,0.2-0.5,0.5L170.1,244.8L170.1,244.8z"/>
					</g>
					<g>
						<path class="st2" d="M172,256.9h-0.9H171c-1.8-0.2-3.4-0.9-4.8-2.1l-0.7-0.6c-0.4-0.4-0.9-1-1.3-1.5l-0.1-0.1l-1.8-3.1
							l-2.8-5.1c-0.2-0.4-0.2-0.9,0.1-1.2c1-1.1,2.7-1.4,4-0.7l0.3,0.1c0.5,0.3,1,0.7,1.3,1.2l0.8,1.1c0.3,0.5,0.7,0.9,1.1,1.3l0,0
							c0.2,0.1,0.4,0,0.5,0s0.3-0.2,0.3-0.5v-1.4h2.2v1.4c0,1-0.5,1.9-1.4,2.4s-1.9,0.4-2.7-0.1l-0.1-0.1l-0.1-0.1
							c-0.6-0.5-1.1-1.1-1.5-1.7l-0.8-1.2c-0.1-0.2-0.3-0.4-0.5-0.4l-0.3-0.1c-0.2-0.1-0.5-0.2-0.8-0.1l2.3,4.2l1.8,3
							c0.2,0.3,0.7,0.9,1,1.1l0.7,0.6c1,0.9,2.2,1.4,3.5,1.5h0.8V256.9z"/>
					</g>
					<g>
						<path class="st2" d="M179.9,258.9h-2.2v-3.1c0-0.6,0.5-1.1,1.1-1.1c1.1,0,2.1-0.9,2.1-2.1v-16.5c0-0.3-0.2-0.5-0.5-0.5
							s-0.5,0.2-0.5,0.5v8.3h-2.2v-8.3c0-1.5,1.2-2.7,2.7-2.7s2.7,1.2,2.7,2.7v16.5c0,2-1.3,3.6-3.2,4.1L179.9,258.9L179.9,258.9z"
							/>
					</g>
				</g>
			</g>
			<g>
				<rect x="168.6" y="255.8" class="st2" width="2.2" height="3.2"/>
			</g>
		</g>
		<g>
			<path class="st2" d="M184.9,249.3c-0.3,0-0.7-0.1-1-0.2l0.8-2c0.3,0.1,0.5,0,0.6-0.1s0.3-0.2,0.3-0.6v-19.2c0-2.4-1.7-4.4-4-4.6
				c-0.2,0-0.3,0-0.5,0c-1.1,0-1.6,0.3-2.2,0.7c-0.7,0.5-1.7,1-3.4,1s-2.6-0.6-3.4-1c-0.7-0.4-1.1-0.7-2.2-0.7c-0.2,0-0.4,0-0.5,0
				c-2.3,0.3-4,2.2-4,4.6v11.1c0,0.8,0.5,1.6,1.3,1.8l-0.8,2c-1.6-0.6-2.6-2.2-2.6-3.9v-11.1c0-3.5,2.5-6.4,5.9-6.8
				c0.2,0,0.5,0,0.8,0c1.7,0,2.6,0.6,3.4,1c0.7,0.4,1.1,0.7,2.2,0.7c1.1,0,1.6-0.3,2.2-0.7c0.7-0.5,1.7-1,3.4-1c0.3,0,0.5,0,0.8,0
				c3.4,0.4,5.9,3.3,5.9,6.8v19.2c0,0.9-0.5,1.8-1.2,2.3C186.1,249.1,185.5,249.3,184.9,249.3z"/>
		</g>
	</g>
	<g>
		<g id="グループ_5904_1_" transform="translate(0 18.664)">
			<path id="パス_6413_1_" class="st2" d="M288.2,236.7h-2.9L285,236c-0.3-1-1.5-1.5-2.5-1.2c-0.6,0.2-1,0.7-1.2,1.2l-0.3,0.7
				h-11.6l-0.3-0.7c-0.3-1-1.5-1.5-2.5-1.2c-0.6,0.2-1,0.7-1.2,1.2l-0.3,0.7h-2.9c-1.1,0-1.9-0.8-1.9-1.9v-5.9
				c0-1.1,0.8-1.9,1.9-1.9h25.5c1.1,0,1.9,0.8,1.9,1.9v5.9C290.1,235.9,289.3,236.7,288.2,236.7z M286.7,234.8h1.5v-5.9h-25.5v5.9
				h1.5c1.1-1.8,3.4-2.5,5.4-1.4c0.6,0.3,1.1,0.8,1.4,1.4h8.9c1.1-1.8,3.4-2.5,5.4-1.4C285.8,233.7,286.3,234.2,286.7,234.8
				L286.7,234.8z"/>
		</g>
		<g id="グループ_5905_1_" transform="translate(17.497 6.999)">
			<path id="パス_6414_1_" class="st2" d="M270,240.5h-12v-11.8h7.5c1.1,0,2,0.9,2.1,2.1L270,240.5z M259.9,238.6h7.6l-1.9-7.6
				c0-0.1,0-0.2-0.1-0.3H260v7.9H259.9z"/>
		</g>
		<g id="グループ_5906_1_" transform="translate(12.831)">
			<path id="パス_6415_1_" class="st2" d="M264.5,247.5h-5.9v-15.7c0-1.1,0.8-1.9,1.9-1.9h1.9c1.1,0,1.9,0.8,1.9,1.9L264.5,247.5
				L264.5,247.5z M260.7,245.6h1.9v-13.7h-1.9V245.6z"/>
		</g>
		<g id="グループ_5907_1_" transform="translate(3.499 25.662)">
			<path id="パス_6416_1_" class="st2" d="M264.1,233.7c-2.2,0-3.9-1.8-3.9-3.9c0-0.4,0.1-0.9,0.3-1.3c0.8-2,2.9-3.1,5-2.4
				c1.1,0.4,2,1.3,2.4,2.4c0.2,0.4,0.3,0.8,0.3,1.3C268,231.9,266.3,233.7,264.1,233.7z M264.1,227.8c-0.8,0-1.6,0.5-1.8,1.3
				c-0.1,0.3-0.1,0.4-0.1,0.7c0,1.1,0.8,1.9,1.9,1.9s1.9-0.8,1.9-1.9c0-0.3,0-0.4-0.1-0.6C265.7,228.3,264.9,227.8,264.1,227.8
				L264.1,227.8z"/>
		</g>
		<g id="グループ_5908_1_" transform="translate(22.163 25.662)">
			<path id="パス_6417_1_" class="st2" d="M261.1,233.7c-2.2,0-3.9-1.8-3.9-3.9c0-0.4,0.1-0.9,0.3-1.3c0.8-2,2.9-3.1,5-2.4
				c1.1,0.4,2,1.3,2.4,2.4c0.2,0.4,0.3,0.8,0.3,1.3C265.1,231.9,263.3,233.7,261.1,233.7z M261.1,227.8c-0.8,0-1.6,0.5-1.8,1.3
				c-0.1,0.3-0.1,0.4-0.1,0.7c0,1.1,0.8,1.9,1.9,1.9s1.9-0.8,1.9-1.9c0-0.3,0-0.4-0.1-0.6C262.7,228.3,262,227.8,261.1,227.8
				L261.1,227.8z"/>
		</g>
		<g id="グループ_5909_1_" transform="translate(0 13.321)">
			<path id="パス_6418_1_" class="st2" d="M266.9,230.8c-0.8,0-1.6-0.3-2.3-0.7c-0.9-0.5-1.4-0.8-2.4-0.1
				c-0.4,0.3-1.1,0.2-1.3-0.3s-0.2-1.1,0.3-1.3l0,0c1.3-0.9,3.1-0.9,4.5-0.1c0.9,0.5,1.4,0.8,2.4,0.1c0.4-0.3,1.1-0.2,1.3,0.3
				c0.3,0.4,0.2,1.1-0.3,1.3l0,0C268.4,230.6,267.7,230.8,266.9,230.8z"/>
		</g>
		<g id="グループ_5910_1_" transform="translate(0 7.983)">
			<path id="パス_6419_1_" class="st2" d="M266.9,231.7c-0.8,0-1.6-0.3-2.3-0.7c-0.9-0.5-1.4-0.8-2.4-0.1
				c-0.4,0.3-1.1,0.2-1.3-0.3c-0.3-0.4-0.2-1,0.3-1.3c1.3-0.9,3.1-0.9,4.5-0.1c0.9,0.5,1.4,0.8,2.4,0.1c0.4-0.3,1.1-0.2,1.3,0.3
				c0.3,0.4,0.2,1.1-0.3,1.3l0,0C268.4,231.5,267.7,231.7,266.9,231.7z"/>
		</g>
		<g id="グループ_5911_1_" transform="translate(0 2.331)">
			<path id="パス_6420_1_" class="st2" d="M266.9,232.6c-0.8,0-1.6-0.3-2.3-0.7c-0.9-0.5-1.4-0.8-2.4-0.1
				c-0.4,0.3-1.1,0.2-1.3-0.3c-0.3-0.4-0.2-1,0.3-1.3c1.3-0.9,3.1-0.9,4.5-0.1c0.9,0.5,1.4,0.8,2.4,0.1c0.4-0.3,1-0.3,1.3,0.2
				s0.3,1-0.2,1.3l-0.1,0.1C268.4,232.4,267.7,232.6,266.9,232.6z"/>
		</g>
	</g>
	<g id="グループ_5913_1_" transform="translate(-1139 -1482)">
		<path id="パス_6421_1_" class="st2" d="M1472.9,1666.4c0.7,0,1.2,0.6,1.2,1.3s-0.5,1.2-1.2,1.2h-13.4c-0.3,0-0.5,0.2-0.5,0.5
			s0.2,0.5,0.5,0.5l0,0h13.4c1.2,0,2.2-1,2.2-2.2s-1-2.2-2.2-2.2c-0.3,0-0.5,0.2-0.5,0.5C1472.5,1666.2,1472.7,1666.4,1472.9,1666.4
			L1472.9,1666.4z"/>
		<path id="パス_6422_1_" class="st2" d="M1474.1,1673.4h-15.5c-0.3,0-0.5,0.2-0.5,0.5s0.2,0.5,0.5,0.5l0,0h15.5
			c0.8,0,1.5,0.6,1.5,1.4s-0.6,1.5-1.4,1.5h-0.1c-0.3,0-0.5,0.2-0.5,0.5s0.2,0.5,0.5,0.5c1.4,0,2.5-1.1,2.5-2.5
			C1476.6,1674.6,1475.5,1673.4,1474.1,1673.4z"/>
		<path id="パス_6423_1_" class="st2" d="M1462.7,1671.3c-0.3,0-0.5,0.2-0.5,0.5s0.2,0.5,0.5,0.5h9c0.3,0,0.5-0.2,0.5-0.5
			s-0.2-0.5-0.5-0.5l0,0H1462.7z"/>
		<path id="パス_6424_1_" class="st2" d="M1468.6,1675.7h-7.8c-0.3,0-0.5,0.2-0.5,0.5s0.2,0.5,0.5,0.5h7.8c0.3,0,0.5-0.2,0.5-0.5
			C1469.1,1675.9,1468.9,1675.7,1468.6,1675.7z"/>
		<path id="パス_6425_1_" class="st2" d="M1468.1,1682.5h-1.7v-4.4c0-0.3-0.2-0.5-0.5-0.5s-0.5,0.2-0.5,0.5l0,0v4.4h-9.9V1663h9.9
			v4.4c0,0.3,0.2,0.5,0.5,0.5s0.5-0.2,0.5-0.5l0,0v-4.9c0-0.3-0.2-0.5-0.5-0.5h-10.8l-6.9-4.7c-0.2-0.2-0.5-0.1-0.7,0.2
			c-0.1,0.1-0.1,0.2-0.1,0.3v14.6h-1.4c-0.3,0-0.5,0.2-0.5,0.5v2.7c0,0.3,0.2,0.5,0.5,0.5s0.5-0.2,0.5-0.5v-2.2h1v14.6
			c0,0.3,0.2,0.5,0.5,0.5c0.1,0,0.2,0,0.3-0.1l6.9-4.7h13c0.3,0,0.5-0.2,0.5-0.5C1468.6,1682.7,1468.3,1682.5,1468.1,1682.5
			L1468.1,1682.5L1468.1,1682.5z M1448.4,1658.6l6.1,4.2v20l-6.1,4.2V1658.6z"/>
	</g>
	<path class="st2" d="M293.7,101.8c0.8,0,1.5,0.7,1.5,1.5v7.5c0,1.6,0.5,2.3,1.4,3.1c1,0.9,1.6,2.1,1.6,3.4c0,2.5-2,4.5-4.5,4.5
		s-4.5-2-4.5-4.5c0-1.3,0.6-2.6,1.6-3.4c0.9-0.8,1.4-1.5,1.4-3.1v-7.5C292.2,102.5,292.9,101.8,293.7,101.8z M293.7,99.8
		c-1.9,0-3.5,1.6-3.5,3.5v7.5c0,0.6-0.3,1.1-0.7,1.5c-1.4,1.2-2.3,3-2.3,5c0,3.6,2.9,6.5,6.5,6.5s6.5-2.9,6.5-6.5c0-2-0.9-3.8-2.3-5
		c-0.4-0.4-0.7-0.9-0.7-1.5v-7.5C297.2,101.4,295.7,99.8,293.7,99.8z M295.8,114.6c-1-0.9-1.6-1.7-1.6-3.2v-1.5h-1v1.5
		c0,1.5-0.6,2.3-1.6,3.2c-0.8,0.7-1.4,1.6-1.4,2.8c0,1.9,1.6,3.5,3.5,3.5s3.5-1.6,3.5-3.5C297.2,116.2,296.6,115.3,295.8,114.6z"/>
</g>
<path class="st6" d="M24,368.5"/>
<g>
	<path class="st2" d="M159.9,64.6c0,0.5-0.1,0.9-0.3,1.4c-0.2,0.4-0.6,0.9-1.1,1.3c-0.8,0.6-1.8,0.8-2.8,0.5c-1-0.3-1.9-1-2.6-2
		c-0.7-1-1.1-2-1.1-3c0-1,0.4-1.9,1.4-2.6c0.4-0.3,0.8-0.5,1.2-0.6c0.4-0.1,0.8-0.1,1.3,0l-0.1,0.8c-0.4-0.1-0.7,0-1,0
		c-0.3,0.1-0.6,0.2-0.9,0.4c-0.6,0.5-0.9,1.1-0.9,1.9c0,0.8,0.3,1.6,0.9,2.3c0.7,1,1.5,1.6,2.3,1.8s1.4,0.1,2-0.2
		c0.5-0.4,0.8-0.7,0.9-1c0.1-0.3,0.2-0.7,0.2-1.1L159.9,64.6z"/>
	<path class="st2" d="M165.5,62.6c-1,0.6-2,0.8-3,0.4c-1-0.4-1.8-1.1-2.6-2.2c-0.7-1-0.9-2.1-0.7-3.2s0.7-1.9,1.6-2.5
		c1-0.6,2-0.8,2.9-0.4c1,0.3,1.8,1.1,2.5,2.2c0.7,1,0.9,2.1,0.8,3.2C166.9,61.2,166.4,62,165.5,62.6z M165.1,61.9
		c0.6-0.4,0.9-1,1.1-1.8c0.1-0.8-0.2-1.8-0.8-2.9c-0.4-0.7-1-1.2-1.8-1.6s-1.5-0.3-2.3,0.1c-0.7,0.5-1.2,1.1-1.2,1.9
		s0.2,1.7,0.7,2.5c0.6,1,1.4,1.6,2.1,1.9C163.7,62.4,164.4,62.3,165.1,61.9z"/>
	<path class="st2" d="M171.5,58.8l-0.8,0.4l-4-7.4l2-1.1c0.8-0.4,1.5-0.6,2.1-0.4s1.1,0.6,1.4,1.2c0.2,0.4,0.3,0.9,0.2,1.5
		c-0.1,0.5-0.3,1-0.7,1.3l3.9,2.2l-1,0.5l-3.6-2.2c0,0-0.5,0.3-1.2,0.7L171.5,58.8z M169.5,55.1l0.8-0.4c0.6-0.3,1-0.7,1.2-1.2
		s0.2-0.9-0.1-1.4c-0.3-0.5-0.6-0.8-1-0.9s-1,0.1-1.6,0.4l-0.9,0.5L169.5,55.1z"/>
	<path class="st2" d="M180.7,54.4c-1.1,0.5-2.1,0.5-3,0c-0.9-0.5-1.7-1.4-2.2-2.6c-0.5-1.1-0.6-2.2-0.3-3.2c0.3-1,1-1.8,2-2.2
		c1.1-0.5,2-0.5,3,0c0.9,0.5,1.6,1.3,2.2,2.5c0.5,1.1,0.6,2.2,0.3,3.3C182.3,53.2,181.6,54,180.7,54.4z M180.4,53.7
		c0.6-0.3,1.1-0.8,1.3-1.7s0.1-1.8-0.4-2.9c-0.3-0.7-0.8-1.3-1.5-1.8c-0.7-0.5-1.5-0.6-2.3-0.2c-0.8,0.4-1.3,0.9-1.5,1.7
		c-0.2,0.8-0.1,1.7,0.3,2.6c0.5,1.1,1.1,1.8,1.9,2.2C178.9,54,179.7,54,180.4,53.7z"/>
	<path class="st2" d="M184.8,45.1l2.3,6.5l-0.9,0.3l-2.9-7.9l0.9-0.3l6.3,5.1l-2.4-6.5l0.9-0.3l2.9,7.9l-0.8,0.3L184.8,45.1z"/>
	<path class="st2" d="M194.2,40.4l0.9-0.2l5,7.3l-1,0.3l-1.6-2.5l-2.7,0.8l-0.1,3l-0.9,0.2L194.2,40.4z M194.7,45.3l2.4-0.7
		l-2.2-3.4L194.7,45.3z"/>
	<path class="st2" d="M204.8,37.8l0.9-0.2l-0.9,8.8l-0.9,0.2l-4.4-7.7l1-0.2l3.6,6.5L204.8,37.8z"/>
	<path class="st2" d="M209.4,45.5l-1.4-8.3l0.9-0.2l1.4,8.3L209.4,45.5z"/>
	<path class="st2" d="M213.8,44.8l-0.9,0.1l-1-8.4l2.3-0.3c0.9-0.1,1.6,0,2.1,0.4c0.5,0.4,0.8,0.9,0.9,1.7c0.1,0.5-0.1,1-0.4,1.5
		c-0.3,0.5-0.7,0.8-1.1,1l2.8,3.5l-1.1,0.1l-2.6-3.3c0,0-0.5,0.1-1.4,0.2L213.8,44.8z M213.3,40.5l0.9-0.1c0.7-0.1,1.2-0.3,1.6-0.7
		c0.3-0.4,0.5-0.8,0.4-1.3c-0.1-0.6-0.3-1-0.6-1.2c-0.4-0.2-0.9-0.3-1.7-0.2l-1,0.1L213.3,40.5z"/>
	<path class="st2" d="M220.8,35.6l0.3,5.1c0.1,1.1,0.3,1.8,0.7,2.1c0.4,0.3,0.9,0.4,1.6,0.4c0.8,0,1.3-0.2,1.7-0.6s0.5-1.1,0.5-2.2
		l-0.3-5.1l0.9-0.1l0.3,5.1c0.1,1.4-0.1,2.3-0.7,2.8c-0.5,0.5-1.3,0.8-2.4,0.8c-1,0.1-1.8-0.1-2.3-0.6c-0.5-0.4-0.8-1.3-0.9-2.7
		l-0.3-5.1L220.8,35.6z"/>
	<path class="st2" d="M229.5,41.9c0.2,0.3,0.6,0.5,0.9,0.8c0.4,0.2,0.8,0.3,1.3,0.3c0.6,0,1-0.1,1.3-0.4c0.3-0.3,0.5-0.6,0.5-1.1
		c0-0.5-0.1-0.8-0.4-1.1c-0.3-0.2-0.7-0.5-1.3-0.7l-0.5-0.2c-0.6-0.2-1.2-0.6-1.6-0.9s-0.6-0.9-0.6-1.5c0-0.6,0.3-1.2,0.8-1.5
		c0.5-0.4,1.1-0.6,1.9-0.5c0.6,0,1.1,0.1,1.4,0.3c0.4,0.2,0.7,0.4,1.1,0.8l-0.5,0.6c-0.2-0.2-0.5-0.4-0.8-0.6s-0.7-0.3-1.1-0.3
		c-0.5,0-0.9,0.1-1.2,0.3c-0.3,0.2-0.5,0.5-0.5,0.9c0,0.4,0.2,0.8,0.5,1.1c0.4,0.3,0.7,0.5,1.1,0.6l0.8,0.3c0.8,0.3,1.4,0.7,1.7,1
		s0.4,0.8,0.4,1.4c0,0.8-0.3,1.3-0.8,1.8c-0.5,0.4-1.2,0.6-2,0.6c-0.3,0-0.6,0-0.9-0.1c-0.3,0-0.5-0.1-0.7-0.2
		c-0.2-0.1-0.5-0.2-0.7-0.4c-0.2-0.2-0.4-0.3-0.6-0.6L229.5,41.9z"/>
	<path class="st2" d="M244.5,40.9l-0.4,3.5l-0.9-0.1l1-8.4l2.3,0.3c0.9,0.1,1.5,0.4,1.9,0.9c0.4,0.5,0.6,1.1,0.5,1.9
		c-0.1,0.6-0.4,1.2-1,1.6c-0.6,0.4-1.4,0.6-2.4,0.4L244.5,40.9z M244.6,40.2l0.9,0.1c0.7,0.1,1.2,0,1.7-0.3c0.4-0.3,0.7-0.7,0.8-1.2
		c0.1-0.6,0-1-0.3-1.3c-0.3-0.3-0.8-0.5-1.5-0.6l-1-0.1L244.6,40.2z"/>
	<path class="st2" d="M251.2,45.4l-0.9-0.2l1.5-8.3l2.2,0.4c0.9,0.2,1.5,0.5,1.9,1c0.4,0.5,0.5,1.1,0.3,1.9
		c-0.1,0.5-0.3,0.9-0.8,1.3c-0.4,0.4-0.9,0.5-1.3,0.6l1.6,4.2l-1.1-0.2l-1.5-3.9c0,0-0.5-0.1-1.4-0.2L251.2,45.4z M252,41.2l0.9,0.2
		c0.7,0.1,1.3,0.1,1.7-0.2c0.4-0.2,0.7-0.6,0.8-1.1c0.1-0.6,0-1-0.3-1.3c-0.3-0.3-0.8-0.5-1.5-0.7l-1-0.2L252,41.2z"/>
	<path class="st2" d="M263.9,40.3l-3.5-0.9l-0.7,2.8l2.8,0.7l-0.2,0.7l-2.8-0.7l-0.8,3.3l3.6,0.9l-0.2,0.7l-4.5-1.1l2-8.2l4.4,1.1
		L263.9,40.3z"/>
	<path class="st2" d="M271.4,41.8l0.9,0.3l-5.1,7.2l-0.8-0.3l0-8.8l0.9,0.3l-0.1,7.4L271.4,41.8z"/>
	<path class="st2" d="M278.6,45.2l-3.3-1.3l-1,2.7l2.7,1l-0.2,0.7l-2.7-1l-1.2,3.1l3.5,1.3l-0.3,0.7l-4.4-1.7l3-7.9l4.2,1.6
		L278.6,45.2z"/>
	<path class="st2" d="M281.8,47.4l-2.9,6.3l-0.8-0.4l3.5-7.7l0.8,0.4l0.9,8.1l2.9-6.3l0.8,0.4l-3.5,7.7l-0.8-0.4L281.8,47.4z"/>
	<path class="st2" d="M294.3,52.8l-2.3-1.2l-3.6,6.7l-0.8-0.4l3.6-6.7l-2.3-1.2l0.4-0.7l5.4,2.9L294.3,52.8z"/>
	<path class="st2" d="M292.4,60.6l4.3-7.2l0.8,0.5l-4.3,7.2L292.4,60.6z"/>
	<path class="st2" d="M298.3,64.5c-1-0.7-1.5-1.5-1.6-2.6c-0.1-1,0.3-2.1,1-3.3c0.7-1,1.6-1.7,2.6-1.9c1.1-0.3,2-0.1,2.9,0.5
		c1,0.7,1.5,1.5,1.6,2.5s-0.3,2.1-1,3.2c-0.7,1-1.6,1.7-2.6,2C300.2,65.3,299.2,65.1,298.3,64.5z M298.8,63.9
		c0.6,0.4,1.3,0.5,2.1,0.2c0.8-0.2,1.6-0.9,2.3-1.9c0.4-0.7,0.7-1.4,0.7-2.3c0.1-0.9-0.3-1.5-1.1-2c-0.7-0.5-1.5-0.6-2.3-0.3
		c-0.8,0.3-1.5,0.8-2,1.7c-0.7,1-1,1.9-0.9,2.7S298.2,63.5,298.8,63.9z"/>
	<path class="st2" d="M308.5,63.1l-4.3,5.4l-0.7-0.6l5.2-6.6l0.7,0.6l-1,8l4.3-5.5l0.7,0.6l-5.2,6.6l-0.7-0.5L308.5,63.1z"/>
</g>
</svg>
