<svg xmlns="http://www.w3.org/2000/svg" viewBox="0 0 382.66 405.23"><defs><style>.cls-1{fill:#fff;}.cls-2{fill:#ce9b72;}.cls-3{fill:#5ce0de;}.cls-4{fill:#231815;}.cls-5{fill:#ffdacc;}</style></defs><g id="Capa_2" data-name="Capa 2"><g id="レイヤー_2" data-name="レイヤー 2"><path class="cls-1" d="M143.5,373.34c4.91,6.65,17.59,20.94,23.86,26.21s24,4.05,24.07-3.55-5.87-87-5.87-87l98.75,4.27-3.51-7.07-22.43-9.32-1.56-30.11s39.63-20.85,45.43-33.24c2.06,3.48,12.91-19.43,12.91-19.43l6,2.42-1,20.51,27-13.85-21.92-11s4.35.66,2.79-6.94c7-6.11,10.46-10,10.46-10l5.08-12.26,17.33-42.23s5.36-16.08.93-29.85-22-62-41.13-77.78S275.32,5.44,257.64,17L249,21.59S229.52,1.91,205.42,2.31s-64.82,5-108.84,67.31,14.7,137.27,31.9,144.59"/><path class="cls-2" d="M367.3,135l-.38-1,.53-1.05-.93-1,.82-1.1-.47-1-.58-1,0-1,.39-1.11-.28-1-.62-.92.38-1.14-.56-.93-.6-.91-.12-1-.57-.91.3-1.16-1.05-.76,0-1.07L363,116l-.16-1,.27-1.17-.74-.85.08-1.11-.64-.88-.55-.9-.59-.9.23-1.17-.26-1-.15-1-.31-1-.23-1-.23-1-.84-.8-.21-1-.91-.79.07-1.12-.8-.83.35-1.2-1-.75.43-1.24,0-1.08-1-.77-.52-.92-.2-1,.14-1.14-.42-1-.09-1-.82-.81-.22-1-.75-.81-.05-1.09.07-1.15-.94-.71-.6-.86-.33-1-.76-.77V78.91l-.71-.79,0-1.17-.73-.78-.13-1.11-1.12-.55-.26-1-.88-.67.19-1.32L345.55,71l-.66-.8L344.77,69l-.8-.71-.85-.66-.05-1.23L342,65.94a32.37,32.37,0,0,0-.44-6.81c-1-3.22-30.22-33.28-34.68-35.59A14.33,14.33,0,0,0,302,22.19l-.47-.58-.28-1.24-1.37.41-.72-.93-.78-.81-1-.36-1.18.06-.69-1.11-1.16.09-.88-.8-1.21.53-.91-.91-1.08.14-1-.39-1.09.68-1-.59-1,.22-.93-.13a15.89,15.89,0,0,0-3.41-2.68s-11.89-.16-18.83,1c-3.19.54-7.39,2.5-11,4.46h-.2l-1.06.19-.89-.52-1.11.17-1-.1-.68-.89-.77-.64-.84-.5-1-.21-.7-.71-.6-.94-.81-.67-1.27,0-.48-1.16-.89-.59-.89-.65-1.41.49-.76-.88-.92-.55-1.14,0L233.69,10l-1.2.3-1.08-.05-.78-1.17L229.55,9l-1.1,0-1-.54-1-.39-1,.21-1.1-.16-.53-1-.59-.81-.31-1-1.41-.2.06-1.35L220.84,3l-1-.4-1-.35-1-.25-1-.41-1-.08-1.05.29-1-.34-1,.09-1.05.73-1,.07-1,.05-1-.45-1-.29h-1l-1,.62-1,.2-1,0-1.05-.64-1,.39-1-.25-1,.41-1-.33-1.05-.26-1-.06-1,.39-1,.15-1,.38L192,3,191,2.94l-1,.15-1.06,0-1.08-.16-.95.66-1.1-.25-1,.1h-1.07l-.82,1.12-1.21-.6L180.82,5l-1,.23-1.23-.6-.89.69-.87.72-1,.18-1.23-.43-1,.29-.91.57-1.08.08-.85.72-1,.43-.87.62L168,9l-1.17-.09-.7,1L165,10l-.86.61-1.08.16-.93.46-.9.54-.83.64-1,.35-.79.74-.86.59-1.36-.28-.65.95-1,.38-.91.51-1,.44-.51,1.11-1.31-.07-.53,1.06-.9.52-.75.46a83.33,83.33,0,0,0-12.68,7.51c-20,14.17-39.41,44.89-47.79,61.4-3.23,6.38-4.46,14-4.76,21l-.26.5.18,1.17v1.09l-1.15.81-.35,1,.27,1.17-.29,1,.32,1.13-1.08.86L82,119l-.06,1-.4,1L81,122l-.07,1-.53,1,.09,1.06-.29,1,.68,1.09-.44,1,.4,1.05-.48,1.08.61,1L81,132.5l-.5,1.11.59,1,.08,1,.37,1v1.08l.11,1.06.27,1,.21,1-.08,1.08.6.89,0,1.08,1.11.74-.53,1.22.27,1,1.18.71.16,1-.46,1.2.45.92.33,1,.56.89.82.81v1.06l.64.86-.33,1.19.73.83-.33,1.2.33,1,.49.92.29,1,1.13.69-.51,1.28.33,1,.66.85.41,1,1,.73.23,1L91.4,169l.43.93.31,1,.25,1,.46.92.55.88.95.65.86.67-.14,1.27.63.81,1,.63.22,1.21.71.83,1,.61.92.65.16,1.19,1,.5.14,1.73h1l.43,1,.53,2,.56,1,.73,1.59.43,1,1,1.68.3.39,1.25,1,.69.56.48,1,.6,1.17,1.21,2,.44-.15.5.93.43-1.46.5,3.46.82-1.06.88.77.35,1.06.69.26.55.89.14.21.83.65.53-.13.3,1.11,1.3.5.84.63.9.22.95.53.83.64.65.81.61.84.47,1,.63.84,1,.46.56.91.83.64,1.26,0,.66.78.89.38.68.75.86.43.72.68,1.16.41.1-1.05-.06-1.05-.24-1,.25-1.06-.84-1,.54-1.06-.38-1-.45-1,0-1.06.24-1.06-.4-1,.43-1.07.28-1.07-.85-1,1.08-1.12-1.19-.9.86-1.13-.95-.92-.21-1v-1l-.28-1,.64-1.11-.55-1-.36-1,.07-1-.2-1,.52-1.1-.36-1-.37-1.11-.42-1.07-1.13-.73-.19-1.18.79-.67,1-.48.77-.71,1-.47.47-1.07.67-.83h1.33l.21-1.44,1.43.21.35-1.29,1.26-.6-.42-1.16,1.16-.35,1-.59.77-1,.57-.91.33-1.07.14-1.19.6-.9,1.1-.57-.14-1.39.63-.88.63-.95,1.54.09.09-1.35,1-.36.44-1,1.08-.34.35-1.08,1.05-.37.84-.58.32-1.13.84-.61.59-.21h.78l.84-.69,1.29,0,.75-1,.14-1.31.94-.64.81-.77.6-.92.87-.7.61-.87.47-1,1.22-.39.34-1.07.27-1.05.68-.86.33-1,.54-.94-.63-1.3,1.14-.75,0-1.12V141.1l.35-1,.7-.87,1.25-.37.64-.77.4-1.13,1.26-.07.53-1,1.16-.14.39-1.3.9-.55,1.2.06,1.3-1-.2.35.63.41-.23,1.21.76.85.5.83.61,1.17,1.06-.26.74-.62.75-.38,0,.41,1.11.65,1,.57.95-.62,1.24-.26.48-1.16.94-.09.88-.17.71-.46.81-.72.9-.54.77-.68.9-.62,0-1.29.46-.93.65-.8,1.23-.41.39-1,.1-1.18,1.11-.5.64-.82,0-1.25.47-.92,1.07-.56.68-.8.36-1,.23-1.07.46-.92.56-.87.74-.78,0-.87c2.64-1.6,5.89-5,9.14-12.09,6.4-14,7.9-21.75,8.4-30.27l.15-.13.08-1.08.25-1,.39-1,.72-.83.66-.85-.24-1.19,0-1.1,1.2-.64-.07-1.21.81-.73,1.38.2.63-1,1.06-.32L224,63l1.13.11.43,1.22.87.7,1,.6,1.1-.32,1.12.48h1.05l.82.65,1.09.2.71.75.41,1,.78.7,1.19.43-.07,1.33,1,.62.24,1.09.94.63.62.82,0,1.15,1,.59.17,1.07,0,1.16,1,.61.34,1.2.63-.79.13-.62a90.42,90.42,0,0,0,6.6,13.92l-.09.25.45.3.55.79-.1.8.89.75-.06,1.17,1,.7-.13,1.24,1,.67.86.69,0,1.2.95.62.33,1,.42,1,.82.68,1,.48.92.45.71.8,1,.27,1,.29.53,1.27,1.13,0,.93.44,1,.19,1,.15.76,1h1l.11,1.07.73.79,1,.66.15,1.11.89.71.43,1,.24,1.06.76.79.74.79.44,1,.3,1-.1,1.22.5.92.45,1,.37,1,1.08.57.31,1,.22,1,.1,1.07,1.17.52-.11,1.19.46.89,1,.64.79.7.27,1,.54.87.1,1.2.69.78.65.8.77.7,1.15.38.61.81L283,139h1.48l.57.85.74.68.57.84.93.49,0,1.42.91.51,1.12.27.78.63.23,1.26.88.53,1.08.29.94.43.55.92.53,1,.85.55.57.91,1.47-.19.44,1.13,1,.46.79.69.54,1,.74.75.89.56.88.57,1.06.36.63.87,1.18.23.7.79.8.68.63.88.4,1.13,1.3.09.33,1.22.92.54.65.84.71.77,1.44,0,.37,1.14.85.63.43,1.07.77.7.94.53.68.81.79.68.79.7,1.18.28.45,1.05.76.72.74.75.65-.53,1.05-1,1-1.16.88-.49.88-.88,1.21-.61.77-.44h.88l.61.17.55.44.82.54.37-1.29,1.09-.38.79.85,1.14.21.32,1.39,1,.48.93.52,1.15.07.88.6,1,.43.1.43.61.28-.61.22.44.6,1.1.83.5,1.26.6,1,.39.88.38,1.44.66.88.44,1.48,1.9.46.14,1,.58-.76-.07-1.13.83-.79-.07-1.13.74-.81.62-.86.36-1,.46-.92-.31-1.27.31-1,1-.69-.13-1.21,1.33-.5-.18-1.25.8-.76.07-1.13.38-1,1.13-.57,0-1.17.37-1,.75-.77.3-1,1.08-.57,0-1.23.51-.91.74-.73.23-1,.88-.86.93-.63.6-.81.4-.94-.24-1.27.6-.81.88-.67.26-1,.72-.76.13-1,.41-.91,0-1.1,1.27-.56.4-.92.3-1-.61-1.23,1.31-.67-.34-1.15.58-.94-.65-1.17.8-.92-.17-1.06,0-1Zm-279,19.57-.33-.54-.73-.5,1.16.29Zm12.9,13.19-.28-.21-.25-.38.57.34Zm26.38,13.44-.15-.13.18,0ZM195.77,51.46v-.14l.19.14Zm90.3-31.72,0-.27.53-.23Z"/><path class="cls-1" d="M128.48,214.21l4.13,7.67s-19.66,7.59-18,27.78,13.74,46,18,46.21,12.78,13,26.23,13.73c2.26,30.71-1.43,79.55,3.55,84.75s16,14.56,23.24,6.27,3.53-28.21,1.21-60.51-10.64-62-14-63.12-13.55-7.73-15.87-8.51-3.13-13.19-3.13-13.19,23.46,13.51,39.7,17.49A91.45,91.45,0,0,0,225,274.52l-2.85,23.29L185.56,309"/><path class="cls-3" d="M337.86,399.47c-.05-.39-.2-.83-.27-1.36s-.16-.87-.24-1.37-.49-.83-.57-1.32,0-.92-.07-1.4-.2-.88-.28-1.36-.24-.87-.33-1.35.78-1.08.68-1.55-.23-.89-.33-1.36-.46-.84-.56-1.3-.19-.9-.29-1.37-.86-.75-1-1.21.72-1.11.61-1.57-.68-.78-.79-1.24.48-1.07.37-1.53-.34-.87-.46-1.33-1.22-.64-1.34-1.1.72-1.14.6-1.6-1.09-.66-1.21-1.12.93-1.21.8-1.67-1.12-.65-1.25-1.1.12-1,0-1.44.05-1-.08-1.42-1.06-.66-1.19-1.11.18-1,.05-1.47-.32-.87-.46-1.32.23-1,.1-1.49-.25-.9-.39-1.35-.17-.92-.31-1.36-.93-.68-1.07-1.13-1-.65-1.15-1.09.23-1.06.08-1.5-.37-.86-.52-1.3.53-1.17.38-1.61-1.6-.44-1.76-.88.24-1.08.08-1.53-.81-.69-1-1.12-.39-.84-.56-1.27-.06-1-.25-1.4-.6-.74-.79-1.17-.32-.87-.52-1.29-.33-.87-.54-1.28.09-1.1-.13-1.51-.79-.64-1-1-.68-.68-.92-1.08-.43-.82-.68-1.21-.44-.83-.69-1.22.25-1.29,0-1.68-.92-.51-1.19-.89-.76-.6-1-1-.59-.73-.87-1.1-.08-1.12-.37-1.49-.76-.59-1.06-1-.77-.58-1.07-.93-1-.35-1.32-.7.26-1.49-.06-1.84-1.37,0-1.69-.34,0-1.27-.35-1.6-.71-.62-1-.95-.52-.82-.86-1.14-.88-.44-1.22-.76-.92-.38-1.26-.69-.72-.6-1.07-.9-.47-.89-.82-1.19-1.29.07-1.64-.22-.41-1-.77-1.26-.36-1.06-.73-1.35-.82-.48-1.18-.76-1.24.08-1.61-.2-.17-1.37-.54-1.64-1.43.38-1.8.11-.3-1.23-.68-1.49-1.3.26-1.68,0-.79-.49-1.17-.73-.34-1.24-.72-1.48l-1.2-.73c-.41-.25-1.1,0-1.48-.24s-.32-1.36-.71-1.57-1.22.22-1.61,0-.6-.92-1-1.12-1.37.46-1.71.28c-.8-.4-.27-.93-1-1s-.68-1-1.38-1-.7.64-1.4.64-.7.09-1.4.09-.7.74-1.4.74-.7-.46-1.4-.46-.7-.29-1.4-.29h-1.4c-.7,0-.7-.65-1.39-.65s-.7.17-1.4.17-.69.06-1.39.06-.7-.29-1.39-.29-.7,1.13-1.4,1.13-.7-.82-1.4-.82l-1.4,0c-.7,0-.7.79-1.4.79s-.7.21-1.41.21-.7-.59-1.4-.59-.7-.28-1.4-.28-.7-.27-1.39-.27-.7.72-1.4.72-.7-.14-1.4-.14-.7,0-1.4,0-.7-.21-1.4-.21-.7-.09-1.4-.09-.7-.37-1.4-.37-.7,1.36-1.41,1.36-.7-.08-1.4-.08-.7-.49-1.4-.49-.7-.63-1.4-.63-.7.23-1.4.23-.7-.46-1.41-.46-.7,1-1.4,1-.7-.39-1.41-.39-.7-.24-1.4-.24-.7-.13-1.4-.13-.7,1.16-1.41,1.16-.7-.72-1.4-.72-.7.09-1.41.09-.7-.46-1.4-.46-.7.61-1.41.61-.7-.23-1.4-.23-.7-.56-1.4-.56-.7-.07-1.4-.07-.7,1.07-1.41,1.07-.7-.26-1.4-.26-.71-.69-1.41-.69-.7-.09-1.4-.09-.71,0-1.41,0-.71,1.13-1.41,1.13-.71-.11-1.41-.11-.7,0-1.4,0-.71-.22-1.41-.22-.71-.51-1.42-.51-.71.92-1.41.92-.71-.22-1.42-.21-.67.23-1.37.26-.74-1.11-1.43-1.09-.7,0-1.39,0-.68.46-1.38.49-.68.26-1.38.29-.7-.19-1.4-.16-.69.1-1.39.13-.65,1-1.35,1-.72-.52-1.42-.49-.71-.46-1.41-.44-.7-.15-1.4-.12-.65,1-1.35,1.07-.72-.23-1.42-.2-.84-.63-1.33-.12a1.44,1.44,0,0,0-.57,1.33c0,.7.21.7.21,1.4s-.36.71-.36,1.41.94.7.94,1.41-.55.7-.55,1.41.24.7.24,1.4-.48.7-.48,1.4.82.7.82,1.41-.71.7-.71,1.41.48.7.48,1.4.41.71.41,1.41-1.21.71-1.21,1.41.55.71.55,1.41.23.71.23,1.42-.32.7-.32,1.4-.35.71-.35,1.41,1.13.71,1.13,1.42-1.25.71-1.25,1.42,1.28.69,1.31,1.4a6.91,6.91,0,0,0,.14,1.35c0,.39.31.83.39,1.37s-1.26,1.1-1.18,1.61,1.26.74,1.33,1.24-.7,1-.63,1.52.7.84.76,1.32.38.89.45,1.37-1.08,1.1-1,1.58.23.92.29,1.39.77.84.84,1.32-.43,1-.36,1.48.77.84.83,1.32.54.87.61,1.34,0,.95.12,1.42.23.93.3,1.4-.79,1.07-.72,1.54.35.91.41,1.38,0,1,.11,1.43.64.88.71,1.35.33.92.4,1.39-.81,1.08-.74,1.54,0,1,.1,1.43.87.84.94,1.3.05,1,.12,1.43-.5,1-.43,1.5.07,1,.14,1.42,1.39.77,1.46,1.23-.7,1.08-.63,1.54.67.88.74,1.33,0,1,0,1.43-.23,1-.17,1.46.57.94.63,1.34.62.95.63,1.45-1.19.94-1.23,1.43.63,1,.56,1.51.42,1.08.32,1.56-.48.92-.6,1.39-.17,1-.31,1.45-1.33.6-1.49,1.07.68,1.27.51,1.73-.1,1-.28,1.47-.64.81-.82,1.25c0,0-.32,0-.32,0s.43.16.43.17c-.18.41-.88.55-1.06.93s-.29.84-.47,1.22-.83.58-1,.95.06,1.05-.12,1.41-.9.58-1.08.9c-.38.71-.78.91-.17,1.12s.64.42,1.35.42.7-.92,1.41-.92.71.32,1.42.32.7,1,1.41,1,.71-.2,1.42-.2.71.1,1.41.1.71,0,1.42,0,.71-1,1.42-1,.71-.2,1.42-.2.71,0,1.41,0,.71.38,1.42.38.71,0,1.42,0,.7.14,1.41.14.71.34,1.42.34.71.51,1.41.51.71-1.32,1.42-1.32.71.16,1.41.16.71-.3,1.41-.3.7,1,1.41,1,.71-.16,1.41-.16.71.12,1.41.12.71-.26,1.42-.26.71-.38,1.41-.38.71.73,1.42.73.71-1,1.42-1,.71,1,1.42,1,.71-.48,1.41-.48.71.06,1.42.06.7.81,1.41.81.71-1.29,1.42-1.29.7.57,1.41.57.71-.3,1.41-.3.71.86,1.42.86.71-1.2,1.42-1.2.71.74,1.42.74.71.12,1.42.12.71-.83,1.42-.83.71,1.08,1.42,1.08.7-.32,1.41-.32.71-.61,1.42-.61.71.51,1.42.51.71-.22,1.42-.22h1.42c.71,0,.71.09,1.42.09s.71.56,1.42.56.71-1,1.42-1,.71.67,1.42.67.71.33,1.42.33.71-1.1,1.43-1.1.71.18,1.42.18.71.85,1.42.85.7-.82,1.41-.82l1.42,0h1.42c.71,0,.71.6,1.42.6s.71.2,1.42.2.72.06,1.43.06.71-.74,1.42-.74.72.11,1.43.11.71-.48,1.42-.48.71.71,1.43.71.71-.52,1.42-.52.72,1.09,1.44,1.09a2.88,2.88,0,0,0,1.48-.45l2.09-.1a3.77,3.77,0,0,0-.09.63c.66.2.88-.22,1.57-.22.33,0,.5-.25.67-.51l1.61-.08a.77.77,0,0,0,.48.16h1.39c.69,0,.69.37,1.39.37s.69.34,1.39.34.64-.76,1.31-1c.18.17.25.26.48.27l-.16,0a.66.66,0,0,0,.6-.07l.51-.1c1.16-.23.38.86,1.63.16.3-.17.52-.29.69-.4.28.32.44.81.94.81a10.66,10.66,0,0,0,1.49-.1c0-.15,0-.13,0-.28.09.13.2-.41.3-.5h.05c.69.07.64.29,1.33.29s.69-.53,1.38-.53.68,1.41,1.36,1.41.69-.86,1.38-.86.69.62,1.38.62.69-.75,1.38-.75.76.6,1.42.4c0-.28.29-.61.48-.93l.54-.08.49-.09c.32.27.88.09,1.14.47.72.16.62.29,1.35.29s.74.65,1.48.65.73-.2,1.47-.2.74.23,1.48.23a3.66,3.66,0,0,0,1.52-.34.92.92,0,0,0-.07-.3,1,1,0,0,0,.47.19,8,8,0,0,0,1.1-.23c.78.07.7-.31,1.71,0s1.54-.17,2.21.14a.84.84,0,0,0,.67.31,3.35,3.35,0,0,0,2.42.39c.88-.42,1.37.42,2,0s.36.79,1.72-.41-.15-.95,1.37-1.19h0a2.7,2.7,0,0,0-.17,1.13c.72.2.79-.4,1.53-.4s.74-.49,1.49-.49.74,1.27,1.48,1.27.74-.33,1.49-.33.74-.87,1.49-.87.75,1.24,1.5,1.24.82-.2,1.53-.43S338,400.38,337.86,399.47ZM187.53,329.21c-.23.79-.34,1-1,1.21,0-.47-.15-1.44-.15-1.92.53-.22.72-.57,1.29-.47C187.65,328.23,187.53,329,187.53,329.21Zm.22-10c-.61.21-.85-.07-1.46-.28,0-.45-.56-1-.59-1.41s.52-.91.46-1.36a2.1,2.1,0,0,1,1.65-.07c-.07.44-.56.93-.58,1.37S187.76,318.75,187.75,319.19ZM326,393.82h0S326,393.79,326,393.82Zm-38,6.56h.06a.34.34,0,0,0,0,.1Zm4.18-.11.18-.1.7,0Zm12.72-.7.3,0a1.72,1.72,0,0,1-.34.24.51.51,0,0,0,0-.2Z"/><polygon class="cls-3" points="160.7 318.93 160.06 319.54 159.25 320.15 158.73 321.07 157.82 321.59 157.28 322.49 156.32 322.95 155.84 323.91 154.81 324.31 154.11 325.04 153.5 325.86 152.77 326.57 152.02 327.27 151.32 328.01 150.61 328.75 150.15 329.7 149.39 330.4 148.88 331.3 147.93 331.84 147.44 332.75 147.12 333.75 146.28 334.42 145.91 335.39 145.46 336.32 144.64 337 144.31 338 143.86 338.91 143.29 339.76 142.78 340.64 142.22 341.5 141.79 342.43 140.94 343.13 140.44 344.02 139.96 344.93 139.5 345.84 139.24 346.85 138.82 347.79 138.07 348.54 137.52 349.41 137.01 350.31 136.66 351.28 136.24 352.21 135.84 353.15 135.33 354.05 134.77 354.93 134.64 356 133.96 356.82 133.64 357.81 133.2 358.74 132.8 359.69 132.65 360.74 132.02 361.59 131.76 362.58 131.46 363.54 131.05 364.47 130.47 365.35 130.3 366.36 130.03 367.34 129.93 368.37 129.54 369.32 129.09 370.25 128.89 371.25 128.65 372.25 128.43 373.24 128.38 374.28 127.84 375.2 127.94 376.27 127.52 377.22 127.43 378.24 127.45 379.27 126.93 380.21 127.09 381.27 126.92 382.27 126.35 383.21 126.31 384.23 126.44 385.27 126.28 386.28 125.73 387.23 125.92 388.24 126 389.26 126.19 390.28 125.9 391.33 126.05 392.35 126.24 393.37 126.31 394.4 126.55 395.41 127.05 396.1 127.7 396.71 128.11 397.36 129.06 397.38 130.08 397.8 131.12 397.83 132.16 397.61 133.2 397.88 134.24 397.6 135.28 397.68 136.33 397.72 137.36 397.94 138.41 397.68 139.45 397.62 140.48 398.01 141.52 397.94 142.57 397.84 143.61 397.73 144.65 397.69 145.69 397.92 146.73 398.17 147.77 397.88 148.8 398.08 149.84 397.96 150.88 398.2 151.93 397.97 152.96 398.27 154.01 398.04 155.05 398.31 156.09 398.29 157.14 398.12 158.19 398.31 159.23 398.21 160.28 398.2 161.32 398.04 162.37 398.1 163.42 398.1 164.47 398.14 165.49 398.17 164.78 397.65 163.89 397.08 163.61 396.03 163.17 395.12 162.38 394.35 162.37 393.26 162.13 392.28 161.46 391.4 161.32 390.38 161.3 389.35 161.34 388.32 160.77 387.36 160.91 386.31 160.72 385.3 160.97 384.26 160.9 383.23 160.8 382.22 160.6 381.2 160.91 380.18 160.92 379.16 160.72 378.14 160.82 377.12 160.63 376.11 160.84 375.09 160.91 374.07 160.85 373.05 160.63 372.03 160.66 371 160.84 369.98 160.87 368.95 160.89 367.93 160.58 366.9 160.85 365.88 160.88 364.85 161.11 363.83 160.77 362.8 160.82 361.77 161.16 360.76 160.78 359.72 161.07 358.71 160.87 357.68 160.98 356.66 161.22 355.64 161.24 354.62 161.21 353.6 161.27 352.58 161.28 351.56 161.21 350.53 161.43 349.53 161 348.51 161.12 347.48 161.29 346.45 161.18 345.43 160.92 344.4 161.21 343.38 161.23 342.36 160.99 341.34 161.1 340.31 160.87 339.29 161.08 338.26 161.21 337.23 161.09 336.2 160.93 335.18 161.14 334.14 160.76 333.12 160.72 332.09 160.65 331.06 160.91 330.03 161.05 329 160.99 327.96 160.82 326.93 160.58 325.89 160.54 324.89 160.83 323.9 160.87 322.9 160.72 321.9 161.02 320.9 160.73 319.89 160.7 318.93"/><path class="cls-2" d="M382.21,314.39c-.16-.45-.64-.78-.79-1.21s-.43-.86-.58-1.28-.14-1-.28-1.38.14-1.11,0-1.48a3.42,3.42,0,0,0-.61-1.18,2.87,2.87,0,0,1-.82-1.19c-.14-.34.15-.92,0-1.39s-.31-.79-.47-1.23-.38-.77-.54-1.2-.44-.76-.6-1.19-.56-.72-.72-1.14c-.24-.63.15-.51-.21-1.37-.14-.34-.88-.51-1.08-1s.33-1.07.13-1.54-.56-.7-.76-1.14l-.55-1.25c-.18-.39-.36-.84-.6-1.28s-.56-.73-.82-1.15-.1-1-.37-1.43-.95-.48-1.22-.88-.37-.87-.66-1.26-.39-.86-.68-1.24-.87-.5-1.16-.88-.36-.9-.65-1.27-.46-.83-.76-1.2-.91-.45-1.21-.81-.84-.51-1.15-.87-.06-1.18-.36-1.54-1-.39-1.28-.75-.3-1-.62-1.33-.81-.53-1.13-.88-.33-1-.65-1.31-.72-.62-1-1-.53-.79-.85-1.13-.68-.64-1-1-.89-.45-1.22-.79-.95-.38-1.28-.72-.46-.85-.79-1.18-.28-1-.61-1.37-.68-.66-1-1-1.08-.26-1.41-.59-.61-.73-.94-1.06-.71-.62-1-.95-.28-1.06-.62-1.39-.75-.58-1.08-.91-.53-.81-.86-1.14-1-.34-1.33-.67-.41-.93-.75-1.25-1-.32-1.35-.64-.72-.61-1.06-.93-.39-1-.73-1.28-1-.29-1.37-.61-.49-.86-.83-1.17-.63-.72-1-1-.93-.38-1.27-.69-.86-.46-1.2-.77-.65-.71-1-1-.64-.71-1-1-.86-.45-1.21-.75-.51-.87-.86-1.17-.42-1-.77-1.27-.9-.42-1.25-.7l-1.11-.88c-.4-.3-.64-.78-1-1s-.84-.57-1.18-.79-.81-.44-1.2-.68-.91-.27-1.3-.5-1.06,0-1.45-.22-.7-.61-1.1-.82-.69-.65-1.08-.86-1-.06-1.4-.27-.76-.53-1.16-.73-.75-.55-1.15-.75-.78-.52-1.17-.71-.76-.57-1.15-.76-.83-.45-1.21-.63-1-.08-1.38-.25-.89-.43-1.24-.58c-.8-.34-.6-.32-1.22-.56-.43-.17-.8-.58-1.26-.7s-1-.06-1.43-.14-.93-.13-1.4-.16-.94-.36-1.41-.36-.94.38-1.41.41-.94.08-1.4.14-.93.18-1.38.27-1,0-1.44.1a14.18,14.18,0,0,0-1.34.49c-.45.17-.78.59-1.19.79a12.62,12.62,0,0,0-1.19.74c-.52.35-.34.62-.86,1s-.81-.1-1.34.24-.48.41-1,.75a9.8,9.8,0,0,0-1.32.79,8.05,8.05,0,0,0-.94,1.21c-.29.43-.07,1.08-.24,1.54a5.57,5.57,0,0,0-.4,1.36c0,.49-.53,1-.44,1.52s.66.84.87,1.3a6.21,6.21,0,0,0,.54,1.41c.29.38.9.47,1.29.81s-.06.82.61,1.42c.29.26.9.28,1.3.63s.78.47,1.16.81l1,.93c.33.3.53.78.89,1.11s.54.77.89,1.09,1.13.13,1.48.45.47.85.82,1.17.78.52,1.13.84.77.52,1.12.84.29,1.05.64,1.37,1.14.13,1.49.45.55.76.9,1.08.35,1,.69,1.3,1,.32,1.33.64.63.67,1,1,.81.48,1.15.8.51.82.85,1.14.3,1,.64,1.34.84.47,1.18.79.61.7.95,1,1,.33,1.31.65.47.85.81,1.18,1,.31,1.33.63.43.91.76,1.24.36,1,.7,1.29,1.09.23,1.42.56.39.93.72,1.26.63.7,1,1,1.12.21,1.45.54.44.88.76,1.21.31,1,.64,1.34.95.39,1.27.72.66.67,1,1,.67.66,1,1,.88.47,1.19.81.4.91.71,1.25.75.6,1.06.94.38.93.68,1.28.64.69.94,1,.7.65,1,1,.28,1,.57,1.34.56.76.83,1.12.53.77.8,1.14,1,.45,1.26.82.79.64,1,1,.06,1.08.25,1.46.89.62,1.09,1,.27.93.48,1.33,0,1,.24,1.44.49.82.69,1.22.44.85.64,1.24.18,1,.38,1.37.59.78.77,1.17.41.88.6,1.26.29,1,.46,1.33,1,.64,1.18,1c.44,1-.37.88-.15,1.53.16.48.49.9.67,1.33s1,.63,1.17,1a10.3,10.3,0,0,0,.73,1.2,7.45,7.45,0,0,0,.8,1.17,3.51,3.51,0,0,0,1.13.83A1.63,1.63,0,0,0,349,316a3.42,3.42,0,0,1,1.5-.43,2,2,0,0,1,1.38.41c.45.24,1.33.22,1.53.77a1.29,1.29,0,0,0,.51.79c.33.23.22.21.57-.12s1.1-.08,1.3-.52-.17-1.22.11-1.57,1-.42,1.35-.65a1.46,1.46,0,0,1,1.22-.32,21.47,21.47,0,0,1,2.14.44c.08.13-.38.05-.32,0s.94.35,1.54.5a1.62,1.62,0,0,0,1.26-.49c.27-.27.1-.86.28-1.28s.95-.41,1.42-.43.57.23,1,.61,1.09.17,1.62.34a6.44,6.44,0,0,0,1.47.13,5,5,0,0,0,1.42-.25c.37-.09.92.31,1.53.43a11.75,11.75,0,0,1,1.45.3c.45.15.93.3,1.41.51s1,.25,1.43.48.84.55,1.27.81.6.91,1,1.19,1.24-.08,1.62.09c.56.24.89.73,1.28.68a1.53,1.53,0,0,0,1.32-.9,4.72,4.72,0,0,0-.2-1.55A7.26,7.26,0,0,0,382.21,314.39Z"/><path class="cls-4" d="M133.33,198.91a72.8,72.8,0,0,1,.18,7.33c0,2.38-.18,4.75-.07,7.12A50.65,50.65,0,0,0,136,227.28a53.58,53.58,0,0,0,15.81,23.36c1.78,1.61,3.71,3.07,5.64,4.52s4,2.75,6.11,4c1,.64,2.09,1.25,3.18,1.8l3.23,1.71c2.23,1,4.4,2.14,6.71,3A105.88,105.88,0,0,0,205,273l3.65.29,1.83.15,1.83,0,3.66.07,3.66-.16,1.83-.08,1.82-.18,3.64-.38c2.4-.4,4.82-.72,7.19-1.31a91.83,91.83,0,0,0,14-4.18,102.19,102.19,0,0,0,13.22-6.13A132.29,132.29,0,0,0,285,244.28c3.67-3.2,7-6.71,10.44-10.2s6.81-7,10.56-10.37h0a.77.77,0,0,1,1.07.05.8.8,0,0,1,.15.78,47.78,47.78,0,0,1-7.82,13.09,103.13,103.13,0,0,1-10.67,10.85,115.72,115.72,0,0,1-25.09,17.17,101.69,101.69,0,0,1-14,5.93,97.27,97.27,0,0,1-14.74,3.81,104,104,0,0,1-30.25.94,121,121,0,0,1-29.27-7.43c-2.37-.84-4.66-1.92-7-2.9l-3.42-1.66c-1.14-.54-2.26-1.14-3.36-1.78A74.57,74.57,0,0,1,148.91,254c-7.83-6.56-14.42-15.14-17.67-25.1a52.44,52.44,0,0,1-2.73-15.34c-.2-5.16.29-10.55,3.43-15.07a.77.77,0,0,1,1.06-.19.79.79,0,0,1,.33.56Z"/><path class="cls-4" d="M130.39,266.05c-1.4-.58-1.42-1.29-1.46-2s-.12-1.38-.15-2.08c-.06-1.39,0-2.78,0-4.17.14-2.78.39-5.55.4-8.33s-.12-5.59,0-8.46c.07-.71.12-1.43.22-2.15s.3-1.45.48-2.17a10.76,10.76,0,0,1,.85-2.13,3.35,3.35,0,0,1,2.3-1.38.83.83,0,0,1,.88.49l.05.11a4.38,4.38,0,0,1,.46,2.29,11.54,11.54,0,0,1-.48,1.77c-.14.62-.3,1.23-.49,1.84l-.47,1.91a40.63,40.63,0,0,0-1.35,8,48.41,48.41,0,0,0,.42,8.15c.17,1.35.3,2.7.4,4.06.06.68.09,1.35.11,2s.14,1.34-1.14,2.13l0,0A1.23,1.23,0,0,1,130.39,266.05Z"/><path class="cls-4" d="M132.22,222.69a40.55,40.55,0,0,0-5.35,4.46,25.81,25.81,0,0,0-2.26,2.54c-.35.44-.76.83-1.07,1.3l-.93,1.39a29.12,29.12,0,0,0-4.72,12.43l-.23,1.68-.11.85v4.3a33.54,33.54,0,0,0,.33,3.45c.17,1.15.19,2.31.47,3.46l.78,3.42a25.17,25.17,0,0,0,.9,3.41c.78,2.23,1.41,4.51,2.3,6.71,3.45,8.85,8.1,17.27,14.51,24a41.22,41.22,0,0,0,11,8.24,28.9,28.9,0,0,0,3.14,1.36l1.61.58,1.64.44a13.69,13.69,0,0,0,1.66.37,15.89,15.89,0,0,0,1.66.26c.56.06,1.11.14,1.66.15s1.14,0,1.52,0h.13a2.1,2.1,0,0,1,2.21,2v.15l-.61,31.71c-.19,10.57-.22,21.14-.17,31.7l.09,7.9c.09,2.6.1,5.33.39,7.72a15.15,15.15,0,0,0,7.72,11.43c4.16,2.3,9.51,2.32,13.29-.38a14.11,14.11,0,0,0,4.46-5.34,23.36,23.36,0,0,0,2-7l0,.37c-.79-10.88-1.83-21.76-3-32.61s-2.5-21.69-4.06-32.46c-.79-5.39-1.65-10.76-2.66-16.08a136.54,136.54,0,0,0-3.76-15.6c-.43-1.21-.83-2.45-1.34-3.53a11.15,11.15,0,0,0-.78-1.51,5,5,0,0,0-.49-.75l-.56-.78a37,37,0,0,0-5-5.77,31.49,31.49,0,0,0-6-4.5,26.07,26.07,0,0,0-3.32-1.62c-.57-.22-1.14-.43-1.71-.6l-.84-.23-.7-.15h0a2.88,2.88,0,0,1-2.38-2.23,35.05,35.05,0,0,0-1.89-5.72,60.17,60.17,0,0,0-2.7-5.68,51.88,51.88,0,0,0-7-10.24l-.5-.57c-.14-.16-.27-.29-.38-.4s-.22-.17-.15-.14,0,0,.08,0l.21,0a1.86,1.86,0,0,0,.9-.11,1.77,1.77,0,0,0,.77-.58,1,1,0,0,0,.12-.19l0-.09s0,.06-.06.2a8.43,8.43,0,0,0-.09,1.24,47.56,47.56,0,0,0,.54,6.2c.58,4.26,1.34,8.59,2,12.94h0a.74.74,0,0,1-.63.84.75.75,0,0,1-.78-.43,90.13,90.13,0,0,1-4.54-12.54,42.74,42.74,0,0,1-1.37-6.81,11.67,11.67,0,0,1,0-2,5.44,5.44,0,0,1,.3-1.4c.06-.16.13-.31.2-.46a4.42,4.42,0,0,1,.34-.54,3.58,3.58,0,0,1,.58-.59,3.22,3.22,0,0,1,.83-.48,3.32,3.32,0,0,1,1.71-.17,3.47,3.47,0,0,1,.61.14,3.58,3.58,0,0,1,.46.19,6.23,6.23,0,0,1,1.22.75,10.23,10.23,0,0,1,.83.72l.63.62a48.84,48.84,0,0,1,8.07,11.24,67.33,67.33,0,0,1,3,6.18,40.28,40.28,0,0,1,2.23,6.76l-2.4-2.23a16.93,16.93,0,0,1,2.45.56c.74.22,1.46.48,2.17.75a32.18,32.18,0,0,1,4.05,2,37.71,37.71,0,0,1,7.06,5.33,42.94,42.94,0,0,1,5.68,6.61l.63.89a7.09,7.09,0,0,1,.62,1,16.55,16.55,0,0,1,1.09,2.13,36.77,36.77,0,0,1,1.54,4.14,140.18,140.18,0,0,1,3.64,16.34c.93,5.44,1.7,10.89,2.4,16.34,1.39,10.89,2.46,21.8,3.41,32.72s1.74,21.83,2.48,32.77h0a1.45,1.45,0,0,1,0,.36,26.73,26.73,0,0,1-2.43,8.12,17.61,17.61,0,0,1-5.69,6.63,16.08,16.08,0,0,1-4,1.93,16.8,16.8,0,0,1-4.39.67,17.24,17.24,0,0,1-8.42-2.18,17.72,17.72,0,0,1-3.53-2.55,18.14,18.14,0,0,1-2.84-3.28,19.22,19.22,0,0,1-3.08-8c-.35-2.86-.36-5.43-.46-8.11l-.15-8c-.14-10.6-.06-21.18-.1-31.76l.1-31.75,2.34,2.14a15.52,15.52,0,0,1-2.13,0,18.63,18.63,0,0,1-2-.14,18.31,18.31,0,0,1-1.95-.28,15.39,15.39,0,0,1-1.91-.39l-1.89-.48-1.84-.63a32.19,32.19,0,0,1-3.58-1.5,45.25,45.25,0,0,1-12.39-9c-7.14-7.29-12.2-16.22-15.75-25.5-1-2.31-1.62-4.74-2.44-7.11a29.52,29.52,0,0,1-1-3.64l-.83-3.7c-.3-1.23-.34-2.52-.53-3.78a37.19,37.19,0,0,1-.35-3.81V247l.12-1,.25-1.93a30,30,0,0,1,5.8-14.48,22.36,22.36,0,0,1,12.91-8.33.74.74,0,0,1,.87.58.73.73,0,0,1-.31.75Z"/><path class="cls-4" d="M211,240c-1.28-.71-1-1.31-.87-1.78a6.39,6.39,0,0,1,.7-1.35,6.65,6.65,0,0,1,2.13-1.94,23.32,23.32,0,0,1,4.84-1.88c1.59-.45,3.15-1.07,4.78-1.44a12,12,0,0,1,2.45-.25,3.86,3.86,0,0,1,1.21.15,2.44,2.44,0,0,1,1.13,1.48,1.29,1.29,0,0,1-.06,1.07v0a2.78,2.78,0,0,1-1.19,1.41,3.43,3.43,0,0,1-1.1.08,16.09,16.09,0,0,1-2.19-.13c-.73-.11-1.45-.15-2.2-.21a9.15,9.15,0,0,0-2.16.2,6.54,6.54,0,0,0-3.46,2.08,9.65,9.65,0,0,0-1,1.42c-.14.23-.27.46-.39.68s-.12.39-1.47.45l-.69,0A.72.72,0,0,1,211,240Z"/><polygon class="cls-5" points="181.31 233.42 181.17 234.45 181.16 235.49 180.93 236.5 180.68 237.51 180.38 238.51 179.95 239.46 179.46 240.37 178.81 241.19 178.2 242.03 177.58 242.85 176.85 243.59 176.07 244.28 175.22 244.88 174.38 245.48 173.43 245.92 172.49 246.37 171.48 246.61 170.5 246.95 169.48 247.12 168.45 247.22 167.41 247.33 166.38 247.22 165.35 247.1 164.33 246.93 163.34 246.61 162.31 246.41 161.41 245.88 160.5 245.38 159.57 244.91 158.79 244.23 157.96 243.6 157.19 242.9 156.63 242.02 155.91 241.25 155.44 240.33 154.9 239.44 154.52 238.48 154.16 237.5 153.89 236.51 153.75 235.48 153.63 234.45 153.47 233.42 153.61 232.38 153.66 231.34 153.96 230.34 154.1 229.31 154.5 228.35 154.97 227.42 155.44 226.51 155.89 225.56 156.55 224.75 157.29 224.02 157.95 223.22 158.79 222.6 159.59 221.94 160.5 221.45 161.39 220.91 162.35 220.52 163.3 220.09 164.31 219.81 165.34 219.67 166.38 219.63 167.41 219.54 168.45 219.63 169.47 219.74 170.49 219.95 171.49 220.21 172.46 220.57 173.44 220.9 174.36 221.38 175.25 221.92 176.04 222.61 176.82 223.28 177.56 224 178.28 224.75 178.92 225.57 179.49 226.44 179.86 227.43 180.25 228.38 180.71 229.32 180.95 230.33 181.07 231.36 181.28 232.38 181.31 233.42"/><path class="cls-5" d="M297.91,211.15a3.87,3.87,0,0,1,0,.76l-.06.65-.06.81c0,.15,0,.3,0,.45l-.14.8-.15.7a4.91,4.91,0,0,1-.17.63l-.21.55a1.17,1.17,0,0,1-.09.24l-.28.66c-.05.12-.11.24-.17.36l-.33.61-.15.25-.29.46a4.65,4.65,0,0,1-.42.57L295,220a3.9,3.9,0,0,0-.31.4l-.08.11a4.27,4.27,0,0,1-.9,1l-.3.23-.67.57-.24.21-.1.1a4.68,4.68,0,0,1-1.2.83l-.28.13-.75.38a3.65,3.65,0,0,0-.34.18l-.27.17a4.28,4.28,0,0,1-1,.45l-.26.08a3.6,3.6,0,0,1-.44.12l-.61.12-.38.07-.53.06a4.38,4.38,0,0,0-.61.12l-.06,0a4.53,4.53,0,0,1-1.32.14h-.94a4.73,4.73,0,0,1-.93-.1l-.56-.12-.88-.15-.28-.06-.87-.2-.48-.14a4.83,4.83,0,0,1-1-.42l-.43-.24-.91-.49-.57-.31a3.92,3.92,0,0,1-.64-.42l-.51-.41L275,222a4.77,4.77,0,0,1-.66-.61l-.38-.45-.66-.79-.64-.82-.41-.55a4.6,4.6,0,0,1-.37-.6l-.19-.36a3.27,3.27,0,0,1-.22-.51l-.27-.71-.29-.84-.09-.29-.22-.85-.13-.43a4.21,4.21,0,0,1-.19-1.17v-.45l0-.72a4.42,4.42,0,0,1,0-.63l.05-.45a4.71,4.71,0,0,0,0-.53v-.33a3.92,3.92,0,0,1,.08-.9l0-.19a4.5,4.5,0,0,1,.21-.74l.1-.27a4.44,4.44,0,0,0,.21-.71h0a4.58,4.58,0,0,1,.46-1.25l.08-.14a3.14,3.14,0,0,0,.18-.37l.17-.4a4.9,4.9,0,0,1,.39-.71l.21-.32c.1-.13.2-.27.31-.39l.51-.6.6-.7L274,202l.48-.5a3.47,3.47,0,0,1,.34-.32l.51-.43a1.66,1.66,0,0,1,.21-.16l.72-.54.54-.37a4.28,4.28,0,0,1,.66-.37l.36-.16c.16-.08.32-.16.47-.25l.18-.11a4.33,4.33,0,0,1,1-.46l.25-.08.42-.1L281,198l1-.22.46-.09a4.27,4.27,0,0,1,1.13-.07l.48,0,1,.06.61,0a4.82,4.82,0,0,1,.85.11l.59.14.54.1a5.14,5.14,0,0,1,.94.3l.5.22.93.46.8.4.25.12.39.23a4.07,4.07,0,0,1,.72.51l.24.21a4.59,4.59,0,0,0,.44.33l.29.2a4.63,4.63,0,0,1,.65.52l.33.34c.08.07.14.14.21.21l.32.37a4.36,4.36,0,0,1,.48.65l.33.55.5.9.5.91.46.92.3.7a4.76,4.76,0,0,1,.19.53l.09.33a4.57,4.57,0,0,1,.16.82l.06.62.1,1Z"/><path class="cls-4" d="M215.8,59.27a5.51,5.51,0,0,1,2,4.47,32.53,32.53,0,0,1,.17,4.73c-.17,3.16-.61,6.26-1.06,9.34-.9,6.12-1.67,12.35-3.9,18.2-.51,1.48-1.21,2.87-1.81,4.31l-1,2.12c-.36.69-.75,1.36-1.12,2l-2.25,4.08c-.84,1.31-1.66,2.62-2.46,4-.41.66-.8,1.33-1.17,2s-.82,1.32-1.19,2c-.77,1.36-1.51,2.77-2.35,4.11a18.21,18.21,0,0,1-3.09,3.53,11.77,11.77,0,0,1-4.18,2.46.61.61,0,0,1-.79-.73v0c.8-3.46,2.9-5.54,5-7.73,1-1.1,2.14-2.13,3.23-3.21.54-.54,1.08-1.09,1.57-1.66s.9-1.22,1.31-1.86q1.26-1.89,2.48-3.81l2-4.06c.34-.68.68-1.35,1-2l.83-2.11c.54-1.41,1.21-2.78,1.66-4.21,2-5.66,3.93-11.5,4.32-17.56a50.37,50.37,0,0,0-.38-9c-.2-1.49-.32-3-.5-4.44a14.85,14.85,0,0,1-.17-2.21,5.44,5.44,0,0,1,.73-2.4l0-.07a.7.7,0,0,1,.95-.25Z"/><path class="cls-4" d="M171.47,69.59c1.42,1.75,1.42,3.57,1.39,5.37s-.08,3.6-.24,5.39c-.31,3.59-.88,7.15-1.23,10.71-.78,7.11-1.07,14.29-2.37,21.36a200,200,0,0,1-5.51,20.82c-1.32,3.34-1.8,7-3.16,10.41a17.57,17.57,0,0,1-6.35,8.9.6.6,0,0,1-.83-.15.58.58,0,0,1-.1-.38V152c.28-4,2.12-6.82,3.68-10a56.08,56.08,0,0,0,4.85-9.4c2.39-6.67,3.69-13.66,5-20.61,1.16-7,2.61-14,2.88-21.06.16-3.55,0-7.11-.2-10.65-.05-1.77-.13-3.54-.11-5.3a8,8,0,0,1,1.18-5.32v0a.69.69,0,0,1,1-.17A.86.86,0,0,1,171.47,69.59Z"/><path class="cls-4" d="M156.39,78.07c1,2.21.58,4.18.17,6.14s-.85,3.92-1.36,5.86c-1,3.88-2.25,7.71-3.24,11.59-2,7.73-3.42,15.64-5.68,23.33s-5.05,15.22-7.86,22.74c-1.5,3.72-2.51,7.68-4.18,11.45a25.46,25.46,0,0,1-3.19,5.31,13.06,13.06,0,0,1-5,3.94.59.59,0,0,1-.78-.31.61.61,0,0,1,0-.44v0a55.56,55.56,0,0,1,5.46-10.35A60.72,60.72,0,0,0,136.56,147c3.12-7.3,5.15-15,7.37-22.66s4.65-15.25,6.18-23.09c.8-3.9,1.27-7.88,1.84-11.83.3-2,.61-3.93,1-5.89s.69-3.91,2.36-5.63h0a.66.66,0,0,1,.94,0A.6.6,0,0,1,156.39,78.07Z"/><path class="cls-4" d="M130.42,215a6.74,6.74,0,0,1-2.94-.17,14.63,14.63,0,0,1-2.65-1,27.92,27.92,0,0,1-4.72-2.82,54.51,54.51,0,0,1-8-7.29,107.36,107.36,0,0,1-12.8-17.1,126.41,126.41,0,0,1-15.72-39.36,113.05,113.05,0,0,1-2.54-21.06A103,103,0,0,1,98.88,66a161.55,161.55,0,0,1,13-16.76c2.33-2.65,4.64-5.32,7.14-7.82s5-5,7.55-7.43A162.39,162.39,0,0,1,143,20.66,131.21,131.21,0,0,1,161.31,9.92a110,110,0,0,1,20-7.21A82.83,82.83,0,0,1,202.57,0a65.89,65.89,0,0,1,10.76,1c1.79.28,3.54.76,5.3,1.16s3.47,1,5.16,1.69C230.53,6.42,237,10.28,241.53,16a.54.54,0,0,1-.09.77.56.56,0,0,1-.67,0h0a64.82,64.82,0,0,0-18.3-9.09,80.5,80.5,0,0,0-60.3,4.07,116.42,116.42,0,0,0-18,10.55,154.08,154.08,0,0,0-16.1,13.33c-2.49,2.44-5,4.84-7.37,7.43-1.18,1.28-2.42,2.51-3.56,3.83l-3.45,4a181.37,181.37,0,0,0-12.79,16.53,106,106,0,0,0-16.2,38.12,93.2,93.2,0,0,0-1.79,20.75,100,100,0,0,0,2.66,20.67,122.28,122.28,0,0,0,16.65,38,126.91,126.91,0,0,0,12.65,16.4c2.34,2.52,4.82,4.89,7.35,7.16,1.27,1.12,2.56,2.22,3.91,3.21a12.58,12.58,0,0,0,4.25,2.25l.07,0a.55.55,0,0,1,.41.66A.55.55,0,0,1,130.42,215Z"/><path class="cls-4" d="M255.89,15.83c8.4-4.5,18-5.2,27.14-4a63.93,63.93,0,0,1,25.72,9.61A86.74,86.74,0,0,1,319.7,29.7a106.92,106.92,0,0,1,9.55,9.73c1.53,1.68,2.85,3.49,4.28,5.22s2.88,3.46,4.14,5.32l3.91,5.51c1.32,1.82,2.43,3.79,3.65,5.68,2.49,3.75,4.53,7.78,6.74,11.71,1.92,4.08,4,8.07,5.62,12.31,1.8,4.14,3.13,8.47,4.56,12.76l1.73,6.58a33.65,33.65,0,0,1,.73,3.31l.63,3.35a93.55,93.55,0,0,1,1.1,27.2,66.64,66.64,0,0,1-8.32,25.9,1.62,1.62,0,0,1-2.88-1.46c6.9-15.95,7.58-33.72,4.6-50.66l-.61-3.18a28.81,28.81,0,0,0-.71-3.16l-1.66-6.27c-1.38-4.11-2.66-8.25-4.41-12.23-1.53-4.06-3.58-7.91-5.44-11.83-2.14-3.79-4.12-7.67-6.54-11.3A194.77,194.77,0,0,0,325,43.08a103.62,103.62,0,0,0-8.95-9.31,81.61,81.61,0,0,0-10.16-7.84,58.72,58.72,0,0,0-23.56-9.11,54,54,0,0,0-12.64-.33c-2.11.16-4.21.44-6.3.8a59.72,59.72,0,0,0-6.1,1.45l-.17.05a1.61,1.61,0,0,1-2-1.07A1.63,1.63,0,0,1,255.89,15.83Z"/><path class="cls-4" d="M238.09,67.63a4.58,4.58,0,0,1,2.33,3.24c.38,1.2.73,2.41,1.07,3.63a57.69,57.69,0,0,0,2.26,7.27c1.92,4.73,4.95,8.87,7.9,12.92s6.24,8,10.54,10.57a19.48,19.48,0,0,0,7,2.36c2.37.53,4.53.9,6.92,2.77l0,0a.65.65,0,0,1,.11.91.61.61,0,0,1-.19.17c-2.73,1.53-5.64,1-8.14-.12s-4.58-3-6.8-4.43a55.35,55.35,0,0,1-6.13-5,41.62,41.62,0,0,1-5.27-5.83c-3.19-4.18-5.23-9-7.64-13.58-1.18-2.3-2.53-4.55-3.66-6.91A31.89,31.89,0,0,1,236.9,72,4.37,4.37,0,0,1,237,67.9a.78.78,0,0,1,1-.29Z"/><path class="cls-4" d="M262.72,65.42a2.52,2.52,0,0,1,1.57,2.35c.13.83.22,1.66.3,2.5a23.61,23.61,0,0,0,.81,5.07c1,3.32,3.24,6,5.33,8.64a42.81,42.81,0,0,0,3.41,3.73l2,1.58a11.77,11.77,0,0,0,2.19,1.29,6.65,6.65,0,0,0,2.41.84c.87.11,1.74.17,2.55.35,1.63.39,3.2.59,4.52,2.73l0,.06a.73.73,0,0,1-.24,1,4.81,4.81,0,0,1-3,.72,6,6,0,0,1-2.66-.79c-1.65-1-3.07-2.24-4.62-3.18s-3-2-4.55-3a25.73,25.73,0,0,1-4-3.78c-2.4-2.81-3.68-6.27-5.2-9.52-.71-1.65-1.64-3.26-2.27-5a13.78,13.78,0,0,1-.72-2.68,2.52,2.52,0,0,1,1-2.88.92.92,0,0,1,1-.09Z"/><path class="cls-4" d="M316.64,180.32a17.88,17.88,0,0,1,3.08-7,16,16,0,0,1,5.77-5.47l.95-.45c.33-.13.68-.22,1-.32a9.4,9.4,0,0,1,2.11-.35,13.63,13.63,0,0,1,2.12.11c.67.12,1.33.31,2,.46a16.55,16.55,0,0,1,10.78,11.21,17.61,17.61,0,0,1,0,8,25.94,25.94,0,0,1-8.34,12.74.81.81,0,0,1-1.19-1.08l0,0c2.88-3.91,5.61-7.88,6.79-12.3a14.84,14.84,0,0,0,0-6.63,13.43,13.43,0,0,0-3.32-5.68c-3.06-3.11-8-5.32-11.74-3.32a13.56,13.56,0,0,0-4.89,4.52c-1.35,1.9-2.36,4.08-3.62,6.11l0,0a.82.82,0,0,1-1.5-.56Z"/><path class="cls-4" d="M269.6,120.87a4.14,4.14,0,0,1,3,2.28c.68,1,1.31,2,1.94,3a58.92,58.92,0,0,0,3.93,6.08c3,3.84,6.74,6.9,10.34,10s7.37,6.2,11.74,8.13a22.07,22.07,0,0,0,6.89,1.59c2.3.38,4.4.69,6.69,2.5l0,0a.67.67,0,0,1,.11.93.8.8,0,0,1-.17.15c-2.57,1.58-5.3,1.1-7.7.23s-4.48-2.57-6.72-3.61a69.46,69.46,0,0,1-12.45-8.07c-3.82-3.16-6.81-7.12-10.19-10.66-1.66-1.8-3.49-3.49-5.15-5.33a30.69,30.69,0,0,1-2.32-2.9,4.07,4.07,0,0,1-1-3.81.8.8,0,0,1,.9-.58Z"/><path class="cls-4" d="M225.76,275.46a23.82,23.82,0,0,1,.16,6.19l-.42,6.13-.84,12.28a2.07,2.07,0,0,1-1.6,1.88l-.07,0c-3.07.71-6.15,1.36-9.24,2s-6.16,1.31-9.25,1.94c-6.18,1.24-12.31,2.72-18.69,3a1.23,1.23,0,0,1-1.28-1.16,1.21,1.21,0,0,1,.78-1.2c5.95-2.31,12.15-3.47,18.3-4.86q4.6-1,9.24-2c3.08-.65,6.16-1.33,9.26-1.93l-1.67,1.9,1.17-12.24.58-6.13a23.26,23.26,0,0,1,1.16-6.07,1.25,1.25,0,0,1,2.41.19Z"/><path class="cls-4" d="M210.4,210.81c.51-.1.52.07.63.18l.31.37a6.56,6.56,0,0,1,.54.76,7.36,7.36,0,0,1,.44.83,1,1,0,0,1-.06,1.11,1.61,1.61,0,0,1-1.4.8,1,1,0,0,1-1-.51,5.79,5.79,0,0,1-.49-.79,8.36,8.36,0,0,1-.39-.86l-.15-.45c-.05-.16-.19-.26.16-.64A2.73,2.73,0,0,1,210.4,210.81Z"/><path class="cls-4" d="M258,267.69A131.63,131.63,0,0,1,260.4,282l1.83,14.39-1.1-1.52,23.74,11a2.09,2.09,0,0,1-.86,4h0q-12.3.09-24.6.05l-24.61,0c-8.2,0-16.4,0-24.6-.07-4.11,0-8.21-.12-12.31-.27s-8.2-.3-12.3-.56a1.21,1.21,0,0,1,0-2.42q6.15-.4,12.3-.56c4.1-.15,8.2-.23,12.31-.27,8.2-.09,16.4-.05,24.6-.07l24.61,0q12.3,0,24.6.06l-.89,4-23.61-11.28h0a2,2,0,0,1-1.09-1.52l-1.67-14.41A134.29,134.29,0,0,1,255.6,268a1.22,1.22,0,0,1,1.21-1.22A1.2,1.2,0,0,1,258,267.69Z"/><path class="cls-4" d="M321.31,211.53a37.58,37.58,0,0,1,.69,7c.09,2.09.15,4.13.2,6.18.05,4.07,0,8.14-.09,12.3l-1.44-.88c4.32-2,8.57-4.19,12.85-6.3s8.46-4.39,12.65-6.67v1.9c-2.09-1-4.15-2-6.19-3s-4-2-6-3.06-4-2.17-6-3.29A75,75,0,0,1,321.31,211.53Zm-.38-.63a32.08,32.08,0,0,1,6.14,2.22c2.24,1,4.5,2.06,6.76,3.16s4.51,2.25,6.73,3.39,4.41,2.33,6.57,3.5l.06,0a1,1,0,0,1-.06,1.87q-6.48,3-12.87,6.23c-4.24,2.19-8.49,4.34-12.69,6.61a1,1,0,0,1-1.32-.4.88.88,0,0,1-.12-.43V237c-.1-4.44-.14-9-.08-13.5,0-2.26.1-4.52.19-6.73S320.3,212.13,320.93,210.9Z"/><path class="cls-4" d="M329,208.12a12.59,12.59,0,0,1-.27,3.15A7.08,7.08,0,0,1,327,214a8.39,8.39,0,1,1-11.87-11.87,8.52,8.52,0,0,1,6-2.46,7.7,7.7,0,0,1,5.85,2.62A8.82,8.82,0,0,1,329,208.12Zm-1.61,0a5.45,5.45,0,0,0-2.14-4.11,6.67,6.67,0,0,0-4.11-1.53,5.72,5.72,0,0,0-5.61,5.64,5.7,5.7,0,0,0,9.7,4.09,8.17,8.17,0,0,0,1.34-1.85A4.13,4.13,0,0,0,327.37,208.12Z"/><path class="cls-4" d="M299.87,232.26c4.86.82,9.26,2.75,13.64,4.71s8.65,4.16,12.83,6.52,8.25,4.92,12.19,7.67A117.33,117.33,0,0,1,349.91,260a120.16,120.16,0,0,1,19.38,21.4c1.44,1.94,2.68,4,4,6.05,1.15,2.12,2.45,4.17,3.43,6.38a73.78,73.78,0,0,1,5.1,13.52,1.21,1.21,0,0,1-2.26.84l0,0a150.1,150.1,0,0,0-13.67-24.33,116.06,116.06,0,0,0-18.79-20.58A150.7,150.7,0,0,0,324.35,247q-6.06-3.55-12.42-6.55c-4.23-2-8.61-3.69-12.76-5.83l-.06,0a1.22,1.22,0,0,1,.76-2.29Z"/><path class="cls-4" d="M292.34,248.76a40.51,40.51,0,0,1,8.7,5.87c1.37,1.08,2.71,2.18,4,3.32s2.66,2.25,4,3.41,2.62,2.31,3.89,3.52,2.57,2.36,3.79,3.61l3.71,3.71,3.55,3.87a124.37,124.37,0,0,1,12.72,16.8c3.69,6,6.83,12.53,8,19.58a1.21,1.21,0,0,1-2.31.68l0,0a136.89,136.89,0,0,0-9.27-18l-2.84-4.21c-1-1.4-2-2.72-3.05-4.08l-1.55-2-1.63-2c-1.11-1.29-2.14-2.65-3.32-3.89a198.14,198.14,0,0,0-14.37-14.62q-1.87-1.75-3.82-3.44c-1.28-1.13-2.58-2.25-3.9-3.34a74.23,74.23,0,0,1-7.7-6.81l0,0a1.23,1.23,0,0,1,1.42-2Z"/><path class="cls-4" d="M338.22,274.85a14.84,14.84,0,0,1,3.25,3.52c.95,1.26,1.88,2.55,2.8,3.84,1.81,2.6,3.58,5.24,5.18,8s3.14,5.51,4.52,8.37a39,39,0,0,1,3.36,8.92.82.82,0,0,1-1.48.62l0,0c-1.69-2.68-3-5.49-4.38-8.26s-2.92-5.49-4.49-8.17-3.17-5.35-4.9-7.94c-.85-1.3-1.73-2.59-2.62-3.86a19,19,0,0,1-2.47-4v0a.85.85,0,0,1,.48-1.09A.89.89,0,0,1,338.22,274.85Z"/><path class="cls-4" d="M315.36,331c2.4,1.51,3.68,3.72,5.1,5.84s2.72,4.32,4,6.53a138.35,138.35,0,0,1,6.73,13.66,148.69,148.69,0,0,1,5.14,14.31,74,74,0,0,1,2,7.33,43.47,43.47,0,0,1,.89,7.57,1.64,1.64,0,0,1-3.1.8l0-.07a54.18,54.18,0,0,1-2.8-6.92c-.43-1.16-.79-2.33-1.17-3.5s-.72-2.35-1.12-3.5l-1.18-3.49-1.28-3.45c-.81-2.31-1.76-4.57-2.65-6.85-1.92-4.5-3.89-9-6.14-13.32-1.11-2.18-2.28-4.33-3.52-6.42s-2.69-4.06-3.32-6.5l0-.15a1.7,1.7,0,0,1,1.21-2.08A1.73,1.73,0,0,1,315.36,331Z"/><path class="cls-4" d="M56.81,27.08c-.71-2-2.69-4.3-7.75-5.18a8.05,8.05,0,0,0-.42-3.29C46.05,11.51,33.75,9.92,20,14.92S-2.12,29,.47,36.14a8.48,8.48,0,0,0,4.09,4.53,7.28,7.28,0,0,0-.42,5.58C5.87,51,12.28,52.4,20.05,51.63a5.93,5.93,0,0,0,.34,1.95c.88,2.41,3.25,4,6.53,4.63a6.28,6.28,0,0,0,.37,2.18,7.1,7.1,0,0,0,4,4,5.12,5.12,0,0,0,.29,2.14c1.29,3.55,5.82,4.51,10.79,3.79A5,5,0,0,0,45,78c2.19,2.66,6.8,4.25,14.09,4.79a2.6,2.6,0,0,0,1-.15,2.5,2.5,0,0,0-.67-4.84,42.19,42.19,0,0,1-4.85-.61C59.35,75.05,62,71.25,60.83,68c-.73-2-2.72-3.23-5.28-3.55,2.52-2.3,3.87-5,2.9-7.66A5.29,5.29,0,0,0,56.1,54,6.63,6.63,0,0,0,56,50a6.54,6.54,0,0,0-1.22-2c2-2.53,2.68-5.17,1.82-7.51A6.49,6.49,0,0,0,53.43,37C56.5,33.71,58,30.29,56.81,27.08ZM21.73,19.62c11.1-4,20.88-3,22.21.7a3.85,3.85,0,0,1-.26,2.79h0c-1.49,3.57-7.1,8.67-16.3,12a39.42,39.42,0,0,1-13.84,2.54A51.74,51.74,0,0,1,28,29.87a2.5,2.5,0,0,0-1.71-4.7c-8,2.92-14.92,7.09-18.88,11.35a4.09,4.09,0,0,1-2.26-2.09C3.83,30.77,10.63,23.66,21.73,19.62ZM40.19,51.69a33.84,33.84,0,0,1-3.58,1.08,20,20,0,0,1,3.53-1.69,21.12,21.12,0,0,1,3.64-.95A31.94,31.94,0,0,1,40.19,51.69Zm-5.76-3.45a17.55,17.55,0,0,0-5.9,5.19c-2-.27-3.19-.89-3.44-1.56a1.74,1.74,0,0,1,.09-1A67.07,67.07,0,0,0,34.43,48.24Zm.94,9.89a14.61,14.61,0,0,0-1.89,1.77A2.47,2.47,0,0,1,32,58.68a.78.78,0,0,1,0-.16A30.31,30.31,0,0,0,35.37,58.13ZM51.82,72.92a10.67,10.67,0,0,1-3.25.67,9,9,0,0,1,2.56-3.74c2.63-.85,4.52-.52,5-.16C56,70.28,54.67,71.89,51.82,72.92ZM46,64.29a16.71,16.71,0,0,1-8.17,1.15,24.26,24.26,0,0,0,7-1.48,21.69,21.69,0,0,0,8.77-5.61s.13.08.15.12C53.84,59.17,51.69,62.2,46,64.29Zm5.3-12.63a1.9,1.9,0,0,1,0,1.1,19.86,19.86,0,0,0-2,.05c.68-.44,1.32-.9,1.92-1.36A.91.91,0,0,1,51.27,51.66Zm.61-9.54c.23.65-.27,1.86-1.5,3.26a19.11,19.11,0,0,0-10,.39,54,54,0,0,0,8.79-5.12C50.71,41,51.66,41.53,51.88,42.12Zm-4.23-6.65A32.08,32.08,0,0,0,35.06,37.6c-5.94,2.16-10.54,5.36-13,8.71-7.42,1.14-12.52.11-13.21-1.77a3,3,0,0,1,.48-2.25c5.44,1,12.66.13,19.77-2.46,8.55-3.11,15.38-8,18.37-13.13,3,.37,4.37,1.31,4.66,2.09C52.61,30.16,51,32.69,47.65,35.47Z"/><polygon class="cls-4" points="179.41 186.62 179.6 187.62 179.74 188.63 179.93 189.63 180.05 190.64 180.12 191.65 179.99 192.68 180.15 193.69 180.01 194.7 179.89 195.71 179.82 196.72 179.77 197.74 179.44 198.71 179.25 199.71 178.9 200.66 178.5 201.59 178.09 202.53 177.39 203.27 176.77 204.06 175.91 204.58 175.02 205.05 174.03 205.27 173.03 205.09 172.09 204.73 171.22 204.23 170.35 203.69 169.59 203.01 168.99 202.18 168.33 201.4 167.79 200.53 167.19 199.7 166.6 198.86 166.25 197.9 165.71 197.02 165.36 196.05 164.94 195.12 164.67 194.13 164.31 193.18 163.85 192.24 163.62 191.24 163.37 190.24 163.14 189.24 162.89 188.22 162.65 187.2 162.65 186.14 162.49 185.11 162.15 184.1 162.09 183.05 162.13 182 162.08 180.96 162 179.92 162.04 178.87 162.04 177.82 162.26 176.79 162.6 175.8 162.94 174.82 163.38 173.88 163.92 172.97 164.68 172.25 165.49 171.58 166.49 171.25 167.44 170.79 168.49 170.71 169.53 170.57 170.56 170.76 171.56 171.11 172.41 171.74 173.19 172.43 174 173.11 174.56 174 175.16 174.85 175.66 175.77 176.25 176.64 176.62 177.63 177.09 178.56 177.5 179.53 177.8 180.53 178.15 181.52 178.34 182.55 178.64 183.56 179.03 184.55 179.22 185.59 179.41 186.62"/><polygon class="cls-4" points="249.85 170.75 249.49 169.79 249.33 168.79 249.02 167.82 248.74 166.85 248.36 165.9 248.02 164.94 247.55 164.05 247.53 164.03 247.44 163.82 246.91 162.58 246.52 161.65 246.04 160.76 245.7 159.8 245.23 158.91 244.71 158.04 244.08 157.24 243.57 156.37 243.02 155.52 242.34 154.76 241.62 154.05 240.88 153.36 239.98 152.89 239.18 152.24 238.16 152.11 237.2 151.77 236.2 151.93 235.18 151.96 234.25 152.37 233.45 152.99 232.55 153.45 231.87 154.22 231.22 155.02 230.9 156 230.74 157.01 230.49 158 230.46 159.02 230.39 160.05 230.4 161.07 230.68 162.07 230.68 163.11 231 164.09 231.06 165.12 231.25 166.13 231.61 167.1 231.82 168.1 232.13 169.08 232.39 170.07 232.68 171.06 233.01 172.01 233.28 173.01 233.52 174.02 233.89 174.99 234.2 175.97 234.5 176.96 234.94 177.91 235.21 178.91 235.74 179.81 236.08 180.79 236.61 181.69 237.08 182.61 237.6 183.51 238.18 184.37 238.85 185.16 239.35 186.08 240.18 186.73 240.78 187.59 241.65 188.17 242.51 188.71 243.44 189.11 244.43 189.4 245.46 189.31 246.5 189.3 247.5 189.03 248.47 188.7 249.42 188.3 250.27 187.69 250.81 186.8 251.4 185.95 251.59 184.93 251.87 183.93 251.81 182.9 251.79 181.88 251.87 180.84 251.65 179.83 251.47 178.82 251.37 177.79 251.17 176.78 250.82 175.81 250.62 174.8 250.43 173.78 250.32 172.75 250.06 171.75 249.85 170.75"/><path class="cls-4" d="M154.23,325.35a4.9,4.9,0,0,1,.06,3,7.77,7.77,0,0,1-1.24,2c-.93,1.24-1.93,2.43-3,3.6a70.45,70.45,0,0,0-6.13,7.24c-3.62,5.2-5.66,11.26-8.23,16.94s-5.09,11.5-6.27,17.66a21,21,0,0,0-.34,4.69c0,1.58.39,3.18.4,4.71-.15,3.09.09,6-2.91,9.14l-.06.06a1.2,1.2,0,0,1-1.7,0,.46.46,0,0,1-.07-.07,9.27,9.27,0,0,1-2.25-4.95,10.56,10.56,0,0,1-.06-2.51,23,23,0,0,1,.47-2.45,36.24,36.24,0,0,1,1.69-4.75,23.21,23.21,0,0,0,1.56-4.66c.17-.8.42-1.57.65-2.34l.66-2.34c.39-1.57.79-3.14,1.29-4.68s.91-3.11,1.42-4.64,1.14-3,1.76-4.53c2.51-6,6.34-11.25,9.31-16.94,1.52-2.84,2.74-5.89,4.27-8.78a30.6,30.6,0,0,1,2.6-4.14,7.31,7.31,0,0,1,1.66-1.81,3.84,3.84,0,0,1,1.28-.55,4.81,4.81,0,0,1,1.77-.14,1.58,1.58,0,0,1,1.37,1.12Z"/><path class="cls-4" d="M250.49,195.64a.32.32,0,0,0,.31-.18.82.82,0,0,0,0-.14l0,0,.09.11a2.39,2.39,0,0,1,.16.22,3.37,3.37,0,0,1,.25.45,4,4,0,0,1,.32.9,8.67,8.67,0,0,1,.12,1.83,30.08,30.08,0,0,1-.19,3.67c-.13,1.22-.32,2.43-.55,3.64L250.7,208c-.07.32-.1.56-.15.84a3.68,3.68,0,0,0-.05.81,6.9,6.9,0,0,0,.81,3.19,8.37,8.37,0,0,0,2.11,2.58,7.22,7.22,0,0,0,2.85,1.48l.38.09.37,0a2.62,2.62,0,0,0,.74,0,5.46,5.46,0,0,0,1.47-.41,6.27,6.27,0,0,0,2.62-1.71,3.54,3.54,0,0,0,.69-2.79,12.49,12.49,0,0,0-.94-3.27c-.19-.55-.5-1-.74-1.57a15.32,15.32,0,0,0-.94-1.43c-1.33-1.92-3.51-2.79-5.61-4.1a11.5,11.5,0,0,1-2.86-2.59,6.87,6.87,0,0,1-1-1.71l-.09-.23c0-.08-.07-.16,0-.18s.07-.16.11-.28A1.49,1.49,0,0,0,250.49,195.64Zm-.23-.76a3.78,3.78,0,0,1,1,.44,4,4,0,0,1,.6.48,1,1,0,0,0,.21.19l.19.13c.46.36.88.72,1.3,1.08l2.49,2.24a34.41,34.41,0,0,1,5,5.53,17.57,17.57,0,0,1,1.79,3.3,14.4,14.4,0,0,1,1.16,3.61,6.13,6.13,0,0,1,0,2.05,4.81,4.81,0,0,1-.86,2,7.91,7.91,0,0,1-3.28,2.3,5.82,5.82,0,0,1-2,.52,4.6,4.6,0,0,1-1,0l-.52-.07-.5-.14a8.51,8.51,0,0,1-3.38-2,10.44,10.44,0,0,1-3.31-6.81l0-.49,0-.49c0-.32,0-.68.05-1,.07-.58.08-1.17.1-1.76,0-1.18,0-2.37,0-3.55s-.08-2.36-.08-3.55a10.48,10.48,0,0,1,.06-1.77,4.32,4.32,0,0,1,.25-.9c.06-.15.13-.3.21-.46l.14-.22a.83.83,0,0,1,.08-.12l0,0a.58.58,0,0,1,0-.2A.52.52,0,0,1,250.26,194.88Z"/></g></g></svg>