<svg xmlns="http://www.w3.org/2000/svg" viewBox="0 0 605.78 606.21"><defs><style>.cls-1{fill:#f7efa4;}.cls-2{fill:#fff;}.cls-3,.cls-9{fill:#237aad;}.cls-4{fill:#f9c9ab;}.cls-5{fill:#ce9b72;}.cls-6{fill:#231815;}.cls-10,.cls-7{fill:none;stroke-linecap:round;stroke-linejoin:round;stroke-width:2px;}.cls-7{stroke:#000;}.cls-8{fill:#1c709b;}.cls-10,.cls-8,.cls-9{stroke:#231815;}.cls-8,.cls-9{stroke-miterlimit:10;stroke-width:3px;}.cls-11{fill:#ff365d;}</style></defs><g id="Capa_2" data-name="Capa 2"><g id="レイヤー_2" data-name="レイヤー 2"><polygon class="cls-1" points="585.76 472.91 375.4 447.39 235.13 606.21 194.39 398.27 0 313.94 185.18 210.94 205.31 0 360.49 144.29 567.33 98.25 478.06 290.42 585.76 472.91"/><path class="cls-2" d="M436.13,436.78l27-29.68-3.92-6.89-.27-14.47s33.91-12.7,48.59-34.34c15.11-11.06,24.25-19.12,26.06-21.33s6.71-18.8.05-22.56-9.14-4.2-13.49-1.95C517,289.11,513.38,256.78,507,249s-45.21-26.78-45.21-26.78l-80.08,24.3-42.87,49.94,1.84,11.24s-18.85,5.11.08,22.39c7.85-1,7.83,1.43,7.83,1.43s9.8,51.81,64.61,59.15c4.49,5.16,3.27,0,3.27,0l1.22,5.16L420,409.41l-9.21,3.33Z"/><path class="cls-3" d="M306.79,559.49l30.82-3.34,202.41.21,30.37,1.46S559,452.88,541.83,441.42c-5.8-9.58-47.19-24.85-47.19-24.85l-25.41-8.45-33.16,12.46-26.83-8.24-26.91,1.3s-41.23,10.95-48.08,25S307.44,527.45,306.79,559.49Z"/><path class="cls-4" d="M494.18,335.61c0,.5.06.51,0,1a5.55,5.55,0,0,1-.22,1c-.1.49-.16.47-.28,1a7.86,7.86,0,0,1-.16,1,6.29,6.29,0,0,1-.43.91c-.2.45-.14.48-.37.92a5.75,5.75,0,0,1-.56.83c-.28.41-.28.4-.58.81a5.7,5.7,0,0,1-.58.81,9.4,9.4,0,0,1-.74.66c-.35.35-.34.36-.7.7a4.68,4.68,0,0,1-.76.64c-.4.28-.44.23-.85.5s-.36.36-.8.61a4.15,4.15,0,0,1-.91.41c-.46.17-.5.06-1,.24s-.4.36-.88.5-.51,0-1,.11l-1,.16a4.22,4.22,0,0,1-1,.14,8.37,8.37,0,0,1-1-.05c-.49,0-.49-.06-1-.12s-.5,0-1-.12-.5,0-1-.15a7.61,7.61,0,0,1-1-.29,6.12,6.12,0,0,1-.93-.35c-.46-.21-.41-.31-.85-.54s-.45-.2-.88-.45a3.86,3.86,0,0,1-.83-.55c-.38-.31-.33-.37-.72-.69a6.57,6.57,0,0,1-.79-.6,6.85,6.85,0,0,1-.62-.78c-.32-.38-.42-.29-.71-.7s-.2-.46-.46-.88-.33-.38-.58-.82a4.12,4.12,0,0,1-.37-.92c-.19-.46-.21-.45-.39-.91a5.29,5.29,0,0,1-.39-.92c-.13-.48,0-.51-.09-1s-.24-.46-.32-1a4.17,4.17,0,0,1,0-1c0-.5.05-.49.09-1s0-.5.07-1,.12-.48.21-1,0-.51.09-1a4.09,4.09,0,0,1,.32-.95,5.28,5.28,0,0,1,.34-.94c.21-.44.25-.43.49-.86s.3-.4.54-.83.1-.52.4-.93.43-.28.77-.65.23-.46.56-.83a3.33,3.33,0,0,1,.74-.66c.4-.32.42-.28.82-.57s.33-.4.75-.67.49-.13.94-.36.39-.32.85-.52a5.75,5.75,0,0,1,.93-.35c.47-.15.49-.09,1-.22s.46-.2.94-.32a5.41,5.41,0,0,1,1-.16,5.57,5.57,0,0,1,1,0c.49,0,.49,0,1,0s.5,0,1,0a8.17,8.17,0,0,1,1,.16,8.6,8.6,0,0,1,.94.31,7.32,7.32,0,0,1,.94.29,9.53,9.53,0,0,1,.95.29,6.18,6.18,0,0,1,.9.43c.43.23.41.27.84.52s.43.25.85.52a5.68,5.68,0,0,1,.8.59,5.9,5.9,0,0,1,.78.62c.34.37.27.43.59.81s.34.37.64.76a9.23,9.23,0,0,1,.57.82,6.63,6.63,0,0,1,.55.83,5,5,0,0,1,.36.93c.17.47.15.47.3.94s.25.45.39.92a5.53,5.53,0,0,1,.25,1c.09.49,0,.5.11,1s.12.49.17,1S494.21,335.11,494.18,335.61Z"/><path class="cls-5" d="M537.15,208.88c-6.69-10.76-12.16-14.63-15.54-16-.07-.2-.58-.27-.67-.51s.46-.7.36-.93-.31-.38-.44-.6-.6-.19-.73-.41,0-.52-.19-.73-.59-.14-.74-.34-.16-.46-.32-.65,0-.64-.13-.83-.29-.38-.46-.56-.73.05-.9-.12,0-.7-.16-.87-.26-.43-.44-.59-.42-.25-.6-.41-.5-.15-.69-.31-.71.13-.9,0,0-.79-.16-.94-.36-.31-.56-.46l-.58-.42c-.19-.13-.75.24-.95.1s-.32-.36-.52-.49-.11-.68-.31-.81-.35-.33-.55-.46-.72.23-.92.1-.36-.31-.57-.43-.25-.49-.46-.62-.35-.33-.56-.46-.58.05-.79-.07-.09-.8-.3-.92-.67.22-.88.1-.49-.09-.7-.21-.25-.53-.46-.64-.6.1-.81,0-.38-.3-.59-.42-.49-.08-.71-.19-.2-.66-.42-.77-.31-.46-.52-.56-.78.48-1,.37-.25-.57-.46-.68-.31-.46-.52-.57-.49-.1-.7-.21-.65.25-.87.14-.38-.3-.6-.4-.35-.38-.56-.48-.24-.62-.46-.73-.75.48-1,.38-.4-.27-.62-.37-.26-.58-.47-.68-.69.35-.91.25-.38-.31-.6-.41-.18-.75-.4-.85-.4-.29-.62-.39-.59.15-.81.06-.36-.37-.58-.46-.49-.08-.71-.17-.5,0-.72-.14-.38-.31-.61-.4-.39-.29-.61-.38-.33-.46-.56-.55-.59.19-.81.1-.59.19-.81.1-.2-.81-.42-.89-.64.33-.87.25-.42-.22-.64-.31-.37-.39-.59-.47-.59.21-.81.13-.43-.2-.66-.28-.21-.83-.43-.91-.56.14-.78.06-.64.38-.86.31l-.67-.26c-.23-.07-.28-.67-.5-.75s-.64.43-.87.35-.39-.33-.62-.4-.4-.3-.63-.37-.34-.5-.57-.57-.64.48-.87.41-.31-.62-.54-.69-.37-.43-.6-.5-.55.2-.78.14-.45-.18-.68-.24-.61.42-.84.36-.36-.47-.59-.53-.52.08-.75,0-.3-.73-.53-.79-.55.24-.79.19-.37-.49-.6-.55-.59.43-.82.37-.33-.7-.56-.76-.58.42-.82.37-.44-.19-.67-.24-.42-.35-.65-.4-.51.09-.74,0-.55.29-.78.25-.38-.53-.61-.58l-.7-.17c-.23,0-.57.42-.8.38s-.36-.66-.6-.71-.41-.36-.65-.4-.55.34-.78.3-.49,0-.72,0-.41-.44-.65-.48-.48,0-.72-.06-.49.08-.73,0-.41-.45-.65-.48-.51.17-.75.14l-.7-.14L454,161c-.24,0-.53.34-.77.3s-.4-.61-.64-.64-.58.75-.81.72-.46-.18-.7-.21-.41-.58-.65-.61-.49.09-.73.06-.45-.22-.69-.25-.47-.09-.71-.11-.46-.2-.7-.22-.52.42-.76.4-.44-.38-.68-.41-.5.28-.74.26-.51.27-.74.25-.49,0-.72,0-.41-.92-.64-.94-.53.53-.77.51-.48.06-.72,0-.48.08-.72.06-.44-.66-.68-.67-.52.64-.76.62-.45-.48-.69-.5-.5.29-.74.28-.44-.65-.68-.67-.51.54-.75.53-.46-.35-.7-.36-.47-.26-.71-.28-.48.11-.72.1-.51.54-.75.53-.45-.62-.69-.63-.48-.05-.73-.06-.5.65-.74.64-.46-.47-.71-.48-.49.53-.74.52-.46-.52-.71-.53-.47-.18-.72-.18-.49.21-.73.2-.49.21-.74.2-.47-.18-.71-.18-.49-.14-.73-.13-.5-.25-.74-.23-.48.11-.73.13-.39.74-.63.77-.52-.37-.76-.33-.44.26-.68.3-.52-.21-.76-.17-.45.15-.69.2-.37.53-.61.58-.51-.11-.74-.06-.59-.41-.83-.35-.2.31-.28.55l-.72.05c-.15-.13-.29-.25-.4-.22s-.16.15-.23.29c-26.13,2.62-50.54,19-63.95,25.88-14,7.15.75,10.43.75,10.43l2.54.85c-.17.1-.34.25-.47.23-.45-.05-1.07-.23-.77,0a3.41,3.41,0,0,0,.69.27c.33.15.47-.16.8,0s.12.61.45.76.44-.1.77,0,.5-.24.83-.09.09.7.42.85.39,0,.72.16.21.41.54.55.44-.1.77.05.39,0,.72.15l.66.27c.33.15.19.47.52.61s.45-.13.79,0,.41,0,.74.11.15.56.48.7.3.21.63.36.43-.08.76.07.36.1.69.24.25.33.59.47.23.37.56.52.58-.4.91-.26.18.49.52.64.46-.15.79,0,.39,0,.72.15.1.68.44.83-34.81-3.83-34.48-3.68.38.06.71.2.62-.12.89.12-.11.74-.46,1.19c-.13.17-.77,0-1,.24s-.13.54-.32.77-.58.18-.77.4a5.63,5.63,0,0,0-.46.59c-.11.17.39.79.24,1s-.83,0-1,.22.29.73.16,1-.81,0-.95.24,0,.57-.1.78,0,.55-.12.76-.69.12-.82.33-.32.36-.45.56.21.68.08.88-.36.34-.48.54-.21.43-.33.63-.62.18-.74.38-.31.37-.44.57-.09.5-.22.7-.15.47-.27.67.18.67.05.87-.33.36-.45.56-.38.33-.51.53-.45.28-.57.48-.1.5-.22.7-.57.21-.7.41-.34.35-.46.56-.21.43-.33.64,0,.54-.14.75.17.66,0,.86-.42.3-.55.51-.81.07-.93.28.27.72.14.92-.61.19-.74.4-.38.32-.51.53-.17.45-.3.66.34.77.22,1-.43.31-.55.51-.33.37-.45.57-.29.39-.41.59-.24.43-.36.63.07.61-.05.81-.54.24-.67.44-.39.33-.51.54-.15.47-.28.67-.08.51-.2.71-.66.17-.78.37.22.7.1.9-.71.14-.83.34.29.73.17.93-.89,0-1,.23,0,.57-.11.77,0,.59-.08.79-.5.27-.62.47-.45.29-.57.49,0,.55-.14.74-.44.33-.55.51.14.69,0,.86c-.24.39-1,.59-.7.73s.48-.3.84-.28.34.31.7.33.36,0,.72,0,.38-.24.74-.21.37-.16.73-.14.37-.05.72,0,.31.82.67.85.38-.31.74-.28.37-.16.73-.13.34.36.7.38.37-.07.73,0,.43-.37.6-.05-.05.25-.22.57.05.45-.12.77-.4.2-.57.52-.27.27-.44.59-.45.18-.63.5.29.57.11.89-.65.06-.83.38.32.59.15.91-.55.13-.72.45.19.53,0,.85-.49.18-.63.52a1.61,1.61,0,0,0-.17.76c0,.2.05.44,0,.72s-.25.43-.27.69.2.47.18.72.27.48.26.73-.12.46-.14.7-.29.46-.31.7.46.49.45.73-.07.47-.08.71-.57.45-.57.7-.07.47-.08.71.21.48.2.72.49.48.48.73-.24.46-.24.7.37.48.37.72-.65.46-.66.7.39.48.39.72-.05.47-.05.7-.6.47-.6.71.52.48.52.71-.37.48-.37.72.25.47.25.71.05.47.05.71.41.47.41.71-.68.48-.68.72.63.47.63.71-.65.48-.65.72.4.47.41.7.29.47.3.71.11.47.12.7-.49.49-.49.73l0,.72c0,.23.08.47.09.71s-.15.48-.14.72.1.47.11.71.26.46.27.7-.21.49-.19.72,0,.48,0,.72-.29.5-.28.73.66.44.68.68-.15.49-.14.73.29.45.31.69-.2.5-.18.73.34.46.36.69-.14.5-.12.74-.34.51-.31.75.17.46.19.7.1.47.13.71,0,.49.05.73.26.45.29.69,0,.48.06.72-.14.51-.11.75.08.48.11.71.21.46.25.7-.22.53-.18.76.56.4.6.64-.57.59-.52.82.45.42.49.65-.19.53-.14.77.39.42.44.65.14.47.19.7.42.4.47.64-.23.54-.18.78-.22.55-.17.78.87.29.93.52-.06.51,0,.74.21.44.27.68-.49.63-.43.86.65.32.72.55,0,.51,0,.74-.16.55-.09.78.07.49.14.71.79.26.86.49.15.45.22.68-.54.69-.47.92.43.36.51.59-.07.54,0,.76.34.39.42.61.31.4.39.63.42.35.51.57-.4.68-.31.9.82.19.91.41.13.48.22.69-.43.72-.34.94.21.44.3.66.63.25.73.46.15.47.25.68.1.49.2.7.14.48.24.68.49.3.6.5-.11.63,0,.83.34.38.46.57.79.09.91.27-.34.86-.22,1c.28.37.52.23.56.13s.65.06.9-.16-.07-.79.14-.95.77.32,1,.18.41-.19.62-.32,0-.9.22-1,.52,0,.73-.15.59.13.8,0,.36-.34.58-.44.42-.21.64-.3.49,0,.71-.08.33-.55.56-.61.51.07.74,0,.46-.17.69-.19.52-.36.74-.35.49.07.74.1.45.31.7.35.43.3.67.35.51-.1.75-.05.5,0,.73.07l.72.15c.23.06.33.66.56.72s.65-.5.87-.44.46.21.69.27.45.24.67.3.55,0,.74,0c.43.14.62,1,.79.68a2,2,0,0,0,.36-.78c.05-.36,0-.37,0-.73s-.52-.45-.47-.81.6-.28.65-.64-.34-.42-.29-.78-.13-.39-.08-.76.06-.36.11-.72.44-.3.49-.66-.1-.39,0-.74,0-.37,0-.73-.09-.39,0-.75.43-.3.49-.66-.22-.4-.16-.77.08-.35.14-.71.31-.33.36-.69-.48-.44-.42-.8.58-.29.63-.65-.26-.41-.21-.77.5-.3.55-.66,0-.38,0-.74-.06-.38,0-.74-.44-.44-.38-.8.85-.24.9-.61-.54-.45-.49-.81.23-.34.29-.71-.36-.42-.3-.79.61-.3.6-.67c-.13-.19,0-.64-.09-.83s-.95.06-1.08-.13-.3-.88-.44-1.08c.24.07.71.77.94.85s.62-.2.85-.13a1.69,1.69,0,0,0,.19-.74c.05-.37.29-.33.34-.7s-.49-.46-.43-.83.2-.34.26-.71.25-.34.31-.71.15-.36.21-.73,0-.37.08-.74-.6-.47-.55-.84.53-.3.59-.67-.34-.44-.29-.81.55-.3.6-.67.35-.38.35-.75-.85-.37-.73-.81c.05-.18.79-.13.93-.38s-.17-.63,0-.84.41-.24.59-.42.6,0,.79-.14.28-.35.48-.49.25-.41.46-.54.52,0,.73-.14,0-.88.23-1,.6.15.82,0,.43-.15.65-.26.37-.32.59-.42c-.25,0-.51.17-.76.16s-.49-.22-.73-.23-.48-.43-.73-.44-.54.47-.79.46c-.15-.22-.09-.61-.24-.83s-.54-.28-.69-.5-.42-.59-.56-.82c.21.1.68.15.89.25s.38.29.6.39.23.63.44.73.66-.34.87-.24.39.27.61.37.35.36.56.46.49-.11.7,0c.17-.07.25-.08.42-.16s.51.05.75-.05.42-.19.66-.28.35-.37.58-.47.49,0,.72-.12.34-.42.57-.5l.67-.27c.21-.08.6.26.82.17s.49,0,.72-.12.18-.89.41-1,.66.42.89.34.24-.73.46-.81.55.12.78,0,.34-.45.57-.53l.67-.26c.22-.08.7.56.93.47s.27-.63.5-.71.61.32.84.24.28-.62.5-.7.46-.12.69-.2.54.11.76,0,.52,0,.74-.05.25-.73.47-.81.49,0,.72-.12.56.17.79.09.29-.6.52-.68.58.21.8.13.28-.66.5-.74.71.58.93.5l.69-.22c.22-.07.16-1,.39-1s.57.19.79.11.43-.23.65-.31.56.13.78,0,.33-.51.55-.59.42-.26.64-.34.7.53.92.45.25-.73.48-.81.61.3.84.22.22-.8.45-.88.44-.2.67-.28.71.57.93.49.41-.29.63-.37.47-.12.7-.2.34-.49.56-.57.61.27.83.19.27-.7.49-.78.4-.34.62-.42.69.5.91.42.51,0,.74-.09.18-.94.41-1,.67.46.9.38.22-.83.44-.91.47-.13.69-.21.53,0,.75,0,.66.42.89.34.2-.88.43-1,.5,0,.72-.1.5,0,.73-.12.55.12.78,0,.26-.69.49-.77.53.07.76,0,.63.33.85.25.4-.31.62-.39.25-.73.48-.81.48-.06.71-.14.38-.37.6-.45.42-.22.65-.3.63.34.85.26.57.13.78.05.21-.82.43-.9.72.52.94.44.36-.4.58-.48.52,0,.73-.1.35-.44.57-.52.32-.5.53-.58.6.16.8.07a7.21,7.21,0,0,0,.61-.4c.25-.11.31-.51.48-.6s.53,0,.73-.13.32-.39.52-.51.49-.11.69-.23.25-.46.45-.6.67.14.86,0,.1-.66.29-.8.33-.34.52-.48.92.42,1.1.27,0-.81.16-1,.47-.15.66-.3.3-.39.48-.53.71.16.9,0-.07-.91.12-1,.84.39,1,.26.23-.48.44-.61.13-.7.34-.82.49-.1.7-.21.53,0,.75-.1.36-.33.58-.43.47-.08.7-.17.6.27.82.19.39-.27.62-.35.3-.56.53-.65.35-.37.58-.47.58.18.8.07.61.18.83.08.37-.33.59-.44.46-.13.68-.24.15-.73.37-.84.64.21.86.09.19-.63.4-.74.47-.14.68-.26.25-.52.46-.64.68.25.89.13.22-.56.43-.68.63.14.84,0,.13-.69.33-.82.6.09.81,0,.17-.63.37-.76.73.29.94.16.22-.53.42-.66.59,0,.79-.09.44-.2.64-.33,0-.9.18-1,.68.17.88,0,.46-.17.66-.3.34-.35.54-.49.21-.53.41-.67.48-.14.67-.27.25-.49.45-.62.6,0,.8-.11.56,0,.76-.16.33-.37.52-.5.43-.23.63-.37,0-.77.23-.91.81.3,1,.16-.12-1,.07-1.12.47-.17.66-.32.46-.18.65-.33l.58-.41c.2-.15.51-.14.7-.28s.34-.35.52-.49.25-.47.44-.61.56-.06.75-.21.43-.22.62-.37.51-.13.69-.28-.13-.92.05-1.07.74.13.92,0,.35-.32.53-.48.08-.65.25-.8.41-.26.59-.41.78.15,1,0l.51-.49c.18-.16.27-.42.44-.58s.27-.42.44-.59,0-.69.16-.87.8.09,1-.09.47-.24.63-.42.3-.4.46-.58-.2-.81,0-1,.49-.22.64-.42.2-.46.35-.65.48-.25.63-.45.46-.26.61-.46.21-.45.35-.65.08-.54.22-.74.18-.47.31-.68.37-.34.51-.54.53-.24.66-.44.28-.41.41-.61.18-.47.31-.68-.08-.62,0-.83.75-.12.87-.33,0-.56.14-.77-.07-.6,0-.81.16-.47.27-.68.51-.28.63-.49.17-.46.28-.67.3-.4.4-.61-.17-.64-.07-.85.52-.3.62-.51.56-.28.66-.49-.22-.66-.13-.87.53-.33.61-.52c.19-.42-.14-.31.21-.37s.28,0,.67.06l.77.07c.38,0,.37.16.75.2s.45-.47.83-.43.36.18.72.3.41,0,.7.18.05.56.34.76.56-.21.85,0,.31.16.61.36,0,.59.32.78.4,0,.7.22.25.26.54.46.53-.16.82,0-.1.79.2,1,.4,0,.69.23.65-.28.92,0,0,.55.22.81.46,0,.69.32.22.27.46.53.37.14.61.4.17.31.41.57-.22.67,0,.93.52,0,.76.26.42.09.66.35.2.3.44.56,0,.49.23.76.42.09.66.36,0,.49.22.76.34.18.58.45.08.42.32.69.74-.15,1,.13-.35.79-.11,1.06.22.29.46.56.44.11.68.39.28.24.52.51.07.43.31.71.58,0,.82.26-.19.65.05.93.52,0,.76.3.58,0,.82.27-.09.56.15.84.28.24.53.52.19.31.44.59.56,0,.8.28,0,.47.26.76-.19.4,0,.81c.1.18.32.33.45.58s.13.46.26.69.41.31.53.53.55.24.67.46-.34.73-.22,1,.62.2.74.42-.08.59,0,.81.13.48.25.69.84.09,1,.3,0,.54.15.75.16.46.28.67.61.22.73.43-.49.82-.38,1,.67.19.79.4.48.3.6.51-.13.63,0,.84.16.47.28.69.23.43.35.64.6.24.71.45.2.46.31.67.36.36.48.57.06.53.17.74-.14.63,0,.83.54.27.66.48.17.46.28.66.51.29.62.49-.54.8-.43,1,.29.37.4.6.81.16.91.38.16.46.26.69.21.43.3.66-.38.67-.29.9.53.3.62.53.25.42.34.65-.39.66-.3.89.63.27.71.5.08.48.17.71,0,.5.1.73.1.47.18.7.29.41.37.64.25.42.33.65.61.31.69.54-.37.64-.29.87.37.39.45.62.38.38.46.61-.46.66-.38.89.21.44.29.67.24.43.32.66.55.33.62.56-.24.59-.17.82,0,.52.05.74.55.34.63.57.25.43.32.65.11.49.18.71-.33.62-.26.84.65.32.72.54-.23.6-.17.81.31.45.37.64c.13.44.16.33.25.67s-.25.34-.14.8c.05.2.33.38.4.66s.18.44.24.7.5.37.55.62,0,.5.05.75-.13.53-.08.77.24.45.29.69.35.42.41.67-.49.61-.43.85.27.44.32.68.32.43.37.68.36.42.42.66-.18.55-.12.79.42.41.47.65-.52.63-.47.86.69.36.74.59-.65.66-.6.9.84.33.89.56-.56.64-.51.86.4.44.45.66.13.44.17.69.47.4.51.64-.45.55-.42.79.34.43.38.67-.33.52-.3.76.77.38.8.62,0,.48,0,.72-.36.53-.34.77-.24.51-.22.74.61.43.63.66-.46.53-.43.76.61.43.63.66.12.49.14.71.11.5.12.7c0,.45-.17.37-.13.72s-.22.38-.18.72,0,.35.07.69.6.28.64.62-.58.43-.53.78.15.33.2.68-.13.37-.09.72.4.3.44.65,0,.35.09.69,0,.36,0,.71.39.3.44.65-.68.45-.63.79.29.32.34.67-.14.37-.09.72.75.26.8.61-.19.38-.15.73.13.33.18.68-.14.38-.09.73.38.3.43.65-.15.38-.1.73-.42.48-.27.8.41-.08.83-.36c.17-.11.13-.61.38-.77s.49-.1.72-.24.53,0,.77,0a3.93,3.93,0,0,1,.66-.23c.22-.05.46.11.72.09s.43-.25.68-.26.46,0,.71,0,.45.12.7.14.47-.08.72-.05.54-.49.78-.46.41.53.65.57.39.48.63.52.62-.68.86-.63.36.61.6.66.53-.19.77-.13a5.63,5.63,0,0,1,.69.24c.22.09.58,0,.79.08s.26.52.46.66.31.37.49.53.39.27.56.44,0,.64.16.82a.71.71,0,0,0,.35.16l3.77,7.15c.14.42.61,1.14.84.87s-.34-.75-.16-1.13.13-.4.3-.78.71-.13.89-.5-.07-.37-.11-.57l6.11-7.35s4.83-11.48,7.52-32.68S548.57,227.24,537.15,208.88ZM357.47,198.46c-.15,0-.27-.26-.39-.46l1.06.35A6.21,6.21,0,0,1,357.47,198.46ZM339.83,307.64a1.62,1.62,0,0,1,.31.1A.35.35,0,0,1,339.83,307.64ZM450.92,211a.39.39,0,0,0-.3,0c.13-.18.24-.4.42-.35C451,210.79,450.93,210.87,450.92,211Z"/><path class="cls-4" d="M390.36,341.37c0,.5.06.5,0,1a6.58,6.58,0,0,1-.21,1c-.11.48-.17.47-.29.95s0,.52-.15,1a9.3,9.3,0,0,1-.43.9c-.2.46-.15.49-.37.93a4.62,4.62,0,0,1-.57.82c-.27.42-.28.41-.57.81a5.94,5.94,0,0,1-.58.81c-.34.37-.38.32-.74.67s-.35.35-.71.7a4.61,4.61,0,0,1-.75.64c-.41.28-.44.23-.86.5s-.36.36-.79.6a4.41,4.41,0,0,1-.91.42c-.47.17-.51.06-1,.24s-.4.36-.88.5a6.65,6.65,0,0,1-1,.11l-1,.16a4.73,4.73,0,0,1-1,.14,6.58,6.58,0,0,1-1-.06c-.5,0-.5-.05-1-.11s-.5,0-1-.12-.51,0-1-.15a8,8,0,0,1-.95-.3,5,5,0,0,1-.94-.34c-.45-.22-.4-.31-.84-.54s-.46-.2-.89-.45a4.6,4.6,0,0,1-.83-.55c-.38-.32-.33-.37-.72-.69a9.12,9.12,0,0,1-.79-.6,6.55,6.55,0,0,1-.61-.78c-.33-.38-.43-.29-.72-.7s-.2-.46-.46-.89-.33-.38-.58-.81a4.91,4.91,0,0,1-.37-.92c-.18-.46-.21-.45-.39-.91a8.18,8.18,0,0,1-.39-.92c-.13-.48,0-.51-.09-1s-.24-.46-.31-1a3.71,3.71,0,0,1,0-1c0-.5.06-.5.09-1s0-.49.08-1a9.79,9.79,0,0,1,.2-1c.09-.49,0-.51.09-1a4.53,4.53,0,0,1,.32-.94,6.2,6.2,0,0,1,.34-.94c.22-.44.25-.43.49-.86s.3-.4.54-.83.11-.53.4-.93.44-.28.77-.65.23-.46.56-.84a3.94,3.94,0,0,1,.75-.66c.39-.31.41-.27.81-.57s.33-.39.75-.67.5-.13.94-.35.4-.32.85-.52a6.55,6.55,0,0,1,.93-.35c.47-.15.49-.09,1-.22s.46-.2.94-.32a5.52,5.52,0,0,1,1-.16,4.69,4.69,0,0,1,1,0c.5,0,.5,0,1,0a8.29,8.29,0,0,1,1,0c.49.06.49.06,1,.15a8.1,8.1,0,0,1,1,.31,78.25,78.25,0,0,0,1.89.59,6.07,6.07,0,0,1,.89.43c.44.23.41.27.84.51s.43.25.85.52a5.9,5.9,0,0,1,.8.59,5.37,5.37,0,0,1,.78.63c.34.37.28.42.6.81s.33.37.63.76.3.4.58.81a9.23,9.23,0,0,1,.54.84,4.17,4.17,0,0,1,.36.93c.18.46.16.47.31.94s.25.44.39.92a6.45,6.45,0,0,1,.25,1c.09.49,0,.5.1,1s.13.49.18,1A4.86,4.86,0,0,1,390.36,341.37Z"/><path class="cls-6" d="M509.21,350.31c-4.79,7.82-11.41,14.22-18.4,20a115.1,115.1,0,0,1-22.95,14.75,94.26,94.26,0,0,1-26.12,8.27,84.75,84.75,0,0,1-27.48-.11,98.16,98.16,0,0,1-26.12-8.37,81.31,81.31,0,0,1-22.69-15.57,58.51,58.51,0,0,1-8.65-10.95,50.91,50.91,0,0,1-7.42-26.63,47,47,0,0,1,.49-6.92,38.25,38.25,0,0,1,1.54-6.84,1.45,1.45,0,0,1,2.8.75l0,.09a45,45,0,0,0-.78,6.35,57.81,57.81,0,0,0,0,6.45,53.9,53.9,0,0,0,2.31,12.58A52.28,52.28,0,0,0,369,365.69a76.07,76.07,0,0,0,21.36,14.45,93.94,93.94,0,0,0,24.72,7.95,83.07,83.07,0,0,0,25.86.26,89.18,89.18,0,0,0,24.83-7.62A110.63,110.63,0,0,0,488,366.79c3.41-2.74,6.66-5.69,9.79-8.76s6.18-6.21,9.15-9.45v0a1.46,1.46,0,0,1,2.31,1.75Z"/><path class="cls-6" d="M468.19,204a5.32,5.32,0,0,1-.37,4.68,20.31,20.31,0,0,1-1,2.06c-.34.67-.71,1.33-1.09,2-1.61,2.56-3.42,4.95-5.21,7.32-.91,1.18-1.75,2.41-2.7,3.54s-1.76,2.4-2.79,3.48-1.93,2.27-3,3.34-2.16,2.06-3.26,3.06-2.34,1.85-3.51,2.76l-1.8,1.33c-.62.41-1.26.79-1.89,1.19l-3.77,2.37q-2,1.05-3.89,2.16c-.65.36-1.28.75-1.91,1.15s-1.3.73-1.93,1.13c-1.28.78-2.55,1.62-3.87,2.34a12.49,12.49,0,0,1-2.06.9,22.49,22.49,0,0,1-2.17.62,11.22,11.22,0,0,1-4.63.13.6.6,0,0,1-.47-.7.57.57,0,0,1,.14-.28l0,0c2.28-2.53,5-3.28,7.75-4.16,1.36-.45,2.78-.79,4.18-1.19.71-.2,1.41-.41,2.09-.66s1.32-.61,2-.95q1.94-1,3.84-2l3.59-2.45c.59-.42,1.19-.82,1.77-1.25l1.67-1.38,1.68-1.37c.56-.46,1.15-.88,1.66-1.39,4.33-3.79,8.62-7.79,11.76-12.68a49,49,0,0,0,3.87-7.73c.52-1.34,1.12-2.64,1.63-4a15.85,15.85,0,0,1,.89-1.92,5.2,5.2,0,0,1,1.72-1.67l.08,0a.67.67,0,0,1,.91.24Z"/><path class="cls-6" d="M457.26,199c.39,2.13-.47,3.64-1.32,5.14s-1.74,3-2.71,4.39c-1.92,2.86-4,5.58-6,8.39-3.95,5.59-7.52,11.47-11.89,16.78a192.42,192.42,0,0,1-14.27,14.86c-2.65,2.18-4.76,5-7.47,7.25a16.84,16.84,0,0,1-9.44,4.5.57.57,0,0,1-.62-.51.54.54,0,0,1,.09-.37l0-.05c2.08-3.2,4.94-4.71,7.7-6.64a52.92,52.92,0,0,0,8.42-5.61c5.09-4.47,9.43-9.71,13.75-14.92s8.66-10.45,12.18-16.28c1.78-2.89,3.26-6,4.77-9,.39-.76.77-1.51,1.17-2.26s.78-1.5,1.2-2.23a7.54,7.54,0,0,1,3.46-3.9h0a.66.66,0,0,1,.88.3A1.09,1.09,0,0,1,457.26,199Z"/><path class="cls-6" d="M512.41,311.18a17.14,17.14,0,0,1,3.29-6.56,15.47,15.47,0,0,1,5.8-4.94l.93-.38c.32-.11.66-.17,1-.25a8.68,8.68,0,0,1,2-.23,11,11,0,0,1,3.9.76,15.93,15.93,0,0,1,6.29,4.37,15,15,0,0,1,3.48,6.87,15.74,15.74,0,0,1-.46,7.66,24.41,24.41,0,0,1-8.62,11.75.78.78,0,0,1-1.07-1.11h0c3-3.57,5.8-7.22,7.1-11.41a13.06,13.06,0,0,0,.33-6.32,12.22,12.22,0,0,0-2.85-5.6c-2.77-3.13-7.34-5.48-11.05-3.77a13,13,0,0,0-4.91,4.08c-1.39,1.75-2.45,3.79-3.76,5.66l0,.05a.77.77,0,0,1-1.08.19A.79.79,0,0,1,512.41,311.18Z"/><path class="cls-6" d="M420.78,323.87c.44-.07.45.08.54.18l.24.33a4.93,4.93,0,0,1,.44.68,5.46,5.46,0,0,1,.34.74.85.85,0,0,1-.1,1,1.4,1.4,0,0,1-1.25.62.84.84,0,0,1-.83-.48,6.1,6.1,0,0,1-.39-.71,7,7,0,0,1-.29-.76l-.12-.4c0-.13-.14-.22.18-.54A2.29,2.29,0,0,1,420.78,323.87Z"/><path class="cls-6" d="M400.38,308.24c0,.37-.1.37-.12.74s0,.37,0,.74,0,.37-.06.75,0,.37-.06.74a4.29,4.29,0,0,1-.15.73c-.08.37-.06.37-.13.74s0,.38-.09.75a4.83,4.83,0,0,1-.22.71,4.34,4.34,0,0,1-.19.73c-.14.35-.18.33-.33.67s-.11.36-.26.7-.17.34-.33.67-.14.35-.32.68-.2.32-.39.64a4.25,4.25,0,0,1-.41.63,3.34,3.34,0,0,1-.54.52c-.27.25-.23.29-.52.53a2.36,2.36,0,0,1-.6.45,2.27,2.27,0,0,1-.73.21,3.51,3.51,0,0,1-.72.13,1.89,1.89,0,0,1-.75,0,1.69,1.69,0,0,1-.72-.23,2.25,2.25,0,0,1-.66-.37c-.3-.24-.25-.3-.51-.57s-.25-.28-.49-.57-.32-.24-.5-.58,0-.41-.18-.75-.23-.3-.41-.64a4.22,4.22,0,0,1-.32-.68c-.13-.35-.14-.35-.25-.71a6,6,0,0,1-.14-.74c-.09-.37-.12-.36-.21-.73s-.12-.36-.19-.73,0-.38-.07-.75-.11-.36-.2-.72-.07-.37-.13-.75a3.78,3.78,0,0,1-.12-.75c0-.38.09-.38.08-.76s-.09-.37-.12-.75,0-.38,0-.76a4.74,4.74,0,0,1-.06-.75l0-.77c0-.39.07-.38.07-.77a6.57,6.57,0,0,1,0-.77c0-.38,0-.39.08-.77s.13-.37.16-.75-.06-.39,0-.78.06-.38.13-.76.12-.37.19-.75.08-.37.15-.75,0-.41.08-.78.21-.33.35-.69a6.39,6.39,0,0,1,.24-.74c.17-.34.24-.3.43-.64s.08-.41.3-.72.35-.21.63-.47.26-.28.55-.53a2.53,2.53,0,0,1,.6-.48,2.18,2.18,0,0,1,.7-.3,3.88,3.88,0,0,1,.76-.12,4.65,4.65,0,0,1,.75-.06,6.62,6.62,0,0,1,.77,0,2.15,2.15,0,0,1,.75.13c.37.11.33.18.67.36s.41.07.72.31.25.3.51.59a3.14,3.14,0,0,1,.49.6c.2.33.12.37.3.71s.29.28.45.63a3.39,3.39,0,0,1,.19.76c.11.37.15.35.28.71a4.91,4.91,0,0,1,.21.75c.08.38,0,.38.1.77s.11.37.21.75a3.14,3.14,0,0,1,.17.75c0,.38-.07.39-.06.77s0,.39.07.77,0,.39.08.77.1.38.13.77,0,.39,0,.77,0,.39,0,.78A6.87,6.87,0,0,1,400.38,308.24Z"/><path class="cls-6" d="M444.91,304a4.7,4.7,0,0,0,0,.75c0,.37.05.37.1.74s.06.37.14.73.09.36.19.73.06.37.13.73a5.46,5.46,0,0,0,.21.72,4.59,4.59,0,0,0,.29.69c.13.35.09.37.22.72s.17.33.28.68.08.38.21.73.18.33.34.66a7,7,0,0,0,.34.67,6.15,6.15,0,0,0,.42.62,4.21,4.21,0,0,0,.43.61c.24.28.25.28.5.55s.22.31.49.57a2.42,2.42,0,0,0,.62.42,4.52,4.52,0,0,0,.66.33,2.75,2.75,0,0,0,.67.32,1.55,1.55,0,0,0,.74.07,1.86,1.86,0,0,0,.73-.14,2.16,2.16,0,0,0,.69-.27,2.55,2.55,0,0,0,.57-.47,2.68,2.68,0,0,0,.57-.49,3.78,3.78,0,0,0,.41-.63c.17-.33.08-.38.27-.7s.35-.24.5-.59a3.64,3.64,0,0,0,.18-.74c.1-.36.08-.37.19-.72s.1-.36.2-.73.14-.35.24-.71a6,6,0,0,0,.13-.74c.06-.37,0-.38.1-.75s.12-.36.16-.74a4.69,4.69,0,0,0,0-.75c0-.38,0-.38,0-.75s0-.39,0-.76.14-.37.16-.75a4.66,4.66,0,0,0-.09-.75,6.42,6.42,0,0,0,0-.76c0-.38-.07-.37-.1-.75s0-.38-.07-.77,0-.39-.05-.77-.09-.37-.13-.76,0-.38-.08-.76a5,5,0,0,0,0-.78c-.08-.37-.16-.35-.24-.73s-.07-.38-.15-.76a6.63,6.63,0,0,0-.15-.75,6.34,6.34,0,0,0-.23-.74c-.13-.36-.24-.32-.37-.68s0-.4-.19-.75a5.45,5.45,0,0,0-.39-.66,3.5,3.5,0,0,0-.32-.71c-.22-.32-.31-.24-.56-.53s-.13-.4-.4-.68a2.12,2.12,0,0,0-.63-.47,4.41,4.41,0,0,0-.71-.29,4.77,4.77,0,0,0-.72-.26,2.78,2.78,0,0,0-.74-.19,2.92,2.92,0,0,0-.78,0,2.51,2.51,0,0,0-.77.1,3.38,3.38,0,0,0-.75.22,2.36,2.36,0,0,0-.71.31c-.32.22-.23.33-.49.62s-.32.22-.55.52a6.31,6.31,0,0,0-.4.65c-.22.33-.29.29-.44.64s-.05.39-.18.76-.2.33-.33.7a2.71,2.71,0,0,0-.16.75c-.06.38-.07.38-.15.76a6.43,6.43,0,0,0-.17.76,4,4,0,0,0,0,.78,4.82,4.82,0,0,1,0,.76c0,.39-.14.38-.18.76a6.77,6.77,0,0,0,0,.78,6.51,6.51,0,0,0,0,.77c0,.39.1.38.14.77s0,.38,0,.77a6.59,6.59,0,0,0,.1.76C444.93,303.55,444.89,303.56,444.91,304Z"/><path class="cls-6" d="M464.65,410.44c-.47.38-.69.3-.91.2l-.68-.24c-.45-.15-.88-.35-1.33-.52s-.85-.41-1.26-.65a10.17,10.17,0,0,1-1.2-.77l-.42-.36a1.63,1.63,0,0,1-.56-1.15c-.16-3.59-.3-7.19-.4-10.79s-.17-7.19-.15-10.79a1.08,1.08,0,0,1,1.1-1.09,1.1,1.1,0,0,1,1.08,1c.44,3.57.8,7.15,1.13,10.74s.61,7.17.88,10.75l-1-1.51a10.15,10.15,0,0,1,1.32.54c.43.2.85.43,1.26.67s.81.5,1.19.79l.59.41c.2.13.4.26.35.87A2.83,2.83,0,0,1,464.65,410.44Z"/><path class="cls-6" d="M494.64,416.57a23.57,23.57,0,0,1,5.66.32,37.51,37.51,0,0,1,5.36,1.34c3.5,1.14,7,2.33,10.43,3.68s6.83,2.81,10.17,4.43a83.43,83.43,0,0,1,9.77,5.5,31.57,31.57,0,0,1,4.5,3.6,21.45,21.45,0,0,1,3.41,4.73,83,83,0,0,1,4.6,10.16c1.32,3.45,2.56,6.91,3.68,10.42s2.21,7,3.14,10.56c3.83,14.18,6.17,28.67,8.81,43.06.68,3.59,1.3,7.2,2.15,10.77s1.79,7.12,2.61,10.7a88.5,88.5,0,0,1,1.81,10.84,39.08,39.08,0,0,1-.35,11.14A.74.74,0,0,1,569,558a43,43,0,0,1-3.37-10.58,103.74,103.74,0,0,1-1.45-10.84c-.31-3.64-.52-7.3-.88-10.94s-1-7.24-1.57-10.84-1.29-7.18-2-10.76-1.48-7.14-2.28-10.7L555,482.69l-2.55-10.62a198.92,198.92,0,0,0-6-20.93,55.07,55.07,0,0,0-4.58-9.72,18.05,18.05,0,0,0-3.21-4,25,25,0,0,0-4.26-2.95,80.48,80.48,0,0,0-9.71-4.55c-3.34-1.34-6.74-2.56-10.15-3.77s-6.84-2.38-10.29-3.51a45.54,45.54,0,0,1-5.08-2,27.6,27.6,0,0,1-4.86-2.78h0a.76.76,0,0,1-.16-1.05A.82.82,0,0,1,494.64,416.57Z"/><path class="cls-6" d="M382,414.23a47.12,47.12,0,0,1-11.94,6.18c-4.11,1.68-8.2,3.41-12.21,5.25a114.64,114.64,0,0,0-11.72,6,47.22,47.22,0,0,0-5.33,3.71,18.6,18.6,0,0,0-4.23,4.57l0,.08a.44.44,0,0,1-.08.11,29,29,0,0,0-4,6.28,73,73,0,0,0-2.93,7.07c-1.69,4.84-3.06,9.8-4.28,14.8-2.49,10-4.7,20.07-6.86,30.17-1,5.05-2.06,10.12-2.91,15.21s-1.72,10.2-2.08,15.37-.57,10.36-1.26,15.47a66.31,66.31,0,0,1-1.37,7.63,37.47,37.47,0,0,1-2.6,7.47.75.75,0,0,1-1,.35.78.78,0,0,1-.4-.51,34.56,34.56,0,0,1-.64-7.93,59.24,59.24,0,0,1,.73-7.75c.74-5.13,2.06-10.18,3.26-15.24s2-10.17,2.92-15.27L315.71,498a285.34,285.34,0,0,1,6.78-30.39c1.47-5,3.06-10,4.91-14.84.92-2.45,1.88-4.89,3-7.28a39.48,39.48,0,0,1,4-7l-.13.19a23.77,23.77,0,0,1,4.52-5.57,50.6,50.6,0,0,1,5.41-4.36,99,99,0,0,1,11.75-7.05c4.05-2.08,8.19-3.94,12.39-5.62s8.5-3.17,13.27-3.17a.74.74,0,0,1,.74.74.75.75,0,0,1-.29.58Z"/><path class="cls-6" d="M476.75,207.62c2.62.21,4.35,1.75,6,3.27a33.12,33.12,0,0,1,2.38,2.36,30.72,30.72,0,0,1,2.2,2.5,122,122,0,0,1,7.71,10.8,141.82,141.82,0,0,1,12.72,23.06l2.38,6.15c.71,2.08,1.3,4.19,2,6.29l1,3.14c.35,1,.54,2.13.82,3.19q.81,3.18,1.68,6.36c.14.53.28,1.06.44,1.58l.38,1.6c.27,1.06.54,2.13.87,3.18.61,2.12,1.26,4.24,1.81,6.38.83,4.31,1.41,8.72.37,13.22a.56.56,0,0,1-.67.42.54.54,0,0,1-.36-.28l0,0c-2.19-4.14-2.66-8.4-3.06-12.72-.27-2.14-.44-4.31-.65-6.48a38.57,38.57,0,0,0-1-6.43,110.1,110.1,0,0,0-3.51-12.52c-.72-2.05-1.37-4.11-2.15-6.14l-2.43-6c-3.4-7.93-6.91-15.93-12.05-22.93-.64-.87-1.31-1.72-2-2.57-.34-.42-.66-.85-1-1.26l-1.1-1.2-2.18-2.38c-.73-.79-1.54-1.5-2.28-2.27-1.49-1.54-3.09-3-4.62-4.42a13.94,13.94,0,0,1-4.17-5l0-.05a.59.59,0,0,1,.3-.78A.51.51,0,0,1,476.75,207.62Z"/><path class="cls-6" d="M409.62,206.18c-.2,2.18-1.43,3.45-2.64,4.71s-2.45,2.52-3.75,3.7c-2.6,2.36-5.33,4.58-7.91,6.95-5.18,4.69-10,9.85-15.39,14.29s-11.16,8.51-17,12.46c-1.44,1-2.88,2-4.3,3.08a44.7,44.7,0,0,1-4.35,3.12,26.25,26.25,0,0,1-4.83,2.34,15.27,15.27,0,0,1-5.46.67.56.56,0,0,1-.52-.61.59.59,0,0,1,.15-.34l0,0a15.17,15.17,0,0,1,4.28-3.16,45,45,0,0,1,4.58-2.23c1.61-.59,3.18-1.31,4.78-2,.8-.34,1.57-.73,2.35-1.1s1.5-.87,2.23-1.34c5.93-3.61,11.16-8.23,16.5-12.65s10.82-8.76,15.64-13.79c1.23-1.23,2.38-2.55,3.51-3.87l3.37-4c1.15-1.31,2.26-2.64,3.47-3.89s2.3-2.58,4.42-3h0a.66.66,0,0,1,.77.51A1.21,1.21,0,0,1,409.62,206.18Z"/><path class="cls-6" d="M511.35,178.85c-4.11-1.36-8.06-3-12-4.61s-7.84-3.33-11.84-4.8a197.87,197.87,0,0,0-24.4-7.57q-6.22-1.45-12.55-2.43c-4.21-.6-8.46-1-12.72-1.2a95.32,95.32,0,0,0-25.38,2.32c-2.08.43-4.13,1.06-6.19,1.64s-4.13,1.13-6.13,1.87l-6.07,2.09-5.95,2.36a221,221,0,0,0-23,11.42c-7.47,4.19,7.55,11.54-.5,14.92s14.73,9.11,6,9.31l-11.85-5.68-21.49,5.3a.94.94,0,0,1,.52,1.21,1.28,1.28,0,0,1-.15.25h0a92.52,92.52,0,0,0-6.3,8.83c-2,3.07-3.8,6.21-5.56,9.4s-3.4,6.44-5,9.73-3,6.65-4.34,10l-1.5-1.78,9.21-2.53a1.56,1.56,0,0,1,1.92,1.09,1.55,1.55,0,0,1-.26,1.34l-.18.25a9.12,9.12,0,0,0-.68,1.06,12,12,0,0,0-.64,1.35l-.29.71-.24.74a14.66,14.66,0,0,0-.45,1.51l-.37,1.54-.26,1.57c-.2,1-.26,2.13-.39,3.2a84.85,84.85,0,0,0,0,13.05c.18,2.19.38,4.39.62,6.58s.49,4.39.82,6.59.58,4.41.93,6.61.68,4.42.92,6.67v0a.53.53,0,0,1-.47.58.54.54,0,0,1-.55-.34c-.81-2.11-1.52-4.25-2.23-6.4s-1.22-4.36-1.78-6.55-.9-4.44-1.35-6.67c-.24-1.11-.31-2.25-.47-3.38s-.29-2.26-.4-3.4a71.35,71.35,0,0,1,.14-13.78,34.17,34.17,0,0,1,.57-3.46l.39-1.71L320,246a15.48,15.48,0,0,1,.6-1.69l.32-.84.4-.83a15.23,15.23,0,0,1,.88-1.63,10.55,10.55,0,0,1,1.27-1.67L325,242l-9.35,2-.08,0a1.26,1.26,0,0,1-1.51-1,1.3,1.3,0,0,1,.09-.81l2.39-5,2.46-4.94q2.49-4.94,5.16-9.76c1.8-3.21,3.67-6.38,5.67-9.48s8.94,9.7,11.33,6.78l8.17-7.17,1.28-10.18c-.52-.21,10-1,10.24-1.5a1,1,0,0,1,.85-.64l.17-1c2.11-.19-14.47-.83-12.37-1.06l-3.84,1.5c1-.18.32-1.87,1.34-2.17a54.31,54.31,0,0,0,5.67-1.84l1.17-2.67,4-1.33c7.82-3.3-1.34-9.77,6.22-13.89,1.89-1,3.77-2.09,5.69-3.07s3.82-2,5.78-2.93c3.88-1.91,7.85-3.62,11.86-5.24a184,184,0,0,1,24.7-7.81,91.31,91.31,0,0,1,12.84-2.06,117.16,117.16,0,0,1,13-.5c4.33.06,8.66.38,13,.81s8.59,1.15,12.85,2a169.23,169.23,0,0,1,25,7c8.08,3.09,16.28,6.21,23.13,11.8a.53.53,0,0,1,.08.75.56.56,0,0,1-.58.17Z"/><path class="cls-6" d="M395.37,235.61a2.4,2.4,0,0,1,1.2.95,3.09,3.09,0,0,1,.54,1.24,3.72,3.72,0,0,1,.06,1.24l-.06.61-.13.56-.3,1.12c-.11.37-.29.68-.43,1a10.67,10.67,0,0,1-1,1.93c-.37.6-.78,1.18-1.17,1.77l-1.31,1.62c-.85,1.09-1.82,2.06-2.69,3.1-.45.51-.86,1.05-1.32,1.55s-.91,1-1.36,1.5c-.9,1-1.73,2.07-2.68,3L382,259.81c-.94,1-1.95,1.86-2.94,2.76s-2,1.8-3.05,2.65l-3.17,2.49-3.15,2.5c-1.07.82-2.12,1.65-3.16,2.5-4.2,3.29-7,8.59-13.16,9.23a.6.6,0,0,1-.66-.54.7.7,0,0,1,0-.29l0,0c1.21-2.9,3.38-4.41,5.65-5.81a49.81,49.81,0,0,0,6.93-4.08c1.08-.79,2.14-1.59,3.18-2.41s2-1.74,3-2.61l3-2.64,2.93-2.7c3.93-3.54,8.08-6.94,11.24-11.18a21.79,21.79,0,0,0,2.11-3.31l.91-1.72c.24-.59.47-1.19.73-1.76a15.61,15.61,0,0,0,.63-1.72,11.17,11.17,0,0,0,.47-1.68l.11-.41,0-.38c0-.25.12-.53.16-.76a9,9,0,0,1,.74-1.63l.25-.47A.43.43,0,0,1,395.37,235.61Z"/><path class="cls-6" d="M342.87,310a3,3,0,0,1-2.16.64,10,10,0,0,0-2,.29,5.81,5.81,0,0,0-3.36,2.32,8.69,8.69,0,0,0-1,2c-.11.36-.19.72-.28,1.09a5.88,5.88,0,0,0-.21,1.11,13,13,0,0,0-.17,2.23l0,1.1c0,.37.1.72.13,1.09a10.16,10.16,0,0,0,1.39,4.08,11,11,0,0,0,3.08,3.18,12.66,12.66,0,0,0,4.21,1.56,8.18,8.18,0,0,1,4.07,2.15l0,0a.4.4,0,0,1,0,.58.32.32,0,0,1-.12.08,5.55,5.55,0,0,1-4.9-.49c-1.47-.81-2.69-2-4-2.87a20,20,0,0,1-1.83-1.62,10.07,10.07,0,0,1-.85-.88l-.76-1a8.85,8.85,0,0,1-.65-1.06,5.9,5.9,0,0,1-.55-1.13l-.39-1.19a6.36,6.36,0,0,1-.23-1.23,7.46,7.46,0,0,1-.13-1.24l.07-1.24a12.79,12.79,0,0,1,.39-2.4,23.91,23.91,0,0,1,.69-2.33,18.18,18.18,0,0,1,1.05-2.24A8.6,8.6,0,0,1,338,309a6.78,6.78,0,0,1,2.6-.65,2.35,2.35,0,0,1,2.48,1,.46.46,0,0,1-.11.61Z"/><path class="cls-6" d="M521.51,187.31c3,.42,5,2.24,7,4.09a46.76,46.76,0,0,1,5.3,6,72,72,0,0,1,4.41,6.59c1.31,2.29,2.59,4.59,3.75,6.94a95.69,95.69,0,0,1,9.6,29.8c.36,2.6.58,5.21.77,7.82l.13,3.92c0,1.31,0,2.62,0,3.93s0,2.61-.1,3.91-.09,2.62-.2,3.92c-.18,2.6-.4,5.19-.62,7.79-.57,5.17-.6,10.43-1.32,15.65a42,42,0,0,1-1.81,7.72c-.22.63-.46,1.25-.71,1.87s-.58,1.22-.89,1.81a17.06,17.06,0,0,1-2.32,3.36.54.54,0,0,1-.77.06.51.51,0,0,1-.19-.45V302a72.14,72.14,0,0,1,1.22-7.62c.54-2.47,1.1-4.95,1.73-7.42a104.71,104.71,0,0,0,3.14-15.13A116.51,116.51,0,0,0,549.2,241a113.38,113.38,0,0,0-3.11-15,66.18,66.18,0,0,0-5.78-14.23,65,65,0,0,0-9-12.35c-1.69-1.89-3.46-3.69-5.28-5.44a22.42,22.42,0,0,1-5.08-5.74l0-.05a.57.57,0,0,1,.22-.78A.66.66,0,0,1,521.51,187.31Z"/><path class="cls-6" d="M542,468c1.69,1.88,1.59,3.72,1.53,5.56s-.17,3.68-.36,5.52c-.38,3.67-.94,7.35-1.16,11-.47,7.35.12,14.74-.11,22.1s-.85,14.72-.77,22.09c-.11,3.68.7,7.38,1,11.07s.18,7.38-2.07,11a.82.82,0,0,1-1.12.27.8.8,0,0,1-.28-.3c-2.09-3.73-1.94-7.41-1.59-11.09s1.45-7.33,1.49-11c.4-7.36,0-14.73.2-22.1s1-14.72.85-22.09c-.06-3.68-.45-7.38-.68-11.06-.11-1.85-.16-3.69-.12-5.53s0-3.69,1.78-5.49a1,1,0,0,1,1.36,0Z"/><path class="cls-6" d="M337.47,485.59c1.77,1.43,1.74,2.9,1.76,4.37a43.32,43.32,0,0,1-.15,4.41c-.24,2.95-.65,5.9-.73,8.84-.18,5.88.7,11.75.76,17.62s-.27,11.77.1,17.64c0,2.94,1,5.86,1.44,8.79s.47,5.87-1.64,8.86a.87.87,0,0,1-1.21.21.81.81,0,0,1-.19-.18c-2.23-2.89-2.23-5.83-2-8.78s1.16-5.9,1.06-8.84c.11-5.88-.56-11.75-.67-17.63s.42-11.77,0-17.64c-.2-2.93-.74-5.86-1.11-8.79-.18-1.47-.3-2.94-.34-4.41s-.14-2.93,1.56-4.44A1.08,1.08,0,0,1,337.47,485.59Z"/><path class="cls-6" d="M418.38,390.53c1.36,1.54,1.37,3.15,1.45,4.76s.1,3.22.09,4.83c-.05,3.23-.21,6.47-.08,9.69v0a.81.81,0,0,1-.69.84c-3.18.49-6.34,1.06-9.49,1.69l.11-1.72c2.21.64,4.43,1.21,6.62,1.89s4.39,1.35,6.57,2.06,4.35,1.47,6.53,2.2,4.35,1.46,6.54,2.13h-.56c2.77-1,5.54-2,8.27-3.19s5.39-2.42,8.1-3.62A85.24,85.24,0,0,1,460.1,409a35.53,35.53,0,0,1,8.79-1.77.52.52,0,0,1,.54.49.53.53,0,0,1-.2.45,35.69,35.69,0,0,1-7.86,4.29,82.77,82.77,0,0,1-8.38,2.87c-2.84.83-5.71,1.57-8.54,2.44s-5.6,1.88-8.38,2.86h0a.94.94,0,0,1-.55,0c-2.18-.71-4.39-1.35-6.59-2s-4.41-1.26-6.61-1.94-4.39-1.33-6.56-2.08-4.34-1.5-6.51-2.24h0a.88.88,0,0,1-.55-1.12.9.9,0,0,1,.7-.59c3.19-.46,6.36-1,9.52-1.58l-.69.87c-.25-3.22-.78-6.41-1.21-9.62-.2-1.6-.38-3.2-.46-4.81s-.3-3.21.88-4.89a.63.63,0,0,1,.88-.16Z"/><path class="cls-6" d="M400.54,345.1a3.82,3.82,0,0,1,2-.56,7.78,7.78,0,0,1,1.73.33c.57.14,1.14.31,1.7.48s1.14.32,1.71.5a56.2,56.2,0,0,0,6.9,1.87c4.72.86,9.53.51,14.26.41,1.18-.07,2.37,0,3.56-.13l3.55-.25c1.19-.09,2.35-.32,3.53-.48l1.76-.3c.58-.12,1.15-.3,1.72-.45a22.36,22.36,0,0,0,3.36-1.19c1.06-.57,2.09-1.19,3.15-1.69.53-.25,1.08-.46,1.62-.66a13.43,13.43,0,0,1,1.64-.61,8.25,8.25,0,0,1,3.81-.17h.05a.64.64,0,0,1,.5.74.7.7,0,0,1-.08.2,7.92,7.92,0,0,1-2.8,2.73,15.42,15.42,0,0,1-1.67.85,18.43,18.43,0,0,1-1.8.5c-1.22.27-2.47.42-3.69.61a23.12,23.12,0,0,0-3.65.56c-4.78.91-9.58,2-14.48,2.09s-9.73-.59-14.57-1c-1.21-.14-2.43-.19-3.66-.25s-2.45-.15-3.67-.31a27.88,27.88,0,0,1-3.63-.65,4,4,0,0,1-3.2-2.21.76.76,0,0,1,.28-1Z"/><path class="cls-6" d="M562.83,203.89c11.21-1.08,20-12.2,20-25.33a1.12,1.12,0,0,1,1.13-1.1,1.09,1.09,0,0,1,1.14,1.1c-1.31,17.13,8.46,24,19.67,25.29a1.1,1.1,0,0,1,0,2.2c-10,.74-18.2,9.24-20,20.67a1.12,1.12,0,0,1-1.12.93,1.14,1.14,0,0,1-1.13-.93c-1.79-11.22-9.57-22-19.62-20.64-.58.08-1-.53-1-1.1A1.11,1.11,0,0,1,562.83,203.89Z"/><path class="cls-6" d="M552.91,167.53c5.31-.51,9.46-5.77,9.46-12a.53.53,0,0,1,.54-.52.52.52,0,0,1,.54.52c-.62,8.1,4,11.36,9.3,12a.52.52,0,0,1,0,1c-4.71.35-8.61,4.37-9.47,9.77a.53.53,0,0,1-.53.44.54.54,0,0,1-.54-.44c-.85-5.3-4.52-10.38-9.28-9.76-.27,0-.48-.25-.48-.51A.52.52,0,0,1,552.91,167.53Z"/><path class="cls-3" d="M333.24,212.34s15-38.77,45.21-57.39c31.75-19.57,120.65,4.31,147.69,25.26,13.91,10.77,28.34,37.4,30.36,53.71C559,254.09,549,289.34,549,289.34S393.42,187.87,333.24,212.34Z"/><path class="cls-7" d="M330.28,221.26s15.27-43,44.66-62.8c30.92-20.88,124.81-5.82,154.77,25.49,12.17,12.71,21.85,33.46,24.53,49.67,3.3,20-5.16,55.68-5.16,55.68S389.4,194.32,330.28,221.26Z"/><path class="cls-8" d="M317.55,271.77s-39-12.82-15-45c17.95-24,63.73-17.61,89.94-10.16s105.44,46.6,116.36,51.26c0,0-119.19-37-150.69-25.71S317.55,271.77,317.55,271.77Z"/><path class="cls-9" d="M513.36,269.43s-2,9-33.49,6.07c-28.14-2.6-41.46-6.35-76.74-35.68-22.88-19-52.53-29.39-52.53-29.39S387,199.15,513.36,269.43Z"/><path class="cls-10" d="M525.15,197.45s-.23,39.39-10,59.12"/><path class="cls-11" d="M207.82,276.87a2.31,2.31,0,0,1,1.32.9,2.44,2.44,0,0,1,.49,1.46,2.27,2.27,0,0,1-2.3,2.35,3,3,0,0,1-.6-.05,54.29,54.29,0,0,1-6.06-2.09q-3.27-1.31-6.36-2.9c-2.07-1.06-3.9-2.1-5.51-3.13a.23.23,0,0,0-.28,0,.28.28,0,0,0-.11.24v7.24a2.26,2.26,0,0,1-.71,1.65,2.33,2.33,0,0,1-1.7.71,2.36,2.36,0,0,1-1.7-.69,2.23,2.23,0,0,1-.71-1.67V274c0-.33-.13-.4-.38-.22a50.35,50.35,0,0,1-5.87,3.29c-2.2,1.06-4.34,2-6.44,2.83s-3.92,1.45-5.46,1.89l-.3.08a1.39,1.39,0,0,1-.3,0,2.17,2.17,0,0,1-1.59-.72,2.36,2.36,0,0,1-.72-1.75,2.3,2.3,0,0,1,.55-1.45,2.59,2.59,0,0,1,1.43-.91c1.28-.36,2.7-.84,4.28-1.42s3.16-1.25,4.76-2,3.11-1.53,4.5-2.33c.18-.08.26-.16.22-.25s-.15-.14-.33-.14h-12.5a2.31,2.31,0,0,1-1.64-.68,2.17,2.17,0,0,1-.72-1.62,2.34,2.34,0,0,1,2.36-2.3h17.82a.29.29,0,0,0,.33-.33v-1.7a.29.29,0,0,0-.33-.33H170.05a2.17,2.17,0,0,1-1.62-.71,2.32,2.32,0,0,1-.69-1.65,2.34,2.34,0,0,1,2.31-2.3h13.21a.29.29,0,0,0,.33-.33v-1.7a.29.29,0,0,0-.33-.33H167.47a2.22,2.22,0,0,1-1.62-.69,2.17,2.17,0,0,1-.68-1.61,2.34,2.34,0,0,1,2.3-2.31H177a.28.28,0,0,0,.25-.11q.08-.1,0-.27a7.78,7.78,0,0,0-.36-.82,6.25,6.25,0,0,0-.46-.77,2.41,2.41,0,0,1-.33-1.15,2.5,2.5,0,0,1,.55-1.59c.11-.07.15-.15.13-.22s-.1-.11-.24-.11h-11a2.35,2.35,0,0,1-1.65-.66,2.15,2.15,0,0,1-.71-1.64,2.2,2.2,0,0,1,.71-1.62,2.3,2.3,0,0,1,1.65-.69h5.64c.29,0,.37-.12.22-.38q-.44-.83-1-1.62c-.35-.53-.76-1.08-1.23-1.67a2.32,2.32,0,0,1-.5-1.42,2.06,2.06,0,0,1,.94-1.76,2.88,2.88,0,0,1,1.59-.49,2.3,2.3,0,0,1,2,1,25.55,25.55,0,0,1,1.78,2.88c.61,1.12,1.16,2.21,1.68,3.27,0,.14.16.21.38.21h2a.29.29,0,0,0,.33-.32V237.5a2.27,2.27,0,0,1,.68-1.64,2.23,2.23,0,0,1,1.67-.72,2.2,2.2,0,0,1,1.62.69,2.26,2.26,0,0,1,.69,1.67v4.83a.29.29,0,0,0,.33.32H188a.29.29,0,0,0,.33-.32V237.5a2.28,2.28,0,0,1,.69-1.64,2.27,2.27,0,0,1,3.29,0,2.26,2.26,0,0,1,.68,1.67v4.83a.29.29,0,0,0,.33.32h.88a.51.51,0,0,0,.38-.16,22.21,22.21,0,0,0,1.87-2.55c.62-1,1.22-2,1.81-3.15a2.5,2.5,0,0,1,3.92-.71,2.13,2.13,0,0,1,.63,1.53,1.78,1.78,0,0,1-.22.93q-.44.93-.93,1.89c-.33.64-.68,1.26-1,1.84q-.12.16,0,.27a.27.27,0,0,0,.24.11h6a2.18,2.18,0,0,1,1.61.69,2.22,2.22,0,0,1,.69,1.62,2.17,2.17,0,0,1-.69,1.64,2.23,2.23,0,0,1-1.61.66H195.65c-.33,0-.36.13-.11.38a2.5,2.5,0,0,1,.6,1.65,2.35,2.35,0,0,1-.27,1.15c-.15.26-.28.5-.41.74a5.66,5.66,0,0,1-.47.74c-.18.26-.11.38.22.38h9.65a2.36,2.36,0,0,1,2.31,2.31,2.18,2.18,0,0,1-.69,1.61,2.22,2.22,0,0,1-1.62.69H188.74a.29.29,0,0,0-.33.33v1.7a.29.29,0,0,0,.33.33h13.55a2.34,2.34,0,0,1,2.3,2.3,2.25,2.25,0,0,1-.69,1.67,2.18,2.18,0,0,1-1.61.69H188.74a.29.29,0,0,0-.33.33V266a.29.29,0,0,0,.33.33h18.15a2.18,2.18,0,0,1,1.65.68,2.34,2.34,0,0,1,0,3.24,2.22,2.22,0,0,1-1.65.68H194.61c-.15,0-.22.06-.22.17s.07.2.22.27q3.18,1.69,6.77,3.21A60.74,60.74,0,0,0,207.82,276.87ZM180.52,248a19.39,19.39,0,0,1,1.1,1.94c.32.68.62,1.37.87,2.06a.35.35,0,0,0,.39.27h5.53a.53.53,0,0,0,.39-.16,16.16,16.16,0,0,0,2.63-3.89,2.3,2.3,0,0,1,.44-.61c.18-.25.13-.38-.17-.38H180.3c-.29,0-.33.11-.11.33A3.68,3.68,0,0,1,180.52,248Z"/><path class="cls-11" d="M268.68,265.13a2.42,2.42,0,0,1,1.81,2.36,2.29,2.29,0,0,1-2.3,2.36,2.3,2.3,0,0,1-.6-.06c-1.76-.47-3.82-1.13-6.2-2s-4.7-1.75-7-2.74a2.21,2.21,0,0,1,1.1,2v13.76a2.36,2.36,0,0,1-2.36,2.36,2.35,2.35,0,0,1-1.7-.69,2.19,2.19,0,0,1-.71-1.67V267.11a2.42,2.42,0,0,1,2.41-2.41,1.3,1.3,0,0,0-.44-.44c-1.21-.51-2.32-1-3.35-1.59s-1.95-1.06-2.79-1.54a.33.33,0,0,0-.44,0,37.48,37.48,0,0,1-4,2.3q-2.47,1.27-5.38,2.5c-1.93.82-3.89,1.59-5.86,2.3a48.19,48.19,0,0,1-5.54,1.67,1.54,1.54,0,0,1-.49.06,2.2,2.2,0,0,1-2.2-2.25,2.42,2.42,0,0,1,.55-1.56,2.59,2.59,0,0,1,1.43-.91q2.9-.76,6-1.91c2.06-.77,4.08-1.62,6-2.55s3.72-1.84,5.29-2.72c.19-.07.26-.15.22-.25s-.15-.13-.33-.13h-9.54a3.65,3.65,0,0,1-3.62-3.62v-14a3.65,3.65,0,0,1,3.62-3.62h28.29a3.53,3.53,0,0,1,2.55,1,3.43,3.43,0,0,1,1.07,2.58v14a3.45,3.45,0,0,1-1.07,2.55,3.48,3.48,0,0,1-2.55,1.07h-9.7c-.15,0-.25,0-.3.11s0,.14.08.22q2.42,1.31,5.43,2.66t6.28,2.49Q265.66,264.32,268.68,265.13Zm-28.62-.43a2.3,2.3,0,0,1,1.62.65,1.81,1.81,0,0,1,.58,1.59,17.64,17.64,0,0,1-3.49,10,18,18,0,0,1-8.8,6l-.35.08-.36,0a2.12,2.12,0,0,1-2.14-1.65c0-.11-.06-.22-.08-.33a1.66,1.66,0,0,1,0-.32,2.15,2.15,0,0,1,1.59-2.2,18.64,18.64,0,0,0,4.31-2.14,10.34,10.34,0,0,0,3.23-3.59,14.15,14.15,0,0,0,1.57-5.89,2.53,2.53,0,0,1,.79-1.59A2.39,2.39,0,0,1,240.06,264.7Zm3.68-20a.29.29,0,0,0,.33-.33v-3.13a.29.29,0,0,0-.33-.33h-10a.29.29,0,0,0-.33.33v3.13a.29.29,0,0,0,.33.33Zm.33,4.93a.29.29,0,0,0-.33-.33h-10a.29.29,0,0,0-.33.33v3.18a.29.29,0,0,0,.33.33h10a.29.29,0,0,0,.33-.33Zm4.71-5.26a.29.29,0,0,0,.33.33H259.2a.29.29,0,0,0,.33-.33v-3.13a.29.29,0,0,0-.33-.33H249.11a.29.29,0,0,0-.33.33Zm.33,4.93a.29.29,0,0,0-.33.33v3.18a.29.29,0,0,0,.33.33H259.2a.29.29,0,0,0,.33-.33v-3.18a.29.29,0,0,0-.33-.33Z"/><path class="cls-11" d="M207.49,348.6H185.18a.29.29,0,0,0-.33.33V370.7a2.17,2.17,0,0,1-.66,1.56,2.12,2.12,0,0,1-1.59.69,2.15,2.15,0,0,1-1.56-.69,2.12,2.12,0,0,1-.69-1.56v-2.41c0-.26-.12-.35-.38-.28-1.43.48-3,.95-4.8,1.4s-3.57.85-5.4,1.18-3.58.59-5.26.77a2.16,2.16,0,0,1-1.78-.58,2.33,2.33,0,0,1,1.39-4l1.87-.22,1.86-.22c.22-.07.33-.2.33-.38v-17a.29.29,0,0,0-.33-.33h-3a2.11,2.11,0,0,1-1.54-.63,2.17,2.17,0,0,1,0-3.12,2.15,2.15,0,0,1,1.54-.63h42.65a2.08,2.08,0,0,1,1.57.66,2.21,2.21,0,0,1,0,3.09A2.09,2.09,0,0,1,207.49,348.6Zm-8.28-5.7h-26a3.49,3.49,0,0,1-2.55-1,3.46,3.46,0,0,1-1.07-2.58v-9.7a3.53,3.53,0,0,1,1-2.55,3.49,3.49,0,0,1,2.58-1.07h26a3.53,3.53,0,0,1,2.55,1,3.45,3.45,0,0,1,1.07,2.58v9.7a3.49,3.49,0,0,1-1,2.55A3.42,3.42,0,0,1,199.21,342.9Zm-26.64,7.73a.29.29,0,0,0,.33.33H180a.29.29,0,0,0,.33-.33v-1.7a.29.29,0,0,0-.33-.33H172.9a.29.29,0,0,0-.33.33Zm0,6.53a.29.29,0,0,0,.33.33H180a.29.29,0,0,0,.33-.33v-1.65a.29.29,0,0,0-.33-.33H172.9a.29.29,0,0,0-.33.33Zm.33,4.55a.29.29,0,0,0-.33.33v3c0,.22.13.33.38.33,1.32-.29,2.6-.63,3.84-1s2.34-.76,3.29-1.13c.18,0,.27-.16.27-.38V362a.29.29,0,0,0-.33-.33Zm25-29.44a.29.29,0,0,0,.33-.33v-1.26a.29.29,0,0,0-.33-.33H174.38a.29.29,0,0,0-.33.33v1.26a.29.29,0,0,0,.33.33Zm-23.52,4.33a.29.29,0,0,0-.33.33v1.26a.29.29,0,0,0,.33.33H197.9a.29.29,0,0,0,.33-.33v-1.26a.29.29,0,0,0-.33-.33Zm34.05,32a2.33,2.33,0,0,1,1.07,3.84,2.06,2.06,0,0,1-1.46.6l-.3,0-.3-.09a30.89,30.89,0,0,1-5.29-2.05,28,28,0,0,1-4.91-3.1.33.33,0,0,0-.44,0,29.64,29.64,0,0,1-4.36,3,27,27,0,0,1-4.57,2,1.9,1.9,0,0,1-.36.08l-.36,0a2.09,2.09,0,0,1-1.48-.63,2.21,2.21,0,0,1-.66-1.67,2.34,2.34,0,0,1,1.65-2.31,23.31,23.31,0,0,0,3.4-1.59c1.1-.62,2.15-1.28,3.18-2a.37.37,0,0,0,0-.49,26.36,26.36,0,0,1-2.08-2.36q-1-1.26-1.86-2.58a2.24,2.24,0,0,1,.6-3.12.81.81,0,0,0-.49-.17h-1.59a2.12,2.12,0,0,1-1.59-.68,2.27,2.27,0,0,1-.66-1.62,2.11,2.11,0,0,1,.68-1.59,2.2,2.2,0,0,1,1.57-.66h16.06a2.68,2.68,0,0,1,2,.77,2.44,2.44,0,0,1,.77,1.81,3,3,0,0,1-.16,1,27.84,27.84,0,0,1-2.52,4.83,34.37,34.37,0,0,1-3.46,4.44.36.36,0,0,0,.06.49,33,33,0,0,0,3.83,2.25A24.23,24.23,0,0,0,208.43,368.56Zm-7.68-12.22c.15-.26.07-.39-.22-.39h-7.78c-.33,0-.39.11-.17.33a2.44,2.44,0,0,1,.33.38c.55.81,1.13,1.6,1.75,2.39a24.85,24.85,0,0,0,2,2.22c.11.18.25.18.44,0A25.58,25.58,0,0,0,200.75,356.34Z"/><path class="cls-11" d="M268.85,368.62a2.38,2.38,0,0,1,1.15,2.19,2.21,2.21,0,0,1-.66,1.67,2.22,2.22,0,0,1-2.79.25,85.34,85.34,0,0,0-8.89-5.32,77.47,77.47,0,0,0-8.22-3.67c-.11-.08-.26-.06-.44.05a39.89,39.89,0,0,1-9.59,5.1,65.78,65.78,0,0,1-13.77,3.4,2.57,2.57,0,0,1-2-.63,2.3,2.3,0,0,1-.88-1.84,2.35,2.35,0,0,1,.6-1.61,2.6,2.6,0,0,1,1.54-.85q11-1.38,18-5.27a.3.3,0,0,0,.17-.24c0-.09-.07-.16-.22-.2-1.57-.4-3.08-.72-4.52-1s-2.86-.42-4.25-.57a2.83,2.83,0,0,1-2-1,3,3,0,0,1-.17-3.84,33.22,33.22,0,0,0,1.9-2.88c.56-1,1.08-2,1.56-3,.14-.25.05-.38-.28-.38h-9.48a2.23,2.23,0,0,1-1.67-.71,2.32,2.32,0,0,1-.69-1.65,2.28,2.28,0,0,1,.69-1.64,2.2,2.2,0,0,1,1.67-.72h11.35q.21,0,.33-.27a25.73,25.73,0,0,0,.71-2.91c.18-1,.35-2,.49-3.07a2.63,2.63,0,0,1,.83-1.53,2.2,2.2,0,0,1,1.53-.61,2.43,2.43,0,0,1,1.87.88,2.36,2.36,0,0,1,.6,2c-.15.91-.3,1.8-.47,2.65s-.34,1.7-.52,2.5c-.07.26,0,.38.28.38h24.78a2.33,2.33,0,0,1,1.64.66,2.08,2.08,0,0,1,.72,1.59,2.5,2.5,0,0,1-.66,1.76,2.23,2.23,0,0,1-1.7.71H260c-.22,0-.35.09-.38.27a40.86,40.86,0,0,1-2.58,5.46,28.52,28.52,0,0,1-3.78,5.18c-.19.18-.17.31.05.38a61.36,61.36,0,0,1,7.71,3.65Q264.69,366,268.85,368.62ZM227,340.93a2.42,2.42,0,0,1-2.41-2.41v-4.66a3.49,3.49,0,0,1,1-2.55,3.42,3.42,0,0,1,2.58-1.07h15.57a.29.29,0,0,0,.33-.33v-3.13a2.42,2.42,0,0,1,2.41-2.41,2.36,2.36,0,0,1,1.7.69,2.29,2.29,0,0,1,.71,1.72v3.13a.29.29,0,0,0,.33.33h15.63a3.53,3.53,0,0,1,2.55,1,3.45,3.45,0,0,1,1.06,2.58v4.66a2.28,2.28,0,0,1-.74,1.7,2.36,2.36,0,0,1-1.67.71,2.39,2.39,0,0,1-1.75-.71,2.32,2.32,0,0,1-.71-1.7v-3.24a.29.29,0,0,0-.33-.33H229.65a.29.29,0,0,0-.33.33v3.24a2.38,2.38,0,0,1-.69,1.7A2.24,2.24,0,0,1,227,340.93Zm10.42,14.8c-.15.19-.08.31.22.39a82.33,82.33,0,0,1,10,2.3.45.45,0,0,0,.44-.11,25.87,25.87,0,0,0,3.51-4.09,32.31,32.31,0,0,0,2.74-4.85c.14-.25.05-.38-.27-.38H241c-.19,0-.33.13-.44.38q-.78,2-1.59,3.57T237.38,355.73Z"/><path class="cls-11" d="M297.63,327.55a60.22,60.22,0,0,1-1.78,6.55,48.93,48.93,0,0,1-2.49,6.12.71.71,0,0,0-.11.43v29.94a2.2,2.2,0,0,1-.72,1.67,2.28,2.28,0,0,1-1.64.69,2.23,2.23,0,0,1-1.67-.71,2.32,2.32,0,0,1-.69-1.65v-22c0-.14,0-.23-.14-.27s-.17,0-.24.11c-.26.29-.52.59-.8.88s-.55.58-.85.87a2,2,0,0,1-1.48.61,2.07,2.07,0,0,1-1-.25,1.72,1.72,0,0,1-.77-.74,2.64,2.64,0,0,1-.44-1.53,2.89,2.89,0,0,1,.88-2.14,28.4,28.4,0,0,0,4.25-5.7,42.56,42.56,0,0,0,3.09-6.83,50.44,50.44,0,0,0,1.92-6.94,2.35,2.35,0,0,1,.83-1.37,2.26,2.26,0,0,1,1.48-.55,2.3,2.3,0,0,1,1.75.69,2.27,2.27,0,0,1,.66,1.62A1.5,1.5,0,0,1,297.63,327.55Zm15.52,6.85c.07-.25,0-.38-.27-.38H299.06a2.35,2.35,0,0,1-2.25-2.25,2.12,2.12,0,0,1,.69-1.59,2.17,2.17,0,0,1,1.56-.66H314a.35.35,0,0,0,.33-.27c.07-.4.15-.79.22-1.18s.13-.76.16-1.12a2.56,2.56,0,0,1,.83-1.46,2.27,2.27,0,0,1,1.53-.57,2.17,2.17,0,0,1,1.76.79,2.32,2.32,0,0,1,.55,1.79l-.28,1.7c0,.21.07.32.33.32h8.72a2.07,2.07,0,0,1,1.56.66,2.46,2.46,0,0,1,.69,1.59,2.2,2.2,0,0,1-.66,1.57,2.15,2.15,0,0,1-1.59.68h-9.76a.35.35,0,0,0-.33.27c-.15.59-.3,1.17-.47,1.73s-.33,1.13-.52,1.67c-.07.26,0,.39.28.39h5.43a3.57,3.57,0,0,1,2.55,1,3.45,3.45,0,0,1,1.06,2.58v20.17a3.49,3.49,0,0,1-1,2.55,3.41,3.41,0,0,1-2.57,1.07h-14.1a3.53,3.53,0,0,1-2.55-1,3.45,3.45,0,0,1-1.06-2.58V341.7a3.49,3.49,0,0,1,1-2.55,3.41,3.41,0,0,1,2.57-1.07h3.07a.39.39,0,0,0,.39-.28c.18-.51.36-1.06.55-1.64S313,335,313.15,334.4ZM302,367.58a.29.29,0,0,0,.33.32H328a2.19,2.19,0,0,1,1.65.69,2.27,2.27,0,0,1,.66,1.62,2.3,2.3,0,0,1-.66,1.59,2.17,2.17,0,0,1-1.65.71h-27a3.65,3.65,0,0,1-3.62-3.62v-28a2.32,2.32,0,0,1,.69-1.65,2.24,2.24,0,0,1,1.67-.71,2.2,2.2,0,0,1,1.62.71,2.31,2.31,0,0,1,.68,1.65Zm7.68-22.76a.29.29,0,0,0,.33.33h11.46a.29.29,0,0,0,.33-.33v-2a.29.29,0,0,0-.33-.33H310a.29.29,0,0,0-.33.33Zm0,7a.29.29,0,0,0,.33.33h11.46a.29.29,0,0,0,.33-.33v-2a.29.29,0,0,0-.33-.33H310a.29.29,0,0,0-.33.33Zm.33,4.71a.29.29,0,0,0-.33.33v3.84a.29.29,0,0,0,.33.33h11.46a.29.29,0,0,0,.33-.33v-3.84a.29.29,0,0,0-.33-.33Z"/></g></g></svg>