<svg xmlns="http://www.w3.org/2000/svg" viewBox="0 0 838.47 466.84"><defs><style>.cls-1{fill:#fff;}.cls-2{fill:#ce9b72;}.cls-3{fill:#5ce0de;}.cls-4{fill:#231815;}.cls-5{fill:#ffdacc;}.cls-10,.cls-6{fill:#237aad;}.cls-7{fill:#f9c9ab;}.cls-11,.cls-8{fill:none;stroke-linecap:round;stroke-linejoin:round;stroke-width:2px;}.cls-8{stroke:#000;}.cls-9{fill:#1c709b;}.cls-10,.cls-11,.cls-9{stroke:#231815;}.cls-10,.cls-9{stroke-miterlimit:10;stroke-width:3px;}</style></defs><g id="Capa_2" data-name="Capa 2"><g id="レイヤー_2" data-name="レイヤー 2"><path class="cls-1" d="M327.85,233.63l1.91-28.31s-60.25-73.1-63.88-77.06-48-34.57-49.83-34.46S172.6,124.29,169,126.06s-50.29,60-50.29,60l-10.94,32.06-1.77,10,15.26,18.64s4.81,9.88,10.11,14.08c-9.88,4.64-19.46,10.56-19.46,10.56l27.91,11.94-2.42-20.4s23,14,24.42,18.09,43.87,28.66,43.87,28.66l-2.78,27.6-20.34,14.1-5.41,105,6.74,5.8,13,3.66,53.48-8.14L298,462.44l14.25-1.71L328.8,448l-8-21.56-21-47.72s.73-15.95-4.51-25.29-20.11-33.58-26.21-38.5L262.92,310s28.58-1.91,36.81-13.49c9.38,1.74,26.27,5.33,26.27,5.33l-3.65-31,12.07-31.59Z"/><path class="cls-1" d="M49.9,62S35.29,66.11,32.74,83.57C28.78,65.4,15,62,15,62s15.24-1.63,17.76-24C33.7,59.35,49.9,62,49.9,62Z"/><path class="cls-2" d="M128.07,214.7l.86.3a.92.92,0,0,1,.38.29l-.19,0C128.61,215.36,128.4,214.93,128.07,214.7Z"/><path class="cls-2" d="M128.07,214.7a3.08,3.08,0,0,0-.54-.14A.72.72,0,0,1,128.07,214.7Z"/><path class="cls-2" d="M88.2,178.86c0,.44.41.85.44,1.28s-.42.9-.39,1.33.61.82.66,1.25.23.84.29,1.27-.63,1-.57,1.39-.16.92-.08,1.35.24.86.33,1.28.64.76.73,1.18.34.78.44,1.24-.2.93-.09,1.38.23.84.34,1.28.62.75.73,1.19.34.81.46,1.25-.14.94,0,1.37.4.8.52,1.22-.13,1,0,1.39.26.85.4,1.26.84.64,1,1.06-.17,1,0,1.41.27.85.45,1.25.16.92.36,1.31.62.68.83,1c.3.61.29.61.57,1.23s0,.75.26,1.36.63.46.9,1.07.94.31,1.22.93-.25.85,0,1.45-.12.79.16,1.4,1.17.21,1.45.82-.49,1-.22,1.57.66.44.94,1-.13.79.15,1.4.15.67.43,1.28.3.61.59,1.21c.23.38,1.23.33,1.45.69s.31.84.54,1.2.31.84.54,1.19,0,1,.28,1.38.86.48,1.11.82.32.85.57,1.19.48.74.74,1.07,1.08.26,1.34.58.44.77.71,1.08.6.65.88,1,.27,1,.55,1.25.88.39,1.17.68.52.76.8,1,.63.71.9.94c.67.54.75,1.26.83.62s-.07-.63-.27-1.36c-.26-.23-.46-.3-.76-.59s-.17-.85-.46-1.15c.06-.09.07.17.13.07.6-.08.59-.06.95-.55s.1-.48,0-1.13.08-.67,0-1.32-.1-.64-.19-1.28-.32-.61-.22-1.25c.4,0,.35-.54.66-.8s.24-.27.46-.63c-.16-.41.55-.81.49-1.2a4.8,4.8,0,0,1-.12-1.17,4.93,4.93,0,0,1,.26-1.15c.13-.39-.3-1.05-.08-1.41s1.18-.16,1.45-.48A8.09,8.09,0,0,1,117,220c.3-.28,0-1.23.31-1.48.13-.21.57-.16.72-.32.1,0,0,0,.11,0a12.22,12.22,0,0,1,1-.66c.37-.22,1.06.16,1.44,0s.64-.65,1-.83.6-.83,1-1,1,.14,1.39,0,.78-.43,1.17-.55l0,0c-.37,0-.1-.1-.39-.33.3-.4.59-.13.89-.53s.15-1.38.45-1.78c.57-.18.69.14,1.29.1s.65.66,1.25.62.58-.24,1.18-.28.58-.26,1.18-.31.62-.43,1.18-.24c-.27.4-.8.66-1.08,1.06s-.4.61-.68,1c-.65.18-.64.7-1.18.84a2.16,2.16,0,0,0,.64.64c.39.17.62.6,1,.81s1.11-.2,1.46,0,.36,1,.69,1.23.86.3,1.16.55.57.72.83,1c.57.52.44.57,1,.82.1,0,0-.37.06-.44.34-.31,1.19,0,1.53-.34s.05-1.3.39-1.6.86-.39,1.2-.69,1.08-.14,1.42-.44.54-.75.88-1,.86-.45,1.21-.74a12.09,12.09,0,0,0,.83-1.05c.23-.28-.18-1.2.14-1.58s1-.26,1.32-.62.71-.51,1-.86.48-.72.77-1.07-.06-1.17.23-1.51.77-.49,1.06-.83.78-.48,1.07-.82.54-.67.83-1l.84-1,.82-1c.28-.34.72-.54,1-.88s0-1.11.32-1.45.74-.52,1-.85.69-.56,1-.9.54-.7.82-1,.73-.53,1-.87.13-1,.41-1.37,1-.28,1.31-.62.71-.54,1-.88.5-.72.79-1,.3-.89.58-1.22.66-.59.94-.92.07-1.08.35-1.41,1-.32,1.25-.65.12-1,.4-1.37,1.09-.23,1.37-.56.53-.7.81-1,.77-.49,1-.82.45-.77.73-1.09.76-.52,1-.84.22-1,.5-1.3.7-.55,1-.88.39-.83.67-1.14.67-.6.94-.92.64-.63.91-.94.52-.75.79-1.06.63-.66.89-1,1-.31,1.26-.66.49-.73.76-1.1-.08-1.12.17-1.49.86-.47,1.1-.85.12-.95.35-1.33.7-.6.93-1,0-1,.17-1.41,1-.46,1.17-.85.23-.87.44-1.26.26-.86.46-1.25.21-.88.41-1.27.58-.68.79-1.07.66-.65.86-1,0-1,.24-1.35.64-.65.83-1,.66-.65.86-1-.14-1.07.06-1.45.6-.69.8-1.07.57-.7.77-1.07.32-.83.53-1.21,1.08-.4,1.29-.76-.43-1.31-.21-1.66,1.37-.18,1.6-.52-.1-1.17.15-1.5a12.9,12.9,0,0,1,.82-1.05c.35-.36.62-.87.94-1.07s1.19.25,1.55-.16.49-.69.77-1.08.35-.78.61-1.17.65-.6.89-1,.22-.86.45-1.25.09-.93.32-1.31,1-.41,1.23-.8-.46-1.23-.24-1.62.83-.52,1-.91.86-.51,1.06-.9-.18-1.07,0-1.46.42-.75.62-1.14.46-.73.66-1.11.14-.9.34-1.29.79-.57,1-1,.78-.58,1-1-.28-1.1-.08-1.49.34-.8.53-1.19.46-.73.65-1.12.25-.84.44-1.23.57-.68.76-1.06.54-.7.72-1.09-.14-1,.05-1.41,1-.46,1.21-.84.64-.65.83-1-.17-1,0-1.43.51-.72.69-1.1.32-.82.49-1.2.81-.59,1-1-.29-1.1-.12-1.48.48-.74.65-1.12.16-.9.33-1.27.4-.79.57-1.16.57-.73.73-1.08.33-.87.48-1.2c.35-.76,0-1.13.61-1s.62,0,1,.39.4.38.82.75.16.75.72.76a1.49,1.49,0,0,0,1.21-.31c.52-.35.39-.55.9-.89s.3-.92.91-1.06.25.69.58,1.44c.15.33,0,.88.18,1.33s1,.42,1.23.84.19.82.38,1.23.63.62.82,1,.36.75.55,1.15-.61,1.23-.41,1.63,1.1.4,1.3.79.54.66.74,1,.42.74.62,1.12.27.82.47,1.2.18.87.38,1.26,0,.93.26,1.32.51.7.71,1.08.81.54,1,.92-.18,1.07,0,1.46.71.59.92,1,.52.7.73,1.08.35.78.57,1.16.24.86.46,1.24.3.83.52,1.2,1.09.36,1.31.73l.65,1.11c.22.37.54.68.76,1.05s-.4,1.25-.17,1.62.59.64.82,1,.43.75.66,1.11.54.68.77,1,.74.54,1,.9.19.91.43,1.27,1.08.3,1.32.66.21.9.45,1.26.9.41,1.15.77.5.69.75,1-.22,1.21,0,1.56.52.69.78,1,.56.65.82,1,.62.61.88.95.31.85.58,1.19,1,.29,1.28.63-.07,1.15.2,1.49.65.58.92.92.8.45,1.08.78.47.73.75,1.06.94.32,1.22.64.69.54,1,.86.4.8.69,1.12.11,1.08.41,1.39,1.06.18,1.36.48.51.72.82,1,.87.34,1.18.64.6.61.91.9.69.52,1,.8.57.65.89.94.27,1,.6,1.28.41.85.74,1.13,1,.19,1.3.47.44.82.78,1.09.79.39,1.13.65.73.47,1.07.73.9.24,1.24.49.52.75.86,1,1.09,0,1.44.22.27,1.11.63,1.35.69.52,1.05.76,1,.07,1.34.31.39,1,.75,1.21,1.14-.18,1.5,0,.39,1,.75,1.23.64.6,1,.82l1.1.67c.37.22.93.12,1.3.34s.6.68,1,.89,1-.1,1.41.1.75.44,1.12.64.56.76.93,1,.8.33,1.17.52.58.77,1,1,1,0,1.34.22,1,0,1.34.17.45,1.07.83,1.25.94.05,1.32.23.61.75,1,.92.87.21,1.24.38,1,0,1.34.13,1,0,1.34.11.56,1,.92,1.12,1-.05,1.35.08c.78.3.64.23,1.07.71a5,5,0,0,1,.74,1.08c.36.56.1.73.46,1.29s.77.29,1.13.85-.16.88.19,1.44.8.27,1.15.82.69.35,1,.9-.44,1.06-.08,1.62.55.43.91,1,.75.3,1.1.86.48.47.83,1,.25.62.6,1.18-.13.86.22,1.41.53.45.88,1,.76.29,1.12.84.33.57.69,1.12-.11.85.25,1.4.88.21,1.23.76-.12.86.24,1.41.88.22,1.23.77-.36,1,0,1.57.21.64.56,1.19.63.39,1,.94.65.36,1,.92.07.74.42,1.29.81.26,1.17.81-.36,1,0,1.56.74.31,1.09.86.48.47.83,1,0,.77.36,1.32.55.43.91,1,.56.43.91,1-.22.91.14,1.47.42.5.77,1,.35.56.7,1.11,1.11,0,1.48.59c.3.37.35.88.64,1.25s.39.89.69,1.25.46.75.79,1.11a5.76,5.76,0,0,1,.45,1.17c.13.62-.22.69-.09,1.31s.76.49.88,1.11-.42.73-.3,1.35-.13.66,0,1.27.07.63.19,1.25.44.55.56,1.16.68.54.75,1.16-.48.7-.46,1.35.38.65.4,1.3-.42.67-.4,1.33,0,.65.07,1.3.42.64.44,1.29.4.64.42,1.29-.84.68-.82,1.33.37.64.39,1.29.31.65.33,1.3-.49.66-.47,1.31.67.63.69,1.29-.94.82-.7,1.43c.41-.09,1.25,0,1.66-.11s.69-.66,1.09-.8.64-.69,1-.85,1.16.53,1.55.35.62-.68,1-.88.53-.79.9-1,.87-.19,1.23-.42.73-.43,1.08-.67.7-.48,1.05-.74.74-.42,1.08-.69l.4,1.43-.37-1.44c.34-.24.92-.2,1.24-.47s.2-.54.23-.88q.4-.37.9-.87a1.21,1.21,0,0,0,.54-.24A1,1,0,0,0,341,246c.41-.42.86-.88,1.34-1.39l.09-.06c.29-.31,1-.2,1.32-.52s.13-.83.23-1.21c.45-.5.9-1,1.38-1.57a1.3,1.3,0,0,0,.71-.31c.27-.33.52-.88.78-1.22a1.45,1.45,0,0,0-.26.07c.82-1,1.68-2.1,2.57-3.26a.6.6,0,0,0,.56-.17,6.51,6.51,0,0,0,.39-1.1c.14-.19.27-.38.41-.56a4.5,4.5,0,0,0,.59-.65,1.93,1.93,0,0,0,.18-.44C363.74,216,378.69,184,367.44,139.8c-35.6-77.27-85.65-90.76-95-94.32s-50-5.86-77.32,16c-23.82-5.07-52.8-10.84-83.78,37.67-7.2,11.29-10.8,19.64-12.07,25.81-.07.14-.15.28-.21.42-.16.4-.43.77-.59,1.18s-.32.82-.47,1.22.49,1.09.35,1.51-.38.81-.52,1.23-.48.76-.62,1.18-.64.72-.77,1.13-.33.82-.46,1.24-.28.83-.41,1.24.28,1,.15,1.42-.53.75-.66,1.17-.69.7-.82,1.12.17,1,0,1.37-.41.79-.53,1.2-.15.87-.26,1.29.3,1,.18,1.41-1.06.62-1.17,1-.38.8-.49,1.22.42,1,.32,1.43-.19.85-.29,1.27.07.91,0,1.33-.43.79-.53,1.21-.59.75-.69,1.17.33,1,.24,1.39-.08.88-.17,1.3-.37.81-.45,1.24,0,.88-.11,1.3-.06.88-.14,1.3-.07.87-.14,1.29-1.1.71-1.17,1.14-.1.87-.16,1.3.44.94.39,1.37.27.9.22,1.33-.94.77-1,1.2.42.92.38,1.34-.5.84-.53,1.27-.36.85-.39,1.28.34.89.32,1.32-.06.87-.07,1.3.68.88.68,1.31-.59.86-.59,1.29-.38.88-.37,1.3S88.18,178.43,88.2,178.86Zm240,73.14c.79-.29.71,0,1.55.05-.56.1-1.27.41-1.83.51C327.79,252.5,327.8,252.15,328.21,252ZM229.43,120s0-.41,0-.43a1.07,1.07,0,0,1,.27,0C229.66,119.81,229.58,120,229.43,120ZM132.7,145.41s.42,0,.45,0a.56.56,0,0,1-.07.23C132.89,145.56,132.7,145.48,132.7,145.41ZM97.6,149c0,.17-.15.33-.32.5,0-.13,0-.26,0-.4S97.59,149,97.6,149Z"/><path class="cls-3" d="M309.09,372.5s24.49,23.81,25.29,52.39-11.88,36-11.88,36l-10.27-.18-1-.18s7.1-2.83,9.13-5.7,6-9.47,4.66-14.71-6.85-15.81-6.85-15.81l-14.76-23.72-9.64-13.95a49.59,49.59,0,0,0,2.55-5.43,38.28,38.28,0,0,0,1.5-9.08c-.06-2-2.06-16.29-2.06-16.29Z"/><path class="cls-3" d="M216.11,452.35c-.34.34-1.35,0-1.68.35s-.31,1-.63,1.38-.49.86-.81,1.2-.88.5-1.19.84-.79.59-1.1.94-.57.78-.87,1.13-.45.88-.74,1.23-.47.86-.75,1.22-1.18.32-1.45.68-.21,1.08-.46,1.44-.52.85-.77,1.2-.9.64-1.11,1c-.5.79-1,.72-.28.93s.54.06,1.25,0,.73.55,1.44.53l1.41-.05c.71,0,.71-.1,1.41-.12s.71.27,1.41.24.67-.9,1.38-.93.72.41,1.42.38.72.38,1.43.35.68-.51,1.38-.54.69-.31,1.39-.34.74.81,1.44.78.7-.15,1.4-.18.67-.78,1.37-.8.73.74,1.43.71.7,0,1.4,0,.7-.18,1.4-.21.69-.34,1.39-.36.69-.42,1.39-.44.73.7,1.44.68.67-.75,1.37-.77.7,0,1.4,0,.72.32,1.42.29.72.41,1.42.38.7,0,1.41,0,.69-.12,1.39-.15.71.09,1.41.06.68-.55,1.38-.58.7.11,1.4.08.71.14,1.41.12.7,0,1.41,0,.7.1,1.4.07.7-.09,1.4-.12.66-.91,1.36-.94.71.09,1.4.07.7-.08,1.4-.11.71.26,1.41.23.69-.18,1.39-.21.69-.24,1.39-.27.73.66,1.43.63.7.1,1.4.07.68-.63,1.38-.66.69-.16,1.39-.18.7,0,1.4,0,.71.31,1.41.28.7.06,1.4,0,.7,0,1.39,0,.71.37,1.41.34.68-.34,1.38-.37.68-.5,1.38-.52.72.54,1.42.51.68-.45,1.38-.48.72.46,1.42.44.71.09,1.41.06.67-.73,1.37-.76.69-.1,1.39-.12.72.28,1.42.26.68-.55,1.38-.58.71.3,1.41.27.72.61,1.42.58.71,0,1.41,0,.68-.45,1.38-.48.7.2,1.4.17.67-.8,1.37-.83.71.2,1.41.17.71.24,1.41.21.7.06,1.4,0,.69-.23,1.39-.26.72.5,1.42.47.66-.92,1.36-1,.72.49,1.42.46.7,0,1.4,0,.71.2,1.41.17.7.06,1.4,0,.68-.46,1.38-.49.72.19,1.37-.07-.36-.24-.92-.94c-.24-.31-.19-1-.52-1.39s-1.21-.19-1.53-.59-.15-1-.45-1.44-.71-.61-1-1-.23-1-.52-1.38-.54-.76-.83-1.14-.92-.48-1.21-.86-.24-1-.53-1.37-.81-.56-1.1-.94-.53-.77-.82-1.15-.43-.85-.71-1.23-.49-.8-.77-1.19-.45-.84-.72-1.22-1.2-.3-1.48-.69-.53-.78-.8-1.16,0-1.17-.25-1.56-.59-.73-.85-1.12-.45-.83-.71-1.22-1-.47-1.25-.87.12-1.2-.14-1.59-1-.46-1.27-.85-.25-.95-.49-1.35-.27-.94-.51-1.34-.42-.84-.66-1.24-1-.49-1.28-.89-.05-1.06-.27-1.46-.92-.58-1.14-1-.31-.91-.52-1.32-.31-.91-.5-1.33-.72-.73-.9-1.15-.2-.92-.39-1.36.23-1.11.05-1.55-.73-.72-.91-1.16-.43-.84-.61-1.28-.58-.78-.77-1.22,0-1-.16-1.48-.87-.66-1.05-1.1-.49-.83-.67-1.27-.34-.89-.52-1.33-.4-.86-.59-1.3-.17-.95-.35-1.39.15-1.08,0-1.52-.62-.77-.8-1.2-.15-1-.33-1.39-.78-.7-1-1.13.23-1.13.06-1.56-.42-.86-.6-1.29-.24-.93-.42-1.36-.71-.74-.89-1.16-.09-1-.26-1.43-.62-.78-.79-1.2-.27-.94-.44-1.35-.33-.92-.5-1.33-.95-.68-1.11-1.07,0-1.1-.15-1.47c-.35-.83.06-.79-.2-1.44s-.19-.69-.45-1.34-.53-.55-.8-1.21-.78-.44-1-1.09-.08-.73-.35-1.38.24-.85,0-1.5-.51-.55-.78-1.2-.75-.46-1-1.11.39-.92.13-1.57-.93-.38-1.2-1,.43-.93.16-1.58-.36-.61-.62-1.26-.8-.43-1.07-1.08.08-.78-.19-1.43-.57-.52-.84-1.17.51-1.08.12-1.66-.55-.55-1-1-1,0-1.44-.5-.13-.71-.81-.7-.78-.2-1.27.3-.11.87-.61,1.36-.5.49-1,1-.52.46-1,1-.5.47-1,1-.81.18-1.3.67-.22.75-.66,1.29a2.84,2.84,0,0,0-.76,1.18c-.15.36.15,1-.06,1.5s-.17.9-.36,1.37-1.22.47-1.41.93-.39.83-.58,1.28,0,1-.22,1.43.09,1-.1,1.49-.58.76-.77,1.2-.61.75-.79,1.19-.05,1-.24,1.43-.95.61-1.13,1.05,0,1-.22,1.44-.74.7-.93,1.14.3,1.15.12,1.58-1,.58-1.23,1,.07,1.05-.12,1.49-.33.88-.52,1.32-.36.87-.55,1.31-.3.89-.49,1.33-.36.87-.55,1.31-.36.87-.55,1.31-.16,1-.35,1.39-.49.82-.68,1.25-.69.73-.89,1.16-.16,1-.35,1.4-.09,1-.28,1.43-.92.62-1.11,1.05-.41.85-.6,1.28-.4.86-.59,1.29-.61.76-.8,1.19.13,1.09-.07,1.52-.36.87-.56,1.3-.71.7-.91,1.13.06,1.06-.14,1.49-.63.74-.83,1.16-.53.79-.72,1.21,0,1-.24,1.45-1.24.45-1.44.87-.17,1-.37,1.39-.53.79-.73,1.21-.26.92-.46,1.34-.65.72-.85,1.14.11,1.1-.1,1.52-.66.72-.87,1.13l-.64,1.25c-.21.42-.65.72-.86,1.13s-.36.88-.58,1.29-.19,1-.41,1.37-.38.87-.6,1.28-.9.58-1.12,1-.09,1-.32,1.43-.19,1-.42,1.38-.61.74-.85,1.13-.23,1-.46,1.37-1.29.31-1.54.69-.15,1-.4,1.41-.66.69-.93,1.05-.8.57-1.08.91a13.51,13.51,0,0,1-.85,1.06C216.18,451.07,216.44,452,216.11,452.35Zm57.13-47.24.69,0c0-.06-.11.07-.09,0S273.23,405.07,273.24,405.11Zm11.08,28.33c0-.22.23-.25.23-.48.23-.11.46.14.69,0a3.82,3.82,0,0,0-.49-.7C284.5,432.63,284.58,433.11,284.32,433.44Zm-32.73-45.28c-.42.13-.75-.59-1.18-.46,0-.33-.17-.12-.16-.45.61-.15.61.16,1.23.17s.61.28,1.23.32c0,0-.14-.83-.14-.79C252.15,387.09,252,388,251.59,388.16ZM224.36,465c.27-.35.19-.94.46-1.29s.42-1,.69-1.33c.63-.18.72.1,1.37.06s.76-.53,1.39-.39c0,.38-.65,1.13-.67,1.51s.47.72.45,1.1c-.86.24-.88-.06-1.76,0-.58,0-.57-.31-1.15-.32s-.57.1-1.15.07C224,464.34,224.36,465,224.36,465Zm-12.59,0c0-.39.11-1.08.1-1.47a3.89,3.89,0,0,1,1.4-.41c.69-.05.76.88,1.45.83s.66-.72,1.33-.54c0,.46-.09.63-.11,1.09-.68.2-.63-.32-1.34-.33s-.7.08-1.41.06C212.76,464.17,212.18,464.85,211.77,464.94Z"/><path class="cls-2" d="M81.49,362.64c.13-.46-.19-1.05-.06-1.48s.7-.78.83-1.21.23-.94.36-1.35.48-.9.6-1.28a3.79,3.79,0,0,0,.17-1.44,1.72,1.72,0,0,1-.09-1.38c.12-.35.49-.69.65-1.17s.19-.82.34-1.27.69-.67.84-1.1,0-.91.16-1.35.74-.67.88-1.1c.22-.63-.2-.5.12-1.37.13-.35-.12-.92.07-1.42s.88-.57,1.07-1,0-.95.14-1.4.28-.84.46-1.28,1-.56,1.18-1,.15-.95.39-1.38,0-1,.29-1.46.84-.56,1.1-1,.52-.76.79-1.16.55-.75.82-1.14.8-.57,1.08-.95.28-.94.56-1.32.69-.64,1-1,.29-1,.58-1.32.6-.72.89-1.09.67-.65,1-1,.27-1,.57-1.35.57-.75.87-1.11.56-.76.86-1.12,1-.35,1.34-.71.84-.51,1.15-.87.22-1,.53-1.39,1-.36,1.31-.71.49-.82.8-1.17.3-1,.61-1.34.68-.65,1-1l1-1c.31-.35.44-.87.76-1.22s.77-.56,1.09-.91.63-.7,1-1,.53-.79.85-1.13,1.14-.23,1.46-.57.11-1.19.44-1.53.77-.57,1.09-.91,1.1-.26,1.42-.59.64-.7,1-1,.52-.8.85-1.13.59-.75.92-1.09.6-.73.93-1.06.58-.75.91-1.08.55-.8.88-1.12,1.18-.14,1.51-.46.69-.65,1-1l1-1c.35-.33.12-1.25.46-1.57s1.2-.11,1.54-.42.38-1,.72-1.3.7-.64,1-.95,1-.35,1.31-.64.86-.46,1.21-.75.33-1.1.67-1.38.78-.6,1.12-.86,1.08-.18,1.41-.41.43-1,.81-1.26.66-.67,1-.91,1-.1,1.41-.33.85-.37,1.24-.6.85-.36,1.24-.58.6-.8,1-1,.85-.37,1.24-.58.84-.41,1.23-.62.9-.27,1.29-.48.77-.51,1.16-.71.62-.85,1-1,1.18.25,1.55.07.69-.83,1-1c.78-.37.49-.56,1.11-.83.42-.18,1-.14,1.42-.28s1,.15,1.45.05.9-.1,1.37-.15.9-.43,1.37-.45.92.34,1.39.36,1-.66,1.45-.61.92.36,1.38.44.95.14,1.4.25,1,0,1.45.15.75.72,1.17.91a14.1,14.1,0,0,1,1.3.55c.53.33.61.21,1.14.54s.4.55.93.88.56.29,1.09.62.65.8,1,1.12,1.19.31,1.48.7a3.81,3.81,0,0,1,1,2.94c.06.49-.49,1-.56,1.46s.31,1.09.12,1.56-.78.68-1.08,1.1-.25,1.08-.63,1.43-.4.29-1.06.91c-.28.27-.53.69-.92,1.06s-.72.53-1.09.88-.89.37-1.24.72-.4.9-.75,1.23-1,.32-1.31.66-.37.94-.71,1.27l-1,1c-.33.32-1,.33-1.31.66l-1,1c-.32.32-.59.71-.93,1s-.8.51-1.14.84-.23,1.08-.56,1.41-.88.44-1.21.77-.88.43-1.22.76-.41.89-.74,1.22-.41.9-.73,1.23l-1,1c-.32.33-.59.72-.92,1.05s-.69.62-1,1-1.14.18-1.47.52-.53.78-.85,1.12-.57.74-.89,1.08-.76.57-1.08.91-.47.84-.79,1.18-.81.53-1.13.86-.46.86-.78,1.2-1,.38-1.29.72l-1,1c-.32.34,0,1.23-.37,1.57s-.69.64-1,1-.8.54-1.12.88-.44.87-.75,1.21-1,.32-1.36.66-.75.6-1.05.95-.23,1-.53,1.39-.48.83-.78,1.18-.77.58-1.06.93-.59.74-.89,1.1-.75.6-1,1-.79.58-1.07.94-.47.84-.74,1.2-.15,1.07-.41,1.44-1,.44-1.28.81-.68.71-.92,1.09-.26,1-.47,1.35,0,1.09-.14,1.48-.57.77-.76,1.18-.72.72-.9,1.13-.34.89-.53,1.3-.6.77-.78,1.18-.07,1-.25,1.41-.23.95-.41,1.35-.38.88-.56,1.28-.42.87-.59,1.26-.38.91-.54,1.28-.67.83-.8,1.16c-.42,1-.58.55-.78,1.21-.14.49-.28.92-.45,1.36a12,12,0,0,1-.71,1.23,11.19,11.19,0,0,1-.52,1.33c-.3.44-.26,1.12-.57,1.42a3.49,3.49,0,0,1-1.38.61,1.46,1.46,0,0,1-1.32-.22,4.73,4.73,0,0,0-1.55-.81c-.57-.05-1.17.45-1.61.71a2.3,2.3,0,0,0-1,1.25c-.16.48-.54.51-.78.69s-.27.32-.64,0-.66-.31-.87-.74a7.15,7.15,0,0,0-.6-1.34,4.49,4.49,0,0,0-1.18-.87c-.47-.29-.89,0-1.28.16-1,.28-1.9.27-2,.4s-.43.32-.49.23-.3.07-.89.25c-.34.1-.72-.44-1.1-.78a2.72,2.72,0,0,1-.56-1c-.23-.51-.93-.53-1.4-.54a1.67,1.67,0,0,0-1.24.5c-.32.3-.93.18-1.45.36s-.82.9-1.33.95-1-.57-1.46-.67-.93.27-1.53.41c-.43.1-.82.5-1.33.69s-.8.51-1.28.73-1,.12-1.46.37-1,.31-1.4.58-1,.29-1.43.59-.65.87-1,1a3.24,3.24,0,0,1-1.39.48,1.28,1.28,0,0,1-1-1c-.11-.37.21-.83.29-1.42A6.73,6.73,0,0,1,81.49,362.64Z"/><path class="cls-4" d="M140.78,302.5a14.48,14.48,0,0,0-3.31,3.46c-1,1.25-1.93,2.51-2.86,3.79-1.86,2.57-3.67,5.17-5.32,7.88s-3.24,5.47-4.67,8.3a38.81,38.81,0,0,0-3.52,8.86.82.82,0,0,0,1.48.64v0c1.74-2.64,3.06-5.44,4.53-8.18s3-5.43,4.63-8.08,3.26-5.3,5-7.86q1.32-1.94,2.7-3.81a19.4,19.4,0,0,0,2.53-3.93v0a.83.83,0,0,0-.46-1.09A.86.86,0,0,0,140.78,302.5Z"/><path class="cls-4" d="M248.69,312.42c-4.6-.78-9-.27-13.52-.71l-3.36-.18-3.33-.47a64.09,64.09,0,0,1-6.63-1.1c-2.18-.53-4.39-.92-6.54-1.56l-6.42-2-6.27-2.46c-2.06-.87-4.08-1.87-6.13-2.79a130.72,130.72,0,0,1-22.78-14.4,241.17,241.17,0,0,1-20-18.25l0,0a1.62,1.62,0,0,0-2.52,2c5,8,11.72,14.82,19.06,20.67A123.65,123.65,0,0,0,194,306.34a101.27,101.27,0,0,0,26.87,8.84,68.83,68.83,0,0,0,7,1l3.52.42,3.55.11,3.54.12c.59,0,1.18.05,1.77,0l1.77-.14a43.46,43.46,0,0,0,7-1.13,1.63,1.63,0,0,0,1.16-2,1.61,1.61,0,0,0-1.3-1.19Z"/><path class="cls-4" d="M322.67,232.59c.5,4.26,1.39,8.57,1.6,12.89a49.33,49.33,0,0,1-1.06,12.89,51.42,51.42,0,0,1-11.7,22.78A81.3,81.3,0,0,1,291,297.48,238.8,238.8,0,0,1,266.88,309h0a1.62,1.62,0,0,0,.9,3.09c9.2-1.52,17.91-5.13,26-9.67a97.54,97.54,0,0,0,11.75-7.73,74.27,74.27,0,0,0,10.33-9.74,55.18,55.18,0,0,0,12.54-25.48,54.63,54.63,0,0,0,.87-14.26c-.38-4.75-1-9.51-3.65-13.81a1.63,1.63,0,0,0-3,1Z"/><path class="cls-4" d="M320,269.77a5,5,0,0,0,.29,2.07c.16.64.48,1.18.68,1.8l.59,1.88.48,1.94c.58,2.61,1.08,5.28,1.42,8s.63,5.41.77,8.14.17,5.47.07,8.19l1.14-.81c-4.17-1.41-8.29-2.95-12.45-4.38-2.07-.74-4.16-1.41-6.27-2.05a14.21,14.21,0,0,0-6.59-1,.4.4,0,0,0-.35.45.41.41,0,0,0,.13.25,14.43,14.43,0,0,0,6,3c2.09.67,4.19,1.31,6.31,1.9,4.23,1.2,8.49,2.3,12.72,3.52h0a.86.86,0,0,0,1.06-.58,1,1,0,0,0,0-.24c0-2.78-.06-5.53-.13-8.29s-.17-5.53-.36-8.3a65.3,65.3,0,0,0-1.1-8.3l-.49-2.07-.67-2a15.65,15.65,0,0,0-.9-2,4,4,0,0,0-1.81-1.48.42.42,0,0,0-.55.24.27.27,0,0,0,0,.12Z"/><polygon class="cls-5" points="278.04 270.03 278.09 271.07 278.35 272.08 278.65 273.07 278.89 274.09 279.35 275.03 279.79 275.97 280.45 276.78 281.01 277.65 281.7 278.42 282.39 279.2 283.23 279.81 284.04 280.46 284.92 281 285.81 281.53 286.74 282 287.75 282.25 288.72 282.63 289.75 282.8 290.79 282.81 291.82 282.93 292.86 282.9 293.88 282.72 294.92 282.63 295.93 282.38 296.92 282.05 297.87 281.62 298.76 281.1 299.61 280.5 300.49 279.95 301.27 279.26 301.96 278.5 302.64 277.72 303.32 276.93 303.89 276.06 304.34 275.13 304.73 274.17 305.14 273.22 305.42 272.22 305.54 271.19 305.79 270.17 305.76 269.13 305.75 268.09 305.57 267.07 305.41 266.04 305.24 265.01 304.78 264.07 304.49 263.07 303.95 262.17 303.35 261.33 302.82 260.43 302.06 259.71 301.42 258.89 300.56 258.3 299.79 257.6 298.91 257.04 297.94 256.65 297.03 256.16 296.07 255.76 295.04 255.59 294.04 255.28 293 255.28 291.96 255.22 290.93 255.21 289.88 255.26 288.86 255.44 287.89 255.85 286.91 256.18 285.91 256.47 285 256.98 284.1 257.51 283.33 258.21 282.51 258.85 281.73 259.54 281.06 260.34 280.51 261.21 279.88 262.05 279.41 262.97 279.05 263.95 278.69 264.91 278.3 265.88 278.11 266.91 278 267.95 277.95 268.99 278.04 270.03"/><polygon class="cls-5" points="169.09 265.25 169.16 266.29 169.37 267.31 169.67 268.31 169.94 269.31 170.39 270.25 170.84 271.19 171.38 272.08 172.05 272.88 172.67 273.71 173.5 274.36 174.22 275.1 175.05 275.73 175.96 276.23 176.83 276.81 177.8 277.17 178.8 277.46 179.76 277.88 180.8 277.97 181.82 278.18 182.86 278.24 183.9 278.14 184.94 278.03 185.95 277.81 186.97 277.6 187.95 277.26 188.92 276.87 189.79 276.31 190.72 275.83 191.54 275.19 192.28 274.46 193.11 273.82 193.73 272.98 194.41 272.19 194.85 271.25 195.45 270.39 195.83 269.42 196.16 268.44 196.53 267.46 196.64 266.42 196.84 265.4 196.88 264.36 196.74 263.32 196.67 262.29 196.4 261.28 196.21 260.26 195.93 259.26 195.46 258.33 194.95 257.43 194.39 256.56 193.88 255.64 193.1 254.94 192.43 254.15 191.68 253.43 190.77 252.91 189.97 252.24 189 251.84 188.08 251.37 187.08 251.07 186.08 250.81 185.07 250.59 184.05 250.38 183 250.43 181.97 250.47 180.94 250.58 179.92 250.78 178.92 251.03 177.94 251.38 176.99 251.8 176.07 252.26 175.22 252.85 174.31 253.36 173.51 254.03 172.75 254.74 172.15 255.6 171.47 256.39 170.94 257.29 170.39 258.17 170.01 259.14 169.73 260.14 169.44 261.13 169.21 262.15 169.13 263.18 168.98 264.22 169.09 265.25"/><path class="cls-4" d="M231.47,98.71a5.56,5.56,0,0,0-1.71,4.6,34,34,0,0,0,.16,4.73c.4,3.14,1.05,6.21,1.71,9.24,1.32,6,2.53,12.21,5.16,17.89.61,1.44,1.41,2.78,2.11,4.17l1.11,2c.41.66.85,1.3,1.27,2l2.52,3.91c.93,1.25,1.84,2.5,2.73,3.77.46.63.89,1.27,1.31,1.93s.91,1.26,1.33,1.93c.86,1.3,1.7,2.65,2.63,3.92a17.4,17.4,0,0,0,3.33,3.31,11.82,11.82,0,0,0,4.34,2.17.62.62,0,0,0,.75-.46.69.69,0,0,0,0-.32l0,0c-1-3.41-3.28-5.33-5.5-7.37-1.09-1-2.28-2-3.44-3-.58-.49-1.15-1-1.69-1.54s-1-1.16-1.43-1.77q-1.4-1.78-2.74-3.63l-2.31-3.91c-.38-.65-.77-1.3-1.13-2l-1-2.05c-.64-1.37-1.4-2.68-2-4.08-2.42-5.5-4.71-11.19-5.52-17.22a50.52,50.52,0,0,1-.26-9c.1-1.5.12-3,.2-4.47a16.3,16.3,0,0,0,0-2.21,5.48,5.48,0,0,0-.9-2.34l-.05-.07a.68.68,0,0,0-1-.18A.18.18,0,0,0,231.47,98.71Z"/><path class="cls-4" d="M272,107.48c-1.09,2-.77,3.77-.42,5.53s.73,3.53,1.21,5.26c.95,3.47,2.14,6.88,3.13,10.32,2,6.85,3.6,13.87,6.14,20.59a201.09,201.09,0,0,0,9.15,19.5c1.89,3,3,6.58,5,9.68a17.55,17.55,0,0,0,7.83,7.62.59.59,0,0,0,.79-.29.62.62,0,0,0,0-.4l0-.06c-1-3.87-3.3-6.32-5.4-9.15A56.64,56.64,0,0,1,293,167.7c-3.54-6.14-6.07-12.78-8.61-19.38-2.39-6.65-5.07-13.26-6.6-20.21-.8-3.46-1.23-7-1.71-10.51-.27-1.75-.51-3.5-.84-5.23s-.54-3.48-2.11-5l0,0a.68.68,0,0,0-1,0A.53.53,0,0,0,272,107.48Z"/><path class="cls-4" d="M292.05,113.32c-.82,2.27-.29,4.22.27,6.14s1.11,3.85,1.75,5.75c1.31,3.8,2.79,7.53,4.05,11.33,2.56,7.58,4.49,15.36,7.29,22.88s6.1,14.83,9.43,22.14c1.76,3.61,3,7.49,5,11.12a24.94,24.94,0,0,0,3.55,5.08,12.92,12.92,0,0,0,5.25,3.58.58.58,0,0,0,.75-.36.61.61,0,0,0,0-.44v0a54.88,54.88,0,0,0-6.17-9.94,60.4,60.4,0,0,1-6.52-9.89c-3.63-7.07-6.18-14.64-8.93-22.09s-5.7-14.9-7.78-22.6c-1.07-3.84-1.81-7.78-2.66-11.67-.43-1.95-.88-3.89-1.4-5.81s-1-3.85-2.75-5.45h0a.66.66,0,0,0-.93,0A.71.71,0,0,0,292.05,113.32Z"/><path class="cls-4" d="M331.37,253.73a7.24,7.24,0,0,0,3.05-.17,14.22,14.22,0,0,0,2.74-1,24.19,24.19,0,0,0,4.76-3,49.64,49.64,0,0,0,7.61-7.87,91.68,91.68,0,0,0,11.39-18.34,119.44,119.44,0,0,0,10.68-62.62,120.53,120.53,0,0,0-4.16-20.94,128.42,128.42,0,0,0-18.84-38.17A172.81,172.81,0,0,0,320,70.16a137.11,137.11,0,0,0-17.25-12.55A116.2,116.2,0,0,0,283.65,48a127.61,127.61,0,0,0-20.54-6.09,89.75,89.75,0,0,0-21.54-1.87,68.19,68.19,0,0,0-21.36,4.26c-1.7.69-3.38,1.43-5,2.26a51.39,51.39,0,0,0-4.73,2.83,27.72,27.72,0,0,0-7.81,7.79.74.74,0,0,0,.23,1,.75.75,0,0,0,.85,0l0,0c5.47-4.19,11.79-6.76,18.22-8.83a95.65,95.65,0,0,1,20-4,94.63,94.63,0,0,1,20.6.17,83.18,83.18,0,0,1,20.15,5.06,111.82,111.82,0,0,1,18.69,9.29,134.13,134.13,0,0,1,16.76,12.5,161.51,161.51,0,0,1,14.79,14.81,188.48,188.48,0,0,1,13,16.41,141.77,141.77,0,0,1,10.93,17.8,119.72,119.72,0,0,1,8,19.26,102.14,102.14,0,0,1,4.4,41.27A108.14,108.14,0,0,1,357,221.37c-1.63,3-3.39,6-5.25,8.91s-3.89,5.67-6,8.35-4.48,5.13-6.82,7.53c-1.17,1.21-2.38,2.36-3.61,3.45a15.42,15.42,0,0,1-3.95,2.66l-.09,0a.75.75,0,0,0-.42,1A.73.73,0,0,0,331.37,253.73Z"/><path class="cls-4" d="M188.45,58.18c-8.7-3.91-18.3-3.94-27.35-2.1a63.82,63.82,0,0,0-25,11.38,86.17,86.17,0,0,0-10.34,9,107.46,107.46,0,0,0-8.85,10.37c-1.41,1.79-2.6,3.68-3.91,5.51s-2.63,3.65-3.76,5.6l-3.51,5.76c-1.19,1.91-2.16,4-3.25,5.92-2.22,3.92-4,8.08-5.9,12.15-1.64,4.21-3.46,8.34-4.75,12.68-1.51,4.25-2.54,8.67-3.66,13.05l-1.26,6.67a31.83,31.83,0,0,0-.5,3.37l-.4,3.38a93.38,93.38,0,0,0,.8,27.21,66.51,66.51,0,0,0,10.11,25.25,1.61,1.61,0,0,0,2.76-1.65c-8-15.43-9.91-33.11-8.12-50.21L92,158.3a29.1,29.1,0,0,1,.49-3.2l1.22-6.38c1.09-4.19,2.08-8.41,3.55-12.5,1.24-4.16,3-8.14,4.6-12.19,1.87-3.92,3.57-7.93,5.73-11.72a194.79,194.79,0,0,1,13.86-22.13,102.37,102.37,0,0,1,8.28-9.92,82.18,82.18,0,0,1,9.58-8.52A58.57,58.57,0,0,1,162.14,61a54.38,54.38,0,0,1,12.59-1.22c2.12,0,4.23.15,6.34.36a62,62,0,0,1,6.19,1l.17,0a1.61,1.61,0,0,0,1-3Z"/><path class="cls-4" d="M209.82,108.6a4.59,4.59,0,0,0-2.09,3.4c-.3,1.22-.56,2.45-.82,3.69a57.51,57.51,0,0,1-1.75,7.42c-1.58,4.85-4.32,9.19-7,13.43s-5.67,8.39-9.77,11.28a19.32,19.32,0,0,1-6.78,2.84c-2.33.7-4.46,1.22-6.72,3.25l0,0a.65.65,0,0,0,0,.92.8.8,0,0,0,.21.15c2.82,1.33,5.68.56,8.11-.68s4.36-3.35,6.47-4.9a54.34,54.34,0,0,0,5.77-5.37,42.43,42.43,0,0,0,4.85-6.18c2.89-4.4,4.59-9.36,6.68-14.08,1-2.39,2.21-4.72,3.17-7.16a32.45,32.45,0,0,0,1.21-3.73,4.35,4.35,0,0,0-.4-4.1.78.78,0,0,0-1-.22Z"/><path class="cls-4" d="M185.1,108.12a2.56,2.56,0,0,0-1.41,2.46c-.07.83-.1,1.66-.12,2.51a23.9,23.9,0,0,1-.45,5.12c-.76,3.38-2.81,6.24-4.71,9a42.39,42.39,0,0,1-3.15,4l-1.87,1.72a12.2,12.2,0,0,1-2.1,1.44,6.69,6.69,0,0,1-2.34,1c-.86.18-1.73.29-2.52.52-1.6.51-3.15.82-4.32,3l0,.06a.74.74,0,0,0,.31,1,4.84,4.84,0,0,0,3,.51,6,6,0,0,0,2.61-1c1.57-1.09,2.9-2.44,4.38-3.49s2.89-2.18,4.33-3.32a25.2,25.2,0,0,0,3.68-4c2.2-3,3.24-6.52,4.53-9.86.6-1.7,1.41-3.37,1.91-5.15a13.35,13.35,0,0,0,.53-2.72,2.53,2.53,0,0,0-1.17-2.81.93.93,0,0,0-1,0Z"/><path class="cls-4" d="M139.32,226.5a17.82,17.82,0,0,0-3.55-6.8,16.14,16.14,0,0,0-6.14-5l-1-.39c-.33-.11-.69-.16-1-.24a8.54,8.54,0,0,0-2.14-.2,14.68,14.68,0,0,0-2.1.25c-.67.17-1.31.4-2,.61a16.52,16.52,0,0,0-10,11.93,17.53,17.53,0,0,0,.6,8,25.91,25.91,0,0,0,9.21,12.13.8.8,0,0,0,1.13-.16.81.81,0,0,0,0-1l0,0c-3.15-3.69-6.15-7.47-7.63-11.8a14.71,14.71,0,0,1-.48-6.61,13.39,13.39,0,0,1,2.91-5.89c2.84-3.32,7.57-5.87,11.48-4.14a13.53,13.53,0,0,1,5.2,4.18c1.48,1.8,2.63,3.9,4,5.83l0,.06a.82.82,0,0,0,1.14.18A.81.81,0,0,0,139.32,226.5Z"/><path class="cls-4" d="M182.11,163.91a4.17,4.17,0,0,0-2.89,2.49c-.61,1-1.17,2.08-1.72,3.15a59.34,59.34,0,0,1-3.51,6.34c-2.67,4-6.23,7.35-9.61,10.72s-6.91,6.69-11.14,8.92a22.06,22.06,0,0,1-6.76,2.07c-2.28.54-4.34,1-6.5,3l0,0a.66.66,0,0,0,0,.94.86.86,0,0,0,.18.14c2.67,1.39,5.36.72,7.69-.32s4.29-2.87,6.45-4.07a69.27,69.27,0,0,0,11.86-8.91c3.59-3.42,6.3-7.58,9.42-11.35,1.53-1.91,3.24-3.72,4.77-5.67a32,32,0,0,0,2.11-3.06,4,4,0,0,0,.69-3.87.81.81,0,0,0-.94-.51Z"/><path class="cls-4" d="M247.43,249.51c-.51-.07-.51.1-.61.22l-.28.39a8.24,8.24,0,0,0-.5.8,6,6,0,0,0-.37.86,1,1,0,0,0,.14,1.1,1.61,1.61,0,0,0,1.45.7,1,1,0,0,0,1-.58,6.59,6.59,0,0,0,.44-.83,8.35,8.35,0,0,0,.32-.88l.12-.46c0-.16.17-.27-.21-.62A2.6,2.6,0,0,0,247.43,249.51Z"/><path class="cls-4" d="M204.57,309.6c-1.72,2.33-1.48,4.77-1.67,7.18s-.27,4.82-.37,7.24-.15,4.83-.23,7.25l-.2,7.25.79-1.26c-3.75,2.24-7.5,4.47-11.28,6.63s-7.61,4.28-11.46,6.33a1.31,1.31,0,0,0-.54,1.77,1.33,1.33,0,0,0,1.23.7h0c3.63-.18,7.26-.3,10.89-.43l10.9-.42c3.63-.14,7.26-.37,10.88-.65s7.25-.5,10.76-2.3a.6.6,0,0,0,.26-.81.59.59,0,0,0-.33-.29c-3.74-1.3-7.36-1.07-11-.78s-7.25.5-10.87.87L191.55,349c-3.61.38-7.23.76-10.85,1.08l.74,2.47c3.76-2.2,7.57-4.34,11.39-6.44s7.69-4.12,11.56-6.14a1.43,1.43,0,0,0,.77-1.18v-.08l.55-7.23c.17-2.42.39-4.83.51-7.24s.28-4.83.38-7.24.54-4.82-.94-7.31a.66.66,0,0,0-.9-.24A.7.7,0,0,0,204.57,309.6Z"/><path class="cls-4" d="M130.53,262.64c-1.93,1.26-3.85,2.52-5.77,3.71s-3.85,2.32-5.81,3.47-4,2.26-6,3.38l-.14-1.9q6.51,3,13.09,5.77c4.42,1.81,8.81,3.66,13.26,5.39l-1.38,1c-.39-4.15-.71-8.21-.94-12.27-.1-2-.18-4.09-.24-6.18a37.91,37.91,0,0,1,.2-7A75.23,75.23,0,0,1,130.53,262.64Zm7.75.49c.24,2.2.46,4.45.66,6.7.38,4.52.65,9,.86,13.48v.05a1,1,0,0,1-.08.45,1,1,0,0,1-1.29.48c-4.35-2-8.75-3.81-13.12-5.7S116.48,275,112,273.27a1,1,0,0,1-.51-.42,1.05,1.05,0,0,1,.32-1.45l0,0c2.08-1.32,4.19-2.64,6.32-3.94s4.3-2.63,6.48-3.86,4.35-2.44,6.51-3.62a31.21,31.21,0,0,1,6-2.64C137.9,258.49,138,261,138.28,263.13Z"/><path class="cls-4" d="M130.56,249.12a7.65,7.65,0,0,1,5.64-3,8.45,8.45,0,0,1,9.07,7.84,8.31,8.31,0,0,1-2.11,6.13,8.44,8.44,0,0,1-5.78,2.83,8.33,8.33,0,0,1-6-2.1,7.23,7.23,0,0,1-1.91-2.6,12.66,12.66,0,0,1-.49-3.12A8.82,8.82,0,0,1,130.56,249.12Zm1,8a8.19,8.19,0,0,0,1.46,1.75,5.71,5.71,0,0,0,9.39-4.75,5.67,5.67,0,0,0-1.93-3.83,5.61,5.61,0,0,0-4.05-1.42,6.69,6.69,0,0,0-4,1.83,5.4,5.4,0,0,0-1.85,4.24A4.15,4.15,0,0,0,131.54,257.16Z"/><path class="cls-4" d="M159.91,277.76c-2.75-.35-4.95.69-7.09,1.77a69,69,0,0,0-6.31,3.47c-4.09,2.51-8,5.32-11.87,8.06s-7.75,5.55-11.52,8.48A103.88,103.88,0,0,0,112.36,309a105.24,105.24,0,0,0-9.42,10.81q-4.35,5.7-8.16,11.79c-.63,1-1.31,2-1.9,3s-1.27,2-2,3L89,340.77c-.31.52-.64,1-.93,1.56l-.83,1.61c-2.17,4.31-3.76,9-3.48,14a.57.57,0,0,0,.61.54.59.59,0,0,0,.42-.21l0,0a31.91,31.91,0,0,0,3.5-6.25c.49-1.06.9-2.15,1.29-3.24s.86-2.16,1.27-3.25c.73-2.21,1.62-4.37,2.43-6.58a49.37,49.37,0,0,1,3.15-6.3c4.71-8.15,11-15.27,17.59-21.92s13.67-13,21.61-18.09a117.92,117.92,0,0,1,12.41-6.72l6.31-3.08c2.13-1,4.23-1.94,5.88-4l0,0a.62.62,0,0,0-.1-.87A.65.65,0,0,0,159.91,277.76Z"/><path class="cls-4" d="M168.34,293.08c-3.18,1.68-5.7,4.1-8.27,6.46-1.29,1.17-2.55,2.37-3.8,3.59s-2.5,2.43-3.72,3.69-2.44,2.48-3.62,3.77-2.41,2.53-3.54,3.87l-3.44,4-3.27,4.11a124.62,124.62,0,0,0-11.52,17.64c-3.25,6.24-5.93,13-6.64,20.09a1.22,1.22,0,0,0,2.36.52v0a134.57,134.57,0,0,1,8-18.58l2.53-4.4c.86-1.46,1.85-2.85,2.76-4.28l1.4-2.13,1.5-2.07c1-1.36,1.95-2.78,3-4.11a200.93,200.93,0,0,1,13.32-15.58c1.16-1.25,2.35-2.49,3.57-3.69s2.42-2.43,3.66-3.61a75.72,75.72,0,0,0,7.21-7.34l0,0a1.24,1.24,0,0,0-.21-1.73A1.26,1.26,0,0,0,168.34,293.08Z"/><path class="cls-4" d="M115.48,326.93a14.65,14.65,0,0,0-3,3.73c-.86,1.33-1.7,2.68-2.51,4-1.63,2.72-3.21,5.47-4.62,8.32s-2.74,5.72-3.92,8.67a38,38,0,0,0-2.73,9.13.81.81,0,0,0,1.52.51v0c1.51-2.79,2.57-5.68,3.8-8.54s2.52-5.68,3.9-8.46,2.8-5.56,4.34-8.27c.76-1.35,1.54-2.7,2.35-4a18.79,18.79,0,0,0,2.18-4.14v0a.84.84,0,0,0-.56-1A.82.82,0,0,0,115.48,326.93Z"/><path class="cls-4" d="M151.12,376.76c-2.3,1.67-3.41,4-4.69,6.19s-2.4,4.49-3.5,6.79a138,138,0,0,0-5.76,14.1A146.32,146.32,0,0,0,133,418.46c-.63,2.46-1.07,5-1.45,7.45a44,44,0,0,0-.37,7.62,1.64,1.64,0,0,0,3.15.58l0-.07a54.38,54.38,0,0,0,2.31-7.1c.35-1.18.63-2.38.93-3.57s.54-2.39.87-3.58l.93-3.56,1-3.52c.64-2.37,1.43-4.69,2.17-7,1.59-4.63,3.25-9.24,5.19-13.73.95-2.24,2-4.47,3.06-6.64s2.4-4.24,2.86-6.72l0-.15a1.7,1.7,0,0,0-1.35-2A1.73,1.73,0,0,0,151.12,376.76Z"/><path class="cls-4" d="M297,231.25a7.16,7.16,0,0,0,.19-4.78,14.58,14.58,0,0,0-1.76-4.59,12.45,12.45,0,0,0-3.52-3.75,12.16,12.16,0,0,0-4.86-1.92,10.92,10.92,0,0,0-5.31.73,16.47,16.47,0,0,0-4.17,2.68,15.75,15.75,0,0,0-5.09,7.67,1.24,1.24,0,0,0,2,1.24l.08-.08c2-1.89,3.78-4,5.7-5.62a12.63,12.63,0,0,1,3.08-1.87,6.93,6.93,0,0,1,3.11-.46,9.38,9.38,0,0,1,3.09,1.17A8.56,8.56,0,0,1,292,224a10.92,10.92,0,0,1,1.5,3.32,15.33,15.33,0,0,0,1.08,3.74l.14.24a1.3,1.3,0,0,0,1.76.47A1.25,1.25,0,0,0,297,231.25Z"/><path class="cls-4" d="M199.59,229.44a15.28,15.28,0,0,0,1.22-3.7,11.09,11.09,0,0,1,1.61-3.27,8.5,8.5,0,0,1,2.51-2.28,9.44,9.44,0,0,1,3.13-1.06,7,7,0,0,1,3.1.57,12.56,12.56,0,0,1,3,2c1.86,1.72,3.54,3.85,5.5,5.81l.08.08a1.24,1.24,0,0,0,1.75,0,1.22,1.22,0,0,0,.33-1.16,15.74,15.74,0,0,0-4.81-7.85,16.63,16.63,0,0,0-4.08-2.82,10.94,10.94,0,0,0-5.28-.92,12,12,0,0,0-4.92,1.76,12.32,12.32,0,0,0-3.65,3.61,15,15,0,0,0-1.93,4.53,7.22,7.22,0,0,0,0,4.79,1.28,1.28,0,0,0,1.69.66,1.29,1.29,0,0,0,.58-.5Z"/><path class="cls-4" d="M253.36,272.65a1.15,1.15,0,0,1-.08.26h0l0,.08-.05.14-.11.29-.21.58-.46,1.15c-.29.76-.65,1.5-1,2.25-.67,1.5-1.41,3-2.2,4.41a45.24,45.24,0,0,1-2.64,4.25,21.34,21.34,0,0,1-1.61,2.06,8.13,8.13,0,0,1-1.08,1,2.88,2.88,0,0,1-2.14.7,2,2,0,0,1-.82-.28l-.19-.12-.07-.06-.15-.14a7.41,7.41,0,0,1-.57-.53c-.29-.34-.62-.69-.86-1-.54-.67-1-1.35-1.49-2-1-1.37-1.82-2.75-2.69-4.14-1.74-2.78-3.36-5.61-4.94-8.48v0a1.4,1.4,0,0,1-.17-.68,1.39,1.39,0,0,1,1.41-1.36c3.75.06,7.55.18,11.3.35l5.58.29a49.46,49.46,0,0,1,5.15.5A.93.93,0,0,1,253.36,272.65Zm-7,.7-5.1.19c-3.37.12-6.7.18-10.07.18l1.23-2.07c1.61,2.79,3.27,5.58,4.94,8.33.85,1.37,1.7,2.74,2.6,4,.45.65.9,1.3,1.37,1.89.23.33.47.57.7.85s.21.19.32.3l.07.07,0,0s0,0-.05-.05-.2-.05-.26-.09c-.35,0-.13.06.08-.16a5.73,5.73,0,0,0,.7-.65,18.45,18.45,0,0,0,1.39-1.77c.9-1.27,1.72-2.64,2.56-4l2.46-4.14,1.24-2.09.63-1,.31-.52.16-.25.08-.13,0-.07h0a.85.85,0,0,0-.06.22.73.73,0,0,0,.14.5C249.85,273.15,248.08,273.28,246.36,273.35Z"/><path class="cls-4" d="M269.72,337.18a33.14,33.14,0,0,0-2-9.05,69.37,69.37,0,0,0-3.41-8.78,21,21,0,0,0-1.26-2.21l-.37-.55-.49-.58a6.17,6.17,0,0,0-1.08-1,6.88,6.88,0,0,0-6.13-1.45,6,6,0,0,0-2.92,2,10.09,10.09,0,0,0-.83,1.4,11.45,11.45,0,0,0-.5,1.42,14.6,14.6,0,0,0-.24,5.31,21.75,21.75,0,0,0,.4,2.46c.17.82.34,1.6.52,2.31l1,4.42q1.05,4.42,2,8.88A158.59,158.59,0,0,0,259,359.47a1.22,1.22,0,0,0,2.37-.46,124,124,0,0,0-2.78-18.13c-.62-3-1.25-6-1.91-9-.34-1.5-.69-3-1.06-4.49-.2-.76-.35-1.47-.49-2.15a18.64,18.64,0,0,1-.34-2,10.89,10.89,0,0,1,.11-3.77,6.46,6.46,0,0,1,.23-.74c.09-.23.22-.38.31-.58a1.71,1.71,0,0,1,.75-.57,2.78,2.78,0,0,1,2.4.65,2.73,2.73,0,0,1,.58.54l.26.28.27.39a20,20,0,0,1,1.05,1.74,67.09,67.09,0,0,1,3.38,8.18,55,55,0,0,0,3.28,8.46v0a1.24,1.24,0,0,0,2.33-.64Z"/><path class="cls-4" d="M258.35,315.25c-1-2-2-4-2.79-6a17.05,17.05,0,0,1-.89-2.93c-.17-.93,0-1.77.14-1.8a1.38,1.38,0,0,1,.52-.19,2.76,2.76,0,0,1,.53-.06,1.4,1.4,0,0,1,.42,0,6.65,6.65,0,0,1,2.2,1.18,29.43,29.43,0,0,1,4.44,4.48c5.55,6.81,10.13,14.58,15,22.19a56.55,56.55,0,0,0,4.06,5.72,54.37,54.37,0,0,1,3.92,5.2,73.37,73.37,0,0,1,6.31,11.58,52,52,0,0,1,3.74,12.52A30.59,30.59,0,0,1,295.4,380l.08-.21-2.91,6.33h0a1.36,1.36,0,0,0,.13,1.35q6.94,9.71,13.55,19.7c2.19,3.33,4.36,6.68,6.45,10.05s3.93,6.89,5.78,10.41l2.74,5.31c.44.88.93,1.82,1.28,2.62a15.61,15.61,0,0,1,.85,2.61,18.23,18.23,0,0,1-1.07,10.9,15.11,15.11,0,0,1-7.11,7.93,9.69,9.69,0,0,1-5,.9,11.79,11.79,0,0,1-4.94-1.69,26.5,26.5,0,0,1-7.82-7.92,63,63,0,0,1-5.5-10.22l-9-22.15c-6.23-14.71-11.66-29.77-19.63-43.74h0a.56.56,0,0,0-.76-.21.55.55,0,0,0-.26.61,120.21,120.21,0,0,0,3.45,11.55c1.3,3.79,2.73,7.52,4.21,11.23L279,417.5c3.09,7.4,6.12,14.71,9.37,22.12a66.18,66.18,0,0,0,6.05,10.74,29.54,29.54,0,0,0,9.12,8.77,15.16,15.16,0,0,0,6.37,2,13,13,0,0,0,6.61-1.33,18,18,0,0,0,8.39-9.66,21,21,0,0,0,1.08-12.6,19.09,19.09,0,0,0-1-3.07c-.47-1-.92-1.84-1.39-2.75l-2.8-5.31c-1.91-3.53-3.85-7-6-10.48s-4.24-6.8-6.43-10.16q-6.56-10.06-13.48-19.88l.12,1.35,3-6.27a.67.67,0,0,0,.07-.18v0a33.49,33.49,0,0,0,.86-14,54.23,54.23,0,0,0-3.74-13.36,76.9,76.9,0,0,0-6.42-12.22,57.2,57.2,0,0,0-4.13-5.64,56.08,56.08,0,0,1-3.66-5.35c-4.84-7.55-9.41-15.38-15.26-22.56a32.76,32.76,0,0,0-5.06-5.07,8.74,8.74,0,0,0-3.8-1.8,6,6,0,0,0-1.26-.05,8.14,8.14,0,0,0-1.14.18,4,4,0,0,0-3.18,4.08,6.8,6.8,0,0,0,.33,2.1,15.72,15.72,0,0,0,1.53,3.37,27.38,27.38,0,0,0,4.3,5.48.56.56,0,0,0,.79,0,.56.56,0,0,0,.1-.64Z"/><path class="cls-4" d="M259.75,305.49c1.13.82,1.4.57,1.68.33a3.44,3.44,0,0,0,.74-.82,14,14,0,0,1,1.27-1.93c.47-.48,1.33-1.14,1.31-.88,0,0,.14.08.29.14a3.2,3.2,0,0,0,.43.17c.31.09.45.27.71.33.33.26.6.38.75.82a2.4,2.4,0,0,1-.29,1.66c-.24.63-1.17.88-1.77,1.24s-.92.87-.07,2.48l.07.12a1.22,1.22,0,0,0,.76.61c1.81.5,2.3-.25,2.57-1.05s0-1.91.3-2.65a9.67,9.67,0,0,0,.51-2.63,3.35,3.35,0,0,0-.44-1.56,1.85,1.85,0,0,0-.51-.65,4.06,4.06,0,0,0-.63-.5,4.28,4.28,0,0,0-1.33-.48l-.65-.06a3.34,3.34,0,0,0-.8,0,2.36,2.36,0,0,0-.92.33,6.77,6.77,0,0,0-.55.45,5.44,5.44,0,0,1-.9.65,13.41,13.41,0,0,1-2.18.8,3.63,3.63,0,0,0-1,.54c-.3.22-.61.42-.05,1.7A2.07,2.07,0,0,0,259.75,305.49Z"/><path class="cls-4" d="M254.3,372c-5.15,7.32-8.3,15.58-12,23.57l-11,24.07-5.39,12.08a99.47,99.47,0,0,1-5.84,11.63,60.52,60.52,0,0,1-7.62,10.36,33.52,33.52,0,0,1-10,7.64c-3.7,1.76-8.07,2.43-11.55.66a9.74,9.74,0,0,1-4.06-4.08,15.66,15.66,0,0,1-1.9-5.76A30.12,30.12,0,0,1,189.24,434c1.14-1.86,2.31-3.73,3.51-5.57q3.58-5.55,7.25-11.05c2.43-3.67,4.9-7.26,7.55-10.76a262.22,262.22,0,0,1,16.88-20.14,1.6,1.6,0,0,0,.31-1.7v0l-2.67-6.43.09.25c-1.42-6-.55-12.46,1.44-18.45a67.48,67.48,0,0,1,8.74-17c.91-1.31,1.86-2.6,2.86-3.83.49-.61,1-1.21,1.52-1.78l.86-1c.33-.36.56-.69.85-1,2.09-2.76,3.81-5.53,5.63-8.27,3.66-5.47,7.16-10.81,10.35-16.65h0a.58.58,0,0,0-.23-.77.57.57,0,0,0-.59,0c-5.61,4-9.44,9.6-13,15.08-1.83,2.73-3.62,5.52-5.46,8-.23.29-.46.64-.69.89s-.45.52-.77.87c-.59.66-1.14,1.31-1.67,2-1.06,1.34-2.06,2.7-3,4.1A71.46,71.46,0,0,0,220,359c-2,6.46-2.9,13.59-1.13,20.42v0a2,2,0,0,0,.08.22l2.8,6.37.3-1.72c-5.89,6.67-11.44,13.55-16.73,20.68-2.63,3.57-5.13,7.27-7.53,11s-4.79,7.41-7.15,11.14l-3.54,5.61a30.63,30.63,0,0,0-3,6.19,30.32,30.32,0,0,0-1.76,13.59,18.54,18.54,0,0,0,2.18,6.73,15.42,15.42,0,0,0,2.15,2.93,11.76,11.76,0,0,0,3,2.22,13.34,13.34,0,0,0,7.14,1.39,20.19,20.19,0,0,0,6.84-1.81,36.41,36.41,0,0,0,11-8.12,63.7,63.7,0,0,0,8.19-10.78,101.9,101.9,0,0,0,6.18-11.9l5.57-12,11-24.08c3.53-8.09,7.71-15.86,9.69-24.67a.56.56,0,0,0-1-.44Z"/><path class="cls-4" d="M.66,231c1.53,1.54,3.37,1.75,5.15,2.24l5.37,1.35c3.58.87,7.15,1.78,10.76,2.54s7.22,1.54,10.84,2.23a32.84,32.84,0,0,0,11.15.9A2.1,2.1,0,0,0,45.76,238a2,2,0,0,0-.94-1.48c-3.3-2.06-6.88-2.94-10.48-3.74s-7.19-1.67-10.8-2.4-7.25-1.41-10.88-2.09l-5.45-1c-1.83-.29-3.59-.85-5.66-.08A2.32,2.32,0,0,0,.66,231Z"/><path class="cls-4" d="M14.62,184.64c1.21,1.75,3,2.25,4.64,3l5,2.18c3.35,1.42,6.68,2.88,10.07,4.21s6.78,2.65,10.21,3.91a32.66,32.66,0,0,0,10.75,2.66,2.15,2.15,0,0,0,2.22-2,1.93,1.93,0,0,0-.65-1.6c-2.85-2.53-6.2-4-9.58-5.32s-6.72-2.78-10.13-4.08-6.83-2.53-10.26-3.78l-5.17-1.81c-1.73-.57-3.35-1.4-5.53-1a2.39,2.39,0,0,0-1.93,2.69A2.3,2.3,0,0,0,14.62,184.64Z"/><path class="cls-4" d="M1.86,277.35c1.91,1,3.75.74,5.61.71l5.55-.19c3.7-.16,7.41-.28,11.1-.55s7.4-.53,11.09-.87,7.39-.66,11-2.23a2.09,2.09,0,0,0,1.11-2.73A2.05,2.05,0,0,0,46,270.34c-3.77-1-7.47-.9-11.17-.67s-7.4.4-11.1.7-7.38.66-11.07,1l-5.54.6c-1.84.22-3.7.17-5.48,1.49a2.33,2.33,0,0,0-.51,3.25A2.43,2.43,0,0,0,1.86,277.35Z"/><path class="cls-4" d="M837.76,218c-1.59,1.49-3.44,1.64-5.23,2.06l-5.41,1.16c-3.61.74-7.22,1.53-10.85,2.17s-7.26,1.28-10.91,1.85a33.11,33.11,0,0,1-11.18.51,2.12,2.12,0,0,1-1.75-2.39,2,2,0,0,1,1-1.44c3.37-1.94,7-2.7,10.61-3.37s7.24-1.42,10.87-2,7.29-1.15,10.94-1.71l5.49-.76c1.83-.23,3.61-.73,5.66.12a2.32,2.32,0,0,1,.76,3.83Z"/><path class="cls-4" d="M825.42,171.15c-1.27,1.71-3.06,2.15-4.74,2.85l-5.07,2c-3.4,1.3-6.78,2.65-10.22,3.86s-6.87,2.41-10.33,3.55a32.41,32.41,0,0,1-10.84,2.28,2.16,2.16,0,0,1-2.16-2,2,2,0,0,1,.71-1.58c2.94-2.43,6.33-3.75,9.76-5s6.82-2.55,10.27-3.72,6.92-2.3,10.38-3.42l5.23-1.63c1.75-.52,3.4-1.29,5.56-.79a2.39,2.39,0,0,1,1.84,2.76A2.33,2.33,0,0,1,825.42,171.15Z"/><path class="cls-4" d="M834.94,264.25c-2,1-3.78.61-5.63.52l-5.55-.39c-3.69-.29-7.39-.54-11.07-.94s-7.37-.78-11.05-1.25-7.36-.92-10.93-2.62a2.05,2.05,0,0,1,.36-3.87c3.8-.91,7.5-.63,11.18-.27s7.39.65,11.07,1.08,7.36.91,11,1.4l5.51.79c1.84.29,3.7.3,5.43,1.68a2.29,2.29,0,0,1-.35,3.87Z"/><path class="cls-3" d="M131.77,459.78c0,1.18-.25,1.44.59,1.85a2.24,2.24,0,0,0,1.37.39c.7,0,.71-.79,1.42-.78s.7,0,1.4,0,.69.64,1.39.66.7-.25,1.39-.24.7.39,1.39.4.7.36,1.39.38.71-.56,1.41-.55.7.14,1.39.15.7-.18,1.4-.17.71-.42,1.41-.41l1.39,0c.69,0,.68.77,1.37.78s.7-.07,1.39-.06.7-.18,1.4-.17.7-.28,1.4-.27.69.07,1.39.08.69.64,1.38.66.71-.73,1.41-.72.68,1,1.38,1,.7-.16,1.39-.15.7.1,1.39.12.72-1,1.41-1,.7,0,1.4,0,.68.64,1.38.66.7-.48,1.39-.46.69.42,1.39.43.7-.24,1.39-.23.7.14,1.39.15.7.05,1.39.06.71-.39,1.4-.38.7,0,1.39,0,.68.86,1.38.88.7-.63,1.39-.62.68.83,1.38.84.7-.87,1.4-.86.69-.08,1.39-.06.67,1,1.37,1,.71-1,1.41-1,.68.86,1.37.87.71-.13,1.36-.38-.48-.26-.77-1.11c-.14-.38.14-1,0-1.5s-.1-.93-.25-1.42,0-1-.15-1.44-.72-1-.84-1.5c-.29.42-.78.79-1.07,1.2-.25.13.14.19-.06,0,0-.63-.27-.71-.28-1.34.57-.32.38-.48,1-.76-.12-.49.41-.61.3-1.12s-.64-.9-.74-1.41-.17-1-.25-1.52-.35-.88-.41-1.39c-.08-.11.22-.56.09-.6s.35.45.35.34-.41-.35-.34-.44c0-.41.27-.85.24-1.26s.07-.82.06-1.23-.69-.83-.68-1.23.24-1,.28-1.41.28-.92.35-1.36.22-.9.32-1.35,0-1,.12-1.47c-.29.42-.63,1.21-.92,1.64,0-.48.44-1.24.44-1.72s-.7-1-.69-1.42.78-.93.78-1.4.12-.94.13-1.41-1.08-1-1.07-1.43,1-.77,1-1.24c.29-.37.34-.72.63-1.09s.43-.86.71-1.24.72-.64,1-1,.6-.73.88-1.11.22-.9.5-1.28c0,.47-.51.86-.52,1.33s.36.95.35,1.43-.39.94-.4,1.41.46,1.13.45,1.61c.22-.41.62-.94.84-1.37s.5-.79.71-1.22-.26-1.16-.05-1.6.75-.67,1-1.12,1-.61,1.16-1.07-.35-1.16-.15-1.61.3-.92.51-1.36,1-.57,1.25-1-.06-1.1.16-1.53.48-.84.7-1.27.86-.78,1.1-1.2c-.22,0-.74-.07-.95,0l.08.14c.24-.33.87-.38,1.11-.71s.35-.75.59-1.08.43-.59.67-.92c0,0-.41-.44-.38-.48.25-.42.86-.56,1.1-1s.21-1,.45-1.4.78-.66,1-1,.42-.88.66-1.28,0-1.16.22-1.54.67-.73.91-1.11,1.16-.43,1.4-.8.46-.92.68-1.26c.5-.75.14-.76.57-1.32s.82-.24,1.25-.78,0-.9.41-1.45.55-.45,1-1,.4-.56.83-1.11-.08-.93.35-1.47.64-.37,1.06-.91,1-.12,1.4-.66.25-.68.68-1.22.27-.67.69-1.21.75-.28,1.18-.82.33-.62.75-1.16.17-.75.59-1.29.67-.34,1.09-.88.09-.81.51-1.35.86-.2,1.29-.74.37-.58.79-1.12-.24-1.06.18-1.59,1.3,0,1.63-.56.13-.71.15-1.58c0-.39-.46-.88-.47-1.41s.07-.9.05-1.39.37-1,.33-1.44-.54-.87-.6-1.35.22-1,.14-1.44-.25-.91-.35-1.37-1-.73-1-1.25.36-.92.36-1.42.59-.88.61-1.37-.69-.93-.66-1.41.08-.91.12-1.38.47-.88.51-1.35.41-.88.45-1.34,0-.92.06-1.38.22-.9.27-1.36-.11-.94,0-1.39-.06-.94,0-1.38-.32-1-.25-1.43.77-.83.84-1.27.31-.9.38-1.33-.46-1-.39-1.46.9-.82,1-1.23-.14-1-.07-1.41c.15-.85.57-1-.08-1.2s-.64.21-1.35.23-.73-.6-1.44-.58-.71.29-1.42.31-.7.42-1.41.43-.72-.2-1.43-.18-.71-.22-1.42-.21-.71.08-1.42.09-.72-.47-1.43-.46-.69,1-1.4,1-.71-.07-1.42-.05-.72-.65-1.43-.63-.69.69-1.4.71-.72-.72-1.43-.71-.69.47-1.4.48-.72-.56-1.43-.55-.71.21-1.42.22-.69.44-1.4.46-.72-.55-1.43-.53-.7.48-1.41.5-.71-.11-1.42-.09-.71-.29-1.42-.27-.71-.09-1.42-.07-.68,1.06-1.39,1.08-.71-.09-1.42-.07-.71-.33-1.42-.31-.72-.42-1.42-.4-.69.79-1.4.81-.71-.35-1.42-.33-.7.25-1.41.27-.77-.78-1.47-.7c-.44.18-.75,1-1.19,1.16s-.74.63-1.17.84-1.08,0-1.5.19-.78.56-1.19.8-.59.85-1,1.1-1.16,0-1.55.24-.64.74-1,1-.86.49-1.23.78c0,.35.16,1,.14,1.38-.38.18-.54-.58-1-.61,0-.11-.07.07-.07,0-.37.3-.48.91-.84,1.22s-.87.43-1.22.75-.86.46-1.2.79-.39.93-.72,1.27-.38.92-.7,1.27-.73.59-1,.94-.67.66-1,1-.55.75-.85,1.12-.55.75-.84,1.12-1.36.15-1.64.53-.09,1.1-.37,1.49-.7.65-1,1-.55.77-.81,1.16-.33.91-.59,1.31-.61.73-.85,1.13-.79.63-1,1-.26.94-.49,1.35-.45.86-.68,1.27c0,.17-.29.3-.3.47a.86.86,0,0,0,.25.13c0-.15.36-.16.36-.31-.23.42-.8.57-1,1s-.28.92-.5,1.34-.68.71-.9,1.13-.33.89-.54,1.31-.11,1-.32,1.42-.71.71-.91,1.14,0,1-.16,1.48-.56.78-.75,1.21-.63.76-.81,1.19-.73.72-.91,1.15,0,1-.15,1.47-.29.9-.47,1.34-.08,1-.24,1.42-.25.91-.41,1.35-.76.72-.93,1.16.26,1.09.1,1.53-1.2.57-1.35,1,.56,1.19.41,1.63-.91.68-1.06,1.12.25,1.07.1,1.51-.65.78-.79,1.22-.43.85-.57,1.3-.62.79-.75,1.24-.4.86-.54,1.31.17,1,0,1.48-.62.8-.75,1.24.12,1,0,1.46-.37.88-.5,1.32-.18.93-.3,1.38.29,1.07.16,1.51-.31.9-.43,1.34-1.22.63-1.35,1.07.5,1.14.38,1.57-.94.72-1.07,1.15.07,1-.06,1.44.26,1.1.13,1.52-.65.77-.79,1.23-.41.87-.53,1.33-.61.84-.72,1.3-.2.94-.29,1.41-.17.94-.26,1.41.1,1,0,1.46-.24.93-.31,1.4.46,1,.4,1.5-.63.88-.69,1.35.28,1,.23,1.46,0,.95,0,1.43-.79.88-.83,1.35.67,1,.64,1.47-.82.9-.85,1.37.58,1,.55,1.45-.25.95-.27,1.41-.29.95-.31,1.42-.13,1-.14,1.42.14,1,.13,1.43-.17,1-.17,1.42.5,1,.5,1.43-.62,1-.62,1.43.05,1,.06,1.42.14,1.27.16,1.7c.31.17.67-.77,1-.62C132.83,459,132,459.5,131.77,459.78Z"/><path class="cls-4" d="M314.56,379.76a4.31,4.31,0,0,0,.15,2.47,8,8,0,0,0,1.08,1.61c.82,1,1.63,2,2.51,3s1.76,2,2.55,3.07a23.4,23.4,0,0,1,2.29,3.3c2.72,4.64,3.9,10,5.34,15l1,3.88.51,1.94.38,2c.25,1.31.51,2.62.7,3.95s.21,2.67.26,4c.35,2.67-.77,5.38-1.1,8s-.67,5.21,1.44,8.12l0,0a1,1,0,0,0,1.33.21l.11-.09a8.16,8.16,0,0,0,2.18-4,12.24,12.24,0,0,0,.21-4.18c-.19-1.4-.56-2.8-.85-4.17-.15-.69-.27-1.38-.37-2.07s-.23-1.37-.3-2.05c-.15-1.37-.28-2.75-.38-4.12l-.49-4.11-.23-2.06-.36-2c-.28-1.36-.51-2.73-.87-4.07-1.37-5.4-4.07-10.3-6.28-15.35l-1.63-3.85c-.51-1.31-1.14-2.57-1.77-3.84a22.41,22.41,0,0,0-2.29-3.58,4.1,4.1,0,0,0-4.09-2.09,1.11,1.11,0,0,0-1,.9Z"/><path class="cls-4" d="M31.55,85.37c-1.58-12-8.72-21-17.34-22a1.21,1.21,0,0,1,0-2.34c9.91-1.14,17.67-13,17.67-27a1,1,0,1,1,2,0c0,14,7.48,25.61,17.39,27a1.21,1.21,0,0,1,0,2.34c-8.8.79-16.08,9.85-17.7,22a1,1,0,0,1-2,0ZM32.88,43a33.26,33.26,0,0,1-4.59,10.92,21.69,21.69,0,0,1-9.47,8.26c7.94.34,11.41,9.27,13.73,17.84C35,71.88,39.22,64.51,45.69,62,39.12,59.05,33.82,55.81,32.88,43Z"/><path class="cls-4" d="M30.71,28.58a2.33,2.33,0,0,0,2,2.5,2.56,2.56,0,0,0,0-5A2.33,2.33,0,0,0,30.71,28.58Z"/><path class="cls-4" d="M30.44,91.16c.18,1.57,1.2,2.67,2.3,2.64A2.76,2.76,0,0,0,35,91.16a2.54,2.54,0,0,0-2.3-2.92A2.46,2.46,0,0,0,30.44,91.16Z"/><path class="cls-4" d="M7.68,62.53a2.39,2.39,0,0,0,2.17,2.53,2.56,2.56,0,0,0,0-5.06A2.39,2.39,0,0,0,7.68,62.53Z"/><path class="cls-4" d="M54,61.75a2.87,2.87,0,0,0,2.32,2.93,2.26,2.26,0,0,0,2.32-2.5,3,3,0,0,0-2.32-2.92C55,59,54,60.21,54,61.75Z"/><path class="cls-4" d="M119.2,36.58C107.47,35.45,98.29,23.82,98.29,10.1A1.17,1.17,0,0,0,97.1,9a1.14,1.14,0,0,0-1.19,1.15C97.28,28,87.07,35.21,75.35,36.54a1.15,1.15,0,0,0,0,2.29c10.41.78,19,9.66,20.94,21.61a1.19,1.19,0,0,0,2.35,0c1.88-11.72,10-22.95,20.52-21.57.6.08,1.07-.56,1.07-1.15A1.17,1.17,0,0,0,119.2,36.58Z"/><path class="cls-1" d="M629,327.27l30.53-33.6-4.44-7.8-.31-16.38s38.39-14.38,55-38.87c17.11-12.53,27.46-21.65,29.5-24.14s7.6-21.29.06-25.54S729,176.17,724,178.73c-3.54-18.62-7.63-55.23-14.87-64S658,84.4,658,84.4l-90.65,27.51L518.8,168.45l2.08,12.72s-21.33,5.79.09,25.34c8.89-1.17,8.86,1.62,8.86,1.62s11.1,58.66,73.15,67c5.08,5.85,3.7,0,3.7,0l1.38,5.85,2.67,15.34-10.43,3.78Z"/><path class="cls-6" d="M482.54,466.18l34.89-3.78,229.14.24L781,464.29S768.06,345.5,748.62,332.53c-6.57-10.86-53.42-28.13-53.42-28.13l-28.77-9.57-37.54,14.11-30.37-9.34-30.47,1.47s-46.66,12.4-54.42,28.34S483.28,429.91,482.54,466.18Z"/><path class="cls-7" d="M694.67,212.75a10.65,10.65,0,0,1,0,1.13,6,6,0,0,1-.24,1.1c-.12.55-.18.54-.32,1.08s0,.59-.18,1.12a8.08,8.08,0,0,1-.49,1c-.22.51-.16.54-.41,1a6.41,6.41,0,0,1-.64.93c-.32.47-.32.46-.66.91a6.63,6.63,0,0,1-.65.92c-.38.42-.43.36-.84.76l-.8.78a4.9,4.9,0,0,1-.85.73c-.46.32-.5.26-1,.57s-.41.41-.9.68a4.8,4.8,0,0,1-1,.47c-.53.19-.57.07-1.09.28s-.46.4-1,.56a7,7,0,0,1-1.13.13c-.56.1-.56.08-1.11.18a5.31,5.31,0,0,1-1.12.16,10.88,10.88,0,0,1-1.13-.07c-.56,0-.55-.06-1.11-.13s-.57,0-1.12-.14a10.25,10.25,0,0,1-1.11-.17,7.93,7.93,0,0,1-1.08-.33,6.39,6.39,0,0,1-1.06-.39c-.51-.24-.46-.35-1-.61s-.51-.23-1-.51a4.93,4.93,0,0,1-.94-.62c-.43-.36-.38-.43-.81-.78a10.1,10.1,0,0,1-.9-.68,7.62,7.62,0,0,1-.7-.89c-.36-.42-.48-.33-.8-.79s-.23-.52-.53-1-.37-.43-.65-.92a5.52,5.52,0,0,1-.42-1c-.21-.52-.24-.51-.44-1a6.86,6.86,0,0,1-.44-1.05c-.15-.54,0-.57-.1-1.13s-.27-.52-.36-1.08a4.34,4.34,0,0,1,0-1.14c0-.56.06-.56.1-1.12a10.56,10.56,0,0,1,.09-1.12,10.23,10.23,0,0,1,.23-1.1c.1-.55,0-.57.1-1.12a5,5,0,0,1,.36-1.07,6.08,6.08,0,0,1,.39-1.06c.24-.51.28-.49.55-1s.34-.45.61-.94.12-.59.46-1.05.49-.32.87-.74.26-.52.63-.94a3.81,3.81,0,0,1,.85-.75c.44-.35.46-.31.92-.65s.37-.44.84-.76.57-.14,1.07-.4.45-.36,1-.59a6.78,6.78,0,0,1,1.06-.4c.53-.17.55-.09,1.09-.24s.52-.22,1.07-.36a5.25,5.25,0,0,1,1.11-.18,5.34,5.34,0,0,1,1.13,0c.56,0,.56,0,1.12,0a10.66,10.66,0,0,1,1.13,0,10.25,10.25,0,0,1,1.11.17c.55.11.53.21,1.07.35a10.22,10.22,0,0,1,1.07.34,10.1,10.1,0,0,1,1.07.32,7.24,7.24,0,0,1,1,.49c.49.27.47.31,1,.59s.48.28,1,.58a6.57,6.57,0,0,1,.9.67,6.16,6.16,0,0,1,.89.71c.38.42.31.48.67.92s.38.41.72.86.34.45.65.92a9.53,9.53,0,0,1,.62.94,5,5,0,0,1,.4,1.06c.2.52.18.53.35,1.07s.28.5.44,1a6.82,6.82,0,0,1,.28,1.1c.11.55,0,.56.12,1.12s.15.55.2,1.11S694.7,212.18,694.67,212.75Z"/><path class="cls-2" d="M743.32,69.28c-7.58-12.19-13.77-16.57-17.59-18.11-.09-.23-.66-.31-.76-.58s.52-.79.4-1.05-.35-.44-.49-.69-.68-.21-.83-.45-.06-.6-.22-.83-.66-.16-.83-.39-.19-.52-.36-.73,0-.73-.15-.94-.33-.44-.52-.64-.83.06-1-.14,0-.78-.18-1-.29-.48-.5-.67-.47-.28-.68-.47-.57-.16-.78-.34-.8.14-1,0,0-.9-.18-1.07-.41-.35-.63-.52-.44-.31-.66-.47-.85.27-1.08.11-.36-.41-.59-.56-.12-.77-.34-.92-.4-.37-.63-.52-.81.27-1,.12-.41-.35-.64-.49-.29-.56-.52-.7-.4-.38-.64-.52-.66,0-.89-.09-.1-.89-.34-1-.76.24-1,.11-.55-.1-.79-.23-.29-.61-.53-.74-.67.12-.92,0-.42-.35-.66-.48-.56-.09-.8-.22-.23-.74-.48-.87-.35-.51-.59-.63-.88.54-1.12.42-.29-.65-.53-.77-.35-.52-.59-.64-.55-.12-.79-.24-.74.28-1,.16-.44-.35-.68-.46-.4-.43-.64-.55-.27-.7-.52-.81-.85.53-1.09.42-.46-.31-.7-.42-.3-.66-.54-.77-.78.39-1,.28-.43-.35-.68-.46-.21-.85-.46-1-.44-.33-.69-.44-.67.17-.92.06-.41-.41-.66-.52-.55-.08-.8-.19-.56-.05-.81-.16-.44-.35-.69-.45-.45-.33-.7-.43-.38-.52-.63-.63-.67.23-.92.13-.67.21-.92.11-.22-.92-.47-1-.73.39-1,.29-.48-.25-.74-.35-.41-.44-.66-.53-.66.24-.92.15-.49-.23-.74-.32-.24-.94-.49-1-.63.15-.89.06-.72.44-1,.35-.5-.2-.76-.28-.31-.77-.57-.85-.72.48-1,.39-.45-.38-.7-.46-.46-.33-.72-.41-.39-.57-.65-.65-.73.55-1,.47-.35-.71-.61-.79-.42-.48-.68-.56-.63.23-.89.15-.5-.19-.76-.27-.69.48-1,.41-.42-.53-.68-.6-.58.1-.84,0-.34-.83-.6-.9-.63.28-.89.21-.42-.55-.68-.62-.67.49-.94.42-.36-.79-.63-.85-.66.47-.92.41-.51-.22-.77-.28-.47-.38-.73-.44-.57.1-.84,0-.62.34-.88.28-.43-.6-.7-.65-.52-.14-.78-.19-.64.47-.91.42-.41-.74-.67-.79-.48-.42-.74-.47-.62.4-.89.35-.55,0-.82,0-.46-.5-.73-.54-.54,0-.81-.07-.56.09-.83.05-.47-.51-.74-.55-.57.2-.84.16-.53-.11-.8-.15l-.8-.13c-.27,0-.6.38-.87.35s-.45-.7-.72-.73-.66.85-.93.81-.52-.21-.79-.24-.46-.65-.73-.68-.56.1-.83.06-.51-.25-.78-.28-.54-.1-.81-.13S642.22,14,642,14s-.6.49-.87.46-.49-.44-.76-.46-.58.31-.85.28-.57.31-.84.29-.54,0-.81,0-.46-1-.73-1.06-.59.6-.86.58-.55.06-.82,0-.55.09-.82.07-.49-.74-.76-.76-.59.72-.87.71-.5-.55-.77-.57-.57.33-.84.31-.5-.73-.77-.75-.58.61-.85.59-.52-.39-.79-.4-.53-.3-.8-.31-.55.11-.83.1-.57.62-.84.6-.51-.7-.79-.71-.54-.05-.82-.06-.56.73-.84.72-.52-.53-.8-.54-.56.59-.83.58-.53-.59-.81-.59-.54-.21-.81-.21-.56.23-.83.23-.56.23-.84.23-.53-.21-.81-.21-.55-.16-.82-.14-.57-.29-.84-.27-.55.12-.82.15-.45.84-.72.87-.59-.42-.86-.38-.5.3-.77.34-.59-.23-.85-.18-.52.16-.79.22-.42.6-.69.65-.58-.12-.84-.06-.67-.46-.94-.4-.23.35-.32.62l-.81.06c-.17-.15-.33-.29-.45-.25s-.19.17-.26.33c-29.58,3-57.21,21.52-72.39,29.3-15.8,8.09.84,11.81.84,11.81l2.88,1c-.2.12-.38.29-.53.27-.51-.06-1.22-.27-.88-.05s.41.14.79.31.52-.19.9,0,.14.69.51.85.5-.1.87.06.57-.27.94-.1.1.8.48,1,.44,0,.81.18.24.46.62.63.49-.11.86,0,.44,0,.82.17l.75.31c.37.16.21.53.59.69s.51-.15.88,0,.47,0,.85.12.17.64.54.8.34.24.72.4.48-.08.86.09.4.1.78.27.28.37.66.53.26.42.64.58.65-.45,1-.28.2.55.58.71.52-.16.9,0,.44,0,.82.18.11.77.49.94-39.41-4.34-39-4.17.42.06.8.23.71-.14,1,.13-.13.84-.53,1.35c-.15.19-.87,0-1.1.28s-.15.61-.36.87-.66.2-.87.45a8.26,8.26,0,0,0-.52.67c-.13.19.44.89.27,1.15s-.94,0-1.09.25.32.83.17,1.07-.92,0-1.07.28,0,.64-.11.88,0,.62-.15.86-.78.14-.92.38-.36.39-.51.63.23.76.09,1-.4.37-.54.6-.24.49-.38.72-.7.2-.84.43-.35.41-.49.64-.11.57-.25.8-.17.52-.31.76.2.75.06,1-.37.4-.51.63-.43.37-.57.6-.51.32-.65.55-.11.56-.25.79-.65.24-.79.47-.39.39-.53.62-.23.49-.37.73,0,.62-.16.85.19.74.05,1-.48.34-.62.57-.92.08-1.06.31.3.82.16,1-.69.22-.83.45-.44.37-.58.6-.2.52-.34.75.39.87.25,1.1-.49.34-.63.58-.37.41-.51.64-.33.44-.47.67-.26.48-.4.71.09.69,0,.92-.62.27-.76.5-.44.37-.58.6-.17.53-.31.76-.1.58-.24.81-.74.19-.88.42.25.79.12,1-.81.15-.94.38.32.83.18,1.06-1,0-1.14.26,0,.65-.12.87.05.67-.08.9-.57.3-.71.52-.51.33-.64.55,0,.63-.16.85-.5.37-.63.58.16.77.05,1c-.27.45-1.15.67-.79.83s.54-.34.95-.31.38.34.79.37.41,0,.81,0,.43-.27.84-.24.42-.18.83-.15.41-.06.82,0,.34.92.75,1,.43-.34.84-.32.42-.17.83-.14.38.4.79.43.42-.07.83,0,.48-.42.68-.06-.06.28-.26.65.06.5-.13.86-.45.23-.65.59-.3.31-.5.68-.51.19-.7.56.32.64.12,1-.74.07-.94.43.36.67.16,1-.61.14-.81.51.22.59,0,1-.55.2-.71.59a1.71,1.71,0,0,0-.19.86c0,.22.06.5,0,.81s-.29.49-.31.78.22.54.2.82.31.54.29.82-.13.52-.15.8-.34.51-.35.79.52.55.51.83-.08.53-.09.8-.64.51-.65.79-.08.53-.09.81.24.54.23.81.55.55.54.82-.27.53-.28.81.43.54.42.81-.73.52-.74.79.44.54.44.81-.06.53-.06.8-.67.53-.67.8.58.54.58.81-.42.53-.42.8.29.54.29.81.05.54.05.81.47.53.47.8-.77.55-.77.82.71.52.71.79-.74.56-.73.83.45.52.46.79.33.53.33.8.14.53.15.8-.56.55-.55.82l0,.81c0,.27.09.53.1.8s-.17.55-.16.82.11.54.12.81.3.52.31.79-.24.55-.22.82,0,.54,0,.81-.34.56-.32.83.75.49.76.76-.17.56-.15.83.33.51.35.79-.22.55-.2.82.38.51.41.78-.17.56-.14.83-.38.58-.36.85.2.53.23.8.11.54.14.81,0,.54.06.81.29.52.32.79.05.55.08.82-.16.57-.13.84.09.54.13.81.23.52.27.79-.24.6-.2.86.64.46.68.72-.64.67-.59.94.51.47.56.73-.21.6-.16.87.44.47.5.74.16.52.21.79.48.46.53.72-.26.62-.2.89-.25.62-.19.88,1,.33,1,.59-.06.58,0,.84.23.5.3.76-.56.72-.49,1,.74.36.81.62,0,.58.06.84-.19.62-.11.88.07.55.16.81.89.29,1,.55l.24.77c.09.26-.62.79-.53,1s.48.42.57.67-.08.61,0,.86.39.44.49.7.34.45.44.7.47.4.57.65-.45.77-.35,1,.93.22,1,.47.14.53.25.78-.49.81-.38,1.06.23.5.34.74.71.29.82.53.17.52.28.76.12.56.23.79.15.55.27.78.56.34.68.57-.12.7,0,.93.39.43.52.65.9.1,1,.3-.38,1-.24,1.16c.31.42.58.27.63.15s.73.07,1-.18-.08-.9.16-1.08.87.36,1.1.2.47-.21.71-.36,0-1,.24-1.16.59,0,.83-.16.67.15.91,0,.4-.39.65-.49.47-.25.72-.34.56,0,.81-.1.38-.62.63-.69.58.08.84,0,.53-.2.79-.22.58-.41.84-.39.55.08.83.11.51.35.79.39.49.34.76.4.58-.11.85-.05.56,0,.83.07l.81.18c.27.07.38.73.64.8s.73-.56,1-.49.52.23.78.31.51.27.76.34.62,0,.84,0c.49.16.69,1.12.89.77a2,2,0,0,0,.4-.88c.06-.41,0-.42,0-.83s-.6-.5-.54-.91.67-.32.74-.73-.39-.48-.33-.89-.15-.44-.09-.85l.12-.82c.07-.4.5-.34.56-.75s-.11-.43,0-.84,0-.42,0-.82-.1-.43,0-.84.49-.35.55-.76-.24-.45-.18-.86.1-.41.16-.82.35-.36.42-.77-.55-.5-.49-.91.66-.32.72-.73-.3-.47-.24-.88.57-.33.63-.74,0-.43,0-.84-.07-.43,0-.84-.49-.49-.43-.91,1-.27,1-.68-.62-.51-.56-.93.27-.38.33-.79-.41-.48-.35-.9.7-.34.69-.75c-.15-.22,0-.73-.1-.95s-1.07.08-1.23-.15-.34-1-.49-1.21c.26.08.8.87,1.06.95s.7-.22,1-.14a1.74,1.74,0,0,0,.21-.84c.07-.42.33-.38.4-.8s-.56-.51-.5-.93.23-.39.3-.81.29-.38.35-.8.17-.41.24-.83,0-.42.09-.84-.68-.53-.62-.95.6-.34.66-.76-.38-.48-.32-.91.61-.33.68-.76.39-.42.4-.85-1-.41-.83-.91c0-.2.89-.16,1-.43s-.19-.72,0-.95.46-.27.67-.48.67,0,.89-.16.31-.39.54-.56.29-.45.52-.61.59,0,.83-.15,0-1,.26-1.13.68.17.92,0,.5-.17.75-.29.41-.36.66-.48c-.28,0-.58.19-.86.18s-.55-.25-.83-.26-.54-.48-.82-.49-.61.52-.89.51c-.17-.25-.11-.69-.28-.94s-.61-.31-.78-.56-.47-.67-.64-.93c.24.11.78.17,1,.28s.43.33.67.44.26.72.5.83.75-.38,1-.27.44.31.69.42.39.41.63.52.56-.12.8,0c.18-.08.28-.09.47-.18s.58,0,.85-.07l.74-.31c.24-.1.4-.42.66-.52s.56,0,.82-.14.38-.48.64-.57.5-.21.76-.3.68.29.93.19.56-.05.82-.14.2-1,.45-1.1.75.48,1,.38.27-.82.53-.91.62.13.88,0,.39-.51.65-.6l.76-.29c.25-.09.79.63,1,.54s.31-.72.57-.81.7.36,1,.27.32-.7.57-.79.52-.14.78-.23.61.12.87,0,.58,0,.83-.05.28-.83.54-.92.55,0,.81-.13.63.19.89.1.33-.68.59-.77.65.24.91.15.31-.75.56-.84.8.65,1.06.56.52-.15.77-.24.19-1.09.44-1.18.65.22.9.13.49-.26.74-.35.63.15.88.06.37-.58.62-.67.48-.29.73-.38.78.6,1,.51.28-.84.54-.93.69.35,1,.26.26-.91.51-1,.5-.23.76-.32.8.65,1.06.56.45-.33.71-.42.53-.13.79-.22.38-.56.63-.65.69.31,1,.22.3-.8.55-.89.45-.38.7-.47.78.56,1,.47.58,0,.84-.1.2-1.06.46-1.15.76.52,1,.43.25-.93.51-1,.52-.15.78-.25.6.05.85,0,.75.48,1,.39.22-1,.48-1.08.57,0,.82-.12.57,0,.82-.13.63.13.88,0,.3-.78.56-.87.6.07.86,0,.71.37,1,.28.46-.34.71-.44.28-.82.54-.91.55-.07.8-.16.43-.41.68-.51.48-.25.73-.34.73.39,1,.3.64.14.89,0,.24-.93.48-1,.81.6,1.06.5.42-.45.66-.54.59,0,.83-.11.4-.5.64-.6.37-.56.61-.66.67.19.9.09.47-.35.69-.45.35-.59.55-.68.59,0,.82-.15.36-.44.59-.58.55-.12.77-.26.3-.52.52-.67.75.15,1,0,.12-.75.33-.91.38-.38.59-.55,1,.47,1.25.31,0-.92.17-1.08.54-.18.75-.34.34-.44.55-.61.79.18,1,0-.08-1,.14-1.19.95.46,1.18.31.26-.56.49-.7.15-.79.39-.92.55-.12.79-.25.6,0,.85-.1.41-.38.66-.49.54-.1.79-.2.68.31.93.21.44-.3.7-.38.34-.64.61-.74.38-.42.64-.53.66.19.92.08.68.2.93.08.42-.37.67-.49.52-.15.77-.28.18-.82.42-.94.73.23,1,.1.22-.71.46-.85.53-.15.76-.28.28-.59.52-.73.78.28,1,.14.26-.63.49-.76.72.16,1,0,.15-.79.38-.93.68.1.91,0,.19-.71.42-.85.83.33,1.06.18.26-.6.48-.75.66,0,.89-.11.5-.22.73-.37,0-1,.21-1.16.77.19,1,0,.52-.19.75-.34.38-.41.6-.56.24-.6.47-.75.54-.17.76-.32.28-.54.51-.7.68,0,.9-.12.64,0,.87-.18.37-.42.59-.57.48-.26.71-.42,0-.87.26-1,.92.34,1.14.18-.14-1.11.08-1.27.53-.2.75-.36.52-.21.73-.37.45-.31.67-.48.56-.15.78-.31.38-.39.6-.56.27-.52.49-.69.64-.06.85-.23.49-.26.7-.42.58-.15.78-.32-.15-1,.06-1.22.83.15,1,0,.4-.37.6-.54.09-.74.29-.91.46-.29.66-.47.88.17,1.08,0l.59-.55c.2-.19.3-.47.49-.66s.31-.47.51-.67,0-.78.17-1,.91.1,1.1-.1.53-.28.71-.48.34-.45.52-.66-.23-.91-.05-1.13.55-.25.73-.47.22-.53.39-.75.54-.28.71-.5.52-.3.69-.52.24-.51.4-.73.09-.62.25-.85.2-.53.35-.76.42-.39.57-.62.6-.27.75-.5l.47-.69c.15-.24.2-.53.35-.76s-.09-.71,0-.94.86-.14,1-.38,0-.63.15-.87-.07-.68.06-.91.17-.54.3-.77.58-.32.71-.56.19-.52.32-.76.33-.46.45-.69-.19-.73-.08-1,.59-.34.7-.58.64-.32.75-.55-.25-.76-.15-1,.61-.38.7-.59c.21-.48-.17-.35.23-.42s.32,0,.76.06.43,0,.87.08.42.18.85.23.51-.54.94-.49.4.2.82.35.46,0,.79.19.05.64.38.86.63-.23,1,0,.35.19.68.41,0,.67.37.89.46,0,.79.24.28.3.61.52.6-.18.93,0-.11.91.22,1.13.46,0,.79.26.74-.31,1,0,0,.62.24.91.53.06.79.36.25.31.52.6.42.16.69.46.2.35.46.64-.24.76,0,1.06.6,0,.87.29.48.1.75.4.22.34.49.63,0,.56.26.85.48.11.75.41,0,.56.25.86.38.21.65.52.1.47.37.78.83-.17,1.1.14-.39.89-.12,1.21.25.32.53.63.49.12.76.43.32.28.6.59.07.48.35.8.64,0,.92.29-.21.74.06,1,.59,0,.86.35.65,0,.92.3-.1.64.18.95.32.27.59.59.23.36.5.67.63,0,.91.32,0,.53.3.86-.22.46,0,.91c.11.21.36.38.51.66s.15.52.29.78.47.35.61.6.62.28.75.53-.39.82-.25,1.07.7.23.83.48-.09.66.05.91.14.54.27.78,1,.1,1.09.35,0,.6.17.84.19.52.32.76.7.24.83.49-.56.92-.43,1.16.76.22.89.46.55.33.68.57-.15.71,0,1,.18.54.31.78.27.49.4.73.68.27.81.51.22.51.35.76.41.41.54.65.07.59.19.83-.16.71,0,.94.61.3.74.54.2.52.33.75.57.33.69.56-.61.9-.49,1.16.34.42.46.68.92.18,1,.43.18.52.29.78.24.49.34.75-.43.76-.33,1,.61.34.71.6.28.47.38.73-.44.75-.34,1,.71.31.81.57.09.54.18.8,0,.57.12.83.12.53.21.79.33.46.42.72.28.48.37.74.69.35.78.61-.42.73-.33,1,.42.43.51.69.43.44.52.69-.52.76-.43,1,.24.5.33.75.28.49.36.75.62.38.71.63-.28.67-.2.93,0,.59.06.84.62.39.71.64.28.49.36.75.13.54.21.8-.38.7-.3.95.74.36.81.6-.26.69-.18.93.35.51.41.72c.16.5.18.37.29.76s-.29.38-.16.9c0,.23.38.44.45.75s.2.5.27.79.56.42.63.71,0,.56,0,.84-.15.6-.09.88.27.5.33.78.4.48.46.75-.55.7-.49,1,.31.5.37.77.36.49.42.76.41.48.47.75-.2.62-.14.89.48.47.54.74-.59.71-.53,1,.78.4.84.67-.74.75-.69,1,1,.37,1,.63-.64.73-.58,1,.45.49.5.74.15.5.2.78.53.45.58.72-.52.63-.48.9.39.49.43.76-.38.59-.34.85.87.44.9.71,0,.55,0,.82-.41.59-.38.86-.28.58-.25.85.68.48.71.74-.52.6-.5.86.7.49.73.75.12.55.15.8.12.57.14.8c0,.5-.19.41-.15.81s-.25.42-.2.82,0,.39.07.78.68.31.73.7-.65.49-.6.88.17.38.22.77-.15.42-.1.82.45.34.51.73l.1.79c.05.39,0,.4,0,.8s.45.34.51.73-.77.51-.72.9.33.36.38.75-.15.43-.1.82.86.29.91.69-.22.43-.16.82.14.39.19.78-.15.42-.1.82.44.35.49.74-.17.43-.11.83-.48.54-.31.91.46-.1,1-.42c.18-.12.14-.69.42-.87s.55-.11.82-.27.59,0,.87-.05a5.78,5.78,0,0,1,.74-.26c.25-.05.53.13.82.1s.49-.28.77-.29h.8c.26,0,.52.15.8.16s.53-.09.81-.06.61-.55.89-.51.45.59.73.64.44.54.72.59.69-.77,1-.72.4.69.68.76.6-.22.87-.15a5.54,5.54,0,0,1,.78.27c.25.1.65,0,.89.09s.3.59.52.75.35.42.56.59.44.32.63.51,0,.72.18.92a.82.82,0,0,0,.4.18l4.26,8.1c.17.48.7,1.29,1,1s-.39-.85-.18-1.28.14-.45.34-.88.8-.15,1-.57-.08-.41-.13-.64l6.92-8.32s5.46-13,8.5-37S756.24,90.06,743.32,69.28ZM539.91,57.48c-.17,0-.3-.29-.44-.52l1.2.4A5.66,5.66,0,0,1,539.91,57.48Zm-20,123.6a1.94,1.94,0,0,1,.36.11A.41.41,0,0,1,519.94,181.08ZM645.71,71.68a.4.4,0,0,0-.34,0c.14-.21.26-.45.47-.39C645.83,71.44,645.71,71.53,645.71,71.68Z"/><path class="cls-7" d="M577.15,219.26c0,.57.07.57,0,1.13a6.85,6.85,0,0,1-.24,1.11c-.12.55-.19.53-.32,1.08s0,.59-.18,1.12a8.71,8.71,0,0,1-.49,1c-.23.52-.17.55-.42,1.05a5.91,5.91,0,0,1-.64.93c-.31.47-.32.47-.65.92a6.63,6.63,0,0,1-.65.92c-.39.42-.43.36-.84.75s-.39.4-.8.79a5.37,5.37,0,0,1-.85.73c-.47.32-.51.25-1,.56s-.4.42-.89.69a5.63,5.63,0,0,1-1,.47c-.53.19-.58.06-1.1.27s-.45.41-1,.57-.58,0-1.14.12-.55.09-1.11.18a5.22,5.22,0,0,1-1.11.16,8.47,8.47,0,0,1-1.13-.06c-.56,0-.56-.06-1.12-.13s-.56,0-1.11-.14a10.43,10.43,0,0,1-1.12-.17,8.39,8.39,0,0,1-1.08-.33,6.74,6.74,0,0,1-1.06-.39c-.51-.25-.45-.35-1-.62s-.52-.22-1-.5a4.86,4.86,0,0,1-.93-.62c-.44-.36-.38-.43-.82-.78a10.05,10.05,0,0,1-.89-.69,7.51,7.51,0,0,1-.7-.88c-.37-.43-.48-.33-.81-.79s-.22-.52-.52-1-.37-.43-.66-.92a5.52,5.52,0,0,1-.42-1c-.21-.52-.23-.51-.44-1a6.75,6.75,0,0,1-.44-1c-.15-.55,0-.58-.1-1.13s-.27-.53-.35-1.08a4.34,4.34,0,0,1,0-1.14,11,11,0,0,1,.1-1.13c0-.56,0-.56.08-1.11s.13-.55.23-1.1,0-.58.1-1.13a6.12,6.12,0,0,1,.36-1.07,6.74,6.74,0,0,1,.39-1.06c.25-.5.28-.48.56-1s.34-.45.61-.94.12-.6.45-1.05.5-.32.88-.74.25-.52.62-.95a4.61,4.61,0,0,1,.85-.74c.44-.36.47-.31.92-.65s.38-.45.85-.76.56-.15,1.07-.4.44-.37,1-.59a6.67,6.67,0,0,1,1-.4c.54-.17.56-.09,1.1-.24s.52-.23,1.06-.36a6.1,6.1,0,0,1,1.12-.19,7,7,0,0,1,1.12,0c.57,0,.57,0,1.13,0a8.34,8.34,0,0,1,1.12,0,8.66,8.66,0,0,1,1.12.17,11.12,11.12,0,0,1,1.07.35,10,10,0,0,1,1.06.33c.53.19.56.11,1.08.33a7.83,7.83,0,0,1,1,.49c.49.26.47.3.95.58s.49.29,1,.59a7.24,7.24,0,0,1,.9.67,6.07,6.07,0,0,1,.88.71c.39.41.31.48.68.91s.37.42.71.87a7.28,7.28,0,0,1,.65.92,9.53,9.53,0,0,1,.62.94,5,5,0,0,1,.41,1.05c.2.53.17.54.35,1.07s.28.5.44,1a7,7,0,0,1,.28,1.09c.1.56,0,.57.12,1.12s.14.56.19,1.12S577.18,218.7,577.15,219.26Z"/><path class="cls-4" d="M711.69,229.38c-5.43,8.85-12.92,16.1-20.84,22.64a129.8,129.8,0,0,1-26,16.7,106.89,106.89,0,0,1-29.57,9.37A96.08,96.08,0,0,1,604.2,278a111.32,111.32,0,0,1-29.56-9.47A91.79,91.79,0,0,1,549,250.86a66.15,66.15,0,0,1-9.8-12.4,57.78,57.78,0,0,1-8.4-30.15,52.59,52.59,0,0,1,.56-7.83,43.09,43.09,0,0,1,1.74-7.74,1.64,1.64,0,0,1,3.17.85l0,.1a50.5,50.5,0,0,0-.88,7.18,63.66,63.66,0,0,0,0,7.31A60.64,60.64,0,0,0,538,222.42a59.16,59.16,0,0,0,15,24.37,86,86,0,0,0,24.18,16.36,105.58,105.58,0,0,0,28,9,93.91,93.91,0,0,0,29.27.3,101.16,101.16,0,0,0,28.11-8.63A125,125,0,0,0,687.62,248c3.87-3.1,7.54-6.45,11.08-9.92s7-7,10.36-10.7h0a1.65,1.65,0,0,1,2.62,2Z"/><path class="cls-4" d="M665.25,63.78c.91,2.07.28,3.74-.41,5.3a24.59,24.59,0,0,1-1.1,2.32c-.39.76-.8,1.51-1.24,2.25-1.82,2.89-3.87,5.6-5.9,8.28-1,1.33-2,2.73-3.06,4s-2,2.72-3.15,3.94-2.18,2.57-3.36,3.79-2.43,2.33-3.68,3.46-2.65,2.09-4,3.12l-2,1.51c-.7.46-1.43.89-2.14,1.34l-4.27,2.69q-2.22,1.18-4.4,2.44c-.74.41-1.46.85-2.17,1.3s-1.47.83-2.18,1.28c-1.45.89-2.89,1.83-4.39,2.65a12.63,12.63,0,0,1-2.33,1,20.26,20.26,0,0,1-2.45.71,12.48,12.48,0,0,1-5.25.15.66.66,0,0,1-.52-.79.68.68,0,0,1,.15-.32l0,0c2.58-2.87,5.65-3.72,8.76-4.72,1.55-.51,3.15-.89,4.75-1.34.8-.22,1.59-.46,2.36-.75s1.49-.69,2.21-1.07q2.19-1.12,4.35-2.31l4.06-2.78c.67-.47,1.36-.92,2-1.41l1.89-1.57,1.91-1.54a23.64,23.64,0,0,0,1.87-1.58c4.9-4.28,9.77-8.81,13.31-14.36A55.06,55.06,0,0,0,659.3,72c.59-1.51,1.26-3,1.84-4.47a17.91,17.91,0,0,1,1-2.18,5.88,5.88,0,0,1,2-1.88l.08,0a.75.75,0,0,1,1,.27A.2.2,0,0,1,665.25,63.78Z"/><path class="cls-4" d="M652.88,58.08c.43,2.41-.53,4.13-1.5,5.82a57.62,57.62,0,0,1-3.06,5c-2.18,3.24-4.58,6.31-6.79,9.5-4.47,6.32-8.51,13-13.45,19a219.16,219.16,0,0,1-16.16,16.81c-3,2.47-5.38,5.7-8.46,8.21a19,19,0,0,1-10.68,5.09.65.65,0,0,1-.71-.57.75.75,0,0,1,.1-.42l0,0c2.35-3.63,5.59-5.34,8.72-7.52a59.84,59.84,0,0,0,9.53-6.35c5.76-5.07,10.67-11,15.56-16.89s9.81-11.84,13.79-18.43c2-3.27,3.7-6.76,5.41-10.19.43-.86.87-1.71,1.32-2.56s.88-1.69,1.36-2.52c.89-1.7,1.74-3.38,3.91-4.42h0a.74.74,0,0,1,1,.34A.7.7,0,0,1,652.88,58.08Z"/><path class="cls-4" d="M715.31,185.09a19.31,19.31,0,0,1,3.73-7.43,17.32,17.32,0,0,1,6.56-5.59l1-.43c.36-.12.75-.19,1.12-.29a9.91,9.91,0,0,1,2.31-.25,12.5,12.5,0,0,1,4.42.85,18.11,18.11,0,0,1,7.12,5,16.91,16.91,0,0,1,3.94,7.78,17.89,17.89,0,0,1-.52,8.67,27.6,27.6,0,0,1-9.76,13.3.87.87,0,0,1-1.23-.16.86.86,0,0,1,0-1.09v0c3.35-4,6.57-8.17,8-12.91a14.77,14.77,0,0,0,.37-7.16,13.89,13.89,0,0,0-3.22-6.34c-3.14-3.54-8.31-6.2-12.52-4.26a14.69,14.69,0,0,0-5.55,4.62c-1.57,2-2.78,4.28-4.26,6.4l0,.05a.88.88,0,0,1-1.59-.69Z"/><path class="cls-4" d="M611.58,199.45c.5-.08.51.09.61.21l.28.37a7.8,7.8,0,0,1,.5.77,6.35,6.35,0,0,1,.38.84,1,1,0,0,1-.12,1.08,1.57,1.57,0,0,1-1.41.71,1,1,0,0,1-.94-.55,6.23,6.23,0,0,1-.44-.8,9,9,0,0,1-.33-.86l-.13-.45c0-.15-.17-.26.19-.61A2.64,2.64,0,0,1,611.58,199.45Z"/><path class="cls-4" d="M588.48,181.76c0,.42-.1.41-.13.83s0,.42-.05.85,0,.41-.07.84,0,.42-.06.84a4.52,4.52,0,0,1-.17.83c-.09.41-.07.42-.15.83s0,.43-.1.85a7.53,7.53,0,0,1-.24.81,7,7,0,0,1-.22.82c-.16.4-.21.38-.38.77s-.12.4-.29.79-.19.38-.37.76-.17.39-.37.76-.22.36-.43.72a5,5,0,0,1-.47.72,3.73,3.73,0,0,1-.61.58c-.31.29-.26.34-.59.61a2.47,2.47,0,0,1-.69.51,2.44,2.44,0,0,1-.81.23,4,4,0,0,1-.82.16,2.43,2.43,0,0,1-.85,0,2.19,2.19,0,0,1-.82-.26,2.56,2.56,0,0,1-.75-.43c-.33-.27-.27-.33-.56-.64a8.27,8.27,0,0,1-.56-.64c-.28-.33-.37-.28-.57-.66s0-.47-.2-.85-.27-.34-.47-.72a6,6,0,0,1-.36-.77,6.44,6.44,0,0,1-.45-1.65c-.09-.41-.13-.4-.23-.82a7.75,7.75,0,0,1-.21-.83c-.08-.42,0-.43-.09-.85a8.3,8.3,0,0,0-.22-.82,7.76,7.76,0,0,1-.15-.84,4.85,4.85,0,0,1-.13-.85c0-.43.09-.43.08-.86s-.1-.42-.13-.85,0-.43,0-.86a8.12,8.12,0,0,1-.07-.85c0-.44,0-.44,0-.87s.07-.44.08-.87a6.31,6.31,0,0,1,0-.87c0-.44,0-.44.1-.87s.15-.43.18-.86-.07-.44,0-.88a6.45,6.45,0,0,1,.15-.86c.08-.43.12-.42.2-.84s.09-.43.18-.85,0-.47.08-.89.25-.37.41-.78a5.13,5.13,0,0,1,.27-.84c.19-.39.26-.34.48-.73s.09-.45.35-.81.39-.24.71-.54.29-.31.62-.59a2.89,2.89,0,0,1,.67-.54,2.36,2.36,0,0,1,.8-.34,4.17,4.17,0,0,1,.86-.14,7.9,7.9,0,0,1,.85-.07,8.42,8.42,0,0,1,.87,0,2.76,2.76,0,0,1,.85.15,3.25,3.25,0,0,1,.76.4c.39.21.47.09.82.35s.28.35.56.68a3,3,0,0,1,.56.67c.23.38.14.42.35.8s.32.33.51.73a3.92,3.92,0,0,1,.21.85,8,8,0,0,0,.32.81,5.77,5.77,0,0,1,.23.84c.1.43,0,.44.12.87s.12.42.23.85a3.1,3.1,0,0,1,.2.85c0,.44-.08.44-.07.88s.06.44.08.87,0,.44.08.87a8.79,8.79,0,0,1,.15.87,8.42,8.42,0,0,1,0,.87c0,.44,0,.44,0,.88A5.27,5.27,0,0,1,588.48,181.76Z"/><path class="cls-4" d="M638.9,176.9a6,6,0,0,0,0,.85c0,.42.06.42.12.83a8.28,8.28,0,0,0,.16.84c.09.41.1.41.21.82a7.58,7.58,0,0,1,.15.83,8.37,8.37,0,0,0,.23.82c.13.4.18.38.34.78s.1.41.24.8.2.38.33.78.08.42.23.82a7.63,7.63,0,0,0,.39.75,5.39,5.39,0,0,0,.38.76c.22.36.23.35.47.7a4.79,4.79,0,0,0,.49.69c.28.32.28.32.57.62s.24.36.55.65a2.89,2.89,0,0,0,.7.48,5.22,5.22,0,0,0,.75.37,3.11,3.11,0,0,0,.76.36,1.84,1.84,0,0,0,.84.08,3.91,3.91,0,0,0,1.6-.47,2.75,2.75,0,0,0,.66-.52c.32-.28.37-.23.63-.56a3.36,3.36,0,0,0,.47-.71c.2-.37.09-.43.31-.79s.4-.28.57-.67a4.89,4.89,0,0,0,.2-.84c.11-.41.09-.41.21-.82s.11-.41.22-.82.17-.39.28-.81a7.76,7.76,0,0,0,.15-.84c.07-.42,0-.42.11-.84a8.39,8.39,0,0,0,.18-.84,4,4,0,0,0,0-.85c0-.43,0-.43,0-.85a8.23,8.23,0,0,1,0-.86c0-.43.15-.42.17-.85a4.93,4.93,0,0,0-.1-.85,8.22,8.22,0,0,0,0-.86c-.05-.43-.08-.42-.11-.85s0-.43-.08-.87,0-.44,0-.87a8.41,8.41,0,0,1-.15-.85c0-.44-.05-.44-.09-.87a6.4,6.4,0,0,0,0-.88c-.09-.43-.18-.4-.28-.83s-.08-.43-.17-.86a6.35,6.35,0,0,0-.16-.85,7.29,7.29,0,0,0-.26-.83c-.15-.41-.28-.37-.43-.78s0-.45-.2-.85-.25-.36-.45-.75-.11-.43-.36-.79-.35-.27-.64-.61-.14-.45-.45-.77a2,2,0,0,0-.71-.52,4.69,4.69,0,0,0-.8-.34,6.15,6.15,0,0,0-.82-.29,3.59,3.59,0,0,0-.84-.22,3.71,3.71,0,0,0-.88,0,2.85,2.85,0,0,0-.87.11,3.61,3.61,0,0,0-.85.25,2.5,2.5,0,0,0-.8.35c-.36.26-.26.38-.56.7s-.36.25-.63.59-.2.39-.44.74-.33.32-.51.72-.05.44-.2.86-.22.38-.37.79a3.56,3.56,0,0,0-.18.86c-.07.43-.08.42-.17.86s-.14.41-.2.85a5.18,5.18,0,0,0,0,.88,4.24,4.24,0,0,1,0,.87c-.05.44-.16.43-.2.86a15.52,15.52,0,0,0,0,1.76c0,.44.11.43.15.87s0,.43,0,.86.06.44.11.87A8.82,8.82,0,0,1,638.9,176.9Z"/><path class="cls-4" d="M661.24,297.45c-.53.44-.78.34-1,.23l-.76-.27c-.52-.17-1-.39-1.51-.59s-1-.47-1.43-.73a13.13,13.13,0,0,1-1.36-.88l-.48-.41a1.88,1.88,0,0,1-.63-1.3c-.18-4.07-.34-8.14-.45-12.21s-.19-8.14-.17-12.22a1.24,1.24,0,0,1,2.47-.15c.5,4.05.9,8.1,1.28,12.16s.69,8.11,1,12.17l-1.11-1.7a12.09,12.09,0,0,1,1.5.61c.48.22,1,.48,1.42.75s.91.57,1.35.89l.66.47c.23.15.45.3.4,1A3.22,3.22,0,0,1,661.24,297.45Z"/><path class="cls-4" d="M695.2,304.4a25.6,25.6,0,0,1,6.4.36,40.49,40.49,0,0,1,6.07,1.51c4,1.29,7.92,2.63,11.8,4.17s7.74,3.18,11.52,5a96.6,96.6,0,0,1,11.06,6.22,37.38,37.38,0,0,1,5.1,4.08,24.32,24.32,0,0,1,3.85,5.36,94.49,94.49,0,0,1,5.21,11.5c1.5,3.9,2.9,7.83,4.17,11.79s2.49,7.94,3.55,12c4.34,16.06,7,32.45,10,48.74.77,4.07,1.47,8.15,2.43,12.19s2,8.07,2.95,12.12a98.16,98.16,0,0,1,2.05,12.27,44.26,44.26,0,0,1-.39,12.61.84.84,0,0,1-1.58.2,48.71,48.71,0,0,1-3.81-12,117.4,117.4,0,0,1-1.65-12.27c-.35-4.12-.58-8.27-1-12.39s-1.1-8.19-1.78-12.27-1.45-8.13-2.29-12.17-1.68-8.09-2.59-12.12l-2.76-12.06-2.88-12a227.73,227.73,0,0,0-6.82-23.69,62.57,62.57,0,0,0-5.18-11A20.33,20.33,0,0,0,745,328a29.34,29.34,0,0,0-4.83-3.34,91.91,91.91,0,0,0-11-5.15c-3.78-1.51-7.63-2.9-11.49-4.27s-7.75-2.69-11.65-4a51.85,51.85,0,0,1-5.76-2.23,31.38,31.38,0,0,1-5.5-3.15h0a.85.85,0,0,1-.17-1.18A.81.81,0,0,1,695.2,304.4Z"/><path class="cls-4" d="M567.71,301.75c-4.22,3.22-8.84,5.17-13.53,7s-9.27,3.86-13.82,5.94a129.84,129.84,0,0,0-13.27,6.86,52.27,52.27,0,0,0-6,4.2,21.06,21.06,0,0,0-4.79,5.17l0,.09-.09.13a32.64,32.64,0,0,0-4.52,7.1,77.78,77.78,0,0,0-3.31,8c-1.92,5.48-3.47,11.1-4.86,16.76-2.81,11.31-5.31,22.71-7.76,34.15-1.17,5.72-2.33,11.46-3.3,17.22s-1.94,11.54-2.35,17.4-.64,11.72-1.42,17.51a76.9,76.9,0,0,1-1.56,8.63,41.92,41.92,0,0,1-2.93,8.47.86.86,0,0,1-1.13.39.9.9,0,0,1-.45-.58,38.62,38.62,0,0,1-.72-9,67.6,67.6,0,0,1,.82-8.77c.84-5.82,2.34-11.53,3.7-17.26s2.26-11.51,3.3-17.29l3-17.34a325.36,325.36,0,0,1,7.68-34.41c1.66-5.65,3.47-11.26,5.56-16.8,1-2.76,2.13-5.52,3.39-8.23a44.21,44.21,0,0,1,4.51-7.92l-.14.22a26.37,26.37,0,0,1,5.11-6.3,56.48,56.48,0,0,1,6.13-4.95,113.9,113.9,0,0,1,13.3-8c4.58-2.35,9.27-4.46,14-6.36s9.62-3.58,15-3.58a.83.83,0,0,1,.83.83.84.84,0,0,1-.32.66Z"/><path class="cls-4" d="M674.94,67.85c3,.24,4.93,2,6.77,3.7,1,.82,1.81,1.77,2.69,2.67a31.94,31.94,0,0,1,2.5,2.84,139.48,139.48,0,0,1,8.73,12.22c5.43,8.32,10.58,16.89,14.39,26.1l2.7,7c.8,2.35,1.47,4.75,2.21,7.12L716,133c.4,1.17.61,2.4.94,3.6q.91,3.62,1.89,7.2c.16.6.32,1.2.51,1.8l.42,1.81c.32,1.2.62,2.4,1,3.6.7,2.39,1.44,4.79,2.06,7.21.93,4.89,1.59,9.88.42,15a.65.65,0,0,1-.76.47.67.67,0,0,1-.41-.32l0,0c-2.48-4.69-3-9.5-3.47-14.39-.3-2.43-.49-4.88-.73-7.33a44.57,44.57,0,0,0-1.12-7.29,128.45,128.45,0,0,0-4-14.18c-.82-2.31-1.56-4.65-2.44-6.94l-2.75-6.81c-3.85-9-7.82-18-13.64-25.95-.73-1-1.48-2-2.24-2.91-.38-.48-.75-1-1.15-1.43l-1.24-1.35-2.47-2.7c-.83-.89-1.74-1.7-2.58-2.57-1.69-1.75-3.5-3.34-5.24-5s-3.6-3.09-4.72-5.63l0-.06a.67.67,0,0,1,.34-.89A.72.72,0,0,1,674.94,67.85Z"/><path class="cls-4" d="M599,66.22c-.23,2.47-1.62,3.9-3,5.34s-2.77,2.84-4.25,4.18c-2.94,2.68-6,5.19-9,7.87-5.87,5.31-11.27,11.15-17.42,16.18s-12.63,9.62-19.2,14.1c-1.63,1.15-3.26,2.28-4.87,3.49a49.08,49.08,0,0,1-4.93,3.53,29.6,29.6,0,0,1-5.46,2.65,17.2,17.2,0,0,1-6.18.76.64.64,0,0,1-.59-.69.61.61,0,0,1,.17-.39l0,0a17.51,17.51,0,0,1,4.85-3.57,53,53,0,0,1,5.19-2.53c1.82-.66,3.6-1.48,5.4-2.26.91-.38,1.78-.82,2.67-1.24s1.69-1,2.52-1.52c6.71-4.08,12.64-9.32,18.68-14.32s12.24-9.92,17.7-15.61c1.4-1.39,2.69-2.88,4-4.39l3.83-4.51c1.29-1.48,2.56-3,3.92-4.4s2.61-2.92,5-3.41h0a.74.74,0,0,1,.87.58A1.48,1.48,0,0,1,599,66.22Z"/><path class="cls-4" d="M714.11,35.28c-4.65-1.54-9.12-3.37-13.58-5.21s-8.87-3.78-13.4-5.44a224.32,224.32,0,0,0-27.61-8.57q-7-1.63-14.21-2.75c-4.78-.68-9.58-1.15-14.41-1.35a107.77,107.77,0,0,0-28.72,2.61c-2.36.49-4.68,1.21-7,1.86s-4.67,1.28-6.95,2.12l-6.86,2.36-6.74,2.68a250.5,250.5,0,0,0-26,12.92c-8.45,4.75,8.55,13.07-.55,16.89s16.66,10.32,6.8,10.54l-13.42-6.42-24.32,6a1,1,0,0,1,.58,1.37,1.2,1.2,0,0,1-.16.27l0,0a103.58,103.58,0,0,0-7.13,10c-2.22,3.47-4.3,7-6.3,10.63s-3.84,7.3-5.62,11-3.38,7.53-4.92,11.36l-1.69-2,10.43-2.86a1.76,1.76,0,0,1,1.88,2.75l-.21.28a11.23,11.23,0,0,0-.77,1.2,12.77,12.77,0,0,0-.72,1.54l-.34.79-.27.85a15.86,15.86,0,0,0-.5,1.7l-.42,1.74-.29,1.79c-.24,1.18-.3,2.41-.45,3.61a96,96,0,0,0,0,14.78q.3,3.72.7,7.45c.32,2.48.56,5,.93,7.46s.65,5,1.06,7.48.77,5,1,7.55v0a.6.6,0,0,1-1.16.28c-.92-2.39-1.72-4.82-2.52-7.25s-1.38-4.93-2-7.42-1-5-1.54-7.55c-.27-1.25-.35-2.55-.53-3.82s-.33-2.56-.45-3.85a79.78,79.78,0,0,1,.16-15.6,34.65,34.65,0,0,1,.65-3.91l.43-2,.57-1.93a19.78,19.78,0,0,1,.68-1.91l.36-1,.45-.94a19.63,19.63,0,0,1,1-1.85,11.43,11.43,0,0,1,1.44-1.89l1.67,3L492.56,109l-.1,0a1.43,1.43,0,0,1-1.7-1.11,1.37,1.37,0,0,1,.11-.92l2.69-5.64,2.79-5.59q2.82-5.58,5.85-11c2-3.64,4.15-7.23,6.41-10.73s10.12,11,12.82,7.67l9.26-8.12,1.45-11.53c-.59-.23,11.35-1.1,11.58-1.7a1.17,1.17,0,0,1,1-.72l.19-1.1c2.39-.21-16.38-.94-14-1.2L526.53,59c1.18-.21.36-2.11,1.51-2.45a61.73,61.73,0,0,0,6.43-2.08l1.32-3L540.32,50c8.86-3.73-1.52-11.05,7-15.72,2.14-1.17,4.27-2.36,6.45-3.47s4.31-2.3,6.54-3.32c4.39-2.16,8.89-4.1,13.42-5.94a210.53,210.53,0,0,1,28-8.84,103.65,103.65,0,0,1,14.53-2.32A133.7,133.7,0,0,1,631,9.77c4.91.08,9.8.44,14.69.92s9.72,1.3,14.54,2.24a193.11,193.11,0,0,1,28.33,8c9.14,3.5,18.43,7,26.18,13.35a.6.6,0,0,1-.57,1Z"/><path class="cls-4" d="M582.82,99.53a2.81,2.81,0,0,1,1.36,1.08,3.61,3.61,0,0,1,.61,1.4,4.21,4.21,0,0,1,.06,1.41l-.06.69-.15.64L584.3,106a10.06,10.06,0,0,1-.48,1.16,12.91,12.91,0,0,1-1.13,2.19c-.43.68-.89,1.34-1.33,2l-1.49,1.83c-1,1.24-2,2.33-3,3.51-.51.58-1,1.19-1.49,1.75s-1,1.13-1.54,1.7c-1,1.14-2,2.35-3,3.43l-3.13,3.35c-1.07,1.09-2.21,2.1-3.34,3.12s-2.27,2-3.45,3l-3.59,2.82-3.57,2.83q-1.8,1.38-3.57,2.82c-4.76,3.73-8,9.73-14.89,10.46a.68.68,0,0,1-.75-.61.72.72,0,0,1,0-.33v0c1.38-3.28,3.83-5,6.41-6.58a56.74,56.74,0,0,0,7.84-4.61c1.21-.89,2.41-1.81,3.6-2.74s2.28-2,3.42-3l3.39-3,3.32-3c4.45-4,9.14-7.86,12.72-12.66a24.26,24.26,0,0,0,2.39-3.75l1-2c.28-.66.53-1.33.83-2s.47-1.32.71-2a11.09,11.09,0,0,0,.53-1.9l.13-.46,0-.44a7.06,7.06,0,0,1,.19-.85,9.56,9.56,0,0,1,.83-1.85l.29-.54A.49.49,0,0,1,582.82,99.53Z"/><path class="cls-4" d="M523.38,183.75a3.37,3.37,0,0,1-2.45.72,11,11,0,0,0-2.22.33,6.63,6.63,0,0,0-3.81,2.63,9.74,9.74,0,0,0-1.13,2.23c-.12.4-.21.82-.31,1.23a7.58,7.58,0,0,0-.24,1.26,16.79,16.79,0,0,0-.2,2.53l0,1.24c0,.42.12.82.15,1.23a11.76,11.76,0,0,0,1.58,4.63,12.39,12.39,0,0,0,3.48,3.59,14.24,14.24,0,0,0,4.77,1.77,9.2,9.2,0,0,1,4.6,2.43l0,0a.47.47,0,0,1,0,.66.42.42,0,0,1-.14.09,6.31,6.31,0,0,1-5.55-.56c-1.66-.92-3-2.23-4.55-3.25a24,24,0,0,1-2.07-1.83,11.34,11.34,0,0,1-1-1l-.86-1.11a8.18,8.18,0,0,1-.73-1.2,6.91,6.91,0,0,1-.63-1.28l-.45-1.35a7.94,7.94,0,0,1-.26-1.39,9.49,9.49,0,0,1-.14-1.4l.08-1.4a13.77,13.77,0,0,1,.45-2.73,27.23,27.23,0,0,1,.77-2.63,20.77,20.77,0,0,1,1.19-2.53,9.72,9.72,0,0,1,4.1-4.13,7.56,7.56,0,0,1,2.94-.75A2.67,2.67,0,0,1,523.6,183a.53.53,0,0,1-.12.69Z"/><path class="cls-4" d="M725.61,44.86c3.38.47,5.72,2.54,7.88,4.63a54.75,54.75,0,0,1,6,6.74,85.78,85.78,0,0,1,5,7.47c1.49,2.59,2.93,5.19,4.25,7.85a108.49,108.49,0,0,1,10.87,33.74c.41,2.94.66,5.89.86,8.85l.15,4.44c0,1.48,0,3,0,4.44s-.06,3-.12,4.44-.11,3-.23,4.43c-.2,3-.44,5.88-.7,8.82-.65,5.85-.68,11.8-1.49,17.72a49.07,49.07,0,0,1-2,8.74c-.25.71-.52,1.42-.8,2.12s-.66,1.37-1,2.05a19.49,19.49,0,0,1-2.62,3.8.62.62,0,0,1-.87.07.62.62,0,0,1-.22-.52v-.05a85,85,0,0,1,1.38-8.63c.61-2.8,1.26-5.6,2-8.4,1.42-5.61,3-11.31,3.55-17.13a131.84,131.84,0,0,0-.42-34.83,128.65,128.65,0,0,0-3.52-17,74.93,74.93,0,0,0-6.55-16.11,74,74,0,0,0-10.18-14c-1.92-2.14-3.93-4.18-6-6.15s-4.23-3.73-5.75-6.5l0-.06a.66.66,0,0,1,.66-1Z"/><path class="cls-4" d="M748.75,362.59c1.92,2.13,1.8,4.21,1.74,6.29s-.19,4.17-.41,6.25c-.44,4.16-1.07,8.32-1.31,12.48-.53,8.34.13,16.69-.13,25s-1,16.66-.87,25c-.13,4.17.79,8.36,1.14,12.54s.2,8.35-2.34,12.46a.92.92,0,0,1-1.27.3.84.84,0,0,1-.32-.33c-2.37-4.22-2.2-8.39-1.8-12.55s1.64-8.31,1.69-12.48c.45-8.33,0-16.68.22-25s1.13-16.66,1-25c-.07-4.18-.51-8.36-.77-12.53-.12-2.09-.18-4.18-.14-6.26s0-4.17,2-6.22a1.1,1.1,0,0,1,1.55,0Z"/><path class="cls-4" d="M517.28,382.52c2,1.62,2,3.29,2,5a49.14,49.14,0,0,1-.17,5c-.27,3.33-.74,6.67-.82,10-.2,6.66.79,13.3.86,19.95s-.31,13.33.11,20c0,3.33,1.12,6.64,1.63,9.95s.53,6.65-1.85,10a1,1,0,0,1-1.38.24,1,1,0,0,1-.21-.21c-2.53-3.27-2.52-6.6-2.29-9.93s1.31-6.69,1.2-10c.13-6.66-.63-13.3-.76-20s.48-13.32,0-20c-.22-3.32-.83-6.64-1.25-10a49.11,49.11,0,0,1-.39-5c0-1.66-.16-3.33,1.77-5A1.23,1.23,0,0,1,517.28,382.52Z"/><path class="cls-4" d="M608.87,274.92c1.54,1.73,1.55,3.56,1.63,5.38s.12,3.65.11,5.47c-.06,3.66-.24,7.32-.09,11v0a.92.92,0,0,1-.78,1c-3.6.55-7.18,1.2-10.75,1.92l.13-1.95c2.49.73,5,1.37,7.5,2.14s5,1.53,7.43,2.33,4.93,1.67,7.39,2.49,4.93,1.66,7.41,2.42h-.63c3.13-1.17,6.27-2.31,9.35-3.61s6.11-2.75,9.17-4.1a99.27,99.27,0,0,1,9.36-3.61,40.31,40.31,0,0,1,9.94-2,.59.59,0,0,1,.62.55.62.62,0,0,1-.23.51,41.14,41.14,0,0,1-8.9,4.86,95.54,95.54,0,0,1-9.49,3.24c-3.21.94-6.46,1.78-9.66,2.76s-6.34,2.13-9.49,3.25h0a1,1,0,0,1-.62,0c-2.47-.8-5-1.52-7.46-2.26s-5-1.43-7.48-2.2-5-1.5-7.43-2.35-4.91-1.7-7.37-2.54h0a1,1,0,0,1,.18-1.93c3.6-.53,7.19-1.11,10.77-1.8l-.79,1c-.27-3.64-.88-7.26-1.36-10.88-.22-1.82-.43-3.63-.53-5.45s-.33-3.63,1-5.54a.73.73,0,0,1,1-.18Z"/><path class="cls-4" d="M588.67,223.48a4.29,4.29,0,0,1,2.27-.63,9.17,9.17,0,0,1,2,.37c.65.16,1.29.36,1.93.54s1.29.37,1.93.57a63.55,63.55,0,0,0,7.82,2.12c5.34,1,10.79.58,16.14.46,1.34-.07,2.68,0,4-.14l4-.29c1.34-.09,2.66-.36,4-.54l2-.34c.66-.13,1.3-.34,2-.51a24.54,24.54,0,0,0,3.8-1.35c1.21-.64,2.37-1.35,3.57-1.91.6-.28,1.22-.52,1.84-.75a13.2,13.2,0,0,1,1.85-.68,9.31,9.31,0,0,1,4.32-.2h0a.72.72,0,0,1,.57.84.92.92,0,0,1-.09.23,9.15,9.15,0,0,1-3.17,3.09,15.9,15.9,0,0,1-1.89.95,20.61,20.61,0,0,1-2,.58c-1.38.3-2.79.47-4.18.69a26.71,26.71,0,0,0-4.13.63c-5.42,1-10.85,2.24-16.39,2.36s-11-.67-16.5-1.09c-1.36-.16-2.75-.21-4.13-.29s-2.78-.16-4.16-.34a33.87,33.87,0,0,1-4.12-.74,4.56,4.56,0,0,1-3.62-2.51.84.84,0,0,1,.33-1.09Z"/><path class="cls-4" d="M772.38,63.63C785.08,62.41,795,49.81,795,35a1.26,1.26,0,0,1,1.28-1.24A1.24,1.24,0,0,1,797.6,35c-1.48,19.39,9.58,27.2,22.27,28.64a1.24,1.24,0,0,1,0,2.48c-11.27.84-20.6,10.46-22.67,23.4a1.3,1.3,0,0,1-2.55,0c-2-12.7-10.83-24.86-22.22-23.36-.65.08-1.16-.6-1.16-1.24A1.27,1.27,0,0,1,772.38,63.63Z"/><path class="cls-4" d="M761.16,22.46c6-.57,10.71-6.52,10.71-13.55a.6.6,0,0,1,.61-.59.59.59,0,0,1,.61.59c-.71,9.17,4.52,12.86,10.53,13.54a.58.58,0,0,1,.53.59.59.59,0,0,1-.56.58c-5.33.4-9.74,4.95-10.72,11.06a.6.6,0,0,1-.6.5.6.6,0,0,1-.6-.5c-1-6-5.12-11.75-10.51-11-.31,0-.54-.29-.54-.59A.6.6,0,0,1,761.16,22.46Z"/><path class="cls-6" d="M512.48,73.19s17-43.88,51.18-65c35.94-22.16,136.58,4.88,167.2,28.59C746.61,49,762.94,79.16,765.22,97.63c2.8,22.83-8.44,62.73-8.44,62.73S580.61,45.49,512.48,73.19Z"/><path class="cls-8" d="M509.14,83.3s17.27-48.65,50.55-71.1c35-23.64,141.29-6.59,175.2,28.85,13.79,14.4,24.74,37.88,27.77,56.23,3.74,22.69-5.83,63-5.83,63S576.06,52.8,509.14,83.3Z"/><path class="cls-9" d="M494.72,140.47s-44.16-14.51-17-51C498.06,62.26,549.88,69.56,579.55,78s119.37,52.75,131.73,58c0,0-134.93-41.9-170.58-29.1S494.72,140.47,494.72,140.47Z"/><path class="cls-10" d="M716.38,137.82s-2.26,10.16-37.9,6.87c-31.86-2.93-46.94-7.18-86.87-40.39C565.7,82.75,532.14,71,532.14,71S573.34,58.26,716.38,137.82Z"/><path class="cls-11" d="M729.73,56.33s-.26,44.6-11.31,66.94"/></g></g></svg>