<svg xmlns="http://www.w3.org/2000/svg" viewBox="0 0 419.73 423.35"><defs><style>.cls-1{fill:#fff;}.cls-2{fill:#5ce0de;}.cls-3{fill:#ce9b72;}.cls-4{fill:#231815;}.cls-5{fill:#ffdacc;}.cls-6{fill:#c8c9c9;}.cls-7{fill:#0a0a0a;}.cls-8{fill:#94dfff;}.cls-9{fill:#161616;}.cls-10{fill:#111;}.cls-11{fill:#fed;}.cls-12{fill:#cbb;}.cls-13{fill:#eed;}.cls-14{fill:#877;}.cls-15{fill:#786;}.cls-16{fill:#c66;opacity:0.2;}.cls-17{fill:#cdcbca;}.cls-18{fill:#b5b2b6;}</style></defs><g id="Capa_2" data-name="Capa 2"><g id="レイヤー_2" data-name="レイヤー 2"><path class="cls-1" d="M231.69,303.4l85,5.07-16.88-12.41-9-26.72s41-20.47,59.33-40.54a40.68,40.68,0,0,1,13.62-7.8l-2,20.93,27.5-11-21.22-14s9.26,1.12.45-8.18c7-2.69,11.1-4.2,11.1-4.2s6.79-7.9,9-12.29-.19-53.58-.19-53.58L338.21,66.93l-69.55-23s-100.56,57-99.55,58.73-7,68.86-7,68.86l10.49,28.21,3.24,28.66-4.33,7.22-.56,24,25.18-7.86s33.76,23.91,63.6,22.44L255.94,301Z"/><path class="cls-2" d="M372.84,395.87c0-.38-.2-.82-.28-1.35s-.16-.87-.23-1.37-.5-.83-.58-1.32,0-.92-.06-1.4-.2-.88-.29-1.36-.24-.88-.33-1.35.78-1.08.69-1.55-.24-.89-.33-1.36-.47-.84-.57-1.3-.18-.9-.28-1.37-.86-.75-1-1.21.72-1.11.61-1.57-.68-.78-.79-1.24.48-1.07.37-1.53-.35-.87-.46-1.33-1.23-.64-1.35-1.1.73-1.14.61-1.6-1.09-.66-1.22-1.12.93-1.21.81-1.67-1.13-.65-1.25-1.1.12-1,0-1.44,0-1-.09-1.42-1.05-.66-1.18-1.11.18-1,0-1.47-.32-.87-.46-1.32.24-1,.1-1.49-.24-.9-.39-1.35-.16-.92-.31-1.37-.92-.67-1.07-1.12-1-.65-1.14-1.09.22-1.06.07-1.5-.36-.86-.51-1.3.53-1.17.37-1.61-1.59-.44-1.75-.88.23-1.08.07-1.53-.81-.69-1-1.12-.39-.84-.57-1.27-.06-1-.24-1.4-.6-.74-.8-1.17-.31-.87-.51-1.29-.33-.87-.54-1.28.09-1.1-.14-1.51-.78-.64-1-1-.68-.68-.92-1.08-.44-.82-.68-1.21-.44-.83-.7-1.22.26-1.29,0-1.68-.91-.51-1.18-.89-.77-.6-1-1-.59-.73-.87-1.1-.09-1.12-.38-1.49-.76-.59-1.06-.95-.76-.58-1.06-.93-1-.35-1.32-.7.25-1.49-.06-1.84-1.37,0-1.69-.34,0-1.27-.36-1.6-.71-.62-1-.95-.52-.82-.85-1.14-.88-.44-1.22-.76-.92-.38-1.26-.69-.73-.6-1.08-.9-.46-.89-.81-1.19-1.29.07-1.65-.22-.41-1-.77-1.26-.36-1.06-.72-1.35-.82-.48-1.19-.76-1.23.08-1.61-.2-.16-1.37-.54-1.64-1.42.38-1.8.11-.29-1.23-.67-1.49-1.3.25-1.68,0-.79-.49-1.18-.73-.33-1.24-.71-1.48l-1.2-.73c-.42-.25-1.1,0-1.49-.24s-.31-1.36-.7-1.57-1.23.22-1.61,0-.6-.92-1-1.12-1.36.46-1.71.28c-.8-.4-.27-.93-.95-1s-.68-1-1.38-1-.7.64-1.4.64-.7.09-1.4.09-.7.74-1.4.74-.7-.46-1.4-.46-.7-.29-1.4-.29h-1.4c-.7,0-.7-.65-1.4-.65s-.69.17-1.39.17-.7.06-1.39.06-.7-.29-1.4-.29-.7,1.13-1.39,1.13-.7-.82-1.4-.82-.7,0-1.4,0-.7.79-1.41.79-.7.21-1.4.21-.7-.59-1.4-.59-.7-.28-1.4-.28-.7-.27-1.4-.27-.7.72-1.4.72-.69-.14-1.39-.14-.7,0-1.4,0-.7-.21-1.4-.21-.7-.09-1.4-.09-.7-.37-1.4-.37-.71,1.36-1.41,1.36-.7-.08-1.4-.08-.7-.49-1.4-.49-.71-.63-1.41-.63-.7.23-1.4.23-.7-.46-1.4-.46-.7,1-1.4,1-.71-.39-1.41-.39-.7-.24-1.4-.24-.7-.13-1.41-.13-.7,1.16-1.4,1.16-.7-.72-1.4-.72-.71.09-1.41.09-.7-.46-1.4-.46-.71.61-1.41.61-.7-.23-1.41-.23-.7-.56-1.4-.56-.7-.07-1.4-.07-.7,1.07-1.4,1.07-.7-.26-1.41-.26-.7-.69-1.4-.69-.7-.09-1.41-.09-.7,0-1.41,0-.7,1.13-1.4,1.13-.71-.11-1.41-.11-.71,0-1.41,0-.7-.22-1.41-.22-.7-.51-1.41-.51-.71.92-1.42.92-.7-.22-1.41-.21-.68.23-1.37.26-.74-1.12-1.43-1.09-.7,0-1.39,0-.68.46-1.38.49-.68.26-1.38.29-.7-.19-1.4-.16-.69.1-1.39.13-.66,1-1.35,1-.72-.52-1.42-.49-.71-.47-1.41-.44-.7-.15-1.4-.13-.66,1.05-1.36,1.08-.71-.23-1.41-.2-.85-.63-1.33-.12a1.43,1.43,0,0,0-.58,1.33c0,.7.21.7.21,1.4s-.36.71-.36,1.41.94.7.94,1.41a1,1,0,0,1-.08.41l-.72.19-1.2.86-1.05,1-.54.37-.08-.33-.06-1.18.39-1.17,0-1.18-.2-1.18.41-1.18-.4-1.18,0-1.14-.86.72-1.09.73-.7,1.08-1.2.61-.73,1-1.29.55-.64,1.13-1.37.47-.94.86-.83,1-1,.84-1,.82-.94.87-.94.87-.62,1.13-1,.82-.69,1.06-1.27.64-.66,1.07-.42,1.19-1.12.79-.5,1.15-.6,1.08-1.11.81-.44,1.17-.6,1.09-.76,1-.68,1-.76,1-.56,1.1-1.13.82-.68,1.06-.64,1.06-.61,1.08-.36,1.2-.56,1.1-1,.89-.74,1-.68,1.06-.46,1.14-.57,1.1-.54,1.12-.68,1.05-.74,1-.18,1.27-.9,1-.44,1.16-.58,1.1-.54,1.12-.2,1.24-.85,1-.34,1.17-.4,1.14-.55,1.09-.78,1-.23,1.19-.36,1.16-.14,1.22-.51,1.11-.61,1.1-.27,1.19-.31,1.17-.29,1.17-.08,1.22-.72,1.09.13,1.26-.56,1.12-.11,1.2,0,1.22-.69,1.11.21,1.25-.23,1.18-.76,1.1-.05,1.2.17,1.24-.21,1.18-.74,1.12.25,1.2.12,1.2.24,1.2-.38,1.24.19,1.2.26,1.21.1,1.21.31,1.19.68.81.86.72.56.77,1.26,0,1.37.5,1.39,0,.21,0,1.75,0,.34,0,.48.11,1.17-.29,1.55.29,1.1-.21h.36l1.39.26,1.34-.29,1.13,0,1.22.18.48.16,1.4-.08,1.4-.12,1.36-.12,1.21.32,1.72-.07,1.27.26,1.39-.34,1.39.24,1.39-.14,1.39.28,1.06-.21,1,.17.12,0,.57.15,1.4-.27,1.39.31,1.4,0,1.4-.19,1.4.21,1.4-.11h1.15l.38.08,1.65-.25h.33l1.57.28,1.78,0,1.35-.15h.16l0,0,.3,0,1.76.21a.63.63,0,0,0,.45.18c.71,0,.71-.2,1.41-.2s.71.1,1.42.1l1.42,0a.8.8,0,0,0,.64-.41h0l1.79.07h1.78l1.79.05,1.73,0-1.08-.55h.42c.71,0,.71.14,1.42.14s.71.34,1.41.34.71.51,1.42.51.71-1.32,1.42-1.32.7.16,1.41.16.7-.3,1.41-.3.7,1,1.41,1,.7-.16,1.41-.16.7.12,1.41.12.71-.26,1.41-.26.71-.38,1.42-.38.71.73,1.42.73.71-1,1.42-1,.71,1,1.41,1,.71-.48,1.42-.48.71.06,1.41.06.71.81,1.42.81.71-1.29,1.41-1.29.71.57,1.42.57.7-.3,1.41-.3.71.86,1.42.86.71-1.2,1.42-1.2.71.74,1.42.74.71.12,1.42.12.71-.83,1.41-.83.71,1.08,1.42,1.08.71-.32,1.42-.32.71-.61,1.42-.61.71.51,1.42.51.71-.22,1.42-.22h1.42c.71,0,.71.09,1.42.09s.71.56,1.42.56.71-1,1.42-1,.71.67,1.42.67.71.33,1.42.33.71-1.1,1.42-1.1.71.18,1.42.18.71.85,1.42.85.71-.82,1.42-.82.71,0,1.41,0h1.43c.71,0,.71.6,1.42.6s.71.2,1.42.2.71.06,1.43.06.71-.74,1.42-.74.71.11,1.43.11.71-.48,1.41-.48.72.71,1.43.71.72-.52,1.43-.52.72,1.09,1.43,1.09a2.82,2.82,0,0,0,1.48-.45l2.09-.1a3.77,3.77,0,0,0-.09.63c.66.2.89-.22,1.58-.22.33,0,.5-.25.67-.51l1.61-.08a.74.74,0,0,0,.48.16h1.39c.69,0,.69.37,1.38.37s.7.33,1.39.33.65-.75,1.31-.95c.19.17.25.26.49.27l-.16,0a.66.66,0,0,0,.6-.07l.5-.1c1.17-.23.39.86,1.64.16l.69-.4c.28.32.44.81.93.81a10.56,10.56,0,0,0,1.49-.1c0-.15,0-.13,0-.28.09.13.21-.41.3-.5h.06c.68.07.64.29,1.33.29s.68-.53,1.37-.53.69,1.41,1.37,1.41.69-.86,1.38-.86.69.62,1.38.62.69-.75,1.38-.75.76.6,1.42.4c0-.28.28-.61.47-.93l.55-.08.49-.09c.31.27.88.09,1.14.47.71.16.61.29,1.35.29s.73.65,1.47.65.74-.2,1.48-.2.74.23,1.48.23a3.7,3.7,0,0,0,1.52-.34.25.25,0,1,1,.39-.11,8.23,8.23,0,0,0,1.11-.23c.78.07.7-.31,1.71,0s1.53-.17,2.21.14a.83.83,0,0,0,.66.31,3.36,3.36,0,0,0,2.42.39c.89-.42,1.37.42,2,0s.37.79,1.73-.41-.16-.95,1.36-1.19a2.53,2.53,0,0,0-.16,1.13c.72.2.78-.4,1.53-.4s.74-.49,1.48-.49.74,1.27,1.49,1.27.74-.33,1.49-.33.74-.87,1.49-.87.74,1.24,1.49,1.24.83-.2,1.54-.43S373,396.79,372.84,395.87Zm-49.8.92h.06a.12.12,0,0,0,0,.1A.61.61,0,0,1,323,396.79Zm4.18-.11.18-.1.69,0Zm12.68-.48a.79.79,0,0,0,0-.2v0l.3,0A2.08,2.08,0,0,1,339.9,396.2Z"/><path class="cls-3" d="M370.8,172.82c-.3.09-.61.22-.86.29a1,1,0,0,0-.38.3l.19,0C370.26,173.48,370.48,173.05,370.8,172.82Z"/><path class="cls-3" d="M370.8,172.82a2.54,2.54,0,0,1,.54-.14A.65.65,0,0,0,370.8,172.82Z"/><path class="cls-3" d="M411.12,135.69c0-.43-.37-.87-.37-1.31s-.58-.85-.59-1.29.7-.87.68-1.31,0-.86-.07-1.3.35-.88.32-1.32-.36-.84-.39-1.28-.49-.83-.53-1.26.42-.91.38-1.34-.94-.77-1-1.2.28-.9.23-1.34.45-.93.39-1.37-.11-.86-.17-1.3-1.1-.7-1.17-1.13-.06-.86-.14-1.29-.05-.87-.13-1.3,0-.88-.12-1.31-.36-.81-.45-1.24-.08-.86-.17-1.29.33-1,.24-1.39-.59-.75-.69-1.18-.42-.78-.53-1.21.08-.9,0-1.33-.18-.84-.28-1.27.43-1,.32-1.43-.39-.8-.5-1.22-1.06-.61-1.17-1,.31-1,.19-1.4-.15-.87-.27-1.29-.41-.78-.53-1.2.17-1,0-1.38-.69-.7-.82-1.12-.53-.74-.66-1.16.28-1,.15-1.43-.28-.82-.41-1.24-.32-.81-.46-1.23-.63-.72-.77-1.14-.48-.76-.62-1.18-.37-.81-.52-1.23.5-1.09.35-1.5-.31-.82-.47-1.23-.42-.77-.59-1.17a4.11,4.11,0,0,0-.21-.42c-1.27-6.18-4.86-14.53-12.07-25.82-31-48.5-59.95-42.73-83.78-37.67-27.28-21.9-68-19.59-77.31-16s-59.4,17.06-95,94.32c-11.25,44.15,3.7,76.23,16.12,93.77a1.89,1.89,0,0,0,.19.44,4.36,4.36,0,0,0,.58.64l.41.56a6.51,6.51,0,0,0,.39,1.1c.12.18.34.18.56.17.89,1.17,1.75,2.25,2.58,3.26l-.27-.07c.26.34.51.89.78,1.22a1.3,1.3,0,0,0,.72.31c.47.55.93,1.08,1.37,1.57.11.38,0,1,.23,1.22s1,.2,1.32.51l.09.07c.48.5.93,1,1.34,1.38a1,1,0,0,0,.22.52,1.35,1.35,0,0,0,.54.25l.9.86c0,.35,0,.73.23.89s.9.22,1.24.46l-.36,1.45.39-1.43c.34.26.74.44,1.08.69l1,.73c.35.24.72.45,1.08.68s.86.2,1.23.41.52.81.9,1,.62.7,1,.88,1.15-.52,1.54-.36.63.72,1,.86.68.68,1.09.8,1.25,0,1.67.11c.23-.61-.73-.79-.71-1.44s.67-.63.69-1.28-.49-.67-.46-1.32.3-.64.33-1.29.36-.64.38-1.3-.84-.67-.82-1.33.4-.64.42-1.29.42-.64.44-1.28.05-.66.07-1.31-.42-.67-.4-1.32.38-.65.4-1.3-.53-.7-.46-1.35.63-.54.75-1.16.44-.55.56-1.17.07-.63.19-1.24-.12-.67,0-1.28-.42-.73-.3-1.35.76-.49.89-1.1-.22-.69-.1-1.31a5.34,5.34,0,0,1,.46-1.18c.32-.35.49-.74.78-1.1s.4-.89.69-1.26.34-.87.64-1.25c.37-.54,1.13,0,1.48-.59l.7-1.1c.35-.55.42-.51.78-1.06s-.22-.92.13-1.47.56-.42.91-1,.56-.43.91-1,0-.78.36-1.33.48-.47.83-1,.74-.3,1.09-.85-.36-1,0-1.56.81-.26,1.16-.81.06-.74.42-1.3.65-.36,1-.92.62-.38,1-.93.21-.65.56-1.2-.36-1,0-1.56.88-.22,1.23-.78-.11-.85.24-1.41.88-.21,1.24-.76-.11-.84.25-1.39.33-.57.68-1.13.77-.28,1.12-.84.52-.44.88-1-.13-.86.22-1.42.24-.62.6-1.18.48-.47.83-1,.75-.3,1.11-.85.55-.43.9-1-.43-1.06-.08-1.61.68-.35,1-.9.79-.27,1.15-.83-.16-.88.2-1.44.76-.29,1.12-.85.1-.72.46-1.28a5,5,0,0,1,.74-1.08c.43-.48.29-.42,1.07-.71.33-.13.89.1,1.35-.08s.49-.95.92-1.13.92.07,1.34-.11.93,0,1.34-.13.84-.19,1.24-.37.59-.74,1-.93.92,0,1.32-.23.43-1.05.83-1.24.95,0,1.35-.18.94,0,1.33-.21.57-.76,1-1,.79-.32,1.17-.53.55-.75.93-1,.74-.42,1.12-.63,1,.11,1.41-.1.6-.68,1-.9.93-.11,1.3-.33l1.1-.67c.37-.22.64-.6,1-.83s.39-1,.75-1.22,1.14.18,1.5-.06.39-1,.75-1.21,1-.06,1.35-.31.69-.51,1.05-.75.27-1.11.62-1.36,1.09,0,1.44-.21.51-.75.86-1,.9-.23,1.24-.49.73-.47,1.07-.73.8-.39,1.14-.66.44-.82.78-1.09,1-.19,1.29-.47.42-.84.75-1.13.27-1,.59-1.28.57-.64.89-.93.69-.51,1-.8.6-.61.92-.91.87-.33,1.17-.64.51-.7.82-1,1.07-.17,1.36-.48.12-1.08.41-1.4.4-.79.69-1.12.69-.53,1-.86.95-.31,1.23-.64.47-.73.74-1.06.81-.45,1.08-.78.65-.58.92-.92-.07-1.15.2-1.49,1-.29,1.29-.63.31-.84.57-1.19.63-.6.89-1,.56-.65.81-1,.53-.68.78-1-.22-1.22,0-1.57l.76-1c.24-.35.9-.42,1.14-.77s.21-.9.45-1.25,1.09-.31,1.33-.67.19-.91.42-1.26.74-.55,1-.91.54-.68.77-1,.43-.74.66-1.11.59-.65.82-1-.39-1.26-.17-1.62.54-.68.76-1,.43-.75.65-1.11,1.09-.36,1.31-.73.3-.84.52-1.21.25-.86.46-1.23.36-.8.57-1.17.52-.7.73-1.08.71-.6.92-1-.17-1.08,0-1.46.82-.54,1-.92.52-.7.72-1.08.06-.94.25-1.32.19-.88.38-1.25.28-.83.47-1.2.43-.75.62-1.12.56-.68.75-1.06,1.11-.41,1.3-.79-.6-1.25-.42-1.63.38-.78.55-1.15.65-.66.82-1,.21-.86.38-1.23,1.08-.48,1.24-.83,0-1,.17-1.33c.33-.75,0-1.59.59-1.45s.39.72.9,1.06.38.55.9.89a1.49,1.49,0,0,0,1.21.32c.56,0,.3-.41.72-.77s.4-.39.82-.75.51-.23,1-.38.27.19.61.94c.15.33.28.75.48,1.2s.54.66.74,1.09.37.74.56,1.16.14.86.33,1.27.46.71.65,1.12-.3,1.07-.12,1.48.8.57,1,1,.3.8.49,1.2.5.71.69,1.11-.17,1,0,1.42.64.64.82,1,1,.46,1.22.85-.15,1,0,1.41.53.69.72,1.08.57.68.76,1.07.25.83.44,1.22.46.74.65,1.13.34.8.53,1.18-.27,1.11-.08,1.5.78.58,1,1,.79.57,1,1,.14.9.34,1.28.47.74.66,1.12.42.76.62,1.14-.18,1.08,0,1.46.86.52,1.06.9.84.53,1.05.91-.45,1.25-.25,1.62,1,.43,1.23.79.11,1,.32,1.32.23.9.45,1.25.67.64.89,1,.38.85.61,1.17.53.8.78,1.08,1.27,0,1.54.17.59.7.94,1.06.53.68.82,1.06-.11,1.11.15,1.49,1.36.13,1.6.52-.44,1.27-.21,1.66,1.07.38,1.29.77.32.81.53,1.2.56.69.77,1.08.59.67.8,1.06-.14,1.06.06,1.45.65.64.86,1,.63.65.83,1,.05,1,.25,1.34.65.64.86,1,.58.69.78,1.08.2.88.41,1.27.25.86.46,1.24.23.88.44,1.26.95.47,1.17.85,0,1,.18,1.41.69.61.92,1,.12,1,.35,1.33.86.5,1.1.85-.08,1.15.17,1.5.5.76.76,1.09,1,.35,1.27.66.57.6.89,1,.47.7.78,1,.61.6.91,1,.65.57.94.91.38.81.68,1.15.69.54,1,.88.21,1,.5,1.29.74.5,1,.84.44.76.73,1.1.77.48,1,.82.53.69.81,1,1.09.22,1.37.56.12,1,.4,1.36,1,.32,1.25.66.07,1.07.35,1.41.66.58.94.91.3.89.59,1.22.5.72.79,1.06.71.54,1,.88,1,.28,1.3.62.14,1,.42,1.36.73.54,1,.87.54.7.82,1,.7.57,1,.9.74.52,1,.86,0,1.11.32,1.45.72.54,1,.87.55.69.83,1l.83,1c.29.34.56.69.83,1s.8.49,1.07.82.79.5,1.06.83,0,1.19.23,1.52.51.74.77,1.06.75.55,1,.86,1.06.31,1.31.62-.09,1.3.14,1.58a12.09,12.09,0,0,0,.83,1c.35.29.87.45,1.21.74s.54.75.88,1,1.09.13,1.43.43.86.39,1.2.7,0,1.29.38,1.59,1.2,0,1.53.34c.09.08,0,.48.07.44.58-.24.45-.29,1-.82a12.46,12.46,0,0,1,.83-1c.31-.26.81-.29,1.17-.56s.32-1,.68-1.22,1.09.17,1.47,0,.59-.63,1-.8.44-.41.64-.64c-.54-.14-.53-.66-1.18-.85-.28-.39-.41-.61-.68-1s-.81-.66-1.08-1.05c.56-.2.59.2,1.19.24s.58.26,1.17.3.59.24,1.18.28.65-.66,1.25-.62.72-.28,1.3-.09c.3.39.15,1.38.45,1.78s.58.12.88.52c-.28.23,0,.35-.38.33l0,0c.39.12.75.41,1.17.56s1-.16,1.39,0,.59.81,1,1,.63.63,1,.82,1.07-.17,1.45.05.68.41,1,.65c.1,0,0,0,.11,0s.59.11.72.31c.34.26,0,1.21.31,1.48a9.2,9.2,0,0,1,.81.85c.27.33,1.25.13,1.46.48s-.22,1-.09,1.41a4.93,4.93,0,0,1,.26,1.15,4.73,4.73,0,0,1-.11,1.17c-.07.39.64.79.48,1.2.22.37.19.4.46.63s.27.77.66.8c.1.64-.13.61-.22,1.25s-.1.64-.19,1.29.08.67,0,1.31-.39.61,0,1.14.35.46,1,.55c.05.09.06-.17.12-.07-.29.3-.2.9-.46,1.15s-.5.35-.76.58c-.2.73-.36.61-.27,1.36s.17-.07.83-.62c.28-.22.52-.6.9-.93s.47-.7.81-1,.84-.34,1.16-.67.25-.91.56-1.25.58-.61.87-.95.43-.74.71-1.08,1.07-.24,1.34-.59.48-.71.74-1.07.32-.83.58-1.19.85-.44,1.11-.81,0-1,.27-1.39.31-.81.55-1.19.3-.82.53-1.19,1.22-.31,1.45-.69c.29-.6.32-.6.59-1.21s.15-.67.43-1.28-.13-.8.15-1.41.66-.43.94-1-.49-1-.21-1.57,1.17-.21,1.44-.82-.11-.79.16-1.4-.25-.85,0-1.46.94-.31,1.22-.92.62-.46.9-1.07,0-.75.26-1.37.28-.61.57-1.22c.21-.38.64-.65.84-1.06s.17-.9.35-1.3.28-.84.45-1.26-.16-1,0-1.41.85-.63,1-1.05.27-.85.4-1.27-.12-1,0-1.38.41-.81.52-1.23-.12-.95,0-1.37.35-.83.45-1.25.63-.76.73-1.18.25-.87.35-1.28-.19-1-.1-1.38.34-.86.44-1.25.64-.75.73-1.18.25-.85.33-1.28-.15-.91-.08-1.34-.62-1-.57-1.4.25-.83.29-1.27.62-.81.66-1.24-.42-.9-.39-1.34.42-.84.44-1.28S411.11,136.12,411.12,135.69Zm-240.18,75c-.56-.09-1.27-.41-1.83-.51.84-.09.77-.33,1.56,0C171.08,210.27,171.08,210.62,170.94,210.67ZM269.13,77.72a.57.57,0,0,1,.27,0s0,.41,0,.43S269.21,77.93,269.13,77.72Zm96.66,26a.81.81,0,0,1-.07-.22s.43,0,.45,0S366,103.67,365.79,103.75Zm35.79,3.46c0,.14,0,.27,0,.4-.16-.16-.32-.33-.32-.5C401.28,107.14,401.56,107.19,401.58,107.21Z"/><path class="cls-4" d="M386.69,267.53a14.73,14.73,0,0,1,3.38,3.4c1,1.23,2,2.48,2.92,3.75,1.91,2.53,3.76,5.1,5.46,7.78s3.33,5.41,4.81,8.22a38.54,38.54,0,0,1,3.67,8.79.81.81,0,0,1-1.46.67v0c-1.79-2.61-3.15-5.38-4.67-8.1s-3.11-5.38-4.77-8-3.36-5.24-5.17-7.77c-.91-1.27-1.83-2.53-2.77-3.76a19.42,19.42,0,0,1-2.6-3.89v0a.84.84,0,0,1,1.22-1Z"/><path class="cls-4" d="M377.77,280.16a14.51,14.51,0,0,1,3.07,3.68c.88,1.32,1.75,2.65,2.59,4,1.67,2.69,3.3,5.41,4.76,8.23s2.84,5.68,4.07,8.61a38.67,38.67,0,0,1,2.89,9.07.81.81,0,0,1-1.51.54v0c-1.56-2.76-2.67-5.64-3.95-8.47s-2.63-5.63-4.05-8.39-2.89-5.51-4.48-8.19c-.79-1.35-1.59-2.68-2.42-4a19.18,19.18,0,0,1-2.25-4.1v0A.83.83,0,0,1,377,280,.85.85,0,0,1,377.77,280.16Z"/><path class="cls-3" d="M419.45,317c-.15-.46-.4-.87-.54-1.3s0-1-.11-1.43-.1-1-.23-1.4-1-.72-1.13-1.1a2.37,2.37,0,0,1,0-1.45,2.08,2.08,0,0,1-.85-1.09c-.13-.35-.3-.76-.47-1.23s0-.89-.18-1.33.08-.94-.07-1.37-.81-.64-1-1.06-.26-.84-.41-1.26c-.23-.64-.07-.41-.41-1.28-.14-.34.26-1,.06-1.47s-.3-.81-.49-1.27-.89-.57-1.08-1-.31-.82-.5-1.26.13-1.08-.1-1.52-.84-.59-1.09-1-.37-.86-.63-1.27-.39-.84-.66-1.24-1-.47-1.23-.86-.49-.79-.77-1.17-.38-.87-.67-1.25-.52-.77-.81-1.14-.81-.54-1.11-.91,0-1.22-.27-1.58-.95-.43-1.25-.8-.91-.46-1.21-.82-.52-.78-.82-1.14-.52-.79-.83-1.14-.5-.8-.81-1.16-.82-.52-1.13-.88-.17-1.09-.49-1.45-.86-.47-1.18-.82-.39-.91-.7-1.25-1.13-.24-1.45-.59-.38-.92-.7-1.26-.87-.47-1.19-.81,0-1.28-.33-1.62-1.07-.29-1.39-.63-.64-.69-1-1-.55-.77-.87-1.11-.78-.56-1.11-.9-.3-1-.63-1.36-.68-.65-1-1-1.12-.21-1.45-.55-.27-1.07-.6-1.4-1.16-.17-1.49-.5-.22-1.12-.56-1.45-.59-.75-.92-1.07-1.18-.14-1.52-.47-.62-.71-.95-1-.6-.74-.93-1.06-.87-.46-1.21-.78-.11-1.26-.45-1.57-.84-.49-1.18-.81-.9-.42-1.24-.73-.77-.57-1.11-.88-.31-1.09-.66-1.39-.81-.52-1.16-.82-1.09-.19-1.44-.48-.27-1.17-.62-1.45-1.25,0-1.59-.26-.45-1-.79-1.28-.77-.64-1.11-.86-.85-.39-1.23-.63-.64-.71-1-.95-.82-.42-1.21-.65-.87-.34-1.26-.57-1.08.06-1.47-.16-.48-1-.87-1.25-.91-.26-1.3-.47-.94-.19-1.34-.39-.63-.8-1-1-.82-.44-1.21-.63-1.07.05-1.45-.14-.84-.43-1.22-.6-.64-1-1-1.13c-.79-.35-.57-.39-1.2-.65a14.09,14.09,0,0,0-1.39-.4c-.44-.13-1.07.5-1.54.42s-.82-.85-1.29-.89-1,.17-1.44.16-.92.45-1.39.47-.94-.2-1.41-.15-.91.22-1.36.31-1,0-1.43.07-1-.07-1.47.08-.72.79-1.13,1-1.08.06-1.46.31c-.53.33-.49.4-1,.73s-.51.37-1,.71-.29.71-.82,1-1.18.17-1.53.49-.4,1-.68,1.44a6.78,6.78,0,0,0-.91,1.22,5.7,5.7,0,0,0-.41,1.49c-.06.49.51,1,.59,1.46a5.45,5.45,0,0,0,.46,1.32c.2.44.07,1,.38,1.46s.9.45,1.29.8.15.56.82,1.17c.29.26.51.71.9,1.08s.87.37,1.24.71.48.82.84,1.15,1,.27,1.35.6.23,1.1.58,1.43.6.7,1,1,.69.6,1,.93.62.68,1,1,1.07.21,1.41.54.82.48,1.16.81.18,1.15.52,1.48,1.09.2,1.43.53.73.57,1.07.9.21,1.12.55,1.44,1,.25,1.38.57.76.55,1.09.88.37.95.7,1.27.59.73.92,1.06.85.45,1.18.78.48.85.81,1.18.88.43,1.21.76.49.83.82,1.16,1,.3,1.35.63.6.73.93,1.06.56.77.88,1.1.34,1,.67,1.31.6.72.93,1.06.78.54,1.11.87.78.56,1.1.89.52.8.84,1.14.73.59,1.05.93.4.91.72,1.25.76.57,1.07.91.43.89.74,1.23,1.19.19,1.5.54.24,1,.54,1.39,1,.4,1.27.75.67.68,1,1,.25,1,.54,1.39.9.49,1.18.84.25,1,.53,1.37.88.52,1.15.89.74.64,1,1,.57.78.82,1.16.11,1.06.34,1.44.36.88.55,1.27.71.7.91,1.11.47.83.67,1.23.19,1,.38,1.37.18,1,.37,1.37.8.68,1,1.08.21.95.4,1.35.53.81.71,1.21.21,1,.39,1.36.65.78.82,1.16.47.9.61,1.24c.43,1-.05.76.15,1.42.15.48.22,1,.39,1.42s1,.63,1.22,1-.07,1.22.19,1.59a8.37,8.37,0,0,0,1,1.16,3.47,3.47,0,0,0,1.43.56c.49.17.85-.09,1.27-.35a3.69,3.69,0,0,1,1.65-.24,2.92,2.92,0,0,1,1.66,0,2.59,2.59,0,0,1,1,1.38c.17.48.11,1.05.35,1.23a1.38,1.38,0,0,0,1.46-.06,4.64,4.64,0,0,0,.53-1.19c.21-.44.06-1.15.34-1.49a5.41,5.41,0,0,1,1.16-1,2,2,0,0,1,1.51,0,4.46,4.46,0,0,1,1.74.79c.09.14,0-.17.06-.26a3.38,3.38,0,0,1,1.65,0c.34.09.37-.08.75-.42a2.18,2.18,0,0,0,.64-.86c.23-.51,1-.7,1.46-.72a2.12,2.12,0,0,1,1.51.4c.33.29.5,1,1,1.19a6.46,6.46,0,0,0,1.53.37c.51,0,1-.59,1.46-.69a4,4,0,0,1,1.62-.07,13.93,13.93,0,0,1,1.39.7c.44.16.87.45,1.35.66s.67.81,1.13,1.05,1.09.06,1.52.33.92.43,1.33.72.7.89,1.09,1.06a3.6,3.6,0,0,0,1.52.48c.52-.06.63-.77.78-1.32a3.22,3.22,0,0,0,0-1.35A8,8,0,0,0,419.45,317Z"/><polygon class="cls-4" points="222.1 183.78 222.36 184.77 222.6 185.77 222.75 186.78 222.68 187.82 222.75 188.84 222.76 189.85 222.78 190.88 222.78 191.9 222.62 192.91 222.51 193.93 222.1 194.89 221.94 195.9 221.62 196.88 221.27 197.84 220.69 198.69 220.19 199.58 219.63 200.43 218.93 201.16 218.19 201.85 217.39 202.48 216.37 202.63 215.34 202.57 214.38 202.17 213.51 201.57 212.87 200.75 212.09 200.05 211.55 199.16 210.94 198.33 210.38 197.46 209.84 196.57 209.26 195.7 208.92 194.71 208.45 193.78 207.93 192.87 207.69 191.85 207.17 190.93 206.88 189.92 206.55 188.93 206.32 187.91 205.95 186.93 205.74 185.93 205.66 184.91 205.42 183.91 205.25 182.9 205.33 181.87 205.34 180.85 205.26 179.82 205.32 178.8 205.45 177.79 205.73 176.8 205.9 175.79 206.19 174.81 206.55 173.85 206.93 172.91 207.27 171.94 207.94 171.14 208.42 170.24 209.16 169.54 209.85 168.78 210.68 168.18 211.72 167.99 212.74 168.17 213.68 168.6 214.56 169.15 215.3 169.88 215.97 170.68 216.58 171.51 217.14 172.39 217.84 173.17 218.35 174.08 218.68 175.08 219.29 175.94 219.7 176.9 220.19 177.82 220.55 178.79 220.93 179.77 221.29 180.75 221.44 181.8 221.83 182.77 222.1 183.78"/><polygon class="cls-4" points="284.8 174.85 284.79 175.88 284.56 176.89 284.59 177.92 284.65 178.95 284.51 179.98 284.64 181 284.82 182.02 284.94 183.03 285.07 184.05 285.36 185.04 285.64 186.03 286.04 186.98 286.23 188 286.82 188.86 287.32 189.76 287.86 190.62 288.45 191.45 289.17 192.17 289.87 192.93 290.81 193.35 291.83 193.38 292.84 193.2 293.76 192.7 294.52 191.98 295.24 191.22 295.81 190.35 296.49 189.56 297.05 188.69 297.45 187.72 297.88 186.78 298.36 185.85 298.87 184.94 299.26 183.97 299.57 182.98 299.95 182.01 300.15 180.98 300.49 179.99 300.75 178.98 300.95 177.95 301.11 176.92 301.32 175.92 301.4 174.9 301.58 173.88 301.5 172.84 301.41 171.82 301.42 170.79 301.35 169.76 301.16 168.75 300.95 167.75 300.72 166.75 300.45 165.75 300.1 164.79 299.72 163.83 299.3 162.9 298.82 161.99 298.25 161.13 297.66 160.3 296.9 159.6 296.18 158.88 295.22 158.53 294.23 158.36 293.26 158.68 292.32 159.12 291.5 159.78 290.88 160.62 290.22 161.42 289.56 162.23 289.01 163.11 288.52 164.03 288.05 164.95 287.71 165.95 287.19 166.85 286.9 167.86 286.45 168.8 286.25 169.83 285.94 170.82 285.47 171.78 285.32 172.82 285.03 173.82 284.8 174.85"/><path class="cls-4" d="M178,193.91a64.67,64.67,0,0,0-1.17,7,67.87,67.87,0,0,0-.34,7.12,51,51,0,0,0,1.86,14,52.32,52.32,0,0,0,14.87,23.83,71,71,0,0,0,11.37,8.78c1,.67,2,1.31,3.09,1.89l3.16,1.79c2.18,1.07,4.29,2.25,6.54,3.18A114.59,114.59,0,0,0,245,270.17a94.17,94.17,0,0,0,28.83.33A91.45,91.45,0,0,0,288,267.37a100.13,100.13,0,0,0,13.57-5.15,111.14,111.14,0,0,0,12.8-6.91,144.8,144.8,0,0,0,12-8.31,139.77,139.77,0,0,0,21.22-20.12l0,0a1.61,1.61,0,0,1,2.56,1.94,108.08,108.08,0,0,1-20.54,22.27,117.12,117.12,0,0,1-25.72,16.22,104.79,104.79,0,0,1-14.28,5.46,96.46,96.46,0,0,1-14.95,3.35,100.18,100.18,0,0,1-30.58-.27A113,113,0,0,1,215,266.62c-2.33-1-4.56-2.26-6.83-3.41l-3.31-1.92c-1.12-.62-2.19-1.31-3.26-2a76.23,76.23,0,0,1-12.09-9.53c-7.43-7.14-13.37-16.2-16-26.33s-2.68-20.93,1.5-30.65a1.61,1.61,0,0,1,3,1Z"/><path class="cls-4" d="M175.86,228.37a4.85,4.85,0,0,1-.25,2.07c-.16.64-.46,1.19-.65,1.81l-.55,1.89-.46,2c-.53,2.62-1,5.29-1.28,8s-.53,5.43-.62,8.16-.08,5.47.07,8.18l-1.15-.79c4.14-1.48,8.23-3.09,12.37-4.59q3.09-1.16,6.23-2.16a14.3,14.3,0,0,1,6.58-1.11.4.4,0,0,1,.35.45.45.45,0,0,1-.12.25,14.4,14.4,0,0,1-5.93,3.06c-2.08.71-4.17,1.39-6.28,2-4.21,1.28-8.45,2.45-12.65,3.75h0a.85.85,0,0,1-1.07-.56.73.73,0,0,1,0-.25c0-2.78,0-5.52,0-8.29s.07-5.53.22-8.3a63.65,63.65,0,0,1,.95-8.32l.45-2.07.63-2.06a17.08,17.08,0,0,1,.87-2,4,4,0,0,1,1.79-1.5.42.42,0,0,1,.55.22.28.28,0,0,1,0,.13Z"/><polygon class="cls-5" points="223.13 226.5 223.05 227.53 222.88 228.56 222.5 229.54 222.23 230.54 221.84 231.5 221.36 232.41 220.84 233.31 220.33 234.22 219.56 234.94 218.92 235.76 218.15 236.46 217.28 237.03 216.43 237.61 215.5 238.07 214.56 238.5 213.63 238.99 212.64 239.3 211.6 239.41 210.57 239.54 209.54 239.66 208.5 239.64 207.47 239.53 206.44 239.39 205.43 239.14 204.43 238.84 203.49 238.4 202.54 237.97 201.71 237.34 200.86 236.76 200.05 236.11 199.3 235.4 198.63 234.61 197.91 233.85 197.39 232.96 196.89 232.05 196.44 231.12 195.99 230.18 195.7 229.18 195.5 228.15 195.47 227.11 195.31 226.08 195.31 225.04 195.38 224 195.69 222.99 195.81 221.95 196.21 220.99 196.64 220.05 197.07 219.1 197.63 218.24 198.14 217.32 198.88 216.59 199.6 215.85 200.38 215.17 201.19 214.52 202.03 213.91 202.93 213.4 203.89 213 204.82 212.54 205.82 212.25 206.85 212.1 207.89 212.03 208.91 211.81 209.96 211.89 210.99 211.96 212 212.24 213 212.47 213.99 212.78 214.96 213.15 215.88 213.63 216.81 214.09 217.61 214.76 218.4 215.43 219.14 216.15 219.86 216.89 220.5 217.71 221.09 218.56 221.64 219.44 222.02 220.41 222.45 221.36 222.62 222.39 222.91 223.39 223.04 224.42 223.07 225.45 223.13 226.5"/><polygon class="cls-5" points="330.49 218.09 330.52 219.14 330.32 220.17 330.1 221.19 329.69 222.15 329.34 223.12 328.9 224.07 328.33 224.94 327.69 225.76 327.08 226.6 326.29 227.28 325.6 228.07 324.71 228.61 323.89 229.25 322.97 229.73 322.03 230.16 321.05 230.51 320.06 230.81 319.04 230.99 318.02 231.1 316.99 231.26 315.95 231.28 314.92 231.09 313.89 230.96 312.87 230.77 311.89 230.41 310.91 230.05 310.02 229.52 309.1 229.03 308.25 228.43 307.48 227.74 306.68 227.07 306.01 226.27 305.45 225.39 304.84 224.56 304.32 223.67 303.82 222.75 303.57 221.74 303.15 220.78 303.02 219.74 302.9 218.72 302.87 217.68 302.74 216.64 302.95 215.61 303.08 214.59 303.39 213.59 303.65 212.59 304.05 211.63 304.47 210.68 304.98 209.78 305.63 208.96 306.29 208.15 306.98 207.37 307.77 206.69 308.6 206.08 309.5 205.55 310.39 205.03 311.3 204.52 312.31 204.25 313.29 203.92 314.31 203.73 315.32 203.48 316.37 203.57 317.4 203.5 318.44 203.6 319.45 203.84 320.46 204.04 321.44 204.39 322.45 204.67 323.33 205.22 324.2 205.78 325.13 206.27 325.84 207.04 326.67 207.67 327.35 208.46 327.92 209.33 328.48 210.2 329.07 211.06 329.41 212.04 329.77 213.01 330.1 213.99 330.32 215 330.47 216.02 330.58 217.06 330.49 218.09"/><path class="cls-4" d="M266.81,58.47A5.5,5.5,0,0,1,268.6,63a32.46,32.46,0,0,1-.08,4.73c-.34,3.14-.94,6.22-1.54,9.27-1.22,6.07-2.32,12.25-4.86,18-.58,1.44-1.35,2.8-2,4.2L259,101.29c-.4.67-.83,1.32-1.24,2l-2.45,4q-1.37,1.89-2.67,3.81c-.44.64-.86,1.29-1.27,2s-.88,1.27-1.29,2c-.85,1.31-1.66,2.68-2.57,4a17.64,17.64,0,0,1-3.27,3.36,11.7,11.7,0,0,1-4.3,2.25.62.62,0,0,1-.75-.45.58.58,0,0,1,0-.32v0c1-3.42,3.19-5.38,5.37-7.47,1.08-1,2.25-2,3.39-3,.58-.51,1.14-1,1.66-1.58s1-1.17,1.4-1.79c.91-1.21,1.8-2.44,2.68-3.67l2.25-4c.36-.66.74-1.32,1.09-2l.94-2.06c.61-1.38,1.35-2.71,1.88-4.12,2.33-5.54,4.52-11.27,5.22-17.31a50.57,50.57,0,0,0,.1-9c-.12-1.49-.17-3-.27-4.45a15,15,0,0,1-.05-2.22,5.39,5.39,0,0,1,.85-2.35l0-.08a.68.68,0,0,1,1-.19A.18.18,0,0,1,266.81,58.47Z"/><path class="cls-4" d="M222,66.46c1.32,1.82,1.23,3.64,1.11,5.43s-.27,3.59-.53,5.37c-.5,3.56-1.25,7.09-1.79,10.63C219.64,95,219,102.1,217.31,109.1a198,198,0,0,1-6.6,20.5c-1.49,3.26-2.15,6.91-3.69,10.23a17.63,17.63,0,0,1-6.81,8.56.59.59,0,0,1-.9-.58v-.06c.49-4,2.48-6.7,4.2-9.77a56.62,56.62,0,0,0,5.34-9.13c2.73-6.54,4.4-13.45,6.08-20.31,1.53-6.91,3.34-13.8,4-20.89.35-3.53.33-7.1.36-10.64,0-1.77.06-3.54.17-5.3a7.94,7.94,0,0,1,1.46-5.26h0a.67.67,0,0,1,1-.12A.62.62,0,0,1,222,66.46Z"/><path class="cls-4" d="M206.49,74.13c.86,2.26.37,4.21-.15,6.15s-1.05,3.87-1.66,5.78c-1.24,3.81-2.66,7.57-3.84,11.39-2.44,7.62-4.23,15.45-6.9,23s-5.84,14.93-9,22.3c-1.69,3.64-2.91,7.54-4.77,11.21a25.88,25.88,0,0,1-3.46,5.14,13.1,13.1,0,0,1-5.19,3.67.59.59,0,0,1-.76-.35.56.56,0,0,1,0-.44v0a55,55,0,0,1,6-10.05,61.17,61.17,0,0,0,6.34-10c3.51-7.14,5.93-14.75,8.55-22.25s5.44-15,7.38-22.73c1-3.86,1.68-7.81,2.46-11.72.39-2,.81-3.9,1.3-5.83s.9-3.87,2.65-5.5h0a.66.66,0,0,1,1.06.25Z"/><path class="cls-4" d="M169.3,214.25a6.56,6.56,0,0,1-3.07-.26,14,14,0,0,1-2.69-1.14,24.18,24.18,0,0,1-4.58-3.23,49.38,49.38,0,0,1-7.22-8.17,103,103,0,0,1-10.8-18.6,130.85,130.85,0,0,1-11-41.15,125.25,125.25,0,0,1-.36-21.3,116.88,116.88,0,0,1,3.53-21,113,113,0,0,1,18.58-38.21,162,162,0,0,1,13.89-16.11c2.48-2.53,4.93-5.09,7.57-7.46s5.27-4.74,8-7A144.32,144.32,0,0,1,217.2,8.23a116.22,116.22,0,0,1,20.44-6.29A82.79,82.79,0,0,1,259.16.1,64.74,64.74,0,0,1,270,1.65c1.79.37,3.54,1,5.29,1.45s3.46,1.21,5.12,2c6.64,3,13,7.33,17,13.51a.75.75,0,0,1-.22,1,.74.74,0,0,1-.85,0l0,0a72.3,72.3,0,0,0-18-9.54A86,86,0,0,0,258.7,5.18a83.21,83.21,0,0,0-20.5,0,80.69,80.69,0,0,0-20,5.48,115.84,115.84,0,0,0-18.49,9.61A152.89,152.89,0,0,0,183,32.8c-2.61,2.31-5.25,4.6-7.72,7.06s-5,4.9-7.39,7.41-4.7,5.17-7,7.75-4.47,5.32-6.56,8.09a113.62,113.62,0,0,0-18.7,37,99.08,99.08,0,0,0-3.6,20.5,103.61,103.61,0,0,0,.58,20.83,115.16,115.16,0,0,0,4.58,20.3A133.28,133.28,0,0,0,145,180.91a129.46,129.46,0,0,0,10.69,17.63c2,2.76,4.23,5.35,6.43,7.89,1.12,1.25,2.25,2.48,3.42,3.62a12.59,12.59,0,0,0,3.79,2.74l.11,0a.75.75,0,0,1,.43,1A.73.73,0,0,1,169.3,214.25Z"/><path class="cls-4" d="M309.12,17.19c8.62-4.06,18.23-4.25,27.31-2.58a63.78,63.78,0,0,1,25.18,11,86.16,86.16,0,0,1,10.5,8.82,109.12,109.12,0,0,1,9,10.21c1.44,1.76,2.66,3.63,4,5.44s2.69,3.61,3.86,5.53l3.61,5.7c1.23,1.89,2.23,3.92,3.35,5.86,2.29,3.88,4.12,8,6.12,12,1.71,4.18,3.6,8.28,5,12.59,1.59,4.23,2.69,8.63,3.89,13l1.38,6.65a31.63,31.63,0,0,1,.56,3.35l.46,3.38a93.73,93.73,0,0,1-.33,27.22,66.58,66.58,0,0,1-9.67,25.43,1.61,1.61,0,0,1-2.79-1.61c7.72-15.56,9.33-33.27,7.24-50.35l-.44-3.2a28.88,28.88,0,0,0-.54-3.2l-1.33-6.35c-1.17-4.17-2.23-8.38-3.77-12.44-1.32-4.14-3.16-8.09-4.81-12.11-1.95-3.89-3.71-7.87-5.94-11.62A194.39,194.39,0,0,0,376.7,48a101,101,0,0,0-8.45-9.77,80.41,80.41,0,0,0-9.73-8.36,58.57,58.57,0,0,0-23-10.33,53.88,53.88,0,0,0-12.61-1c-2.11.05-4.22.22-6.33.47a61.36,61.36,0,0,0-6.17,1.12l-.17,0a1.6,1.6,0,0,1-1.07-3Z"/><path class="cls-4" d="M288.63,68a4.58,4.58,0,0,1,2.15,3.36c.33,1.22.61,2.44.88,3.68a57,57,0,0,0,1.88,7.38c1.67,4.82,4.48,9.12,7.22,13.31s5.81,8.29,10,11.11a19.27,19.27,0,0,0,6.83,2.72c2.34.66,4.48,1.14,6.77,3.13l0,0a.65.65,0,0,1,.06.92.7.7,0,0,1-.2.15c-2.8,1.39-5.68.66-8.13-.53s-4.41-3.28-6.55-4.79a54.37,54.37,0,0,1-5.86-5.27,41.45,41.45,0,0,1-5-6.1c-3-4.34-4.75-9.27-6.92-14-1.06-2.36-2.29-4.68-3.3-7.1a34.4,34.4,0,0,1-1.28-3.7,4.37,4.37,0,0,1,.34-4.12.78.78,0,0,1,1-.23Z"/><path class="cls-4" d="M313.34,67.07a2.55,2.55,0,0,1,1.45,2.43c.08.83.13,1.66.17,2.51a23.84,23.84,0,0,0,.53,5.11c.83,3.36,2.93,6.2,4.87,8.9a44,44,0,0,0,3.21,3.9l1.91,1.69A12,12,0,0,0,327.6,93,6.58,6.58,0,0,0,330,94c.86.16,1.72.27,2.52.48,1.61.48,3.17.77,4.37,3l0,.06a.74.74,0,0,1-.29,1,4.85,4.85,0,0,1-3,.56,6,6,0,0,1-2.62-.93c-1.59-1.07-3-2.39-4.45-3.41s-2.93-2.14-4.38-3.25a25.29,25.29,0,0,1-3.76-4c-2.25-2.93-3.35-6.46-4.7-9.78-.62-1.69-1.46-3.34-2-5.12a13.82,13.82,0,0,1-.58-2.7,2.54,2.54,0,0,1,1.13-2.83.93.93,0,0,1,1,0Z"/><path class="cls-4" d="M361.17,184.63a18.12,18.12,0,0,1,3.44-6.86,16.06,16.06,0,0,1,6.05-5.16l1-.4c.33-.12.69-.18,1-.27a9.46,9.46,0,0,1,2.13-.23,13.35,13.35,0,0,1,2.1.22c.68.15,1.33.37,2,.57a16.52,16.52,0,0,1,10.17,11.75,17.56,17.56,0,0,1-.45,8,26,26,0,0,1-9,12.29.81.81,0,0,1-1.13-.14.8.8,0,0,1,0-1v0c3.09-3.75,6-7.57,7.43-11.93a14.72,14.72,0,0,0,.36-6.62,13.34,13.34,0,0,0-3-5.84c-2.89-3.27-7.67-5.73-11.55-3.93a13.55,13.55,0,0,0-5.12,4.26c-1.45,1.83-2.57,3.95-3.94,5.91l0,.05a.82.82,0,0,1-1.14.2A.84.84,0,0,1,361.17,184.63Z"/><path class="cls-4" d="M317.3,122.8a4.15,4.15,0,0,1,2.94,2.43c.62,1,1.2,2.06,1.77,3.12a60.06,60.06,0,0,0,3.61,6.28c2.75,4,6.37,7.25,9.81,10.55s7,6.57,11.29,8.73a21.79,21.79,0,0,0,6.8,2c2.28.5,4.35.91,6.54,2.85l0,0a.66.66,0,0,1,.06.93.73.73,0,0,1-.18.14c-2.65,1.45-5.35.82-7.7-.17s-4.34-2.81-6.52-4a69.26,69.26,0,0,1-12-8.7c-3.66-3.36-6.43-7.47-9.62-11.19-1.57-1.89-3.31-3.66-4.87-5.59a30.67,30.67,0,0,1-2.16-3,4.06,4.06,0,0,1-.76-3.86.8.8,0,0,1,.93-.52Z"/><path class="cls-4" d="M253.48,209.52c.51-.08.52.09.62.21l.29.38a8.33,8.33,0,0,1,.51.8,6.48,6.48,0,0,1,.38.85,1,1,0,0,1-.11,1.11,1.64,1.64,0,0,1-1.44.72,1,1,0,0,1-1-.56,6,6,0,0,1-.45-.82,7.26,7.26,0,0,1-.34-.88l-.14-.46c0-.16-.17-.26.2-.62A2.72,2.72,0,0,1,253.48,209.52Z"/><path class="cls-4" d="M364.21,216a36.69,36.69,0,0,1,.31,7c0,2.09-.06,4.14-.12,6.18-.16,4.06-.42,8.13-.73,12.28l-1.39-1c4.41-1.81,8.77-3.73,13.15-5.62s8.69-3.93,13-6l-.1,1.9q-3-1.62-6-3.28c-2-1.1-3.94-2.19-5.87-3.36s-3.88-2.38-5.83-3.61A71.72,71.72,0,0,1,364.21,216Zm-.36-.65a32,32,0,0,1,6,2.54c2.18,1.15,4.38,2.29,6.58,3.51s4.38,2.48,6.54,3.74,4.28,2.55,6.38,3.83l.06,0a1.05,1.05,0,0,1,.35,1.44,1.12,1.12,0,0,1-.51.43q-6.63,2.67-13.18,5.55c-4.35,2-8.71,3.88-13,5.93a1,1,0,0,1-1.3-.47.85.85,0,0,1-.09-.44v-.05c.13-4.44.33-9,.62-13.49.16-2.26.34-4.51.55-6.71S363.16,216.59,363.85,215.39Z"/><path class="cls-4" d="M372,213a12.68,12.68,0,0,1-.43,3.13,7.14,7.14,0,0,1-1.86,2.62,8.35,8.35,0,0,1-6,2.21,8.5,8.5,0,0,1-5.83-2.72,8.32,8.32,0,0,1-2.21-6.1,8.44,8.44,0,0,1,8.92-8,7.67,7.67,0,0,1,5.7,2.91A8.81,8.81,0,0,1,372,213Zm-1.61-.09a5.41,5.41,0,0,0-1.92-4.21,6.72,6.72,0,0,0-4-1.75,5.62,5.62,0,0,0-4,1.48,5.71,5.71,0,0,0-1.86,3.87,5.7,5.7,0,0,0,9.47,4.58,7.66,7.66,0,0,0,1.43-1.77A4.11,4.11,0,0,0,370.43,213Z"/><path class="cls-4" d="M341.49,236.24c2.74-.4,5,.6,7.12,1.65a68.79,68.79,0,0,1,6.36,3.35c4.14,2.45,8.06,5.19,12,7.86s7.85,5.41,11.67,8.27a106,106,0,0,1,10.93,9.27,108.84,108.84,0,0,1,9.6,10.65q4.45,5.63,8.36,11.65c.65,1,1.35,2,1.95,3s1.32,2,2,3l1.93,3.06c.32.52.66,1,1,1.55l.86,1.6c2.24,4.27,3.91,8.92,3.72,14a.58.58,0,0,1-.6.56.57.57,0,0,1-.42-.22l0,0a32.66,32.66,0,0,1-3.61-6.19c-.51-1.05-.94-2.13-1.35-3.22s-.89-2.14-1.32-3.22c-.77-2.2-1.7-4.35-2.55-6.54a47.43,47.43,0,0,0-3.26-6.24c-4.84-8.07-11.25-15.08-18-21.61S374,255.65,366,250.69a119.85,119.85,0,0,0-12.52-6.51l-6.37-3c-2.14-.95-4.26-1.87-5.95-3.94l0,0a.61.61,0,0,1,.09-.87A.62.62,0,0,1,341.49,236.24Z"/><path class="cls-4" d="M333.32,251.7c3.21,1.63,5.77,4,8.38,6.32,1.31,1.15,2.6,2.33,3.87,3.52s2.54,2.39,3.78,3.62,2.49,2.45,3.69,3.72,2.45,2.49,3.6,3.8l3.51,3.9,3.34,4.05a124.89,124.89,0,0,1,11.83,17.44c3.36,6.19,6.16,12.88,7,20a1.22,1.22,0,0,1-2.35.57v-.05a135.75,135.75,0,0,0-8.32-18.43L369,295.77c-.88-1.44-1.9-2.82-2.84-4.23l-1.43-2.1-1.54-2c-1-1.35-2-2.76-3.1-4.06A197.44,197.44,0,0,0,346.52,268c-1.19-1.24-2.39-2.45-3.63-3.63s-2.46-2.39-3.73-3.54a75.66,75.66,0,0,1-7.33-7.22l0,0a1.23,1.23,0,0,1,1.51-1.88Z"/><path class="cls-4" d="M352,335.07c2.33,1.64,3.48,3.92,4.8,6.11s2.48,4.45,3.62,6.72a138,138,0,0,1,6,14,145.72,145.72,0,0,1,4.39,14.55,75.49,75.49,0,0,1,1.58,7.43,43.78,43.78,0,0,1,.5,7.61,1.66,1.66,0,0,1-1.69,1.6,1.64,1.64,0,0,1-1.45-1l0-.07a53.52,53.52,0,0,1-2.42-7.06c-.38-1.17-.67-2.36-1-3.55s-.59-2.38-.94-3.56l-1-3.54-1.1-3.51c-.69-2.35-1.52-4.66-2.29-7-1.68-4.6-3.41-9.18-5.43-13.63-1-2.23-2.05-4.44-3.18-6.59s-2.47-4.2-3-6.67l0-.15a1.7,1.7,0,0,1,1.32-2A1.73,1.73,0,0,1,352,335.07Z"/><path class="cls-4" d="M259.75,274.22c0,9.66-1.09,19.22-1.84,28.81a1.88,1.88,0,0,1-1.81,1.73h0l-25,1,.11-4c15.12,1.3,30.24,2.49,45.35,3.87,7.57.55,15.15.85,22.72,1.29L322,308.11l-1.11,3.95c-7.68-4.14-15.37-8.24-23-12.44l0,0a2,2,0,0,1-1-1.28q-1.64-7.21-3.15-14.46c-1-4.82-2-9.66-2.91-14.51a1.2,1.2,0,0,1,1-1.41,1.23,1.23,0,0,1,1.39.85q2.06,7.11,3.93,14.27t3.71,14.32l-1-1.31c7.73,4,15.41,8.18,23.1,12.29a2.1,2.1,0,0,1-1.1,3.95L299,311.13c-7.59-.42-15.18-.71-22.76-1.24-15.15-1.29-30.27-2.77-45.41-4.15h0a2,2,0,0,1,.12-4l25-.76-1.83,1.73c.94-9.57,1.57-19.17,3.23-28.68a1.21,1.21,0,0,1,1.41-1A1.2,1.2,0,0,1,259.75,274.22Z"/><path class="cls-4" d="M283.26,231.65a2.55,2.55,0,0,1-.75,3.2,10.37,10.37,0,0,1-2.34,1.8,38.58,38.58,0,0,1-5.17,2.23c-3.38,1.33-6.69,2.91-10.25,3.64a70.72,70.72,0,0,1-10.8,1.1c-1.81,0-3.68.61-5.64.59a6.85,6.85,0,0,1-2.86-.67,4.17,4.17,0,0,1-2.16-2.53.64.64,0,0,1,.41-.8l.25-.08a7.08,7.08,0,0,1,5,.17c1.54.57,3.23,1.38,5,1.32,3.48.15,6.9-.78,10.3-1.5s6.93-1.22,10-3a16.8,16.8,0,0,0,4-3.17l1.66-1.7a2.55,2.55,0,0,1,2.41-1.07h.39A.67.67,0,0,1,283.26,231.65Z"/><path class="cls-4" d="M196.3,323.44c.63,2.36-.26,3.76-1.15,5.17s-1.79,2.82-2.75,4.2c-1.94,2.74-4,5.42-5.72,8.31-3.49,5.75-5.76,12.12-8.53,18.19-1.4,3-2.74,6.1-4.09,9.15l-1.83,4.67c-.61,1.56-1,3.17-1.49,4.77-.24.8-.44,1.61-.61,2.42s-.22,1.66-.27,2.5l-.17,2.5c-.06.83-.12,1.65-.13,2.47a23.47,23.47,0,0,1-.78,4.79,11.49,11.49,0,0,1-2.25,4.74l-.05.07a.88.88,0,0,1-1.22.14,1.07,1.07,0,0,1-.2-.23,11.39,11.39,0,0,1-1.53-5.33,20.1,20.1,0,0,1,.84-5.18l.39-1.26c.15-.41.34-.81.51-1.21l1.06-2.4c.36-.79.64-1.6,1-2.4s.63-1.59.89-2.4c2.19-6.44,4.2-12.94,7-19.14s6.4-12,9.3-18.05c1.48-3,2.68-6.24,4.11-9.34a50.84,50.84,0,0,1,2.36-4.51A10.79,10.79,0,0,1,192.4,324a5.11,5.11,0,0,1,2.67-1.34,1.07,1.07,0,0,1,1.23.78Z"/><path class="cls-6" d="M112.46,365.62c-5.58-4.85.11-15.77,4-20.78,6.68-8.33,19.93-14.33,30.25-16.28h0C136.53,319.87,161,303,160.4,324.23c1.45-2.82,2-15.34,11.29-11.2,4.7,2.08,5.12,10.27,1.43,12.57,13.86,3.23,32.92,9.63,30.78,27.31"/><path class="cls-7" d="M113.35,364.74c-6.37-6.57,3.18-19.08,8.43-23.44,7.18-6,16.22-9.69,25.31-11.53a1.26,1.26,0,0,0,.55-2.09c-7.59-7.05,11.58-21.48,11.51-3.45,0,1.16,1.81,1.81,2.33.63,1.27-2.88,1.38-6.23,3.09-8.93,4.6-7.29,14.18,3.69,7.66,8.79a1.26,1.26,0,0,0,.55,2.09c13.45,3.18,31.43,9.09,29.87,26.1-.14,1.6,2.36,1.59,2.5,0,1.67-18.21-17.14-25.07-31.7-28.51l.55,2.09c5.75-4.5,2.4-14.36-4.46-15.41-7.67-1.19-8,7.57-10.22,12.52l2.33.63c0-7.18-4-14.46-12-10.28-5.8,3-9.15,10.48-3.75,15.5l.55-2.09c-11,2.22-23,7.31-30.37,16.08-4.75,5.64-10.78,16.56-4.47,23.07,1.12,1.16,2.89-.61,1.77-1.77Z"/><path class="cls-8" d="M132.13,403.38c-46.92,1.34-22.14-66.68,34.68-64.23,42.16,1.82,74.07,62.32,25.62,61.73"/><path class="cls-9" d="M132.13,402.13c-12.29.21-24-5.41-23.37-19.22.58-13.35,10.56-25.39,21.2-32.53,14-9.38,32.88-12.93,49.09-7.74,14.24,4.56,27.42,15.59,33.65,29.3,2.67,5.87,4.37,13.38.93,19.31-4.18,7.22-13.67,8.39-21.2,8.38a1.25,1.25,0,0,0,0,2.5c13.86,0,27.75-6.3,25.29-22.31-2.43-15.77-16.2-29.39-29.91-36.27-17-8.51-37.72-7.16-54.28,1.76-13,7-24.87,19.72-27,34.78-.87,6.13.24,12.61,4.46,17.34,5.28,5.91,13.59,7.33,21.14,7.2a1.25,1.25,0,0,0,0-2.5Z"/><path class="cls-1" d="M177.06,385.45c10.92-16.42,22.12,17,8.6,29.26-7.19,5.44-28,8-34.35,5.05-10.66-5-16.08-7.29-18.23-18.46-.94-6.14,2.46-20.76,9.73-21.44,9.77-1.28,6.64,12.21,5.86,15.58,0,0,1.57-17.38,6.57-17s6.92,6.55,6.92,6.55,4.62-5.78,10-4.62S177.06,385.45,177.06,385.45Z"/><path class="cls-10" d="M179.21,386.72c3.08-4.38,5.93-3.5,8.07,1.07a26,26,0,0,1,1.55,15.94c-1.38,6.41-4.92,10-11.06,12a57.91,57.91,0,0,1-19.15,2.79c-11.56-.32-24.23-9.19-23.08-21.72.35-3.87,3.15-17,9.59-14.37,3.91,1.62,1.84,9.29,1.12,12.37l4.92.66a53.13,53.13,0,0,1,1.67-9.35c.36-1.31,1-4.79,2.57-5,2-.32,3.81,3,4.34,4.6s2.9,2.65,4.18,1.1,3.12-3.24,5.07-3.74c1.7-.43,5.77-.2,5.56,2.44-.27,3.21,4.74,3.19,5,0,.32-3.92-3.26-6.72-6.73-7.49-4.71-1-9.49,1.72-12.43,5.26l4.17,1.1c-1.74-5.2-8.82-12-13.66-6.1-3.62,4.42-4.23,11.74-4.74,17.22-.27,2.82,4.28,3.39,4.91.67,1-4.55,2.24-10.3,0-14.66-2.49-4.79-8.85-5.3-13-2.24-9.95,7.42-10,26.39-1.58,34.73,10.28,10.19,24.63,10.85,37.91,7.85,6.31-1.42,12.61-3.52,16.22-9.22,3.27-5.17,4.15-11.7,3.52-17.7-.54-5.19-2.22-11.88-6.86-15-4.92-3.3-9.51.2-12.41,4.32C173,386.83,177.37,389.33,179.21,386.72Z"/><polygon class="cls-11" points="17.76 262.43 1.26 311.92 102.92 344.92 119.59 292.43 17.76 262.43"/><path d="M16.55,262.1.05,311.59a1.27,1.27,0,0,0,.88,1.54l89,28.89,12.65,4.11a1.28,1.28,0,0,0,1.54-.87l16.66-52.5a1.27,1.27,0,0,0-.87-1.54L30.91,265l-12.82-3.78a1.25,1.25,0,0,0-.66,2.41l89,26.23,12.82,3.77-.88-1.54-16.66,52.5,1.54-.87-89-28.89L1.59,310.72l.88,1.54L19,262.76C19.47,261.23,17.06,260.57,16.55,262.1Z"/><polygon class="cls-12" points="22.24 272.16 10.63 306.98 93.82 332.69 105.54 295.76 22.24 272.16"/><path class="cls-13" d="M72,304.32c-1.7,9.1-8.47,15.46-15.12,14.22s-10.67-9.63-9-18.72S56.34,284.37,63,285.61,73.66,295.23,72,304.32Z"/><path class="cls-14" d="M36.77,311.94a10.42,10.42,0,0,0,4.07,1.63c1.34.34,4.16,1.22,5-.3,1.1-1.91-2.05-2.15-3.12-2.39-1.31-.29-3.14-.6-4.19-1.51-1.53-1.32-3.35,1.27-1.8,2.57Z"/><path class="cls-14" d="M26.1,275.28a10.38,10.38,0,0,0,4.08,1.62c1.33.34,4.15,1.22,5-.3,1.1-1.91-2.05-2.15-3.12-2.39-1.31-.29-3.14-.6-4.19-1.51-1.52-1.32-3.35,1.28-1.8,2.58Z"/><polygon class="cls-15" points="78.33 313.36 63.58 319.52 63.07 324.97 101.05 335.31 99.54 324.83 87.76 313.92 78.33 313.36"/><path class="cls-11" d="M79.33,293.65s-2.45,5.24-2.07,6.56-2.48,10.43.57,12.19,1.06,5.54,1.06,5.54l1.42,5.65,9.27-9.1v-6.4l4-2.36s3.06-4.64.34-8.7a15.66,15.66,0,0,0-7.47-5.55Z"/><path class="cls-16" d="M45.25,300.49a4.08,4.08,0,1,1-4.08-4.08A4.08,4.08,0,0,1,45.25,300.49Z"/><path class="cls-14" d="M23,297h.14a5,5,0,0,0,0-10H22.2a5,5,0,1,0,0,10h.13a5,5,0,0,0,0-10H22.2a5,5,0,1,0,0,10h.94a5,5,0,0,0,0-10H23a5,5,0,0,0,0,10Z"/><path class="cls-14" d="M35,300.32c6.45,0,6.45-10,0-10s-6.45,10,0,10Z"/><polygon class="cls-11" points="60.98 224.84 44.48 274.33 146.15 307.33 162.81 254.84 60.98 224.84"/><path d="M59.77,224.5,43.28,274a1.27,1.27,0,0,0,.87,1.54l89,28.89,12.65,4.11a1.28,1.28,0,0,0,1.54-.87L164,255.17a1.28,1.28,0,0,0-.88-1.54l-89-26.22-12.82-3.78a1.25,1.25,0,0,0-.66,2.41l89,26.23L162.48,256l-.88-1.54L144.94,307l1.54-.87-89-28.9-12.65-4.1.88,1.54,16.5-49.5C62.7,223.64,60.28,223,59.77,224.5Z"/><polygon class="cls-12" points="65.46 234.57 53.86 269.39 137.04 295.1 148.76 258.17 65.46 234.57"/><path class="cls-13" d="M115.18,266.73c-1.7,9.1-8.47,15.46-15.12,14.22s-10.66-9.63-9-18.72,8.47-15.46,15.12-14.21S116.88,257.64,115.18,266.73Z"/><path class="cls-14" d="M80,274.35A10.42,10.42,0,0,0,84.06,276c1.34.34,4.16,1.22,5-.3,1.1-1.91-2-2.15-3.12-2.39-1.31-.29-3.14-.6-4.19-1.51-1.53-1.32-3.35,1.27-1.8,2.57Z"/><path class="cls-14" d="M69.32,237.69a10.44,10.44,0,0,0,4.08,1.62c1.33.34,4.16,1.22,5-.3,1.11-1.91-2.05-2.15-3.12-2.39-1.31-.29-3.14-.6-4.19-1.51-1.52-1.32-3.35,1.28-1.8,2.58Z"/><polygon class="cls-15" points="121.55 275.76 106.8 281.93 106.29 287.38 144.27 297.72 142.76 287.24 130.98 276.33 121.55 275.76"/><path class="cls-11" d="M122.55,256.06s-2.45,5.23-2.07,6.56-2.48,10.43.57,12.19,1.06,5.53,1.06,5.53l1.43,5.66,9.26-9.1,0-6.4,3.94-2.36s3.06-4.64.34-8.7a15.65,15.65,0,0,0-7.46-5.55Z"/><path class="cls-16" d="M88.47,262.9a4.08,4.08,0,1,1-4.08-4.08A4.08,4.08,0,0,1,88.47,262.9Z"/><path class="cls-14" d="M66.22,259.4h.14a5,5,0,1,0,0-10h-.94a5,5,0,0,0,0,10h.13a5,5,0,1,0,0-10h-.13a5,5,0,0,0,0,10h.94a5,5,0,1,0,0-10h-.14a5,5,0,0,0,0,10Z"/><path class="cls-14" d="M78.22,262.73c6.45,0,6.45-10,0-10s-6.45,10,0,10Z"/><path class="cls-17" d="M44.55,166c-27.43-10.61-49.5,25.5-28.5,45C55.05,245.46,86.89,182.34,44.55,166Z"/><path class="cls-1" d="M22.49,181.19c0,.25-.06.41,0,.21a1.37,1.37,0,0,0,.47,1.18,7.33,7.33,0,0,0,1.63,1.26,22.55,22.55,0,0,0,5,2.06c2.05.54,3.2-2.56,1.15-3.09a26.4,26.4,0,0,1-4-1.48c-1-.44-2.2-1.37-3.31-1.11l1.07.55a.22.22,0,0,0,0,.08,1,1,0,0,0-1.94.34Z"/><path class="cls-1" d="M22.9,182.16c-1.28,2.22-1.47,4.58-2.18,7a1.51,1.51,0,0,0,1.26,2c1.73,0,5.55.58,4.88,3.23-.62,2.48-3.25,1-4.45-.09-1.59-1.4-3.58,1.36-1.91,2.73,3,2.45,7.75,2.68,9.22-1.59,1.63-4.76-3.61-7.2-7.45-7.27l1.26,2c.61-2.11.7-4.41,1.82-6.34.95-1.65-1.48-3.38-2.45-1.71Z"/><path class="cls-1" d="M37.56,187.88c-3.21-.1-5.42,3.72-5.78,6.54-.43,3.34,2.5,6.66,5.88,6.24,2.78-.35,5-3.24,5.49-5.86.64-3.61-2-6.11-5.2-7.11-1.74-.54-2.73,2.11-1,2.65s3.52,1.51,3.35,3.61a4.74,4.74,0,0,1-2.57,3.57c-1.78.91-3.19-1.23-3.13-2.83a5.84,5.84,0,0,1,1.19-3.09,4.49,4.49,0,0,1,1.84-1.46,1.15,1.15,0,0,0-.09-2.26Z"/><path class="cls-1" d="M49.4,190.84c-3.22-.1-5.43,3.72-5.79,6.54-.42,3.34,2.5,6.65,5.88,6.23,2.79-.35,5-3.23,5.5-5.85.63-3.61-2-6.11-5.21-7.11-1.74-.54-2.72,2.11-1,2.65s3.53,1.51,3.36,3.61a4.75,4.75,0,0,1-2.58,3.57c-1.78.91-3.18-1.23-3.13-2.83a5.82,5.82,0,0,1,1.2-3.09,4.29,4.29,0,0,1,1.84-1.46,1.15,1.15,0,0,0-.09-2.26Z"/><path class="cls-18" d="M113.58,158c-29.09-12.77-49.5,24-24,42C122.58,221,142.45,170.69,113.58,158Z"/><path class="cls-1" d="M89.75,173.59a60.25,60.25,0,0,0,1.71,13,1.56,1.56,0,0,0,3.07-.54c-.35-2.47-.9-4.92-1.3-7.39-.19-1.1-.36-2.21-.54-3.31-.06-.4-.15-.8-.23-1.19-.12-.6-.22-.52-.23-.72-.09-1.41-2.48-1.31-2.48.1Z"/><path class="cls-1" d="M97.07,174.19a7.71,7.71,0,0,0-1.12,8.3c1,2.16,3.42,3.9,5.84,3.08,2.91-1,3.8-5,3.15-7.67s-4.5-6.38-7.39-4.41a1.21,1.21,0,0,0,.08,1.89,10.44,10.44,0,0,0,2.6,1,3.71,3.71,0,0,1,1.75,2.06c.47,1.13.11,3.95-1.36,4.28-1,.23-1.86-1.4-2.15-2.12a4.66,4.66,0,0,1,1.1-4.65c1.25-1.52-1.25-3.25-2.5-1.75Z"/><path class="cls-1" d="M107.74,174.19a7.67,7.67,0,0,0-1.12,8.3c1,2.16,3.41,3.9,5.83,3.08,2.92-1,3.81-5,3.16-7.67s-4.5-6.38-7.4-4.41a1.21,1.21,0,0,0,.09,1.89,10.36,10.36,0,0,0,2.59,1,3.67,3.67,0,0,1,1.75,2.06c.48,1.13.11,3.95-1.35,4.28-1,.23-1.86-1.4-2.15-2.12a4.68,4.68,0,0,1,1.09-4.65c1.25-1.52-1.25-3.25-2.49-1.75Z"/></g></g></svg>