<svg xmlns="http://www.w3.org/2000/svg" viewBox="0 0 475.24 407.93"><defs><style>.cls-1{fill:#fff;}.cls-2,.cls-8{fill:#237aad;}.cls-3{fill:#231815;}.cls-4{fill:#ce9b72;}.cls-5{fill:#f9c9ab;}.cls-6,.cls-9{fill:none;stroke-linecap:round;stroke-linejoin:round;stroke-width:2px;}.cls-6{stroke:#000;}.cls-7{fill:#1c709b;}.cls-7,.cls-8,.cls-9{stroke:#231815;}.cls-7,.cls-8{stroke-miterlimit:10;stroke-width:3px;}</style></defs><g id="Capa_2" data-name="Capa 2"><g id="レイヤー_2" data-name="レイヤー 2"><path class="cls-1" d="M94.42,207.12l3.94-10.85s-15.28-2-18.14-8-5.7-32.66-4.8-38.24-2.63-20.06,13.65-18.7c2.55-5.41,11.35-5.13,11.35-5.13s11.77-8.83,20.8,1.68c8.77-1.77,15.64,1.8,14.55,14.9,4.47,3.61,11.5,21.2,3.62,35.27-.93,8.48-6.23,14.07-17.36,13.78.31,8.08-3.8,25.84-3.8,25.84H95Z"/><path class="cls-1" d="M263.32,287.09l27-29.67-3.93-6.89-.27-14.48s33.92-12.7,48.59-34.33c15.12-11.07,24.26-19.13,26.06-21.33s6.71-18.8.06-22.56-9.14-4.21-13.49-2c-3.13-16.45-6.74-48.78-13.14-56.54S289,72.55,289,72.55L208.88,96.86,166,146.8,167.85,158s-18.84,5.12.08,22.39c7.86-1,7.83,1.43,7.83,1.43s9.8,51.82,64.62,59.16c4.48,5.16,3.26,0,3.26,0l1.22,5.16,2.36,13.55L238,263.06Z"/><path class="cls-2" d="M88.12,207.7s38,.44,38.08,3.41-1.13,15.66-.74,22.44,0,17.34,0,17.34,14.59-1.52,20.33.32,19.94-1.4,24-1.25,45.25.81,45.66,2.78c1,4.83,25.11,6.75,25.11,6.75l4.37,2.32,19.12,8.06,33.71-12.48s13.92,10.26,21.33,11.95,42.13,14.35,48.88,21.87,12.88,26.39,24.63,78.05c-.41,11,5.77,34.6,5.77,34.6l-49.67,1.74L165,404.67l-1.4-101.51s-38.58-1.88-50.92-1.09S83.5,290.26,82.11,286.36s-3.75-32.74-3-39.59S85.22,207.35,88.12,207.7Z"/><path class="cls-3" d="M474.61,151.58c-1.46,1.48-3.23,1.68-4.93,2.14l-5.13,1.3c-3.43.82-6.85,1.7-10.3,2.43s-6.9,1.47-10.37,2.13a31.29,31.29,0,0,1-10.67.86,2,2,0,0,1-1.75-2.22,2,2,0,0,1,.9-1.42,31.14,31.14,0,0,1,10-3.57c3.43-.81,6.87-1.6,10.33-2.3s6.93-1.35,10.4-2l5.22-.92c1.74-.27,3.43-.81,5.41-.07a2.25,2.25,0,0,1,1.35,2.86A2.27,2.27,0,0,1,474.61,151.58Z"/><path class="cls-3" d="M461.26,107.22c-1.16,1.68-2.86,2.16-4.44,2.88L452,112.19c-3.21,1.36-6.4,2.75-9.64,4s-6.49,2.54-9.76,3.74a31.06,31.06,0,0,1-10.29,2.55,2.08,2.08,0,0,1-2.13-1.88,1.89,1.89,0,0,1,.62-1.53A30.17,30.17,0,0,1,430,114c3.21-1.34,6.43-2.66,9.69-3.89s6.54-2.43,9.82-3.62l4.94-1.73c1.66-.55,3.21-1.35,5.29-.94a2.28,2.28,0,0,1,1.85,2.57A2.32,2.32,0,0,1,461.26,107.22Z"/><path class="cls-3" d="M473.46,195.91c-1.83,1-3.59.71-5.36.68l-5.32-.18c-3.54-.16-7.08-.27-10.62-.53s-7.07-.5-10.6-.83A31.74,31.74,0,0,1,431,192.91a2,2,0,0,1,.2-3.71,31.46,31.46,0,0,1,10.69-.63c3.54.17,7.08.37,10.62.66s7.06.63,10.59,1l5.3.57c1.76.22,3.54.17,5.24,1.43a2.22,2.22,0,0,1,.49,3.11A2.35,2.35,0,0,1,473.46,195.91Z"/><path class="cls-3" d="M.68,152.11c1.52,1.43,3.29,1.57,5,2l5.17,1.12c3.45.7,6.9,1.46,10.38,2.07s7,1.23,10.43,1.77a31.58,31.58,0,0,0,10.7.48A2,2,0,0,0,44,157.24a1.93,1.93,0,0,0-.95-1.38,30.82,30.82,0,0,0-10.15-3.22c-3.46-.7-6.93-1.36-10.41-1.94s-7-1.11-10.46-1.63l-5.25-.74c-1.75-.22-3.46-.7-5.41.12a2.24,2.24,0,0,0-1.25,2.9A2.39,2.39,0,0,0,.68,152.11Z"/><path class="cls-3" d="M12.48,107.31C13.7,109,15.41,109.37,17,110L21.87,112c3.25,1.24,6.49,2.53,9.77,3.68s6.58,2.31,9.89,3.4a30.91,30.91,0,0,0,10.37,2.19,2.07,2.07,0,0,0,2.06-2,1.91,1.91,0,0,0-.67-1.51A30.5,30.5,0,0,0,44,113c-3.26-1.23-6.53-2.43-9.82-3.55s-6.62-2.2-9.94-3.28l-5-1.55c-1.68-.5-3.26-1.24-5.32-.76a2.29,2.29,0,0,0-1.76,2.64A2.2,2.2,0,0,0,12.48,107.31Z"/><path class="cls-3" d="M3.38,196.38c1.86.94,3.61.58,5.38.49l5.31-.37c3.53-.28,7.07-.52,10.6-.9s7-.75,10.56-1.2a31.91,31.91,0,0,0,10.45-2.5,2,2,0,0,0,1-2.64,2,2,0,0,0-1.31-1.06,31.41,31.41,0,0,0-10.71-.26c-3.53.29-7.06.62-10.58,1s-7,.88-10.56,1.34l-5.27.75c-1.75.28-3.53.3-5.19,1.62a2.22,2.22,0,0,0-.38,3.12A2.36,2.36,0,0,0,3.38,196.38Z"/><path class="cls-3" d="M76.44,46.44c11.22-1.08,20-12.2,20-25.33A1.12,1.12,0,0,1,97.58,20a1.09,1.09,0,0,1,1.14,1.1c-1.31,17.13,8.45,24,19.67,25.29a1.1,1.1,0,0,1,0,2.19c-10,.75-18.19,9.25-20,20.68a1.15,1.15,0,0,1-2.25,0c-1.8-11.22-9.57-22-19.63-20.64-.58.07-1-.53-1-1.1A1.11,1.11,0,0,1,76.44,46.44Z"/><path class="cls-3" d="M392.74,251.19c11.22-1.08,20-12.2,20-25.33a1.12,1.12,0,0,1,1.14-1.1,1.09,1.09,0,0,1,1.14,1.1c-1.31,17.13,8.46,24,19.67,25.29a1.1,1.1,0,0,1,0,2.2c-10,.74-18.2,9.24-20,20.67a1.15,1.15,0,0,1-2.25,0c-1.8-11.22-9.57-22-19.63-20.64-.58.08-1-.53-1-1.1A1.11,1.11,0,0,1,392.74,251.19Z"/><path class="cls-3" d="M382.83,214.83c5.3-.51,9.46-5.77,9.46-12a.53.53,0,0,1,.54-.52.52.52,0,0,1,.53.52c-.62,8.1,4,11.36,9.3,12a.52.52,0,0,1,.48.53.53.53,0,0,1-.5.51c-4.71.35-8.6,4.37-9.47,9.77a.52.52,0,0,1-.53.44.53.53,0,0,1-.53-.44c-.85-5.3-4.53-10.38-9.28-9.76-.27,0-.48-.25-.48-.51A.52.52,0,0,1,382.83,214.83Z"/><path class="cls-3" d="M228,192.08c3.74-1.06,8.66-.75,13.19-.83s9.29.12,13.91.22,9.23.24,13.8.26,9.13,0,13.69,0h0a.67.67,0,0,1,.67.63A31.74,31.74,0,0,1,282,203.26a23.37,23.37,0,0,1-5.56,9.57,22.22,22.22,0,0,1-9.53,5.65A35.35,35.35,0,0,1,256,219.83a30,30,0,0,1-10.79-2,37.66,37.66,0,0,1-9.51-5.62,25.48,25.48,0,0,1-7-8.72,16.65,16.65,0,0,1-1.59-5.51c-.06-.48-.06-1-.08-1.45s0-1,.1-1.45a9.93,9.93,0,0,1,.29-1.42l.1-.35a3.84,3.84,0,0,1,.15-.44A6.28,6.28,0,0,1,228,192.08Zm.5.61a4.11,4.11,0,0,0,.17.55c0,.08,0,.11,0,.22l0,.32c0,.43.11.85.18,1.27a20.33,20.33,0,0,0,.59,2.45,32.13,32.13,0,0,0,1.82,4.68,34.71,34.71,0,0,0,5.8,8.43,23.61,23.61,0,0,0,8.57,5.87,25.9,25.9,0,0,0,5,1.47,29.49,29.49,0,0,0,5.24.43,33.21,33.21,0,0,0,10.38-1.47,21.14,21.14,0,0,0,8.77-5.31,22.63,22.63,0,0,0,5.25-8.84A30,30,0,0,0,282,192.44l.67.63c-4.49-.06-9,0-13.47,0s-9,.14-13.37.26-8.83.22-13.27.22S233.86,193.75,228.54,192.69Z"/><path class="cls-4" d="M364.4,159c-.15-.21-.1-.24-.25-.45s-.26-.44-.41-.65-.83-.05-1-.26-.13-.49-.28-.7c.34-.09.36-.2.72-.17s.37-.15.72-.11.35.16.7.2.3.68.66.71.36,0,.71,0l.72.06c.35,0,.35.13.7.16s.36,0,.72,0,.27-.06.61.06c.16.25.5-.11.67.13.1-.21-.07-.36,0-.58s.05-.5.16-.73.82-.15.92-.37-.41-.71-.3-.94.57-.27.67-.49,0-.53.08-.76.73-.2.83-.42.13-.47.23-.7,0-.52.11-.74.14-.47.23-.69.35-.38.45-.6,0-.51.08-.74c-.32-.15-.35.09-.7.06s-.32-.46-.67-.49-.35,0-.71-.08-.38.28-.74.25-.38.28-.73.25-.32-.36-.66-.47c-.15-.21-.53-.19-.67-.4s-.07-.57-.22-.77-.1-.55-.25-.76-.44-.15-.59-.36c.35-.09.34-.22.69-.19s.39-.26.74-.23.31.58.67.62.38-.18.73-.15.34.19.7.22.39-.28.74-.24.31.58.67.61.38-.17.74-.14.37-.12.72,0c.1.14.05-.09.15.05.09-.23,0-.27.06-.5s.88-.2,1-.43-.22-.61-.13-.85.24-.43.33-.67-.18-.59-.1-.82.46-.37.54-.6.5-.36.57-.6,0-.52.11-.76.31-.42.39-.66-.15-.57-.07-.81.23-.74.3-1a2,2,0,0,0-.88-.17c-.4,0-.45.53-.84.5s-.37-.43-.77-.46a2.3,2.3,0,0,1-.73-.18c-.15-.2-.57,0-.71-.2s.25-.78.11-1-.23-.44-.37-.65-.66-.13-.8-.34c.34-.09.33,0,.68.08s.35,0,.69,0,.35.07.69.1.32.31.67.34.34.09.68.12.37-.17.71-.14.34.11.69.15.28-.4.61-.52c.09-.34-.08-.47,0-.82s.18-.43.23-.67.51-.38.56-.63-.15-.5-.12-.75-.12-.49-.09-.74.59-.41.62-.65-.33-.52-.31-.76.42-.44.44-.69.2-.47.22-.72-.29-.61-.28-.85-.29.17-.46.1l-.33-.53c-.11-.16.11-.55,0-.72s-.39-.22-.5-.39-.25-.31-.36-.48-.29.11-.4-.06c.35-.06.33-.73.68-.7s.29.78.65.81.5.25.84.16c0-.24.26-.92.27-1.17s-.08-.48-.08-.73-.22-.49-.22-.74-.46-.48-.46-.73.07-.48.06-.72,0-.49,0-.73.73-.5.72-.74-.12-.49-.13-.73-.59-.47-.59-.72-.09-.48-.1-.73.16-.49.15-.74.17-.49.16-.74.09-.49.08-.73.23-.5.22-.75-.57-.45-.59-.7.13-.5.12-.74.2-.5.18-.75.11-.5.1-.74-.75-.44-.76-.69.08-.49.06-.74.18-.5.16-.75-.36-.46-.38-.71.09-.5.07-.75.19-.5.16-.75c-.34-.14-.36,0-.73-.09s-.38,0-.76,0a2,2,0,0,1-.71-.19c-.16-.23-.11-.52-.27-.75s-.71-.69-.87-.92c.34-.14.52.68.89.68s.49.14.83,0c.18-.3.22-1,.38-1.33.5-.09.59.67,1.09.6,0-.24-.1-.86-.12-1.1s.33-.51.31-.75-.48-.42-.51-.66-.31-.44-.34-.68.54-.54.52-.77-.79-.39-.81-.63.19-.5.16-.74-.1-.46-.13-.7-.18-.46-.21-.69.32-.52.29-.76.22-.51.19-.74-.79-.38-.82-.62.6-.56.57-.79-.44-.42-.48-.66.53-.56.49-.79-.84-.36-.88-.6.32-.53.29-.76-.47-.41-.51-.65-.07-.47-.1-.71,0-.48,0-.71.14-.51.1-.74.33-.54.29-.78-.79-.35-.83-.58-.13-.47-.17-.7.26-.53.22-.76-.15-.46-.2-.69.24-.53.2-.77-.41-.41-.46-.64.12-.51.08-.74.08-.5,0-.74,0-.49,0-.73-.6-.36-.65-.6.39-.56.34-.8-.68-.34-.72-.57.4-.58.35-.81,0-.48-.09-.71-.13-.46-.18-.69-.29-.43-.34-.66-.39-.39-.45-.62,0-.5,0-.73,0-.49-.06-.72.06-.51,0-.74,0-.51,0-.73-.53-.36-.6-.58-.17-.45-.23-.68-.38-.38-.44-.61.09-.52,0-.74.21-.57.14-.79-.17-.45-.25-.67-.73-.25-.81-.47.22-.58.14-.8-.07-.49-.16-.7,0-.53-.05-.75-.82-.16-.92-.37-.11-.47-.21-.69.19-.61.09-.83,0-.51-.15-.73-.29-.39-.4-.61-.18-.44-.29-.66-.31-.38-.42-.59-.59-.23-.7-.44.08-.59,0-.8,0-.53-.15-.74-.21-.44-.33-.65-.7-.14-.82-.35.08-.61,0-.82-.58-.21-.71-.41-.36-.34-.49-.54.26-.74.13-.94-.83,0-1-.24-.09-.52-.22-.72-.11-.5-.25-.7-.61-.17-.75-.36,0-.6-.12-.8-.09-.53-.22-.72-.2-.46-.34-.66-.81,0-1-.2-.23-.43-.37-.62-.26-.41-.4-.6-.29-.38-.44-.58-.43-.27-.57-.47,0-.62-.12-.81-.13-.51-.28-.7-.56-.18-.71-.36-.54-.19-.69-.37,0-.58-.19-.77-.49-.22-.64-.41,0-.61-.15-.79-.6-.14-.75-.32-.29-.39-.44-.56.07-.68-.08-.86-.62-.11-.77-.29,0-.61-.19-.78-.34-.35-.49-.52-.6-.13-.75-.3-.37-.32-.52-.49.1-.76,0-.92-.66-.1-.79-.25c-.31-.33-.2-.3-.27-.64s0-.22,0-.69a5.71,5.71,0,0,0-.1-.71c0-.21.32-.57.25-.82s-.47-.35-.57-.59-.59-.24-.7-.47.32-.68.2-.9-.29-.38-.43-.59-.57-.18-.71-.38-.22-.42-.37-.61-.52-.17-.68-.36-.3-.34-.46-.53.09-.71-.08-.89-.25-.41-.43-.58-.6-.06-.78-.23-.43-.22-.61-.38.18-.92,0-1.08-.92.35-1.11.19-.31-.35-.5-.5,0-.75-.2-.9-.54-.09-.73-.23-.54-.07-.74-.21-.17-.56-.37-.7-.22-.51-.42-.65-.58,0-.78-.12-.2-.56-.4-.69-.42-.23-.63-.36-.72.27-.93.14-.07-.79-.27-.92-.49-.12-.7-.24-.38-.29-.59-.41-.51-.08-.72-.2-.47-.14-.67-.26-.25-.53-.46-.65-.51-.06-.73-.17-.27-.51-.49-.62-.76.42-1,.3-.18-.68-.39-.79-.66.22-.88.1l-.65-.3c-.21-.11-.49-.09-.7-.2s-.14-.79-.36-.89-.57.08-.79,0-.44-.18-.66-.29-.35-.37-.57-.47l-.64-.33c-.21-.1-.61.16-.82.06s-.14-.82-.35-.93-.67.29-.88.18-.45-.17-.66-.28-.17-.79-.38-.89-.78.55-1,.46-.37-.35-.59-.45-.27-.55-.49-.65-.45-.16-.67-.26-.47-.12-.69-.22-.48-.09-.7-.18-.38-.32-.6-.41-.39-.31-.61-.4-.42-.25-.64-.34-.61.22-.83.13-.23-.7-.45-.79-.69.43-.91.34-.31-.51-.53-.6-.35-.44-.57-.53-.72.54-.94.46-.22-.75-.45-.84-.45-.14-.68-.23l-.67-.23-.68-.23c-.23-.08-.51,0-.73-.07s-.54.08-.76,0-.34-.46-.57-.54-.35-.46-.57-.54-.63.38-.86.3-.27-.71-.49-.78-.54.12-.77,0-.42-.26-.64-.33-.56.2-.79.13-.36-.45-.59-.52-.56.22-.79.15l-.69-.2c-.22-.06-.36-.46-.59-.53s-.47-.09-.7-.15-.48,0-.71-.09-.52.1-.75,0-.37-.47-.6-.53-.43-.25-.66-.31-.6.45-.84.39-.49,0-.73,0-.36-.5-.59-.56-.5,0-.73,0-.5,0-.73,0-.42-.29-.65-.34-.36-.6-.59-.65-.55.24-.78.2-.45-.18-.68-.22-.54.24-.77.19-.33-.78-.57-.83-.54.28-.77.23-.55.36-.79.32-.38-.58-.61-.62l-.71-.12c-.23,0-.54.34-.78.3l-.7-.14c-.23,0-.38-.6-.62-.64s-.51.15-.74.11-.51.18-.75.14-.38-.66-.62-.7l-.71-.09c-.24,0-.57.6-.81.57s-.46-.13-.7-.16-.38-.75-.62-.78-.48,0-.72-.06-.52.34-.76.31-.42-.46-.66-.49-.55.6-.79.57l-.72-.07c-.23,0-.44-.35-.67-.38s-.44-.43-.67-.45-.49.08-.73.06-.52.41-.76.39-.48,0-.72,0-.43-.49-.67-.51-.48,0-.72,0-.5.22-.73.2-.51.29-.75.27-.4-.91-.64-.93-.53.58-.77.56-.47-.11-.71-.12-.49.12-.73.11-.44-.53-.68-.55-.48-.07-.72-.08-.48-.11-.72-.12l-.71-.05c-.24,0-.49.08-.73.07s-.5.53-.74.52l-.72,0c-.24,0-.48-.15-.72-.16s-.47-.13-.71-.14-.48-.14-.72-.15-.47-.24-.71-.25-.49.3-.73.29-.47-.39-.72-.39-.49.16-.73.15-.49.2-.73.19-.48-.35-.72-.36-.49,0-.73,0-.48.54-.73.54-.49-.55-.73-.53-.49,0-.73,0-.42.74-.66.76-.54-.58-.78-.55-.39.64-.63.67-.54-.35-.77-.31-.45.19-.69.23-.43.31-.66.35-.54-.26-.78-.21l-.7.14c-.24.05-.46.16-.69.22s-.43.25-.67.31-.46.1-.69.17-.54-.13-.77-.07-.27.8-.5.87-.56-.23-.79-.16-.36.46-.59.53-.58-.25-.81-.17-.57-.19-.8-.11-.36.44-.59.51-.57-.19-.8-.11-.33.51-.56.59-.38.35-.61.43-.43.22-.66.31-.66-.41-.89-.32-.3.56-.52.65l-.67.28c-.22.09-.57-.14-.79,0s-.27.62-.49.71-.62-.24-.84-.14l-.67.26c-.22.1-.41.28-.63.37s-.49.08-.71.18-.27.6-.49.7-.56-.08-.78,0-.38.33-.6.43-.35.39-.57.49-.56-.06-.78.05-.48.11-.7.21-.39.3-.61.4-.26.58-.47.69-.34.41-.56.52-.55-.05-.77.06l-.66.31c-.21.11-.45.17-.67.28s-.5.08-.71.19-.58-.05-.79.06-.48.14-.69.25-.14.79-.35.9-.67-.24-.89-.12-.32.43-.53.55-.27.52-.48.63-.72-.31-.93-.19-.36.36-.57.48-.37.33-.58.45-.17.7-.38.81-.5.1-.71.22-.57,0-.78.09-.23.59-.44.71-.72-.28-.93-.16-.07.82-.28.95-.55,0-.76.13-.55,0-.76.14-.44.2-.65.33-.55,0-.75.15,0,.85-.26,1-.62-.09-.83,0-.39.29-.6.41-.49.14-.69.27-.17.64-.37.77-.58,0-.78.11-.16.65-.35.78-.75-.26-.95-.13-.18.6-.38.73-.33.38-.52.52-.32.37-.51.5-.36.34-.56.47-.46.17-.66.3-.64-.14-.85,0-.5.08-.71.2-.11.74-.32.86-.5.07-.71.18-.35.37-.56.48-.73-.38-.94-.27-.33.38-.54.49-.49.07-.71.18-.26.53-.48.63-.27.53-.49.63-.74-.48-1-.38l-.64.3c-.22.1-.46.14-.67.23s-.24.65-.46.74-.59-.18-.81-.09-.34.43-.56.52-.28.58-.5.67-.71-.51-.93-.42-.39.31-.61.4-.25.67-.48.76-.6-.26-.83-.18-.53-.08-.76,0-.16,1-.38,1-.67-.44-.89-.36-.43.23-.66.31-.27.67-.5.75-.56-.16-.78-.08-.39.36-.61.44-.61-.32-.84-.24-.46.13-.69.21-.31.61-.53.68-.58-.22-.8-.15-.34.53-.57.6-.58-.25-.81-.18-.51,0-.74,0-.42.28-.64.35-.37.48-.59.54l-.69.22c-.23.07-.45.17-.68.23s-.59-.32-.82-.25-.3.7-.53.76-.5,0-.73.08-.63-.5-.86-.44-.27.84-.5.9,7.88.13,7.65.19l-.23.06c-.23.06-.32.67-.55.72s6.85.5,6.63.55-.4.41-.62.47,3.68.27,3.46.32-.42.32-.64.37-.43.28-.66.34S205.22,43.15,205,43.2s-.4.43-.62.48-.54-.16-.75-.11-.3,1-.51,1-.55-.1-.74-.06c-.45.09-.36,0-.7.07s-.5-.19-.76-.15-.48-.23-.73-.21-.43.59-.68.6,40.86,10.42,40.61,10.43-.48-.65-.73-.66-.47,0-.71,0-.49.44-.74.43-.47-.17-.71-.18-.47-.26-.71-.27-.5.35-.75.33-.47-.22-.71-.24-.48-.11-.72-.13-.46-.41-.7-.43-.53.5-.77.48-.51.31-.75.28-.47-.24-.71-.26-.47-.2-.71-.22-.46-.24-.7-.27-.5.07-.73,0-.48-.23-.7-.25-.54.23-.76.2-.47-.46-.67-.49c-.45,0-1-.08-.72.12s.43-.09.76.06.28.25.61.4.38,0,.71.17.06.76.39.91.5-.23.83-.08.48-.21.82-.06.12.61.45.76.39,0,.72.16.49-.23.82-.09.19.46.52.6.43-.07.76.08.07.72.4.87l.67.28c.33.15.43-.08.76.07s.23.38.56.53.54-.35.87-.2.2.45.53.59.26.32.59.47.64-.54,1-.4,0,.85.36,1,.58-.41.91-.27-44.12-7.52-43.78-7.38.3.22.63.36l.66.31c.33.15.43-.06.76.08s.49-.21.82-.06.38.06.71.21.15.52.43.77,0,.11-.4.55c-.13.17-12.22.67-12.42.91s-.17.51-.36.74-6.41-.54-6.59-.32-.9-.21-1.09.07.45.83.3,1.06-.71.08-.85.29-1-.11-1.17.1-.35.32-.48.53-.2.43-.33.64-.73.09-.86.3-.74,1.15-.87,1.36-.67.13-.8.34,1.17-.6,1-.4-.49.25-.62.46-4.76,3.82-4.88,4-7.17-.38-7.29-.18-1.15-.3-1.77-1.62c-.1-.21-.68.15-.81.35s.14.64,0,.84-.73.12-.85.32-.07.51-.2.72l-.36.61c-.13.21-.11.49-.23.7s0,.56-.11.76-.14.48-.26.68-.5.25-.62.46-.48.27-.6.47-.45.29-.58.49.16.65,0,.86-.08.51-.2.71-.23.43-.35.63-.8.08-.92.29-.35.35-.47.55-.17.47-.29.67.37.78.25,1-.68.16-.8.36l-.38.61c-.12.21,0,.56-.13.77s-.13.48-.25.69-.34.36-.46.56-.56.23-.69.43.24.71.12.91-.93,0-1.05.21.27.72.15.93-.15.48-.27.68-.89,0-1,.23-.13.49-.25.69.06.6-.06.8-.42.31-.54.51.14.64,0,.84-.34.36-.46.56-.35.36-.47.56-.15.48-.26.67-.23.44-.35.63-.79.1-.91.29,0,.61-.07.79-.28.43-.38.6c-.24.39-.5.15-.18.3s.22.26.58.29.37-.11.73-.08.32.55.68.58l.71.06c.36,0,.39-.39.75-.37s.32.58.68.6.36,0,.72,0,.37-.13.73-.1.4-.56.76-.53.32.64.68.67.41-.64.77-.62a.65.65,0,0,1,.64.44c.18.33,0,.38-.13.7s-.05.39-.22.71-.33.24-.51.56-.67,0-.85.37-.15.34-.32.66-.12.35-.29.67.14.5,0,.82.07.45-.11.78-.78,0-1,.31-.11.36-.29.68.2.52.05.86-.56.16-.6.62c0,.2.26.46.24.73s.17.46.15.72-.46.43-.47.68.22.48.2.73,0,.46,0,.71.55.49.54.73-.76.44-.77.68.11.48.1.72-.05.47-.06.71.63.49.62.74-.54.45-.55.69-.33.47-.33.71,0,.47,0,.72.77.48.77.72-.59.46-.59.7-.31.47-.32.71.21.47.21.71,0,.47,0,.71.48.48.48.71-.73.48-.73.72.3.47.3.71.62.47.62.71-.59.48-.59.72.31.47.31.71.13.47.14.71.16.47.16.71-.08.47-.08.71,0,.47,0,.71-.06.47-.06.71-.49.49-.49.73.68.45.69.69-.76.5-.75.74.18.47.19.71,0,.48,0,.72.31.46.32.7.47.45.49.68-.46.51-.44.74.25.47.26.7,0,.48,0,.72.1.47.12.71-.54.52-.53.76.06.48.08.72.58.43.6.67-.1.49-.08.72.11.48.13.71-.5.54-.48.77.77.41.79.65-.6.55-.58.79,0,.49,0,.73.3.45.33.69.7.4.73.64-.15.5-.12.74-.36.54-.33.78-.1.51-.06.75.79.36.83.6-.42.56-.38.8.35.43.39.66-.17.53-.12.76.27.44.31.68.49.39.53.63-.5.6-.45.83.55.38.6.61-.15.53-.09.76.24.44.3.68-.1.52,0,.75.1.48.16.71.29.42.36.65,0,.51,0,.74.07.49.14.72,0,.5.06.73.3.42.37.65.12.47.19.7.76.26.83.48-.62.72-.55.95.92.19,1,.42-.24.6-.16.82-.16.57-.07.79.39.37.48.59.1.48.19.7.22.44.31.66.14.47.23.69.33.39.42.61.56.29.66.5.21.44.31.65.18.45.28.66-.35.7-.25.91.65.23.75.43.32.39.43.59-.46.8-.35,1,1,0,1.11.21,0,.58.08.77-.2.72-.08.9.71.16.83.32c.28.36.71.7.75.6s-.25-.64,0-.85a5.36,5.36,0,0,1,.54-.48c.18-.13.77.31,1,.17s.09-.7.3-.82.5-.09.71-.21.49-.06.7-.17.27-.51.49-.61.3-.5.51-.6.54,0,.76-.06.5-.05.72-.12.57.27.79.21.38-.42.61-.46a6.5,6.5,0,0,1,.69-.19,4.57,4.57,0,0,1,.72-.09c.23,0,.45.3.69.33s.46.11.71.15.53-.28.78-.24.35.68.58.73.56-.26.79-.21.51,0,.74.05.43.29.66.35.52-.05.75,0,.37.48.59.55.6-.22.81-.16.46.28.66.34c.42.14.41.49.59.18s-.29-.38-.23-.74.63-.27.68-.63-.5-.45-.45-.81.09-.36.15-.72.53-.29.59-.65-.27-.41-.21-.77.5-.29.56-.66.09-.35.14-.71-.55-.45-.5-.81.61-.28.66-.64-.56-.45-.5-.81.67-.27.73-.63-.55-.45-.5-.82.89-.23.94-.59-.32-.42-.27-.78-.13-.39-.08-.75.58-.29.64-.65-.37-.43-.32-.79,0-.37.08-.73-.17-.4-.12-.76-.13-.39-.08-.75.62-.28.67-.65.39-.31.45-.67,0-.36.1-.73-.18-.4-.12-.76,0-.38,0-.74.35-.4.34-.77c-.13-.19-1-.13-1.14-.33s.29-.77.16-1-.66-.4-.79-.6c.23.07.72.07,1,.14s.61.47.85.54c.17-.33-.2-.48-.14-.85s.1-.37.16-.74-.12-.39-.06-.76.53-.3.58-.67.11-.36.17-.73l.1-.74c.06-.37-.13-.4-.07-.77s-.3-.42-.24-.79.14-.36.19-.73.54-.3.6-.67-.07-.4,0-.77-.5-.42-.5-.79.28-.23.4-.67c0-.18.3-.29.44-.54s.4-.19.56-.39-.27-.84-.09-1,.49-.14.69-.3.58,0,.78-.12.23-.45.43-.58.33-.33.54-.45.47-.1.68-.21.45-.12.67-.23.41-.19.63-.3.43-.5.65-.6c-.24,0-.64.19-.89.19s-.5.11-.75.1-.5,0-.75,0l-.92-.06c-.14-.23-.16-.73-.31-1s.05-.68-.1-.9-.21-.06-.36-.28c.22.09.22-.36.43-.26s.16.78.38.87l.63.31c.21.1.58-.15.79,0s.35.35.57.45.28.52.49.61l.79.34c.16-.07.33-.6.5-.68s.37-.29.61-.39.5,0,.73-.09.36-.35.59-.44.62.3.85.21.3-.54.53-.63.48,0,.71-.12.29-.59.52-.67.68.47.91.39.48-.06.71-.14.2-.81.43-.9.39-.33.62-.41.69.53.92.44.39-.3.62-.38.39-.34.61-.42.42-.23.65-.31.56.17.78.09.35-.44.57-.52.31-.54.54-.62.46-.12.68-.2.62.33.85.25.47-.1.69-.18.32-.51.55-.59.52,0,.74,0,.58.2.8.12.44-.19.67-.27.27-.66.49-.74.41-.29.63-.37.71.56.93.48.42-.23.65-.31.43-.21.65-.28.4-.3.63-.38l.67-.26c.22-.08.31-.55.54-.63s.46-.13.68-.21.65.41.87.33.22-.84.44-.92.56.13.78,0,.48-.09.71-.17.56.16.79.09.36-.43.58-.51.47-.13.69-.2.29-.65.51-.73.71.56.94.49.37-.39.6-.47.36-.42.59-.49.51,0,.74-.08l.67-.26c.23-.08.56.14.79.06s.32-.54.54-.62.43-.24.66-.32.61.29.84.21.32-.54.54-.62.35-.47.57-.55.49-.08.71-.16.51,0,.74-.08.51,0,.74-.08.37-.39.59-.47.4-.32.63-.4.61.27.83.19.36-.43.58-.51.5,0,.72-.12.55.1.78,0,.53.06.75,0,.36-.42.59-.5.47-.1.69-.18l.69-.22c.22-.08.42-.25.64-.33s.43-.22.65-.3.52,0,.74-.06.38-.35.6-.43.43-.23.65-.31.42-.27.64-.36l.66-.25c.23-.09.39-.34.6-.43s.54,0,.75-.06.59.14.79,0,.2-.8.39-.89a6.51,6.51,0,0,0,.61-.32c.21-.11.79.48,1,.36s.42-.25.62-.37,0-.86.23-1,.5-.1.69-.23.36-.32.55-.45.66.1.85,0,.19-.54.38-.68.64.05.82-.1,0-.79.17-.93.81.27,1,.12.26-.42.45-.57.34-.32.53-.46.12-.65.31-.79.69.18.89,0,.35-.31.55-.44.48-.09.68-.21.24-.51.45-.62.54,0,.75-.08.21-.64.43-.74.36-.38.58-.47.47-.12.7-.2.67.52.9.45.29-.6.53-.69l.66-.26c.21-.08.44-.16.66-.26s.51,0,.73-.13.3-.47.51-.58.62.19.84.07.16-.71.38-.82.69.3.9.18.4-.27.61-.38.36-.32.57-.44.31-.42.52-.54.62.13.83,0,.42-.22.63-.35,0-1,.18-1.08.69.24.89.11.44-.19.64-.31.24-.52.44-.65.64.14.85,0,0-.87.22-1,.68.2.89.07.49-.12.69-.24.38-.3.58-.43.44-.19.64-.32.37-.31.57-.44.38-.29.58-.42.07-.74.27-.88.42-.23.62-.36.64.1.84,0,.07-.73.27-.87l.59-.41c.2-.13.51-.11.7-.25l.6-.4.58-.42c.19-.14.71.16.9,0s.42-.24.62-.38.21-.53.4-.67,0-.73.24-.88.77.22,1,.08,0-.78.2-.92.67.08.86-.07.22-.5.4-.64.29-.41.48-.56.69.11.88,0,.41-.25.6-.4.31-.38.49-.53.58-.06.77-.21,0-.73.2-.88.41-.26.59-.41.22-.47.39-.63.44-.23.61-.39.44-.22.61-.38.5-.18.67-.34,0-.68.17-.86.47-.22.64-.39.36-.33.53-.51.58-.12.75-.31,0-.6.2-.79.21-.46.37-.65.37-.32.52-.51.4-.31.55-.5.38-.33.52-.52-.06-.66.09-.85.34-.35.48-.55.31-.38.44-.58.43-.3.56-.51.68-.14.81-.34-.44-.87-.31-1.07.6-.2.73-.41.33-.38.45-.58.09-.52.21-.73,0-.57.12-.78.38-.34.5-.55.42-.32.54-.53.11-.5.22-.71.78-.14.89-.35-.39-.76-.28-1,.59-.25.69-.46.13-.49.23-.7.16-.48.26-.69.6-.26.7-.47.07-.53.16-.73-.31-.72-.23-.9c.18-.43.19-.85.54-.91s.46.41.84.45.39,0,.77,0,.38.1.77.15.4-.11.79-.07.26.49.62.62.32,0,.62.19.47-.07.76.12.27.23.56.43.19.36.48.55.53-.16.82,0,.13.44.43.63.28.21.58.4.13.44.43.63.19.36.48.55.36.11.65.31.41,0,.68.22.41.08.64.34,0,.45.27.71.72-.18.95.08-.23.69,0,1,.29.2.53.46.42.09.66.35.23.27.46.53.11.38.34.64.57,0,.81.23-.36.81-.12,1.07.44.08.68.34,0,.43.28.7.73-.16,1,.11.07.43.31.7-.05.53.19.81.84-.25,1.08,0-.41.85-.17,1.12.62-.06.87.22.15.35.39.63.58,0,.82.25-.07.56.17.83.17.34.42.61.23.29.47.56.36.17.6.45.35.19.59.46.1.4.35.68-.09.56.16.84.25.27.49.55.62,0,.85.24.32.14.54.54c.1.18.27.36.41.6s-.18.63,0,.86.24.4.36.63.05.51.17.73.35.35.47.57,0,.52.17.73.13.48.24.7.95,0,1.07.24-.28.7-.16.92.35.35.47.57.57.24.68.45.2.44.32.65.25.42.36.63,0,.55.13.76.43.32.55.53.2.46.31.67-.21.67-.09.89.38.35.5.56.41.34.53.55-.17.65-.06.86.18.46.29.68.41.33.53.54.3.39.41.6.47.3.58.51.05.53.16.74.29.4.39.6,0,.53.09.76.85.13.95.35.05.51.15.74-.32.65-.22.88.78.2.87.42,0,.53.07.76.19.44.28.67.1.48.19.71.44.35.52.58-.41.66-.33.89,0,.49.12.72.35.39.43.61.73.25.81.48.23.43.31.66.12.47.2.7.21.45.29.68-.05.53,0,.76-.19.58-.12.81.19.45.27.67-.12.55,0,.78.89.22,1,.45-.66.73-.58,1,.89.22,1,.45-.48.67-.41.9.14.47.21.69.86.24.93.47-.46.66-.39.88.19.46.26.68.09.49.16.71.62.33.68.55.38.41.45.62-.3.64-.24.83c.14.44.23.31.33.65s-.34.36-.23.82c0,.2.29.4.36.67s0,.47.1.73.42.39.48.64-.41.6-.36.84.52.38.57.63,0,.5,0,.74.56.37.62.62,0,.49.1.73,0,.49.1.73-.38.6-.33.84.79.32.85.56-.12.54-.07.77.29.45.34.68-.3.58-.24.82-.23.56-.17.8,1,.29,1,.53,0,.5.09.73-.27.58-.22.81.15.49.2.71,0,.48,0,.72.25.44.29.68-.12.49-.08.73.2.45.24.69-.23.51-.2.75.13.46.16.69.09.48.12.71-.08.5-.06.73.22.46.24.7-.08.49,0,.72.66.42.68.65,0,.5,0,.73-.16.51-.14.73.26.49.28.69c0,.45-.21.37-.17.72s.48.29.52.64-.35.39-.3.74-.16.37-.11.72.21.32.26.67-.13.37-.09.72.51.28.56.63-.54.43-.49.78.77.25.81.59-.5.42-.46.77.15.34.2.69.48.29.53.64-.84.46-.79.81.91.24.95.59-.61.43-.56.78.21.33.25.68-.21.38-.16.73.33.31.37.66.37.31.41.66-.11.37-.07.73-.3.46-.15.78.22-.36.65-.64c.16-.11.48-.07.72-.23s.31-.38.54-.52.56.11.8,0,.32-.59.57-.64a6,6,0,0,1,.72-.26c.22,0,.49.06.74.06s.47.75.72.75.47-.4.72-.38.5-.34.75-.32.39.7.64.73.51-.29.76-.25.46.13.7.17l.71.13c.23.05.52-.16.76-.1s.49,0,.73.1.28.69.5.78.58-.13.79,0a6.59,6.59,0,0,1,.65.33c.2.14.28.43.46.59s.16.51.33.68.86-.15,1,0,.35.36.5.55-.19.75-.06.95.68.12.81.31-.3.76-.18,1,.35.35.47.55.08.49.19.7.16.45.27.66.21.43.31.64.17.44.26.65.57.29.66.5.4.39.47.59.27.45.34.65c.14.42-.13,1.18.09.91s-.27-.65-.09-1,.65-.15.83-.53.37-.29.55-.66-.3-.45-.07-.89c.09-.18.18-.42.31-.68s.21-.44.34-.69.4-.34.52-.58.47-.33.59-.57-.26-.34-.14-.58c-.33-.16-.22-.44-.58-.47s-.35-.15-.71-.19-.37.07-.73,0-.37.05-.74,0-.42.21-.75.07S364.75,159.1,364.4,159ZM180,93.4c.14.07.1-.05.24,0s.54-.31.55-.14c-.16-.23-.64.08-.79-.15Zm5.93-45c-.13,0,0,.17-.12.14,0-.21,17-1.28,17-1.5s-.67-.4-.68-.61.2-.41.19-.62c.19.09.44,0,.63.07s.46,0,.65.12.42.41.61.5c0,.23-17.55,1.6-17.56,1.84s.17.23.16.47c-.2,0-.09-.17-.29-.21S186.1,48.4,185.91,48.36ZM167.53,75.61c0,.12-.05-.14-.05,0s.79,0,.76,0-.37.08-.37,0C167.69,75.61,167.51,75.58,167.53,75.61ZM168,91.14c.09-.08-.42-.11-.33,0,0,.24-.16.19-.15.42s.66.45.67.69-.2.48-.19.71.21.6.23.84c-.16-.08-.8-.12-1-.2,0-.22.13-.61.14-.83s.67-.4.68-.62-.06-.43,0-.65S168,91.36,168,91.14Zm-16.92,17.94c0-.14.14.24.14.1.18-.31.19-.38.35-.69.11.15.15-.19.26,0s0,.44.14.6.55.57.73.82c-.28-.06-.81.15-1.09.09S151.37,109.13,151.09,109.08Zm41.74-48.17c-.2,0,.24,0,0,0,0-.21.13-.17.13-.38s-.53-.6-.53-.81c.3-.1.39.12.69.22,0,.22.19.41.19.63S192.83,60.69,192.83,60.91Zm.9-13.5.26.37s-.74.26-.72.27S193.73,47.39,193.73,47.41ZM230,78.08l.76-.24.06.11c0-.25-.64-.47-.64-.72s.23-.5.22-.75-.22-.57-.22-.82a1.63,1.63,0,0,1,.62,0c0,.26-.13.63-.13.89s-.65.53-.66.79S230,77.82,230,78.08Zm1-30.3c-.32.09-.21,0-.54,0s-.31,0-.64,0c-.11,0-.31.64-.38.55,0-.28.16-.67.15-.95s-.19-.69-.2-1c.21.1.71,0,.93.11s.41.35.63.46-.32.62-.21.79S231,47.59,231,47.78Zm9.9-31c0-.08.17.5.16.42a2.71,2.71,0,0,0-.55.12c0,.08.19-.27.24-.19C240.83,16.92,241,16.82,240.91,16.78Zm3.48,12.38c-.35.07-.24,0-.61-.05s-.36-.07-.72-.1-.46.66-.82.57c-.1-.14-.15-.43-.25-.56.41-.08.41-.24.83-.24s.42-.17.84-.17a2.77,2.77,0,0,1,.9.14C244.55,29,244.4,29,244.39,29.16Zm10.79,30.77s-.16.75-.16.71.63-.22.7-.18C255.77,60.23,255.28,60,255.18,59.93Zm.94-12.17a3.58,3.58,0,0,1-.57,0s-.09.79-.12.75c.35,0,.39-.62.73-.58C256.16,48,256.12,47.74,256.12,47.76Zm24.53,12.43c-.2-.12-.14-.12-.34-.23,0,0-.26.71-.26.67.32,0,.39-.67.7-.58C280.74,60.18,280.65,60.06,280.65,60.19ZM280,32.26a4.92,4.92,0,0,1-.67,0c-.13,0,.1.12,0,.08,0-.21-.61-.2-.62-.4s.18-.39.17-.59c.25.14.58.09.82.24s.58.13.82.27.26.31.42.4.15,0,.31.06c-.33.06-.14.23-.45.09A1.47,1.47,0,0,0,280,32.26Zm26.3,12.24a3.66,3.66,0,0,1-.57,0c-.3,0-.3-.07-.6-.09s-.41.66-.7.58c0-.12.05-.38,0-.5.4,0,.4-.23.8-.23s.45-.22.85-.17l.4.6C306.51,44.73,306.3,44.45,306.29,44.5Zm.57-12.25c-.4,0-.4,0-.79,0a6.45,6.45,0,0,1-.76,0c0-.05-.09.16-.12.11.42,0,.41.27.83.3s.44-.19.86-.15Zm11.68,13.4c-.18.1.09,0-.1-.06a6.65,6.65,0,0,0-.61-.27c-.21-.08-.72.42-1,.36,0-.19.16-.51.15-.69s-.11-.55-.12-.74c.3-.09.37-.19.68-.19s.31.14.62.14.17.5.45.62c0,.27-.2.13-.21.4S318.55,45.38,318.54,45.65Zm12.79-.6c-.19-.26-.24.29-.43,0,.27-.13-.06,0,.21.09C331.1,45.42,331.34,44.81,331.33,45.05Zm12.38,61.66c.08,0-.12-.14,0-.15.13.2.16.33.28.53s.8,0,.92.23.09.46.21.65c-.41.07-.42.2-.84.16s-.55.23-.95.08c-.07-.27-.25-.81-.33-1.08s-.16-.23-.25-.49C343.11,106.87,343.32,106.71,343.71,106.71Zm0,18.57a3.87,3.87,0,0,1-.83,0c0-.13-.08.6-.11.48.4,0,.38-.61.79-.57s.38.26.78.3.42-.2.83-.16.48-.19.87-.1c.1.14.3.51.4.64s-.08,0,0,.17a3.21,3.21,0,0,0-.45-.24,5.88,5.88,0,0,0-.74-.26,6.86,6.86,0,0,0-.77-.24A5.29,5.29,0,0,0,343.71,125.28Zm22.56,4c-.14-.2-.07-.22-.2-.43s-.25-.44-.39-.65-.81-.06-.95-.27-.11-.48-.25-.69c.34-.09.35-.2.7-.17s.36-.15.7-.12.33.17.67.2.29.68.63.71.35,0,.69,0l.69.06c.34,0,.34.12.68.15s.27-.08.6,0c.16.21.09.28.24.49s.82,0,1,.26.38.37.53.58.2,1,.36,1.22c-.35.09-.45-.69-.81-.73s-.41.64-.76.61-.32-.44-.68-.47-.37.2-.73.17-.3-.62-.66-.65-.36,0-.72,0-.38.29-.71.14S366.61,129.43,366.27,129.32Zm7.84-10.75c.15.21.1.24.26.45s.28.45.43.66.83,0,1,.24.15.5.3.71c-.37.09-.39.2-.77.16s-.4.15-.78.11-.37-.17-.75-.2-.32-.69-.71-.72-.39,0-.77,0l-.77-.07a2.16,2.16,0,0,1-.67-.14c-.14-.21-.06-.23-.2-.44l-.41-.64c-.14-.21-.8-.07-.94-.28s-.19-.79-.33-1a2.19,2.19,0,0,1,.84-.11c.37,0,.31.71.68.75s.43-.63.8-.6.33.44.7.47.4-.2.77-.17.25.48.59.63A4.29,4.29,0,0,0,374.11,118.57Zm-6.85-20.5c.36-.07.25,0,.62.05s.26-.08.6.06c0,.27.46.09.51.36s-.13.57-.08.84.21.7.27,1a1.46,1.46,0,0,1-.77.13,2.52,2.52,0,0,1-.71-.21c-.14-.19.13-.84,0-1s-.27-.21-.41-.39c0-.22.09-.29.12-.51S367.22,98.28,367.26,98.07Zm-3.68,11.52c.13-.22.31-.54.42-.76s.28-.42.39-.64-.22-.83-.12-1c.4-.06.43.27.83.3s.42-.19.82-.16.5-.21.88-.09c.15.21.38.64.52.85s-.25.79-.1,1,.35.38.49.59.49-.12.64.08c-.35.09-.23-.13-.59-.16s-.36,0-.71,0-.36-.05-.71-.09-.42.6-.77.57-.37.06-.73,0-.37.13-.73.1-.28-.66-.63-.74c-.08-.11.06-.33,0-.44C363.66,109.11,363.55,109.62,363.58,109.59Zm-1.46,7.93c.15.21.09.24.24.45s.27.44.42.65.82,0,1,.25.13.5.28.71c-.35.09-.37.19-.73.16s-.37.15-.73.12-.35-.17-.7-.2-.31-.69-.67-.72-.36,0-.73,0l-.72-.06a1.43,1.43,0,0,1-.61-.14c-.16-.23-.12-.28-.27-.51s-.31-.48-.47-.71-.78,0-.91-.2-.17-.75-.31-.94a2.11,2.11,0,0,1,.82-.11c.35,0,.29.71.65.74s.42-.63.77-.6.32.44.68.47.38-.2.74-.17.23.47.56.62S361.78,117.41,362.12,117.52Zm-2.5,11.24c-.36.08-.23,0-.6-.06s-.37-.07-.75-.1-.42.61-.8.58-.35-.27-.72-.3-.4.2-.77.17-.39.14-.77.11a2.74,2.74,0,0,1-.78-.21c-.15-.21.13-.88,0-1.09s-.35-.38-.49-.59l-.43-.63c-.14-.2-.46.21-.61,0,.36-.09.22,0,.59,0s.36,0,.72.08.42-.59.78-.56.38-.06.74,0,.38-.13.75-.1.3.71.67.74.53-.69.88-.58c.15.21.2.82.35,1s.49.28.65.49-.18.77,0,1S359.47,128.55,359.62,128.76ZM355,77c0,.16,0,.18,0,.33,0,0,.81,0,.79-.07s-.64-.3-.64-.46C355.2,76.8,355,76.93,355,77Zm-.07,20c.28-.06.15,0,.43,0s.15-.09.4,0c0,.27.48.1.52.37s-.14.57-.09.83.18.71.24,1a1.47,1.47,0,0,1-.94.1c-.16-.21-.4-.63-.55-.84s.27-.69.11-.9c0-.19,0-.21,0-.4S354.92,97.18,354.94,97Zm-3,11c.12.07.16.16.3.22a4.7,4.7,0,0,0,.73-.46c.33-.23,0-.76.29-1a1.49,1.49,0,0,1,.78-.27c.48-.11.53-.25,1-.14.11.17.49.32.6.49s.18.52.33.74-.24.81-.09,1,.56-.13.71.1c-.37.09-.26,0-.63-.08s-.37-.13-.75-.16-.37,0-.75,0-.38-.06-.75-.09-.43.6-.81.56-.39.06-.77,0-.42.16-.8.1c0,0,.21-.48.17-.54C351.63,108.2,351.8,108.23,351.93,108Zm-2.38,8.44c.47-.09.32,0,.79.06.11.16-.07.18.05.34s.84.08,1,.31.12.58.28.8.39.62.55.84a1.9,1.9,0,0,1-.88.11c-.39,0-.38-.17-.78-.2s-.34-.69-.74-.73-.33.2-.7,0c.11-.24.4-.08.47-.33a7.86,7.86,0,0,0,.27-.82C349.88,116.58,349.55,116.68,349.55,116.41Z"/><path class="cls-5" d="M320.43,188.77c-.05.5,0,.51,0,1a6.58,6.58,0,0,1-.25,1c-.12.48-.18.46-.31.94a3.56,3.56,0,0,1-.66,1.87c-.21.45-.16.48-.4.92a5.16,5.16,0,0,1-.59.8c-.29.41-.3.4-.61.79a6.57,6.57,0,0,1-.6.79,7.92,7.92,0,0,1-.77.64c-.37.33-.35.34-.73.67a4.13,4.13,0,0,1-.77.61c-.42.27-.45.22-.88.47s-.37.36-.81.58a3.88,3.88,0,0,1-.92.38c-.47.16-.51.05-1,.21s-.41.35-.9.47a5.47,5.47,0,0,1-1,.08c-.49.07-.49.06-1,.12a4.69,4.69,0,0,1-1,.11,8.47,8.47,0,0,1-1-.09c-.49,0-.49-.07-1-.15s-.5,0-1-.16-.5,0-1-.18a6.16,6.16,0,0,1-.94-.33,5,5,0,0,1-.93-.38c-.44-.23-.39-.32-.82-.57s-.45-.21-.87-.48a4.22,4.22,0,0,1-.81-.57c-.37-.33-.32-.39-.69-.72a7.82,7.82,0,0,1-.77-.63,5.9,5.9,0,0,1-.59-.8c-.31-.39-.42-.3-.69-.72s-.18-.47-.43-.9-.32-.39-.55-.84a4.13,4.13,0,0,1-.34-.93c-.17-.46-.19-.46-.36-.92a5.32,5.32,0,0,1-.35-.94c-.12-.48,0-.51-.06-1s-.22-.47-.28-1a3.72,3.72,0,0,1,0-1c0-.5.07-.49.12-1s0-.49.11-1,.13-.48.24-1,0-.5.12-1a4.59,4.59,0,0,1,.36-.93,5.2,5.2,0,0,1,.37-.92,9.19,9.19,0,0,1,.52-.85c.25-.42.32-.39.57-.81s.12-.52.43-.91.45-.27.8-.63.24-.45.58-.81a3.64,3.64,0,0,1,.77-.64c.4-.29.42-.25.84-.54s.34-.38.77-.64.5-.11.95-.32.4-.31.87-.5a6.09,6.09,0,0,1,.94-.31c.48-.14.49-.07,1-.19s.47-.18,1-.28a4.63,4.63,0,0,1,1-.13,5.51,5.51,0,0,1,1,0c.49,0,.5,0,1,0a6.5,6.5,0,0,1,1,.06,7.71,7.71,0,0,1,1,.18,8.19,8.19,0,0,1,.94.35,7.86,7.86,0,0,1,.93.32c.46.19.49.11.94.32a7.3,7.3,0,0,1,.87.47c.43.25.41.28.83.54l.83.55a6.63,6.63,0,0,1,.78.62,5.23,5.23,0,0,1,.75.65c.33.38.26.44.57.83s.32.38.61.79a6.56,6.56,0,0,1,.54.83,7.44,7.44,0,0,1,.52.85,4.57,4.57,0,0,1,.33.94c.15.47.13.48.27,1s.23.45.36.93a6.45,6.45,0,0,1,.21,1c.08.49,0,.5.07,1s.11.5.14,1A4.9,4.9,0,0,1,320.43,188.77Z"/><path class="cls-5" d="M216.47,190.9c0,.5,0,.51,0,1a6.58,6.58,0,0,1-.25,1c-.13.48-.18.47-.32.94s0,.52-.19,1a8.21,8.21,0,0,1-.46.88c-.22.45-.17.48-.4.92a5.22,5.22,0,0,1-.6.8c-.29.41-.29.4-.6.79a6.65,6.65,0,0,1-.61.79,9.19,9.19,0,0,1-.76.64l-.73.67a4.2,4.2,0,0,1-.78.61c-.41.27-.45.22-.87.48s-.37.35-.81.57a4,4,0,0,1-.93.38c-.47.16-.51,0-1,.22s-.41.34-.9.46a5.55,5.55,0,0,1-1,.08l-1,.12a4.12,4.12,0,0,1-1,.11,8.09,8.09,0,0,1-1-.09c-.5,0-.49-.07-1-.15s-.5-.05-1-.16-.49,0-1-.18a6.68,6.68,0,0,1-1-.33,5.25,5.25,0,0,1-.92-.38c-.44-.23-.39-.32-.82-.57a9.17,9.17,0,0,1-.87-.48,3.82,3.82,0,0,1-.81-.57c-.38-.33-.32-.39-.7-.72a7.57,7.57,0,0,1-.77-.63c-.35-.35-.27-.41-.59-.8s-.41-.3-.68-.72-.19-.47-.44-.9-.31-.39-.54-.83a4.42,4.42,0,0,1-.35-.94c-.16-.46-.19-.45-.35-.92a6.28,6.28,0,0,1-.36-.94c-.11-.48,0-.5-.05-1s-.22-.47-.28-1a4.27,4.27,0,0,1,0-1c0-.5.08-.49.13-1s0-.49.11-1,.13-.48.24-1,0-.5.12-1a4.55,4.55,0,0,1,.35-.93,5.25,5.25,0,0,1,.38-.92c.23-.44.26-.42.52-.85s.31-.38.57-.81.12-.52.43-.91.44-.27.79-.63.25-.45.59-.81a3.64,3.64,0,0,1,.77-.64c.4-.29.42-.25.83-.54s.34-.38.77-.64.5-.11,1-.32.4-.31.86-.5a6.2,6.2,0,0,1,.95-.31c.47-.14.49-.07,1-.19s.47-.18.95-.28a4.71,4.71,0,0,1,1-.13,5.58,5.58,0,0,1,1,0c.49,0,.49,0,1,0a6.58,6.58,0,0,1,1,.06,5.59,5.59,0,0,1,1.91.53,7.28,7.28,0,0,1,.93.32c.46.19.49.12.94.33a6.14,6.14,0,0,1,.88.46c.43.25.4.28.82.54s.43.27.84.55a6.53,6.53,0,0,1,.77.62,4.8,4.8,0,0,1,.76.66c.33.37.26.43.57.82s.32.38.61.79a9.87,9.87,0,0,1,.54.83,9.19,9.19,0,0,1,.52.85,4.53,4.53,0,0,1,.32.94c.16.48.14.48.28,1s.23.45.35.93a5.44,5.44,0,0,1,.22,1c.07.49,0,.5.07,1s.11.5.14,1S216.52,190.4,216.47,190.9Z"/><path class="cls-3" d="M334.94,204c-5.07,7.65-11.91,13.82-19.1,19.35a114.92,114.92,0,0,1-23.44,13.93,94.29,94.29,0,0,1-26.4,7.37,84.7,84.7,0,0,1-27.46-1.08,98,98,0,0,1-25.8-9.27,81.23,81.23,0,0,1-22.14-16.35,58.61,58.61,0,0,1-8.26-11.25,51,51,0,0,1-6.49-26.88,47.09,47.09,0,0,1,.73-6.9,38.23,38.23,0,0,1,1.78-6.77,1.45,1.45,0,0,1,2.77.85l0,.09a44,44,0,0,0-1,6.31,57.83,57.83,0,0,0-.19,6.45,53.78,53.78,0,0,0,1.87,12.65,52.35,52.35,0,0,0,12.52,22,76.16,76.16,0,0,0,20.83,15.19,93.83,93.83,0,0,0,24.44,8.8,83,83,0,0,0,25.83,1.17,89.3,89.3,0,0,0,25.08-6.75,110.54,110.54,0,0,0,22.62-13.16c3.51-2.62,6.86-5.46,10.09-8.41s6.4-6,9.47-9.13h0a1.46,1.46,0,0,1,2.26,1.82Z"/><path class="cls-3" d="M299.05,56.35a5.34,5.34,0,0,1-.54,4.67,19.26,19.26,0,0,1-1,2c-.36.66-.75,1.3-1.16,1.94-1.69,2.5-3.59,4.83-5.46,7.13-1,1.15-1.83,2.35-2.83,3.45s-1.84,2.34-2.9,3.38-2,2.2-3.08,3.24-2.22,2-3.36,2.94-2.4,1.76-3.61,2.64L273.23,89c-.63.39-1.29.74-1.93,1.12l-3.85,2.24c-1.33.66-2.65,1.33-4,2-.66.34-1.31.7-2,1.08s-1.32.69-2,1.07c-1.31.73-2.61,1.52-3.95,2.2a10.76,10.76,0,0,1-2.1.82,17.83,17.83,0,0,1-2.18.55,11.17,11.17,0,0,1-4.64,0,.6.6,0,0,1-.44-.72.65.65,0,0,1,.15-.27l0,0c2.37-2.45,5.11-3.11,7.89-3.89,1.38-.4,2.81-.69,4.23-1,.71-.17,1.41-.36,2.11-.58s1.33-.57,2-.89c1.31-.61,2.62-1.25,3.91-1.9l3.67-2.33c.61-.39,1.22-.77,1.82-1.18l1.72-1.33,1.73-1.3c.57-.44,1.17-.84,1.7-1.33,4.46-3.64,8.89-7.48,12.19-12.27a47.82,47.82,0,0,0,4.15-7.59c.56-1.32,1.2-2.59,1.76-3.89a15.37,15.37,0,0,1,1-1.9,5.2,5.2,0,0,1,1.78-1.6l.07,0a.67.67,0,0,1,.9.27A.25.25,0,0,1,299.05,56.35Z"/><path class="cls-3" d="M288.3,50.94c.31,2.14-.6,3.63-1.5,5.09s-1.84,2.91-2.86,4.3c-2,2.79-4.24,5.43-6.29,8.17-4.14,5.45-7.91,11.2-12.46,16.36a192.51,192.51,0,0,1-14.78,14.35c-2.73,2.08-4.93,4.86-7.72,7a16.82,16.82,0,0,1-9.59,4.17.58.58,0,0,1-.61-.53.57.57,0,0,1,.11-.36l0,0c2.19-3.13,5.1-4.54,7.93-6.37a53,53,0,0,0,8.61-5.31c5.24-4.3,9.76-9.38,14.26-14.43s9-10.15,12.74-15.85c1.89-2.83,3.47-5.85,5.09-8.83.41-.74.82-1.48,1.24-2.21s.83-1.47,1.28-2.19c.84-1.47,1.65-2.93,3.59-3.78h0a.65.65,0,0,1,.86.33A1.54,1.54,0,0,1,288.3,50.94Z"/><path class="cls-3" d="M339.5,165a17.06,17.06,0,0,1,3.52-6.44,15.29,15.29,0,0,1,6-4.73l.94-.36c.33-.09.67-.14,1-.21a8.27,8.27,0,0,1,2.05-.15,10.85,10.85,0,0,1,3.87.89,15.82,15.82,0,0,1,6.13,4.59,14.87,14.87,0,0,1,3.24,7,15.67,15.67,0,0,1-.73,7.64,24.32,24.32,0,0,1-9,11.44.77.77,0,0,1-1-1.14h0c3.08-3.47,6.05-7,7.49-11.16a12.92,12.92,0,0,0,.55-6.3,12.29,12.29,0,0,0-2.64-5.7c-2.67-3.22-7.15-5.73-10.92-4.15a12.91,12.91,0,0,0-5.05,3.91c-1.45,1.7-2.58,3.69-4,5.52l0,0a.78.78,0,0,1-1.38-.66Z"/><path class="cls-3" d="M247.48,174.47c.45-.06.44.09.53.2l.24.34a6.1,6.1,0,0,1,.41.7,4.93,4.93,0,0,1,.31.75.83.83,0,0,1-.13.95,1.41,1.41,0,0,1-1.27.58.83.83,0,0,1-.81-.51,5,5,0,0,1-.37-.73,6.81,6.81,0,0,1-.26-.76l-.1-.4c0-.14-.14-.24.19-.54A2.32,2.32,0,0,1,247.48,174.47Z"/><path class="cls-3" d="M227.64,158.14c0,.37-.11.36-.15.73s0,.38-.07.75l-.08.74c-.05.37,0,.37-.08.74a4.86,4.86,0,0,1-.18.73c-.1.36-.08.36-.16.73s0,.37-.11.74a5.38,5.38,0,0,1-.24.71,5.48,5.48,0,0,1-.22.72c-.16.34-.2.32-.36.66s-.12.36-.28.69-.18.33-.35.66-.16.34-.35.67-.21.3-.41.62a3.72,3.72,0,0,1-.43.61,3.27,3.27,0,0,1-.55.5c-.28.25-.25.29-.54.52a2.43,2.43,0,0,1-.63.43,2.54,2.54,0,0,1-.72.18,3.8,3.8,0,0,1-.73.11,2.1,2.1,0,0,1-.75,0,1.78,1.78,0,0,1-.71-.25,2.15,2.15,0,0,1-.65-.4c-.29-.25-.24-.31-.49-.59s-.24-.28-.47-.58-.32-.25-.48-.59,0-.42-.15-.77-.23-.3-.39-.65a3.48,3.48,0,0,1-.29-.69c-.12-.36-.13-.35-.23-.72a6,6,0,0,1-.12-.74c-.07-.37-.1-.37-.18-.73a6.52,6.52,0,0,1-.16-.74c-.05-.38,0-.38-.05-.76a6.41,6.41,0,0,0-.17-.73c-.07-.37-.06-.37-.11-.74a4.92,4.92,0,0,1-.09-.76c0-.38.1-.38.1-.76a6.66,6.66,0,0,0-.09-.75c0-.38,0-.38,0-.76a4.71,4.71,0,0,1,0-.75c0-.39,0-.39,0-.77s.07-.38.09-.77a6.61,6.61,0,0,1,0-.77c.06-.38,0-.38.11-.76a6.87,6.87,0,0,0,.19-.75c0-.39-.05-.4,0-.78a6.24,6.24,0,0,1,.16-.75c.08-.38.12-.37.2-.74s.1-.37.19-.75,0-.41.1-.77.23-.33.38-.69a6.18,6.18,0,0,1,.26-.72c.19-.34.25-.3.45-.63s.09-.4.33-.71.35-.2.65-.45.27-.27.56-.51a2.72,2.72,0,0,1,.61-.46,2.42,2.42,0,0,1,.72-.27,3.22,3.22,0,0,1,.76-.09,9.64,9.64,0,0,1,1.52,0,2,2,0,0,1,.75.16,2.53,2.53,0,0,1,.66.37c.33.2.41.09.71.34s.24.31.48.61a2.76,2.76,0,0,1,.47.61c.19.34.11.38.28.72s.28.3.43.66a3.13,3.13,0,0,1,.16.75c.1.38.14.36.25.73a3.9,3.9,0,0,1,.18.75c.08.38,0,.39.08.77s.09.38.18.76a2.5,2.5,0,0,1,.15.75c0,.39-.09.39-.09.78s0,.39,0,.77,0,.39,0,.77.1.39.11.77,0,.39,0,.77,0,.39,0,.78A5.23,5.23,0,0,1,227.64,158.14Z"/><path class="cls-3" d="M272.29,155.4a6.39,6.39,0,0,0,0,.75c0,.38,0,.38.08.75s.05.37.11.74.08.36.17.73,0,.37.1.74.09.36.18.72a7.26,7.26,0,0,0,.27.7c.12.36.08.37.19.73s.17.34.27.69.06.38.18.73a6,6,0,0,0,.32.68,5.93,5.93,0,0,0,.31.68,6.73,6.73,0,0,0,.4.63,3.7,3.7,0,0,0,.41.62,6.57,6.57,0,0,0,.48.57c.25.28.2.32.46.59a2.63,2.63,0,0,0,.61.44,4.07,4.07,0,0,0,.65.35,3.21,3.21,0,0,0,.66.35,1.69,1.69,0,0,0,.74.1,2.28,2.28,0,0,0,.73-.12,2.17,2.17,0,0,0,.7-.25,2.31,2.31,0,0,0,.59-.45,2.72,2.72,0,0,0,1-1.08c.19-.32.1-.38.3-.69s.36-.23.52-.57a3.89,3.89,0,0,0,.21-.74c.11-.35.09-.36.21-.71s.11-.36.22-.72.16-.34.27-.7a6.08,6.08,0,0,0,.16-.74c.07-.37,0-.38.12-.74a6.7,6.7,0,0,0,.19-.74,4.66,4.66,0,0,0,0-.75c0-.38,0-.38,0-.75s0-.38,0-.76.15-.36.18-.74a4.87,4.87,0,0,0-.06-.76c0-.38.06-.38,0-.76s-.07-.37-.08-.75,0-.38,0-.77,0-.38,0-.77-.08-.37-.1-.76,0-.38-.06-.77a4,4,0,0,0,0-.77c-.07-.38-.15-.37-.22-.75s-.06-.38-.12-.76,0-.38-.12-.76-.09-.38-.21-.74-.23-.33-.35-.69,0-.4-.16-.76-.2-.33-.36-.68a4.45,4.45,0,0,0-.3-.71c-.21-.33-.3-.25-.54-.55s-.11-.41-.38-.7a1.91,1.91,0,0,0-.61-.48,4.47,4.47,0,0,0-.7-.33,6.15,6.15,0,0,0-.71-.28,3.15,3.15,0,0,0-.74-.22,2.83,2.83,0,0,0-.77-.06,2.49,2.49,0,0,0-.77.07,4,4,0,0,0-.76.19,2.27,2.27,0,0,0-.72.29c-.33.21-.24.32-.51.6s-.33.21-.58.5-.19.34-.41.64-.3.27-.47.62-.06.39-.2.75-.22.33-.36.69a2.74,2.74,0,0,0-.18.75c-.08.38-.09.37-.18.75s-.14.37-.2.75a4.08,4.08,0,0,0,0,.78,4,4,0,0,1,0,.77c-.05.38-.15.37-.2.75a6.78,6.78,0,0,0,0,.78,6.6,6.6,0,0,0,0,.77c0,.39.09.38.11.77s0,.39,0,.77,0,.39.08.77A6.77,6.77,0,0,1,272.29,155.4Z"/><path class="cls-3" d="M293.07,261.54c-.47.39-.69.3-.91.21l-.68-.24c-.45-.15-.89-.35-1.33-.53s-.85-.41-1.27-.64a10.14,10.14,0,0,1-1.19-.78l-.43-.36a1.64,1.64,0,0,1-.55-1.15c-.16-3.59-.3-7.18-.4-10.78s-.17-7.2-.15-10.8a1.09,1.09,0,0,1,2.18-.13c.44,3.58.79,7.16,1.13,10.74s.61,7.17.88,10.76l-1-1.51a11.72,11.72,0,0,1,1.32.53c.43.21.85.44,1.26.67s.8.5,1.19.79l.59.41c.2.13.39.26.35.87A2.87,2.87,0,0,1,293.07,261.54Z"/><path class="cls-3" d="M120.42,209.1a9.59,9.59,0,0,1-.88-4.22,28.31,28.31,0,0,1,.47-4c.19-1.33.44-2.66.68-4s.53-2.64.79-4l0-.15a1.91,1.91,0,0,1,.52-1,6.91,6.91,0,0,1,2.35-1.5,13.21,13.21,0,0,1,2.24-.66c1.41-.3,2.68-.48,3.87-.79a9,9,0,0,0,5.7-3.77,11.61,11.61,0,0,0,.91-1.58c.29-.6.56-1.2.82-1.81.53-1.21,1-2.43,1.47-3.67a42,42,0,0,0,2-7.59,35.69,35.69,0,0,0,.34-7.81,39,39,0,0,0-1-7.71,20.23,20.23,0,0,0-3-6.82,16.28,16.28,0,0,0-5.46-4.8l-.16-.1h0a40.75,40.75,0,0,0-10.55-5.43A14.14,14.14,0,0,0,116,137a9.31,9.31,0,0,0-4.91,1.95,2.71,2.71,0,0,0-.37,3.91,6.61,6.61,0,0,0,2,1.73c.82.5,1.76,1,2.65,1.49a118.21,118.21,0,0,0,11.17,5.22,1.39,1.39,0,0,1,.86,1.18v.17c.06.95.08,1.91.17,2.86l.22,2.87a1.73,1.73,0,0,1-1.6,1.87h-.32l-.4-.05a18.17,18.17,0,0,0-3.39,0,20.48,20.48,0,0,0-3.36.55,19.58,19.58,0,0,0-3.1,1.09,17.48,17.48,0,0,0-2.73,1.64,21.3,21.3,0,0,0-4.48,4.74,27.92,27.92,0,0,0-3.11,6.34l0,.09a.72.72,0,0,1-.92.45.76.76,0,0,1-.45-.46,11.57,11.57,0,0,1-.45-4.24,14.74,14.74,0,0,1,.94-4.21,16.24,16.24,0,0,1,5.29-7,17,17,0,0,1,8.16-3.29,20.38,20.38,0,0,1,4.27-.1,21.92,21.92,0,0,1,4.25.74L124,158.38l.23-2.87c.08-.95.11-1.91.17-2.86l.87,1.35c-3.71-1.94-7.44-3.75-11.11-5.76-.93-.5-1.82-1-2.77-1.56a9.55,9.55,0,0,1-2.66-2.36,5.21,5.21,0,0,1,.58-7.26,9.58,9.58,0,0,1,3-1.89,14.65,14.65,0,0,1,3.32-.9,16.81,16.81,0,0,1,6.71.67,32.55,32.55,0,0,1,6,2.42,48.1,48.1,0,0,1,5.53,3.31l-.17-.11a17.93,17.93,0,0,1,6.47,5.8,21.52,21.52,0,0,1,3.23,7.93,43.84,43.84,0,0,1,.75,8.26c0,1.35,0,2.75-.09,4.13s-.28,2.76-.5,4.12a52.67,52.67,0,0,1-2.06,8c-.43,1.3-.88,2.59-1.39,3.86l-.75,1.89a15.75,15.75,0,0,1-1,2,12.16,12.16,0,0,1-3,3.45,14,14,0,0,1-4,2.15c-1.37.5-2.74.84-3.93,1.22a5.19,5.19,0,0,0-2.52,1.36l.54-1.12c-.14,1.34-.24,2.68-.42,4s-.33,2.67-.54,4a28.61,28.61,0,0,1-.75,4,9.7,9.7,0,0,1-2.09,3.76.86.86,0,0,1-1.2.05A.91.91,0,0,1,120.42,209.1Z"/><path class="cls-3" d="M319.1,269.34A32.21,32.21,0,0,1,330,270.93c3.45,1.12,6.9,2.24,10.3,3.54a134.92,134.92,0,0,1,19.89,9.12,53.32,53.32,0,0,1,4.69,3,21.53,21.53,0,0,1,4.26,3.93,51.59,51.59,0,0,1,5.31,9.76,194.9,194.9,0,0,1,7.43,20.47c4.21,13.88,6.73,28.13,9.51,42.28.72,3.54,1.38,7.09,2.23,10.6s1.86,7,2.74,10.51a83.93,83.93,0,0,1,2,10.65,37,37,0,0,1-.25,11,.75.75,0,0,1-1.39.2h0a40.11,40.11,0,0,1-3.5-10.38A100.89,100.89,0,0,1,391.68,385c-.33-3.59-.55-7.2-1-10.78s-1.1-7.11-1.75-10.65-1.41-7-2.19-10.56-1.6-7-2.46-10.5Q381.77,332,379,321.58c-.93-3.46-1.86-6.92-2.95-10.33a94.89,94.89,0,0,0-3.7-10,36.11,36.11,0,0,0-5.32-9,17,17,0,0,0-3.87-3.14,50.67,50.67,0,0,0-4.59-2.52c-3.16-1.54-6.46-2.89-9.79-4.14s-6.69-2.45-10.07-3.62-6.76-2.32-10.17-3.41a39.09,39.09,0,0,1-9.81-4.7h0a.74.74,0,0,1-.19-1A.73.73,0,0,1,319.1,269.34Z"/><path class="cls-3" d="M221.11,256.42a5.55,5.55,0,0,1-3.16,1.22,8.45,8.45,0,0,1-1.51-.07l-1.49-.16c-2-.24-4-.6-5.95-1l-5.92-1.24c-2-.37-4-.68-6-.91-4-.49-8-.7-12-1s-7.89-.25-11.87-.33c-8-.1-16-.21-24,.38s-15.85,3.87-24.06.49a.77.77,0,0,1-.43-1,.79.79,0,0,1,.35-.39c7.82-4.26,16-1.84,24-1.76s16.05-.62,24.12-.77a84.64,84.64,0,0,1,12.18.49c4,.59,7.94,1.24,11.93,1.62,2,.21,4,.33,6,.4l6.05.06c2,0,4,.09,6,.3.49,0,1,.1,1.49.16a9.46,9.46,0,0,1,1.49.25,5.55,5.55,0,0,1,2.82,1.88,1,1,0,0,1-.14,1.38Z"/><path class="cls-3" d="M125.22,256.24a94.61,94.61,0,0,1-1.3-13.45c-.14-4.46-.07-8.93-.24-13.37s-.28-8.91-.86-13.17c-.14-1.06-.31-2.1-.53-3.05l-.19-.67c-.07-.22-.15-.37-.21-.56l0-.07s0,0,0,.06l0,.07s0,0,0,0a2.44,2.44,0,0,0-.36-.26,13.7,13.7,0,0,0-2.64-1.11c-1-.32-2-.59-3.09-.83a72.21,72.21,0,0,0-13-1.61,45.32,45.32,0,0,0-6.5.21,13.56,13.56,0,0,0-5.74,1.65,3.11,3.11,0,0,0-.47.38,2.52,2.52,0,0,0-.35.45,10.7,10.7,0,0,0-.72,1.31c-.46.95-.87,2-1.25,3-.77,2.06-1.41,4.19-2,6.33-1.2,4.28-2.21,8.63-3,13s-1.49,8.79-2,13.22A129.26,129.26,0,0,0,80,261.08a92.86,92.86,0,0,0,.71,13.25,44.69,44.69,0,0,0,3.38,12.56c1.76,3.88,4.53,7.26,8.25,8.92.46.2.92.37,1.43.55l1.58.5c1.06.32,2.1.69,3.17,1l3.21.86,3.23.74A93.17,93.17,0,0,0,118,301.37c2.19.13,4.4.24,6.59.18a49.77,49.77,0,0,0,6.45-.48h.08a.91.91,0,0,1,.23,0l15.48.48,7.74.23c2.58.08,5.16.1,7.74.15a1.24,1.24,0,0,1,1.23,1.24h0c0,8.68,0,17.36.19,26,.09,4.34.24,8.68.41,13l.48,13c.31,8.68.38,17.36.28,26.05a211.18,211.18,0,0,1-1.91,26,.71.71,0,0,1-.81.59.69.69,0,0,1-.59-.59,211.18,211.18,0,0,1-1.91-26c-.11-8.69,0-17.37.27-26.05l.48-13q.27-6.51.42-13c.19-8.68.15-17.36.19-26l1.22,1.25c-2.58-.05-5.16-.15-7.74-.17l-7.74-.1L131.31,304l.31,0a47.58,47.58,0,0,1-7,.62c-2.29.07-4.58,0-6.86-.15a94.74,94.74,0,0,1-13.54-1.93l-3.33-.8-3.28-.93c-1.11-.29-2.17-.68-3.26-1l-1.62-.53c-.55-.2-1.15-.43-1.7-.68a17.25,17.25,0,0,1-5.82-4.41,24.12,24.12,0,0,1-3.75-6.07,47.25,47.25,0,0,1-3.39-13.39A95.68,95.68,0,0,1,77.57,261a177.36,177.36,0,0,1,3-26.93c.85-4.43,1.78-8.85,2.93-13.23q.87-3.28,2-6.54c.37-1.09.77-2.17,1.25-3.26a13.77,13.77,0,0,1,.85-1.66,5.7,5.7,0,0,1,.67-.88,6.74,6.74,0,0,1,.81-.72,11.77,11.77,0,0,1,3.47-1.64,24.21,24.21,0,0,1,3.48-.79,49.55,49.55,0,0,1,6.94-.56,71.57,71.57,0,0,1,13.76,1.1c1.15.21,2.3.46,3.46.78a17.27,17.27,0,0,1,3.59,1.36,7.54,7.54,0,0,1,1,.7,4.36,4.36,0,0,1,.57.57,2,2,0,0,1,.29.41l.14.24.06.12c.14.33.32.69.42,1l.31.94a32.11,32.11,0,0,1,.76,3.54,120.76,120.76,0,0,1,1.1,13.68c.11,4.53.24,9,0,13.55a69.53,69.53,0,0,1-1.8,13.47.71.71,0,0,1-1.4,0Z"/><path class="cls-3" d="M307.48,60.24c2.61.31,4.28,1.91,5.86,3.48.83.76,1.54,1.62,2.29,2.44a30.56,30.56,0,0,1,2.12,2.58,124.4,124.4,0,0,1,7.32,11.06A142.73,142.73,0,0,1,337,103.29l2.16,6.23c.64,2.1,1.15,4.24,1.74,6.36l.86,3.17c.31,1,.47,2.14.71,3.21q.71,3.21,1.45,6.42c.12.53.25,1.07.39,1.6l.32,1.61c.24,1.07.47,2.14.76,3.21.54,2.14,1.12,4.27,1.6,6.43.67,4.35,1.1,8.77-.1,13.23a.55.55,0,0,1-.68.39.56.56,0,0,1-.36-.29v0c-2-4.22-2.37-8.49-2.62-12.82-.19-2.15-.28-4.32-.42-6.49a40,40,0,0,0-.76-6.47A113.37,113.37,0,0,0,339,116.42c-.65-2.07-1.24-4.16-1.94-6.21l-2.22-6.1c-3.12-8-6.35-16.16-11.24-23.33-.61-.89-1.25-1.77-1.89-2.63-.32-.44-.63-.88-1-1.3l-1.05-1.24-2.1-2.45c-.7-.82-1.48-1.56-2.2-2.35-1.44-1.59-3-3.06-4.47-4.58a14.18,14.18,0,0,1-4-5.12l0-.06a.58.58,0,0,1,.33-.77A.7.7,0,0,1,307.48,60.24Z"/><path class="cls-3" d="M240.43,56.46c-.27,2.17-1.54,3.4-2.8,4.62s-2.53,2.43-3.88,3.56c-2.68,2.28-5.48,4.4-8.14,6.68-5.35,4.5-10.3,9.49-15.88,13.74s-11.45,8.11-17.39,11.86c-1.47,1-3,1.91-4.4,2.93a44.19,44.19,0,0,1-4.46,3,25.83,25.83,0,0,1-4.9,2.17,15.19,15.19,0,0,1-5.48.49.56.56,0,0,1-.5-.63.52.52,0,0,1,.16-.34l0,0a15.5,15.5,0,0,1,4.38-3,45,45,0,0,1,4.66-2.07c1.63-.54,3.23-1.2,4.85-1.83.8-.32,1.59-.68,2.39-1s1.52-.82,2.27-1.27c6.05-3.39,11.45-7.83,16.93-12.06S219.4,74.83,224.39,70c1.28-1.18,2.47-2.46,3.64-3.74l3.52-3.87c1.18-1.27,2.35-2.56,3.6-3.76s2.39-2.5,4.52-2.86h0a.65.65,0,0,1,.75.54A.54.54,0,0,1,240.43,56.46Z"/><path class="cls-3" d="M343.05,32.7c-4.05-1.5-7.94-3.25-11.82-5s-7.72-3.61-11.66-5.22a199.55,199.55,0,0,0-24.12-8.41c-4.11-1.11-8.27-2.07-12.45-2.86s-8.43-1.32-12.68-1.65A95.56,95.56,0,0,0,244.88,11c-2.1.36-4.17.92-6.25,1.43s-4.16,1-6.19,1.65l-6.14,1.87-6,2.16a220.6,220.6,0,0,0-23.35,10.61c-7.61,3.92,2,7.81-6.17,10.9s56.63,8.25,47.91,8.14L225,52.88l-39.47,3c.47.21,4.58-2.61,4.37-2.14,0,.09-4.85,4.57-4.91,4.64l-1.46,5.15c-2.36,2.65-15.41,2.52-17.48,5.49s-8.1-1.35-10,1.77-3.62,6.32-5.3,9.56-3.22,6.54-4.69,9.87l-1.44-1.83,9.3-2.2a1.55,1.55,0,0,1,1.57,2.48l-.19.24a10.22,10.22,0,0,0-.72,1,11.07,11.07,0,0,0-.68,1.33l-.32.7-.27.73a14.43,14.43,0,0,0-.49,1.49l-.43,1.52-.31,1.57c-.24,1-.34,2.12-.51,3.18a85.79,85.79,0,0,0-.45,13c.1,2.19.22,4.39.38,6.59s.35,4.41.59,6.62.43,4.43.71,6.64.52,4.44.68,6.69v0a.53.53,0,0,1-.49.56.51.51,0,0,1-.53-.35c-.74-2.14-1.38-4.3-2-6.48s-1.07-4.39-1.55-6.6-.74-4.48-1.12-6.72c-.2-1.12-.23-2.26-.35-3.39s-.21-2.27-.28-3.41a70.68,70.68,0,0,1,.62-13.77,31.12,31.12,0,0,1,.7-3.43l.44-1.71.56-1.68a14.85,14.85,0,0,1,.66-1.67l.35-.83.42-.81a15.21,15.21,0,0,1,.94-1.6,10.27,10.27,0,0,1,1.33-1.63l1.38,2.73L145.2,91h-.09a1.29,1.29,0,0,1-1.48-1,1.24,1.24,0,0,1,.13-.81l2.56-4.9L149,79.41q2.66-4.83,5.5-9.56c1.91-3.15,15.61,4.54,17.72,1.52s58-3.6,41-14.1L180,69.05,229.45,48.3c-.52-.23,8.25-7.75,8.47-8.26s-13.74,12.77-13.36,12.75h.06c2.11-.11,4.23-.16,6.34-.31l3.14-.42a27.22,27.22,0,0,0,3.13-.51c2.06-.47-44.27-10-42.26-10.71l18.16.66L200.3,36.32c7.94-3-12.12-5.82-4.42-9.68,1.93-1,3.84-1.95,5.8-2.87s3.88-1.89,5.87-2.72c3.94-1.77,8-3.35,12-4.83a183.86,183.86,0,0,1,25-6.94,91.73,91.73,0,0,1,12.89-1.61,117.45,117.45,0,0,1,13,0c4.33.22,8.64.68,12.93,1.26s8.55,1.45,12.78,2.43a169.39,169.39,0,0,1,24.76,7.91c8,3.36,16,6.77,22.7,12.59a.53.53,0,0,1,.05.75.52.52,0,0,1-.58.15Z"/><path class="cls-3" d="M225.17,85.38a2.54,2.54,0,0,1,1.17,1,3.22,3.22,0,0,1,.49,1.26,3.45,3.45,0,0,1,0,1.24l-.07.61-.16.56-.33,1.1a10.39,10.39,0,0,1-.47,1,10.64,10.64,0,0,1-1.06,1.9c-.4.59-.83,1.16-1.24,1.73l-1.37,1.57c-.88,1.07-1.88,2-2.78,3-.48.49-.9,1-1.38,1.5s-.95,1-1.41,1.45c-.94,1-1.81,2-2.79,2.93l-2.87,2.86c-1,.94-2,1.79-3,2.66s-2.06,1.73-3.13,2.54l-3.26,2.37-3.24,2.39c-1.09.78-2.17,1.58-3.24,2.39-4.32,3.14-7.32,8.34-13.47,8.77a.6.6,0,0,1-.64-.56.6.6,0,0,1,.05-.3v0c1.32-2.86,3.54-4.3,5.86-5.62a50,50,0,0,0,7.06-3.83c1.11-.75,2.19-1.52,3.27-2.3s2.07-1.67,3.11-2.5l3.08-2.54,3-2.59c4-3.4,8.31-6.66,11.62-10.78a20.67,20.67,0,0,0,2.22-3.24l1-1.69c.27-.58.52-1.16.79-1.72a17.58,17.58,0,0,0,.7-1.71,11.25,11.25,0,0,0,.53-1.65l.12-.41.05-.38a7.46,7.46,0,0,1,.19-.75,9.32,9.32,0,0,1,.79-1.61l.27-.46A.44.44,0,0,1,225.17,85.38Z"/><path class="cls-3" d="M170.1,157.89a2.9,2.9,0,0,1-2.18.56,10.1,10.1,0,0,0-2,.23,5.81,5.81,0,0,0-3.44,2.2,8.4,8.4,0,0,0-1.06,1.93c-.13.36-.22.72-.32,1.08a6.75,6.75,0,0,0-.25,1.1,13.24,13.24,0,0,0-.25,2.23l-.06,1.1c0,.37.08.72.09,1.09a10.33,10.33,0,0,0,1.26,4.13,10.76,10.76,0,0,0,3,3.28,12.57,12.57,0,0,0,4.15,1.71,8.09,8.09,0,0,1,4,2.29l0,0a.4.4,0,0,1,0,.58.5.5,0,0,1-.12.08,5.54,5.54,0,0,1-4.88-.67,45.46,45.46,0,0,1-3.91-3,18.71,18.71,0,0,1-1.78-1.67,10.17,10.17,0,0,1-.82-.92l-.72-1a7.77,7.77,0,0,1-.61-1.09,5.3,5.3,0,0,1-.51-1.14l-.36-1.21a7.32,7.32,0,0,1-.19-1.23,8.84,8.84,0,0,1-.08-1.25l.11-1.23a12.5,12.5,0,0,1,.48-2.39,24.05,24.05,0,0,1,.77-2.31,19.66,19.66,0,0,1,1.12-2.19,8.71,8.71,0,0,1,3.75-3.52,6.64,6.64,0,0,1,2.62-.57,2.34,2.34,0,0,1,2.45,1.12.45.45,0,0,1-.13.6Z"/><path class="cls-3" d="M352.92,41.51c3,.52,5,2.42,6.8,4.33A48.08,48.08,0,0,1,364.81,52,71.24,71.24,0,0,1,369,58.73c1.23,2.33,2.43,4.67,3.51,7.06a95.89,95.89,0,0,1,8.56,30.12c.27,2.61.4,5.22.49,7.84v3.93c0,1.3-.1,2.61-.14,3.92s-.15,2.6-.24,3.91-.18,2.61-.34,3.9c-.27,2.6-.57,5.18-.89,7.77-.75,5.14-1,10.4-1.86,15.6a44,44,0,0,1-2.08,7.65c-.24.62-.5,1.23-.77,1.84s-.62,1.2-1,1.78a17.85,17.85,0,0,1-2.43,3.28.56.56,0,0,1-.78,0,.56.56,0,0,1-.17-.47v0a76.44,76.44,0,0,1,1.48-7.58c.63-2.44,1.28-4.9,2-7.35a106.33,106.33,0,0,0,3.66-15,116.14,116.14,0,0,0,.7-30.76A112.54,112.54,0,0,0,376.13,81a66.65,66.65,0,0,0-5.28-14.42,65.48,65.48,0,0,0-8.56-12.66c-1.63-1.94-3.34-3.81-5.09-5.61a22.36,22.36,0,0,1-4.87-5.92l0,0a.59.59,0,0,1,.62-.83Z"/><path class="cls-3" d="M350.75,313.76c1.69,1.88,1.58,3.72,1.53,5.56s-.17,3.68-.36,5.52c-.39,3.68-.94,7.35-1.16,11-.47,7.36.12,14.74-.12,22.1s-.84,14.72-.76,22.09c-.12,3.68.69,7.39,1,11.08s.19,7.37-2.06,11a.82.82,0,0,1-1.13.26,1,1,0,0,1-.28-.29c-2.09-3.73-1.94-7.42-1.58-11.09s1.44-7.34,1.49-11c.4-7.36,0-14.74.19-22.11s1-14.71.86-22.08c-.06-3.69-.46-7.38-.68-11.07-.11-1.85-.16-3.69-.12-5.53s0-3.68,1.77-5.49a1,1,0,0,1,1.37,0Z"/><path class="cls-3" d="M246.8,241.64c1.36,1.53,1.37,3.14,1.44,4.75s.11,3.22.1,4.84c-.05,3.23-.21,6.46-.08,9.68v0a.82.82,0,0,1-.69.84c-3.18.49-6.34,1.06-9.5,1.69l.12-1.72c2.2.65,4.43,1.22,6.62,1.89s4.39,1.35,6.57,2.07,4.35,1.47,6.53,2.19,4.35,1.46,6.54,2.14h-.56c2.77-1,5.54-2,8.26-3.19s5.4-2.43,8.11-3.62a88,88,0,0,1,8.26-3.19,36,36,0,0,1,8.78-1.76.51.51,0,0,1,.55.49.5.5,0,0,1-.21.44,35.7,35.7,0,0,1-7.86,4.3,86.89,86.89,0,0,1-8.37,2.87c-2.84.82-5.72,1.56-8.54,2.43s-5.6,1.88-8.38,2.87h0a.77.77,0,0,1-.54,0c-2.18-.71-4.39-1.35-6.59-2s-4.42-1.26-6.61-1.94-4.39-1.33-6.56-2.07-4.34-1.51-6.51-2.24l0,0a.89.89,0,0,1-.56-1.12.91.91,0,0,1,.71-.59c3.18-.46,6.36-1,9.51-1.58l-.69.87c-.24-3.21-.78-6.41-1.2-9.61-.2-1.6-.38-3.21-.46-4.81s-.3-3.21.88-4.9a.64.64,0,0,1,.88-.15A.52.52,0,0,1,246.8,241.64Z"/><path class="cls-3" d="M94.3,206.91a8,8,0,0,1-.64-3.57,17.19,17.19,0,0,1,.57-3.28c.51-2.16,1.08-4.31,1.73-6.43l2.4,2.64a21.67,21.67,0,0,1-3.51,0,26,26,0,0,1-3.4-.46A18.22,18.22,0,0,1,85,193.27,13,13,0,0,1,82.29,191a21.45,21.45,0,0,1-2.07-2.72,31.24,31.24,0,0,1-2.85-6,61.28,61.28,0,0,1-2.87-12.67,77.63,77.63,0,0,1-.63-13V157a66,66,0,0,1-.69-10.31,38.49,38.49,0,0,1,.4-5.23,17.9,17.9,0,0,1,1.54-5.28,8.66,8.66,0,0,1,.8-1.27,8.39,8.39,0,0,1,1-1.1,9.62,9.62,0,0,1,2.42-1.63,9.92,9.92,0,0,1,5.66-.82,11.55,11.55,0,0,1,5.22,2.09,8.67,8.67,0,0,1,2,2.09,10.09,10.09,0,0,1,1.19,2.63,91.63,91.63,0,0,1,2.18,10.19,52.52,52.52,0,0,1,.6,5.26,21.4,21.4,0,0,1,0,2.77,11.71,11.71,0,0,1-.59,3.08,5.76,5.76,0,0,1-1.11,1.9,4.42,4.42,0,0,1-.54.51,4.77,4.77,0,0,1-.59.39,7.91,7.91,0,0,1-.82.42,8.71,8.71,0,0,1-3.52.7,8.38,8.38,0,0,1-6.25-2.91,10.5,10.5,0,0,1-2.44-5.6,13.62,13.62,0,0,1,.36-5.49.73.73,0,0,1,1.39-.08v0A47.75,47.75,0,0,0,84,153.76,9.69,9.69,0,0,0,86.39,157,4.29,4.29,0,0,0,89.14,158a4,4,0,0,0,1.41-.26l.31-.13c.09-.05,0,0,0,0a.28.28,0,0,0-.08.08c0,.09.08-.05.18-.25a8.45,8.45,0,0,0,.59-1.82c.16-.72.3-1.48.4-2.27a40.38,40.38,0,0,0,.35-4.84,33.05,33.05,0,0,0-1.19-9.7,7.93,7.93,0,0,0-.81-2,5.93,5.93,0,0,0-1.46-1.5,8.47,8.47,0,0,0-4.08-1.58,7.3,7.3,0,0,0-4.19.7,6.93,6.93,0,0,0-1.72,1.23,4.61,4.61,0,0,0-.67.77,5.79,5.79,0,0,0-.51.88,15,15,0,0,0-1.1,4.44,40.8,40.8,0,0,0-.25,4.85,80.76,80.76,0,0,0,.68,9.83v0a1.51,1.51,0,0,1,0,.3,96.32,96.32,0,0,0,.12,12.48,47.52,47.52,0,0,0,2.42,12.18,22.93,22.93,0,0,0,2.74,5.41c.28.42.6.79.9,1.19s.66.73,1,1a9.82,9.82,0,0,0,2.29,1.64c3.35,1.68,7.64,1.77,11.32,1.22a2.14,2.14,0,0,1,2.43,1.79,2.21,2.21,0,0,1,0,.68l0,.17c-.38,2.19-.84,4.36-1.36,6.52a16.72,16.72,0,0,1-1,3.19,8,8,0,0,1-2.18,2.9.86.86,0,0,1-1.36-.33Z"/><path class="cls-3" d="M134.4,142.45a3.36,3.36,0,0,1-1.31-1.16c-.17-.33-.05-.62,0-.93a10.54,10.54,0,0,1,.39-1.8,11.73,11.73,0,0,0,.79-3.7,6.13,6.13,0,0,0-1.09-3.35,6.26,6.26,0,0,0-2.31-2,9.2,9.2,0,0,0-1.55-.57c-.61-.21-1.21-.38-1.82-.55a4.87,4.87,0,0,0-3.24-.05,1.08,1.08,0,0,0-.63,1c0,.5.07,1.05,0,1.62-.12,1.09-.37,2.29-2.79,3.05h0a1.35,1.35,0,0,1-1.35-.34c-1.78-1.81-1.39-3.19-.56-4.57a9.36,9.36,0,0,1,4.38-3.21,12.38,12.38,0,0,1,4.61-.18c.7.08,1.39.16,2.07.28a8.07,8.07,0,0,1,2.22.66,6,6,0,0,1,2,1.51,7.76,7.76,0,0,1,1.23,2.05,28.3,28.3,0,0,1,1.18,4.23c.31,1.38.84,2.79,1.07,4.23a7.84,7.84,0,0,1,.06,2.16,2,2,0,0,1-.31,1,2.79,2.79,0,0,1-1.65.79,1.7,1.7,0,0,1-1.22-.2Z"/><path class="cls-3" d="M115.3,151a5.43,5.43,0,0,1-.17,1.48c-.09.25-.19.17-.29.2a1,1,0,0,1-.62-.2c-.42-.3-.82-.81-1.2-.94-.74-.38-1.64.3-2.49,0s-1.42-1.08-2.25-1.44c-.32-.29-1.3,0-2-.24a.72.72,0,0,1-.5-.77c0-.39.37-.92,1.33-1.53a.7.7,0,0,1,.52-.85.69.69,0,0,1,.84.52,17,17,0,0,0,1.76-.54c.2-.08.17,0,.08.12-.26.31-.71,1.12-.48,1.28.3.53,1.07.3,1.58.44a2.32,2.32,0,0,1,.8.47,1,1,0,0,0,.93.19c.33-.12.66-.6,1-.91a.78.78,0,0,1,.45-.27c.08,0,.15-.06.25.17a10.13,10.13,0,0,1,.36,1.46v.07A6,6,0,0,1,115.3,151Z"/><path class="cls-3" d="M102.2,126.8a2.66,2.66,0,0,1-.45-1.73,1.66,1.66,0,0,1,.59-.82,6.07,6.07,0,0,1,1.69-1.12,28.56,28.56,0,0,1,3.89-1.21,21.66,21.66,0,0,1,3.94-.8,7.55,7.55,0,0,1,4.07.83,11.75,11.75,0,0,1,3.12,2.34,11.18,11.18,0,0,1,2.17,3.56,10.8,10.8,0,0,0,.86,1.92,8.57,8.57,0,0,1,.86,2c.28,1.35.13,2.75-2.18,3.59a1.4,1.4,0,0,1-1.33-.2l-.06,0c-2-1.49-1.77-2.43-1.49-3.44.2-.5.51-1,.74-1.53a3.18,3.18,0,0,0,.21-.79,3.12,3.12,0,0,0,0-.75,3.86,3.86,0,0,0-1.54-2.36,24.43,24.43,0,0,0-2.78-1.54c-.45-.15-.85-.45-1.31-.58-.22-.07-.44-.2-.67-.26l-.71-.18a4.63,4.63,0,0,0-3,.46,7.58,7.58,0,0,0-2.2,2.34,9.54,9.54,0,0,1-1,1.17c-.21.16-.32.4-.66.42a3.51,3.51,0,0,1-1.63-.4l-.26-.11A1.75,1.75,0,0,1,102.2,126.8Z"/><path class="cls-3" d="M88.23,130.36a3,3,0,0,1,1-3,12.6,12.6,0,0,1,2.39-1.48,9.7,9.7,0,0,1,5.91-.87l.77.15c.25.08.5.19.75.28a6.17,6.17,0,0,1,1.37.72,6.79,6.79,0,0,1,1.17.94,9.17,9.17,0,0,1,1,1,24,24,0,0,1,2.81,4.53,30,30,0,0,1,1.82,4.86,29.38,29.38,0,0,1,.82,5.08,38.48,38.48,0,0,1,0,5.15,37.61,37.61,0,0,1-.65,5.18.36.36,0,0,1,0,.11v0a40.49,40.49,0,0,1-1.74,3.72,8.69,8.69,0,0,1-3.09,3.67,5.52,5.52,0,0,1-5.59,0,4.63,4.63,0,0,1-2.39-4.1,1,1,0,0,1,1-1h.06a21.66,21.66,0,0,1,3.47.36,9.86,9.86,0,0,0,1.6.22,4.23,4.23,0,0,0,2.52-1.07,7.53,7.53,0,0,0,1.87-2.73l0,.14a17,17,0,0,0,.46-4.65,40,40,0,0,0-.42-4.77c-.21-1.58-.49-3.15-.79-4.71a37.5,37.5,0,0,0-1.13-4.59,11.34,11.34,0,0,0-2.23-4,3.69,3.69,0,0,0-3.47-1.37A9.52,9.52,0,0,0,93.81,130c-.6.36-1.19.78-1.79,1.18a3.19,3.19,0,0,1-2.79.22l-.16,0A1.16,1.16,0,0,1,88.23,130.36Z"/><path class="cls-2" d="M164,64.65s15-38.76,45.21-57.38C240.9-12.3,329.81,11.58,356.85,32.52c13.91,10.77,28.34,37.41,30.36,53.72,2.47,20.17-7.46,55.42-7.46,55.42S224.13,40.18,164,64.65Z"/><path class="cls-6" d="M161,73.58s15.27-43,44.66-62.81C236.57-10.11,330.46,5,360.42,36.26,372.59,49,382.27,69.72,385,85.94c3.3,20-5.16,55.67-5.16,55.67S220.11,46.64,161,73.58Z"/><path class="cls-7" d="M148.26,124.09s-39-12.82-15-45c18-24,63.73-17.61,89.94-10.17s105.44,46.6,116.36,51.26c0,0-119.19-37-150.69-25.7S148.26,124.09,148.26,124.09Z"/><path class="cls-8" d="M344.07,121.75s-2,9-33.49,6.06c-28.14-2.59-41.46-6.34-76.74-35.68-22.88-19-52.53-29.38-52.53-29.38S217.7,51.46,344.07,121.75Z"/><path class="cls-9" d="M355.86,49.76s-.23,39.39-10,59.13"/></g></g></svg>