<svg xmlns="http://www.w3.org/2000/svg" viewBox="0 0 511.26 388.61"><defs><style>.cls-1{fill:#fff;}.cls-2{fill:#5ce0de;}.cls-3{fill:#ce9b72;}.cls-4{fill:#231815;}.cls-5{fill:#ffdacc;}.cls-6{fill:#222;}</style></defs><g id="Capa_2" data-name="Capa 2"><g id="レイヤー_2" data-name="レイヤー 2"><path class="cls-1" d="M349.31,300.44l-29.5,7.77,91.57,1.09-24.49-11.88-2.08-29.29s43.4-25.59,50.93-42.48c8.12-7.08,13.2-8.45,13.2-8.45l-1,20.46,27-13.86-22.48-9.37a9.35,9.35,0,0,0,4.48-8.3,61.52,61.52,0,0,1,11-10.29s8.34-18.86-.12-23.25-16.6-7.84-21.39,7c-6.56-29.23-30.71-88.8-30.71-88.8s-66.57-42.52-67.89-43.44S313,57.4,313,57.4,274.87,123,274.1,125.63,240.41,157,240.41,157l10.13,46.07,8.07,14.58,2.46,16.27s-5.39,16.87-3.12,33.12c9.67-3.75,22.82-11.76,22.82-11.76S295,275.22,351.82,276C350.18,288.17,349.31,300.44,349.31,300.44Z"/><path class="cls-2" d="M463.38,385.78c-.08-.38-.33-.82-.45-1.36s.18-1,.06-1.48-.95-.71-1.07-1.2.25-1,.12-1.5-.25-.9-.38-1.38-.75-.76-.88-1.23.15-1,0-1.48.15-1,0-1.49-.65-.79-.79-1.25-.75-.75-.9-1.21-.54-.81-.69-1.27.35-1.1.2-1.56-1.36-.54-1.51-1,.79-1.25.64-1.71-.13-1-.29-1.41-1.59-.44-1.75-.89.44-1.16.28-1.62.16-1.06,0-1.51-1.59-.42-1.76-.87.79-1.29.62-1.74-.89-.66-1.06-1.11-.3-.89-.47-1.34-.1-1-.28-1.41-.27-.91-.45-1.36-1.28-.5-1.46-.94.25-1.13.07-1.57-.17-.95-.36-1.4-.24-.92-.42-1.36-.43-.84-.62-1.28-.13-1-.32-1.42-.51-.82-.7-1.26-1.24-.48-1.44-.91-.09-1-.29-1.44.76-1.4.56-1.83-1.92-.17-2.12-.61.55-1.29.34-1.71-.78-.65-1-1.05-.77-.64-1-1.05.89-1.55.66-1.95-.42-.85-.65-1.25-1.22-.36-1.46-.76.16-1.21-.09-1.59-1.19-.35-1.45-.73-1.13-.35-1.39-.72.68-1.65.4-2-1.74.15-2-.21.19-1.35-.1-1.7-1.54.08-1.84-.26.29-1.5,0-1.84-.44-.88-.76-1.21-.67-.67-1-1-1.69.43-2,.12.43-1.87.09-2.17-1.71.57-2.06.28.24-1.81-.13-2.09-1.23.07-1.6-.19-1.14,0-1.51-.23-.52-.9-.91-1.14-.9-.29-1.29-.51-.22-1.59-.62-1.8-.9-.36-1.31-.55-1.15.23-1.56.06-.85-.43-1.27-.59-.72-.87-1.14-1-1.33,1.11-1.75,1-.57-1.64-1-1.74-1,.11-1.45,0-1-.13-1.4-.18c-.88-.1-.72-.44-1.4-.44s-.71.42-1.41.42-.71.78-1.41.78-.71-.69-1.41-.69-.71.55-1.41.55-.7.55-1.4.55-.71,0-1.41,0-.71-.37-1.41-.37-.71-1-1.41-1-.71.4-1.41.4-.71.55-1.42.55-.7-.42-1.41-.42-.7-.14-1.41-.14-.7-.44-1.41-.44-.71-.45-1.41-.45-.71.73-1.42.73-.71-.29-1.42-.29-.71.12-1.42.11-.71.39-1.42.37-.73.7-1.43.68-.69-.94-1.39-1-.73.65-1.43.63-.67-1.37-1.37-1.39-.7-.07-1.41-.09-.7.08-1.41.06-.74,1.49-1.45,1.47-.69-.43-1.4-.45-.71,0-1.42,0-.7-.33-1.41-.35-.72.7-1.43.68-.72.24-1.42.22-.71-.15-1.41-.17-.67-1.7-1.37-1.72-.73,1-1.44.94-.72.55-1.43.53-.71.11-1.41.09-.71.11-1.42.09-.69-.82-1.39-.84-.7-.34-1.41-.36-.7-.63-1.41-.65-.73.86-1.44.84-.7-.26-1.41-.28-.69-.33-1.4-.35-.72.25-1.42.23-.71-.21-1.42-.23-.72.46-1.43.44-.71-.06-1.42-.08-.72.38-1.42.36-.68-1.13-1.39-1.14-.7-.26-1.41-.28-.72.12-1.43.1-.74,1-1.45,1-.71.16-1.42.14-.69-.69-1.4-.71-.74,1.09-1.45,1.08l-1.42,0c-.7,0-.7-.23-1.4-.25s-.67-1.57-1.38-1.59-.73.59-1.44.58-.7-.27-1.41-.29-.73.9-1.44.88-.68-1.27-1.39-1.29-.71-.15-1.42-.17-.75,1.21-1.46,1.19-.7-.36-1.41-.38-.72.19-1.43.17-.73.49-1.44.47-.68-1.25-1.4-1.27-.8,1.07-1.51,1-.31-.86-1.26-.87c-.37,0-.8.34-1.35.44-.39.07-1-.5-1.52-.35s-.39,1.55-.86,1.73-.94,0-1.39.17-.68.57-1.12.79-1.2-.36-1.62-.13-.42,1.08-.83,1.33-.86.29-1.26.54-.75.5-1.14.76-.65.64-1,.9-.46.9-.85,1.18-1.59-.65-2-.37-.35,1.05-.72,1.34-1.35-.25-1.72.05-.18,1.25-.54,1.55-1,.26-1.33.56-.25,1.14-.59,1.47-1.37,0-1.7.32.49,1.68.18,2.05-1.19.21-1.49.58-1.07.38-1.35.77.31,1.35,0,1.75-1.49.15-1.75.55.84,1.61.6,2-1.95-.05-2.18.36.18,1.19-.05,1.6-.54.78-.76,1.2-.48.81-.7,1.23-.37.86-.57,1.29.61,1.32.41,1.75-.86.62-1.06,1.06-1.08.55-1.26,1,.76,1.34.58,1.78-1.87.24-2.05.68-.18.95-.35,1.39-.57.79-.74,1.23.46,1.19.29,1.63-.79.71-.95,1.15,1.13,1.41,1,1.85-1.7.4-1.85.84.79,1.27.64,1.72-.79.73-.93,1.18-.27.9-.41,1.35-.21.93-.36,1.38-.5.83-.64,1.28-.91.71-1.05,1.16.45,1.13.31,1.58-.77.76-.91,1.21.72,1.2.59,1.65-1.39.59-1.52,1,.22,1.05.1,1.51-.65.81-.77,1.26.46,1.11.34,1.56.08,1,0,1.46-.69.8-.81,1.25,0,1-.08,1.44-.91.75-1,1.2.4,1.08.29,1.53-.4.88-.51,1.33-.45.86-.56,1.31-.79.79-.9,1.23.87,1.18.76,1.63.13,1,0,1.45-1.6.62-1.7,1.06.34,1.06.24,1.5-.89.8-1,1.22-.36.93-.44,1.35,1.45,1.33,1.38,1.72c-.18.88-1.78,1.11-1.13,1.35s.76-.66,1.47-.66.7.06,1.41.06.71.65,1.41.65.71.25,1.41.25.71.48,1.42.48.71-1.71,1.41-1.71h1.42c.71,0,.71-.08,1.41-.08s.71,1.15,1.42,1.15.7-.12,1.41-.12.71-.61,1.41-.61.71,1.4,1.42,1.4.7-1,1.41-1,.7-.63,1.41-.63.7,1,1.41,1,.71-.62,1.41-.62.71.3,1.41.3.71-.09,1.41-.09.71.57,1.42.57.7.4,1.41.4.71-1,1.41-1,.71.92,1.41.92.71-1,1.42-1,.71.47,1.41.47.71-.23,1.42-.23.71.57,1.42.57.7-.89,1.41-.89.71.92,1.41.92.71-.59,1.42-.59.7.38,1.41.38.71-.86,1.41-.86.71,1.22,1.42,1.22.7-1.61,1.41-1.61.71,1.78,1.41,1.78.71-.81,1.42-.81.7-.63,1.41-.63.71.77,1.42.77.7-.59,1.41-.59.71.54,1.42.54.71-.9,1.41-.9.71.15,1.42.15.71,0,1.41,0,.71,1.42,1.42,1.42.7-.39,1.41-.39.71-1,1.42-1,.7,1.39,1.41,1.39.71-.61,1.42-.61.7.5,1.4.5.71-.92,1.41-.92.7-.28,1.41-.28.7.63,1.41.63c.51,0,.65-.27,1-.42l1.48.13a1.9,1.9,0,0,0,.37,0c.71,0,.71.06,1.41.06a.66.66,0,0,0,.3-.08H347c.2.49.37,1,.76,1s.59-.57.8-1.05H350a.72.72,0,0,0,.56.27c.7,0,.7.31,1.41.31s.71-.24,1.41-.24a1.21,1.21,0,0,0,.84-.38h1.21a1.28,1.28,0,0,0,.78.26c.7,0,.7-.2,1.41-.2s.71.95,1.41.95.72-1,1.34-1h.21c.58.06.63.53,1.29.53.33,0,.51-.27.67-.55l2.81,0a1,1,0,0,0,.77.42c.71,0,.71-.29,1.41-.29s.71.54,1.42.54.71-.37,1.42-.37a1.18,1.18,0,0,0,.81-.35l2.57,0c.25.45.41,1.1.87,1.1.71,0,.71-.5,1.42-.5s.71,0,1.42,0,.71.26,1.42.26c.47,0,.63-.56.89-.95h1.05c.26.4.42,1,.9,1,.71,0,.71.29,1.42.29s.71-.57,1.42-.57.7-.26,1.41-.26.71-.2,1.41-.2.72-.26,1.43-.26.71.4,1.42.4.71-.21,1.42-.21.71.35,1.42.35.71-.62,1.42-.62.71,1.4,1.42,1.4c.51,0,.66-.94,1-1.47h1c.27.44.43,1.14.92,1.14.71,0,.71-1.16,1.42-1.16s.72,1.5,1.44,1.5.87-.3,1.55-.52a2.1,2.1,0,0,1-.05-1l2.26,0a2.78,2.78,0,0,1,.24.88c.62.23.75-.86,1.41-.86a1.87,1.87,0,0,0,.39,0l1.56,0a1,1,0,0,0,.69.26c.66,0,.66-.27,1.33-.27s.66,1.21,1.32,1.21.67-.28,1.33-.28.55-.31,1.15-.6c-.33-.5,0-1-.28-1.46l-.23-.33,1.77-.78a1,1,0,0,1,.06.34c0,.43-1,.86-1,1.29s.61.71.61,1.14c.68.21.66.56,1.38.56s.71-.29,1.43-.29.71-.36,1.43-.36.71.31,1.43.31.71-.3,1.43-.3.72.17,1.43.17.72.54,1.43.54.72-.8,1.43-.8.72-.45,1.44-.45.72.3,1.44.3.44-.18,1.12-.42c0-.51.72-.12.72-.63s-.38-1-.38-1.48c.24.33.47.61.71,1s1,.34,1.2.69.06.57.3.91a3.44,3.44,0,0,0,1.2.14c.64,0,.64.7,1.29.7s.65-.17,1.31-.17.65-.92,1.3-.92.66,1.27,1.31,1.27a2.89,2.89,0,0,0,1.46-.19c0-.52-.07-1.42-.07-1.94s0-.95,0-1.43h3.22c.29.42.42.95.7,1.37s.15.74.43,1.16c.69.17.6,1.28,1.3,1.28s.71-.45,1.42-.45.71-.63,1.42-.63.74.46,1.41.23c-.28-.39-.91-.49-1.19-.88s.09-1.26-.19-1.65-1.28-.28-1.56-.68c0,0,0,0,0,0l4.13-.29s0,0,0,0c.14.43,1.06.59,1.21,1s.61.74.75,1.16.33,0,.46.42c.69.18.46.52,1.17.52s.7.12,1.4.12.71,1.13,1.41,1.13.71-1.09,1.42-1.09.71-.14,1.41-.14.8.75,1.47.51S463.57,386.7,463.38,385.78Zm-59.21-72.69-.06,0S404.17,313,404.17,313.09ZM403,311.88c.27.13.21.85.32,1.31a.6.6,0,0,1-.44,0C402.87,313,403,312.1,403,311.88Zm-89.12,4.67c.53-.22.12-.35.69-.25,0,.2.26,0,.26.2-.52.46-.49.9-1.17,1.09C313.67,317.12,313.88,317,313.88,316.55ZM293.39,327.7c.67-.17.64.89,1.3,1.11,0,.45.34.27.35.73a.7.7,0,0,1-.21.46c-.31-.05-.53.14-.89,0,0-.36-.7-.36-.7-.72S293.38,328.06,293.39,327.7ZM425.7,382.22c0,.51.29,1,.29,1.52s-.43.83-.43,1.34c-.29-.43-.7-.58-1-1s.06-1.29-.23-1.73-.84-.7-1.12-1.14l2.47.92S425.7,382.19,425.7,382.22Z"/><path class="cls-3" d="M492,125l.48-1-.79-1,0-1,.53-1.07-1-1-.5-1,.1-1,0-1-.05-1,.64-1.13-.61-1-.73-.93.84-1.2.15-1.09-1.77-.67,1.17-1.34-.19-1-1.33-.7-.48-.92.19-1.13.34-1.21-1.59-.53.34-1.22-.87-.77-.15-1-.89-.75.67-1.37-1.23-.6.27-1.21-.3-1-.88-.74-.86-.74-.4-.94.67-1.41-.09-1.07-.39-.95-.92-.72-1.15-.6.36-1.29-.77-.78-.36-1,.07-1.17-1.33-.51-.6-.85-.58-.85.47-1.37-.44-.92-.56-.87-.27-1-.9-.69-.78-.76-.62-.84.32-1.32-.89-.7.25-1.29-1-.65-1-.65V69.15l.2-1.28-1.43-.4.35-1.37-1.57-.32,0-1.16-1-.62-.61-.84-.37-1-.42-1-.23-1.06-.17-1.1-.61-.85-.58-.86-.23-1.07-.83-.7-1-.62-.47-.93.21-1.36-.7-.78-1.36-.35.3-1.44-.5-.91-.57-.87-1.18-.44-1-.53.44-1.58-1.14-.45L456.85,45l-.06-1.26-1.15-.41-.69-.76-.23-1.14-.27-1.13-.6-.85-.54-.92-.8-.67-.68-.8-.94-.53-.83-.62-1-.4-.38-1.21h-1.25L447,33.05l-1.4.21-1-.28-.25-1.47-.95-.4-1.42.34-.91-.45-.16-1.71-1-.34-1.29.17-.61-1h-1.17l-.33-1.52-.88-.53-.9-.5-1.61.86-.68-.9-1.09-.1L431,23.84l-1.29.33-.93-.41-1.09-.07-.5-1.32-1.17.13-.58-1.19-1.36.59-.69-1-1.16.16-.77-.77-1.22.34-.79-.75-.93-.39-.65-1.24-1.22.84L415.83,18l-1,.1-1,.18-1,.35-1-.9-1,.64-1,.3-1-.79-1,.54-1,.23-1,.15-1-.09-.92.5-1.2-.74-.79,1.21-1.09-.09-1.08-.09-1,.39-1,.59-1.11-.41-1,.35-1,.59-1.09-.41L392.43,20l-1,.09h-1l-1-.28-1,.52-1.13.72-.83-.83-1-.39-1-.36-.88-.52-.69-.86-.72-.82-1-.29-.61-1-1.45.51-1-.28-.47-1.32-1.3.26-.46-1.35-1.14,0-.49-1.35-1.52.79-.46-1.45-1.08-.13-.81-.73-1.37.56-1-.36L367.29,10l-.71-1-1.12,0-1.21.27-.86-.65-1.12.07-.6-1.39-1.17.21-.86-.68-1.35.81-.72-1.17-.9-.58-1.05-.13-1.16.31-1-.11-.7-1.51-1.1.12-1.23.82-.94-.54-1-.29L347.51,4l-1.11.46-.91-1-1-.41-1.06,0-1.07.39-1-.63-1.07,1.08-1-.92-1,.34L337.13,3l-1,.7L335,3.21l-1,.28-1,.15-1.07-.05-1,.28-.22.32c-43.08-3.35-82.88,32.56-110,77.87-34.87,58.35,14.21,121,14.21,121,4.3,4.58,16.72,8.63,16.72,8.63l.61.85,1,.45,0,1.39,1,.49.91.54.14,1.43.87.68,1.42-.3.93.42-.16-.91.42-1.09-.34-1,0-1,.69-1.07.11-1-.35-1-.1-1-.76-1,.63-1.05.15-1,0-1,.53-1-1.56-1.06.35-1,1.26-1-.86-1.07-.17-1.06-.33-1.08,1.24-1-.79-1.11.07-1.05,1.12-.94-.46-1.1.38-1,.17-1-.34-1.13.34-1,.39-1-.08-1.14,0-1.19,1.86-.11.11-1.17-.46-.89.25-1.15-.42-.91-.66-.83-.78-.79-.19-1-.19-1-.88-.76.61-1.28-.89-.75.05-1.08-.34-1,0-1-.41-.93-.09-1-.56-.87-1-.73.44-1.23-.84-.79,1.22.09.34-1.67,1.26.27.76-.79.86-.57.9-.49,1.42.59.87-.57,1-.31.72-.86.56-1.16,1.35.4.39-1.49,1.63.95.74-.79.41-1.45,1.2.12.73-.82.86-.56,1.08-.16,1-.36.91-.48.57-1.1,1-.27,1.52.62.44-1.35,1.14-.07.66-.92,1.16,0,.35-1.4,1.06-.2,1.06-.2.53-1.08.73-.74,1-.31,1.3.19.88-.49,1-.25.54-1,1-.31.23-1.52,1.35.23.7-.78.7-.79h1.22l.93-.43.49-1.11.93-.44.79-.67,1.14-.31-.4-1.63,1.33,0,1.24.79.05-1.71,1.07-.24.67-.82,1.16-.13,1-.4.7-.78,1.28,0,.32-1.29.51-1,.88-.53,1.4.16.69-.78.6-.9.37-1.19,1.34.06.38-1.16.88-.53,1.21-.14,1-.42.18-1.36,1.23-.14.58-.88.78-.68.22-1.27h1.41l.2-1.27,1.62.18-.28-1.7,1.62.13.41-1,.18-1.2,1-.48,1-.53.77-.71.54-.9-.13-1.28,1.06-.58-.35-1.42.63-.84.55-.88,1.4-.37-.5-1.5,1.41-.38.61-.86-.26-1.36,1.57-.3-.68-1.59.32-1,1.41-.4.53-.9.5-.91-.4-1.36.72-.8.18-1,.57-.87,1.06-.66,1-.73-.59-1.34,1.17-.68.36-1-.39-1.2-.05-1.08,1-.81-.51-1.17.43-1L342,87.36l0-1,.6-1-.24-1.08,1.31-.84-.17-1.07-.2-1.08,0-1,.57-.93-.11-1.08.4-1V76.21L344,75.12l.79-.86.6-.91-.63-1.22,1.33-.7.7-.86-1-1.36.79-.89.87.67,1.13-.21.95.34,1,.3.94.42.92.59.93-.93,1.16.63.86-1.09,1.19.77,1.05,0,.79-1.44,1.31,1.4.89-.94.92-.76,1.06.73.13.64.94.87-.94,1.22.41,1,1.13.79L364,74.34v1l.75.85.29,1-.66,1.27.09,1,.64.87,1,.75,0,1.08.44.93.75.79-.48,1.33.5.91,1.47.41L368.43,88l.95.64.39,1,.69.77.49.91,1.2.36-.39,1.64,1.27.24.05,1.42,1.3.12.28,1.31.95.45,1.13.27,1,.49,1,.5.89.59.16,1.35,1.3.16-.08,1.55,1.45.07.38,1.07,1,.48.51,1,.39,1,1.21.35.37,1.06,1,.56.74.76.13,1.22,1.19.4-.42,1.64,1.33.31.7.78.06,1.25,1.43.25.1,1.22.06,1.23h1.85l-.32,1.44,1.23.45.65.8,0,1.2.53.87.24,1.05,1,.58.52.87.77.72-.25,1.37,1.33.36.25,1-.1,1.29,1.66.12-.14,1.32,1.18.42-.52,1.59L404,132l.2,1.1.42.95,1.41.24-.11,1.34,1.28.32.6.82-.26,1.49.94.56v1.3l1.2.36,1.06.45.16,1.2.42,1,.55.87,1.66-.08-.3,1.64,1.28.22,1.07.4-.26,1.67,1.71-.25,0,1.45,1.12.31.4,1.09.7.77,1,.48,1.38-.12.23,1.39.8.66.9.51.84.62.94.45.89.55.76.29.67.7.23,1.11,1.64.12.59.85.88.65-.27,1.45,1.17.45.28,1.07,1.17.44.23,1.11-.05,1.29.8.7.86.65.24,1.1,1.44.26.11,1.19,1.08.51,0,1.26.22,1.11,1.5.22.16,1.16,1,.57-.55,1.66,1.12.49.43,1,1.07.52-.13,1.37.85.68.52.92,1,.61-.07-1.14,1.32-.53-.55-1.36.65-.82L448,177l-.22-1.26.46-.91,1.14-.47-.18-1.34.44-1,.68-.8.82-.66,1.08-.32,1.11-.14.45-1.15,1-.13,1,.3h.85l1.07-.46,1,.16.84.69.89.59,1.14-.44,1,.23.8,1,1.28-1.08.77,1,1,.17.43,1.06.79.47,1.37.33-.74,1.44,1.59.51-.21,1.2-.31,1.19,1.26.72-.76,1.29,1.47.71-.92,1.28,1.2.81-.09.74,1.06.2.24-1.24.34-1.09,1.48,0-.17-1.55,1.61.08.54-.88.31-1.07.13-1.19.59-.82,1.85.12.5-.91-.47-1.56.77-.7.35-1,1.52-.26.05-1.15v-1.16l.64-.8,1.17-.55-.29-1.27.63-.82,1-.69.2-1-.73-1.36.42-.92.37-.93.31-1,.28-1,.82-.84,1-.79-1.19-1.37,1.09-.78.27-1,.55-.93-.65-1.21.08-1,.27-1,.39-1,.15-1,.26-1,.88-.88-.05-1.06.53-.95.31-1,0-1-.54-1.12.68-.95-.19-1.06.33-1-.12-1.06-.28-1.06-.17-1,.73-1-.73-1.09.17-1,.17-1,.84-1-.42-1.05-.36-1,.46-1Zm-85.24-4.51v.21l-.25-.12Zm-67.87-48,.67.7.1.15Zm16.89-21.38.43.25.08.16-.8-.32Z"/><path class="cls-4" d="M46.93,102.38a24.72,24.72,0,0,1,5.12,4.93l4.7,5.31c3.11,3.55,6.28,7,9.35,10.64s6.14,7.17,9.18,10.78a85.6,85.6,0,0,1,8.54,11.34A1.23,1.23,0,0,1,82,147a83.38,83.38,0,0,1-9.9-10.17q-4.68-5.32-9.27-10.71c-3.08-3.58-6.06-7.24-9.09-10.86l-4.53-5.45a24.61,24.61,0,0,1-4.1-5.82,1.26,1.26,0,0,1,.66-1.66A1.29,1.29,0,0,1,46.93,102.38Z"/><path class="cls-4" d="M28.48,80.88c.81-.19,1,.18,1.28.44l.86.81c.56.55,1.12,1.09,1.64,1.67s1,1.2,1.48,1.82A2.92,2.92,0,0,1,34.58,88a1.76,1.76,0,0,1-1.84,1.57,2.9,2.9,0,0,1-2.21-1.19c-.54-.56-1.08-1.13-1.57-1.73s-.95-1.25-1.41-1.88l-.67-1a1.16,1.16,0,0,1-.24-1.34A2.63,2.63,0,0,1,28.48,80.88Z"/><path class="cls-4" d="M23.48,133.34a24.92,24.92,0,0,1,5.9,4l5.54,4.41c3.69,2.95,7.42,5.85,11.06,8.85s7.3,6,10.92,9a85.46,85.46,0,0,1,10.38,9.68,1.23,1.23,0,0,1-1.54,1.87,83.12,83.12,0,0,1-11.52-8.29q-5.52-4.43-11-8.94c-3.65-3-7.22-6.08-10.84-9.12L27,140.23a25,25,0,0,1-5-5,1.27,1.27,0,0,1,1.54-1.87Z"/><path class="cls-4" d="M1.57,115.37a1.15,1.15,0,0,1,1.35.21l1,.64c.64.45,1.3.89,1.91,1.37s1.19,1,1.77,1.54a2.89,2.89,0,0,1,1.23,2.18,1.76,1.76,0,0,1-1.53,1.87,2.89,2.89,0,0,1-2.38-.79c-.63-.46-1.26-.92-1.85-1.43s-1.15-1.06-1.72-1.61l-.82-.84c-.26-.29-.64-.45-.47-1.27A2.61,2.61,0,0,1,1.57,115.37Z"/><path class="cls-4" d="M83.17,82.17a24.55,24.55,0,0,1,3.54,6.17l3,6.4c2,4.28,4.06,8.53,6,12.84s3.89,8.6,5.8,12.92a84.18,84.18,0,0,1,5,13.28,1.22,1.22,0,0,1-2.2,1,83.67,83.67,0,0,1-6.67-12.53c-2-4.28-4-8.57-5.9-12.88s-3.78-8.65-5.68-13L83.27,89.9A24.75,24.75,0,0,1,81,83.16a1.27,1.27,0,0,1,1.1-1.41A1.29,1.29,0,0,1,83.17,82.17Z"/><path class="cls-4" d="M71.48,56.36c.83,0,.89.45,1.11.78l.6,1c.38.68.77,1.36,1.1,2.07s.63,1.43.91,2.15a2.91,2.91,0,0,1,.14,2.51,1.76,1.76,0,0,1-2.2,1,2.93,2.93,0,0,1-1.79-1.76c-.36-.7-.72-1.39-1-2.11s-.56-1.46-.83-2.19l-.37-1.12a1.13,1.13,0,0,1,.15-1.35A2.61,2.61,0,0,1,71.48,56.36Z"/><path class="cls-3" d="M511,325.51c-.14-.49-.74-.84-.88-1.31s-.09-1-.22-1.5-.36-1-.49-1.43-.52-.93-.64-1.38-.5-1-.61-1.39a2,2,0,0,1,.28-1.64c-.22-.69-.36-.44-.63-1.32-.13-.39.1-1-.07-1.5s-.31-.88-.47-1.38-.85-.73-1-1.22-.58-.81-.73-1.29.16-1.07,0-1.55-.57-.83-.72-1.3c-.22-.69-.07-.44-.4-1.39-.13-.37.32-1.05.13-1.59s-.41-.82-.6-1.32-.75-.72-.94-1.21,0-1-.14-1.5-.83-.7-1-1.18.06-1-.15-1.46-.15-1-.38-1.41-.77-.65-1-1.06-.5-.79-.76-1.2-.57-.74-.84-1.14-.79-.58-1.07-1-.57-.74-.85-1.12-.46-.82-.75-1.2-.14-1.08-.44-1.46-.67-.66-1-1-1.09-.32-1.4-.68-.44-.84-.75-1.2-.5-.81-.81-1.16-.82-.53-1.14-.88-.59-.73-.91-1.08-.71-.62-1-1,0-1.25-.36-1.6-.6-.73-.93-1.07-.74-.6-1.07-.94-.7-.64-1-1-.77-.56-1.11-.9-.75-.57-1.08-.91-.32-1-.66-1.34-.74-.59-1.08-.92-.62-.72-1-1.05l-1-1c-.34-.33-1-.36-1.31-.69s-.91-.41-1.25-.74-.73-.61-1.07-.93-.24-1.14-.58-1.46-1.17-.14-1.51-.46-.46-.91-.81-1.23-.5-.85-.85-1.17-.61-.75-1-1.07-.74-.6-1.09-.92-1.18-.1-1.54-.41-.24-1.15-.6-1.47-.63-.71-1-1-1.23,0-1.58-.35-.54-.82-.89-1.13-.43-1-.79-1.27-1-.34-1.32-.64-1-.31-1.34-.62-.2-1.23-.56-1.53-.91-.4-1.26-.7-.69-.66-1.05-1l-1.1-.9c-.37-.31-1.07-.19-1.43-.49s-.81-.52-1.17-.82-.24-1.22-.6-1.51-1-.32-1.34-.61-.7-.64-1.06-.93-.48-.95-.84-1.23-1.17-.06-1.53-.34-.67-.72-1-1-.64-.75-1-1-.75-.64-1.09-.89-.88-.4-1.27-.67-.94-.3-1.32-.56-.66-.71-1.05-1-.54-.92-.93-1.17-1.27.23-1.66,0-.74-.61-1.13-.85-.52-1-.91-1.21-.84-.46-1.24-.7-.8-.51-1.2-.74-1.1,0-1.5-.22-.61-.85-1-1.08-.91-.34-1.31-.55c-.21.43-.57.78-.79,1.18s-.4.86-.65,1.24-.35.92-.62,1.28-.45.88-.74,1.22-1,.34-1.36.67-.22,1.14-.56,1.45-1.14.12-1.5.42-.36,1.07-.73,1.34-.83.47-1.21.74-1,.24-1.34.51-.52.89-.91,1.16-1.06.1-1.44.37-.71.61-1.09.9-.89.38-1.25.68-.73.59-1.09.91-.7.63-1,1-.41.89-.74,1.25-.49.69-.8,1.06c.33.34.87.36,1.2.71s.29,1,.62,1.37.43.89.76,1.24,1.09.26,1.42.6.15,1.17.48,1.51,1.28.09,1.6.43.68.66,1,1,.28,1,.61,1.37.58.74.91,1.09.71.63,1,1,.39.93.71,1.28.88.48,1.2.83.35,1,.67,1.31.72.63,1,1,.86.49,1.19.84.73.62,1.05,1,.88.48,1.2.84.27,1,.59,1.39,1,.33,1.37.69,0,1.24.36,1.6,1.24.16,1.55.52.24,1.07.55,1.42.93.45,1.25.81.56.78.87,1.13.44.89.75,1.24.58.77.89,1.12.35,1,.66,1.32.87.51,1.18.87.79.58,1.1.94.74.62,1,1,.29,1,.59,1.36.84.55,1.13.91.38.93.67,1.29.53.8.82,1.17.78.61,1.06,1,.47.85.75,1.22.88.54,1.16.92.49.83.77,1.21.14,1.07.41,1.45.76.64,1,1,.51.82.76,1.2.33.92.58,1.31.75.67,1,1.06.57.79.78,1.19.26,1,.44,1.35.4.87.58,1.29.54.81.72,1.23-.08,1.08.11,1.5,1.17.53,1.35.95.35.9.53,1.32.33.91.51,1.32.44.87.62,1.28.48.84.66,1.26.07,1,.24,1.42.07,1,.23,1.44.58.83.74,1.22.58.85.74,1.23c.2.53.05,1.09.18,1.43.39,1,0,.71.22,1.38.13.47.85.74,1,1.17s0,1,.16,1.43.49.83.69,1.23.28.95.52,1.32,1,.43,1.29.76.39.94.74,1.19a3.26,3.26,0,0,0,1.23.67c.46.09.74-.38,1.16-.62a5.25,5.25,0,0,1,1.6-.38c.54-.11,1,.42,1.49.52s1.25-.21,1.62.14a3.38,3.38,0,0,1,.68,1.48c.19.63.63.78.93,1s.85.81,1.33.41c.3-.26.34-.93.62-1.48a9.71,9.71,0,0,1,.49-1.35,8.16,8.16,0,0,1,.91-1.13c.38-.33,1.25.17,1.62,0s.66-.33,1.05-.2.94,0,1.31.18a5.07,5.07,0,0,1,1.2.5c.1.18.54.45.62.33s.48-.34,1.23-.1a1.65,1.65,0,0,0,1.6-.2,4.74,4.74,0,0,0,1.16-1.3c.2-.42.08-1,.43-1.12s.72.2,1.14.35,1-.19,1.36.13.38,1,.85,1.26,1.06-.2,1.54-.09a6.87,6.87,0,0,0,1.36.11c.5,0,1,.79,1.49.7s.79-.46,1.35-.35a10.58,10.58,0,0,1,1.37.43,14,14,0,0,1,1.41.32c.42.19.95.22,1.39.45s.69.74,1.11,1,.69.68,1.1.94,1.1.07,1.5.35.69.69,1.07,1,.55.88.9,1.08.82.72,1.19.84,1.05-.44,1.42-.54,1.13-.09,1.34-.55a4.5,4.5,0,0,0,.12-1.44c0-.4-.59-.79-.67-1.28S511.13,326,511,325.51Z"/><path class="cls-4" d="M477.56,275.49a14.59,14.59,0,0,1,3.25,3.51c.95,1.27,1.89,2.55,2.8,3.85,1.81,2.6,3.58,5.23,5.18,8s3.14,5.52,4.52,8.38a38.54,38.54,0,0,1,3.36,8.92.82.82,0,0,1-1.48.62l0,0c-1.69-2.67-3-5.49-4.38-8.25s-2.92-5.49-4.49-8.17-3.17-5.35-4.89-7.94q-1.29-2-2.63-3.86a19,19,0,0,1-2.47-4v0a.85.85,0,0,1,.49-1.09A.84.84,0,0,1,477.56,275.49Z"/><path class="cls-4" d="M262,199.82a66.44,66.44,0,0,0-.8,7,65.4,65.4,0,0,0,0,7.14,50.6,50.6,0,0,0,2.6,13.91,52.25,52.25,0,0,0,16.09,23,70.26,70.26,0,0,0,11.82,8.18c1,.61,2.09,1.2,3.18,1.72l3.25,1.62c2.23,1,4.4,2,6.69,2.84a114.78,114.78,0,0,0,28.08,7.18,94.08,94.08,0,0,0,28.81-1.18,91.56,91.56,0,0,0,13.95-3.86A98.54,98.54,0,0,0,389,261.56,108.75,108.75,0,0,0,401.38,254a143.81,143.81,0,0,0,11.54-8.93,139.37,139.37,0,0,0,20.14-21.2l0,0a1.61,1.61,0,0,1,2.66,1.81A107.68,107.68,0,0,1,416.39,249a117.6,117.6,0,0,1-24.83,17.55,105.18,105.18,0,0,1-14,6.2,97.45,97.45,0,0,1-14.75,4.12,99.76,99.76,0,0,1-30.55,1.33,112.57,112.57,0,0,1-29.51-7.67c-2.39-.87-4.67-2-7-3.05l-3.41-1.74c-1.15-.57-2.26-1.2-3.36-1.86A77.08,77.08,0,0,1,276.42,255c-7.78-6.75-14.19-15.48-17.39-25.46s-3.78-20.76-.11-30.68a1.61,1.61,0,0,1,3.09.84Z"/><path class="cls-4" d="M261.69,234.34a4.74,4.74,0,0,1-.14,2.08c-.13.64-.4,1.21-.56,1.84l-.45,1.92-.35,2c-.41,2.64-.72,5.33-.88,8a94,94,0,0,0,.34,16.35l-1.32-.71c3.59-2,7.13-4.17,10.72-6.22q2.68-1.53,5.43-3a13,13,0,0,1,5.94-2,.42.42,0,0,1,.35.65,13.23,13.23,0,0,1-5,3.82q-2.71,1.49-5.48,2.86c-3.7,1.84-7.44,3.6-11.13,5.45l-.05,0a.88.88,0,0,1-1.18-.39,1.07,1.07,0,0,1-.09-.34c-.16-2.78-.3-5.52-.41-8.29s-.21-5.52-.21-8.3a65.45,65.45,0,0,1,.5-8.36l.34-2.09.53-2.09a16.91,16.91,0,0,1,.75-2.06,3.89,3.89,0,0,1,1.71-1.59.43.43,0,0,1,.57.2.26.26,0,0,1,0,.11Z"/><polygon class="cls-5" points="309.04 234.06 309.01 235.09 308.91 236.12 308.8 237.16 308.56 238.17 308.11 239.12 307.67 240.05 307.18 240.96 306.67 241.86 306.06 242.7 305.4 243.5 304.65 244.21 303.84 244.85 303.07 245.56 302.14 246.04 301.25 246.55 300.29 246.96 299.31 247.3 298.33 247.66 297.3 247.76 296.27 247.92 295.23 247.98 294.19 247.91 293.17 247.7 292.14 247.56 291.14 247.3 290.14 247.02 289.2 246.57 288.32 246.02 287.43 245.49 286.6 244.88 285.81 244.21 285.03 243.52 284.44 242.66 283.73 241.89 283.24 240.97 282.72 240.08 282.24 239.15 282.01 238.13 281.63 237.16 281.43 236.14 281.46 235.09 281.38 234.06 281.32 233.01 281.44 231.98 281.77 230.98 281.94 229.96 282.28 228.97 282.67 228.01 283.27 227.15 283.81 226.27 284.4 225.42 285.08 224.64 285.78 223.87 286.56 223.19 287.37 222.52 288.25 221.97 289.18 221.49 290.18 221.2 291.16 220.86 292.14 220.51 293.17 220.41 294.19 220.19 295.23 220.17 296.27 220.21 297.29 220.4 298.33 220.49 299.34 220.73 300.28 221.2 301.24 221.59 302.17 222.03 303.08 222.55 303.93 223.15 304.67 223.88 305.35 224.67 306.1 225.39 306.67 226.26 307.26 227.11 307.68 228.06 308.18 228.97 308.43 229.99 308.78 230.96 308.89 232 309.01 233.02 309.04 234.06"/><polygon class="cls-5" points="417.8 215.78 417.7 216.82 417.51 217.84 417.47 218.89 417.11 219.87 416.77 220.85 416.32 221.78 415.92 222.74 415.37 223.63 414.75 224.46 414.06 225.24 413.32 225.98 412.53 226.65 411.65 227.21 410.79 227.78 409.86 228.23 408.91 228.63 407.94 228.99 406.95 229.32 405.93 229.46 404.9 229.6 403.86 229.62 402.82 229.61 401.79 229.53 400.76 229.36 399.77 229.03 398.76 228.76 397.81 228.34 396.9 227.84 396.06 227.22 395.2 226.64 394.39 225.99 393.68 225.22 393.04 224.41 392.46 223.55 391.85 222.71 391.36 221.8 391 220.83 390.57 219.88 390.26 218.88 390.09 217.86 389.99 216.82 389.95 215.78 390.07 214.75 390.14 213.71 390.27 212.68 390.64 211.7 391.02 210.74 391.29 209.72 391.9 208.87 392.46 208 392.99 207.11 393.66 206.31 394.43 205.62 395.24 204.97 396.01 204.26 396.94 203.78 397.81 203.21 398.81 202.91 399.75 202.45 400.79 202.33 401.8 202.13 402.83 201.97 403.86 201.94 404.9 202 405.92 202.12 406.94 202.31 407.96 202.48 408.93 202.87 409.91 203.22 410.76 203.83 411.66 204.34 412.56 204.87 413.27 205.64 414.06 206.32 414.77 207.08 415.29 207.99 415.91 208.82 416.43 209.73 416.83 210.69 417.18 211.67 417.43 212.68 417.65 213.7 417.63 214.75 417.8 215.78"/><path class="cls-4" d="M343.62,59.91c1.7,1.26,1.91,2.9,2,4.47a46.84,46.84,0,0,1,.25,4.73,55.33,55.33,0,0,1-.84,9.37c-.27,1.53-.5,3.07-.92,4.58s-.64,3-1.15,4.51-.84,3-1.31,4.45l-1.5,4.38c-.45,1.48-1.13,2.87-1.65,4.32l-.81,2.18-.94,2.12-1.87,4.29-2.19,4.14-1.13,2.06c-.41.67-.84,1.32-1.29,2-.9,1.28-1.77,2.59-2.7,3.85-1.95,2.43-3.92,5-7.31,6a.63.63,0,0,1-.78-.42.76.76,0,0,1,0-.3v0a10.87,10.87,0,0,1,2-4.37c.89-1.21,2-2.2,2.94-3.4s1.92-2.3,2.88-3.46c.47-.59,1-1.13,1.47-1.72l1.35-1.81,2.75-3.62c.82-1.27,1.62-2.56,2.42-3.85.4-.65.8-1.3,1.16-2l1-2c.62-1.39,1.31-2.76,1.82-4.19a54.88,54.88,0,0,0,3.34-17.84c.13-3,0-6-.16-9-.17-1.49-.19-3-.42-4.44a14.88,14.88,0,0,1-.2-2.21,5,5,0,0,1,.75-2.4l0-.07a.7.7,0,0,1,1-.24Z"/><path class="cls-4" d="M299.29,70.23c1.46,1.75,1.42,3.57,1.37,5.37s0,3.6-.16,5.39c-.16,3.59-.57,7.17-1,10.73-1,7.12-2.19,14.16-3.36,21.21s-2.51,14.09-4.28,21.12a76.71,76.71,0,0,1-3.63,10.26,31,31,0,0,1-2.44,4.89,13.89,13.89,0,0,1-3.95,4A.61.61,0,0,1,281,153a.56.56,0,0,1-.09-.35v-.05a14,14,0,0,1,1.33-5.31c.8-1.54,1.55-3.11,2.3-4.68,1.62-3.09,2.9-6.36,4.38-9.56a105.35,105.35,0,0,0,6.26-20.3A125.63,125.63,0,0,0,297,91.54c.08-3.55,0-7.1,0-10.63l0-5.3c-.06-1.77-.15-3.51,1.17-5.32v0a.69.69,0,0,1,1-.16Z"/><path class="cls-4" d="M284.21,78.71c1,2.21.58,4.18.16,6.14s-.84,3.92-1.35,5.86c-1,3.88-2.26,7.71-3.24,11.58-2,7.74-3.42,15.65-5.68,23.34s-5.06,15.22-7.86,22.74c-1.51,3.72-2.51,7.68-4.19,11.45a25.25,25.25,0,0,1-3.18,5.31,13.14,13.14,0,0,1-5,3.94.59.59,0,0,1-.78-.31.61.61,0,0,1,0-.44v0a55,55,0,0,1,5.46-10.35,60,60,0,0,0,5.81-10.32c3.13-7.3,5.15-15,7.38-22.66s4.65-15.26,6.18-23.09c.8-3.91,1.26-7.88,1.84-11.83.29-2,.6-3.94,1-5.89s.7-3.91,2.36-5.63h0a.66.66,0,0,1,.93,0A.8.8,0,0,1,284.21,78.71Z"/><path class="cls-4" d="M248.77,209.49a9.48,9.48,0,0,1-5.71-.84,23,23,0,0,1-4.75-2.74,45.21,45.21,0,0,1-7.67-7.4,80.57,80.57,0,0,1-6.35-8.41,92.28,92.28,0,0,1-5.31-9,112.67,112.67,0,0,1-11.83-39.79,110.76,110.76,0,0,1-.29-20.76c.27-3.45.78-6.88,1.38-10.29a100.38,100.38,0,0,1,2.33-10.13A114.12,114.12,0,0,1,218,80.69a130,130,0,0,1,10.73-17.78c2-2.83,4.16-5.53,6.36-8.18,1.1-1.33,2.16-2.69,3.29-4l3.43-3.87c2.22-2.64,4.73-5,7.1-7.53,1.23-1.21,2.5-2.38,3.74-3.58s2.5-2.38,3.82-3.49l3.9-3.41,4.05-3.23c1.33-1.1,2.75-2.1,4.15-3.11s2.78-2.06,4.25-3A118.32,118.32,0,0,1,290.91,9.37a119.6,119.6,0,0,1,19.68-6.83,85.52,85.52,0,0,1,10.33-2c1.75-.23,3.51-.32,5.27-.49s3.53-.13,5.3-.07a61.12,61.12,0,0,1,20.85,4.05,49.66,49.66,0,0,1,9.45,5,32.19,32.19,0,0,1,7.69,7.4.74.74,0,0,1-1,1.05h0a72.13,72.13,0,0,0-17.92-8.43A86,86,0,0,0,341,6.57a89,89,0,0,0-9.79-1.37,79.83,79.83,0,0,0-19.93.72A78.77,78.77,0,0,0,292,11.81c-12.41,5.42-23.59,13.44-33.59,22.59-1.28,1.11-2.49,2.3-3.7,3.5s-2.43,2.37-3.62,3.58l-3.48,3.72-1.74,1.86L244.19,49l-3.35,3.84c-1.11,1.28-2.15,2.63-3.22,4-2.17,2.63-4.25,5.3-6.22,8a130.76,130.76,0,0,0-10.67,17.24,108.65,108.65,0,0,0-7.65,18.75,94.23,94.23,0,0,0-3.82,19.89,91.83,91.83,0,0,0,.46,20.25,105.28,105.28,0,0,0,13.18,38,111.88,111.88,0,0,0,11.45,16.4c2.16,2.52,4.51,4.85,6.84,7.11,1.18,1.12,2.38,2.21,3.61,3.22a13.92,13.92,0,0,0,3.91,2.38l.13,0a.74.74,0,0,1,.47.93A.72.72,0,0,1,248.77,209.49Z"/><path class="cls-4" d="M383.9,24.34c7.43-5.82,16.71-8.33,26-8.54a52.24,52.24,0,0,1,26.61,7,72.8,72.8,0,0,1,11.25,7.93,98.54,98.54,0,0,1,9.6,9.68,172.13,172.13,0,0,1,15.93,21.66C482.74,77.3,490,94.14,493.14,112a91.31,91.31,0,0,1,1,27.12,66.7,66.7,0,0,1-8.34,25.81,1.61,1.61,0,0,1-2.87-1.46,77.82,77.82,0,0,0,6-24.87A100.15,100.15,0,0,0,487.64,113c-3.06-17-10-33.17-19.22-47.87-2.31-3.67-4.73-7.28-7.31-10.77s-5.23-7-8-10.28a93.53,93.53,0,0,0-8.93-9.2,67.63,67.63,0,0,0-10.29-7.42A47.07,47.07,0,0,0,410,20.84a48.36,48.36,0,0,0-12.41,1.76c-2,.54-4.05,1.17-6,1.89s-4,1.59-5.77,2.49l-.14.07a1.61,1.61,0,0,1-1.71-2.71Z"/><path class="cls-4" d="M365.9,68.27a4.31,4.31,0,0,1,2.31,3.25l1.16,3.59c.78,2.4,1.59,4.8,2.46,7.18a50.54,50.54,0,0,0,7,13.48,33.65,33.65,0,0,0,11.43,9.67A39.56,39.56,0,0,0,397,108.2l3.45.91a10,10,0,0,1,3.46,1.92l.05,0a.66.66,0,0,1,.05.93l-.16.13a6.68,6.68,0,0,1-4.16.94,8.78,8.78,0,0,1-2-.39c-.65-.2-1.32-.38-2-.62a26.84,26.84,0,0,1-7.07-4,41.58,41.58,0,0,1-5.68-5.57c-1.72-2-3.3-4-4.83-6.11a144.07,144.07,0,0,1-8.5-13,64.22,64.22,0,0,1-3.46-7c-.53-1.2-.94-2.44-1.39-3.67a4.16,4.16,0,0,1,.1-4.11.78.78,0,0,1,1-.3Z"/><path class="cls-4" d="M390.54,66.06a2.41,2.41,0,0,1,1.55,2.35c.07.42.13.83.18,1.24s.15.83.21,1.24c.26,1.67.61,3.32,1,5A22,22,0,0,0,398,85.09a18.41,18.41,0,0,0,3.84,3.43,25.18,25.18,0,0,0,4.59,2.22c1.53.7,3.17,1.05,4.72,1.61.75.34,1.6.39,2.36.73a4.66,4.66,0,0,1,2.13,2.06l0,.07a.75.75,0,0,1-.24,1c-2.1,1.35-3.94.66-5.66,0-.85-.38-1.7-.78-2.53-1.21a5.81,5.81,0,0,1-1.19-.72l-1.14-.82a35.39,35.39,0,0,1-4.14-3.66c-1.18-1.4-2.46-2.64-3.53-4.08a57.18,57.18,0,0,1-6-8.94,27.53,27.53,0,0,1-2.07-5.1,19.1,19.1,0,0,1-.63-2.69,2.41,2.41,0,0,1,1-2.88.93.93,0,0,1,1-.09Z"/><path class="cls-4" d="M444.87,181.1a5,5,0,0,1,.73-3.83,18.75,18.75,0,0,1,2.06-3.25,16.81,16.81,0,0,1,6-4.94l.9-.39c.31-.11.63-.19,1-.28a7.93,7.93,0,0,1,1.95-.3,18.35,18.35,0,0,1,2,.08c.64.11,1.27.28,1.91.42A15.05,15.05,0,0,1,471.6,179.3l.31,1.92a12.29,12.29,0,0,1,.06,1.92v1c0,.32-.09.63-.13.95l-.3,1.9L471,188.8a15,15,0,0,1-.52,1.85l-.68,1.81-.35.91c-.14.29-.31.56-.46.85-.34.54-.66,1.1-1,1.62a7.6,7.6,0,0,1-1.2,1.5,11,11,0,0,1-3.18,2.23.39.39,0,0,1-.52-.2.42.42,0,0,1,0-.27v0a11.08,11.08,0,0,1,1.64-3.38c.71-1,1.3-2,2.06-2.89a10.28,10.28,0,0,0,1.06-1.42l1-1.48a14.78,14.78,0,0,0,1.42-3.26,14.1,14.1,0,0,0,0-7,14.65,14.65,0,0,0-3.56-5.93,15.78,15.78,0,0,0-5.81-3.84,7.94,7.94,0,0,0-6.69.32,13.1,13.1,0,0,0-4.7,5.06c-.61,1-1.16,2-1.7,3.11a6.29,6.29,0,0,1-2.21,3l0,0a.45.45,0,0,1-.61-.13Z"/><path class="cls-4" d="M398,121.16a34.53,34.53,0,0,1,4.62,5.51c1.46,1.9,3,3.75,4.55,5.54a96.66,96.66,0,0,0,10.15,10,63.81,63.81,0,0,0,5.61,4.27,47.42,47.42,0,0,0,6,3.57,50.52,50.52,0,0,0,6.4,2.61c2.19.72,4.41,1.28,6.72,1.82h0a1.23,1.23,0,0,1-.13,2.41,23.58,23.58,0,0,1-7.67-.46,33.89,33.89,0,0,1-7.21-2.59,56.88,56.88,0,0,1-12.57-8.34,86.65,86.65,0,0,1-10.38-10.7q-2.37-2.87-4.54-5.88c-1.43-2-2.95-4-3.65-6.5a1.25,1.25,0,0,1,.87-1.55,1.22,1.22,0,0,1,1.14.25Z"/><path class="cls-4" d="M352.92,276.05a4,4,0,0,1,1,3.17c-.06,1-.18,2-.32,3.06-.28,2-.71,4.05-1.09,6.08a80,80,0,0,0-1.13,12.25,1,1,0,0,1-.73.93l-.1,0c-3,.83-6.13,1.51-9.22,2.11s-6.21,1.11-9.3,1.74c-1.54.33-3.08.68-4.6,1.09a46.44,46.44,0,0,0-4.48,1.66,21.1,21.1,0,0,1-4.56,1.29,9.32,9.32,0,0,1-4.94-.5.66.66,0,0,1-.37-.86.77.77,0,0,1,.14-.21,9.32,9.32,0,0,1,4.31-2.47,21,21,0,0,1,4.69-.68c1.6-.06,3.2-.1,4.76-.31s3.11-.56,4.65-.89c3.08-.68,6.13-1.46,9.2-2.2s6.16-1.35,9.27-1.85l-.83,1a78.69,78.69,0,0,0,.87-12.27c0-2.06-.13-4.13-.08-6.18,0-1,.08-2.05.19-3.07a4,4,0,0,1,1.53-3A.8.8,0,0,1,352.92,276.05Z"/><path class="cls-4" d="M338.22,211.45c.5-.11.51.07.63.18l.3.37a6.66,6.66,0,0,1,.55.76,5,5,0,0,1,.43.83,1,1,0,0,1-.06,1.11,1.6,1.6,0,0,1-1.4.8,1,1,0,0,1-1-.51,5.61,5.61,0,0,1-.5-.8,6.6,6.6,0,0,1-.38-.86l-.16-.44c0-.16-.18-.26.17-.64A2.66,2.66,0,0,1,338.22,211.45Z"/><path class="cls-4" d="M385.16,268.41a18.59,18.59,0,0,1,2.16,7c.29,2.4.59,4.8.82,7.21s.42,4.82.64,7.23l.57,7.23-.7-1c3.85,2.05,7.76,4,11.69,5.88l5.92,2.79c2,.93,4,1.81,5.95,2.71a1,1,0,0,1,.48,1.29,1,1,0,0,1-.87.57h0c-8.21.13-16.41.31-24.61.23s-16.4-.19-24.6-.23l-12.31.05c-4.1,0-8.2.35-12.3.64s-8.2.47-12.3.41a57.69,57.69,0,0,1-6.15-.39,37.92,37.92,0,0,1-6.15-1.13.58.58,0,0,1-.4-.71.56.56,0,0,1,.4-.39,36.91,36.91,0,0,1,6.15-1.14,60.44,60.44,0,0,1,6.15-.39c4.1-.06,8.2.11,12.3.42s8.2.6,12.3.63l12.31.06c8.2,0,16.4-.24,24.6-.24s16.4.1,24.61.23l-.42,1.86c-2-.95-3.91-1.94-5.89-2.85l-5.92-2.79c-4-1.83-7.94-3.6-12-5.26a1.16,1.16,0,0,1-.69-.86v-.12l-1.18-7.16c-.37-2.39-.8-4.77-1.12-7.17s-.63-4.79-.92-7.19a18.61,18.61,0,0,1,.4-7.36.6.6,0,0,1,.74-.41A.58.58,0,0,1,385.16,268.41Z"/><path class="cls-4" d="M449.13,212.17a37.58,37.58,0,0,1,.69,7c.09,2.09.15,4.13.19,6.18.06,4.07,0,8.14-.08,12.3l-1.44-.89c4.31-2,8.57-4.18,12.84-6.3s8.47-4.38,12.66-6.67v1.91c-2.09-1-4.16-2-6.19-3s-4-2-6-3.06-4-2.17-6-3.29A73.52,73.52,0,0,1,449.13,212.17Zm-.39-.63a32.15,32.15,0,0,1,6.15,2.22c2.24,1,4.49,2.05,6.76,3.16s4.5,2.25,6.72,3.39,4.42,2.32,6.58,3.49l.06,0a1.05,1.05,0,0,1-.06,1.88q-6.48,3-12.88,6.23c-4.23,2.19-8.49,4.34-12.69,6.61a1,1,0,0,1-1.32-.4,1.16,1.16,0,0,1-.12-.44v-.05c-.09-4.44-.14-9-.08-13.5.05-2.26.1-4.52.2-6.73S448.11,212.77,448.74,211.54Z"/><path class="cls-4" d="M448.94,217.2a8.44,8.44,0,1,1,8.44-8.44h0A8.45,8.45,0,0,1,448.94,217.2Zm0-14.11a5.67,5.67,0,1,0,5.66,5.67A5.69,5.69,0,0,0,448.94,203.09Z"/><path class="cls-4" d="M508.5,310.5a2.07,2.07,0,0,1-2-1.39c-19.08-54-79.21-72.88-79.81-73.06a2.08,2.08,0,0,1,1.21-4c.63.19,62.73,19.69,82.52,75.66a2.09,2.09,0,0,1-2,2.78Z"/><path class="cls-4" d="M443.17,331.68c2.41,1.51,3.68,3.72,5.11,5.84s2.71,4.32,4,6.53A137.18,137.18,0,0,1,459,357.71a146.87,146.87,0,0,1,5.15,14.3c.8,2.41,1.41,4.87,2,7.34a45.36,45.36,0,0,1,.89,7.57,1.64,1.64,0,0,1-3.1.8l0-.07a54.11,54.11,0,0,1-2.79-6.92c-.44-1.16-.79-2.33-1.18-3.5s-.71-2.35-1.12-3.51l-1.17-3.48-1.28-3.45c-.82-2.31-1.76-4.57-2.66-6.85-1.91-4.5-3.88-9-6.14-13.33-1.1-2.17-2.27-4.32-3.51-6.41s-2.69-4.06-3.33-6.5l0-.15a1.7,1.7,0,0,1,2.55-1.87Z"/><path class="cls-4" d="M355.94,234.18a3.39,3.39,0,0,1-1.91-.35c-.52-.31-1-.67-1.52-1a33.93,33.93,0,0,0-3.08-1.74,7.61,7.61,0,0,0-3-.88,1.34,1.34,0,0,0-.95.32,1.61,1.61,0,0,0-.43,1l0,.18s0,.06,0,.09a13.88,13.88,0,0,0,.9,9.67,11,11,0,0,0,3.2,3.69,14.71,14.71,0,0,0,4.46,2.14,10.91,10.91,0,0,0,2.36.49,3.24,3.24,0,0,0,1.86-.26,1.62,1.62,0,0,0,.69-1.27,7.74,7.74,0,0,0-.07-2.18,26.4,26.4,0,0,0-1.33-4.79,20.12,20.12,0,0,1-.78-2.46c-.11-.43-.2-.86-.27-1.3A4.75,4.75,0,0,1,355.94,234.18Zm.56-.47a11.46,11.46,0,0,1,1.1,1,12.19,12.19,0,0,1,.83,1.1,11.89,11.89,0,0,1,1.25,2.43,24.05,24.05,0,0,1,1.48,5.39,8.91,8.91,0,0,1-.06,3.08,4.64,4.64,0,0,1-.68,1.67,3.69,3.69,0,0,1-1.47,1.3,5.6,5.6,0,0,1-3.31.37,13.37,13.37,0,0,1-2.76-.79,18.78,18.78,0,0,1-4.87-2.75,14,14,0,0,1-3.56-4.34,15.31,15.31,0,0,1-1.59-5.35,18,18,0,0,1,.22-5.6l0,.27a3.69,3.69,0,0,1,.87-2.43,3.48,3.48,0,0,1,2.38-1.12,9.13,9.13,0,0,1,4.16.89,22.82,22.82,0,0,1,3.4,1.89c.53.37,1.08.7,1.56,1.11A3.16,3.16,0,0,1,356.5,233.71Z"/><path class="cls-4" d="M414,253.87c3.16,1.74,5.63,4.2,8.16,6.6q1.91,1.8,3.74,3.66t3.65,3.75c1.21,1.26,2.41,2.53,3.56,3.84s2.36,2.57,3.47,3.93l3.37,4,3.2,4.16a126,126,0,0,1,11.21,17.85c3.14,6.29,5.7,13.08,6.28,20.2a1.21,1.21,0,0,1-2.36.48v-.05a136.82,136.82,0,0,0-7.67-18.71l-2.46-4.44c-.83-1.48-1.8-2.88-2.69-4.33l-1.36-2.15-1.46-2.1c-1-1.38-1.9-2.82-3-4.16a202.33,202.33,0,0,0-13-15.82c-1.15-1.27-2.31-2.52-3.51-3.75s-2.37-2.47-3.6-3.67a75.72,75.72,0,0,1-7.08-7.46l0,0a1.23,1.23,0,0,1,.25-1.73A1.22,1.22,0,0,1,414,253.87Z"/><path class="cls-4" d="M461.5,274.78a14.73,14.73,0,0,1,2.93,3.78q1.26,2,2.45,4.08c1.58,2.75,3.11,5.53,4.47,8.39s2.64,5.78,3.77,8.74a38.77,38.77,0,0,1,2.57,9.18.81.81,0,0,1-.7.92.84.84,0,0,1-.83-.43v0c-1.46-2.81-2.47-5.72-3.65-8.6s-2.42-5.72-3.76-8.53-2.69-5.61-4.18-8.34q-1.11-2.06-2.28-4.07a18.64,18.64,0,0,1-2.11-4.18v0a.84.84,0,0,1,.57-1A.87.87,0,0,1,461.5,274.78Z"/><path class="cls-4" d="M295.78,320.69c.37,2.31-.59,3.44-1.55,4.62L291.49,329c-1.82,2.43-3.64,4.87-5.42,7.35a87,87,0,0,0-9.3,15.72,66.23,66.23,0,0,0-5,17.36,82.19,82.19,0,0,0-.91,8.78l-.14,4.36a11.46,11.46,0,0,1-1.46,4.63l0,.06a.91.91,0,0,1-1.24.32,1.24,1.24,0,0,1-.18-.14,8.46,8.46,0,0,1-2.4-4.59,11.21,11.21,0,0,1-.2-2.45c0-.81,0-1.64,0-2.45a45.79,45.79,0,0,1,1.52-9.58,111.93,111.93,0,0,1,7-17.69q2-4.26,4.15-8.43c1.41-2.8,2.89-5.57,4.47-8.29a88.87,88.87,0,0,1,5.11-7.91c.9-1.29,1.89-2.51,2.87-3.75s1.93-2.51,4.33-2.54a1.08,1.08,0,0,1,1.09.92Z"/><polygon class="cls-4" points="308.37 192.65 308.41 193.67 308.32 194.68 308.36 195.7 308.39 196.72 308.2 197.72 308.2 198.74 307.95 199.73 307.78 200.73 307.57 201.72 307.32 202.71 307.01 203.67 306.78 204.67 306.24 205.54 305.84 206.47 305.37 207.37 304.82 208.24 304.09 208.96 303.21 209.47 302.36 210.01 301.37 210.21 300.37 210.29 299.36 210.12 298.44 209.63 297.62 209.01 296.95 208.24 296.39 207.38 295.77 206.57 295.36 205.64 294.86 204.75 294.41 203.83 294.12 202.85 293.73 201.91 293.33 200.96 293.08 199.96 292.75 199 292.63 197.97 292.46 196.96 292.3 195.95 292.03 194.95 292.02 193.92 291.85 192.9 291.74 191.86 291.73 190.81 291.83 189.76 291.73 188.72 291.76 187.67 291.86 186.63 291.84 185.58 291.94 184.54 292.07 183.5 292.38 182.5 292.48 181.44 292.9 180.48 293.19 179.47 293.72 178.56 294.32 177.71 295 176.89 295.83 176.25 296.78 175.78 297.81 175.57 298.82 175.34 299.86 175.34 300.92 175.29 301.89 175.71 302.79 176.26 303.64 176.87 304.34 177.66 304.83 178.59 305.42 179.45 305.91 180.37 306.32 181.34 306.62 182.34 306.88 183.35 307.2 184.35 307.41 185.38 307.72 186.38 307.79 187.43 308.05 188.45 308.12 189.5 308.13 190.56 308.26 191.6 308.37 192.65"/><polygon class="cls-4" points="377.35 179.66 377.31 178.65 377.28 177.63 377.13 176.63 376.99 175.63 376.86 174.63 376.88 173.59 376.52 172.63 376.64 172.58 376.64 172.35 376.32 171.04 375.97 170.08 375.86 169.07 375.51 168.12 375.25 167.14 374.93 166.18 374.48 165.27 374.22 164.28 373.69 163.41 373.27 162.49 372.65 161.68 372 160.91 371.38 160.11 370.62 159.43 369.74 158.91 368.75 158.65 367.77 158.52 366.76 158.4 365.78 158.62 364.8 158.86 363.9 159.33 363.11 159.97 362.3 160.61 361.82 161.52 361.31 162.4 361 163.38 360.63 164.34 360.46 165.35 360.47 166.39 360.3 167.4 360.23 168.42 360.18 169.44 360.23 170.47 360.29 171.49 360.13 172.52 360.19 173.55 360.5 174.55 360.55 175.57 360.53 176.61 360.66 177.61 360.77 178.64 360.84 179.67 361.04 180.69 361.11 181.72 361.16 182.76 361.35 183.78 361.58 184.79 361.88 185.78 362.09 186.79 362.44 187.77 362.59 188.81 363.07 189.73 363.31 190.75 363.84 191.65 364.31 192.57 364.86 193.44 365.36 194.35 365.97 195.19 366.79 195.82 367.55 196.52 368.52 196.89 369.52 197.13 370.57 197.13 371.61 197.23 372.63 197.04 373.6 196.72 374.54 196.29 375.31 195.6 376.03 194.86 376.5 193.94 376.71 192.92 377 191.95 377.19 190.94 377.38 189.93 377.52 188.91 377.54 187.89 377.48 186.85 377.43 185.83 377.46 184.81 377.55 183.77 377.4 182.75 377.39 181.71 377.47 180.68 377.35 179.66"/><path class="cls-6" d="M127.09,191.33H102.42a.32.32,0,0,0-.37.36v24.07a2.45,2.45,0,0,1-.72,1.73,2.51,2.51,0,0,1-4.25-1.73v-2.67q0-.42-.42-.3-2.37.78-5.31,1.55t-6,1.3q-3,.54-5.82.85a2.39,2.39,0,0,1-2-.64,2.48,2.48,0,0,1-.82-1.91,2.44,2.44,0,0,1,.7-1.76,2.51,2.51,0,0,1,1.67-.79l2.06-.24,2.06-.24q.36-.12.36-.42v-18.8a.32.32,0,0,0-.36-.36H79.92a2.38,2.38,0,0,1-1.69-.7,2.27,2.27,0,0,1-.73-1.73,2.3,2.3,0,0,1,.73-1.73,2.37,2.37,0,0,1,1.69-.69h47.17a2.3,2.3,0,0,1,1.73.72,2.43,2.43,0,0,1,.7,1.7,2.39,2.39,0,0,1-2.43,2.43ZM117.94,185H89.14a3.9,3.9,0,0,1-2.82-1.15A3.82,3.82,0,0,1,85.14,181V170.29a3.9,3.9,0,0,1,1.15-2.82,3.82,3.82,0,0,1,2.85-1.18h28.8a3.9,3.9,0,0,1,2.82,1.15,3.82,3.82,0,0,1,1.18,2.85V181a3.9,3.9,0,0,1-1.15,2.82A3.82,3.82,0,0,1,117.94,185Zm-29.47,8.55a.32.32,0,0,0,.37.36h7.88a.32.32,0,0,0,.36-.36v-1.88a.32.32,0,0,0-.36-.36H88.84a.32.32,0,0,0-.37.36Zm0,7.21a.32.32,0,0,0,.37.37h7.88a.32.32,0,0,0,.36-.37V199a.32.32,0,0,0-.36-.37H88.84a.32.32,0,0,0-.37.37Zm.37,5a.32.32,0,0,0-.37.36v3.34c0,.24.14.36.43.36,1.45-.32,2.87-.7,4.24-1.12s2.59-.84,3.64-1.25a.37.37,0,0,0,.3-.42v-.91a.32.32,0,0,0-.36-.36Zm27.64-32.56a.32.32,0,0,0,.37-.36v-1.4a.32.32,0,0,0-.37-.36h-26a.32.32,0,0,0-.36.36v1.4a.32.32,0,0,0,.36.36Zm-26,4.79a.32.32,0,0,0-.36.36v1.4a.32.32,0,0,0,.36.36h26a.32.32,0,0,0,.37-.36v-1.4a.32.32,0,0,0-.37-.36Zm37.65,35.35a2.38,2.38,0,0,1,1.88,2.42,2.42,2.42,0,0,1-.69,1.82,2.29,2.29,0,0,1-1.61.67,1.69,1.69,0,0,1-.33,0,2.56,2.56,0,0,1-.34-.1,34.13,34.13,0,0,1-5.85-2.27,30.91,30.91,0,0,1-5.42-3.42.36.36,0,0,0-.49,0,33,33,0,0,1-4.82,3.27,29.52,29.52,0,0,1-5.06,2.24,2.15,2.15,0,0,1-.4.09l-.39,0a2.33,2.33,0,0,1-1.64-.69,2.47,2.47,0,0,1-.73-1.85,2.59,2.59,0,0,1,1.82-2.55,25.2,25.2,0,0,0,3.76-1.76c1.22-.68,2.39-1.41,3.52-2.18a.4.4,0,0,0,.06-.54,27.49,27.49,0,0,1-2.3-2.61c-.73-.93-1.42-1.88-2.06-2.85a2.49,2.49,0,0,1,.66-3.46.88.88,0,0,0-.54-.18h-1.76a2.32,2.32,0,0,1-1.76-.76,2.51,2.51,0,0,1-.73-1.79,2.32,2.32,0,0,1,.76-1.75,2.4,2.4,0,0,1,1.73-.73h17.76a2.92,2.92,0,0,1,2.18.85,2.71,2.71,0,0,1,.85,2,3.46,3.46,0,0,1-.18,1.09,31,31,0,0,1-2.79,5.34,37.4,37.4,0,0,1-3.82,4.91.4.4,0,0,0,.06.54,38,38,0,0,0,4.25,2.49A28.45,28.45,0,0,0,128.12,213.4Zm-8.48-13.52c.16-.29.08-.43-.25-.43h-8.61q-.54,0-.18.36a5.19,5.19,0,0,1,.37.43c.6.89,1.25,1.77,1.94,2.64a26.84,26.84,0,0,0,2.18,2.45q.18.3.48,0A28.14,28.14,0,0,0,119.64,199.88Z"/><path class="cls-6" d="M166.74,207.39a2.33,2.33,0,0,1,.25,1,2.71,2.71,0,0,1-.67,1.73,2.28,2.28,0,0,1-1.88.82,2.85,2.85,0,0,1-1.49-.42,2.81,2.81,0,0,1-1.06-1.22,31.59,31.59,0,0,0-2.27-4.06c-.83-1.25-1.61-2.34-2.33-3.27-.17-.25-.33-.22-.49.06a26.87,26.87,0,0,1-3.88,7.27,41.15,41.15,0,0,1-4.67,5.22,2.06,2.06,0,0,1-1.51.6,2.32,2.32,0,0,1-2.06-1.09,2.92,2.92,0,0,1-.49-1.57,3,3,0,0,1,1-2.31,26.68,26.68,0,0,0,5.52-7.21,25,25,0,0,0,2.66-8.73c.09-.25,0-.37-.3-.37h-6.3a2.45,2.45,0,0,1-1.79-.75,2.6,2.6,0,0,1,0-3.67,2.38,2.38,0,0,1,1.79-.79h6.48a.32.32,0,0,0,.37-.36V177.75a.32.32,0,0,0-.37-.37H151.1a.37.37,0,0,0-.42.31c-.37.93-.77,1.84-1.22,2.72A26.31,26.31,0,0,1,148,183a2.47,2.47,0,0,1-3.7.55,2.5,2.5,0,0,1-1-2.13,2.82,2.82,0,0,1,.49-1.63q3-4.68,3.94-12.55a2.57,2.57,0,0,1,2.48-2.25,2.81,2.81,0,0,1,2.19,1,2.9,2.9,0,0,1,.72,2.25c-.08.56-.17,1.16-.27,1.79a18.78,18.78,0,0,1-.39,1.84c-.09.29,0,.43.3.43h9.88a2.6,2.6,0,0,1,2.55,2.55,2.48,2.48,0,0,1-.76,1.84,2.44,2.44,0,0,1-1.79.76H159.1a.32.32,0,0,0-.36.37V188.3a.32.32,0,0,0,.36.36h6.49a2.54,2.54,0,0,1,1.82.76,2.44,2.44,0,0,1,.79,1.85,2.55,2.55,0,0,1-.76,1.82,2.47,2.47,0,0,1-1.85.78H159c-.28,0-.42.12-.42.37l-.06.72c0,.21,0,.33.06.37a50.12,50.12,0,0,1,4.15,5.18A44.81,44.81,0,0,1,166.74,207.39ZM187.11,212q-.12.18,0,.3a.32.32,0,0,0,.28.13h6.42a2.55,2.55,0,0,1,1.82.75,2.39,2.39,0,0,1,.79,1.79,2.35,2.35,0,0,1-.79,1.82,2.57,2.57,0,0,1-1.82.73H167.47a2.49,2.49,0,0,1-1.79-.73,2.43,2.43,0,0,1-.76-1.82,2.58,2.58,0,0,1,2.55-2.54h7.7c.28,0,.3-.13.06-.37a2.26,2.26,0,0,1-.79-1.33,32.41,32.41,0,0,0-4.18-9.58,2.7,2.7,0,0,1-.36-1.27,2.08,2.08,0,0,1,1.39-2.13,3.64,3.64,0,0,1,1.15-.18,2.91,2.91,0,0,1,2.79,1.64,51.73,51.73,0,0,1,2.24,4.85,43.82,43.82,0,0,1,1.82,5.39,1.94,1.94,0,0,1,.06.55,2.42,2.42,0,0,1-1,2.12c-.28.2-.24.31.12.31H180a.59.59,0,0,0,.42-.19,25.56,25.56,0,0,0,3.95-6.09,41.66,41.66,0,0,0,2.54-6.82,2.81,2.81,0,0,1,1-1.36,2.52,2.52,0,0,1,1.55-.52,2.46,2.46,0,0,1,1.85.79,2.56,2.56,0,0,1,.76,1.82,2.85,2.85,0,0,1-.06.66,36.09,36.09,0,0,1-2,5.64A44.23,44.23,0,0,1,187.11,212Zm6.55-39.71H167.59a2.56,2.56,0,0,1-1.79-4.37,2.52,2.52,0,0,1,1.79-.72h26.07a2.52,2.52,0,0,1,1.79.72,2.42,2.42,0,0,1,.76,1.82,2.45,2.45,0,0,1-.76,1.76A2.39,2.39,0,0,1,193.66,172.29Zm-21,5.15h16.07a4,4,0,0,1,2.79,1.15,3.77,3.77,0,0,1,1.21,2.85V193a4,4,0,0,1-4,4H172.62a3.87,3.87,0,0,1-2.81-1.16,3.8,3.8,0,0,1-1.19-2.85V181.44a3.87,3.87,0,0,1,1.16-2.81A3.79,3.79,0,0,1,172.62,177.44Zm1.22,14.07a.32.32,0,0,0,.36.36h12.91a.32.32,0,0,0,.37-.36V182.9a.32.32,0,0,0-.37-.36H174.2a.32.32,0,0,0-.36.36Z"/><path class="cls-6" d="M114.12,280.33c-.43.17-.64.36-.64.57s.26.41.77.58q14.87,5.38,14.87,21.92a23.33,23.33,0,0,1-4.42,14,30,30,0,0,1-12,9.68,40.64,40.64,0,0,1-17.24,3.52q-12.43,0-21-5.83a26.55,26.55,0,0,1-11.16-16.08,18.07,18.07,0,0,1-.51-2.63c-.08-.81-.13-1.65-.13-2.5a12.79,12.79,0,0,1,2.5-8.08,8.24,8.24,0,0,1,6.86-3.2,7.83,7.83,0,0,1,6.35,2.69,9.18,9.18,0,0,1,2.24,6,9.64,9.64,0,0,1-1.09,4.43,7.33,7.33,0,0,1-3.53,3.27,1,1,0,0,0-.64,1.41q4,10,20.13,10a31,31,0,0,0,7.37-1,28.21,28.21,0,0,0,7.37-3,17.71,17.71,0,0,0,5.64-5A11.84,11.84,0,0,0,118,304a27.26,27.26,0,0,0-.64-5.83,11.7,11.7,0,0,0-3-5.39,17.35,17.35,0,0,0-7.37-4.16,53.47,53.47,0,0,0-13.91-2.05,5.31,5.31,0,0,1-3.52-1.6,4.81,4.81,0,0,1-1.48-3.53A4.68,4.68,0,0,1,89.64,278a5.55,5.55,0,0,1,3.59-1.61q23.46-1.16,23.46-16.4a14.19,14.19,0,0,0-2.31-7.57,17.72,17.72,0,0,0-6.79-6.15,22.94,22.94,0,0,0-11-2.44q-14.49,0-19.48,9.49a1.07,1.07,0,0,0-.13.51,1.16,1.16,0,0,0,.64,1,8.34,8.34,0,0,1,2.89,3.2,8.81,8.81,0,0,1,1,4,9.26,9.26,0,0,1-2.25,6,7.69,7.69,0,0,1-6.34,2.75,8.21,8.21,0,0,1-6.73-3.07,12,12,0,0,1-2.5-7.82,20.53,20.53,0,0,1,.13-2.25,13.07,13.07,0,0,1,.51-2.5,28.41,28.41,0,0,1,11.6-15.89q8.65-5.9,20.7-5.9a35.45,35.45,0,0,1,13.85,2.5,29.06,29.06,0,0,1,9.8,6.6A28.54,28.54,0,0,1,126,251.1,22.88,22.88,0,0,1,128,260,20.72,20.72,0,0,1,124.25,272,24.46,24.46,0,0,1,114.12,280.33Z"/><path class="cls-6" d="M178,233.16q11.79,0,20.19,5.76a36.89,36.89,0,0,1,12.94,16.48q4.56,10.69,4.55,25.7,0,15.51-4.48,26.66t-12.88,17.05q-8.4,5.9-20.32,5.89t-20.32-5.89q-8.4-5.9-12.82-17.05T140.4,281.1q0-15,4.55-25.7a36.84,36.84,0,0,1,13-16.48Q166.29,233.16,178,233.16Zm0,86.78a21.55,21.55,0,0,0,13.91-4.68q5.82-4.68,9-13.4A60.57,60.57,0,0,0,204,281.35a55.39,55.39,0,0,0-3.21-19.8,29.12,29.12,0,0,0-9-13A21.76,21.76,0,0,0,178,244.05a21.54,21.54,0,0,0-13.65,4.55,29.06,29.06,0,0,0-9,13,55.4,55.4,0,0,0-3.2,19.8q0,17.82,6.92,28.2T178,319.94Z"/><path class="cls-6" d="M217.43,310.83a1.61,1.61,0,0,1-.92.28,1.64,1.64,0,0,1-.82-.24,1.46,1.46,0,0,1-.62-.68,2.13,2.13,0,0,1-.16-.88,2.31,2.31,0,0,1,.22-1,2,2,0,0,1,.66-.8,35,35,0,0,0,5.4-5.18,42.33,42.33,0,0,0,4.24-5.94,1.82,1.82,0,0,1,1.68-1,1.74,1.74,0,0,1,1.28.48,1.53,1.53,0,0,1,.48,1.12,1.71,1.71,0,0,1,0,.36,1.45,1.45,0,0,1-.16.4,39.54,39.54,0,0,1-3.12,4.84,42.92,42.92,0,0,1-3.88,4.5A37.53,37.53,0,0,1,217.43,310.83Zm4.84-1.36h19a2.52,2.52,0,0,1,1.88.78,2.46,2.46,0,0,1,.72,1.9c0,1.73-.09,3.42-.2,5.06s-.23,3.12-.38,4.46a30.58,30.58,0,0,1-.5,3.24q-1,5-6.76,5a18.52,18.52,0,0,1-2-.12,1.87,1.87,0,0,1-1.12-.64,1.79,1.79,0,0,1-.44-1.16,1.67,1.67,0,0,1,.64-1.34,1.75,1.75,0,0,1,1.44-.42l1.06.14a7.91,7.91,0,0,0,.94.06,3.25,3.25,0,0,0,1.86-.48,2.78,2.78,0,0,0,1-1.8c.19-.91.38-2.34.58-4.28s.34-4.18.42-6.68a.21.21,0,0,0-.24-.24h-7.24a.28.28,0,0,0-.28.2,20.93,20.93,0,0,1-2.72,7.18,23.46,23.46,0,0,1-5.06,5.9,19.65,19.65,0,0,1-6.7,3.68,2.45,2.45,0,0,1-.52.08,1.75,1.75,0,0,1-1.22-.52,1.81,1.81,0,0,1-.54-1.36,1.91,1.91,0,0,1,.36-1.12,2,2,0,0,1,1-.76,18.6,18.6,0,0,0,7.66-5,17.84,17.84,0,0,0,4.1-8c0-.19-.08-.28-.24-.28h-6.4a1.65,1.65,0,0,1-1.22-.52,1.71,1.71,0,0,1-.5-1.2,1.73,1.73,0,0,1,.5-1.24A1.61,1.61,0,0,1,222.27,309.47ZM249,307.71a1.94,1.94,0,0,1,.8,1.64,1.88,1.88,0,0,1-.28,1,1.68,1.68,0,0,1-1.52.84,1.74,1.74,0,0,1-1-.32,33.91,33.91,0,0,1-4.1-3.78,54.28,54.28,0,0,1-4-4.8q-1.86-2.55-3.22-4.86a1.71,1.71,0,0,1-.2-.72,1.57,1.57,0,0,1,.48-1.16,1.74,1.74,0,0,1,1.28-.48,2.08,2.08,0,0,1,1.92,1.12c1.07,1.73,2.35,3.58,3.86,5.56A34.94,34.94,0,0,0,249,307.71Z"/></g></g></svg>