<svg xmlns="http://www.w3.org/2000/svg" viewBox="0 0 204.02 254.5"><defs><style>.cls-1{fill:#231815;}.cls-2{fill:#ffdacc;}.cls-3{fill:#ebff07;}.cls-4{fill:#fff;}.cls-10,.cls-5{fill:#237aad;}.cls-6{fill:#f9c9ab;}.cls-7{fill:#ce9b72;}.cls-11,.cls-8{fill:none;stroke-linecap:round;stroke-linejoin:round;stroke-width:2px;}.cls-8{stroke:#000;}.cls-9{fill:#1c709b;}.cls-10,.cls-11,.cls-9{stroke:#231815;}.cls-10,.cls-9{stroke-miterlimit:10;stroke-width:3px;}</style></defs><g id="Capa_2" data-name="Capa 2"><g id="レイヤー_2" data-name="レイヤー 2"><path class="cls-1" d="M170,17.45l-.06-.26h0a.8.8,0,0,0-1-.57h0l-.81.24.38.35v0l0-.06,0,.15.09.55.75.4c-.47.16-.94.3-1.41.44l.07-.09-.8.22.33-.41c-.1-.45-.19-.89-.28-1.34-.91.25-1.82.49-2.74.7l1.18,1.06,0,.09-1.13.18-.27-1.28-.67.15c-1.77.4-3.56.73-5.37,1s-3.62.63-5.42,1.08c-.45.11-.9.22-1.35.35l-1.35.4-.66.22-.33.11-.17.06-.14.05-1.17.54c-.19-.46-.34-.88-.51-1.26s-.43-.91-.65-1.35q-.66-1.35-1.35-2.7c-.23-.44-.46-.89-.68-1.34s-.47-.89-.7-1.33l-1.41-2.67-.22-.41-.47.11,0,0-.07-.46.4.09q-1.25-2.31-2.51-4.62Q138,3.2,136.54.54v0A1,1,0,0,0,135.46,0l-.27.06h0a1.06,1.06,0,0,0-.78.92l-.66,5.67L133,12.35c-.23,1.9-.47,3.79-.71,5.69s-.44,3.55-.67,5.32l.35-.14-.4.51c0-.12,0-.25,0-.37-1.62.64-3.26,1.24-4.9,1.81-1.09.38-2.18.75-3.28,1.1l.32,0,.37.31c0,.09,0,.17,0,.26l-1.19.26-.12-.63-1.45.45c-1.78.53-3.56,1-5.36,1.47s-3.6.82-5.41,1.08h0a.51.51,0,0,0-.41.57l0,.28h0a.52.52,0,0,0,.26.38c1.61.85,3.18,1.79,4.72,2.78,1.19.76,2.36,1.55,3.53,2.34l.66,0,0,.12-.42.09.79.53c1.53,1,3.07,2,4.66,3s3,1.66,4.49,2.38l.06-.43c.11.2.21.41.31.61l-.37-.18q-.42,2.69-.64,5.38c-.16,1.94-.26,3.88-.35,5.81,0,.29,0,.58,0,.87h.7l-.7.17c-.06,1-.12,2-.19,3l.43-.1.42.4-.7.06h-.18c0,.44-.07.89-.11,1.33q-.27,2.87-.79,5.7v0a.6.6,0,0,0,.51.7h0l.23,0a.6.6,0,0,0,.48-.17h0c2.8-2.72,5.57-5.52,8.3-8.36q2.06-2.15,4.06-4.33t3.76-4.12l-.33-.12.57-.15-.24.27q2.46.9,5,1.57c1.79.48,3.59.88,5.39,1.24s3.59.7,5.36,1.08,3.52.77,5.25,1.21a.46.46,0,0,0,.37-.07l.2-.14,0,0a.49.49,0,0,0,.14-.63q-1.4-2.07-2.69-4.24c-.87-1.45-1.7-2.93-2.52-4.43s-1.65-3-2.49-4.55-1.56-2.78-2.37-4.16l-.3.34c0-.24.05-.49.07-.73l.23.39c2.4-2.71,4.72-5.48,7-8.28l2.72-3.39,0,0,0,0c.25-.32.51-.63.76-.94,1.16-1.44,2.34-2.86,3.51-4.27a1,1,0,0,0,.19-.78ZM163.74,21c0,.1,0,.2,0,.29a1.92,1.92,0,0,0-.32.05l-.7.18c0-.12,0-.23-.08-.35Zm-3,1v0l-.58.15-.45.07c0-.19-.09-.38-.13-.58l.66-.1Zm0,27.55.12.12-.39.08c-.12-.18-.25-.35-.38-.51l.27-.06Zm-5.14-19.17.08.07v0l-.45.08,0-.09Zm-.75-2.89.41-.07h0l-.38.1Zm2.07,23h-.08l-.39-.37,0,0C156.64,50.22,156.79,50.34,156.93,50.47ZM148.77,29l-.17,0h-.1c0-.1,0-.21-.07-.31l.4.13.26.08Zm1.44,6.83s0,.07,0,.1l-.17,0v0Zm-5.34-15,.15.92-.48.12-.83-.76Zm-1.76-2.71h-.05v-.08ZM140.3,18l-.07-.07.89-.2c0,.16.07.32.1.49Zm1.54,3.64v.07l-.15,0Zm1.89,12.75v0l-.15,0,0,0Zm.35,3.13H144v0Zm-5.29-26.65-.07,0c0-.14-.05-.28-.07-.42l0-.31.51-.12.5.43c0,.12,0,.24.08.37l-.65.14ZM137.36,36h-.05l-.09-.42.34.08.1.1,0,.15Zm1.43,6.94c0,.2.07.4.1.6h0l0,0c0-.2-.07-.39-.1-.58ZM137.63,23l-.06-.33.73-.18.36.37Zm1,4.49h0l0-.06h0ZM140,30.23a.78.78,0,0,1,0,.16l-.53.08-.1-.09Zm-2.71-10.69-.39-.41c0-.12,0-.25-.07-.37h.06l1.31.28.05.27Zm-2.21-.24-.38,0-.32,0,.53-.12.11.1.06.06Zm4.63,31.78-.34,0c0-.07,0-.15.05-.22h0Zm-6.62-22.33-.16,0,0,0Zm3.5,23.85-.26.07-.6-.1.45-.11.06-.19Zm-4.67.21-.48.09-.13,0,.56-.14Zm-7.55-18.93.5-.11c0,.17,0,.34.07.52l-.22,0Zm4.18,4.06h0Zm1.32-9.43.5,0c0,.12,0,.24.05.35l-1.07-.28Zm5.3,23.87.12.15h-.09a10.11,10.11,0,0,0-1.1,0l0,0A10.27,10.27,0,0,0,135.19,52.38ZM118.26,31.19l.12.72c-.2-.23-.39-.47-.59-.71Zm-3.66.67.58-.12,0,0c0,.1,0,.2,0,.31l-.54-.14Zm16.55,25.88-.82.17-.41-.43ZM158.6,29.93l-.3,0-.06-.27.45-.12,0,.26Zm-6.13-9.72h0v0ZM142.3,13.8l.45.11.57.56-.64.15-.19-.3,0-.07-.06,0,0-.15-.18-.29Zm-3.69-7.11c0,.2.09.4.13.6l0,.22c-.2-.24-.4-.49-.61-.73Zm-2.9-4.64.68-.79c-.09.7-.19,1.41-.28,2.12L136,3.17c0,.18-.05.37-.08.55l-1.14-2.11Zm-1.54,13.6c0-.16.06-.31.08-.47h0l.18.9-.28.07-.21-.26-.05.24-.29-.35Zm-4.23,9,0,.13h-.06l-.72.12a.27.27,0,0,1-.07-.08ZM111.13,30c0-.07-.09-.14-.14-.21l.21.11h0v0l.48.27-.56.1.17.1-.5.07Zm16.46,34.07-.3.1.85-.83-.12.84.13-.12-.12.65Zm3.83-2.79-.35-.11c.06,0,.11-.11.16-.16l.65.06a.56.56,0,0,1,.05.08ZM165,52.79l.26.06-.06.24Zm.36-.35v0l.17,0-.19,0,0,.09-.15-.22.17,0Zm-2.47-4-.07,0s0-.08,0-.12ZM161,29l-.16-.14.14,0Zm4.82-7.69h0l0,0,.12-.15,0,.17Z"/><path class="cls-1" d="M66.08,112.41A6.68,6.68,0,0,1,65,107.32a28.37,28.37,0,0,1,.8-4.45c.37-1.45.86-2.86,1.35-4.27.25-.7.53-1.39.77-2.11s.54-1.39.79-2.1.54-1.41.79-2.12.56-1.41.83-2.12c.59-1.41,1.12-2.84,1.78-4.24a52.28,52.28,0,0,1,4.56-8.28A69.23,69.23,0,0,1,83,69.79c.57-.65,1.21-1.26,1.81-1.9l.91-1c.3-.32.64-.62,1-.94l1.91-1.9,2-1.88.5-.47c.17-.16.33-.32.51-.47.35-.31.68-.63,1-.94.67-.64,1.3-1.31,2-2,1.37-1.28,2.64-2.66,4.19-3.87.77-.61,1.53-1.23,2.37-1.8s1.71-1.11,2.63-1.63c.46-.26.91-.52,1.41-.75s1-.45,1.52-.65a24.08,24.08,0,0,1,3.3-1.09l.72.63a13.79,13.79,0,0,1-1.94,2.16c-.36.33-.73.64-1.1,1-.2.15-.38.31-.56.47l-.56.45c-.76.61-1.57,1.17-2.38,1.71s-1.6,1.12-2.44,1.65c-1.7,1-3.35,2.1-5,3.15-.82.53-1.58,1.11-2.34,1.67a25.32,25.32,0,0,0-2.15,1.77l-2,1.82-1.88,1.88c-.31.31-.62.62-.92.94l-.86,1c-.57.65-1.16,1.28-1.69,1.93s-1,1.32-1.58,2-1,1.33-1.48,2l-.74,1-.69,1c-.45.68-1,1.32-1.37,2s-.87,1.34-1.32,2l-1.24,2c-.43.66-.81,1.34-1.21,2l-.59,1-.54,1c-.36.68-.74,1.35-1,2s-.67,1.37-1,2.08a42.92,42.92,0,0,0-1.51,4.25q-.3,1.09-.54,2.19c-.16.74-.29,1.49-.41,2.23-.22,1.5-.39,3-.53,4.53l-.42,4.52a13.34,13.34,0,0,1-.3,2.22,3.82,3.82,0,0,1-1.19,1.94Z"/><path class="cls-2" d="M155.33,86.64v-.17h0a.57.57,0,0,0-.54-.53h0l-.49,0,.18.27v0l0,0,0,.08v.32l.38.38L154,87l.05,0-.48,0,.23-.18c0-.27,0-.54,0-.81-.55,0-1.1-.07-1.64-.12l.56.82v.06l-.66-.11c0-.26,0-.52,0-.78l-.41,0c-1.06-.1-2.12-.25-3.19-.39s-2.14-.29-3.23-.35c-.27,0-.54,0-.81,0h-1.61c-.22,0-.46.06-.73.11-.06-.29-.1-.56-.17-.8s-.15-.58-.24-.87c-.16-.58-.33-1.16-.5-1.73-.09-.29-.18-.58-.26-.87L140.6,80c-.18-.58-.36-1.15-.55-1.73L140,78h-.27v-.29l.22.11c-.32-1-.65-2-1-3s-.77-2.28-1.15-3.42h0a.63.63,0,0,0-.57-.44H137a.55.55,0,0,0-.55.4c-.32,1-.63,2.06-1,3.09l-1,3.09-1,3.1c-.31,1-.61,1.94-.92,2.91l.22,0-.28.23.06-.2c-1,.13-2,.25-3,.36l-2,.2.19,0,.18.22v.15h-.71c0-.12,0-.25,0-.37l-.89.07c-1.08.09-2.17.17-3.25.21s-2.17.07-3.25,0h0a.28.28,0,0,0-.29.28v.17h0a.3.3,0,0,0,.12.24c.85.65,1.67,1.35,2.47,2.08.61.56,1.22,1.14,1.82,1.72l.39.06v.07h-.25l.41.4c.78.76,1.58,1.52,2.4,2.24s1.55,1.32,2.37,1.93a1.55,1.55,0,0,1,.08-.23l.12.38-.2-.15c-.34,1-.63,2-.9,3s-.52,2.16-.76,3.24l-.12.49c.14,0,.27.05.4.09h-.42c-.13.56-.26,1.13-.4,1.69h.26l.21.28-.42-.06-.1,0c-.06.25-.13.5-.19.74-.29,1.06-.62,2.1-1,3.12v0a.38.38,0,0,0,.22.47h0l.14,0a.28.28,0,0,0,.28,0h0q2.8-1.75,5.58-3.57c.92-.6,1.84-1.21,2.75-1.83l2.56-1.74-.17-.12h.34l-.17.11q1.34.92,2.7,1.74c1,.59,2,1.14,3,1.68s2,1.08,3,1.65,1.93,1.15,2.87,1.77a.29.29,0,0,0,.22,0l.13,0h0a.26.26,0,0,0,.15-.34q-.59-1.49-1.11-3c-.34-1-.67-2-1-3.05s-.63-2.06-1-3.08-.61-1.88-.93-2.82l-.21.15.12-.41.09.26c1.64-1.1,3.26-2.25,4.83-3.42l1.91-1.43v0l.53-.39c.81-.61,1.64-1.19,2.45-1.77a.45.45,0,0,0,.19-.41Zm-4,.8v.18l-.19,0-.43,0v-.21Zm-1.81,0h0l-.35,0-.27,0c0-.12,0-.24,0-.35l.39.06Zm-2.81,15.76.06.09-.23,0c-.06-.12-.11-.25-.17-.37l.16,0Zm-1-11.93,0,0v0l-.27,0v0Zm-.14-1.77.24,0h-.23ZM144.48,103h0l-.19-.29h0ZM142,89.37h-.1l-.05,0v-.19l.21.14.14.09Zm.14,4.12v.06l-.09-.06h.09Zm-1.57-9.36v.54h-.29c-.14-.18-.27-.37-.41-.56Zm-.74-1.81h0v0Zm-1.6-.55,0,0,.53,0a2.71,2.71,0,0,0,0,.29Zm.52,2.29v0l-.08,0Zm-.18,7.5h-.09v0Zm-.11,1.83h0v0ZM138,77.53l0,0v-.43h.3c.09.1.17.21.25.31v.22h-.39Zm-3.32,14h0v-.25l.19.09.05.08v.08Zm.13,4.14V96h0v-.36Zm1.31-11.44V84h.44c0,.09.11.17.17.26Zm.12,2.67h0v0h0Zm.54,1.79v.09l-.31,0-.05-.06Zm-.51-6.44-.18-.29v-.22l0,0,.73.35v.15Zm-1.25-.46-.21-.07-.19-.06H135l.05.07,0,0Zm-.48,18.66-.19-.07a.61.61,0,0,0,.05-.12h0ZM133,86.78h-.09l0,0Zm-.33,14h-.15a2.52,2.52,0,0,0-.34-.15h.27a.31.31,0,0,0,.05-.1Zm-2.7-.56-.28,0-.07,0h.33Zm-2.51-11.71h.3c0,.1,0,.2,0,.3l-.12-.06Zm2,2.83h0Zm1.69-5.15.28.1v.21l-.6-.31Zm.71,14.25s0,.07,0,.1h0c-.21-.07-.43-.11-.64-.16v0C131.41,100.4,131.62,100.43,131.84,100.45Zm-7.7-14.2c0,.15,0,.29,0,.43l-.27-.47Zm-2.2,0h.35l0,0c0,.06,0,.12,0,.18l-.29-.14ZM129,102.91h-.48l-.2-.31ZM147.52,91.6l-.17-.06v-.17l.27,0v.15ZM145,85h0Zm-5.22-5.28.25.13.27.41-.38,0c0-.06-.05-.13-.08-.2l0,0h0v-.09c0-.06-.05-.13-.08-.19Zm-1.42-4.56c0,.12,0,.24,0,.36v.13c-.09-.17-.18-.34-.28-.5Zm-1.22-3,.48-.34c-.13.38-.25.77-.38,1.15a.78.78,0,0,0-.05-.14c0,.1-.06.2-.1.3l-.45-1.35Zm-2.24,7.43.09-.25h0c0,.17,0,.35,0,.53h-.17l-.1-.17,0,.13c-.05-.08-.1-.16-.14-.24ZM131.54,84v.08h0l-.43,0,0-.06Zm-11.43.8-.06-.14.11.09h0v0l.25.2h-.34l.09.07h-.29ZM126.34,106l-.19,0,.57-.36-.15.46.08,0-.12.36ZM128.8,105l-.18-.11.11-.07.36.12a.14.14,0,0,1,0,.06Zm20,1,.15.09-.06.13Zm.24-.13v0l.09.06-.11,0,0,0-.06-.16.09.06Zm-1-2.81h0s0,0,0-.08ZM149,91.54l-.08-.12.08,0Zm3.55-3.48h0l.08-.07v.1Z"/><path class="cls-1" d="M85.27,131a3.27,3.27,0,0,1-.15-2.88,18.64,18.64,0,0,1,.95-2.65c.37-.87.82-1.72,1.27-2.57.22-.43.47-.85.68-1.27s.48-.85.7-1.27.48-.85.7-1.27l.72-1.27c.5-.84,1-1.7,1.51-2.53a37.85,37.85,0,0,1,3.57-4.89,48.33,48.33,0,0,1,4.53-4.52c.4-.36.84-.7,1.26-1.06l.63-.53.66-.51c.43-.35.87-.69,1.31-1l1.36-1,.34-.25a2.7,2.7,0,0,1,.34-.25l.69-.5c.46-.33.89-.68,1.35-1a32.89,32.89,0,0,1,2.83-2c.5-.29,1-.6,1.55-.86s1.11-.51,1.69-.73c.3-.11.59-.22.9-.31l1-.25a14,14,0,0,1,2-.31l.36.42a8,8,0,0,1-1.34,1c-.24.15-.48.3-.73.44l-.37.22-.37.21c-.5.28-1,.53-1.55.78s-1,.51-1.58.75c-1.09.47-2.16,1-3.24,1.47-.53.25-1,.54-1.53.82a14.53,14.53,0,0,0-1.43.91l-1.37,1-1.3,1-.63.51-.6.53c-.4.36-.81.71-1.19,1.08l-1.13,1.1c-.38.37-.72.75-1.08,1.13l-.54.56-.51.58c-.33.38-.69.76-1,1.15s-.65.78-1,1.16l-.94,1.18c-.33.39-.62.79-.93,1.18l-.46.6-.43.6c-.28.41-.57.81-.83,1.22s-.55.81-.78,1.23c-.5.83-.95,1.68-1.36,2.53-.19.43-.37.86-.54,1.3s-.33.87-.48,1.31c-.28.89-.54,1.77-.77,2.66l-.72,2.65a8.89,8.89,0,0,1-.41,1.3,3.18,3.18,0,0,1-.93,1.2Z"/><path d="M116.39,189a1.33,1.33,0,0,1,1.12.38,1.48,1.48,0,0,1,.46,1.1,1.39,1.39,0,0,1-.46,1.05,1.43,1.43,0,0,1-1.09.4l-1.09-.07a.38.38,0,0,0-.36.2l-6.06,11.16a.58.58,0,0,0-.1.37v7.18c0,.17.08.26.23.26a6.66,6.66,0,0,0,.78-.05l.74-.08a1.32,1.32,0,0,1,1.12.38,1.48,1.48,0,0,1,.46,1.1,1.46,1.46,0,0,1-.46,1.09,1.5,1.5,0,0,1-1.12.39c-.64-.07-1.22-.11-1.75-.15s-1,0-1.55,0a28.13,28.13,0,0,0-3,.2,1.54,1.54,0,0,1-1.13-.39,1.4,1.4,0,0,1-.48-1.09,1.43,1.43,0,0,1,.48-1.1,1.35,1.35,0,0,1,1.13-.38l.71.06.74.07h.07c.15,0,.23-.09.23-.26v-7a.57.57,0,0,0-.1-.36l-6.09-11.39a.33.33,0,0,0-.3-.2,4.48,4.48,0,0,0-.64.05,4.48,4.48,0,0,1-.64,0,1.42,1.42,0,0,1-1-.41,1.37,1.37,0,0,1-.43-1,1.44,1.44,0,0,1,.46-1.1,1.32,1.32,0,0,1,1.12-.38l1.63.15c.45,0,.87.05,1.27.05s.89,0,1.36-.05l1.73-.15a1.37,1.37,0,0,1,1.14.38,1.43,1.43,0,0,1,.48,1.1,1.41,1.41,0,0,1-.43,1,1.45,1.45,0,0,1-1,.41q-.33,0-.66,0l-.66-.07h-.07a.19.19,0,0,0-.18.1.27.27,0,0,0,0,.23l4.25,8.23a.22.22,0,0,0,.2.17c.08,0,.15-.06.19-.17l4.25-8.23a.4.4,0,0,0,0-.17c0-.11-.06-.16-.19-.16a5.84,5.84,0,0,0-.73.05,5.81,5.81,0,0,1-.72,0,1.42,1.42,0,0,1-1-.41,1.37,1.37,0,0,1-.43-1,1.43,1.43,0,0,1,.48-1.1,1.34,1.34,0,0,1,1.13-.38l1.62.15c.43,0,.86.05,1.28.05s.89,0,1.37-.05Z"/><path d="M131.24,206.34h-11.3c-.22,0-.31.11-.26.33a6,6,0,0,0,2.11,3.28,5.64,5.64,0,0,0,3.62,1.26,5.5,5.5,0,0,0,4.21-1.94,1.55,1.55,0,0,1,1.19-.56,1.36,1.36,0,0,1,.79.26,1.34,1.34,0,0,1,.63,1.16,1.26,1.26,0,0,1-.3.82,8.62,8.62,0,0,1-6.52,3,8.31,8.31,0,0,1-3.38-.69,9,9,0,0,1-4.64-4.78,8.81,8.81,0,0,1-.68-3.42,9.27,9.27,0,0,1,1.11-4.53,8.45,8.45,0,0,1,3-3.21,7.9,7.9,0,0,1,4.25-1.19,7.74,7.74,0,0,1,5.63,2.14,9.21,9.21,0,0,1,2.6,5.86,1.85,1.85,0,0,1-.51,1.55A2,2,0,0,1,131.24,206.34Zm-6.16-7.61a5.28,5.28,0,0,0-3.52,1.19,5.75,5.75,0,0,0-1.88,3.32v.07a.23.23,0,0,0,.26.26h10.11q.33,0,.27-.36C129.72,200.23,128,198.73,125.08,198.73Z"/><path d="M151.49,211.08a1.15,1.15,0,0,1,.3,0,1.28,1.28,0,0,1,1,.41,1.43,1.43,0,0,1,.4,1,1.44,1.44,0,0,1-.5,1.13,1.27,1.27,0,0,1-1.15.32,5.68,5.68,0,0,0-1-.18l-.91-.09a2,2,0,0,1-1.18-.36,2.26,2.26,0,0,1-.79-.92c-.11-.2-.24-.23-.4-.1a8.43,8.43,0,0,1-2.4,1.24,10.14,10.14,0,0,1-3,.41,5.45,5.45,0,0,1-3.79-1.34,4.4,4.4,0,0,1-1.48-3.44,5.18,5.18,0,0,1,.79-2.85,5.51,5.51,0,0,1,2.19-1.94,7.21,7.21,0,0,1,3.28-.71,11.43,11.43,0,0,1,4.28.86h.06a.11.11,0,0,0,.07,0c.15,0,.23-.09.23-.26v-1a4.47,4.47,0,0,0-1.14-3.35,3.76,3.76,0,0,0-2.71-1.1,4.42,4.42,0,0,0-1,.12,7.07,7.07,0,0,0-1,.31.25.25,0,0,0-.17.36c0,.09,0,.17.05.23a1.64,1.64,0,0,1,0,.23,2.1,2.1,0,0,1-.6,1.47,2,2,0,0,1-1.51.64,1.9,1.9,0,0,1-1.53-.67,2.27,2.27,0,0,1-.58-1.54,2.34,2.34,0,0,1,.17-.85,2.43,2.43,0,0,1,.49-.79,6,6,0,0,1,2.29-1.63,7.31,7.31,0,0,1,2.91-.58A7.23,7.23,0,0,1,148.4,198a7.11,7.11,0,0,1,1.87,5.29V211c0,.2.08.3.23.3a1.7,1.7,0,0,0,.51-.07C151.18,211.14,151.34,211.1,151.49,211.08Zm-9.68.1a8.57,8.57,0,0,0,3.05-.59,8,8,0,0,0,2.45-1.75.55.55,0,0,0,.13-.36v-.72a.33.33,0,0,0-.2-.33,13.5,13.5,0,0,0-1.69-.73,8.2,8.2,0,0,0-2.69-.36,4.2,4.2,0,0,0-2.63.74,2.48,2.48,0,0,0-1,2.09,1.77,1.77,0,0,0,.71,1.45A2.87,2.87,0,0,0,141.81,211.18Z"/><path d="M171.25,198.24a2,2,0,0,1-2.08,2,1.91,1.91,0,0,1-1.07-.31,2.72,2.72,0,0,1-.77-.78A.31.31,0,0,0,167,199a5.06,5.06,0,0,0-3,1.82,11,11,0,0,0-2.17,4,.92.92,0,0,0-.06.37v5.92c0,.18.07.27.23.27a4.68,4.68,0,0,0,.67,0,4.48,4.48,0,0,1,.64-.05,1.35,1.35,0,0,1,1,.38,1.37,1.37,0,0,1-.05,2,1.41,1.41,0,0,1-1,.36l-1.63-.15c-.41,0-.81-.05-1.2-.05s-.89,0-1.28.05l-1.55.15a1.41,1.41,0,0,1-1-.36,1.37,1.37,0,0,1,0-2,1.34,1.34,0,0,1,1-.38l.57,0,.64.07h.07c.15,0,.23-.09.23-.27V199.26c0-.18-.08-.26-.23-.26a7.15,7.15,0,0,0-1.15.09,1.48,1.48,0,0,1-1.14-.39,1.4,1.4,0,0,1-.48-1.09,1.36,1.36,0,0,1,.5-1.08,1.42,1.42,0,0,1,1.12-.37l1,.1c.26,0,.51,0,.76,0h1a1.34,1.34,0,0,1,1,.42,1.39,1.39,0,0,1,.42,1v1.35c0,.13,0,.21.11.23s.16,0,.25-.13a7.81,7.81,0,0,1,5.33-3.19,3.64,3.64,0,0,1,.45-.05l.44,0a3.5,3.5,0,0,1,2.08.59A2,2,0,0,1,171.25,198.24Z"/><path d="M177.34,201.3a1.31,1.31,0,0,0,.81,1.19,8.34,8.34,0,0,0,2.07.69c.85.17,1.74.37,2.69.57a13.8,13.8,0,0,1,2.68.88,5.53,5.53,0,0,1,2.08,1.54,4,4,0,0,1,.8,2.61,4.18,4.18,0,0,1-.94,2.71,5.9,5.9,0,0,1-2.63,1.81A11,11,0,0,1,181,214a11.21,11.21,0,0,1-2.6-.32,10.75,10.75,0,0,1-2.43-.87,5.84,5.84,0,0,1-1.82-1.35,2.6,2.6,0,0,1-.69-1.74,2.12,2.12,0,0,1,2.08-2.11,1.93,1.93,0,0,1,1.5.64,2.16,2.16,0,0,1,.57,1.47v.19a.64.64,0,0,1,0,.2v.07a.31.31,0,0,0,.2.29,9.79,9.79,0,0,0,1.48.53,6.59,6.59,0,0,0,1.74.23,7.06,7.06,0,0,0,3.36-.69,2.06,2.06,0,0,0,1.29-1.81,1.45,1.45,0,0,0-.81-1.32,8.18,8.18,0,0,0-2.07-.77l-2.69-.65a17.09,17.09,0,0,1-2.68-.83,5.61,5.61,0,0,1-2.08-1.42,3.49,3.49,0,0,1-.8-2.39,4.37,4.37,0,0,1,1.89-3.74,8.41,8.41,0,0,1,5-1.36,10.09,10.09,0,0,1,3.2.46,5.54,5.54,0,0,1,2.19,1.27,2.55,2.55,0,0,1,.8,1.86V200a.66.66,0,0,1,0,.21,1.9,1.9,0,0,1-.69,1.22,2.07,2.07,0,0,1-1.35.5,2,2,0,0,1-1.57-.74,2.08,2.08,0,0,1-.47-1.67v-.06a.33.33,0,0,0-.2-.3,6.82,6.82,0,0,0-.87-.2,7.62,7.62,0,0,0-1-.06,5.79,5.79,0,0,0-2.9.66A2,2,0,0,0,177.34,201.3Z"/><rect x="81.01" y="218.98" width="123.01" height="35.52"/><path class="cls-3" d="M106.45,231.78a.72.72,0,0,1,.61.2.82.82,0,0,1,.25.61.76.76,0,0,1-.25.59.8.8,0,0,1-.61.22,3.57,3.57,0,0,0-.65-.06h0s-.09,0-.14.13L102,244.59a1.23,1.23,0,0,1-.48.64,1.35,1.35,0,0,1-.77.24,1.23,1.23,0,0,1-.74-.24,1.29,1.29,0,0,1-.48-.64l-3.64-11.12c0-.09-.08-.13-.14-.13a4.08,4.08,0,0,0-.68.06.83.83,0,0,1-.61-.22.77.77,0,0,1-.26-.59.83.83,0,0,1,.26-.61.74.74,0,0,1,.61-.2l.9.08c.26,0,.51,0,.73,0s.49,0,.75,0l.89-.08a.74.74,0,0,1,.62.2.8.8,0,0,1,.26.61.74.74,0,0,1-.26.59.82.82,0,0,1-.62.22,1,1,0,0,0-.3,0l-.29,0h0c-.11,0-.14.06-.11.18l3.06,9.52c.05.09.09.13.11.13s.09,0,.11-.13l3.1-9.52v0a.08.08,0,0,0,0,0c0-.07,0-.11-.12-.11a3.71,3.71,0,0,0-.67.06.82.82,0,0,1-.62-.22.77.77,0,0,1-.26-.59.83.83,0,0,1,.26-.61.74.74,0,0,1,.62-.2l.9.08c.25,0,.5,0,.74,0s.49,0,.75,0Z"/><path class="cls-3" d="M117.86,241.73a.86.86,0,0,1,.63.26.76.76,0,0,1,.22.62l-.11,1.51a1.23,1.23,0,0,1-1.23,1.19H111a4,4,0,0,0-.67.06l-.68.09a.8.8,0,0,1-.66-.2.81.81,0,0,1-.29-.65A.78.78,0,0,1,109,244a.83.83,0,0,1,.66-.19l.13,0,.16,0h0c.09,0,.14,0,.14-.15V233.56c0-.11-.05-.16-.14-.16a.47.47,0,0,0-.16,0l-.17.05a.83.83,0,0,1-.66-.19.78.78,0,0,1-.29-.64A.81.81,0,0,1,109,232a.8.8,0,0,1,.66-.2l.74.09a4.56,4.56,0,0,0,.72.06h6.26a1.23,1.23,0,0,1,1.23,1.19l.11,1.51a.75.75,0,0,1-.22.61.83.83,0,0,1-.63.27.81.81,0,0,1-.6-.24.78.78,0,0,1-.25-.59,4.4,4.4,0,0,1,0-.48c0-.17,0-.34,0-.51s-.06-.16-.17-.16h-5a.14.14,0,0,0-.16.16v3.71a.14.14,0,0,0,.16.16h4.41a.76.76,0,0,1,.56.24.73.73,0,0,1,.23.55.71.71,0,0,1-.23.55.79.79,0,0,1-.56.23H111.9a.14.14,0,0,0-.16.16v4.25a.14.14,0,0,0,.16.16h5c.11,0,.17-.05.17-.16s0-.35,0-.51a4.12,4.12,0,0,1,0-.48.78.78,0,0,1,.25-.59A.81.81,0,0,1,117.86,241.73Z"/><path class="cls-3" d="M131.59,235a.71.71,0,0,1-.21.61.83.83,0,0,1-.63.27.85.85,0,0,1-.85-.88l.09-1.32c0-.1-.05-.16-.14-.16h-2.63a.14.14,0,0,0-.16.16v10.1q0,.15.12.15a3,3,0,0,0,.43,0l.38-.05a.78.78,0,0,1,.62.21.82.82,0,0,1,.25.6.79.79,0,0,1-.25.58.82.82,0,0,1-.62.22l-.82-.08-.49,0h-.88l-.48,0-.8.08a.79.79,0,0,1-.6-.22.73.73,0,0,1-.26-.58.76.76,0,0,1,.26-.6.75.75,0,0,1,.6-.21l.38,0,.39,0h0c.08,0,.13-.05.13-.15v-10.1a.15.15,0,0,0-.17-.16h-2.64a.14.14,0,0,0-.15.16l.09,1.32a.71.71,0,0,1-.21.61.83.83,0,0,1-.63.27.85.85,0,0,1-.85-.88c0-.28,0-.58.07-.9s0-.65.06-1a1.27,1.27,0,0,1,.38-.85,1.17,1.17,0,0,1,.84-.34h8a1.16,1.16,0,0,1,.83.34,1.18,1.18,0,0,1,.38.85c0,.32.05.64.07,1S131.58,234.72,131.59,235Z"/><path class="cls-3" d="M142.66,241.73a.83.83,0,0,1,.63.26.76.76,0,0,1,.22.62l-.11,1.51a1.23,1.23,0,0,1-1.22,1.19h-6.37a4,4,0,0,0-.68.06l-.67.09a.81.81,0,0,1-.67-.2.84.84,0,0,1-.29-.65.81.81,0,0,1,.29-.64.84.84,0,0,1,.67-.19l.12,0,.16,0h0c.1,0,.14,0,.14-.15V233.56c0-.11,0-.16-.14-.16a.39.39,0,0,0-.15,0l-.17.05a.84.84,0,0,1-.67-.19.81.81,0,0,1-.29-.64.84.84,0,0,1,.29-.65.81.81,0,0,1,.67-.2l.73.09a4.76,4.76,0,0,0,.72.06h6.27a1.23,1.23,0,0,1,1.22,1.19l.11,1.51a.75.75,0,0,1-.22.61.8.8,0,0,1-.63.27.82.82,0,0,1-.84-.83c0-.14,0-.3,0-.48s0-.34,0-.51a.14.14,0,0,0-.16-.16h-5c-.11,0-.17.05-.17.16v3.71c0,.11.06.16.17.16h4.41a.82.82,0,0,1,.79.79.72.72,0,0,1-.24.55.76.76,0,0,1-.55.23h-4.41c-.11,0-.17.05-.17.16v4.25c0,.11.06.16.17.16h5a.14.14,0,0,0,.16-.16c0-.18,0-.35,0-.51s0-.33,0-.48a.82.82,0,0,1,.84-.83Z"/><path class="cls-3" d="M157.14,243.85a.82.82,0,0,1,.62,1.41.83.83,0,0,1-.62.21l-.58-.07c-.34,0-.66-.05-1-.05a1.33,1.33,0,0,1-1.19-.65l-3-4.55c0-.08-.1-.11-.2-.11h-2.16a.14.14,0,0,0-.16.16v3.58c0,.1,0,.15.13.15l.45,0,.43-.05a.76.76,0,0,1,.61.21.81.81,0,0,1-.61,1.41l-.89-.08-.75,0-.74,0-.9.08a.83.83,0,0,1-.62-.21.79.79,0,0,1-.26-.6.75.75,0,0,1,.24-.58.78.78,0,0,1,.57-.23l.26,0,.3,0h0q.12,0,.12-.15v-10.2c0-.12-.05-.17-.16-.15l-.43,0a.83.83,0,0,1-.94-.81A.8.8,0,0,1,146,232a.87.87,0,0,1,.66-.21l.74.1a6.59,6.59,0,0,0,.75.05l3.29,0a5.87,5.87,0,0,1,3.69,1.07,3.57,3.57,0,0,1,1.32,3,3.79,3.79,0,0,1-.82,2.49,4.14,4.14,0,0,1-2.31,1.36c-.13,0-.17.09-.09.2l2.48,3.81a.21.21,0,0,0,.22.11C156.37,243.94,156.76,243.9,157.14,243.85Zm-5.48-10.35h-2.61c-.11,0-.16.06-.16.17v4.62a.14.14,0,0,0,.16.16h2.61c2.18,0,3.26-.82,3.26-2.46S153.84,233.5,151.66,233.5Z"/><path class="cls-3" d="M172.83,243.85a.82.82,0,0,1,.58.23.78.78,0,0,1,.23.58.79.79,0,0,1-.26.6.81.81,0,0,1-.62.21c-.68-.07-1.23-.1-1.64-.1a15.62,15.62,0,0,0-1.64.1.79.79,0,0,1-.86-.81.77.77,0,0,1,.79-.81l.35,0a2.2,2.2,0,0,1,.37.06c.15,0,.19-.06.13-.18l-.85-1.89a.17.17,0,0,0-.18-.13H163a.21.21,0,0,0-.18.13l-.84,1.89a.14.14,0,0,0,0,.07c0,.07,0,.11.14.11l.38-.06.34,0a.79.79,0,0,1,.8.81.81.81,0,0,1-.87.81c-.69-.07-1.24-.1-1.64-.1a15,15,0,0,0-1.63.1.84.84,0,0,1-.63-.21.79.79,0,0,1-.26-.6.75.75,0,0,1,.24-.58.79.79,0,0,1,.57-.23l.35,0,.32,0h0a.21.21,0,0,0,.16-.11l5.22-11.61a.63.63,0,0,1,.63-.41.61.61,0,0,1,.61.41L172,243.8a.19.19,0,0,0,.16.11,2.07,2.07,0,0,0,.35,0Zm-6.6-9.09c0-.07,0-.1-.11-.1s-.07,0-.11.1L163.65,240a.19.19,0,0,0,0,.07c0,.09.05.13.15.13h4.68c.14,0,.18-.07.12-.2Z"/><path class="cls-3" d="M186.84,231.78a.72.72,0,0,1,.61.2.82.82,0,0,1,.25.61.79.79,0,0,1-.23.57.77.77,0,0,1-.56.24l-.26,0-.3,0h0q-.12,0-.12.15v10.92a.94.94,0,0,1-1,1,1.13,1.13,0,0,1-1-.53L178,235.2c0-.06-.07-.09-.11-.09s-.09,0-.09.14v8.53c0,.1,0,.15.13.15a3.48,3.48,0,0,0,.47,0l.43-.05a.82.82,0,0,1,.62,1.41.83.83,0,0,1-.62.21l-.89-.08-.75,0-.73,0-.91.08a.78.78,0,0,1-.6-.21.76.76,0,0,1-.26-.6.79.79,0,0,1,.79-.81l.26,0,.3,0h0c.09,0,.13,0,.13-.15V233.58q0-.18-.18-.15l-.36.07a.8.8,0,0,1-.68-.2.86.86,0,0,1,.68-1.51l.51.09a2.75,2.75,0,0,1,.44.06,2,2,0,0,1,1.75.95l6,9.4c0,.06.07.09.11.09s.09,0,.09-.15v-8.76c0-.1-.05-.15-.13-.15l-.47,0a2.79,2.79,0,0,0-.43.06.82.82,0,0,1-.62-.22.74.74,0,0,1-.26-.59.8.8,0,0,1,.26-.61.74.74,0,0,1,.62-.2l.9.08c.25,0,.5,0,.74,0s.49,0,.74,0Z"/><path d="M127.48,175.36a3.54,3.54,0,0,1,3,1,3.87,3.87,0,0,1,1.23,2.92,3.76,3.76,0,0,1-1.23,2.89,3.9,3.9,0,0,1-3,1c-1.92-.17-3.93-.32-6-.43s-4.16-.18-6.2-.18-4,.06-6,.18-3.82.26-5.5.43a4.06,4.06,0,0,1-3-1,3.73,3.73,0,0,1-1.27-2.89,3.84,3.84,0,0,1,1.27-2.92,3.67,3.67,0,0,1,3-1c2.44.23,4.89.41,7.33.52a.69.69,0,0,0,.79-.78V128.88c0-.76-.32-1-1-.61l-6,2.88a4.92,4.92,0,0,1-1.83.44,3.71,3.71,0,0,1-3.5-2.19,3.92,3.92,0,0,1-.35-1.75,4,4,0,0,1,.57-2.09,3.31,3.31,0,0,1,1.62-1.4L114.2,118a3.76,3.76,0,0,1,4.37.61,3.64,3.64,0,0,1,1.13,2.79V175.1c0,.52.3.78.88.78C123,175.77,125.33,175.59,127.48,175.36Z"/><path d="M159.46,116.73a23.72,23.72,0,0,1,13.76,3.93,25.26,25.26,0,0,1,8.83,11.23,44.81,44.81,0,0,1,3.1,17.52,48.55,48.55,0,0,1-3.06,18.17,25.22,25.22,0,0,1-8.78,11.62,25.87,25.87,0,0,1-27.7,0,24.89,24.89,0,0,1-8.74-11.62,49.21,49.21,0,0,1-3-18.17,44.63,44.63,0,0,1,3.1-17.52,25.24,25.24,0,0,1,8.82-11.23A23.59,23.59,0,0,1,159.46,116.73Zm0,59.15a14.71,14.71,0,0,0,9.48-3.18,20.11,20.11,0,0,0,6.12-9.14,41.4,41.4,0,0,0,2.14-14,37.68,37.68,0,0,0-2.19-13.5,19.78,19.78,0,0,0-6.16-8.83,15.65,15.65,0,0,0-18.7,0,19.86,19.86,0,0,0-6.16,8.83,37.91,37.91,0,0,0-2.18,13.5q0,12.14,4.72,19.22A14.74,14.74,0,0,0,159.46,175.88Z"/><path class="cls-4" d="M45.38,213l-9.07-10,1.32-2.32.09-4.87s-11.41-4.28-16.35-11.56a71.4,71.4,0,0,1-8.78-7.17c-.6-.75-2.25-6.33,0-7.6s3.07-1.41,4.54-.65c1.05-5.54,2.26-16.42,4.42-19s15.21-9,15.21-9l27,8.18,14.42,16.81-.62,3.78s6.35,1.72,0,7.54c-2.65-.35-2.64.48-2.64.48S71.55,195,53.11,197.5c-1.51,1.73-1.1,0-1.1,0l-.41,1.73-.8,4.57,3.1,1.12Z"/><path class="cls-5" d="M88.91,254.31l-10.37-1.13-68.12.07L.2,253.74S4,218.43,9.81,214.57c1.95-3.23,15.88-8.36,15.88-8.36l8.55-2.85,11.16,4.2,9-2.78,9.06.44s13.87,3.69,16.18,8.42S88.69,243.52,88.91,254.31Z"/><path class="cls-6" d="M25.85,179c0,.17,0,.17,0,.34s0,.16.07.32.06.16.1.33,0,.17,0,.33a2.8,2.8,0,0,0,.15.3,2.85,2.85,0,0,0,.12.31,2,2,0,0,0,.19.28l.2.27a2.75,2.75,0,0,0,.19.28c.11.12.13.1.25.22l.24.24a1.27,1.27,0,0,0,.25.21c.14.1.15.08.29.17s.12.12.27.2a1.17,1.17,0,0,0,.3.14c.16.06.17,0,.33.09s.13.12.29.16a2.09,2.09,0,0,0,.34,0l.33.05a1.32,1.32,0,0,0,.33,0l.34,0c.17,0,.16,0,.33,0a3.31,3.31,0,0,0,.33,0,3.26,3.26,0,0,0,.33-.05,1.5,1.5,0,0,0,.32-.1,1.73,1.73,0,0,0,.32-.11c.15-.08.13-.11.28-.19a1.68,1.68,0,0,0,.3-.15,1,1,0,0,0,.28-.18c.13-.11.11-.13.24-.23a2.78,2.78,0,0,0,.27-.21,1.83,1.83,0,0,0,.21-.26c.11-.13.14-.1.24-.23s.06-.16.15-.3.11-.13.2-.27a2,2,0,0,0,.12-.31c.06-.16.07-.16.13-.31a2,2,0,0,0,.13-.31c.05-.16,0-.17,0-.34s.08-.15.11-.32a1.29,1.29,0,0,0,0-.34c0-.17,0-.16,0-.33s0-.17,0-.33a3.2,3.2,0,0,0-.07-.33c0-.17,0-.17,0-.34a1.6,1.6,0,0,0-.1-.31,1.75,1.75,0,0,0-.12-.32c-.07-.15-.08-.14-.16-.29s-.11-.13-.19-.28,0-.17-.13-.31-.15-.1-.26-.22-.08-.16-.19-.28a1,1,0,0,0-.25-.22c-.13-.11-.14-.09-.27-.2s-.11-.13-.25-.22-.17,0-.32-.12a2.82,2.82,0,0,0-.29-.18l-.31-.11c-.16-.05-.17,0-.33-.08s-.15-.06-.31-.1a1.36,1.36,0,0,0-.33-.06,1.93,1.93,0,0,0-.34,0c-.17,0-.17,0-.33,0a1.93,1.93,0,0,0-.34,0,2,2,0,0,0-.33,0c-.16,0-.16.06-.32.1a1.6,1.6,0,0,0-.31.1,3,3,0,0,0-.32.1,1.38,1.38,0,0,0-.3.14c-.15.08-.14.09-.29.18l-.28.17a1.71,1.71,0,0,0-.27.2,2.78,2.78,0,0,0-.27.21c-.11.12-.09.14-.2.27l-.21.26a2.61,2.61,0,0,0-.19.27c-.09.14-.11.14-.19.28a1.75,1.75,0,0,0-.12.32c-.06.15,0,.16-.1.31s-.08.15-.13.31a3.18,3.18,0,0,0-.09.33c0,.16,0,.17,0,.33s0,.17-.06.33A2,2,0,0,0,25.85,179Z"/><path class="cls-7" d="M6.84,158.26a46.25,46.25,0,0,0,2.53,11l2.06,2.48c0,.06-.08.11,0,.19s.24,0,.3.17,0,.13.1.26-.14.27,0,.38.23-.15.28-.29L13.29,170a.22.22,0,0,0,.12,0c.05-.07,0-.22.05-.28s.13-.1.19-.15.1-.13.17-.18.08-.18.15-.22.19,0,.27,0l.23-.08c.08,0,.18.07.26,0s.12-.21.2-.23.21.23.29.22.13-.17.21-.18.14-.18.22-.19.19.16.26.15a2.32,2.32,0,0,0,.24,0,1.69,1.69,0,0,0,.24,0h.24c.08,0,.15.08.23.09s.17-.05.24,0l.22.07c.09,0,.2,0,.26,0s.18,0,.25.08.07.22.12.26.23.23.28.12-.1-.15-.09-.27-.05-.12,0-.24.13-.11.14-.22,0-.13,0-.25.05-.11.06-.23-.06-.13-.05-.24.26-.09.27-.21,0-.12,0-.24.1-.11.12-.23-.23-.14-.22-.26.14-.1.15-.22,0-.12,0-.24a2.08,2.08,0,0,0,0-.23c0-.12.13-.1.15-.22s-.05-.13,0-.24.05-.12.07-.23-.2-.15-.18-.26.2-.1.22-.21a1.94,1.94,0,0,1,0-.24c0-.11-.08-.12-.06-.24s-.06-.09-.05-.24,0-.15.05-.24,0-.15,0-.24.21-.13.21-.22-.15-.17-.14-.25.2-.14.21-.22-.08-.17-.08-.26-.12-.17-.11-.25,0-.17,0-.25.26-.13.27-.2-.11-.18-.1-.26.12-.15.13-.22-.16-.19-.14-.27.15-.14.17-.22a1.55,1.55,0,0,1,.06-.23c0-.07.13-.13.15-.22s-.2-.21-.18-.29.29-.11.31-.19-.23-.22-.21-.3.23-.12.25-.2-.18-.21-.16-.29.14-.14.16-.22-.06-.18,0-.26.12-.15.14-.23.11-.14.13-.23.09-.14.11-.22-.17-.21-.15-.29.12-.15.14-.23a2.18,2.18,0,0,0,.09-.23c0-.08,0-.18,0-.26a2.09,2.09,0,0,0,0-.25c0-.08.17-.13.19-.21s.06-.16.08-.23.12-.16.14-.23-.08-.14-.05-.26,0-.08.08-.23.1-.13.13-.22-.09-.19-.06-.27.22-.1.24-.18-.11-.2-.09-.28,0-.16.07-.24a2.26,2.26,0,0,1,.11-.22c0-.08.18-.11.2-.19s0-.17,0-.25S21,154,21,154s.19-.11.21-.19a1.51,1.51,0,0,0,.11-.22l.1-.22c0-.08-.15-.23-.13-.3s.13-.13.16-.21.12-.13.15-.21-.13-.21-.1-.29.2-.1.23-.18a2.26,2.26,0,0,0,.11-.22c0-.08.1-.14.13-.22a2,2,0,0,1,.06-.23,2.13,2.13,0,0,0,0-.25c0-.07,0-.16.06-.24s.21-.09.24-.16-.13-.23-.1-.3.08-.15.11-.22.18-.11.21-.18-.13-.23-.1-.3.07-.15.1-.23a1.57,1.57,0,0,0,.09-.23c0-.07.28-.05.31-.13s.1-.13.13-.2-.18-.28-.14-.34.17-.1.2-.17.06-.15.1-.22.18-.09.22-.16,0-.21,0-.28,0-.18.06-.25.12-.12.16-.19.06-.16.1-.23.21-.08.25-.15l.11-.22c0-.07.06-.16.1-.23s-.05-.21,0-.28.16-.1.2-.17.23-.07.27-.14-.17-.27-.13-.34.21-.08.25-.15.05-.15.09-.22,0-.18.05-.25.29,0,.32-.11.05-.16.09-.23,0-.2,0-.27.21-.07.25-.14-.12-.25-.08-.32.19-.09.23-.16.14-.11.18-.18.05-.16.08-.23.12-.13.15-.19-.06-.18,0-.28,0-.16.09-.25.19,0,.27-.1a1.49,1.49,0,0,0,.15-.2c.08-.09.1-.08.18-.17s0-.19.05-.28.19,0,.27-.09.18,0,.26-.11-.06-.21,0-.31.19,0,.27-.09,0-.14.11-.23.09-.08.17-.18.15,0,.23-.13l.16-.18c.08-.1-.12-.27,0-.36s.25.05.33-.05,0-.13.11-.23.11-.06.19-.15,0-.17.08-.26.14,0,.22-.12,0-.16.08-.25.06-.1.14-.19.15,0,.23-.12.17,0,.25-.08-.07-.23,0-.32.06-.1.14-.19.12,0,.2-.14l.16-.18c.08-.08.15,0,.23-.1s0-.2.07-.27.21.08.31,0,.14,0,.24-.08,0-.26.06-.33.18.05.28,0,.08-.09.18-.16.14,0,.24-.07,0-.2.1-.26l.21-.13c.1-.06.19.07.28,0s0-.19.12-.26.12,0,.23-.06.12-.08.25-.1.15.16.28.15.12-.06.25-.07a2.28,2.28,0,0,1,.26,0c.13,0,.1-.05.22,0s0,0,.07.12.17.09.21.18-.08.21,0,.29.18.09.22.16.17.1.21.17-.07.21,0,.29.1.13.14.21a2,2,0,0,0,.09.22c0,.07.17.09.21.17s.05.15.09.23,0,.2,0,.27,0,.19,0,.26.26,0,.3.11,0,.21,0,.28a2.14,2.14,0,0,0,.1.22l.14.21c0,.07.17.08.22.15s.12.11.17.18a2.29,2.29,0,0,1,.1.23c0,.07,0,.18.08.25s.07.15.12.22.15.09.2.15.16.09.21.15.07.16.12.22.17.08.22.14-.07.28,0,.34l.16.2c.05.06.15.08.21.14s.27,0,.32,0,0,.23.06.29.09.14.15.2.08.14.14.19l.18.17c.06,0,.26-.05.32,0l.2.14c.06.05,0,.22.08.27l.18.16c.06.05.25,0,.31,0s-.05.31,0,.36.17,0,.23.1.14.07.21.12.19,0,.25.07.08.16.15.21.11.11.17.16.17.05.24.09l.19.15a1.51,1.51,0,0,1,.22.11c.07,0,.16.06.22.1s0,.33,0,.38.27-.1.34-.05,0,.26.08.3a1.43,1.43,0,0,0,.21.12c.06.05.11.13.17.18s.19,0,.26.05.2,0,.27,0,.08.17.15.21.16,0,.23.1.07.18.13.22.12.12.18.17a2.29,2.29,0,0,1,.23.1c.06,0,.22-.06.29,0s0,.31.06.35l.22.11c.07,0,.2,0,.26,0s.08.18.15.22.24-.09.31,0,.06.21.13.25.2,0,.27,0,0,.23.11.27.21,0,.28,0,.08.19.15.23.23-.08.3,0,.08.18.15.22.16,0,.23.08.07.21.14.25.22-.07.29,0,.05.25.12.28.16,0,.23.09.13.11.2.14.2-.06.28,0,.2-.06.27,0,.12.13.19.16.11.2.18.22.13.09.21.12.2-.1.27-.07.17,0,.24.06.13.11.2.15.18,0,.25,0,.17,0,.23.07,0,.23.12.28.08.16.15.2.28-.13.34-.09,0,.31,0,.35.23-.05.3,0,.1.13.16.18.16.05.22.1,0,.27,0,.32S52,151,52,151l.17.16c.06.05,0,.22.1.27s.22-.05.29,0,.08.16.15.2.16,0,.23.08.11.13.18.17.17,0,.24,0,.08.17.16.21.13.1.21.13.19-.06.27,0,.1.17.18.2.11.15.19.18.17,0,.24,0,.12.13.2.16.24-.18.31-.15.07.28.15.31.19-.05.26,0,.21-.12.29-.09a2.14,2.14,0,0,0,.22.1c.07,0,.12.13.2.15s.16,0,.24.05.08.25.16.27.13.11.21.13.21-.11.29-.08.18,0,.25,0,.09.23.17.25.18,0,.26,0,.17,0,.24,0,.17,0,.25,0,.06.29.14.32.22-.14.3-.12.18,0,.25,0l.24.07c.07,0,.07.28.15.3s.22-.15.3-.13.06.32.13.35a1.9,1.9,0,0,1,.25,0c.08,0,.23-.17.31-.14s.13.11.21.14.09.23.16.26.21-.09.28-.07.12.17.19.2l.24.06c.07,0,.13.1.21.13s.24-.19.31-.17l.23.1c.07,0,.07.27.15.29s.21-.1.28-.07.09.25.16.27.24-.18.31-.15a2.26,2.26,0,0,0,.22.11c.07,0,.11.18.18.21s.19-.05.26,0a1.47,1.47,0,0,1,.22.1c.08,0,.2-.06.27,0s.06.33.13.35l.23.07c.08,0,.24-.19.32-.16s.09.22.16.25.2-.07.27,0,.1.2.18.23.19-.06.27,0,.16,0,.24,0,.08.25.15.27.18,0,.25,0,.19,0,.26,0l.23.07c.08,0,.1.21.17.23s.21-.1.29-.08.09.22.16.24.24-.18.31-.16l.23.09c.08,0,.12.15.19.18s.19,0,.26,0,.09.24.16.27.23-.15.3-.12.06.3.14.33.16,0,.24,0,.2-.08.28-.06l.22.09c.08,0,.12.15.19.17a2.17,2.17,0,0,0,.25,0c.07,0,.12.13.19.16l.22.09c.08,0,.19,0,.25,0l.14.06c.08,0,.17,0,.24,0s.12-.12.19-.16.13-.09.2-.12.23.11.3.08.08-.21.15-.25a2.26,2.26,0,0,0,.2-.13c.07,0,.23-.05.3-.08l-.19.27c0,.08-.18.1-.23.17s0,.21-.08.28-.19-.15-.27-.15-.16.14-.24.15-.17.07-.25.07-.17,0-.26,0c.08,0,.13.11.2.14s.15.05.22.09.21,0,.28,0,0,.29.07.33.19,0,.25.05.1.14.16.18.1.12.15.16.22,0,.27.05.16.09.2.15,0,.22,0,.28.3.07.31.13-.25.15-.24.27.1.12.11.25.19.1.21.23-.12.14-.1.27.18.1.2.22-.21.16-.19.28,0,.13,0,.26,0,.11.07.24.09.11.11.24.07.12.08.24-.16.15-.14.28.1.11.11.23a.52.52,0,0,0,.07.25c.07,0,.2.07.28,0s.24-.27.32-.29-.1.3-.15.36-.32,0-.36,0,0,.21,0,.28.18.1.2.22-.12.15-.1.27.08.11.09.24-.18.15-.16.27.29.08.3.2-.14.15-.12.27,0,.13,0,.25,0,.13,0,.25.17.1.19.22-.09.14-.07.26.19.1.21.22-.16.15-.14.27.1.11.12.23,0,.12,0,.24-.07.14-.06.26.15.1.17.23,0,.12,0,.25a1.93,1.93,0,0,0,0,.24c0,.12,0,.13,0,.25s.15.1.17.22l0,.25c0,.12,0,.13,0,.25s-.12.14-.1.26.2.1.22.22-.18.15-.16.27a2.09,2.09,0,0,1,0,.25.68.68,0,0,0,.12.26c.06.1.12-.18.27-.23s.16,0,.25,0l.22-.11.24-.09c.07,0,.21.17.29.15s.11-.22.19-.24l.24-.05a2.11,2.11,0,0,1,.25,0c.08,0,.17,0,.25,0s.15-.1.22-.12.16-.1.24-.11l.25,0c.07,0,.16.11.25.12s.15.05.23.06.17,0,.25,0,.11.18.19.21a2.24,2.24,0,0,1,.24,0l.21.1c.07,0,.12.11.19.14s.2,0,.27,0,.18,0,.25,0,0,.31.07.35a1,1,0,0,1,.21.11c.07,0,.27-.11.33-.06s0,.27,0,.32.28,0,.3,0,.1.08.19,0-.12-.27-.07-.35.26,0,.31-.09.11-.12.15-.19,0-.2,0-.28.16-.09.2-.17,0-.15.08-.23,0-.16.07-.23,0-.16.08-.23.21-.08.25-.16.07-.14.1-.22-.15-.24-.11-.31,0-.16.07-.24.27-.06.31-.13-.14-.23-.11-.31.14-.11.17-.19.1-.13.13-.21.12-.13.15-.21,0-.18,0-.25.14-.12.17-.2-.18-.23-.16-.31a2,2,0,0,0,.07-.23c0-.08.27-.08.3-.16s0-.17,0-.24,0-.19,0-.27,0-.17,0-.24.22-.11.24-.19-.17-.21-.15-.29.07-.15.09-.23a2.09,2.09,0,0,0,0-.25c0-.08.3-.09.32-.17s-.08-.19-.06-.27-.08-.18-.06-.26.14-.13.16-.21,0-.16.06-.24.13-.14.15-.22-.06-.18,0-.26.15-.13.17-.21-.19-.2-.18-.28.19-.13.21-.22-.08-.17-.07-.25a2.34,2.34,0,0,0,.09-.24l0-.24c0-.08,0-.17,0-.25s0-.16,0-.24.09-.15.1-.24,0-.16,0-.24,0-.16,0-.24,0-.15.06-.24-.11-.17-.1-.25,0-.16,0-.24.11-.16.12-.24-.07-.16-.06-.24.09-.16.1-.24,0-.16,0-.24.22-.15.22-.23-.1-.17-.09-.25a1.93,1.93,0,0,1,0-.24c0-.08-.07-.16-.07-.24s.09-.16.09-.24,0-.16,0-.24,0-.16,0-.24,0-.16,0-.24,0-.16,0-.24-.17-.16-.16-.24,0-.16,0-.24.1-.16.1-.24.13-.15.14-.23-.22-.17-.22-.25.21-.16.21-.24-.23-.16-.23-.24.14-.16.14-.24,0-.16,0-.24.08-.16.08-.24-.12-.16-.12-.24.17-.16.17-.24-.2-.15-.2-.23,0-.16,0-.24.13-.16.13-.24-.22-.16-.22-.24.13-.16.13-.24-.08-.16-.09-.24.17-.16.16-.24.08-.17.07-.25,0-.16,0-.24-.19-.15-.2-.23,0-.16,0-.24.15-.17.15-.24-.1-.16-.11-.24,0-.16,0-.24.09-.16.08-.24.07-.17.06-.24-.08-.16-.09-.24a2.09,2.09,0,0,0,0-.24.47.47,0,0,0,0-.25c0-.12-.15-.07-.21-.18s.06-.17,0-.28-.18,0-.24-.15.11-.2,0-.31-.22,0-.28-.13.1-.19,0-.3-.15-.06-.21-.17-.09-.09-.15-.2-.13-.06-.19-.17,0-.15,0-.26-.14-.08-.08-.19.08,0,.2,0a2.29,2.29,0,0,0,.25,0c.12,0,.11-.12.23-.13s.13.05.25,0,.13.11.25.1.1-.28.22-.29.13,0,.25,0,.12.06.24,0,.13.08.25.07h.24c.13,0,.12-.1.24-.11s.17.14.28.09-.15-.11-.23-.24.06-.21,0-.29-.14-.1-.18-.17,0-.18,0-.25-.15-.1-.19-.17-.17-.08-.21-.15,0-.2,0-.27,0-.19,0-.26-.3,0-.34-.08.09-.24,0-.31-.24,0-.28-.12.08-.23,0-.3-.22-.05-.27-.12,0-.17-.07-.24,0-.16-.09-.23-.13-.11-.17-.18-.18-.08-.23-.15,0-.2,0-.27l-.12-.21c0-.07-.1-.13-.14-.2s-.11-.12-.15-.19-.15-.1-.19-.17.12-.26.08-.33-.06-.15-.11-.22-.13-.11-.17-.18-.2-.07-.25-.14.09-.24,0-.31-.27,0-.31-.09-.15-.1-.19-.17.06-.22,0-.29,0-.19,0-.25-.07-.15-.11-.22-.12-.12-.16-.19-.19-.07-.23-.13,0-.17-.08-.24-.15-.09-.19-.16-.13-.11-.17-.18-.11-.12-.15-.19.06-.22,0-.29-.05-.16-.1-.23,0-.17-.07-.23a1.39,1.39,0,0,0-.15-.19c0-.07-.2-.07-.25-.13a1.39,1.39,0,0,0-.11-.21c0-.07-.12-.12-.16-.19s.07-.23,0-.29-.11-.12-.15-.19-.24-.05-.28-.11,0-.19,0-.26,0-.2,0-.26-.28,0-.32-.08.09-.26,0-.32-.29,0-.33-.08.12-.28.08-.34-.12-.16-.15-.2-.2-.07-.26-.13-.06-.2-.11-.26-.28,0-.32-.08-.26-.31-.16-.4.19,0,.3,0,.13,0,.24-.07-11.71,1.29-11.6,1.24,0-.23.14-.28.14,0,.25,0,.15,0,.26,0,.07-.17.18-.22.19.14.3.09.08-.12.19-.17.09-.11.2-.16.12,0,.23-.08.15,0,.26,0,.1-.07.21-.12,0-.19.16-.23.14,0,.25,0,.16,0,.27,0,.06-.15.17-.2l.23-.09c.11,0,.13,0,.24,0s.14,0,.26,0,.07-.14.18-.19.13,0,.24-.05,0-.24.14-.29.17.08.28,0,.15,0,.26,0,0-.21.15-.26.16.06.27,0a1.57,1.57,0,0,0,.23-.09c.1-.07-.11,0-.26,0s-.1,0-.16-.08l.86-.28s5-1.11.25-3.51c-4.51-2.32-12.73-7.83-21.52-8.71a.17.17,0,0,0-.08-.1s-.08,0-.13.07h-.24c0-.08-.05-.18-.1-.19s-.2.14-.28.12-.17,0-.25,0-.12-.18-.2-.2-.16-.05-.24-.06-.17.07-.25,0-.15-.09-.23-.1-.18.13-.26.12-.13-.26-.21-.26l-.24-.05c-.08,0-.17.08-.25.08s-.17,0-.25,0-.16.06-.24.06-.16-.06-.24-.06-.17-.07-.25-.07-.16.06-.24.06-.16.18-.24.18-.17-.18-.25-.18-.16.16-.24.17-.17-.22-.25-.22l-.24,0c-.08,0-.16.21-.24.21s-.17-.18-.25-.18a2,2,0,0,1-.24,0c-.08,0-.16.09-.24.09s-.16.12-.24.12-.17-.18-.25-.17-.15.22-.23.22-.17-.1-.25-.09-.15.16-.23.17-.18-.22-.26-.21-.14.22-.22.22a2.11,2.11,0,0,1-.25,0c-.08,0-.16,0-.24,0s-.18-.18-.26-.17-.13.31-.21.31-.16,0-.24,0-.17-.1-.25-.09-.17-.09-.25-.08-.15.13-.23.13-.18-.14-.26-.13-.15.06-.23.07l-.24,0c-.08,0-.16.08-.24.08s-.16,0-.24,0-.14.19-.22.2-.15.06-.23.07-.2-.25-.28-.24-.13.2-.21.21-.18-.11-.26-.1l-.24,0-.24,0c-.08,0-.17-.06-.25,0s-.14.15-.22.16-.17,0-.24,0a2.11,2.11,0,0,0-.25,0c-.08,0-.13.14-.21.16h-.25c-.08,0-.18-.12-.26-.1s-.14.12-.22.13-.12.23-.2.24-.19-.14-.27-.13l-.23.06c-.08,0-.13.18-.21.19s-.18-.1-.26-.08-.17,0-.25,0-.14.11-.22.13l-.23.08c-.08,0-.19-.14-.27-.12s-.11.24-.19.26-.2-.15-.28-.13-.12.17-.2.18-.19-.08-.26-.06-.11.25-.18.27-.18,0-.25,0-.13.16-.2.18-.21-.14-.29-.12l-.22.08c-.08,0-.19-.07-.27,0s-.12.15-.2.17-.1.21-.18.23-.22-.16-.29-.14-.12.17-.2.2-.13.1-.21.12-.13.11-.21.14-.21-.15-.29-.12-.09.23-.17.25l-.22.09c-.08,0-.22-.13-.29-.11s-.19,0-.26,0-.08.28-.15.31l-.22.09c-.08,0-.2-.07-.27,0s-.13.13-.2.16l-.22.1c-.07,0-.22-.11-.29-.08s-.07.27-.14.3-.2-.06-.27,0-.2-.07-.28,0-.11.15-.18.18-.14.1-.21.13-.13.11-.21.14-.17,0-.24,0-.17,0-.24.06-.12.12-.2.16-.19-.06-.27,0-.13.1-.2.13-.07.25-.14.28a2.43,2.43,0,0,1-.2.14c-.08,0-.23-.12-.31-.08s-.08.19-.16.23-.13.09-.21.12-.25-.16-.32-.13-.08.21-.15.25-.12.12-.19.16-.13.1-.21.14-.22-.09-.29,0-.16,0-.23.07-.11.16-.18.19-.08.19-.16.23-.26-.16-.33-.13-.1.16-.18.19-.07.22-.14.26-.17,0-.24.07-.12.1-.19.14-.21,0-.28,0-.08.18-.15.22-.17,0-.24.07-.23-.07-.29,0,0,.27-.11.31-.19,0-.26,0-.12.11-.19.16-.09.16-.16.2a1.39,1.39,0,0,1-.19.15c-.06,0-.24-.08-.3,0l-.19.16c-.07,0,0,.23-.1.27s-.12.12-.18.17-.26-.08-.32,0l-.2.15L19,128c-.07,0,0,.27-.06.32s-.24,0-.3,0-.17.05-.23.1-.15.09-.21.14a1.43,1.43,0,0,0-.14.2c-.06.06,0,.23-.06.29s-.25,0-.3,0-.1.13-.15.19,0,.22,0,.28-.06.16-.1.22-.21,0-.25.11,0,.18-.07.25-.21.07-.25.13-.11.14-.14.21.15.24.12.31-.2.1-.23.17c-1.13.46-3,1.76-5.23,5.39C7.54,142.48,5.94,151.13,6.84,158.26Zm64.79-25.5.36-.11c0,.06-.08.14-.13.15A1,1,0,0,1,71.63,132.76Zm6.06,36.82.1,0A.1.1,0,0,1,77.69,169.58ZM40.36,136.91c.07,0,.1.05.14.11a.12.12,0,0,0-.1,0S40.37,137,40.36,136.91Z"/><path class="cls-6" d="M60.79,180.9c0,.16,0,.17,0,.33a3.2,3.2,0,0,0,.07.33c0,.17.06.16.1.32s0,.18,0,.34a2.8,2.8,0,0,0,.15.3c.06.15.05.16.12.31a2.75,2.75,0,0,0,.19.28l.2.27a1.85,1.85,0,0,0,.19.27,2.73,2.73,0,0,0,.25.23l.24.23a1.31,1.31,0,0,0,.25.22l.29.17c.14.09.12.12.27.2a1.64,1.64,0,0,0,.3.14c.16.06.17,0,.33.08s.13.12.29.17a2.09,2.09,0,0,0,.34,0l.33.05a1.32,1.32,0,0,0,.33,0l.34,0c.17,0,.16,0,.33,0a3.31,3.31,0,0,0,.33,0,3.26,3.26,0,0,0,.33,0,2.42,2.42,0,0,0,.32-.1,1.24,1.24,0,0,0,.32-.12c.15-.07.13-.1.28-.18a2.8,2.8,0,0,0,.3-.15,1.34,1.34,0,0,0,.28-.18c.13-.11.11-.13.24-.23a2.78,2.78,0,0,0,.27-.21,1.83,1.83,0,0,0,.21-.26c.11-.13.14-.1.24-.24s.06-.15.15-.29.11-.13.2-.28a1.43,1.43,0,0,0,.12-.31c.06-.15.07-.15.13-.3a2,2,0,0,0,.13-.31c0-.17,0-.18,0-.34s.08-.16.11-.32a1.29,1.29,0,0,0,0-.34c0-.17,0-.17,0-.33s0-.17,0-.34,0-.16-.07-.32,0-.17,0-.34a5,5,0,0,0-.22-.63,2.69,2.69,0,0,0-.16-.29c-.08-.15-.11-.14-.19-.28s0-.18-.13-.31-.15-.1-.26-.22-.08-.16-.19-.28a1.37,1.37,0,0,0-.25-.23l-.27-.19c-.14-.1-.11-.13-.25-.22s-.17-.05-.32-.12a2.82,2.82,0,0,0-.29-.18,1.66,1.66,0,0,0-.31-.12c-.16-.05-.17,0-.33-.07s-.15-.07-.31-.11a2,2,0,0,0-.33-.05,1.93,1.93,0,0,0-.34,0H65.1c-.17,0-.17,0-.34,0l-.33.05c-.16,0-.16.07-.32.11a1.6,1.6,0,0,0-.31.1,3,3,0,0,0-.32.09l-.3.15-.29.17-.28.18a1.71,1.71,0,0,0-.27.2,2.78,2.78,0,0,0-.27.21c-.11.12-.09.14-.2.27s-.11.12-.21.26a2.61,2.61,0,0,0-.19.27,2.75,2.75,0,0,0-.19.28,2,2,0,0,0-.12.31c-.06.16,0,.16-.1.32s-.08.15-.13.31a3.18,3.18,0,0,0-.09.33c0,.16,0,.16,0,.33s0,.16-.06.33A2,2,0,0,0,60.79,180.9Z"/><path class="cls-1" d="M20.79,183.91A27.92,27.92,0,0,0,27,190.64a39.06,39.06,0,0,0,7.72,5,32.14,32.14,0,0,0,8.8,2.79,28.65,28.65,0,0,0,9.24,0,32.84,32.84,0,0,0,8.79-2.82,27.21,27.21,0,0,0,7.64-5.24,20,20,0,0,0,2.91-3.68A17.23,17.23,0,0,0,74,182.29a17.49,17.49,0,0,0,.63-4.65,16.49,16.49,0,0,0-.17-2.33,12.85,12.85,0,0,0-.51-2.3.49.49,0,0,0-.62-.3.5.5,0,0,0-.33.56v0a14.59,14.59,0,0,1,.26,2.13,19.64,19.64,0,0,1,0,2.17,17.92,17.92,0,0,1-.78,4.24A17.57,17.57,0,0,1,68,189.08,25.37,25.37,0,0,1,60.78,194a31.58,31.58,0,0,1-8.32,2.67,28.27,28.27,0,0,1-8.71.09,30,30,0,0,1-8.35-2.57,37.13,37.13,0,0,1-7.46-4.69,41.73,41.73,0,0,1-3.29-2.95c-1.06-1-2.08-2.09-3.08-3.18h0a.49.49,0,0,0-.7,0A.49.49,0,0,0,20.79,183.91Z"/><path class="cls-1" d="M34.59,134.67a1.79,1.79,0,0,0,.13,1.58,6.14,6.14,0,0,0,.32.69c.12.22.24.45.37.66.54.87,1.15,1.67,1.75,2.47.31.39.59.81.91,1.19s.6.81.94,1.17.65.77,1,1.13l1.09,1c.37.34.79.62,1.19.93l.6.44.64.4,1.27.8,1.31.73.64.38c.21.14.44.25.65.39.43.26.86.54,1.3.78a3.6,3.6,0,0,0,.7.3,5.94,5.94,0,0,0,.72.21,3.71,3.71,0,0,0,1.56.05.21.21,0,0,0,.16-.24.16.16,0,0,0-.05-.09h0a5.21,5.21,0,0,0-2.6-1.4c-.46-.15-.94-.27-1.41-.4l-.71-.22-.65-.32-1.3-.69-1.2-.83c-.2-.14-.41-.27-.6-.42l-.56-.46-.57-.46c-.19-.16-.39-.3-.56-.47a20.55,20.55,0,0,1-3.95-4.27,15.45,15.45,0,0,1-1.31-2.6c-.17-.45-.37-.89-.55-1.33a5.44,5.44,0,0,0-.3-.65,1.74,1.74,0,0,0-.58-.56h0a.22.22,0,0,0-.31.08Z"/><path class="cls-1" d="M38.27,133a2.41,2.41,0,0,0,.45,1.73,16.35,16.35,0,0,0,.91,1.48c.64,1,1.36,1.87,2,2.82,1.33,1.88,2.53,3.86,4,5.65a66.72,66.72,0,0,0,4.81,5c.89.73,1.6,1.69,2.51,2.44a5.68,5.68,0,0,0,3.18,1.51.19.19,0,0,0,.21-.17.24.24,0,0,0,0-.12v0a8.14,8.14,0,0,0-2.59-2.23,18.69,18.69,0,0,1-2.84-1.89,43.91,43.91,0,0,1-4.62-5,53.16,53.16,0,0,1-4.1-5.48c-.61-1-1.1-2-1.61-3l-.39-.76c-.13-.26-.27-.51-.41-.75a2.54,2.54,0,0,0-1.16-1.32h0a.22.22,0,0,0-.29.1A.14.14,0,0,0,38.27,133Z"/><path class="cls-1" d="M19.71,170.74a5.77,5.77,0,0,0-1.11-2.21,5,5,0,0,0-2-1.66l-.31-.13a3.37,3.37,0,0,0-.34-.09,3.08,3.08,0,0,0-.68-.07,3.64,3.64,0,0,0-1.32.25,5.3,5.3,0,0,0-2.11,1.47,5,5,0,0,0-1.17,2.32,5.19,5.19,0,0,0,.15,2.57,8.26,8.26,0,0,0,2.9,4,.27.27,0,0,0,.37-.05.27.27,0,0,0,0-.33h0a11.73,11.73,0,0,1-2.39-3.84,4.4,4.4,0,0,1-.11-2.13,4.17,4.17,0,0,1,1-1.88c.93-1,2.47-1.85,3.72-1.27A4.38,4.38,0,0,1,18,169c.47.59.83,1.28,1.27,1.91h0a.26.26,0,0,0,.36.07A.26.26,0,0,0,19.71,170.74Z"/><path class="cls-1" d="M50.55,175c-.15,0-.15,0-.18.06l-.09.11a1.76,1.76,0,0,0-.14.23,1.92,1.92,0,0,0-.12.25.3.3,0,0,0,0,.32.48.48,0,0,0,.42.21.29.29,0,0,0,.28-.16c.05-.08.09-.16.13-.24s.06-.17.1-.26l0-.13c0-.05,0-.08-.05-.18A.73.73,0,0,0,50.55,175Z"/><path class="cls-1" d="M57.42,169.75a1.9,1.9,0,0,1,0,.25l0,.25,0,.25a2.29,2.29,0,0,0,0,.25,1,1,0,0,0,.05.24c0,.13,0,.13,0,.25a2.13,2.13,0,0,1,0,.25,1.69,1.69,0,0,0,.08.24,1,1,0,0,0,.06.25c0,.12.06.11.11.23s0,.12.09.23.06.11.11.23a2.26,2.26,0,0,0,.11.22l.13.22a1,1,0,0,0,.14.21c.07.1.09.09.18.17s.08.1.17.19a1,1,0,0,0,.21.15,1,1,0,0,0,.24.07l.24,0a.76.76,0,0,0,.26,0,.55.55,0,0,0,.24-.07,1,1,0,0,0,.22-.13c.1-.08.08-.1.17-.19a1.54,1.54,0,0,0,.17-.19c.08-.1.11-.08.17-.2s0-.14.06-.25.08-.1.13-.21a1.2,1.2,0,0,0,.11-.23,2.34,2.34,0,0,0,.09-.24,2.17,2.17,0,0,0,0-.25c0-.13,0-.12.07-.25s0-.12.07-.24,0-.13,0-.25,0-.13.07-.25a1.87,1.87,0,0,0,0-.25,1.09,1.09,0,0,0,0-.25c0-.13,0-.13,0-.26s0-.12,0-.25,0-.13,0-.26a2,2,0,0,0,0-.25,6.8,6.8,0,0,0,0-.52,2.26,2.26,0,0,0,0-.26l0-.25a2.44,2.44,0,0,1-.06-.26c0-.13,0-.13,0-.26a2.38,2.38,0,0,0,0-.26c0-.12,0-.12-.06-.25s0-.12,0-.25,0-.14,0-.26-.07-.11-.11-.24a1.7,1.7,0,0,0-.09-.24,1,1,0,0,0-.14-.22c-.06-.12,0-.14-.1-.24s-.12-.07-.21-.16l-.19-.18c-.1-.08-.08-.1-.2-.16a.64.64,0,0,0-.24-.1,1.87,1.87,0,0,0-.25,0l-.25,0h-.26a.7.7,0,0,0-.25.05.84.84,0,0,0-.23.12c-.12.06-.14,0-.24.1s-.09.1-.17.2a1.06,1.06,0,0,0-.17.2c-.06.11,0,.13-.1.24s-.1.1-.15.22,0,.12-.07.25a2.34,2.34,0,0,1-.09.24,1.82,1.82,0,0,0-.07.25,2.3,2.3,0,0,0,0,.26c0,.13,0,.13-.07.25a.76.76,0,0,0-.06.25,2.28,2.28,0,0,0,0,.27c0,.13,0,.13,0,.26a2.11,2.11,0,0,1,0,.25,2.34,2.34,0,0,0,0,.26,2.26,2.26,0,0,0,0,.26c0,.13,0,.13,0,.26A1.18,1.18,0,0,0,57.42,169.75Z"/><path class="cls-1" d="M42.43,168.3a2.08,2.08,0,0,1,0,.25,1.9,1.9,0,0,1,0,.25,1.84,1.84,0,0,1,0,.25l-.06.25c0,.12,0,.12,0,.24a1,1,0,0,1-.07.24,1,1,0,0,1-.1.24c0,.11,0,.12-.07.24s-.06.11-.1.23a2.17,2.17,0,0,1-.07.24,2.4,2.4,0,0,1-.11.23c-.06.11,0,.11-.11.22l-.14.21c-.08.1-.07.11-.15.2a1.54,1.54,0,0,1-.17.19c-.09.09-.07.1-.16.19a.6.6,0,0,1-.21.14,1.13,1.13,0,0,1-.22.11.8.8,0,0,1-.23.11.69.69,0,0,1-.25,0,1,1,0,0,1-.24-.05,1,1,0,0,1-.24-.09c-.11-.06-.09-.08-.19-.16a.77.77,0,0,1-.19-.17,1,1,0,0,1-.14-.21c-.06-.11,0-.12-.09-.23s-.12-.08-.17-.2a2.27,2.27,0,0,1-.06-.25,2.1,2.1,0,0,0-.06-.24c0-.13,0-.13-.07-.25s-.05-.12-.08-.24a1.87,1.87,0,0,1,0-.25c0-.12,0-.12,0-.25a2.21,2.21,0,0,1,0-.25,1,1,0,0,1,0-.25,2,2,0,0,0,0-.25,1.13,1.13,0,0,0,0-.26c0-.13,0-.12,0-.25a2.3,2.3,0,0,1,0-.26c0-.12,0-.12,0-.25s0-.13,0-.25a2.28,2.28,0,0,1,0-.26c0-.13,0-.13,0-.26s0-.13,0-.25a2.3,2.3,0,0,1,0-.26c0-.13,0-.14,0-.26s.05-.12.08-.25a2.38,2.38,0,0,0,0-.26,2.21,2.21,0,0,1,0-.25,2.41,2.41,0,0,1,.08-.25c0-.12.08-.1.13-.23s0-.13.06-.25a1.59,1.59,0,0,1,.13-.22c.06-.12,0-.13.11-.24s.1-.08.19-.18,0-.13.13-.23a.62.62,0,0,1,.21-.15,1,1,0,0,1,.24-.1,1.17,1.17,0,0,1,.24-.09,1.36,1.36,0,0,1,.25-.07h.26a1,1,0,0,1,.26,0,1,1,0,0,1,.25.07.93.93,0,0,1,.25.1c.1.08.07.12.16.21s.11.08.19.18a1.59,1.59,0,0,1,.13.22c.07.11.1.09.15.21a2,2,0,0,1,.06.26c0,.12.07.11.11.23a.75.75,0,0,1,0,.26,2.21,2.21,0,0,1,.05.25,1.22,1.22,0,0,1,.06.26,1.13,1.13,0,0,1,0,.26,2.26,2.26,0,0,0,0,.26,2.27,2.27,0,0,1,.06.25,1.13,1.13,0,0,1,0,.26,2.26,2.26,0,0,1,0,.26c0,.13,0,.13-.05.26s0,.13,0,.26,0,.13,0,.26A1.13,1.13,0,0,0,42.43,168.3Z"/><path class="cls-1" d="M35.78,204.14c.16.13.24.1.31.07l.23-.08c.15,0,.3-.12.45-.18l.42-.21c.14-.09.28-.16.41-.26l.14-.13a.53.53,0,0,0,.18-.38c.06-1.21.11-2.42.14-3.63s.06-2.42,0-3.64a.37.37,0,0,0-.37-.36.36.36,0,0,0-.36.32c-.15,1.2-.27,2.41-.38,3.62s-.21,2.41-.3,3.62l.33-.51a3.52,3.52,0,0,0-.45.18l-.42.22c-.13.09-.27.17-.4.27l-.2.14c-.06,0-.13.08-.12.29A1,1,0,0,0,35.78,204.14Z"/><path class="cls-1" d="M25.69,206.21a7,7,0,0,0-1.9.11,12.25,12.25,0,0,0-1.81.44c-1.18.39-2.35.79-3.51,1.24s-2.3.95-3.42,1.49a29.68,29.68,0,0,0-3.29,1.85,10.21,10.21,0,0,0-1.51,1.22,6.9,6.9,0,0,0-1.15,1.59,26.81,26.81,0,0,0-1.55,3.42c-.44,1.16-.86,2.33-1.24,3.5s-.74,2.37-1.06,3.56c-1.29,4.77-2.07,9.65-3,14.49-.23,1.21-.44,2.42-.72,3.62s-.61,2.4-.88,3.61A30.05,30.05,0,0,0,.08,250a13.15,13.15,0,0,0,.12,3.75.24.24,0,0,0,.29.2.22.22,0,0,0,.17-.14,14.26,14.26,0,0,0,1.14-3.55c.23-1.21.38-2.43.49-3.65s.17-2.46.29-3.69.33-2.43.53-3.64.43-2.42.68-3.62.5-2.41.77-3.61l.82-3.58.86-3.58a65.84,65.84,0,0,1,2-7,17.79,17.79,0,0,1,1.54-3.27,5.71,5.71,0,0,1,1.08-1.33,8.69,8.69,0,0,1,1.43-1,30.49,30.49,0,0,1,3.27-1.53c1.12-.45,2.27-.86,3.42-1.27s2.3-.8,3.46-1.18a15.46,15.46,0,0,0,1.71-.66,9.35,9.35,0,0,0,1.64-.94h0a.25.25,0,0,0,.05-.35A.22.22,0,0,0,25.69,206.21Z"/><path class="cls-1" d="M63.59,205.42a15.86,15.86,0,0,0,4,2.08c1.39.57,2.76,1.15,4.11,1.77a39.72,39.72,0,0,1,4,2,17.34,17.34,0,0,1,1.79,1.25,6.25,6.25,0,0,1,1.42,1.54l0,0,0,0a10.17,10.17,0,0,1,1.34,2.12,23.82,23.82,0,0,1,1,2.38,51.77,51.77,0,0,1,1.44,5c.83,3.36,1.58,6.75,2.31,10.15.34,1.7.69,3.41,1,5.12s.57,3.43.7,5.17.19,3.49.42,5.21a22.7,22.7,0,0,0,.46,2.57,13.35,13.35,0,0,0,.87,2.51.25.25,0,0,0,.34.12.24.24,0,0,0,.13-.17,11.6,11.6,0,0,0,.22-2.67,20.59,20.59,0,0,0-.25-2.61c-.25-1.73-.69-3.43-1.1-5.13s-.67-3.42-1-5.14l-.89-5.16a97.18,97.18,0,0,0-2.28-10.22c-.49-1.68-1-3.35-1.65-5-.31-.82-.64-1.64-1-2.45a13.14,13.14,0,0,0-1.34-2.35l0,.06a8,8,0,0,0-1.52-1.87,17,17,0,0,0-1.82-1.47,34,34,0,0,0-4-2.37q-2-1.05-4.17-1.89A11.42,11.42,0,0,0,63.74,205a.25.25,0,0,0-.25.25.26.26,0,0,0,.1.2Z"/><path class="cls-1" d="M31.71,135.88a3.31,3.31,0,0,0-2,1.1c-.29.25-.54.53-.8.8a8.39,8.39,0,0,0-.74.84,41.46,41.46,0,0,0-2.6,3.63A48.84,48.84,0,0,0,21.28,150l-.8,2.07c-.24.7-.44,1.42-.66,2.12l-.33,1.06c-.11.35-.18.71-.27,1.07-.18.72-.37,1.43-.57,2.14a4.61,4.61,0,0,1-.15.53l-.12.54c-.1.36-.19.72-.29,1.07-.21.72-.43,1.43-.62,2.15a10.74,10.74,0,0,0-.12,4.45.18.18,0,0,0,.22.14.21.21,0,0,0,.13-.09h0a10.79,10.79,0,0,0,1-4.28c.09-.73.15-1.46.22-2.18a14.2,14.2,0,0,1,.33-2.17,37.5,37.5,0,0,1,1.19-4.21c.24-.69.46-1.39.72-2.07l.82-2a37.87,37.87,0,0,1,4-7.72c.22-.29.44-.58.67-.86s.22-.29.34-.43l.37-.4.73-.8c.25-.27.52-.51.77-.77.5-.52,1-1,1.56-1.49a4.62,4.62,0,0,0,1.4-1.67v0a.2.2,0,0,0-.1-.26A.18.18,0,0,0,31.71,135.88Z"/><path class="cls-1" d="M54.3,135.4a2.57,2.57,0,0,0,.89,1.58c.41.44.83.85,1.27,1.25.87.79,1.79,1.54,2.66,2.34,1.74,1.58,3.35,3.31,5.18,4.81s3.75,2.86,5.71,4.19c.48.34,1,.68,1.44,1a15.61,15.61,0,0,0,1.47,1,8.63,8.63,0,0,0,1.62.78,5.15,5.15,0,0,0,1.84.23.19.19,0,0,0,.17-.21.16.16,0,0,0,0-.11h0a5.09,5.09,0,0,0-1.44-1.07,16.85,16.85,0,0,0-1.54-.75c-.54-.2-1.07-.44-1.61-.67l-.79-.37c-.26-.13-.51-.3-.75-.45a48.74,48.74,0,0,1-5.56-4.26,68.14,68.14,0,0,1-5.26-4.64c-.41-.41-.8-.86-1.18-1.3l-1.14-1.35c-.38-.44-.76-.88-1.16-1.3a2.66,2.66,0,0,0-1.49-1h0a.23.23,0,0,0-.26.17A.2.2,0,0,0,54.3,135.4Z"/><path class="cls-1" d="M20.07,126.2c1.38-.46,2.71-1,4-1.55s2.64-1.12,4-1.62a69,69,0,0,1,8.21-2.55c1.39-.32,2.8-.59,4.22-.81s2.85-.35,4.28-.41a32.3,32.3,0,0,1,8.55.78c.7.15,1.39.36,2.08.56s1.39.38,2.06.63l2,.7,2,.79a74.17,74.17,0,0,1,7.73,3.85c2.51,1.41-2.55,3.88.16,5s-5,3.06-2,3.13l4-1.91,7.23,1.78a.31.31,0,0,0-.17.41.22.22,0,0,0,.05.08h0a31.84,31.84,0,0,1,2.12,3c.66,1,1.28,2.09,1.87,3.16s1.15,2.17,1.67,3.28,1,2.24,1.47,3.38l.5-.6-3.1-.85a.51.51,0,0,0-.64.36.5.5,0,0,0,.08.45l.06.09a2.65,2.65,0,0,1,.23.35c.08.15.15.3.22.46l.09.24.09.25a4.25,4.25,0,0,1,.14.51l.13.51.09.53c.07.36.09.72.13,1.08a28,28,0,0,1,0,4.39q-.09,1.11-.21,2.22c-.09.73-.17,1.48-.27,2.21s-.2,1.49-.32,2.23-.23,1.49-.31,2.24h0a.19.19,0,0,0,.16.2.17.17,0,0,0,.18-.12c.28-.71.52-1.43.76-2.15s.41-1.47.59-2.21.31-1.49.46-2.24c.08-.38.1-.76.16-1.14s.1-.76.13-1.14a24,24,0,0,0,0-4.64,9,9,0,0,0-.19-1.16l-.13-.58-.17-.58c0-.19-.13-.38-.2-.57l-.11-.28-.13-.28a6.07,6.07,0,0,0-.3-.55,3.51,3.51,0,0,0-.43-.56l-.49.9,3.14.67h0a.43.43,0,0,0,.51-.33.42.42,0,0,0,0-.27l-.8-1.68-.83-1.66c-.56-1.1-1.14-2.2-1.74-3.28s-1.24-2.15-1.91-3.19-3,3.26-3.81,2.28l-2.75-2.42-.43-3.42c.17-.07-3.38-.33-3.45-.51a.34.34,0,0,0-.28-.21l-.06-.33c-.71-.06,4.87-.28,4.16-.36l1.29.51c-.35-.06-.1-.63-.45-.73a16.2,16.2,0,0,1-1.9-.62l-.4-.9-1.35-.45c-2.63-1.1.46-3.28-2.09-4.67-.64-.35-1.27-.7-1.91-1s-1.29-.68-2-1c-1.3-.64-2.64-1.22-4-1.76a62.14,62.14,0,0,0-8.31-2.63,30.12,30.12,0,0,0-4.32-.69,37.65,37.65,0,0,0-4.37-.17c-1.46,0-2.92.12-4.37.27s-2.89.39-4.32.66a58.11,58.11,0,0,0-8.42,2.37,27.44,27.44,0,0,0-7.79,4,.19.19,0,0,0,0,.26.21.21,0,0,0,.2,0Z"/><path class="cls-1" d="M59.1,145.3a.83.83,0,0,0-.4.32,1.22,1.22,0,0,0-.19.42,1.19,1.19,0,0,0,0,.42v.2l.05.19.1.38c0,.12.1.23.14.34a3.33,3.33,0,0,0,.34.65c.13.21.26.4.39.6l.45.54c.28.37.61.7.9,1l.44.52.46.5c.31.34.59.7.91,1l.93,1c.31.32.65.62,1,.93s.67.6,1,.89l1.07.84,1.06.84c.36.27.71.55,1.06.84,1.42,1.11,2.37,2.89,4.43,3.11a.2.2,0,0,0,.22-.18.16.16,0,0,0,0-.1h0a4.18,4.18,0,0,0-1.91-2,18,18,0,0,1-2.33-1.37c-.36-.27-.72-.54-1.07-.82l-1-.87-1-.89-1-.91A27.42,27.42,0,0,1,61.36,150a6.6,6.6,0,0,1-.71-1.12l-.31-.58c-.08-.19-.16-.39-.25-.59s-.14-.39-.21-.58a4.33,4.33,0,0,1-.16-.56l0-.14v-.13a1.84,1.84,0,0,0-.05-.25,3.1,3.1,0,0,0-.25-.55l-.09-.16A.14.14,0,0,0,59.1,145.3Z"/><path class="cls-1" d="M76.77,170.34a1,1,0,0,0,.73.21,3.76,3.76,0,0,1,.66.1,2,2,0,0,1,1.13.78,3.25,3.25,0,0,1,.34.67l.09.36a2.32,2.32,0,0,1,.07.38,4.74,4.74,0,0,1,.06.75V174c0,.12,0,.24,0,.36a3.43,3.43,0,0,1-.47,1.38,3.75,3.75,0,0,1-1,1.07,4.26,4.26,0,0,1-1.42.52,2.75,2.75,0,0,0-1.37.73h0a.13.13,0,0,0,0,.19l0,0a1.86,1.86,0,0,0,1.65-.17c.49-.27.9-.66,1.35-1a6.42,6.42,0,0,0,.62-.55,3.83,3.83,0,0,0,.28-.29l.26-.33c.09-.11.14-.24.22-.36a2.64,2.64,0,0,0,.18-.38l.13-.4a2,2,0,0,0,.08-.41,3,3,0,0,0,0-.42l0-.42a4.41,4.41,0,0,0-.13-.81c0-.27-.16-.52-.23-.78a7.36,7.36,0,0,0-.36-.75A2.87,2.87,0,0,0,78.42,170a2.12,2.12,0,0,0-.88-.22.79.79,0,0,0-.84.34.17.17,0,0,0,0,.21Z"/><path class="cls-1" d="M16.65,129.05a4.19,4.19,0,0,0-2.34,1.37,16.18,16.18,0,0,0-1.79,2A25.18,25.18,0,0,0,11,134.65c-.44.77-.87,1.54-1.26,2.33a32,32,0,0,0-3.23,10c-.13.88-.2,1.76-.26,2.63l0,1.33c0,.44,0,.88,0,1.32s0,.87,0,1.31,0,.88.07,1.32c.06.88.13,1.75.21,2.62.19,1.74.2,3.51.44,5.27a14.65,14.65,0,0,0,.61,2.6c.08.21.15.42.24.63s.19.41.3.61a5.7,5.7,0,0,0,.78,1.13.18.18,0,0,0,.26,0,.16.16,0,0,0,.06-.15v0a23,23,0,0,0-.41-2.57c-.18-.83-.37-1.66-.58-2.49a36.5,36.5,0,0,1-1.06-5.09,39,39,0,0,1,.13-10.36,37.84,37.84,0,0,1,1-5.06,22.72,22.72,0,0,1,2-4.79,22.27,22.27,0,0,1,3-4.16c.57-.63,1.16-1.24,1.78-1.83a7.42,7.42,0,0,0,1.7-1.93v0a.18.18,0,0,0-.07-.26A.17.17,0,0,0,16.65,129.05Z"/><path class="cls-1" d="M9.77,223.51a2.32,2.32,0,0,0-.52,1.87c0,.62.06,1.24.12,1.86.13,1.23.32,2.47.39,3.71.16,2.47,0,5,0,7.44s.29,5,.26,7.43a31.33,31.33,0,0,1-.34,3.73,6,6,0,0,0,.7,3.7.27.27,0,0,0,.37.09.19.19,0,0,0,.1-.1,6,6,0,0,0,.53-3.73,35.91,35.91,0,0,1-.5-3.71c-.13-2.47,0-5-.06-7.44s-.34-5-.29-7.43c0-1.24.15-2.48.23-3.72,0-.63,0-1.25,0-1.87a2.31,2.31,0,0,0-.6-1.84.33.33,0,0,0-.46,0Z"/><path class="cls-1" d="M78.59,229.43a1.6,1.6,0,0,0-.59,1.48,14.64,14.64,0,0,0,0,1.48c.08,1,.22,2,.24,3,.06,2-.23,3.95-.25,5.93s.09,4,0,5.93a21.47,21.47,0,0,1-.48,3,3.91,3.91,0,0,0,.55,3,.28.28,0,0,0,.41.07l.06-.06a4,4,0,0,0,.68-3,21.63,21.63,0,0,1-.36-3c0-2,.19-3.95.23-5.93s-.14-4,0-5.94c.06-1,.24-2,.37-3a14.52,14.52,0,0,0,.11-1.48,1.61,1.61,0,0,0-.52-1.5A.36.36,0,0,0,78.59,229.43Z"/><path class="cls-1" d="M51.36,197.44a2.31,2.31,0,0,0-.49,1.6c0,.54,0,1.09,0,1.63,0,1.09.07,2.18,0,3.26h0a.28.28,0,0,0,.24.28c1.07.17,2.13.36,3.19.57l0-.58c-.74.22-1.49.41-2.23.64s-1.47.45-2.21.69l-2.19.74c-.74.25-1.47.5-2.21.72h.19c-.93-.35-1.86-.69-2.78-1.08s-1.81-.82-2.73-1.22-1.83-.76-2.78-1.07a11.61,11.61,0,0,0-3-.59.18.18,0,0,0-.19.16.2.2,0,0,0,.07.15,12.46,12.46,0,0,0,2.65,1.45,27.52,27.52,0,0,0,2.82,1c.95.28,1.92.53,2.87.82s1.89.64,2.82,1h0a.28.28,0,0,0,.18,0c.74-.24,1.48-.45,2.22-.67s1.48-.42,2.22-.65,1.48-.45,2.21-.7,1.46-.51,2.19-.76h0a.3.3,0,0,0,.18-.38.29.29,0,0,0-.24-.2c-1.07-.15-2.13-.33-3.2-.53l.24.29c.08-1.08.26-2.15.4-3.23.07-.54.13-1.08.16-1.62a2.32,2.32,0,0,0-.3-1.65.22.22,0,0,0-.3-.05Z"/><path class="cls-1" d="M57.36,182.15a1.35,1.35,0,0,0-.68-.19,3,3,0,0,0-.58.12c-.19,0-.38.1-.57.16s-.38.1-.57.16a19.1,19.1,0,0,1-2.33.63,23.36,23.36,0,0,1-4.8.14c-.4,0-.8,0-1.19,0l-1.2-.09c-.4,0-.79-.1-1.19-.16l-.59-.1c-.2,0-.39-.1-.58-.15a7.59,7.59,0,0,1-1.13-.4c-.36-.19-.7-.4-1.06-.57l-.55-.22a5.2,5.2,0,0,0-.55-.21,2.71,2.71,0,0,0-1.28,0h0a.2.2,0,0,0-.16.25.19.19,0,0,0,0,.07,2.84,2.84,0,0,0,.94.92,5,5,0,0,0,.57.28,5.9,5.9,0,0,0,.6.17c.41.09.83.14,1.24.21a8.28,8.28,0,0,1,1.23.18,29.75,29.75,0,0,0,4.88.71,40.19,40.19,0,0,0,4.9-.33c.41,0,.82-.06,1.23-.08s.83-.05,1.24-.11a10.06,10.06,0,0,0,1.22-.22,1.36,1.36,0,0,0,1.08-.74.27.27,0,0,0-.1-.33Z"/><path class="cls-5" d="M80,137.47s-5.05-13-15.21-19.31c-10.69-6.59-40.61,1.45-49.71,8.5-4.68,3.62-9.54,12.59-10.22,18.08-.83,6.78,2.51,18.65,2.51,18.65S59.76,129.23,80,137.47Z"/><path class="cls-8" d="M81,140.47S75.87,126,66,119.34c-10.41-7-42-2-52.09,8.57a34.85,34.85,0,0,0-8.26,16.72c-1.11,6.75,1.74,18.74,1.74,18.74S61.11,131.41,81,140.47Z"/><path class="cls-9" d="M85.29,157.47s13.13-4.31,5-15.16c-6-8.09-21.45-5.92-30.27-3.42s-35.49,15.69-39.16,17.26c0,0,40.11-12.46,50.71-8.66S85.29,157.47,85.29,157.47Z"/><path class="cls-10" d="M19.39,156.69s.67,3,11.27,2c9.47-.88,14-2.14,25.83-12a65.08,65.08,0,0,1,17.68-9.89S61.92,133,19.39,156.69Z"/><path class="cls-11" d="M15.42,132.46s.08,13.26,3.37,19.9"/></g></g></svg>