<svg xmlns="http://www.w3.org/2000/svg" viewBox="0 0 342.5 463.78"><defs><style>.cls-1{fill:#fff;}.cls-2{fill:#ce9b72;}.cls-3,.cls-8{fill:#237aad;}.cls-4{fill:#f9c9ab;}.cls-5{fill:#231815;}.cls-6,.cls-9{fill:none;stroke-linecap:round;stroke-linejoin:round;stroke-width:2px;}.cls-6{stroke:#000;}.cls-7{fill:#1c709b;}.cls-7,.cls-8,.cls-9{stroke:#231815;}.cls-7,.cls-8{stroke-miterlimit:10;stroke-width:3px;}</style></defs><g id="Capa_2" data-name="Capa 2"><g id="レイヤー_2" data-name="レイヤー 2"><path class="cls-1" d="M319.71,157.49s-14.48,13.44-18,28.65c-5.45,13.63-7,17.71-7,17.71l-10.39.07s-5.54-16.37-7.69-16.7-9.24.49-8.75,6.27,1.82,26.26-.82,33-8.1,16.51-4.88,24.77,5.23,20.57,5.23,20.57l23.05-3.63-4.56-8.3s27.07-12.29,27.07-31.35a93.13,93.13,0,0,0-6.45-12.3s8.59-20.81,9.09-22.46S328,160,319.71,157.49Z"/><path class="cls-1" d="M123.47,343.44l-27-29.68,3.93-6.89.27-14.48s-33.92-12.7-48.59-34.33C37,247,27.85,238.94,26,236.73s-6.7-18.8-.05-22.56,9.14-4.2,13.49-1.95c3.13-16.45,6.74-48.78,13.13-56.54s45.22-26.79,45.22-26.79l80.08,24.31,42.86,49.94-1.84,11.24s18.85,5.11-.08,22.39c-7.85-1-7.82,1.42-7.82,1.42s-9.8,51.82-64.62,59.16c-4.48,5.16-3.26,0-3.26,0l-1.22,5.16-2.36,13.55,9.21,3.34Z"/><path class="cls-2" d="M6.48,179.35C9.17,200.55,14,212,14,212l6.11,7.35c0,.2-.23.33-.12.57s.71.12.89.5.13.4.31.78-.44.81-.17,1.13.7-.44.85-.86l3.76-7.16a.75.75,0,0,0,.36-.16c.16-.18,0-.65.16-.81s.37-.3.55-.45.31-.39.5-.53.25-.54.46-.66.56,0,.78-.08a4.3,4.3,0,0,1,.69-.23c.24-.06.55.18.78.12s.36-.61.6-.66.62.68.85.64.41-.49.64-.53.41-.53.64-.57.56.49.79.46.49.07.71,0,.48-.13.71-.14h.7c.26,0,.47.24.69.26s.5-.14.72-.09a3.93,3.93,0,0,1,.66.23c.24.09.58-.07.76,0s.54.13.73.24.21.66.37.77c.43.28.68.7.83.37s-.31-.45-.26-.81-.15-.37-.1-.72.38-.31.43-.66-.14-.37-.09-.72.13-.34.17-.69-.19-.38-.14-.73.75-.26.8-.6-.14-.38-.09-.73.29-.31.34-.66-.68-.45-.63-.8.39-.3.44-.65,0-.36,0-.7,0-.35.09-.7.4-.3.45-.65-.14-.37-.09-.72.15-.33.2-.68-.58-.43-.54-.77.6-.28.65-.62,0-.35.06-.7-.22-.37-.18-.72-.16-.27-.13-.71c0-.2.11-.44.13-.71s.11-.45.13-.71.62-.41.64-.66-.46-.52-.44-.76.61-.41.63-.65-.25-.51-.22-.75-.36-.53-.33-.77,0-.48,0-.72.77-.38.8-.62-.33-.53-.3-.76.34-.43.37-.67-.45-.56-.42-.79.47-.41.51-.64.13-.47.18-.69.39-.39.44-.65-.56-.62-.51-.87.84-.31.9-.56-.66-.65-.61-.89.69-.35.74-.59-.52-.63-.46-.87.41-.41.47-.65-.18-.55-.12-.79.36-.42.41-.66.32-.44.37-.68.27-.44.33-.68-.49-.62-.43-.85.35-.43.4-.67.24-.45.29-.68-.13-.55-.07-.78,0-.52,0-.75.5-.4.56-.62.19-.48.24-.7.35-.46.4-.66c.11-.46-.24-.44-.14-.79s.11-.23.25-.67c.06-.2.28-.38.36-.65s-.24-.56-.16-.81.64-.29.72-.53-.34-.61-.27-.85.11-.46.19-.7.24-.43.32-.66.55-.33.62-.56,0-.52,0-.75-.24-.58-.17-.82.55-.32.63-.56.24-.42.32-.66.21-.43.29-.66-.46-.67-.38-.9.38-.38.46-.61.37-.39.45-.62-.38-.64-.3-.87.61-.31.69-.54.25-.42.33-.65.29-.41.37-.64.11-.47.19-.7,0-.5.1-.73.08-.48.17-.71.62-.27.71-.5-.39-.66-.31-.89.26-.42.34-.64.54-.31.63-.54-.38-.68-.29-.9.21-.44.3-.66.16-.47.26-.68.81-.17.91-.39.3-.39.4-.6-.54-.82-.43-1,.5-.28.61-.5.17-.44.29-.66.54-.25.65-.47-.14-.62,0-.84.06-.52.18-.73.36-.36.47-.58.2-.45.31-.66.6-.24.72-.45.23-.43.35-.65.16-.47.27-.69-.13-.62,0-.84.48-.29.6-.5.67-.19.78-.41-.49-.82-.37-1,.61-.21.73-.42.16-.47.28-.68,0-.53.15-.74.84-.1,1-.31.13-.48.24-.69-.07-.6,0-.81.63-.21.74-.42-.34-.74-.23-.94.56-.26.67-.47.43-.33.54-.53.15-.5.25-.69.36-.4.45-.58c.22-.4-.19-.52,0-.81s0-.47.27-.75.56,0,.8-.28.2-.32.44-.6.29-.24.53-.52-.09-.56.15-.84.57,0,.81-.26.53,0,.77-.31-.19-.65,0-.93.57,0,.81-.26.07-.43.31-.7.29-.24.53-.52.43-.11.67-.38.23-.29.47-.56-.35-.8-.11-1.07.73.15,1-.12.08-.42.32-.69.34-.19.58-.46,0-.5.22-.76.42-.1.66-.36,0-.49.23-.75.2-.3.44-.56.42-.09.66-.35.52,0,.76-.26-.22-.68,0-.94.18-.31.41-.56.37-.15.6-.41.22-.27.46-.53.46-.06.7-.32-.06-.57.21-.8.63.24.92,0,.4,0,.7-.23-.1-.8.19-1,.53.15.83,0,.24-.26.54-.46.4,0,.7-.22,0-.59.32-.78.31-.17.61-.36.55.2.85,0,0-.57.34-.76.36-.06.69-.17.34-.26.72-.31.45.48.83.43.38-.15.76-.2.39,0,.77-.07.29-.12.67,0,0-.06.2.37c.08.18.5.26.62.52s-.25.62-.13.86.55.26.66.5.5.27.61.5-.18.62-.07.85.29.39.41.61.16.45.28.67.5.28.62.49.15.47.27.68-.07.6,0,.81,0,.56.13.77.75.12.88.34-.08.61,0,.82.17.47.3.68.28.4.42.61.52.24.66.44.36.34.5.55.17.47.31.67.08.54.22.74.22.46.36.65.46.27.61.47.48.25.63.44.19.47.34.66.49.23.65.41-.21.82,0,1,.3.4.46.58.46.25.63.43.8-.09,1,.09,0,.69.15.86.27.43.45.6.26.41.43.57l.52.49c.18.16.78-.15,1,0s.4.26.58.41.07.65.25.81.35.32.54.48.73-.13.92,0-.14.92,0,1.07.51.13.7.28.43.23.62.38.56.05.75.2.24.46.43.61.34.35.53.49.5.14.69.28.39.27.59.42.45.18.65.33.46.17.65.32-.11,1,.08,1.12.81-.3,1-.16,0,.77.24.9.43.23.62.37.33.37.53.51.56,0,.76.16.6,0,.8.1.25.49.44.62.48.14.68.28.21.53.41.67.34.35.53.49.47.16.66.29.68-.16.88,0,0,.89.19,1,.44.2.64.33.58,0,.78.1.23.53.43.66.74-.29.94-.16.17.63.37.75.6-.08.8,0,.14.7.34.82.63-.14.83,0,.23.56.44.68.69-.24.89-.12.25.52.46.64.47.14.67.25.2.63.41.75.65-.2.86-.1.16.74.37.84.47.14.68.25.38.33.59.43.61-.17.82-.07.6-.16.81-.07.36.38.57.47.32.58.53.65.4.26.62.34.61-.28.83-.19.48.08.7.18.37.32.58.43.55,0,.75.09.5.1.7.22.14.69.34.81.24.49.44.62.84-.4,1-.27-.06.91.13,1,.7-.16.89,0,.3.39.49.54.47.15.66.3,0,.81.15,1,.92-.41,1.1-.27.33.34.53.48.09.67.29.81.66-.14.86,0,.25.46.45.59.48.11.68.23.31.4.52.51.52,0,.73.13.23.49.48.61.37.3.61.4.57-.18.8-.08.31.49.54.58.33.44.57.53.5,0,.73.09.35.4.58.48.7-.52.93-.44.2.82.43.9.56-.13.78,0,.63-.34.86-.26.42.22.65.31.37.36.6.44.48.06.71.15.24.72.47.8.4.31.63.39.62-.33.85-.25.53-.06.76,0,.26.68.49.76.55-.11.78,0,.49,0,.72.11.5,0,.73.11.2.87.43,1,.66-.42.88-.34.53,0,.76,0,.46.13.69.21.21.83.44.91.67-.46.9-.38.18.94.41,1,.5,0,.73.08.69-.49.91-.41.39.33.62.41.26.71.49.79.61-.28.83-.2.34.5.57.57.47.12.69.2.41.3.63.38.71-.58.94-.5.44.2.67.28.22.8.45.88.61-.3.84-.22.25.74.47.82.7-.53.92-.45.42.25.65.33.32.52.54.6.56-.13.78-.06.43.23.65.31.58-.19.8-.11.17,1,.39,1,.46.13.68.21.71-.57.93-.49.28.66.5.74.58-.21.81-.13.29.59.52.67.56-.17.79-.09.49,0,.71.12.25.73.47.81.52,0,.74,0,.55-.11.77,0,.46.12.68.2.29.62.51.7.62-.32.84-.24.28.64.5.72.7-.56.92-.48l.67.26c.23.08.35.45.58.53s.55-.12.77,0,.25.73.47.81.67-.42.89-.34.19.89.41,1,.49.05.71.13.61-.26.83-.18l.67.27c.23.09.35.42.57.51s.5,0,.72.12.37.38.58.46.45.19.65.28.56,0,.75.06.26.08.42.15c.22-.09.49.11.71,0s.35-.36.56-.46.39-.27.6-.37.66.33.88.24.23-.63.44-.73.38-.29.59-.39.69-.15.9-.24l-.57.81c-.14.22-.53.28-.68.5s-.1.61-.25.83c-.24,0-.53-.46-.78-.46s-.48.44-.73.45-.49.21-.74.22-.51-.16-.75-.16c.22.11.38.32.59.42s.45.16.65.26.63-.14.82,0,0,.88.23,1,.54,0,.73.13.28.41.46.54.31.35.47.49.64,0,.79.14.46.26.59.43-.1.66,0,.83.89.21.94.39c.11.44-.75.45-.74.8s.3.38.35.75.55.3.6.68-.34.43-.28.8.53.3.58.67-.6.47-.55.84,0,.37.09.74.15.36.21.73.25.34.31.71.2.35.26.72-.49.45-.44.82.29.33.35.7a1.68,1.68,0,0,0,.18.74c.24-.07.62.2.85.13s.71-.77.94-.84c-.13.19-.3.87-.43,1.07s-.95-.07-1.08.13,0,.64-.09.84c0,.37.55.3.6.66s-.36.43-.3.8.23.33.28.7-.54.45-.49.82.85.24.91.6-.43.44-.38.8-.06.38,0,.74,0,.38,0,.74.5.3.56.66-.27.41-.22.77.59.29.64.65-.48.44-.43.81.31.32.37.68.08.36.14.72-.21.4-.16.76.44.31.49.67-.09.38,0,.74,0,.37,0,.73-.1.38,0,.74.43.3.48.67.06.36.11.72-.13.39-.08.75-.34.42-.28.78.59.28.64.64-.52.45-.47.81,0,.38,0,.74a1.92,1.92,0,0,0,.35.77c.18.31.36-.54.79-.67.2-.07.49,0,.75-.05s.42-.23.67-.3.44-.2.69-.27.63.49.87.43.32-.65.56-.71l.72-.16c.23,0,.49,0,.73-.06s.51.08.75,0,.44-.31.67-.35.46-.31.69-.34.51-.09.74-.11.5.33.74.35.46.15.7.19.5-.09.74,0,.33.53.56.61.49,0,.71.09.42.2.64.3.36.33.57.43.6-.13.81,0,.53,0,.73.14,0,.91.22,1,.43.19.61.31.81-.3,1-.18,0,.82.15.95.84.05.89.17.28.23.56-.14c.12-.15-.37-.79-.21-1s.78,0,.91-.27.33-.35.46-.57-.13-.6,0-.82.49-.28.6-.5.13-.47.24-.69.1-.48.21-.7.14-.45.25-.68.62-.23.72-.46.21-.43.3-.66-.43-.71-.33-.93.12-.47.21-.69.82-.19.92-.42-.4-.67-.31-.89.42-.35.5-.58.31-.4.39-.62.35-.39.43-.62-.07-.53,0-.76.42-.36.5-.59-.54-.69-.47-.92.15-.45.22-.68.8-.25.87-.48.07-.49.14-.72-.17-.55-.1-.78,0-.5.05-.74.65-.31.72-.55-.5-.63-.44-.86.21-.44.27-.68-.05-.5,0-.74.87-.28.92-.52-.22-.54-.16-.78-.23-.54-.18-.78.41-.4.46-.64.15-.46.2-.7.39-.41.44-.65-.19-.53-.14-.76.45-.41.49-.65-.56-.59-.52-.83.56-.39.6-.63-.22-.53-.18-.77.21-.45.24-.69.08-.48.11-.72-.14-.5-.11-.74,0-.48.07-.73.26-.45.29-.69,0-.48.05-.72.1-.48.12-.72.18-.46.2-.7-.33-.51-.31-.75-.14-.49-.12-.73.33-.45.35-.69-.19-.5-.17-.73.29-.46.3-.7-.14-.49-.13-.73.66-.44.68-.67-.3-.5-.29-.74,0-.48,0-.71-.21-.49-.2-.73.27-.46.28-.7.1-.47.11-.71-.16-.48-.15-.72.08-.47.09-.71l0-.71c0-.24-.49-.5-.49-.73s.13-.47.13-.71.3-.47.3-.7.4-.47.4-.7-.65-.49-.64-.73.62-.47.62-.71-.68-.48-.67-.72.41-.47.41-.71,0-.47,0-.71.25-.48.25-.71-.37-.48-.37-.71.52-.48.52-.72-.6-.47-.6-.7-.05-.48-.05-.71.39-.48.39-.72-.65-.46-.66-.69.37-.49.37-.72-.24-.48-.24-.71.48-.49.47-.73.21-.49.21-.72-.07-.48-.08-.71-.57-.46-.57-.69-.08-.48-.09-.71.46-.51.45-.74-.3-.47-.31-.7-.12-.47-.13-.7.27-.5.25-.73.2-.5.18-.72-.25-.48-.27-.69.05-.52,0-.72a1.51,1.51,0,0,0-.16-.76c-.14-.34-.45-.19-.63-.52s.19-.52,0-.85-.54-.12-.72-.44.32-.59.14-.91-.65-.06-.83-.39.29-.57.11-.89-.45-.17-.62-.49-.27-.28-.44-.6-.4-.2-.57-.52,0-.45-.12-.77-.4-.24-.23-.56.24.07.61,0,.37.07.73,0,.33-.36.7-.39.37.16.73.13.38.3.74.28.3-.82.66-.85.37.06.73,0,.37.16.73.14.38.23.74.21.36,0,.72,0,.34-.3.7-.33.51.43.83.28-.46-.34-.69-.73c-.1-.17.18-.62,0-.85s-.42-.29-.55-.51,0-.53-.15-.75-.44-.28-.57-.49-.49-.25-.62-.46.05-.58-.07-.79,0-.57-.11-.77-.88,0-1-.23.29-.73.17-.94-.71-.13-.83-.34.23-.69.1-.89-.65-.17-.78-.37-.08-.51-.21-.72-.15-.46-.28-.67-.38-.33-.51-.53-.54-.24-.66-.44.07-.61,0-.82-.23-.42-.36-.62-.29-.39-.41-.6-.33-.36-.45-.57-.43-.3-.55-.51.34-.76.21-1-.17-.45-.3-.66-.38-.32-.51-.53-.61-.19-.74-.4.27-.72.15-.92-.81-.07-.94-.28-.42-.3-.55-.51.17-.66.05-.86,0-.55-.14-.75-.21-.44-.33-.64-.34-.35-.47-.55-.57-.21-.69-.42-.1-.49-.22-.69-.45-.28-.58-.49-.38-.32-.5-.53-.33-.35-.45-.56.17-.66,0-.86-.15-.47-.28-.67-.09-.51-.21-.71-.32-.37-.44-.57-.62-.18-.74-.38-.21-.43-.33-.63-.36-.34-.48-.53.2-.69.07-.89-.32-.36-.44-.55-.7-.14-.82-.34,0-.56-.13-.76,0-.58-.1-.78-.82,0-.94-.24.27-.76.15-.95-.85,0-1-.22.36-.85.24-1-.37-.49-.45-.59-.61-.22-.77-.41-.17-.58-.32-.76-.84-.08-1-.25c-.35-.44-.76-.92-.47-1.19s.56,0,.9-.11.37-.06.71-.21.49.22.82.07.1-.68.44-.83.39,0,.72-.15.46.15.79,0,.19-.49.52-.63.57.4.91.25.23-.36.57-.51.25-.33.58-.47.36-.1.69-.25.43.08.76-.07.3-.21.63-.35.15-.56.48-.71.41,0,.75-.11.45.13.78,0,.19-.47.52-.61.34-.13.66-.28.39,0,.72-.15.44.1.77,0,.21-.41.54-.56.39,0,.72-.16.09-.7.42-.85.5.24.83.09.44.1.77-.05.12-.61.45-.75.47.16.8,0a3.83,3.83,0,0,0,.69-.28c.3-.19-.32,0-.77,0-.13,0-.3-.13-.47-.24l2.54-.84s-20.6.33-34.56-6.83c-13.41-6.87-37.82-23.25-63.95-25.88-.06-.14-.13-.27-.23-.29s-.25.09-.39.22l-.72,0c-.08-.24-.15-.51-.29-.55s-.59.41-.82.35-.51.11-.74.06-.38-.53-.61-.58-.47-.15-.7-.19-.52.2-.75.16-.45-.27-.68-.3-.53.37-.77.34-.39-.75-.63-.78-.48-.11-.72-.13-.51.25-.74.24-.49.13-.73.12-.48.18-.71.19-.5-.21-.74-.21-.5-.21-.74-.2-.48.18-.72.19-.47.52-.71.52-.5-.52-.74-.51-.46.47-.7.47-.51-.64-.75-.64-.48,0-.72.06-.46.62-.7.63-.5-.54-.74-.53-.49-.1-.73-.09-.47.26-.7.27-.47.35-.7.36-.51-.54-.75-.52-.45.65-.69.66-.5-.29-.73-.28-.45.49-.69.51-.53-.65-.77-.63-.43.66-.67.68-.49-.09-.72-.07-.49-.06-.73,0-.52-.52-.76-.5-.4.91-.64.93-.48,0-.72,0-.5-.27-.74-.25-.51-.28-.75-.25-.44.38-.67.4-.53-.42-.77-.4-.46.2-.69.22-.47.09-.71.11-.46.23-.69.26-.5-.09-.74-.06-.41.57-.65.6-.45.18-.69.21-.58-.75-.82-.72-.4.62-.63.65-.53-.34-.77-.31l-.71.12c-.24,0-.47.1-.71.13s-.51-.18-.74-.14-.42.45-.65.49-.5-.09-.74-.05-.48,0-.72.06-.41.44-.64.48-.49,0-.72,0-.55-.34-.78-.3-.42.36-.66.41-.36.66-.59.7-.57-.42-.8-.37-.47.12-.7.16-.38.53-.61.58-.55-.3-.78-.25-.51-.08-.74,0-.42.34-.65.39-.45.19-.68.24-.58-.42-.81-.36-.33.7-.56.75-.59-.42-.83-.37-.37.49-.6.55-.55-.25-.78-.19-.31.74-.54.8-.51-.09-.74,0-.37.47-.6.53-.61-.42-.83-.36-.45.18-.68.24-.55-.2-.78-.13-.38.42-.6.49-.31.63-.54.7S81,71,80.74,71s-.35.5-.58.57-.4.3-.63.37-.39.33-.61.41-.64-.43-.87-.35-.28.67-.5.75-.44.17-.67.25-.64-.39-.86-.31-.56-.13-.78,0-.21.82-.44.9-.43.2-.65.29-.59-.22-.81-.14-.37.39-.59.47-.42.23-.65.31-.64-.34-.86-.25-.2.81-.42.89-.59-.18-.81-.09-.6-.2-.82-.11-.33.46-.55.55-.4.29-.62.38-.39.31-.61.4-.5,0-.72.14-.49.08-.71.17-.36.36-.58.46-.59-.15-.81-.06-.39.3-.61.39-.19.75-.41.85-.38.31-.6.41-.68-.35-.9-.25-.26.58-.48.68-.4.27-.62.37-.75-.48-1-.37-.23.62-.45.72-.35.38-.56.48-.39.3-.6.41-.66-.25-.87-.14-.49.1-.7.21-.31.46-.52.57-.25.57-.47.67-.78-.48-1-.37-.31.45-.52.56-.21.66-.43.77-.49.09-.7.2-.38.3-.59.42-.6-.1-.81,0-.26.53-.46.65-.5.09-.71.2-.67-.21-.88-.09-.09.79-.3.91-.58,0-.79.08-.36.33-.56.46-.26.48-.46.61-.37.31-.56.43-.73-.23-.92-.1-.36.33-.56.46-.11.68-.3.81-.33.36-.52.49-.76-.23-1-.09-.4.27-.59.42-.37.31-.55.45,0,.8-.16,1-.73-.13-.91,0-.51.16-.68.31-.43.26-.61.41-.26.44-.43.6,0,.69-.16.86-.74,0-.9.12-.31.39-.46.57,0,.65-.13.83-.18.46-.32.65-.61.15-.74.34-.07.53-.19.73-.63.2-.74.4-.33.4-.43.6.43.73.35.94-.59.3-.67.51c-3.37,1.36-8.84,5.23-15.54,16C8.55,132.46,3.79,158.15,6.48,179.35ZM234.28,100l1.06-.35c-.12.2-.24.44-.39.46S234.51,100,234.28,100ZM217,213a1.74,1.74,0,0,1,.32-.1A.36.36,0,0,1,217,213ZM106.08,115.89c.18-.06.29.16.41.34a.35.35,0,0,0-.3,0C106.19,116.1,106.08,116,106.08,115.89Z"/><path class="cls-3" d="M298.86,265.46s-32.78,3.76-32.84,6.73-4.11,12.34-4.5,19.11,0,17.35,0,17.35-14.59-1.53-20.33.32-19,8.43-23,8.58-42.37-2.17-44.38-2.18-27.36,1.88-27.36,1.88L142,319.57l-19.12,8.05L89.21,315.15s-17.5,3.33-24.92,5S25.75,341.45,19,349,4,378.66,5.31,435c.41,11,1.88,27.24,1.88,27.24l31.08,1.09,179.48-.91L217,359.53s45-.49,57.3.3,29.14-11.81,30.53-15.71,3.75-32.74,3-39.59S301.76,265.1,298.86,265.46Z"/><path class="cls-4" d="M66.42,244.69c0,.5,0,.51,0,1a6.27,6.27,0,0,0,.25,1c.12.48.18.47.32,1a8.47,8.47,0,0,0,.19,1,7.49,7.49,0,0,0,.46.89c.21.45.16.47.4.91a5.22,5.22,0,0,0,.6.8c.29.41.29.4.6.79a6.83,6.83,0,0,0,.6.79,9.33,9.33,0,0,0,.77.64l.73.67a4.55,4.55,0,0,0,.77.62c.42.27.45.21.88.47a9.19,9.19,0,0,0,.81.58,5,5,0,0,0,.93.38c.47.15.5,0,1,.21s.41.34.9.47a6.63,6.63,0,0,0,1,.07l1,.13a4.68,4.68,0,0,0,1,.1,8.28,8.28,0,0,0,1-.09c.5,0,.49-.07,1-.15s.5-.05,1-.15.5-.06,1-.19a6.68,6.68,0,0,0,.95-.33,5.25,5.25,0,0,0,.92-.38c.44-.22.39-.32.82-.56s.45-.22.87-.48a4.26,4.26,0,0,0,.81-.58c.37-.33.32-.39.7-.71s.42-.28.77-.63a6.52,6.52,0,0,0,.58-.8c.31-.39.42-.31.69-.73s.18-.47.43-.9.32-.39.55-.83a4.51,4.51,0,0,0,.34-.93c.17-.47.19-.46.36-.93a5.53,5.53,0,0,0,.35-.93c.12-.49,0-.51.06-1s.22-.47.28-1a3.72,3.72,0,0,0,0-1c0-.5-.07-.5-.12-1s0-.49-.11-1-.13-.48-.24-1,0-.51-.12-1a5.32,5.32,0,0,0-.35-.94,6.14,6.14,0,0,0-.38-.92c-.23-.44-.26-.42-.52-.85s-.32-.38-.57-.81-.12-.52-.43-.91-.45-.27-.79-.63-.25-.45-.59-.81a3.6,3.6,0,0,0-.77-.63c-.4-.3-.42-.26-.83-.55s-.35-.38-.77-.64-.5-.11-1-.32-.4-.31-.86-.49a5.59,5.59,0,0,0-.95-.32c-.47-.13-.49-.07-1-.18s-.47-.18-1-.29a5.55,5.55,0,0,0-2-.08c-.49,0-.5,0-1,0s-.5,0-1,.06a8.08,8.08,0,0,0-1,.19,8,8,0,0,0-.93.34,7.46,7.46,0,0,0-.94.33c-.45.18-.49.11-.93.32a6.67,6.67,0,0,0-.88.46c-.43.25-.41.29-.83.55s-.42.26-.83.55a5,5,0,0,0-.77.61,5.37,5.37,0,0,0-.76.66c-.33.37-.26.43-.57.82s-.32.38-.61.79a9.07,9.07,0,0,0-.54.83,8.42,8.42,0,0,0-.52.85,5.08,5.08,0,0,0-.33,1c-.15.47-.13.47-.27.95s-.23.45-.36.93a6.45,6.45,0,0,0-.21,1c-.08.49,0,.5-.07,1s-.11.49-.14,1A4.71,4.71,0,0,0,66.42,244.69Z"/><path class="cls-4" d="M170.38,246.82c0,.5,0,.51,0,1a6.27,6.27,0,0,0,.25,1c.13.48.18.47.32,1s0,.51.19,1a9.34,9.34,0,0,0,.46.89c.22.45.17.47.4.91a5.22,5.22,0,0,0,.6.8c.29.41.3.4.6.79a5.93,5.93,0,0,0,.61.79,9.19,9.19,0,0,0,.76.64l.73.67a4.25,4.25,0,0,0,.78.62c.41.27.45.21.87.47s.37.35.82.58a5,5,0,0,0,.92.38c.47.15.51,0,1,.21s.42.34.9.47a6.73,6.73,0,0,0,1,.07l1,.13a4.75,4.75,0,0,0,1,.1,8.09,8.09,0,0,0,1-.09c.5,0,.49-.07,1-.15s.49-.05,1-.15.5-.06,1-.19a8,8,0,0,0,.94-.32,6.83,6.83,0,0,0,.92-.38c.45-.23.39-.33.83-.57s.45-.22.87-.48a4.19,4.19,0,0,0,.8-.58c.38-.33.32-.38.7-.71a9.58,9.58,0,0,0,.77-.63,6.6,6.6,0,0,0,.59-.8c.31-.39.41-.31.68-.73s.19-.47.44-.9.31-.39.55-.83a4.92,4.92,0,0,0,.34-.93c.17-.47.19-.46.35-.93a6.61,6.61,0,0,0,.36-.93c.11-.49,0-.51.05-1s.23-.48.29-1a4.77,4.77,0,0,0,0-1c0-.5-.08-.5-.13-1s0-.49-.11-1-.13-.48-.24-1,0-.51-.12-1a4.63,4.63,0,0,0-.35-.94,6.1,6.1,0,0,0-.37-.92c-.24-.44-.27-.42-.52-.85s-.32-.38-.58-.81-.12-.52-.43-.91-.44-.27-.79-.63-.24-.45-.59-.81a3.6,3.6,0,0,0-.77-.63c-.4-.3-.42-.26-.83-.54s-.34-.39-.77-.65-.5-.11-1-.32-.41-.31-.87-.49a5.49,5.49,0,0,0-.94-.32c-.48-.13-.5-.07-1-.18s-.47-.18-.95-.29a6.18,6.18,0,0,0-2-.08c-.5,0-.5,0-1,0s-.5,0-1,.06a8.47,8.47,0,0,0-1,.19c-.48.11-.46.2-.93.34a7.92,7.92,0,0,0-.93.33c-.46.18-.49.11-.94.32a7.36,7.36,0,0,0-.88.46c-.42.25-.4.29-.82.55a9.17,9.17,0,0,0-.83.55,5.12,5.12,0,0,0-.78.61,6,6,0,0,0-.76.66c-.33.38-.26.43-.57.82s-.31.39-.6.79-.29.41-.55.83-.29.41-.52.85a4.43,4.43,0,0,0-.32,1c-.16.47-.14.47-.28.95s-.23.45-.35.93a6.33,6.33,0,0,0-.22,1c-.07.49,0,.49-.07,1s-.11.49-.14,1S170.34,246.33,170.38,246.82Z"/><path class="cls-5" d="M51.91,259.91C57,267.55,63.82,273.72,71,279.25a114.77,114.77,0,0,0,23.45,13.94,94.11,94.11,0,0,0,26.39,7.36,85,85,0,0,0,27.46-1.07,98.69,98.69,0,0,0,25.8-9.27,81.11,81.11,0,0,0,22.14-16.36,58.19,58.19,0,0,0,8.26-11.25,51.21,51.21,0,0,0,5.11-13A50.59,50.59,0,0,0,211,235.73a46.8,46.8,0,0,0-.73-6.9,38.33,38.33,0,0,0-1.78-6.78,1.44,1.44,0,0,0-1.87-.84,1.46,1.46,0,0,0-.9,1.69l0,.09a44.18,44.18,0,0,1,1,6.31,57.9,57.9,0,0,1,.19,6.45,53.94,53.94,0,0,1-1.87,12.66,52.41,52.41,0,0,1-12.52,22,76.18,76.18,0,0,1-20.83,15.18,93.36,93.36,0,0,1-24.44,8.81,83,83,0,0,1-25.83,1.16,89.3,89.3,0,0,1-25.08-6.75,109.9,109.9,0,0,1-22.62-13.16,130.28,130.28,0,0,1-10.09-8.41q-4.86-4.43-9.47-9.13h0a1.46,1.46,0,0,0-2.26,1.83Z"/><path class="cls-5" d="M87.8,112.27a5.34,5.34,0,0,0,.54,4.67,19.26,19.26,0,0,0,1,2c.36.66.75,1.31,1.16,1.94,1.69,2.5,3.59,4.83,5.47,7.14.95,1.14,1.82,2.34,2.82,3.44s1.84,2.34,2.9,3.38,2,2.21,3.08,3.24,2.23,2,3.36,3,2.41,1.76,3.61,2.63l1.84,1.26c.63.39,1.29.75,1.93,1.12l3.85,2.24c1.33.66,2.65,1.33,4,2,.67.33,1.31.7,2,1.08s1.32.68,2,1.06c1.31.74,2.61,1.53,4,2.21a11.78,11.78,0,0,0,2.09.82c.72.21,1.44.41,2.18.55a11.18,11.18,0,0,0,4.64,0,.59.59,0,0,0,.44-.71.69.69,0,0,0-.15-.28l0,0c-2.36-2.45-5.11-3.11-7.89-3.89-1.37-.41-2.8-.7-4.22-1.05-.72-.17-1.42-.36-2.11-.58s-1.34-.57-2-.88c-1.31-.62-2.61-1.26-3.91-1.91l-3.67-2.32c-.61-.4-1.22-.78-1.82-1.19l-1.72-1.32-1.73-1.31c-.57-.44-1.17-.84-1.7-1.33-4.46-3.63-8.89-7.48-12.19-12.27a48.63,48.63,0,0,1-4.15-7.59c-.56-1.32-1.2-2.59-1.76-3.89a14.58,14.58,0,0,0-1-1.89A5.12,5.12,0,0,0,88.81,112l-.07,0a.67.67,0,0,0-.9.27Z"/><path class="cls-5" d="M98.55,106.86c-.31,2.14.6,3.63,1.51,5.09a50.8,50.8,0,0,0,2.85,4.3c2,2.79,4.24,5.43,6.29,8.18,4.14,5.44,7.91,11.19,12.46,16.35a192.51,192.51,0,0,0,14.78,14.35c2.73,2.09,4.93,4.87,7.72,7a16.81,16.81,0,0,0,9.59,4.16.57.57,0,0,0,.61-.53.56.56,0,0,0-.1-.36l0,0c-2.19-3.13-5.1-4.54-7.93-6.36a53.8,53.8,0,0,1-8.61-5.32c-5.24-4.29-9.76-9.38-14.26-14.43s-9-10.15-12.74-15.85c-1.89-2.82-3.47-5.85-5.09-8.83-.4-.74-.82-1.48-1.24-2.21s-.83-1.47-1.28-2.19c-.83-1.47-1.64-2.93-3.59-3.78h0a.66.66,0,0,0-.86.34A1,1,0,0,0,98.55,106.86Z"/><path class="cls-5" d="M47.35,220.92a17.1,17.1,0,0,0-3.52-6.45,15.29,15.29,0,0,0-6-4.73l-.94-.35c-.33-.1-.67-.15-1-.22a8.78,8.78,0,0,0-2-.15,10.9,10.9,0,0,0-3.87.89,15.82,15.82,0,0,0-6.13,4.59,14.91,14.91,0,0,0-3.24,7,15.64,15.64,0,0,0,.73,7.63,24.27,24.27,0,0,0,9,11.44.77.77,0,0,0,1-1.14h0c-3.08-3.46-6.05-7-7.49-11.15a13,13,0,0,1-.55-6.31,12.26,12.26,0,0,1,2.65-5.7c2.66-3.22,7.14-5.73,10.91-4.15A13,13,0,0,1,42,216c1.45,1.7,2.58,3.69,4,5.52l0,.05a.79.79,0,0,0,1.1.15A.78.78,0,0,0,47.35,220.92Z"/><path class="cls-5" d="M139.37,230.39c-.44,0-.44.1-.53.21l-.24.33a7.1,7.1,0,0,0-.41.7,4.93,4.93,0,0,0-.31.75.85.85,0,0,0,.13,1,1.42,1.42,0,0,0,1.27.59.85.85,0,0,0,.81-.52,4.89,4.89,0,0,0,.37-.72,7,7,0,0,0,.26-.77l.11-.4c0-.14.13-.23-.2-.53A2.23,2.23,0,0,0,139.37,230.39Z"/><path class="cls-5" d="M297.61,44a23.89,23.89,0,0,0-4.91,4.71l-4.5,5.06c-3,3.4-6,6.77-8.93,10.2s-5.88,6.86-8.78,10.32a81.16,81.16,0,0,0-8.17,10.84,1.17,1.17,0,0,0,1.75,1.51A79.8,79.8,0,0,0,273.55,77q4.47-5.1,8.86-10.25c2.95-3.43,5.83-6.91,8.72-10.38l4.32-5.22a24,24,0,0,0,3.92-5.57,1.21,1.21,0,0,0-.64-1.59A1.23,1.23,0,0,0,297.61,44Z"/><path class="cls-5" d="M315.26,23.46c-.78-.18-.94.18-1.23.42l-.82.77c-.54.52-1.08,1.05-1.57,1.61s-1,1.13-1.42,1.73a2.82,2.82,0,0,0-.8,2.27,1.69,1.69,0,0,0,1.76,1.5,2.83,2.83,0,0,0,2.12-1.13c.52-.53,1-1.09,1.5-1.66s.92-1.18,1.35-1.8l.63-.93A1.07,1.07,0,0,0,317,25,2.51,2.51,0,0,0,315.26,23.46Z"/><path class="cls-5" d="M320,73.64a24.4,24.4,0,0,0-5.65,3.79l-5.32,4.21c-3.52,2.82-7.07,5.62-10.56,8.49s-7,5.73-10.44,8.63a81.2,81.2,0,0,0-9.93,9.27,1.17,1.17,0,0,0,.12,1.65,1.18,1.18,0,0,0,1.35.14,81.31,81.31,0,0,0,11-7.93c3.53-2.83,7-5.67,10.51-8.56s6.93-5.79,10.39-8.7l5.16-4.39a24.14,24.14,0,0,0,4.82-4.81,1.21,1.21,0,0,0-.35-1.68A1.24,1.24,0,0,0,320,73.64Z"/><path class="cls-5" d="M341,56.45c-.73-.31-.95,0-1.28.2l-.94.62c-.62.42-1.24.84-1.82,1.31s-1.16,1-1.7,1.46a2.83,2.83,0,0,0-1.18,2.1,1.68,1.68,0,0,0,1.47,1.78,2.82,2.82,0,0,0,2.28-.74q.92-.66,1.77-1.38c.57-.49,1.1-1,1.63-1.54l.79-.8c.25-.28.61-.44.45-1.22A2.49,2.49,0,0,0,341,56.45Z"/><path class="cls-5" d="M262.94,24.69a24,24,0,0,0-3.4,5.9l-2.9,6.12c-1.92,4.09-3.86,8.17-5.72,12.29s-3.72,8.23-5.54,12.36a80.19,80.19,0,0,0-4.81,12.7,1.18,1.18,0,0,0,2.11,1,81.61,81.61,0,0,0,6.38-12c1.91-4.1,3.8-8.2,5.64-12.32s3.65-8.26,5.46-12.4l2.69-6.22a24.1,24.1,0,0,0,2.2-6.45,1.21,1.21,0,0,0-2.11-.95Z"/><path class="cls-5" d="M274.12,0c-.79.05-.85.44-1.06.75l-.57,1c-.38.65-.74,1.31-1.06,2s-.61,1.36-.87,2.06a2.81,2.81,0,0,0-.13,2.4,1.68,1.68,0,0,0,2.1,1,2.82,2.82,0,0,0,1.72-1.68c.35-.66.68-1.33,1-2s.55-1.39.79-2.1l.36-1.07A1.08,1.08,0,0,0,276.23,1,2.5,2.5,0,0,0,274.12,0Z"/><path class="cls-5" d="M159.22,214.06c0,.37.1.37.14.74s0,.37.07.74l.08.74c.05.37,0,.37.08.75a5.83,5.83,0,0,0,.18.72c.1.36.08.37.16.73s0,.38.11.74a6.08,6.08,0,0,0,.24.72,4.52,4.52,0,0,0,.23.71c.15.35.19.33.35.66s.12.36.28.7.18.32.35.65a7.06,7.06,0,0,0,.35.67c.19.32.21.31.41.62a3.81,3.81,0,0,0,.43.62,3.27,3.27,0,0,0,.55.5c.29.24.25.29.54.51a2.43,2.43,0,0,0,.63.43,2.24,2.24,0,0,0,.73.18,3,3,0,0,0,.73.11,2,2,0,0,0,.74,0,1.89,1.89,0,0,0,.72-.26,2,2,0,0,0,.64-.4c.29-.24.24-.3.49-.58a6.75,6.75,0,0,0,.47-.59c.23-.29.32-.25.48-.59s0-.42.15-.76.23-.31.39-.65a5.15,5.15,0,0,0,.3-.69c.11-.36.12-.36.22-.72a6.5,6.5,0,0,0,.12-.75c.07-.37.1-.36.18-.73a6.08,6.08,0,0,0,.16-.74c.06-.37,0-.38.05-.75s.09-.37.17-.73a6.46,6.46,0,0,0,.11-.75,4.94,4.94,0,0,0,.09-.75c0-.39-.1-.38-.1-.76a6.15,6.15,0,0,1,.09-.75c0-.38-.05-.39,0-.76a4.83,4.83,0,0,0,0-.76c0-.39,0-.38,0-.77s-.08-.38-.1-.77a6.44,6.44,0,0,0,0-.76c-.06-.39,0-.39-.11-.77a5.11,5.11,0,0,1-.18-.75c0-.38,0-.39,0-.77a6.41,6.41,0,0,0-.16-.76c-.08-.37-.12-.36-.2-.74s-.1-.37-.18-.75,0-.41-.11-.77-.22-.33-.38-.68a5.73,5.73,0,0,0-.26-.73c-.19-.34-.25-.3-.45-.63s-.09-.4-.33-.71-.35-.19-.64-.45-.28-.26-.57-.5a2.23,2.23,0,0,0-.61-.46,2.45,2.45,0,0,0-.72-.28,4.78,4.78,0,0,0-.76-.09,3.87,3.87,0,0,0-.76,0,4.82,4.82,0,0,0-.76,0,2.46,2.46,0,0,0-.75.16c-.36.12-.32.19-.66.38s-.4.09-.71.33-.23.31-.48.61a3.16,3.16,0,0,0-.47.62c-.18.33-.1.37-.28.72s-.28.29-.43.65a3.21,3.21,0,0,0-.16.76c-.1.37-.14.36-.25.72a3.83,3.83,0,0,0-.18.76c-.07.38,0,.38-.08.76s-.09.38-.18.76a3.3,3.3,0,0,0-.15.76c0,.39.09.39.09.77s0,.39-.05.78,0,.38,0,.76-.1.39-.11.78,0,.38,0,.77,0,.39,0,.78A4,4,0,0,0,159.22,214.06Z"/><path class="cls-5" d="M114.56,211.33a6.17,6.17,0,0,1,0,.75c0,.37,0,.37-.08.74s0,.37-.11.74-.08.37-.16.73a6.29,6.29,0,0,0-.11.74,6,6,0,0,1-.18.73c-.1.36-.15.34-.27.7s-.08.36-.19.72-.16.34-.27.7-.06.37-.18.72a61.9,61.9,0,0,0-.63,1.36,6.18,6.18,0,0,1-.4.64,4.16,4.16,0,0,1-.41.62c-.23.29-.23.28-.48.57s-.2.32-.46.58a2.21,2.21,0,0,1-.61.44,4.13,4.13,0,0,1-.65.36,2.75,2.75,0,0,1-.66.34,1.67,1.67,0,0,1-.74.1,1.84,1.84,0,0,1-.73-.12,2.17,2.17,0,0,1-.7-.25,2.52,2.52,0,0,1-.59-.44c-.29-.24-.33-.19-.58-.48a2.92,2.92,0,0,1-.43-.61c-.19-.32-.1-.37-.3-.69s-.36-.22-.52-.57a3.58,3.58,0,0,1-.2-.73c-.12-.36-.1-.37-.22-.72s-.11-.36-.22-.72-.16-.34-.27-.7a4.62,4.62,0,0,1-.15-.74c-.08-.37,0-.37-.13-.74a6.54,6.54,0,0,1-.19-.73,6.44,6.44,0,0,1,0-.76c0-.37,0-.37,0-.75a6.26,6.26,0,0,0,0-.75c0-.38-.15-.37-.18-.75a4.74,4.74,0,0,1,.06-.75c0-.38-.06-.39,0-.76s.07-.38.08-.76,0-.38,0-.76,0-.39,0-.77a5.07,5.07,0,0,0,.1-.77c0-.38,0-.38.06-.77a5,5,0,0,1,0-.77c.07-.38.16-.36.22-.74s.06-.38.13-.76a6.32,6.32,0,0,1,.11-.76c.1-.38.09-.38.21-.75s.23-.32.35-.69,0-.4.16-.76a6.42,6.42,0,0,1,.37-.68c.16-.35.08-.38.29-.71s.3-.25.54-.55.12-.41.38-.69a1.81,1.81,0,0,1,.61-.49,4.88,4.88,0,0,1,.7-.32,4.76,4.76,0,0,1,.71-.28,3.47,3.47,0,0,1,1.51-.29,2.49,2.49,0,0,1,.77.08,3.24,3.24,0,0,1,.76.18,2.74,2.74,0,0,1,.73.3c.32.21.23.32.51.59s.32.22.57.51.19.33.42.64.29.27.46.62.06.39.2.75.22.33.36.69a2.67,2.67,0,0,1,.18.74c.08.38.09.38.18.76s.14.36.2.75a3.94,3.94,0,0,1,0,.77,4.92,4.92,0,0,0,0,.77c0,.39.16.37.2.76a6.61,6.61,0,0,1,0,.77,6.77,6.77,0,0,1,0,.78c0,.38-.09.38-.11.77s0,.38,0,.76,0,.39-.07.78A5.08,5.08,0,0,0,114.56,211.33Z"/><path class="cls-5" d="M93.78,317.46c.47.39.7.3.92.21l.67-.24c.46-.15.89-.35,1.33-.52s.85-.41,1.27-.65a12.82,12.82,0,0,0,1.2-.77l.42-.36a1.67,1.67,0,0,0,.56-1.15c.15-3.6.3-7.19.4-10.79s.16-7.19.15-10.8a1.1,1.1,0,0,0-2.19-.13c-.44,3.58-.79,7.16-1.13,10.74s-.61,7.17-.88,10.76l1-1.51a10.15,10.15,0,0,0-1.32.54c-.43.2-.84.43-1.26.67s-.8.5-1.19.78l-.58.42c-.2.13-.4.26-.35.86A2.78,2.78,0,0,0,93.78,317.46Z"/><path class="cls-5" d="M310.15,208.37c2.52-1.3,3.37-3.4,4.24-5.47s1.66-4.18,2.33-6.33c1.37-4.3,2.43-8.68,3.63-13,.59-2.17,1.17-4.34,1.72-6.52s1.08-4.39,1.43-6.65a30.89,30.89,0,0,0,.46-7,14.57,14.57,0,0,0-.69-3.65l-.39-.91a5,5,0,0,0-.51-1,3.72,3.72,0,0,0-2.36-1.59,4.09,4.09,0,0,0-2.58.52,7.86,7.86,0,0,0-1.65,1.19,18.74,18.74,0,0,0-2.4,2.7,52.63,52.63,0,0,0-3.68,5.79c-1.12,2-2.15,4-3.15,6s-2,4-3,6c-1.84,4.08-4.39,7.86-6.37,11.94s-3.42,8.45-2.53,13.38a.78.78,0,0,0,.91.62.83.83,0,0,0,.44-.24h0c3.26-3.65,4.6-7.73,5.9-11.95s2.08-8.67,4-12.67a90.36,90.36,0,0,1,6.1-11.72,49.84,49.84,0,0,1,3.73-5.31,17.23,17.23,0,0,1,2.09-2.23,6.65,6.65,0,0,1,1.06-.74,1.26,1.26,0,0,1,.61-.19s.11,0,.3.29a2.35,2.35,0,0,1,.27.51l.29.62a14.16,14.16,0,0,1,.63,2.87,30,30,0,0,1,0,6.35,58.37,58.37,0,0,1-2.9,12.8A114.74,114.74,0,0,1,312.79,195c-1,2-1.87,4-2.73,6s-1.82,4-1.18,6.72v0a.89.89,0,0,0,1.06.66Z"/><path class="cls-5" d="M289.06,266.75a2.74,2.74,0,0,0,1-1.81,2,2,0,0,0-.13-.68c-.07-.22-.15-.44-.23-.66a14.54,14.54,0,0,0-1.24-2.5c-.5-.82-1-1.61-1.55-2.46l-.22-.36-.08-.12a1.16,1.16,0,0,0-.17-.25,1.83,1.83,0,0,0-.15-.17,1.78,1.78,0,0,0-.36-.25c-.1,0-.08,0-.26-.09a1.43,1.43,0,0,0-.83.07,1.31,1.31,0,0,0-.5.36,1.43,1.43,0,0,0-.16.24,1.12,1.12,0,0,0-.14.4,1.2,1.2,0,0,0,0,.24,2.31,2.31,0,0,0,0,.28c.1.37.18.55.26.8.15.46.32.89.44,1.35v0a1.13,1.13,0,0,0,1.38.78,1.22,1.22,0,0,0,.24-.1,95.7,95.7,0,0,0,10.3-6.58,63.83,63.83,0,0,0,9.2-8.14,32.42,32.42,0,0,0,6.72-10.57,20.18,20.18,0,0,0,.5-12.78l0-.06a1.54,1.54,0,0,0-.08-.19,46.05,46.05,0,0,0-5.31-8,26.74,26.74,0,0,0-3.43-3.47,13.26,13.26,0,0,0-4.45-2.54,7.77,7.77,0,0,0-2.73-.36,6.5,6.5,0,0,0-1.39.22,8.62,8.62,0,0,0-1.25.43,15.62,15.62,0,0,0-4.38,2.5,6.51,6.51,0,0,0-1.7,2.26,6.34,6.34,0,0,0-.49,2.8,34.67,34.67,0,0,0,.81,4.75l1.8-1.39a7.69,7.69,0,0,0-2.6-.67,6.14,6.14,0,0,0-2.75.39,5.89,5.89,0,0,0-2.29,1.66,8.58,8.58,0,0,0-1.39,2.24,12.45,12.45,0,0,0-1,4.95,15.07,15.07,0,0,0,.19,2.51c.07.42.15.83.25,1.24a10.11,10.11,0,0,0,.41,1.31,2.05,2.05,0,0,0,2.66,1.17,2,2,0,0,0,1.3-2v-.16a5.34,5.34,0,0,0-.06-.56,3.17,3.17,0,0,0-.12-.49,3,3,0,0,0-.63-1.16,3,3,0,0,0-1.51-.92,3.34,3.34,0,0,0-1.44,0,5.24,5.24,0,0,0-1.6.64,10.2,10.2,0,0,0-1,.71,12.48,12.48,0,0,0-1.7,1.6,10.16,10.16,0,0,0-1.35,2,16,16,0,0,0-1.36,8.66,17.64,17.64,0,0,0,.94,4.18,12.39,12.39,0,0,0,1,2.1,7.88,7.88,0,0,0,.81,1.1l.27.29.35.31a3.69,3.69,0,0,0,.8.5,4.82,4.82,0,0,0,.81.32,3.93,3.93,0,0,0,.49.1l.26,0h.19a1.75,1.75,0,0,0,.32,0,2.36,2.36,0,0,0,.55-.19,1.81,1.81,0,0,0,.35-.22,2.13,2.13,0,0,0,.81-1.77,2.3,2.3,0,0,0-.17-.74,2.13,2.13,0,0,0-.55-.76,2.17,2.17,0,0,0-.29-.21,2.9,2.9,0,0,0-.38-.2,3.53,3.53,0,0,0-2-.2,4.66,4.66,0,0,0-2.51,1.38,7.82,7.82,0,0,0-1.93,3.88.74.74,0,0,0,.57.87.76.76,0,0,0,.65-.18l0,0a9.45,9.45,0,0,1,2.65-2,1.11,1.11,0,0,1,.88-.09c.05,0,.12.13-.13.07l-.18-.08a2.25,2.25,0,0,1-.19-.15,1.71,1.71,0,0,1-.48-.67,1.8,1.8,0,0,1-.16-.7,2,2,0,0,1,.34-1.25,2.06,2.06,0,0,1,.45-.48,1.81,1.81,0,0,1,.34-.22,2,2,0,0,1,.52-.18l.29,0h.36l.27.05c.1,0,0,0,0-.09s0,0,0,0v0l0-.07a3.67,3.67,0,0,1-.19-.48,11.75,11.75,0,0,1-.4-1.39,21.42,21.42,0,0,1-.45-3.17,14.36,14.36,0,0,1,.69-6,6,6,0,0,1,1.5-2.24c.17-.16.33-.33.46-.43s.23-.17.09-.15a1.48,1.48,0,0,1-.51,0,1.44,1.44,0,0,1-.71-.46.75.75,0,0,1-.18-.34v0s0,0,0-.1l4-1a4.75,4.75,0,0,1-.37-.75c-.12-.28-.23-.58-.33-.88a10.34,10.34,0,0,1-.42-1.83,8.16,8.16,0,0,1,.3-3.68,4,4,0,0,1,2-2.55,3.2,3.2,0,0,1,1.56-.26,5,5,0,0,1,1.65.38l.07,0a1.27,1.27,0,0,0,1.66-.66,1.4,1.4,0,0,0,.08-.75,32,32,0,0,1-.84-4.35,3.62,3.62,0,0,1,1.35-3.13,12.34,12.34,0,0,1,3.68-2,6,6,0,0,1,.94-.31,4.43,4.43,0,0,1,.89-.12A5.29,5.29,0,0,1,299,212a10.45,10.45,0,0,1,3.48,2.13,23.9,23.9,0,0,1,3,3.19,47.34,47.34,0,0,1,4.77,7.53l-.1-.26a17.67,17.67,0,0,1,.61,5.45,19.3,19.3,0,0,1-1.11,5.43,32.34,32.34,0,0,1-5.9,9.76,57.92,57.92,0,0,1-8.53,8.09,66.47,66.47,0,0,1-9.9,6.46l1.62.71a12.31,12.31,0,0,1-.26-1.32,1.56,1.56,0,0,1,0-.54s0,0,0,.1a.75.75,0,0,1,0,.2,1.28,1.28,0,0,1-.13.38,1,1,0,0,1-.17.24,1.28,1.28,0,0,1-.49.35,1.35,1.35,0,0,1-.81.06,1.05,1.05,0,0,1-.25-.09,1.27,1.27,0,0,1-.34-.23l-.13-.13c-.08-.11-.07-.1-.08-.1s0,0,0,0l.06.27c.14.85.26,1.8.38,2.71a15.26,15.26,0,0,0,.58,2.7c.06.22.14.43.22.65a1.88,1.88,0,0,0,.32.61,2.68,2.68,0,0,0,1.91.8A1.64,1.64,0,0,0,289.06,266.75Z"/><path class="cls-5" d="M284.29,203.92c1.14-2.64.66-5-.06-7.35a33.54,33.54,0,0,0-2.77-7,12.27,12.27,0,0,0-2.7-3.38,5.8,5.8,0,0,0-3.19-1.43l-.19,0H275c-.33,0-.66,0-1,0a9.34,9.34,0,0,0-4.48,1.06,6.08,6.08,0,0,0-2,1.82,7.27,7.27,0,0,0-1,2.24,13.83,13.83,0,0,0-.39,4.09,35.14,35.14,0,0,0,.34,3.68l1,6.91a43.33,43.33,0,0,1,.13,13.44,22.39,22.39,0,0,1-.81,3.15c-.36,1-.8,2.11-1.24,3.17-.88,2.13-1.83,4.25-2.77,6.42-1.8,4.34-3.71,8.84-4.12,14a20.59,20.59,0,0,0,.06,3.92,16.85,16.85,0,0,0,.34,1.95c.16.64.23,1.16.35,1.75.47,2.28.92,4.55,1.45,6.81s1.11,4.51,1.66,6.76a14.64,14.64,0,0,0,1.26,3.27,10.59,10.59,0,0,0,2.28,3,.85.85,0,0,0,1.2-.05.88.88,0,0,0,.16-.28,11,11,0,0,0,.64-3.76,15.74,15.74,0,0,0-.39-3.51c-.55-2.26-1-4.55-1.65-6.8s-1.21-4.51-1.85-6.75l-.49-1.64a10.42,10.42,0,0,1-.37-1.46,16.1,16.1,0,0,1-.27-3.05c0-4.2,1.34-8.61,2.95-12.89.79-2.16,1.67-4.31,2.54-6.49.43-1.1.86-2.19,1.24-3.35a28.9,28.9,0,0,0,.94-3.6,55.65,55.65,0,0,0,.32-14.39l-.62-6.95a31.07,31.07,0,0,1-.13-3.29,9.69,9.69,0,0,1,.41-2.81,2.14,2.14,0,0,1,1.06-1.37,5,5,0,0,1,2.28-.35c1.3.08,1.12,0,1.74.46a7.69,7.69,0,0,1,1.56,2.1,31.06,31.06,0,0,1,2.43,6c.62,2.14,1.22,4.28,3.19,6.22l0,0a.84.84,0,0,0,1.18,0A.85.85,0,0,0,284.29,203.92Z"/><path class="cls-5" d="M70,317.37c-7.61,1.12-14,5-20.55,8.26s-12.94,7.1-19.16,11.12c-3.11,2-6.19,4.12-9.13,6.48a33.17,33.17,0,0,0-4.21,4,16.48,16.48,0,0,0-1.67,2.44A27,27,0,0,0,14,352.18a67,67,0,0,0-3.61,10.64c-1,3.59-1.71,7.22-2.38,10.87-2.66,14.59-2.76,29.4-3,44.09l-.11,5.51c0,1.84-.06,3.68-.14,5.52-.15,3.68-.53,7.36-.78,11.05a81.51,81.51,0,0,0-.1,11.05,34.66,34.66,0,0,0,2.37,11,.74.74,0,0,0,1.4-.07h0a38.76,38.76,0,0,0,1.48-11,106.14,106.14,0,0,0-.62-11c-.37-3.65-.82-7.31-1-11-.07-1.83-.11-3.66-.1-5.5s0-3.66,0-5.49c.14-7.32.57-14.64,1.14-21.93.25-3.64.6-7.28.95-10.91s.75-7.26,1.2-10.87,1.07-7.2,1.88-10.73a45.72,45.72,0,0,1,3.51-10.16A17.25,17.25,0,0,1,19,349a25.4,25.4,0,0,1,4-3.36,107.56,107.56,0,0,1,9.21-5.72c6.35-3.54,12.88-6.82,19.4-10.12l9.79-4.93a46.93,46.93,0,0,0,9.21-6.2h0a.74.74,0,0,0,.06-1A.71.71,0,0,0,70,317.37Z"/><path class="cls-5" d="M253.36,307.94a5.77,5.77,0,0,0-4.93-.86c-1.48.28-3,.62-4.39,1-2.9.8-5.72,1.86-8.59,2.71a81.17,81.17,0,0,1-8.78,2.07c-3,.52-6,1-8.95,1.46l.49-.06c-6.5,0-13,.13-19.5.38s-13,.57-19.51.66c-3.25,0-6.5.11-9.74-.05s-6.49-.54-9.73-.8a67.52,67.52,0,0,0-9.75-.1,29,29,0,0,0-9.79,2.3.82.82,0,0,0-.46,1.22,1,1,0,0,0,.43.33,27.68,27.68,0,0,0,9.71,1.92,68,68,0,0,0,9.76-.49c3.26-.39,6.51-.91,9.77-1.19s6.5-.31,9.75-.42c6.5-.17,13-.11,19.5-.12s13-.1,19.5-.38h.16a1.13,1.13,0,0,0,.32-.05c2.91-.74,5.82-1.47,8.75-2.16a82.85,82.85,0,0,1,8.93-1.54c3-.36,6.1-.5,9.11-.91,1.51-.2,3-.46,4.46-.78a5,5,0,0,0,3.92-2.66A1.11,1.11,0,0,0,253.36,307.94Z"/><path class="cls-5" d="M261.63,312.19c1.57-6.32,1.85-12.6,2.12-18.88.16-3.14.41-6.27.69-9.36.15-1.54.34-3.08.58-4.57a28,28,0,0,1,.94-4.22c.07-.22.34-.76.1-.38a1.57,1.57,0,0,1,.41-.3,13.31,13.31,0,0,1,1.84-.85c1.37-.53,2.85-1,4.34-1.41,3-.83,6.05-1.54,9.12-2.22,6.15-1.33,12.38-2.53,18.61-3.52l-1.52-1a249.7,249.7,0,0,1,6.06,32.48c.64,5.48,1.14,11,1.26,16.46a106.57,106.57,0,0,1-.72,16.39c-.74,5.35-2,10.75-4.74,15.18a15.17,15.17,0,0,1-5.29,5.3,17.25,17.25,0,0,1-3.57,1.41c-1.31.4-2.6.84-3.92,1.18a106.88,106.88,0,0,1-16,3.15c-2.7.28-5.42.47-8.13.48a56.41,56.41,0,0,1-8-.49l-.09,0h-.19l-19.23.08-9.61,0c-3.21,0-6.41,0-9.62-.05a1.24,1.24,0,0,0-1.25,1.24h0c0,8.68,0,17.36-.19,26-.09,4.34-.24,8.68-.41,13l-.49,13q-.45,13-.27,26a211.48,211.48,0,0,0,1.91,26.05.71.71,0,0,0,.8.59.7.7,0,0,0,.6-.59,211.48,211.48,0,0,0,1.91-26.05c.1-8.68,0-17.36-.27-26l-.49-13c-.17-4.34-.32-8.68-.41-13-.19-8.68-.16-17.36-.19-26L217,359.53c3.21,0,6.41,0,9.62,0l9.61.1,19.23.24-.27,0a51.07,51.07,0,0,0,8.56.65c2.83,0,5.64-.18,8.45-.45a92.82,92.82,0,0,0,16.53-3.27c1.36-.35,2.69-.83,4-1.25a20.25,20.25,0,0,0,4.12-1.69,17.66,17.66,0,0,0,6.27-6.38c3-5.1,4.17-10.8,4.86-16.37a108.3,108.3,0,0,0,.5-16.78q-.35-8.37-1.34-16.66c-1.35-11.05-3.28-22-5.69-32.88a1.32,1.32,0,0,0-1.45-1H300c-6.32.81-12.61,1.65-18.91,2.73-3.15.54-6.29,1.14-9.44,1.89-1.58.38-3.15.79-4.76,1.34a17.09,17.09,0,0,0-2.51,1,5.8,5.8,0,0,0-1.5,1.11l-.22.25c-.08.11-.16.23-.23.35l-.1.18,0,.08-.08.17-.31.69a27,27,0,0,0-1.34,5c-.29,1.62-.52,3.23-.71,4.84-.4,3.21-.6,6.41-.78,9.6-.4,6.39-.4,12.78,1.16,19.14a.71.71,0,0,0,.87.53.7.7,0,0,0,.53-.52Z"/><path class="cls-5" d="M79.38,116.17c-2.61.3-4.29,1.9-5.86,3.47-.84.76-1.54,1.62-2.3,2.45a30.91,30.91,0,0,0-2.12,2.58,124.25,124.25,0,0,0-7.32,11,142.73,142.73,0,0,0-11.91,23.49l-2.16,6.23c-.64,2.11-1.15,4.24-1.74,6.36L45.11,175c-.31,1.06-.46,2.15-.71,3.22q-.7,3.21-1.45,6.41c-.12.54-.25,1.07-.39,1.6l-.32,1.61c-.24,1.07-.47,2.15-.76,3.21-.54,2.14-1.12,4.28-1.59,6.44-.67,4.34-1.1,8.76.09,13.23a.56.56,0,0,0,.68.39.56.56,0,0,0,.36-.29v0c2-4.21,2.37-8.48,2.62-12.81.19-2.15.29-4.32.42-6.5a40.09,40.09,0,0,1,.76-6.47,111.76,111.76,0,0,1,3.08-12.63c.64-2.07,1.23-4.16,1.93-6.2l2.22-6.1c3.12-8,6.35-16.17,11.24-23.34.62-.89,1.25-1.76,1.89-2.63.32-.44.63-.88,1-1.3l1-1.23,2.1-2.46c.7-.81,1.49-1.56,2.2-2.35,1.44-1.59,3-3.06,4.47-4.58A14.1,14.1,0,0,0,80,117l0,0a.59.59,0,0,0-.34-.77A.55.55,0,0,0,79.38,116.17Z"/><path class="cls-5" d="M146.42,112.39c.27,2.17,1.54,3.39,2.8,4.62s2.54,2.43,3.88,3.56c2.68,2.27,5.48,4.39,8.14,6.67,5.35,4.51,10.3,9.49,15.88,13.74s11.45,8.12,17.39,11.86c1.47,1,3,1.92,4.41,2.93a40,40,0,0,0,4.45,3,26.15,26.15,0,0,0,4.9,2.18,15.24,15.24,0,0,0,5.49.48.57.57,0,0,0,.5-.63.61.61,0,0,0-.17-.34l0,0a15.36,15.36,0,0,0-4.38-3,45.2,45.2,0,0,0-4.66-2.07c-1.63-.54-3.23-1.2-4.84-1.83-.81-.31-1.6-.67-2.4-1s-1.52-.82-2.27-1.26c-6.05-3.4-11.44-7.84-16.93-12.07s-11.12-8.38-16.11-13.23c-1.28-1.19-2.47-2.46-3.64-3.75l-3.52-3.87c-1.18-1.27-2.35-2.56-3.6-3.76s-2.39-2.5-4.52-2.85h0a.65.65,0,0,0-.75.54A.61.61,0,0,0,146.42,112.39Z"/><path class="cls-5" d="M43.8,88.63c4.06-1.51,7.94-3.26,11.82-5s7.72-3.6,11.66-5.21A199.6,199.6,0,0,1,91.4,70q6.16-1.66,12.46-2.86a125.4,125.4,0,0,1,12.67-1.64A95.22,95.22,0,0,1,142,66.89c2.09.36,4.16.93,6.24,1.43s4.16,1,6.19,1.66l6.14,1.87,6,2.16a218.53,218.53,0,0,1,23.35,10.6c7.61,3.93,15.17,8.14,23.33,11.23a69,69,0,0,0,25.6,4.7l-.42-2-19.88,8.89a.93.93,0,0,0-.46,1.23,1,1,0,0,0,.15.24h0a90.73,90.73,0,0,1,6.6,8.61c2.07,3,4,6.07,5.89,9.19s3.62,6.33,5.31,9.56,3.21,6.54,4.69,9.88l1.43-1.83-9.29-2.21a1.56,1.56,0,0,0-1.58,2.49l.19.24a9.89,9.89,0,0,1,.72,1,13,13,0,0,1,.69,1.34l.31.69.27.74a12.22,12.22,0,0,1,.49,1.48l.43,1.53.31,1.57c.24,1,.34,2.11.51,3.17a84.57,84.57,0,0,1,.45,13.05c-.1,2.2-.22,4.39-.38,6.6s-.35,4.4-.59,6.61-.43,4.43-.71,6.64-.52,4.44-.68,6.69v0a.54.54,0,0,0,.49.57.54.54,0,0,0,.54-.36c.74-2.13,1.37-4.3,2-6.47s1.07-4.4,1.55-6.61.75-4.47,1.12-6.71c.2-1.12.23-2.27.35-3.4s.22-2.27.28-3.41a70.75,70.75,0,0,0-.62-13.77,31.08,31.08,0,0,0-.69-3.43l-.44-1.7-.57-1.69a17,17,0,0,0-.65-1.67l-.36-.83-.42-.81a15.51,15.51,0,0,0-.94-1.6,10.24,10.24,0,0,0-1.33-1.62l-1.38,2.72,9.41,1.65.08,0a1.28,1.28,0,0,0,1.48-1,1.24,1.24,0,0,0-.13-.81l-2.55-4.89-2.64-4.85q-2.66-4.84-5.5-9.57c-1.91-3.15-3.89-6.25-6-9.28a102.61,102.61,0,0,0-6.79-8.79l-.31,1.48,20-8.73a1,1,0,0,0-.36-2h-.06c-2.11-.11-4.23-.16-6.34-.31l-3.15-.42a27.41,27.41,0,0,1-3.12-.51,58.72,58.72,0,0,1-6.15-1.52l-3-.91-3-1.13c-7.93-3-15.4-7.28-23.1-11.13-1.92-1-3.84-2-5.79-2.87s-3.89-1.89-5.88-2.73c-3.94-1.77-8-3.35-12-4.83a186.15,186.15,0,0,0-25-6.94,90.57,90.57,0,0,0-12.9-1.6,117.45,117.45,0,0,0-13-.06c-4.32.22-8.64.69-12.93,1.27s-8.55,1.45-12.78,2.42a169.39,169.39,0,0,0-24.76,7.91c-8,3.37-16,6.77-22.7,12.59a.55.55,0,0,0-.05.76.52.52,0,0,0,.59.14Z"/><path class="cls-5" d="M161.68,141.3a2.46,2.46,0,0,0-1.16,1,3.3,3.3,0,0,0-.5,1.26,3.69,3.69,0,0,0,0,1.24l.08.61.15.56.34,1.11a9.19,9.19,0,0,0,.46,1A11.52,11.52,0,0,0,162.1,150c.4.59.83,1.16,1.24,1.73l1.37,1.57c.88,1.07,1.88,2,2.79,3,.47.49.89,1,1.37,1.5s.95,1,1.41,1.45c.94,1,1.81,2,2.79,2.93l2.87,2.86c1,.94,2,1.79,3,2.66s2.07,1.73,3.14,2.54l3.25,2.38,3.24,2.39c1.09.78,2.17,1.57,3.24,2.38,4.32,3.14,7.32,8.34,13.47,8.77a.6.6,0,0,0,.64-.56.58.58,0,0,0-.05-.29v0c-1.32-2.85-3.54-4.29-5.86-5.61a50,50,0,0,1-7.06-3.84c-1.1-.75-2.19-1.52-3.27-2.3s-2.07-1.67-3.11-2.5l-3.08-2.54-3-2.59c-4.05-3.4-8.31-6.65-11.62-10.78a20.22,20.22,0,0,1-2.22-3.24l-1-1.68c-.27-.58-.52-1.17-.79-1.73s-.46-1.15-.7-1.7a11.68,11.68,0,0,1-.52-1.66l-.13-.4,0-.39a5.88,5.88,0,0,0-.19-.75,8.94,8.94,0,0,0-.79-1.6l-.27-.47A.44.44,0,0,0,161.68,141.3Z"/><path class="cls-5" d="M216.75,213.82a3,3,0,0,0,2.18.56,9.31,9.31,0,0,1,2,.22,5.86,5.86,0,0,1,3.44,2.2,8.68,8.68,0,0,1,1.07,1.94c.12.35.21.71.31,1.07a6,6,0,0,1,.25,1.1,13.24,13.24,0,0,1,.25,2.23l.06,1.1c0,.37-.08.73-.09,1.09a10.38,10.38,0,0,1-1.25,4.13,10.81,10.81,0,0,1-3,3.28,12.49,12.49,0,0,1-4.15,1.71,8.17,8.17,0,0,0-4,2.29l0,0a.42.42,0,0,0,0,.59.47.47,0,0,0,.12.07,5.57,5.57,0,0,0,4.88-.66c1.44-.86,2.62-2.06,3.92-3a21.58,21.58,0,0,0,1.77-1.68,10.05,10.05,0,0,0,.82-.91l.73-1a7.2,7.2,0,0,0,.6-1.09,5.87,5.87,0,0,0,.52-1.14l.35-1.2a7.43,7.43,0,0,0,.19-1.24,8.65,8.65,0,0,0,.08-1.25l-.11-1.23a12.65,12.65,0,0,0-.48-2.39,23.87,23.87,0,0,0-.77-2.3,19,19,0,0,0-1.12-2.2,8.71,8.71,0,0,0-3.75-3.52A6.64,6.64,0,0,0,219,212a2.38,2.38,0,0,0-2.45,1.12.47.47,0,0,0,.13.61Z"/><path class="cls-5" d="M33.94,97.44c-3,.52-5,2.41-6.81,4.32A48.08,48.08,0,0,0,22,107.9a74.72,74.72,0,0,0-4.17,6.75c-1.23,2.33-2.43,4.67-3.51,7.06A95.89,95.89,0,0,0,5.8,151.83c-.27,2.61-.4,5.23-.49,7.84v3.93c0,1.31.1,2.61.14,3.92s.15,2.61.24,3.91.19,2.61.34,3.91c.27,2.59.57,5.17.89,7.76.75,5.15,1,10.4,1.86,15.6a43.76,43.76,0,0,0,2.08,7.65c.25.62.5,1.23.77,1.84s.63,1.2,1,1.78A17.57,17.57,0,0,0,15,213.25a.54.54,0,0,0,.77,0,.58.58,0,0,0,.18-.46v0a75.33,75.33,0,0,0-1.48-7.58c-.63-2.45-1.28-4.91-2-7.36a106.33,106.33,0,0,1-3.66-15,116.56,116.56,0,0,1-.7-30.76,112.67,112.67,0,0,1,2.58-15.14A66.54,66.54,0,0,1,16,122.5a65.86,65.86,0,0,1,8.56-12.65c1.63-1.95,3.34-3.81,5.09-5.62a22.47,22.47,0,0,0,4.87-5.91l0-.06a.57.57,0,0,0-.26-.77A.54.54,0,0,0,33.94,97.44Z"/><path class="cls-5" d="M34.94,375c-1.7,1.88-1.59,3.72-1.54,5.56s.17,3.68.37,5.52c.38,3.67.94,7.34,1.16,11,.46,7.36-.12,14.74.11,22.11s.85,14.72.77,22.09c.11,3.68-.7,7.38-1,11.07s-.18,7.37,2.07,11a.81.81,0,0,0,1.12.26.78.78,0,0,0,.28-.29c2.09-3.73,1.94-7.41,1.59-11.09s-1.45-7.34-1.49-11c-.4-7.36,0-14.74-.2-22.1s-1-14.72-.85-22.09c.06-3.68.45-7.38.68-11.07.11-1.84.16-3.68.12-5.53s0-3.68-1.78-5.48A1,1,0,0,0,35,375Z"/><path class="cls-5" d="M140.05,297.56c-1.36,1.53-1.37,3.15-1.44,4.76s-.11,3.22-.1,4.83c.05,3.23.21,6.47.08,9.69v0a.82.82,0,0,0,.69.84c3.18.48,6.34,1.06,9.5,1.69l-.12-1.72c-2.2.64-4.43,1.21-6.62,1.89s-4.39,1.35-6.57,2.06-4.35,1.47-6.53,2.19-4.35,1.47-6.54,2.14H123c-2.77-1-5.54-2-8.26-3.19s-5.4-2.43-8.11-3.62A86.93,86.93,0,0,0,98.33,316a35.91,35.91,0,0,0-8.78-1.76.52.52,0,0,0-.55.49.52.52,0,0,0,.21.45,35.65,35.65,0,0,0,7.86,4.29,87.08,87.08,0,0,0,8.38,2.87c2.84.83,5.71,1.57,8.53,2.44s5.6,1.88,8.38,2.86h0a.83.83,0,0,0,.54,0c2.19-.7,4.39-1.34,6.59-2s4.42-1.25,6.61-1.93,4.39-1.33,6.56-2.08,4.34-1.51,6.51-2.24h0a.89.89,0,0,0,.56-1.12.86.86,0,0,0-.71-.59c-3.18-.46-6.36-1-9.51-1.59l.69.87c.24-3.21.78-6.4,1.2-9.61.2-1.6.38-3.2.47-4.81s.29-3.21-.89-4.89a.63.63,0,0,0-.88-.16Z"/><path class="cls-5" d="M104.16,248.28c-1.22,1.82-.78,3.73-.58,5.56a26.44,26.44,0,0,0,1.46,5.38,29.87,29.87,0,0,0,2.51,4.95,24.31,24.31,0,0,0,3.37,4.38,22.09,22.09,0,0,0,9.33,5.83,33,33,0,0,0,10.88,1.32,30.43,30.43,0,0,0,10.77-2,37.23,37.23,0,0,0,9.46-5.63,25.8,25.8,0,0,0,7-8.71,17.25,17.25,0,0,0,1.6-5.47,10.85,10.85,0,0,0-.73-5.64.36.36,0,0,0-.48-.18.33.33,0,0,0-.22.32h0a24.49,24.49,0,0,1-2.62,9.79,33.9,33.9,0,0,1-5.86,8.44,25.21,25.21,0,0,1-18.91,7.74,38.71,38.71,0,0,1-5.28-.37,30.42,30.42,0,0,1-5.11-1.12,21.28,21.28,0,0,1-9-5.13,18,18,0,0,1-3.11-4.19,21,21,0,0,1-1.82-4.89,39,39,0,0,1-.89-5.13c-.11-.85-.17-1.72-.25-2.58a6.71,6.71,0,0,0-.82-2.6l0,0a.41.41,0,0,0-.55-.15A.35.35,0,0,0,104.16,248.28Z"/><path class="cls-3" d="M223.65,96.94s-15-38.76-45.2-57.39C146.7,20,57.8,43.87,30.75,64.81,16.84,75.58,2.41,102.21.39,118.53c-2.47,20.16,7.46,55.41,7.46,55.41S163.47,72.47,223.65,96.94Z"/><path class="cls-6" d="M226.61,105.87s-15.26-43-44.65-62.81C151,22.18,57.14,37.24,27.19,68.55,15,81.26,5.33,102,2.65,118.22c-3.3,20,5.16,55.68,5.16,55.68S167.49,78.93,226.61,105.87Z"/><path class="cls-7" d="M239.34,156.37s39-12.81,15-45c-18-24-63.72-17.6-89.94-10.16S59,147.77,48,152.43c0,0,119.2-37,150.69-25.71S239.34,156.37,239.34,156.37Z"/><path class="cls-8" d="M43.54,154s2,9,33.48,6.07c28.14-2.59,41.46-6.35,76.74-35.68,22.88-19,52.53-29.39,52.53-29.39S169.9,83.75,43.54,154Z"/><path class="cls-9" d="M31.75,82.05s.23,39.39,10,59.12"/></g></g></svg>