<svg xmlns="http://www.w3.org/2000/svg" viewBox="0 0 323.4 519.91"><defs><style>.cls-1{fill:#caf958;}.cls-2{fill:#94d219;}.cls-3{fill:#dcf980;}.cls-4{fill:#fff;}.cls-5{fill:#222;}.cls-6{fill:none;stroke:#222;stroke-miterlimit:10;}</style></defs><g id="Capa_2" data-name="Capa 2"><g id="レイヤー_1" data-name="レイヤー 1"><path class="cls-1" d="M141.6,241.11v-9.6l4.3-5.9,9.6-12.2v-5l4.3-.7,2.6,2.6,5.3-.3,4.6-1.3,3.3-2,5.6-2,4.6-2,2-3.3h3l-.3,3-.3,4s8.3,3.3,9.2,4,2,5.3,2,5.3l.7,5,4.6,3.3,3-1.7,7.3,4.6,3,5,6.9-.3,7.6-2.3.7-2.3h5.9l5,5,5.6-1,4.7,5.3,2.6,3.3,4-.7,4.3-3,6.9-2.6,1.7-4,4.7-2.2.6-3.8,4.3-1.3,2.3-5.3-1-6.3-1.3-3.6a53.6,53.6,0,0,1,6.6,1.7c1.7.7.3-5.6.3-5.6s-1.3-4-3.6-5.6,1.7-3.3,1.7-3.3l3-5-.7-6.9-5.3-2-4.6-2,.7-5.9-3-1.3a20.69,20.69,0,0,1-3.6-1.3c-1-.7,0-4.3,0-4.3s.7-2.6,2-3.3,1.3-5.6,1.3-5.6a9.62,9.62,0,0,1-2.6-3.3,14.9,14.9,0,0,0-3.6-4l-4.6-5.6-.3-5-1.7-2.3-3.3,1s-.7-2.6-2.3-3a5.24,5.24,0,0,1-2.6-1.7l.3-3.6a22.78,22.78,0,0,0-5.8-1.3,38.23,38.23,0,0,1-5.8-.3c-2.3-.3,0-5.6,0-5.6l8.6-3.6-2.9-6.3s5.5-5.3,5.8-6.6,5.3,2.3,5.3,2.3l5,2.6,5.3-4s4.3-4.3,5.3-6.6,7.3-6.3,8.3-6.6,2.6-6.3,2.3-7.3,3.3-6.6,3.3-6.6v-2.6s-5-2.6-6.3-3-2.3-5.6-3-7.3,4.6-3.3,4.6-3.3l2.6-6.9-1.7-4.3-.3-4s4.3-4.6,4.6-6.3,5.9-4.6,5.9-4.6.7-6.9,0-7.9a44.71,44.71,0,0,1-2.3-5.6s-3-3.6-5.6-4,0-4.3,0-4.3l-4.3-1-5.3-1a16.37,16.37,0,0,0-4-5.3c-2.6-2.3-5.9,1.3-5.9,1.3l-6.3.3-2.6-4.6L261.8,0l-8.1,5.9-2.8-4.3L246.3.31a16.66,16.66,0,0,0-6.3,0c-2.3.5-2.2.2-2.1.1-.6.5-4.4,3.5-6.7,2.6a10,10,0,0,1-3.8-2.6l-7.6,6.3-4,6.3-6.3,3v5.3l-2.3,4-4,1.7-2.3,5.3-7.3.7V22.11l-4-3.6H178.4l-4.3,3.6-1.7,5.3h-4.6l2,5.9,4.3,1.7v6.3l-4,7.3-5,8.9s-1.7,6.6-2.6,7.9-2.6,8.3-2.6,8.3-2.6,7.3-4.3,9.9,3,4.3,3,4.3l2,5.6s5,4.3,5.9,6.9a10.39,10.39,0,0,0,3.6,4.3v8.9a18.66,18.66,0,0,1-3.3,2.6c-1.6.9-2.6,8.6-2.6,8.6l-8.6-1.7s-6.6,3-8.3,3.3-5.9-1.3-6.3-2.6-5-.3-6.6,0-3.6,2.3-4.6,2.2-8.9,0-8.9,0l-3,6.1-3.3-6.1-12.9.1s-8.9-.3-10.6,0-1.3,3.6-1.3,8.6-3.3,4.3-5.3,6.9-2.3,6.9-2.3,6.9l1.3,6.3,5.6,2.3s-2.3,6.9-3.3,10.4,3.3,0,3.3,0l3,4.5s1.7-3.3,1.7-4.3,3,1.7,5.6,3.6,0,3.6,0,5.3-1.7,3.3,0,6.9,3,2.6,3,2.6-1,7.3-.3,9.6,2.6,4.6,3,6.6-2.3,2-3.3,2.6-.3,5.6-2.3,11.6-2.3,6.9-2.3,6.9l-3.3,4.3.3,3.6,6.3,2.6s5.3,1.3,7.9,0l9.2-4.6,4,7.3,8.6,13.3h3.3v-4.8l4.6.7,1.1,2.4.5-4Z"/><path class="cls-2" d="M320.3,249.81l1.7-6.7h-6.6l-5.6-4H297.9l-2.3,4-5.6.7-5.3,1.3s-2.6-3-2.6-4a27.42,27.42,0,0,0-1.3-4.6s-2.6-1.3-1.3-2.6a25,25,0,0,0,3-4.6l-1.7-2.3-.3.1-4.7,2.2-1.7,4-6.9,2.6-4.3,3-4,.7-2.6-3.3-4.7-5.3-5.6,1-5-5h-5.9l-.7,2.3-7.6,2.3-6.9.3-3-5-7.3-4.6-3,1.7-4.6-3.3-.7-5s-1-4.6-2-5.3-9.2-4-9.2-4l.3-4,.3-3h-3l-2,3.3-4.6,2-5.6,2-3.3,2-4.6,1.3-5.3.3-2.6-2.6-4.3.7v5l-9.6,12.2-4.3,5.9v9.6l-2,3-.5,4h0l1.5,3.3,2,2.1,6.6,6.8v5.3l4,4.6v5.3l2.6.7H159s3-2.6,3-4-1-4.6,0-4.6,3.6.3,5.3-.7,2.3-2.3,3.6-1.7,3,5.9,3,5.9-5.9,2.6-6.3,4a28.22,28.22,0,0,0-.3,5.3h-2.5l-2.3,5.9v15.2l5,7.3v6.9l-5,11.2,9.9,8.9,7.6,2.6h2.6v-3.5l-2.6-4.3s-7.3-3.6-5.9-4.6,3-8.3,3-9.9,2.3-9.2,3-10.2,5.9-9.6,5.9-9.6l2,.3-1.3,4-2.6,7.3-.7,4.6,4.6,3.3,3.6,5.9,2,3s0-1.3,3.3-1.3h10.2l6.3-.3,2,1.7v2l2-.3v-5.6l4.3-2,6.6-.7s4.3.7,5.3,1a55.78,55.78,0,0,1,5.6,3.3l2,6.3v4.6s-1,3.3-2.6,3-10.2,2-10.2,2.3-3.3,2.6-3.3,2.6a22.17,22.17,0,0,1-6.3,4c-3,1-10.6,2-10.6,2l-.3,3h-3.6l-4.3-3-3.6,1-3.6,7.6-2.6,5.6h19.2l15.9-4s5.6-4.6,8.6-5.3,13.2-3,15.5-3.3,13.2-2.3,13.2-2.3l3.3-.3v-7.9s.3-5.6,0-6.6,1.7-7.8,1.7-7.8,2.6-7.4,3.6-8.1,7.9-2,10.6-3.3,8.3-5.9,8.3-5.9,1-5.9,2-7.3,4.6-5.6,5.6-5.9,3.6-3.6,4-5-.3-8.3,2.6-10.6,4.6-5.3,6.9-6.9,3.6-5.3,3.6-5.3l3.6-5.6,5-5Z"/><path class="cls-3" d="M171,386.11l-2.3,1.3-1.7-2v-5l-6.9-3.3-2-2.6-10.9-4.3-13.5-8.6-2-3.3L119.1,353l-4,.3-2.6-1,2-3,1.7-4.3-.7-5.3-3-.3-.3-6.6,1.7-4,3-8.6,9.6-12.2,7.6-11.2-.3-6.3,1-5.9,3-1.7.7-3,.3-2.3,4.3-.7,1.7-2.6,8.6,1V270l-4-4.6v-5.3l-6.6-6.8-2-2.1-1.5-3.3-1.1-2.4-4.6-.7v4.8h-3.3l-8.6-13.3-4-7.3-9.2,4.6c-2.6,1.3-7.9,0-7.9,0l4.6,5.3v10.7c0,4.1-1.3,13.7-4,16.4s-4,17.8-4,17.8l-12.6,12.6L77.3,299l-13.9,2.9-8.6-5.3-7.9-3.3v4.6l-3.3,9.2-11.9,7.3,5.3,7.3,5.3,9.9-4.6,7.9v9.2l2.6,7.3,6.6,4h5.3l4.6,5.3h6.6v4l-3.3,12.6H44.2l-4,5.3,4,15.9v16.5l-4,10.6-3.3,19.7s.7,9.2,0,12.6-7.9,0-7.9,0H21.8s-.7,5.9-2.6,7.9S6.6,481,6.6,481L0,490.21v14.5l13.8,15.2h8l2.6-6.6v-4.6l2.6-5.3,8.3-11.2,3.3-3.6,3.3,1.7,1-3.3,5-2.3,3.3-1.7,3.3-2,2.6-1.3v-3l-2-1.7-3.3-.3,3.3-3.6.3-2.3,4.3,3-1,3.6,3.3,1.7,2.6-2.6-.3-2-.3-4.6,2.3-3-3-2-2.3-2.3L59,456l-5-2.3,5-1.7-.7-4.3,6.9-2L63.5,449l-.7,2.3,4.3.7,3.6-1.7,1-3.6-3.6-2.3-.3-3.6,5.6-5,3-3,6.3-2,10.6-2.3,5-2.6,5,.7,2.3-3.3,2.3-1.7,2.3,1.7,2,1.3.7-4,.3-3.6,3.6-.3,3,4,5.3-2,3-2.6,1.7-2.3.7-2.6,3-.3,1,5,5.6-1.3,3.3.3,4.6-.7,3.3,3,3-1.7,5-.7-.3,3.6-2,2.3-5.3-.3-4-1.7-2.6.7,1,3,5,2.3,5.3,1,5.9-1,.7-3,4-.7.7-3.6v-3.5l-2.3-4.3,2-2v-3.3h-3l-3.3-1,2.6-2.3,3.3-2.3,4-.3,2-3,1.3-7.6Z"/><g id="レイヤー_6" data-name="レイヤー 6"><path class="cls-4" d="M153.4,216a.49.49,0,0,0-.7.1l-1.2,1.6a.49.49,0,0,0,.1.7.37.37,0,0,0,.3.1.76.76,0,0,0,.4-.2l1.2-1.6A.49.49,0,0,0,153.4,216Z"/><path class="cls-4" d="M155.5,208.81a.47.47,0,0,0-.5.5v2a.5.5,0,0,0,1,0v-2A.47.47,0,0,0,155.5,208.81Z"/><path class="cls-4" d="M155.5,212.81a.46.46,0,0,0-.5.4l-1.1,1.3a.49.49,0,0,0,.1.7.37.37,0,0,0,.3.1.76.76,0,0,0,.4-.2l1.2-1.5a.37.37,0,0,0,.1-.3v-.1A.46.46,0,0,0,155.5,212.81Z"/><path class="cls-4" d="M145.9,225.41a.49.49,0,0,0-.7.1l-1.2,1.6a.49.49,0,0,0,.1.7.37.37,0,0,0,.3.1.76.76,0,0,0,.4-.2l1.2-1.6A.49.49,0,0,0,145.9,225.41Z"/><path class="cls-4" d="M133.4,245.11a.55.55,0,0,0-.6.4l-.3,2a.55.55,0,0,0,.4.6h.1a.66.66,0,0,0,.5-.4l.3-2A.55.55,0,0,0,133.4,245.11Z"/><path class="cls-4" d="M136.9,245.11l-2-.3a.51.51,0,0,0-.2,1l2,.3h.1c.2,0,.5-.2.5-.4A.44.44,0,0,0,136.9,245.11Z"/><path class="cls-4" d="M142.1,240.41a.5.5,0,0,0-1,0v.5l-.6,1a.49.49,0,0,0,.1.7.37.37,0,0,0,.3.1.52.52,0,0,0,.4-.2l.2-.4c.5-.8.6-1,.6-1.1Z"/><path class="cls-4" d="M143.4,228.51a.49.49,0,0,0-.7.1l-1.2,1.6a.49.49,0,0,0,.1.7.37.37,0,0,0,.3.1.76.76,0,0,0,.4-.2l1.2-1.6A.49.49,0,0,0,143.4,228.51Z"/><path class="cls-4" d="M180.3,204.61l-.9.3-1,.4a.45.45,0,0,0-.3.6.55.55,0,0,0,.5.3h.2l1.1-.4a6.89,6.89,0,0,1,.8-.3.45.45,0,0,0,.3-.6A.59.59,0,0,0,180.3,204.61Z"/><path class="cls-4" d="M176.5,205.91l-1,.4c-.2.1-.5.2-.9.4a.52.52,0,0,0-.3.7.55.55,0,0,0,.5.3h.2a4.12,4.12,0,0,1,.8-.3l1-.4a.45.45,0,0,0,.3-.6A.46.46,0,0,0,176.5,205.91Z"/><path class="cls-4" d="M132.7,249a.55.55,0,0,0-.6.4l-1.3.4a.42.42,0,0,0-.3.6.66.66,0,0,0,.5.4h.1l1.6-.5a.78.78,0,0,0,.4-.4l.1-.3A.74.74,0,0,0,132.7,249Z"/><path class="cls-4" d="M172.8,207.51c-.7.3-1.3.7-1.8.9a.57.57,0,0,0-.2.7.54.54,0,0,0,.4.3c.1,0,.2,0,.2-.1.4-.2,1.1-.6,1.8-.9a.57.57,0,0,0,.2-.7A.48.48,0,0,0,172.8,207.51Z"/><path class="cls-4" d="M165.4,209.81c-.7,0-1.4.1-2,.1a.5.5,0,0,0,0,1h0a14.08,14.08,0,0,0,2-.1.5.5,0,1,0,0-1Z"/><path class="cls-4" d="M169.2,209.11l-1.6.5h-.2a.44.44,0,0,0-.4.6c0,.2.3.4.5.4h.1a.6.6,0,0,0,.4-.1l1.6-.5a.45.45,0,0,0,.3-.6A.78.78,0,0,0,169.2,209.11Z"/><path class="cls-4" d="M160.7,207.91a.49.49,0,1,0-.7.7l1.4,1.4c.1.1.2.1.4.1s.3,0,.4-.1a.48.48,0,0,0,0-.7Z"/><path class="cls-4" d="M158.4,207.91h-1.8a.5.5,0,0,0,0,1h1.8c.1,0,.2,0,.2-.1l.2-.1a.57.57,0,0,0,.2-.7C159,207.91,158.7,207.81,158.4,207.91Z"/><path class="cls-4" d="M124.8,240.71a.51.51,0,0,0-.9.5l1,1.7a.4.4,0,0,0,.4.2.37.37,0,0,0,.3-.1.57.57,0,0,0,.2-.7Z"/><path class="cls-4" d="M139.5,246.41h.1a.66.66,0,0,0,.5-.4,8.71,8.71,0,0,1,.5-1.9.47.47,0,0,0-.9-.3c-.2.6-.3,1.3-.5,2A.37.37,0,0,0,139.5,246.41Z"/><path class="cls-4" d="M141.6,238.91a.47.47,0,0,0,.5-.5v-2a.5.5,0,0,0-1,0v2A.54.54,0,0,0,141.6,238.91Z"/><path class="cls-4" d="M109.8,232.51l-.6.3a3.85,3.85,0,0,1-1.2.5.45.45,0,0,0-.3.6.55.55,0,0,0,.5.3h.2a6.87,6.87,0,0,0,1.3-.6l.6-.3a.57.57,0,0,0,.2-.7A.88.88,0,0,0,109.8,232.51Z"/><path class="cls-4" d="M106.2,233.91a6,6,0,0,1-1.9,0,.5.5,0,1,0,0,1h.9a4.87,4.87,0,0,0,1.2-.1.44.44,0,0,0,.4-.6C106.8,234.11,106.5,233.91,106.2,233.91Z"/><path class="cls-4" d="M102.4,233.71l-2-.3a.55.55,0,0,0-.6.4c-.1.3.1.5.4.6l2,.3h.1c.2,0,.5-.2.5-.4S102.7,233.81,102.4,233.71Z"/><path class="cls-4" d="M149.3,221.61a.76.76,0,0,0,.4-.2l1.2-1.6a.5.5,0,1,0-.8-.6l-1.2,1.6a.49.49,0,0,0,.1.7A.37.37,0,0,0,149.3,221.61Z"/><path class="cls-4" d="M141.6,234.91a.47.47,0,0,0,.5-.5v-2a.5.5,0,0,0-1,0v2A.54.54,0,0,0,141.6,234.91Z"/><path class="cls-4" d="M146.8,224.71a.76.76,0,0,0,.4-.2l1.2-1.6a.5.5,0,1,0-.8-.6l-1.2,1.6a.49.49,0,0,0,.1.7A.37.37,0,0,0,146.8,224.71Z"/><path class="cls-4" d="M126.9,244.21a.51.51,0,1,0-.9.5l1,1.7a.4.4,0,0,0,.4.2.37.37,0,0,0,.3-.1.57.57,0,0,0,.2-.7Z"/><path class="cls-4" d="M184,203.11l-.6.2c-.3.1-.8.3-1.3.5a.52.52,0,0,0-.3.7.55.55,0,0,0,.5.3h.2c.5-.2,1-.4,1.3-.5l.6-.2a.52.52,0,0,0,.3-.7A.59.59,0,0,0,184,203.11Z"/><path class="cls-4" d="M122.7,237.31a.51.51,0,0,0-.9.5l1.1,1.7a.4.4,0,0,0,.4.2.37.37,0,0,0,.3-.1.62.62,0,0,0,.2-.7Z"/><path class="cls-4" d="M128.9,247.61a.51.51,0,1,0-.9.5l1,1.7a.4.4,0,0,0,.4.2.37.37,0,0,0,.3-.1.57.57,0,0,0,.2-.7Z"/><path class="cls-4" d="M119.7,232.21l-1-1.8a.51.51,0,0,0-.9.5l1,1.8a.54.54,0,0,0,.4.3c.1,0,.2,0,.2-.1A.59.59,0,0,0,119.7,232.21Z"/><path class="cls-4" d="M117,229l-1.8.9a.57.57,0,0,0-.2.7.54.54,0,0,0,.4.3c.1,0,.2,0,.2-.1l1.8-.9a.57.57,0,0,0,.2-.7C117.5,228.91,117.2,228.81,117,229Z"/><path class="cls-4" d="M113.4,230.81l-1.8.9a.57.57,0,0,0-.2.7.54.54,0,0,0,.4.3c.1,0,.2,0,.2-.1l1.8-.9a.57.57,0,0,0,.2-.7C113.9,230.71,113.6,230.61,113.4,230.81Z"/><path class="cls-4" d="M120.7,233.91a.51.51,0,0,0-.9.5l.6,1.1.4.6a.4.4,0,0,0,.4.2.37.37,0,0,0,.3-.1.62.62,0,0,0,.2-.7Z"/><path class="cls-4" d="M198.1,209.31l-1.8-.8c-.3-.1-.5,0-.7.3s0,.5.3.7l1.8.8h.2a.55.55,0,0,0,.5-.3A.78.78,0,0,0,198.1,209.31Z"/><path class="cls-4" d="M242.5,227.61l-.1-.1-1.4-.7a.51.51,0,1,0-.5.9l1.3.7.2.2c.1.1.2.1.4.1s.3,0,.4-.1a.48.48,0,0,0,0-.7Z"/><path class="cls-4" d="M245.6,230.61a.31.31,0,0,0-.2-.1l-1.2-1.2a.49.49,0,0,0-.7.7l1.2,1.2a1.24,1.24,0,0,0,.3.2c.1,0,.2.1.3.1a.52.52,0,0,0,.4-.2A.49.49,0,0,0,245.6,230.61Z"/><path class="cls-4" d="M238.8,226.41h-2a.5.5,0,0,0,0,1h2a.5.5,0,0,0,0-1Z"/><path class="cls-4" d="M249.1,230.81l-2,.3a.44.44,0,0,0-.4.6c0,.2.3.4.5.4h.1l2-.3a.44.44,0,0,0,.4-.6A.82.82,0,0,0,249.1,230.81Z"/><path class="cls-4" d="M228.3,230.61a16.25,16.25,0,0,1-1.9.4.44.44,0,0,0-.4.6c0,.2.3.4.5.4h.1a9.69,9.69,0,0,0,2-.5.45.45,0,0,0,.3-.6C228.8,230.71,228.5,230.51,228.3,230.61Z"/><path class="cls-4" d="M235.2,226.81a.53.53,0,0,0-.7.2,9.25,9.25,0,0,1-1.1,1.6.49.49,0,0,0,.1.7.37.37,0,0,0,.3.1.52.52,0,0,0,.4-.2c.4-.6.9-1.3,1.1-1.7S235.5,226.91,235.2,226.81Z"/><path class="cls-4" d="M252,230.61a.76.76,0,0,0-.5-.2l-.5.1a.44.44,0,0,0-.4.6c0,.3.3.4.6.4h.3l.8.9a.52.52,0,0,0,.4.2.37.37,0,0,0,.3-.1.48.48,0,0,0,0-.7Z"/><path class="cls-4" d="M224.4,231.21l-2,.1a.5.5,0,0,0,0,1h0l2-.1a.47.47,0,0,0,.5-.5C225,231.41,224.7,231.21,224.4,231.21Z"/><path class="cls-4" d="M232.1,229.41l-1.9.6a.45.45,0,0,0-.3.6.66.66,0,0,0,.5.4h.1l1.9-.6a.45.45,0,0,0,.3-.6C232.6,229.51,232.4,229.31,232.1,229.41Z"/><path class="cls-4" d="M274.7,231.71c-.3-.1-.5,0-.7.3l-.4,1c0,.1-.2.2-.4.4a.57.57,0,0,0-.2.7.54.54,0,0,0,.4.3c.1,0,.2,0,.2-.1a1.55,1.55,0,0,0,.8-.8l.4-1C275.1,232.11,275,231.81,274.7,231.71Z"/><path class="cls-4" d="M271.5,233.81a3.89,3.89,0,0,1-1.7-.1h-.1a.42.42,0,0,0-.6.3.45.45,0,0,0,.3.6,3.4,3.4,0,0,0,1.4.2h.8c.3,0,.5-.3.4-.5A.47.47,0,0,0,271.5,233.81Z"/><path class="cls-4" d="M220.5,231.31c-.5,0-.6-.3-.6-.4s0-.1-.1-.2l-.3-.5a.51.51,0,1,0-.9.5l.3.5a1.58,1.58,0,0,0,1.5,1.1h0a.47.47,0,0,0,.5-.5C221,231.61,220.8,231.41,220.5,231.31Z"/><path class="cls-4" d="M276.4,228.51c-1,.6-1.3.9-1.4,1.1l-.2.5c-.1.3,0,.5.3.7h.2a.55.55,0,0,0,.5-.3l.2-.4a6.74,6.74,0,0,1,1-.7.57.57,0,0,0,.2-.7A.78.78,0,0,0,276.4,228.51Z"/><path class="cls-4" d="M187.2,200.61a.53.53,0,0,0-.7.2l-1,1.7a.53.53,0,0,0,.2.7c.1,0,.2.1.3.1a.52.52,0,0,0,.4-.2l1-1.7C187.6,201,187.5,200.71,187.2,200.61Z"/><path class="cls-4" d="M264.4,237.11a8.15,8.15,0,0,1-1.7,1,.57.57,0,0,0-.2.7.54.54,0,0,0,.4.3c.1,0,.2,0,.2-.1a14.6,14.6,0,0,0,1.8-1.1.49.49,0,0,0,.1-.7C265,237,264.7,236.91,264.4,237.11Z"/><path class="cls-4" d="M267.5,234.61a4.35,4.35,0,0,1-.7.6,5.72,5.72,0,0,0-.8.7.62.62,0,0,0-.1.7.52.52,0,0,0,.4.2.37.37,0,0,0,.3-.1,6.47,6.47,0,0,0,.9-.8,4.35,4.35,0,0,1,.7-.6.62.62,0,0,0,.1-.7A1.1,1.1,0,0,0,267.5,234.61Z"/><path class="cls-4" d="M256.7,236.51l-.4.2.4-.2a.53.53,0,0,0-.7-.2.48.48,0,0,0-.1.7l.1.1,1.4,1.4c.1.1.2.1.4.1a.6.6,0,0,0,.4-.1.48.48,0,0,0,0-.7Z"/><path class="cls-4" d="M261,238.61l-2,.3a.44.44,0,0,0-.4.6c0,.2.3.4.5.4h.1l2-.3a.44.44,0,0,0,.4-.6A.55.55,0,0,0,261,238.61Z"/><path class="cls-4" d="M254.3,233.21a.5.5,0,1,0-.8.6c.3.4.8,1,1.2,1.6a.76.76,0,0,0,.4.2.37.37,0,0,0,.3-.1.49.49,0,0,0,.1-.7A16.67,16.67,0,0,1,254.3,233.21Z"/><path class="cls-4" d="M280.7,226.91a.43.43,0,0,0-.7-.2c-.3.2-1,.5-1.8.9a.57.57,0,0,0-.2.7.54.54,0,0,0,.4.3c.1,0,.2,0,.2-.1.8-.4,1.5-.7,1.8-.9A.52.52,0,0,0,280.7,226.91Z"/><path class="cls-4" d="M201.6,216.81a.44.44,0,0,0,.4-.6l-.1-.6-.4-1.4a.45.45,0,0,0-.6-.3.42.42,0,0,0-.3.6l.4,1.3.1.6c-.1.2.2.4.5.4Z"/><path class="cls-4" d="M201.7,217.81a.44.44,0,0,0-.4.6l.3,2c0,.3.2.4.5.4h.1a.44.44,0,0,0,.4-.6l-.3-2C202.2,217.91,202,217.71,201.7,217.81Z"/><path class="cls-4" d="M203.7,221.21a.5.5,0,0,0-.6.8l1.6,1.2a.37.37,0,0,0,.3.1.52.52,0,0,0,.4-.2.49.49,0,0,0-.1-.7Z"/><path class="cls-4" d="M201,212.21v-.1l-.9-1.7a.51.51,0,1,0-.9.5l.9,1.7a.66.66,0,0,0,.5.4h.1A.83.83,0,0,0,201,212.21Z"/><path class="cls-4" d="M190.7,199.51a.47.47,0,0,0-.5-.5h-2a.5.5,0,0,0,0,1h2A.54.54,0,0,0,190.7,199.51Z"/><path class="cls-4" d="M208.1,222.61l-1.5.8a.52.52,0,0,0-.4.2.44.44,0,0,0,.2.7.37.37,0,0,0,.3.1c.1,0,.2,0,.2-.1l1.7-.9a.57.57,0,0,0,.2-.7C208.7,222.51,208.4,222.51,208.1,222.61Z"/><path class="cls-4" d="M194.4,207.61l-1.9-.8c-.3-.1-.5,0-.7.3s0,.5.3.7l1.8.8h.2a.55.55,0,0,0,.5-.3C194.8,208.11,194.6,207.81,194.4,207.61Z"/><path class="cls-4" d="M190.7,206.11l.1-1.3a.5.5,0,0,0-1,0l-.1,1.7a.55.55,0,0,0,.3.5l.3.1h.2a.55.55,0,0,0,.5-.3A.52.52,0,0,0,190.7,206.11Z"/><path class="cls-4" d="M190.8,200.31a.68.68,0,0,0-.6.4l-.2,2a.47.47,0,0,0,.5.5h0a.47.47,0,0,0,.5-.5l.2-2C191.2,200.61,191,200.31,190.8,200.31Z"/><path class="cls-4" d="M217.8,227.31a.1.1,0,0,0-.1-.1h0l-.4-.4a.49.49,0,1,0-.7.7l.4.4.7,1.2a.4.4,0,0,0,.4.2.37.37,0,0,0,.3-.1.57.57,0,0,0,.2-.7Z"/><path class="cls-4" d="M215.7,225.51l-1.7-1.1a.53.53,0,0,0-.7.2c-.2.3-.1.5.2.7l1.7,1.1a.37.37,0,0,0,.3.1.52.52,0,0,0,.4-.2A.78.78,0,0,0,215.7,225.51Z"/><path class="cls-4" d="M212.3,223.41l-1.5-1a.35.35,0,0,1-.2-.1h-.2a.5.5,0,0,0,0,1l1.5.9a.37.37,0,0,0,.3.1.52.52,0,0,0,.4-.2A.78.78,0,0,0,212.3,223.41Z"/><path class="cls-4" d="M143.1,253.21a.49.49,0,0,0-.7.7l1.4,1.4a.52.52,0,0,0,.4.2c.1,0,.3,0,.3-.1a.48.48,0,0,0,0-.7Z"/><path class="cls-4" d="M139.8,248.51l-.2-.4h0a.71.71,0,0,0-.3-.6l-.5-1.2a.51.51,0,1,0-.9.5l.8,1.6h0l.3.6a.55.55,0,0,0,.5.3h.2C139.9,249,140,248.71,139.8,248.51Z"/><path class="cls-4" d="M141.1,251.11l-.4-.8a.51.51,0,0,0-.9.5l.4.9.1.1.7.7a.52.52,0,0,0,.4.2c.1,0,.3,0,.3-.1a.48.48,0,0,0,0-.7Z"/><path class="cls-4" d="M150.5,266.31a.5.5,0,0,0-.8.6l1.3,1.5a.52.52,0,0,0,.4.2.37.37,0,0,0,.3-.1.62.62,0,0,0,.1-.7Z"/><path class="cls-4" d="M145.9,256.11a.49.49,0,0,0-.7.7l1.4,1.4a.52.52,0,0,0,.4.2c.1,0,.3,0,.3-.1a.48.48,0,0,0,0-.7Z"/><path class="cls-4" d="M153.2,273a.47.47,0,0,0-.5.5v2a.5.5,0,0,0,1,0v-2A.47.47,0,0,0,153.2,273Z"/><path class="cls-4" d="M153.1,269.31a.62.62,0,0,0-.7-.1c-.2.1-.2.5-.1.7l.3.4v1.1a.5.5,0,0,0,1,0v-1.3a.37.37,0,0,0-.1-.3Z"/><path class="cls-4" d="M149.7,262.91a.5.5,0,0,0-1,0v2a.5.5,0,0,0,1,0Z"/><path class="cls-4" d="M148.7,260.91a.5.5,0,0,0,1,0v-.7a1,1,0,0,0-.1-.3l-.9-1a.49.49,0,1,0-.7.7l.8.8v.5Z"/></g><path class="cls-5" d="M254.72,283.41a9.76,9.76,0,0,1-3.45,3,28.29,28.29,0,0,0,6.71,1.25,5.86,5.86,0,0,0-.79,1.19,26.31,26.31,0,0,1-7.41-1.74,29.83,29.83,0,0,1-7.43,1.76,4.49,4.49,0,0,0-.71-1.14,29.78,29.78,0,0,0,6.71-1.32,10.54,10.54,0,0,1-2.49-1.87,20.3,20.3,0,0,1-3,1.65c-.2-.23-.7-.67-.95-.89a15,15,0,0,0,5.68-3.67c-.77-.13-1-.52-1-1.36v-1.76h1.27v1.74c0,.37.13.44.9.44h2.67c.57,0,.68-.13.76-1.21a3.22,3.22,0,0,0,1.08.39c-.13,1.48-.48,1.83-1.67,1.83h-3l.33.11a8.84,8.84,0,0,1-1,1.1h5.7l.22-.05Zm-11.34-3.91h-1.26v-3.18h3.37a8.66,8.66,0,0,0-1.17-2l.53-.22c-.64,0-1.27.06-1.87.08a3.88,3.88,0,0,0-.3-1.05,94.85,94.85,0,0,0,12.92-1.1l.9.95a60.81,60.81,0,0,1-6.92.85,7.47,7.47,0,0,1,1,2.05l-1.14.4h3.31a22.62,22.62,0,0,0,1.68-2.69l1.29.49c-.5.76-1.07,1.54-1.6,2.2h3.3v3.31h-1.32v-2.2h-6.95a12,12,0,0,1,2.35,1.35l-.72.83a12.51,12.51,0,0,0-2.71-1.62l.53-.56h-5.21Zm-.81,1.78a5.05,5.05,0,0,0,2.24-2.77l1,.44a5.61,5.61,0,0,1-2.33,3.12Zm6-7.32-3,.16a6.54,6.54,0,0,1,1.16,1.95l-.61.25h3.25a8,8,0,0,0-1.06-2.29Zm-1.73,9.94a10.22,10.22,0,0,0,3,1.93,9.36,9.36,0,0,0,2.9-1.93Zm7.3-5.61a14.4,14.4,0,0,1,2.86,2.8l-1,.76a15.26,15.26,0,0,0-2.82-2.92Z"/><path class="cls-5" d="M264.94,278.82c0,.18,0,.4,0,.62h3.44v1.31h-3.52c0,.4-.11.82-.18,1.22.86.87,3.08,3.34,3.65,4l-.92,1.16c-.62-.9-2-2.62-3-3.74a10.05,10.05,0,0,1-3.8,5.41,4.55,4.55,0,0,0-.95-1,9.23,9.23,0,0,0,3.89-7h-3.69v-1.31h3.78v-3.65h-1.4a13.6,13.6,0,0,1-1.48,2.88,7.72,7.72,0,0,0-1.12-.79,14.67,14.67,0,0,0,2.27-5.81l1.32.26a18.14,18.14,0,0,1-.56,2.2h5.22v1.26h-2.9Zm10.57-5.15v14.45h-1.36v-1.27h-3.87v1.45H269V273.67Zm-1.36,11.9V275h-3.87v10.62Z"/><path class="cls-5" d="M191.12,174.18v-1.12h-3.91v1.83h-1V163.74h1v8.16h1.38V160.33h1.14V171.9h1.39v-8.16h1v10.44Zm10.47-6.92a13.08,13.08,0,0,1-3.43,6.11,11.55,11.55,0,0,0,4.33,2.35,5.19,5.19,0,0,0-.88,1.13,11.78,11.78,0,0,1-4.44-2.6,15,15,0,0,1-5.17,2.62,5,5,0,0,0-.7-1.14,13.16,13.16,0,0,0,5-2.42,15,15,0,0,1-2.66-4.86l1-.25h-1.85V167h3.78v-2.84h-4v-1.21h4v-2.8h1.32v2.8H202v1.21h-4.13V167h2.66l.22,0Zm-6.73.94a11.84,11.84,0,0,0,2.4,4.25A11.39,11.39,0,0,0,200,168.2Z"/><path class="cls-5" d="M220.4,173.81h-7.48v3.08h-1.39v-3.08h-7.41v-1.25h7.41v-1.49h-5.16v-9.18h4.06a15.3,15.3,0,0,0,.82-1.8l1.62.18a14.48,14.48,0,0,1-1,1.62h5.79v3.83h-9.92v1.36h10.49v4h-5.32v1.49h7.48ZM207.75,163v1.63h8.58V163Zm0,7h9.13v-1.81h-9.13Z"/><path class="cls-5" d="M84.09,331.39v1.38H68.29v-1.38Zm-1-12.27v1.36H69.34v-1.36Zm-1.43,5.95v1.37H70.51v-1.37Z"/><path class="cls-5" d="M102.71,332.4v1.12H86.39V332.4H93.8v-1.57h-6v-1.11h6v-1.26H88.32v-5.65H93.8v-1.1H86.48v-1.12H93.8v-1.32c-1.91.13-3.85.2-5.65.24a3.6,3.6,0,0,0-.29-1.08,95.31,95.31,0,0,0,12.25-1l.73,1.06c-1.56.29-3.56.49-5.7.66v1.41h7.46v1.12H95.14v1.1h5.74v5.65H95.14v1.26h6.42v1.11H95.14v1.57Zm-13.06-7.22H93.8V323.8H89.65Zm4.15,2.31v-1.4H89.65v1.4Zm1.34-3.69v1.38H99.5V323.8Zm4.36,2.29H95.14v1.4H99.5Z"/><circle class="cls-6" cx="197.18" cy="272.34" r="13.93"/><circle class="cls-6" cx="197.18" cy="272.34" r="42.63"/><circle class="cls-6" cx="197.18" cy="272.34" r="82.26"/></g></g></svg>